<svg xmlns="http://www.w3.org/2000/svg" viewBox="0 0 2200 242"><title>blok-1</title><path d="M719.85,111.22c.85-.72,1.68-1.46,2.52-2.19s1.46-1.26,2.2-1.88c1.71-1.43,3.42-2.85,5.12-4.29l2.48-2.12c.79-.67,1.61-1.31,2.41-1.95q2.52-2,5-4.11l2.47-2.05c.88-.72,1.75-1.46,2.64-2.16s1.72-1.36,2.6-2,1.82-1.32,2.72-2c1.76-1.3,3.49-2.62,5.24-3.93s3.53-2.59,5.37-3.78,3.69-2.33,5.59-3.4,3.86-2.1,5.8-3.13,3.71-1.86,5.6-2.72,4-1.79,6.06-2.65c1.06-.44,2.12-.88,3.19-1.3s1.88-.74,2.84-1.08c2.12-.73,4.26-1.41,6.43-2s4.26-1.12,6.41-1.63,4.2-1,6.31-1.45l3.3-.72c1.07-.23,2.16-.42,3.24-.61,4.08-.71,8.17-1.38,12.29-1.8,1.12-.12,2.25-.22,3.38-.29s2-.09,3-.11c2.16,0,4.33-.13,6.49-.12h2.14q1,0,2-.12l.63-.14a.7.7,0,0,1,.35,0l1.63-.22c.76-.12,1.51-.24,2.26-.41s1.64-.38,2.46-.6,1.46-.41,2.17-.65c1-.32,1.93-.65,2.89-1a.86.86,0,0,1,.23-.06.81.81,0,0,1,1,.09l.05,0a.8.8,0,0,1-.12,1.12l-.05,0a.87.87,0,0,1-.15.48l-.72,1.14c-.18.28-.33.58-.49.87l.1-.18c-.44.83-.9,1.64-1.39,2.44l-.81,1.27c-.21.46-.4.94-.6,1.41-.4.93-.77,1.87-1.12,2.82s-.78,2.17-1.15,3.26-.65,1.91-1,2.85-.87,2.11-1.31,3.16-.77,1.87-1.17,2.8-.85,2-1.3,3l-1.35,2.9c-.9,1.94-1.74,3.9-2.63,5.84-.46,1-.94,2-1.45,3s-1,2-1.55,2.94c-1,2-2.07,3.94-3.22,5.84-.57.94-1.16,1.86-1.71,2.81s-1,1.78-1.54,2.69c-1,1.88-2,3.8-3.19,5.58s-2.52,3.73-3.79,5.59c-.62.92-1.27,1.83-1.92,2.74-.31.42-.64.84-1,1.25s-.45.59-.68.88a1,1,0,0,1-.22.33c-.07.08-.15.15-.22.22L820.89,124c-.7.87-1.4,1.76-2.13,2.61l-.93,1.07a.65.65,0,0,1-.24.35l-.24.18c-.28.31-.57.63-.86.93-.77.79-1.54,1.58-2.32,2.35-1.54,1.51-3.08,3-4.7,4.46-2.89,2.54-5.85,5-8.81,7.44a.94.94,0,0,1-.43.49c-.22.15-.45.3-.69.44l-.38.32c-1.64,1.37-3.3,2.72-5,4.06l-1.25,1a.84.84,0,0,1-.41.46l-.47.23c-1,.76-2,1.51-3,2.23s-2.25,1.6-3.39,2.37l-.11.08c-.66.45-1.34.9-2,1.33-1.92,1.2-3.84,2.38-5.78,3.54-3.32,2-6.7,3.89-10.13,5.7a.79.79,0,0,1-.29.25l-1.26.57-.08,0c-1.91,1-3.83,2-5.78,2.9s-4,1.74-6,2.53c-1,.39-2,.75-2.94,1.1s-2,.72-3,1.05c-2.09.7-4.19,1.35-6.32,1.92s-4.2,1.1-6.31,1.61c-1,.25-2,.51-3.08.72s-2.14.42-3.21.6c-2.06.34-4.13.66-6.2.89-1.08.11-2.16.16-3.24.21s-2.28.06-3.42.05c-.53,0-1.07-.05-1.6-.08s-1.07-.09-1.6-.15c-1-.1-2-.23-3-.38-2.07-.31-4.14-.66-6.2-1.09-1.51-.31-3-.59-4.54-.85l-4.2-.69c-1.35-.21-2.71-.4-4.08-.53l-.47,0c-1.95.92-3.91,1.8-5.88,2.67-2.28,1-4.57,2-6.88,3s-4.47,1.82-6.72,2.68-4.38,1.66-6.59,2.43c-1,.34-1.93.66-2.9,1s-2.13.7-3.21,1a9.65,9.65,0,0,1-3,.56,3.53,3.53,0,0,1-.91-.15,3.11,3.11,0,0,1-.64-.3,1.88,1.88,0,0,1-.52-.45l-.09-.13a1.36,1.36,0,0,1-.29-.66,1.85,1.85,0,0,1,0-.74,2.09,2.09,0,0,1,.34-.83l.15-.22c.14-.16.29-.31.44-.46a2.85,2.85,0,0,1,.53-.38c.17-.11.35-.21.53-.31s.46-.23.7-.34c.42-.19.85-.37,1.28-.53.93-.35,1.87-.67,2.81-1s2-.57,2.92-.86c1.15-.34,2.3-.67,3.46-1l-.26.07c1.2-.35,2.39-.73,3.56-1.17s2.2-.86,3.3-1.3c2.25-.91,4.47-1.89,6.72-2.79s4.46-1.71,6.66-2.63l3.19-1.4c.12-.38.22-.77.32-1.17.2-.79.4-1.59.59-2.39s.35-1.89.51-2.84c.34-2,.63-4,1.08-6s.93-3.87,1.52-5.77c.3-1,.7-1.86,1.08-2.77s.84-2,1.24-3,.73-1.83,1.09-2.75.75-1.89,1.18-2.81c.9-1.91,1.88-3.78,2.84-5.66s1.94-3.81,3-5.69,2.07-3.82,3.19-5.68c.27-.46.56-.91.84-1.36s.52-.83.8-1.23.67-.94,1-1.41.64-.83,1-1.24c.66-.84,1.36-1.66,2-2.48s1.46-1.6,2.24-2.36C716.63,114,718.24,112.59,719.85,111.22Z" fill="#fff"/><path d="M800.66,143.4c3-2.45,5.92-4.9,8.81-7.44,1.62-1.43,3.16-3,4.7-4.46.78-.77,1.55-1.56,2.32-2.35.29-.3.58-.62.86-.93l.24-.18a.65.65,0,0,0,.24-.35l.93-1.07c.73-.85,1.43-1.74,2.13-2.61l1.81-2.27c.07-.07.15-.14.22-.22a1,1,0,0,0,.22-.33c.23-.29.46-.58.68-.88s.65-.83,1-1.25c.65-.91,1.3-1.82,1.92-2.74,1.27-1.86,2.54-3.71,3.79-5.59s2.17-3.7,3.19-5.58c.5-.91,1-1.8,1.54-2.69s1.14-1.87,1.71-2.81c1.15-1.9,2.18-3.87,3.22-5.84.51-1,1-2,1.55-2.94s1-2,1.45-3c.89-1.94,1.73-3.9,2.63-5.84l1.35-2.9c.45-1,.87-2,1.3-3s.78-1.87,1.17-2.8.88-2.1,1.31-3.16.7-1.9,1-2.85.75-2.18,1.15-3.26.72-1.89,1.12-2.82c.2-.47.39-1,.6-1.41l.81-1.27c.49-.8,1-1.61,1.39-2.44l-.1.18c.16-.29.31-.59.49-.87s.48-.77.72-1.14a.87.87,0,0,0,.15-.48l.05,0a.8.8,0,0,0,.12-1.12l-.05,0a.81.81,0,0,0-1-.09.86.86,0,0,0-.23.06c-1,.36-1.92.69-2.89,1-.71.24-1.44.45-2.17.65s-1.64.42-2.46.6-1.5.29-2.26.41l-1.63.22a.7.7,0,0,0-.35,0l-.63.14q-1,.09-2,.12h-2.14c-2.16,0-4.33.07-6.49.12-1,0-2,0-3,.11s-2.26.17-3.38.29c-4.12.42-8.21,1.09-12.29,1.8-1.08.19-2.17.38-3.24.61l-3.3.72c-2.11.47-4.21.94-6.31,1.45s-4.28,1.06-6.41,1.63-4.31,1.26-6.43,2c-1,.34-1.91.7-2.84,1.08s-2.13.86-3.19,1.3c-2,.86-4.05,1.75-6.06,2.65s-3.77,1.74-5.6,2.72-3.88,2.05-5.8,3.13-3.75,2.22-5.59,3.4-3.61,2.48-5.37,3.78-3.49,2.63-5.24,3.93c-.9.67-1.81,1.32-2.72,2s-1.74,1.32-2.6,2-1.76,1.44-2.64,2.16l-2.47,2.05q-2.5,2.07-5,4.11c-.81.64-1.62,1.28-2.41,1.95l-2.48,2.12c-1.7,1.44-3.41,2.86-5.12,4.29-.74.62-1.48,1.24-2.2,1.88s-1.67,1.47-2.52,2.19c-1.61,1.37-3.22,2.74-4.73,4.21-.78.76-1.54,1.53-2.24,2.36s-1.38,1.64-2,2.48c-.33.41-.65.82-1,1.24s-.68.94-1,1.41-.54.81-.8,1.23-.57.9-.84,1.36c-1.12,1.86-2.16,3.77-3.19,5.68s-2,3.78-3,5.69-1.94,3.75-2.84,5.66c-.43.92-.81,1.86-1.18,2.81s-.72,1.84-1.09,2.75-.82,2-1.24,3-.78,1.82-1.08,2.77c-.59,1.9-1.08,3.83-1.52,5.77s-.74,4-1.08,6c-.16.95-.3,1.9-.51,2.83s-.39,1.61-.59,2.41c-.1.39-.2.78-.32,1.16l-3.19,1.4c-2.2.92-4.45,1.73-6.66,2.63s-4.47,1.88-6.72,2.79c-1.1.44-2.19.89-3.3,1.3s-2.36.82-3.56,1.17l.26-.07c-1.16.32-2.31.65-3.46,1-1,.29-2,.55-2.92.86s-1.88.63-2.81,1c-.43.16-.86.34-1.28.53-.24.11-.48.22-.7.34s-.36.2-.53.31a2.85,2.85,0,0,0-.53.38c-.15.15-.3.3-.44.46l-.15.21a2.19,2.19,0,0,0-.34.84,1.85,1.85,0,0,0,0,.74,1.36,1.36,0,0,0,.29.66l.09.13a1.88,1.88,0,0,0,.52.45,3.11,3.11,0,0,0,.64.3,3.53,3.53,0,0,0,.91.15,9.77,9.77,0,0,0,3-.56c1.07-.3,2.14-.65,3.2-1s1.94-.65,2.9-1q3.31-1.16,6.59-2.43c2.25-.86,4.48-1.78,6.72-2.68s4.6-2,6.88-3q3-1.31,5.88-2.67l.47,0c1.37.13,2.73.32,4.08.53l4.2.69c1.52.26,3,.54,4.54.85,2.06.43,4.13.78,6.2,1.09,1,.15,2,.27,3,.38.53.06,1.07.12,1.6.15s1.07.08,1.6.08c1.14,0,2.28,0,3.42-.05s2.16-.1,3.24-.21c2.07-.23,4.14-.55,6.2-.89q1.6-.27,3.21-.6c1-.21,2.06-.47,3.08-.72,2.11-.51,4.21-1,6.31-1.61s4.23-1.22,6.32-1.92c1-.33,2-.69,3-1.05s2-.71,2.95-1.1c2-.8,4-1.61,6-2.53s3.87-1.9,5.78-2.9l.08,0,1.26-.57a.88.88,0,0,0,.29-.25c3.43-1.81,6.81-3.7,10.13-5.7,1.94-1.16,3.86-2.34,5.78-3.54.68-.43,1.36-.88,2-1.33l.11-.08q1.71-1.16,3.39-2.37c1-.72,2-1.47,3-2.23l.47-.23a.87.87,0,0,0,.41-.46l1.24-1q2.5-2,5-4.06l.38-.32c.24-.14.47-.29.69-.44a.94.94,0,0,0,.43-.49m26.11-30.26c-.14.21-.28.41-.41.62s-.27.36-.41.53a19.77,19.77,0,0,1-2.49,2.26c-.48.38-1,.74-1.48,1.1l-1.34.95c-.55.36-1.1.71-1.68,1s-1.18.6-1.79.87c-1.18.53-2.38,1-3.59,1.48a26.66,26.66,0,0,1-4.25,1c-1.39.22-2.8.41-4.21.53-1.07.07-2.13.15-3.2.2l-3,.11c-1,0-2,.1-3,.15s-2,.09-2.94.09-2,0-3,0l-3.27-.09c-1,0-2,0-3,0s-2,0-3.05,0-2.15.09-3.22.17h0l-.27,0h.15c-.64,0-1.28.09-1.91.18,1.15-.81,2.31-1.62,3.45-2.46l.49-.16,1-.31a27.72,27.72,0,0,1,6.86-.71h.43c1.07,0,2.15,0,3.22.05.52,0,1,0,1.54,0s1.12,0,1.67,0c1.07,0,2.13.07,3.19.08s2.16,0,3.24,0,2.36,0,3.53-.12,2.23-.22,3.34-.39,2.18-.41,3.26-.65,2.12-.53,3.17-.81,2.2-.65,3.29-1,2.1-.71,3.14-1.08c.47-.17.94-.37,1.4-.58s1-.45,1.45-.71a33.69,33.69,0,0,0,2.89-1.85c.43-.31.85-.62,1.27-1l0,0-.27.4M707.5,138.59c.67-2,1.31-4.08,2-6.1.27-.72.56-1.43.85-2.14.81-2,1.63-4,2.61-5.94.51-1,1-2,1.6-2.92s1.15-1.81,1.76-2.7c.94-1.3,1.93-2.58,3-3.79-.25.41-.49.83-.72,1.25-.58,1-1.13,2.11-1.65,3.19s-1,2.16-1.47,3.27-.82,2.32-1.2,3.49c-.74,2.29-1.46,4.59-2,6.93s-1.16,4.66-1.78,7c-.29,1.08-.6,2.16-.9,3.24s-.66,2.21-1,3.31c-.68,1.87-1.42,3.71-2.2,5.53s-1.71,3.75-2.62,5.59c-.51,1-1,2.08-1.59,3.1s-1.1,1.94-1.65,2.92-1.07,1.88-1.62,2.82c-.35.61-.73,1.2-1.1,1.8l-3.36,1.49c.34-.58.67-1.15,1-1.72.49-.81.94-1.65,1.4-2.49s1-1.75,1.46-2.64,1-1.94,1.44-2.93.9-2,1.33-3,.86-2.06,1.26-3.11.83-2.23,1.23-3.35c.23-.63.46-1.26.68-1.89l.59-1.71c.27-.75.53-1.5.79-2.25.36-1,.68-2.11,1-3.17s.58-2,.91-3m82.16-20.48c-1.16,0-2.31,0-3.47,0s-2.05.1-3.07.24l4.12-3.34c.39-.11.8-.19,1.2-.27s.85-.16,1.28-.22.89-.13,1.34-.17l1.05,0c.7,0,1.41,0,2.12.06.95,0,1.9.07,2.84.12s2,.1,3,.11,2.24,0,3.35,0,2,0,2.95-.1,2-.12,3-.25,2.11-.29,3.15-.48,2-.43,2.92-.68,2.18-.6,3.27-.93a27.09,27.09,0,0,0,2.74-1,23.29,23.29,0,0,0,2.72-1.29,25.86,25.86,0,0,0,2.66-1.74c.83-.63,1.65-1.28,2.43-2l2.42-2.1.41-.35-.28.45c-.37.63-.71,1.28-1.11,1.9a19.64,19.64,0,0,1-1.31,1.83q-.67.81-1.38,1.59a18.06,18.06,0,0,1-2.34,2.11c-.86.61-1.73,1.22-2.63,1.78a21.27,21.27,0,0,1-3.88,1.78c-1.35.46-2.72.87-4.09,1.27-2.05.56-4.14,1-6.25,1.39-1.05.19-2.11.35-3.18.44s-2.16.18-3.24.21-2.09,0-3.13-.07-2.1-.06-3.15-.11-2.18-.09-3.28-.09-2.14-.08-3.21-.1m13,.36h0Zm32.05-19.83c-.41.56-.85,1.09-1.31,1.61-.67.69-1.38,1.35-2.11,2s-1.47,1.26-2.2,1.89-1.55,1.35-2.36,2-1.62,1.21-2.48,1.75c-.47.29-1,.56-1.46.81s-1.1.52-1.66.75a37.09,37.09,0,0,1-3.55,1.21l-.84.23c-1,.27-2,.51-3.06.74s-2,.38-3,.51a51.06,51.06,0,0,1-5.92.42c-2,0-4.08,0-6.12-.08l-3-.18-1.48-.06c-.5,0-1,0-1.5,0s-1.09,0-1.64,0l-.31,0,.08-.07c.88-.71,1.77-1.4,2.65-2.1h0A.92.92,0,0,0,794,110l.13-.08a7,7,0,0,1,.93-.38c.31-.11.62-.21.94-.3.83-.23,1.67-.47,2.53-.63a50.54,50.54,0,0,1,5.88-.75c1.94-.15,3.88-.31,5.82-.5s4-.41,6-.77c1-.19,2-.43,3-.69s2.11-.57,3.15-.89c1.89-.58,3.78-1.24,5.61-2,.45-.19.91-.38,1.36-.59.24-.13.5-.23.74-.37l.71-.39c.51-.28,1-.62,1.48-.95s.77-.57,1.14-.87.93-.77,1.38-1.17m0-3.81a26.34,26.34,0,0,0,4.52-3.71l.37-.37c-.17.24-.35.47-.53.71-.37.51-.78,1-1.19,1.46-.85,1-1.74,2-2.63,2.91a29.79,29.79,0,0,1-2.49,2.27c-.49.4-1,.79-1.51,1.17a14.23,14.23,0,0,1-1.22.8c-.36.19-.71.39-1.07.56l-1.22.55c-.74.32-1.49.59-2.24.86-1.44.52-2.9,1-4.37,1.41s-3.23.82-4.87,1.14c-.94.18-1.89.3-2.83.41s-2,.23-3,.31c-2,.15-3.93.31-5.9.41a48.64,48.64,0,0,0-5.9.67c-.27,0-.53.1-.79.16.54-.45,1.09-.89,1.64-1.32.72-.57,1.45-1.13,2.18-1.68a.84.84,0,0,0,.26-.07,10.11,10.11,0,0,1,1.38-.54,41.73,41.73,0,0,1,4.12-.83c1.47-.24,3-.39,4.44-.55,2-.21,3.93-.47,5.9-.71,1-.12,2-.26,3-.41a23.61,23.61,0,0,0,3-.64c1-.28,1.94-.59,2.89-.94s1.73-.71,2.58-1.1S831,96.9,832,96.42s1.86-1,2.76-1.59m4.18-5.94.4-.28-.81.86a33,33,0,0,1-2.61,2.41c-.45.36-.9.73-1.38,1.05s-1,.64-1.46.95c-.76.44-1.53.86-2.31,1.25s-1.57.75-2.37,1.11-1.57.69-2.37,1-1.5.5-2.26.73c-.42.11-.84.23-1.26.32s-.94.18-1.41.25c-1,.14-1.92.27-2.88.38l-5.74.62c-1,.11-2,.19-3,.3s-1.87.23-2.8.38l-.9.15c.84-.65,1.67-1.32,2.49-2,.36-.29.71-.59,1.06-.89a1.1,1.1,0,0,0,.36-.07c.47-.19.93-.4,1.39-.6s.74-.28,1.11-.39.92-.24,1.37-.35c1-.21,1.9-.38,2.86-.52s1.9-.22,2.85-.35c1.92-.26,3.85-.42,5.77-.74a28.42,28.42,0,0,0,2.87-.67c1-.26,1.91-.54,2.83-.89s1.93-.79,2.88-1.22,1.7-.78,2.54-1.21c.45-.23.91-.46,1.35-.72a15.44,15.44,0,0,0,1.4-.86M840.61,85c-.25.3-.52.6-.79.88s-.77.74-1.18,1.07a15.9,15.9,0,0,1-1.36,1,49.37,49.37,0,0,1-4.72,2.35c-.84.37-1.68.72-2.54,1s-1.53.51-2.3.74l-1.87.47c-.62.14-1.25.25-1.87.34-1.28.19-2.56.31-3.84.46-.95.11-1.9.24-2.86.34s-1.89.19-2.82.36l-1.42.28.64-.55c1.28-1.11,2.55-2.25,3.81-3.38.42-.11.85-.21,1.27-.3.85-.19,1.71-.35,2.57-.48.42-.06.84-.14,1.26-.19s.88-.1,1.32-.13c.9-.06,1.8-.11,2.7-.18a26.2,26.2,0,0,0,2.65-.3c.45-.09.89-.21,1.33-.31l1.26-.32c.91-.24,1.82-.48,2.72-.78s1.71-.58,2.54-.94a20.27,20.27,0,0,0,2.57-1.35c.64-.39,1.27-.81,1.88-1.26L840.61,85m4-7.53c.47-.32.91-.67,1.34-1l-.53.78c-.21.33-.42.65-.64,1s-.45.65-.68,1-.44.56-.67.83-.69.69-1.06,1l-1.25,1c-.43.35-.89.66-1.35,1s-.78.52-1.18.77a21,21,0,0,1-2.91,1.4c-.91.35-1.84.66-2.77.94-1.13.31-2.25.61-3.39.89a19.6,19.6,0,0,1-3.49.44c-.89.06-1.78.08-2.67.15s-1.76.19-2.64.32l-.67.1c1.57-1.44,3.11-2.92,4.67-4.38l1.1-1h0c.42-.11.85-.2,1.27-.29s1-.2,1.44-.27,1-.13,1.48-.16l1.46-.12,1.36-.1c.42,0,.86-.06,1.28-.13l.72-.13.71-.18,1.48-.43a32.84,32.84,0,0,0,5.07-2,21.4,21.4,0,0,0,2.47-1.39M847.83,71l.95-.94c.1-.11.2-.21.31-.31-.12.28-.26.56-.4.83a19.43,19.43,0,0,1-1.3,2c-.2.28-.42.55-.64.82s-.31.35-.47.52c-.52.51-1,1-1.61,1.47a8.16,8.16,0,0,1-.88.67c-.27.19-.55.36-.83.53-.52.3-1.05.57-1.59.83s-1.11.5-1.67.73a32.64,32.64,0,0,1-3.19,1.13l-.56.15-.73.2a8.33,8.33,0,0,1-1.32.26q-.71.08-1.41.12l-2.58.16c-.48,0-.95.07-1.42.14.6-.53,1.21-1,1.83-1.55l.68-.55,0,0a3.26,3.26,0,0,1,.61-.25l.59-.19,1.1-.33,1.32-.37c.82-.23,1.65-.44,2.48-.66s1.78-.51,2.66-.82a31.6,31.6,0,0,0,4.63-2.1,14,14,0,0,0,2.34-1.51l1.06-.91m1.28-4.72a10.38,10.38,0,0,0,1.76-1.48l.24-.24c-.14.29-.28.58-.43.87a7.85,7.85,0,0,1-.85,1.14c-.19.22-.39.43-.59.65-.74.77-1.47,1.53-2.24,2.26-.41.4-.84.76-1.28,1.13-.2.16-.41.32-.63.47a5.39,5.39,0,0,1-.5.33,39.39,39.39,0,0,1-3.55,1.8,28,28,0,0,1-3.56,1.29l-3,.79c.51-.42,1-.84,1.52-1.28,1.7-1.46,3.39-3,5.06-4.44l.91-.27.19-.06h0l.21,0h0c.77-.22,1.53-.44,2.27-.71s1.53-.61,2.26-1a23.14,23.14,0,0,0,2.23-1.25m-10.41-3c-.52.73-1,1.47-1.52,2.24s-1,1.74-1.49,2.64-.82,1.6-1.25,2.4-.77,1.46-1.17,2.17c-.29.49-.58,1-.9,1.44l-.17.24c-1,.78-1.94,1.55-2.89,2.37-1.41,1.22-2.8,2.46-4.22,3.67l-1.25,1.05c0-.09.08-.17.11-.26.36-.85.69-1.72,1-2.59s.74-1.81,1.13-2.72.78-1.8,1.21-2.69.86-1.59,1.31-2.37.9-1.49,1.39-2.21,1-1.41,1.54-2.09A40.49,40.49,0,0,1,834.83,63c.63-.6,1.26-1.19,1.94-1.72a23,23,0,0,1,2.17-1.48,25.52,25.52,0,0,1,2.9-1.36,26.23,26.23,0,0,1,3-.94l.24-.05-.24.14a24.45,24.45,0,0,0-2.33,1.71,25.06,25.06,0,0,0-2.12,2,11.49,11.49,0,0,0-.88,1c-.28.36-.55.73-.82,1.1m-20.76,4.42a32.57,32.57,0,0,0-2.68,6.07c-.71,2.09-1.3,4.21-1.83,6.35q-.36,1.49-.69,3c-.22,1-.43,2.05-.7,3.06-.41,1.48-.79,3-1.32,4.42-.43,1.17-.92,2.32-1.42,3.45l-.67.6c-.89.77-1.78,1.52-2.69,2.28.06-.16.11-.31.16-.46.6-1.7,1.13-3.43,1.57-5.18.23-.89.45-1.78.68-2.68s.37-1.65.55-2.48c.22-1,.43-2.07.64-3.11s.41-2,.67-3c.52-1.94,1.06-3.86,1.71-5.76.48-1.29,1-2.56,1.59-3.8a28.63,28.63,0,0,1,2-3.5,23.53,23.53,0,0,1,2.13-2.65,34.11,34.11,0,0,1,2.54-2.42c.24-.2.48-.4.73-.57l.85-.54c.52-.32,1.06-.6,1.61-.87.31-.15.63-.29.95-.41s.66-.2,1-.29l.35-.1-.1.07c-.43.29-.84.62-1.25.94a25,25,0,0,0-2.47,2.36,30.72,30.72,0,0,0-3.88,5.27m-3.76-2.12a26.16,26.16,0,0,0-1.73,2.81c-.5.94-1,1.9-1.39,2.88a47,47,0,0,0-2.1,6c-.28,1-.56,1.92-.78,2.89s-.43,2-.64,3.06-.44,2.06-.67,3.08c-.11.48-.21,1-.33,1.43s-.25.94-.37,1.41c-.27,1-.54,2.07-.84,3.1s-.57,1.86-.89,2.79l-.78,2.22c-.29.77-.65,1.52-1,2.28l-2.53,2-.47.4.12-.33a29.45,29.45,0,0,0,1.09-3.33c.13-.5.24-1,.38-1.5s.3-1,.43-1.5a30.16,30.16,0,0,0,.61-3.12c.17-1.07.36-2.13.53-3.2q.49-3.09,1.13-6.16c.23-1.08.46-2.17.74-3.24s.6-2,.95-3c.28-.78.55-1.55.84-2.32s.63-1.56,1-2.33a33,33,0,0,1,2.35-4.19c.35-.48.7-1,1.06-1.42s.78-1,1.2-1.51a28.55,28.55,0,0,1,2.46-2.46,13.89,13.89,0,0,1,2.59-1.66c.35-.16.7-.3,1.05-.44s.73-.32,1.1-.46.72-.25,1.08-.36c-.34.23-.68.46-1,.71s-.77.64-1.14,1a26,26,0,0,0-4.06,4.51m-1-4.33a22.42,22.42,0,0,0-2,2c-.75.82-1.44,1.7-2.11,2.58a22.59,22.59,0,0,0-1.89,2.84c-.5.9-1,1.83-1.41,2.77s-.88,2.09-1.28,3.16-.8,2.14-1.18,3.22-.62,2.08-.88,3.13-.47,2-.7,3-.43,2.09-.65,3.14-.39,2.09-.59,3.14-.35,2.07-.57,3.09c-.12.51-.23,1-.39,1.52s-.34,1-.5,1.56-.26,1-.4,1.46-.29,1-.45,1.43c-.44,1.21-.9,2.41-1.39,3.59-.24.57-.52,1.12-.81,1.67-.12.23-.24.45-.37.67l-.23.45a.9.9,0,0,0-.08.21c-.38.34-.76.68-1.16,1-.83.7-1.66,1.37-2.51,2,.46-.93.9-1.89,1.31-2.85s.76-2,1.1-2.93v0l.66-1.83c0,.1-.07.19-.1.29l.24-.68c.36-1,.72-2.1,1.07-3.14s.63-2.1.92-3.15.63-2.19.92-3.29c.14-.51.26-1,.38-1.55s.21-1,.31-1.5c.21-1.11.46-2.21.67-3.31s.39-2.16.62-3.23.46-2.15.74-3.2.6-2.08.94-3.11c.55-1.5,1.19-3,1.87-4.43a32.77,32.77,0,0,1,2.27-4A25.76,25.76,0,0,1,807.12,65a24.53,24.53,0,0,1,2-2,15.83,15.83,0,0,1,1.34-1,15.41,15.41,0,0,1,1.51-.9,15.76,15.76,0,0,1,1.65-.66c.33-.11.67-.2,1-.29l-.21.14a14.68,14.68,0,0,0-1.23,1M805,64.78c-.38.47-.75,1-1.09,1.45-.61.91-1.19,1.85-1.72,2.81s-1,2-1.5,3c-.23.51-.46,1-.67,1.54s-.46,1.21-.68,1.82c-.37,1.06-.7,2.12-1,3.2s-.54,2.09-.78,3.14c-.13.52-.26,1-.36,1.59s-.22,1.09-.34,1.63c-.25,1.1-.54,2.2-.77,3.31s-.47,2.1-.75,3.15-.61,2.09-.92,3.13-.62,2.09-1,3.12c-.18.52-.36,1-.53,1.55s-.31,1-.47,1.43c-.31.93-.62,1.85-.94,2.77a33.37,33.37,0,0,1-2.4,5.14c-.46.8-1,1.59-1.46,2.36-.34.53-.74,1-1,1.61-1.05.72-2.1,1.45-3.13,2.21l0-.07c.23-.48.44-1,.66-1.45s.41-.92.61-1.38.38-1,.57-1.43c.41-1,.8-2,1.18-3s.77-2.16,1.15-3.25c.18-.5.35-1,.53-1.51s.33-1,.49-1.53l.51-1.63c.31-1.06.61-2.12.89-3.18s.61-2.19.9-3.29.49-2.12.73-3.18c.47-2.15.94-4.3,1.46-6.44.26-1.06.49-2.14.78-3.2s.62-2.17,1-3.24c.49-1.36,1-2.7,1.58-4,.27-.65.57-1.29.9-1.91a15.78,15.78,0,0,1,1-1.6c.64-.89,1.29-1.77,2-2.6.35-.41.71-.82,1.1-1.2s.76-.71,1.16-1.05a16.21,16.21,0,0,1,1.78-1.3,18.64,18.64,0,0,1,1.85-1,15.48,15.48,0,0,1,1.69-.6,23.9,23.9,0,0,0-2,1.92c-.36.39-.7.79-1,1.2m-7.21,2.6c-.34.44-.68.87-1,1.33s-.69,1-1,1.48a27.25,27.25,0,0,0-1.42,2.93c-.45,1-.88,2.06-1.27,3.11s-.82,2.34-1.17,3.53c-.31,1-.57,2.09-.85,3.14s-.59,2.18-.86,3.27-.51,2.11-.76,3.17-.49,2.13-.79,3.18-.64,2.17-1,3.25q-.93,3.15-2,6.26c-.37,1-.74,2.1-1.1,3.16s-.72,2-1.11,3-.77,2-1.18,2.93c-.2.46-.4.93-.61,1.39s-.41,1-.64,1.44-.46.94-.71,1.39-.5.88-.75,1.31-.47.85-.74,1.26l-.74,1.09-1.1.83c-1,.71-1.93,1.39-2.91,2.07l-.4.29.75-1.26c.57-.95,1.11-1.91,1.65-2.87s1-1.9,1.52-2.86,1.06-2.1,1.57-3.16.9-1.94,1.31-2.92c.88-2.07,1.8-4.12,2.59-6.22s1.56-4.34,2.21-6.55c.31-1.06.63-2.13.9-3.21s.55-2.21.81-3.31c.51-2.21,1-4.41,1.57-6.6s1.18-4.25,1.91-6.33a40.89,40.89,0,0,1,1.59-4,33.94,33.94,0,0,1,2.12-3.83,25.17,25.17,0,0,1,1.59-2,20.71,20.71,0,0,1,1.72-1.66,16.33,16.33,0,0,1,2.6-1.77,16.82,16.82,0,0,1,1.9-.72,23,23,0,0,0-2.2,2,26.79,26.79,0,0,0-2.08,2.44m-4.77.23a19.91,19.91,0,0,0-1.89,3c-.52,1-1,2-1.47,3a64.32,64.32,0,0,0-2.34,6.58c-.66,2.16-1.27,4.34-1.79,6.54s-1,4.4-1.65,6.57-1.29,4.27-2,6.37c0,.13-.09.25-.13.37-.74,2.08-1.58,4.12-2.47,6.13-.45,1-.89,2.09-1.36,3.11s-.94,2-1.44,3-1,2.06-1.56,3.08-1.08,1.91-1.62,2.86-1.1,1.85-1.66,2.77-1.12,1.79-1.71,2.65c-.3.43-.6.85-.91,1.27s-.4.58-.62.86l-.62.42c.29-.58.56-1.17.84-1.76.92-2,1.72-4,2.46-6.1.22-.6.44-1.2.63-1.8s.32-1,.48-1.55c.34-1.07.66-2.14,1-3.21q.93-3.08,1.71-6.19c.55-2.14,1.14-4.28,1.67-6.43.27-1.09.53-2.19.8-3.28s.58-2.1.9-3.14c.63-2.1,1.2-4.21,1.92-6.28.2-.56.39-1.11.62-1.66.43-1,.89-2,1.36-3s1-2,1.52-3c1.06-1.93,2.18-3.84,3.42-5.66.75-1,1.52-2,2.34-3,.39-.47.83-.91,1.26-1.34s.93-.88,1.42-1.3,1.27-1,1.92-1.52c.34-.24.67-.49,1-.71l.27-.15-.16.15A22.11,22.11,0,0,0,793,67.61m-5.6,2c-.69.85-1.36,1.72-2,2.62s-1.32,2-2,3.06-1.09,1.84-1.59,2.79-1,2-1.52,3-1,2-1.39,3c-.86,2.14-1.54,4.34-2.23,6.54-.33,1.09-.69,2.17-1,3.26s-.57,2-.83,3.08c-.55,2.15-1.14,4.28-1.71,6.42s-1.13,4.21-1.78,6.29-1.31,4.14-2,6.2c-.27.76-.56,1.52-.85,2.27-.78,2-1.63,4-2.58,5.94-.49,1-1,2-1.52,3-.25.47-.51,1-.78,1.41-.16.29-.35.56-.51.86l-2,1.42c.59-1.2,1.12-2.42,1.65-3.65.41-1,.79-1.95,1.15-2.94s.8-2.19,1.14-3.31c.64-2,1.14-4.12,1.58-6.22s.85-4.39,1.22-6.59c.18-1.07.4-2.14.61-3.21s.39-2.09.61-3.13.41-2.12.66-3.17.49-2.09.75-3.13.53-2.16.83-3.23.63-2,1-3.06l.45-1.2q.57-1.51,1.17-3c.41-1,.88-2,1.37-3s1-1.86,1.49-2.76c.29-.5.58-1,.89-1.47s.5-.77.76-1.14c.42-.59.85-1.16,1.31-1.72s.88-1,1.35-1.48c1-1,1.94-1.89,3-2.78a26.08,26.08,0,0,1,2.59-1.94c.91-.58,1.83-1.14,2.78-1.65l.73-.32-.53.48c-.39.37-.79.74-1.15,1.14s-.76.86-1.12,1.31m2.05-2.6-.17.08.16-.08h0m-12.82,9c-.33.46-.64.93-.94,1.41-.58,1-1.14,1.92-1.67,2.91a30.34,30.34,0,0,0-1.39,2.87c-.42,1-.81,2-1.2,3s-.86,2.22-1.23,3.35-.69,2.14-1,3.22-.53,2-.79,3.08-.53,2.07-.77,3.12-.47,2.19-.7,3.28-.42,2.06-.64,3.09-.44,2.2-.64,3.3c-.38,2.13-.81,4.26-1.3,6.37s-1,4.24-1.72,6.32c-.3.83-.61,1.65-.92,2.47s-.77,1.87-1.18,2.8l-.09.2c.32-1.28.63-2.56.89-3.86.21-1,.42-2,.59-3s.3-2.13.43-3.2.26-2.07.36-3.11.14-2.19.2-3.29c.12-2,.19-4.1.34-6.14.05-.66.09-1.32.16-2s.16-1.43.25-2.14c.12-1,.24-2.09.38-3.14.08-.54.14-1.08.25-1.62s.22-1.11.34-1.67a57.61,57.61,0,0,1,1.63-6.06c.3-.77.61-1.52.95-2.27s.72-1.4,1.09-2.09a44.66,44.66,0,0,1,2.38-4,26.32,26.32,0,0,1,2.11-2.6c.74-.79,1.53-1.52,2.33-2.23.5-.41,1-.8,1.51-1.19a17,17,0,0,1,1.66-1.16c.61-.36,1.23-.7,1.84-1s1-.56,1.53-.81l.38-.16c-.79.69-1.57,1.41-2.31,2.17s-1.49,1.59-2.17,2.45c-.34.44-.65.9-1,1.36m-7.47,2.1c-.48.7-.95,1.42-1.39,2.15s-1,1.75-1.51,2.64c-.25.46-.51.92-.73,1.39s-.49,1.06-.72,1.6-.44,1.15-.64,1.73-.31.95-.44,1.43c-.32,1.09-.61,2.19-.87,3.29s-.47,2.08-.64,3.13-.31,2.17-.44,3.26-.28,2.15-.39,3.23-.19,2.3-.27,3.44l0,.31v-.16h0c-.09,1.31-.14,2.63-.22,3.94s-.11,2.39-.19,3.58-.26,2.41-.4,3.61-.32,2.49-.55,3.73c-.38,2-.8,4.06-1.33,6.06s-1,3.88-1.69,5.77a23.27,23.27,0,0,1-1,2.43l0,.09-1.91,1.31-1.18.79c.22-.52.42-1,.62-1.56.37-1,.7-2,1-3.05s.6-1.95.86-2.94.57-2,.8-3.07.42-2,.59-3.06.33-2.08.49-3.11.32-2,.44-3,.25-2.06.39-3.08c.29-2.07.46-4.15.66-6.23.1-1.1.22-2.19.3-3.29s.12-1.93.19-2.9c0-.58.12-1.16.17-1.74s.07-1.26.1-1.89.07-1.19.11-1.78.06-1.05.09-1.58c.07-.74.13-1.48.24-2.21s.27-1.51.41-2.26.27-1.46.46-2.18.34-1.23.55-1.84a24.24,24.24,0,0,1,2.29-4.55c.55-.77,1.14-1.51,1.76-2.23a18.42,18.42,0,0,1,2-1.94,16.56,16.56,0,0,1,3.17-2c.5-.23,1-.43,1.51-.62l.36-.13c-.34.33-.68.67-1,1a14.53,14.53,0,0,0-1,1.19c-.35.44-.7.89-1,1.35m-7.68,3.16a23.83,23.83,0,0,0-1.19,2.15,19,19,0,0,0-1.18,2.92c-.15.49-.29,1-.41,1.47s-.22,1-.32,1.5c-.19,1-.43,2-.56,3.06-.06.52-.13,1-.18,1.57s-.1,1.11-.13,1.66q-.13,1.59-.24,3.18c-.08.88-.21,1.74-.29,2.62s-.15,1.76-.23,2.65-.2,1.84-.3,2.76-.19,1.78-.29,2.68-.23,2.06-.37,3.09-.31,2.11-.44,3.16-.24,2-.4,2.93-.34,2.11-.51,3.17-.33,2-.55,3-.47,2-.74,3c-.52,1.94-1.08,3.87-1.73,5.77-.38,1.05-.79,2.09-1.24,3.11-.23.5-.46,1-.72,1.5a6,6,0,0,0-.48,1c-.35.22-.69.45-1,.68l-1.5,1.05-.29.19c.41-.95.8-1.9,1.16-2.86.82-2.17,1.51-4.39,2.19-6.6.63-2.06,1.2-4.15,1.64-6.26.22-1.06.41-2.13.64-3.19.12-.53.25-1,.35-1.58s.21-1.13.31-1.7c.18-1.06.34-2.12.49-3.19s.35-2.15.5-3.23.31-2.15.43-3.23c.06-.57.13-1.14.21-1.7s.14-1,.19-1.53c.1-1.19.14-2.37.17-3.56q0-1.52.15-3a47.46,47.46,0,0,1,.59-5.46,26.8,26.8,0,0,1,.62-2.65c.25-.82.51-1.65.79-2.47a26.18,26.18,0,0,1,2.54-4.9,24.49,24.49,0,0,1,1.57-2c.25-.29.51-.56.78-.82m-44.25,42.49,0,.12c.62-1.68,1.35-3.32,2.13-4.94a38.29,38.29,0,0,1,2.67-4.71c.49-.7,1-1.4,1.53-2.07s1.11-1.45,1.73-2.12,1.06-1.11,1.6-1.65c-.61,1-1.2,1.92-1.74,2.93s-1.12,2.22-1.66,3.33-1,2-1.36,3.09-.85,2.39-1.19,3.61c-.63,2.24-1.15,4.52-1.67,6.79s-.94,4.48-1.45,6.72-.93,4.41-1.57,6.57c-.32,1.08-.66,2.15-1,3.22s-.68,2.07-1,3.1c-.44,1.23-.91,2.45-1.43,3.66-.45,1.05-.89,2.11-1.42,3.13s-1.05,2-1.58,3c-.27.49-.53,1-.81,1.47s-.6,1-.89,1.5c-.53.9-1.07,1.8-1.65,2.66-.32.46-.64.91-1,1.35s-.52.64-.78,1q-1.3.52-2.61,1.08l1.14-2c.55-1,1.1-2,1.62-3s1.05-2.1,1.56-3.16,1-2.18,1.53-3.28.94-2.19,1.4-3.29.84-2.14,1.23-3.22.86-2.45,1.21-3.69.6-2.23.9-3.35.59-2.26.86-3.4c.55-2.34,1-4.7,1.61-7,.28-1.11.56-2.21.89-3.31s.68-2.33,1-3.49c.08-.2.15-.39.22-.59m78.08,17.39c1.17-.25,2.34-.5,3.5-.81.52-.14,1-.3,1.55-.49l-1.39.76c-1,.52-1.88,1.06-2.84,1.53a27.07,27.07,0,0,1-2.74,1.11c-1.85.59-3.74,1.05-5.62,1.49a40.7,40.7,0,0,1-5.59.81,51,51,0,0,1-5.53.1c-.93,0-1.87-.13-2.8-.25s-1.74-.27-2.61-.41c-1.18-.18-2.37-.32-3.55-.5s-2.38-.42-3.58-.62c-2.31-.41-4.62-.86-6.94-1.23-1.16-.18-2.33-.31-3.5-.43a27.74,27.74,0,0,0-3.41-.2h-.36l2.68-1.83c.22-.05.44-.11.67-.15.52-.08,1-.14,1.57-.18a22.45,22.45,0,0,1,2.32,0,14.92,14.92,0,0,1,1.64.16c.54.07,1.07.1,1.61.14,1.16.08,2.31.15,3.47.26s2.38.26,3.56.44l3.39.45c1.16.18,2.32.37,3.48.53s2.37.27,3.56.38,2.26.14,3.4.17,2.33.06,3.5,0c2.36-.09,4.7-.34,7-.63,1.19-.15,2.36-.34,3.53-.6M748.84,93.5c-.39,1.09-.74,2.19-1,3.31s-.51,2.16-.7,3.25c-.39,2.17-.71,4.35-1,6.53-.15,1.11-.34,2.2-.5,3.31s-.3,2.14-.44,3.22-.27,2.13-.43,3.19-.31,2.2-.46,3.3-.31,2.17-.51,3.24-.41,2.18-.61,3.27-.4,2.2-.66,3.29-.58,2.21-.87,3.31-.59,2.08-.92,3.12-.6,1.95-.93,2.92c-.6,1.64-1.27,3.26-1.94,4.86-.33.77-.66,1.53-1,2.29l-.5,1.08-.1.22-.46.29c-1,.57-1.94,1.12-2.92,1.67.24-.58.48-1.17.7-1.76.81-2.16,1.6-4.33,2.22-6.54.31-1.09.6-2.18.88-3.27s.58-2.15.84-3.23.54-2.2.77-3.31.43-2.24.66-3.35.44-2.22.61-3.34.34-2.3.53-3.45.36-2.23.5-3.35.23-2.31.37-3.46.29-2.3.4-3.46.21-2.28.4-3.42.46-2.18.71-3.27c.13-.57.24-1.15.4-1.71s.32-1.06.5-1.59.4-1.09.65-1.62.55-1.2.87-1.77c.63-1.13,1.29-2.22,2-3.3s1.72-2.31,2.65-3.41c.42-.5.87-1,1.33-1.45-.24.41-.47.82-.69,1.24a24,24,0,0,0-1.3,3.15m-9.16,4.09.36-.34c-.56.89-1.1,1.79-1.61,2.71s-1.06,2.08-1.52,3.15-1,2.31-1.38,3.5c-.19.54-.34,1.09-.49,1.64s-.27,1-.38,1.56c-.25,1.15-.47,2.31-.7,3.46s-.45,2.25-.61,3.39-.3,2.36-.49,3.53-.37,2.31-.54,3.47-.34,2.32-.54,3.48-.41,2.26-.62,3.39-.43,2.28-.68,3.42-.52,2.26-.79,3.39-.55,2.26-.87,3.38-.67,2.15-1,3.21l0,.08a67.45,67.45,0,0,1-2.55,6.3c-.49,1-1,2.06-1.5,3.07-.24.47-.49.94-.74,1.41l-.6,1.07-1,.67-1.23.85-1.74,1,.45-1c.87-2,1.66-4,2.46-6,.9-2.23,1.64-4.53,2.35-6.83.32-1.05.65-2.1,1-3.16s.61-2.25.88-3.39.49-2.19.73-3.29.5-2.26.69-3.4c.39-2.25.71-4.52,1-6.78.15-1.18.33-2.35.53-3.53s.38-2.28.63-3.41c.12-.54.27-1.07.39-1.6s.26-1.12.41-1.67c.3-1.11.65-2.21,1-3.31q.2-.55.42-1.11c.15-.35.32-.7.48-1,.39-.81.8-1.62,1.22-2.43a39.54,39.54,0,0,1,2.56-4.1c.39-.54.78-1.1,1.22-1.61s.91-1.08,1.4-1.6.95-1,1.45-1.53m20.11,52-2.61-.56c-.86-.19-1.74-.37-2.6-.57s-1.94-.45-2.93-.61-1.69-.26-2.55-.35c-1.17-.11-2.34-.19-3.52-.24l-1.71-.06a13.25,13.25,0,0,0-1.67.06l.46-.31,2.36-1.58c.53-.08,1.05-.18,1.58-.27.78-.13,1.55-.25,2.33-.32l.88,0c.56,0,1.11,0,1.66,0s1.18.09,1.77.15c1.2.13,2.39.26,3.57.43,2.35.33,4.67.78,7,1.15,1.13.18,2.25.38,3.38.51s2.35.23,3.53.35,2.37.26,3.56.32,2.43.1,3.65.05,2.57-.11,3.85-.23,2.46-.27,3.69-.45a32.2,32.2,0,0,0,3.36-.67c1.16-.29,2.33-.57,3.48-.9a31.53,31.53,0,0,0,3.5-1.22,18.38,18.38,0,0,0,1.69-.78l.59-.32-1.92,1.07c-.51.28-1,.56-1.52.86s-.91.57-1.38.84a27.27,27.27,0,0,1-3.25,1.61c-1,.41-2,.78-2.95,1.14s-1.8.56-2.72.79-1.82.41-2.74.59c-1.79.34-3.6.62-5.41.78-1,.06-2,.08-2.92.1s-2.2,0-3.3,0a35.08,35.08,0,0,1-3.55-.25c-2.23-.3-4.44-.66-6.65-1.08M745.37,93.17l-.54.82a30.41,30.41,0,0,0-3.18,6.22.56.56,0,0,0,0-.12c-.22.62-.44,1.23-.61,1.87l-.45,1.81c-.29,1.16-.58,2.31-.79,3.48s-.32,2.31-.45,3.46-.32,2.24-.48,3.35-.28,2.29-.45,3.42-.36,2.18-.55,3.27-.38,2.29-.58,3.43-.44,2.21-.68,3.31-.45,2.22-.72,3.33-.54,2.21-.84,3.3-.64,2.21-1,3.32-.6,2.11-.92,3.16-.67,2.08-1,3.11c-.55,1.55-1.13,3.1-1.78,4.62-.32.76-.67,1.51-1,2.25-.17.32-.33.65-.49,1-.66.41-1.31.82-2,1.25l.21-.45c.4-.89.81-1.77,1.17-2.67s.73-1.83,1.06-2.76a71.32,71.32,0,0,0,2.18-6.83c.28-1.12.53-2.24.79-3.36s.51-2.29.73-3.44.42-2.3.63-3.45.42-2.33.58-3.5.32-2.34.47-3.52.34-2.25.47-3.39.24-2.34.4-3.51.35-2.23.54-3.34.38-2.25.64-3.36c.14-.59.28-1.17.44-1.76s.3-.95.46-1.42a48.33,48.33,0,0,1,2-4.62,39.76,39.76,0,0,1,2.51-4.27c.79-1.13,1.65-2.21,2.55-3.26l.64-.72m43.74,56.67.88-.35-1.9,1c-.52.26-1,.53-1.57.77s-1.11.47-1.68.68c-.8.28-1.6.56-2.38.87s-1.39.55-2.09.8a35.78,35.78,0,0,1-5.53,1.55c-1,.16-2,.29-3,.44s-1.88.28-2.83.36h0l-.55,0,.29,0h0l-.82,0a59.39,59.39,0,0,1-7.06.05c-1.16-.08-2.33-.17-3.49-.3s-2.37-.31-3.56-.46-2.32-.32-3.47-.51-2.32-.37-3.47-.57-2.28-.39-3.43-.54-2.27-.31-3.42-.44-2.29-.27-3.44-.34a31.84,31.84,0,0,0-3.24,0l.25-.15c.95-.61,1.93-1.18,2.9-1.78l.48-.11.76-.17c.49-.11,1-.2,1.48-.29,1-.17,2-.31,3-.4.76,0,1.52,0,2.29,0l2.5.12a43.75,43.75,0,0,1,4.84.57c1.16.23,2.31.51,3.46.75s2.45.53,3.68.78,2.53.46,3.79.66,2.28.33,3.42.46a27.29,27.29,0,0,0,3.5.11c1.14,0,2.28-.11,3.42-.18s2.53-.18,3.78-.35,2.22-.36,3.32-.58,2.46-.52,3.68-.8,2.28-.61,3.4-1c.62-.21,1.23-.45,1.83-.68m-10.32,6.24c.91-.31,1.81-.63,2.71-1-.7.33-1.4.67-2.12,1s-1.7.72-2.55,1.09-1.69.7-2.55,1l-.24.09a39.84,39.84,0,0,1-6.7,1.77c-1.21.19-2.41.37-3.62.51s-2.31.2-3.46.3c-.72,0-1.44.09-2.16.08s-1.58,0-2.37-.09c-1.21-.08-2.42-.18-3.63-.29s-2.3-.23-3.44-.41q-3.39-.53-6.77-1.18c-.88-.18-1.77-.36-2.65-.52s-1.67-.32-2.51-.43c-1.74-.22-3.49-.32-5.24-.42-1.13-.07-2.27-.08-3.41-.08-.64,0-1.28,0-1.91.07l1.45-1c.72-.2,1.43-.4,2.15-.58a18.2,18.2,0,0,1,2.74-.45,33.33,33.33,0,0,1,4.47.07c1.18.1,2.35.23,3.52.38.55.06,1.1.15,1.65.22s1.18.14,1.77.23c1.13.15,2.25.36,3.38.54l3.55.57c1.13.17,2.26.32,3.4.46s2.36.3,3.55.39,2.35.15,3.52.16,2.45-.08,3.68-.18,2.37-.2,3.55-.32,2.25-.31,3.37-.5,2.33-.36,3.47-.6a28,28,0,0,0,3.4-.94m-6.44,4.56.51-.16c-.85.36-1.71.72-2.58,1l-.63.22c-1.12.38-2.26.72-3.38,1.07s-2.19.65-3.3.92l-1.84.43c-.55.11-1.11.2-1.67.28-1.16.17-2.31.31-3.48.41s-2.12.12-3.18.15-2.07.07-3.1,0c-2.42-.07-4.82-.29-7.21-.58s-4.61-.68-6.92-.93l-3.64-.41c-1.19-.14-2.37-.29-3.56-.41s-2.37-.19-3.55-.22-2.27,0-3.41,0-2.36.06-3.54.12l-.45,0,.41-.22c.59-.32,1.17-.66,1.75-1,.46-.11.93-.19,1.4-.27s1.13-.23,1.7-.34a34,34,0,0,1,3.64-.54c1.34-.06,2.68-.06,4,0,1.14,0,2.28.12,3.42.18s2.36.2,3.53.38c2.26.34,4.49.85,6.75,1.21a70.14,70.14,0,0,0,7.06.87c1.21.07,2.42.12,3.63.14s2.29,0,3.42,0,2.52-.23,3.79-.38,2.33-.26,3.49-.46,2.28-.36,3.4-.61,2.35-.6,3.52-1m-39.83-56.95c-.32.53-.64,1.06-.94,1.6s-.51,1-.76,1.44-.53,1-.78,1.57-.51,1.08-.72,1.64-.41,1.15-.6,1.74c-.36,1.12-.72,2.23-1,3.37s-.63,2.26-.86,3.41-.48,2.28-.69,3.42c-.43,2.24-.78,4.5-1.15,6.76-.19,1.14-.39,2.27-.63,3.4l-.75,3.4c-.25,1.13-.51,2.25-.8,3.37s-.6,2.19-.93,3.28c-.65,2.09-1.32,4.18-2,6.25-.16.44-.32.87-.49,1.3-.83,2.11-1.69,4.22-2.61,6.3-.43,1-.88,1.93-1.37,2.87-.22.42-.44.84-.68,1.25-.12.22-.25.43-.38.65l-1.64.9c-.8.42-1.62.82-2.43,1.23l-.62.31c.88-1.44,1.72-2.91,2.49-4.4.52-1,1-2,1.54-3s1-2.1,1.37-3.17.91-2.36,1.33-3.56.7-2.16,1-3.24c.66-2.11,1.29-4.22,1.74-6.39.24-1.14.46-2.29.69-3.44s.43-2.22.63-3.34.39-2.27.61-3.4.47-2.25.71-3.37.53-2.37.82-3.54.6-2.18,1-3.25c.79-2.11,1.75-4.14,2.73-6.16a43.7,43.7,0,0,1,3.22-5.44c.89-1.22,1.83-2.38,2.83-3.51l.2-.22h0m24.41-19.33c-.25.4-.49.81-.72,1.22a21.53,21.53,0,0,0-1.35,2.93c-.38,1.07-.76,2.15-1.05,3.24a27.46,27.46,0,0,0-.68,3.19c-.16,1.14-.25,2.28-.36,3.42s-.21,2.26-.26,3.39-.1,2-.16,3.07-.22,1.86-.36,2.79-.26,1.81-.4,2.72c-.33,2.15-.71,4.28-1,6.43-.17,1.07-.37,2.14-.58,3.21s-.48,2.17-.7,3.25-.43,2.08-.68,3.11-.55,2.08-.86,3.11c-.63,2.11-1.32,4.19-2,6.27-.5,1.39-1.07,2.77-1.65,4.13-.31.73-.64,1.45-1,2.18-.15.32-.29.64-.43,1s-.16.34-.23.52L740,144.9c.78-2,1.56-3.92,2.24-5.92.34-1,.62-2,.93-3s.6-2.13.88-3.21.58-2.14.8-3.22.43-2.26.63-3.39c.4-2.16.76-4.32,1-6.5.14-1.1.28-2.2.44-3.29s.27-2.17.4-3.25c.28-2.16.6-4.31.85-6.47.12-1.1.28-2.19.42-3.29s.3-2.19.48-3.28.4-2.19.67-3.26.61-2.13,1-3.18c.16-.44.32-.87.49-1.3s.46-1.06.73-1.58a26.66,26.66,0,0,1,1.55-2.63c.47-.65,1-1.27,1.48-1.89a14.18,14.18,0,0,1,1.55-1.55l.36-.28m64.78-18.58A31.78,31.78,0,0,1,824.19,63l.76-.71c.33-.29.66-.56,1-.83a16.32,16.32,0,0,1,1.89-1.31c.49-.27,1-.53,1.5-.76.3-.13.6-.27.91-.38l.77-.24a16.06,16.06,0,0,1,1.68-.21A17.5,17.5,0,0,0,831,59.72c-.38.3-.76.59-1.12.92s-.78.71-1.17,1.07a30.7,30.7,0,0,0-2.21,2.35c-.33.38-.63.79-.94,1.2s-.59.8-.87,1.21c-.61.87-1.17,1.77-1.7,2.69-.23.41-.43.84-.63,1.26s-.41.91-.61,1.38-.4.94-.59,1.42-.33.89-.49,1.34l-1,2.89c-.31.93-.63,1.85-.92,2.78s-.57,1.86-.88,2.79-.63,1.81-1,2.72A20.7,20.7,0,0,1,816,88.1c-.44.35-.88.71-1.31,1.08-.62.53-1.21,1.09-1.81,1.65l.09-.25c.18-.53.32-1.09.46-1.63s.27-1,.4-1.51.27-1,.39-1.55.23-1.08.34-1.62q.59-3,1.37-5.91c.45-1.57.92-3.15,1.5-4.69.32-.86.68-1.72,1.06-2.56s.69-1.41,1.07-2.09.64-1.07,1-1.58.78-1.11,1.19-1.66m10-4.34c.43-.35.87-.68,1.32-1s.8-.52,1.22-.76a17.68,17.68,0,0,1,1.67-.74,15.44,15.44,0,0,1,1.51-.45l-.34.2a19.93,19.93,0,0,0-2.32,1.76c-.78.68-1.53,1.42-2.25,2.17s-1.37,1.49-2,2.27-1.21,1.51-1.75,2.31-1.12,1.71-1.64,2.6c-.3.51-.59,1-.88,1.53s-.46.81-.66,1.22c-.44.88-.82,1.77-1.22,2.66s-.8,1.77-1.16,2.67-.71,1.75-1.08,2.63-.77,1.78-1.14,2.67c-.17.4-.33.8-.51,1.19h0c-.49.41-1,.82-1.47,1.22.08-.21.16-.41.23-.62.26-.72.52-1.43.75-2.15s.47-1.51.7-2.26l.87-2.72c.31-.95.62-1.91.94-2.85s.66-1.85,1.05-2.76a28.81,28.81,0,0,1,1.28-2.69A36.94,36.94,0,0,1,827,66.39c.39-.53.8-1,1.23-1.54s.81-.89,1.23-1.32c.75-.72,1.51-1.43,2.32-2.09m9.73,1.42c.39-.42.8-.83,1.2-1.24.59-.56,1.21-1.07,1.84-1.57a17.92,17.92,0,0,1,2.05-1.38,36.89,36.89,0,0,1,6-2.62c-1,.75-1.9,1.53-2.79,2.37-.66.62-1.34,1.25-2,1.9s-1.25,1.28-1.9,1.89c-1.37,1.3-2.8,2.51-4.21,3.75s-2.74,2.49-4.06,3.79l-1.05,1c.21-.39.41-.78.61-1.17.41-.78.81-1.57,1.25-2.34.61-1,1.28-2,2-3a15.2,15.2,0,0,1,1.11-1.43m-81.85,72.77,1.07-.2c.72-.12,1.43-.2,2.16-.26s1.69-.11,2.54-.13,2,0,2.94,0,1.85.13,2.77.23,2,.27,2.95.42c1.13.18,2.27.33,3.4.49s2.22.25,3.33.36,2.31.23,3.47.3,2.16.1,3.24.12,2.21,0,3.31,0,2.36-.14,3.54-.23,2.29-.22,3.43-.4,2.19-.34,3.28-.54a39.18,39.18,0,0,0,6.57-1.8l.82-.32c-.44.28-.88.56-1.34.83-.79.46-1.56.95-2.35,1.42a21.08,21.08,0,0,1-2.51,1.27c-.8.36-1.61.7-2.43,1s-1.61.48-2.44.66-1.67.35-2.51.5-1.79.3-2.69.4c-.74.08-1.49.13-2.23.19-1,.07-2,.12-3,.15s-2,0-3,0c-2-.1-4-.22-6-.45-1.21-.14-2.41-.29-3.62-.48s-2.25-.39-3.38-.56-2.29-.31-3.43-.49-2.35-.33-3.53-.44-2.36-.2-3.54-.28c-.54,0-1.08-.07-1.61-.15a15,15,0,0,0-1.63-.15h0l2.16-1.41.24-.05M765.08,165l-1.05.54c-.65.28-1.31.52-2,.77-1.23.42-2.46.83-3.7,1.22s-2.34.76-3.52,1.07-2.49.65-3.75.92a52.16,52.16,0,0,1-6.81.86c-1.54.09-3.07.12-4.61.09s-3-.12-4.54-.23c-1.16-.09-2.34-.16-3.5-.28s-2.33-.25-3.49-.38-2.45-.26-3.68-.39-2.32-.28-3.48-.4c-2.4-.25-4.8-.47-7.21-.59-1.12-.06-2.25-.08-3.37-.06-.58,0-1.16,0-1.75.06l-1.69.13h-.12l3.44-1.81.28-.06c.72-.13,1.43-.28,2.14-.42s1.34-.22,2-.32,1.39-.2,2.09-.27l2-.08c2.35-.07,4.7-.18,7-.09,1.17.05,2.35.15,3.51.28s2.4.26,3.59.38l3.5.34c1.15.12,2.29.28,3.44.39,2.38.23,4.77.43,7.16.46,1.19,0,2.38,0,3.57,0s2.44-.15,3.65-.23,2.5-.21,3.75-.36c.57-.07,1.14-.18,1.71-.28s1.1-.16,1.64-.28c1.15-.26,2.29-.53,3.42-.85l.33-.1M741.36,173l-3.61.59c-2.24.37-4.5.63-6.76.82a43,43,0,0,1-5.2.14,52,52,0,0,1-5.29-.47c-.58-.09-1.15-.21-1.72-.32s-1.16-.18-1.73-.25l-1.75-.2-1.77-.25c-1.14-.16-2.3-.17-3.45-.24-.56,0-1.12-.09-1.69-.11s-1.27-.06-1.91-.07l-3.42-.12c-.6,0-1.2-.05-1.8-.05h-1.68l-.81,0,1.45-.73,1.13-.25c.26-.05.52-.06.79-.09l.7-.08,1.47-.2c.43,0,.86-.08,1.29-.11.8-.05,1.6-.07,2.4-.11s1.64-.07,2.47-.08c2.39,0,4.77.13,7.15.32s4.77.5,7.16.73l3.42.32c1.19.11,2.38.23,3.57.29,2.37.12,4.74.22,7.11.16,1.29,0,2.58-.1,3.86-.19s2.35-.22,3.52-.35l.44-.06c-.65.15-1.29.29-2,.41l-3.39.57m112-114.2c-.11.24-.22.47-.32.71l-.11.16-1.24,1.67-.58.78c-.19.24-.4.46-.61.69-.45.46-.91.91-1.39,1.35-.24.21-.48.43-.73.61s-.45.3-.68.44a24.14,24.14,0,0,1-2.54,1.28q-.62.26-1.26.48l.35-.32c.89-.81,1.76-1.63,2.62-2.47s1.94-1.94,2.9-2.93,1.67-1.71,2.57-2.5c.61-.53,1.22-1.06,1.84-1.58-.06.1-.12.2-.17.3-.21.45-.43.89-.65,1.33m-6.62,16.86s0,0,0,0a.61.61,0,0,0-.05.12h-.1l.11-.09m-27.14,45.48a25.23,25.23,0,0,0,2.64-1.7l-.95,1.21c-.69.67-1.4,1.3-2.12,1.92-.39.34-.77.68-1.17,1s-.83.63-1.25.94a15.63,15.63,0,0,1-2.2,1.29c-.76.34-1.53.66-2.31,1a37.82,37.82,0,0,1-9.1,1.52c-1.29.09-2.57.18-3.86.25s-2.83.13-4.24.17c-2.25.06-4.49.13-6.73.17a60.94,60.94,0,0,1-6.61-.42c-2.23-.22-4.47-.45-6.71-.62-1.1-.09-2.21-.1-3.32-.1h-1.32l.71-.54c.24,0,.48-.12.72-.19a12.38,12.38,0,0,1,1.49-.34c1-.16,1.93-.29,2.89-.38,1.57-.07,3.14-.14,4.71-.15.83,0,1.66,0,2.5,0s1.58,0,2.37,0c2.08,0,4.16.13,6.24.13s4.12-.18,6.18-.33l2.25-.13c.89,0,1.78-.09,2.67-.18l2.35-.22c.85-.09,1.69-.21,2.53-.35s2-.32,3-.52a20.62,20.62,0,0,0,3.1-.86c1-.37,1.89-.78,2.82-1.19s1.86-.85,2.76-1.33m-5,6.56c.5-.23,1-.45,1.48-.72l-.13.14-.67.49c-.67.46-1.35.91-2,1.36s-1.32.91-2,1.37a16.74,16.74,0,0,1-2.11,1.18c-.8.37-1.62.7-2.45,1s-1.75.58-2.64.82-1.88.46-2.84.65-2,.29-3,.43-1.85.24-2.78.32c-1.57.09-3.14.12-4.71.11-1.09,0-2.18-.07-3.26-.13s-2.2-.15-3.29-.25-2.33-.25-3.48-.39-2.18-.26-3.26-.43-2.31-.35-3.46-.54-2.21-.37-3.32-.49a32.63,32.63,0,0,0-3.28-.21c-1.17,0-2.33,0-3.49.08h0l2.77-2,.46-.06,1-.1c1-.07,2.09-.07,3.13-.07s2.32,0,3.48.07,2.14.16,3.21.26,2.26.2,3.39.3,2.17.21,3.26.28,2.29.12,3.43.1,2.14-.07,3.2-.11l3.41-.14c1.11-.05,2.23-.1,3.34-.18,2.29-.16,4.59-.38,6.87-.64a40.77,40.77,0,0,0,6.57-1.27,16.72,16.72,0,0,0,1.68-.59c.5-.19,1-.4,1.5-.62M701.5,175.8l-3-.52-.8-.14H698c.58,0,1.16,0,1.73,0h1.74c1.17,0,2.33.08,3.5.09s2.3,0,3.45,0l2,.07c.52,0,1,0,1.57,0,1.22,0,2.42.2,3.64.3l1.77.14c.58.05,1.15.13,1.72.22,1.13.16,2.26.31,3.41.36l1.67.07c.62,0,1.24.06,1.86.06s1.16,0,1.74-.06l1.93-.13c1.92-.14,3.85-.34,5.75-.62-1.58.38-3.17.76-4.78,1-1.05.19-2.1.35-3.15.51s-2,.31-3,.44-2.06.23-3.1.3-2.1.09-3.14.12c-.69,0-1.37,0-2.06,0s-1.22-.07-1.83-.14c-1.26-.13-2.51-.28-3.77-.48-2.07-.33-4.13-.68-6.18-1.12-1-.21-2-.41-2.94-.59m10.57-54.07,1-1.29a3.11,3.11,0,0,0,.23-.28c-.65,1-1.25,2.1-1.81,3.2-1,2-1.87,4-2.71,6-.44,1-.87,2.08-1.26,3.13l-1.14,3.14-.26.75,0-.07a.88.88,0,0,0,0,.15l0,.1v0l-.12.35c-.21.56-.41,1.11-.63,1.65s-.43,1.23-.63,1.85c-.35,1.08-.7,2.16-1.07,3.23-.25.67-.5,1.34-.76,2s-.61,1.62-.9,2.44c0,0,0-.08,0-.12l-.11.32a1.46,1.46,0,0,0-.07.19c-.77,2.07-1.54,4.14-2.39,6.17-.44,1-.89,2.08-1.34,3.11s-.9,2-1.41,3-1,2-1.56,2.92-1.09,2-1.65,2.91c-.33.57-.67,1.12-1,1.67.11-.58.21-1.17.31-1.76l.36-2.28c.11-.72.22-1.43.34-2.15.25-1.39.56-2.77.9-4.15.26-1,.52-1.93.81-2.9a25.23,25.23,0,0,1,1.08-2.85q1.25-2.9,2.4-5.84c.37-.95.76-1.88,1.17-2.81s.86-1.77,1.31-2.65c1-1.9,1.94-3.81,2.93-5.71s1.95-3.69,2.95-5.52c.6-1.08,1.21-2.16,1.85-3.22.3-.5.61-1,.93-1.49s.74-1.1,1.12-1.64.74-1,1.12-1.48" fill="#c5a45a"/><path d="M842.19,69.25l.16,0-.16,0h0" fill="#c5a45a"/><path d="M777.56,124.06l-.26,0h0l.29,0" fill="#c5a45a"/><path d="M706.92,168.29h0" fill="#c5a45a"/><path d="M769.25,78l-.06.1a.76.76,0,0,0-.08.11c0-.07.09-.14.14-.21" fill="#c5a45a"/><path d="M706.12,136.46l0,.07.06-.15,0,.08" fill="#c5a45a"/></svg>