<svg xmlns="http://www.w3.org/2000/svg" viewBox="0 0 2200 313"><title>blok-4</title><path d="M745,149.24a1.21,1.21,0,0,0-.31-1,2.65,2.65,0,0,0-.79-.58l-.16-.08c-.33-.16-.66-.3-1-.44q-.9-.41-1.8-.75c-1.1-.43-2.22-.83-3.35-1.19-2.5-.8-5.05-1.38-7.59-2-1.13-.29-2.27-.54-3.41-.76s-2.47-.42-3.7-.63-2.52-.42-3.78-.59-2.34-.3-3.51-.45c-2-.24-4-.41-5.93-.56-.94-.17-1.88-.32-2.83-.44-.5-.06-1-.09-1.52-.12l-1.7-.15-3.25-.34c-1.12-.11-2.23-.19-3.36-.2s-2.29,0-3.44,0a32.78,32.78,0,0,0-3.29.13l-1.49.23-1.66.19c-1.09.1-2.19.16-3.28.19s-2.15.09-3.22.19-2.13.28-3.18.47c-2.14.38-4.21,1.07-6.3,1.65l-1.46.38-2.72.48-2.12.27c-1.09.14-2.18.23-3.27.37s-2.15.37-3.22.57-2.1.42-3.17.57l-.94.14.14-.15,1.15-1.35c.75-.89,1.46-1.81,2.14-2.76a15.14,15.14,0,0,0,.92-1.43c.14-.26.28-.52.43-.78s.26-.58.39-.86a12.57,12.57,0,0,0,.66-2.08c.09-.36.15-.73.22-1.09s.09-.45.12-.68.09-.69.13-1a11.66,11.66,0,0,0,.08-1.77,14.2,14.2,0,0,0-.18-2.16c-.1-.52-.18-1-.32-1.55l-.26-1c-.08-.31-.19-.61-.29-.91-.19-.56-.4-1.11-.61-1.66s-.42-.94-.65-1.4-.56-1-.86-1.52c-.59-1-1.24-2-1.86-3-.35-.56-.69-1.13-1-1.7s-.84-1.32-1.27-2-.69-1-1-1.56-.76-1.17-1.13-1.77c-.22-.43-.46-.85-.67-1.28s-.54-1.13-.8-1.7c-.46-1-.86-2-1.28-3-.22-.52-.46-1-.71-1.54a11.85,11.85,0,0,0-.94-1.57,9.83,9.83,0,0,0-1-1.2c-.32-.33-.64-.65-1-.95A11.38,11.38,0,0,0,642.65,98c-.42-.23-.83-.46-1.25-.67l-.16-.08a21,21,0,0,0-3-1.21l-1.78-.5c-.54-.14-1.09-.29-1.64-.4-1.1-.23-2.19-.41-3.3-.53s-2.17-.23-3.26-.37-2.16-.29-3.25-.39l-3.54-.32c-2.21-.19-4.42-.43-6.61-.76-1.17-.17-2.33-.39-3.49-.63s-2.26-.52-3.39-.8-2-.55-3-.84-2.29-.63-3.44-.92-2.06-.49-3.09-.72a10.62,10.62,0,0,0-3.23-.19,17.35,17.35,0,0,0-4.46,1.16c-.67.25-1.34.54-2,.81s-1.33.49-2,.69l-.54.15h0a.9.9,0,0,0-.76.36,1,1,0,0,0-.1,1,1.1,1.1,0,0,0,.85.76c1,.74,2,1.47,3,2.26.57.45,1.14.91,1.7,1.38s1,.88,1.48,1.35c.23.23.45.47.67.71-.64-.08-1.28-.22-1.91-.36s-1.25-.35-1.86-.56-1.26-.48-1.88-.74c-1.34-.57-2.69-1.12-4.05-1.66-.7-.28-1.42-.52-2.14-.77s-1.34-.44-2-.62a25,25,0,0,0-4.51-.88,17.74,17.74,0,0,0-3.34,0,13.49,13.49,0,0,0-1.55.24c-.6.14-1.19.32-1.78.51-1,.36-2.06.79-3.09,1.18s-2,.73-3,1a24.77,24.77,0,0,1-2.69.58,23.81,23.81,0,0,1-2.79.21l-2.73,0c-1.45,0-2.9,0-4.35,0-.76,0-1.51.13-2.26.24a16.76,16.76,0,0,0-2.23.51,33.3,33.3,0,0,0-4.34,1.52,34.54,34.54,0,0,0-3.81,2c-.9.52-1.79,1.09-2.67,1.65s-1.61,1-2.42,1.49c-.61.35-1.22.68-1.84,1s-1.27.63-1.9,1a13.43,13.43,0,0,0-2,1.2,10.87,10.87,0,0,0-1.7,1.62c-.11.13-.21.27-.31.41a6.17,6.17,0,0,0-.42.7,2.1,2.1,0,0,0-.18.65,2.33,2.33,0,0,0,0,.59,3.18,3.18,0,0,0,.14.61,7.31,7.31,0,0,0,.4,1c.16.33.35.65.53,1l.67,1.11c.4.67.8,1.34,1.21,2a61.89,61.89,0,0,0-7.44-1.89,19.47,19.47,0,0,0-4.45-.16,17.21,17.21,0,0,0-4.41,1.06c-.69.24-1.35.54-2,.85a8.48,8.48,0,0,0-.86.41c-.36.21-.72.42-1.07.65-1.22.83-2.42,1.68-3.58,2.6s-2.35,2-3.5,3L497,125.8c-.56.47-1.15.92-1.71,1.38s-1.13,1-1.72,1.41-1.3.93-2,1.38-1.13.74-1.68,1.15-1.22,1-1.81,1.48c-1.1.94-2.25,1.81-3.35,2.75s-2.39,2-3.56,3.09-2.36,2-3.56,3-2.25,1.88-3.36,2.84a30.5,30.5,0,0,0-3.32,3.21q-1.56,1.77-3.11,3.56c-.82,1-1.55,2-2.28,3s-1.39,2.05-2,3.12c-.31.52-.63,1.06-.9,1.6s-.57,1.18-.85,1.77-.54,1.19-.82,1.77-.49,1-.75,1.47a43.41,43.41,0,0,1-2.47,3.66c-.46.6-.95,1.19-1.41,1.78a20.17,20.17,0,0,0-1.23,1.83c-.42.68-.84,1.37-1.21,2.09s-.63,1.3-.9,2a22,22,0,0,0-1.19,4.12,9.57,9.57,0,0,0-.1,2.14c0,.59.1,1.19.19,1.78a11.48,11.48,0,0,0,.46,2c.12.37.29.73.41,1.11,0,.15,0,.3.08.46a1.17,1.17,0,0,0,.41.69l0,0a8.5,8.5,0,0,1,.35,1.19c.08.37.15.73.24,1.09a8,8,0,0,0,.54,1.44,7.55,7.55,0,0,0,1.55,2.24,12,12,0,0,0,2.2,1.61c.77.45,1.57.84,2.35,1.27s1.53.87,2.31,1.27l2.33,1.21c.82.43,1.63.89,2.45,1.33a22.42,22.42,0,0,1,2.19,1.24c.65.44,1.3.9,1.93,1.37s1.37,1.06,2.06,1.57,1.43,1.13,2.14,1.7,1.45,1.11,2.18,1.66a27.19,27.19,0,0,0,2.22,1.6,21.09,21.09,0,0,0,2.34,1.26,27.43,27.43,0,0,0,2.64,1.06c.89.3,1.78.55,2.69.78,1.74.44,3.48,1,5.25,1.25,1,.16,2,.29,3,.41s1.74.22,2.61.26a8.14,8.14,0,0,0,1.48-.12c.39-.05.77-.12,1.15-.2a20.6,20.6,0,0,0,2.69-.75c.84-.28,1.66-.6,2.48-.93a14,14,0,0,1,2.6-.8h.09l.11,0c0,.09-.05.17-.07.26a16,16,0,0,1-1.17,2,16.88,16.88,0,0,0-1.21,2.15,6.67,6.67,0,0,0-.52,1.64,3.35,3.35,0,0,0,0,.71,2.29,2.29,0,0,0,.2.71,2.38,2.38,0,0,0,.35.56,4.26,4.26,0,0,0,.7.64,12.16,12.16,0,0,0,2,1.17,27,27,0,0,0,2.56,1.05c.4.14.81.28,1.22.4s.88.23,1.33.33c.86.18,1.73.32,2.6.46s1.8.28,2.71.41,1.94.26,2.92.31,1.84,0,2.77,0c1.82-.06,3.64-.26,5.46-.32a23.92,23.92,0,0,1,2.81,0l2.82.29c.9.09,1.79.17,2.69.21s1.79,0,2.68,0c.6,0,1.21,0,1.81-.06l2.13-.15c1.36-.1,2.73-.21,4.09-.38a33,33,0,0,0,4-.72c1.25-.31,2.5-.63,3.77-.83a27.32,27.32,0,0,1,3.5-.14c1.17,0,2.33.11,3.49.24,2.31.24,4.62.42,6.93.69.82.11,1.63.25,2.45.37s1.9.24,2.86.28a25.74,25.74,0,0,0,2.78-.07,27.64,27.64,0,0,0,2.88-.37,38.39,38.39,0,0,0,5.39-1.18A20,20,0,0,0,591,221a20.44,20.44,0,0,0,2.35-1.39,27,27,0,0,0,2.8-2.31,16.55,16.55,0,0,0,2.45-2.78,33.29,33.29,0,0,0,1.92-3.19c.56-1,1.15-2,1.81-3a56.91,56.91,0,0,1-.47,6.11,6.43,6.43,0,0,0,0,1.58,2,2,0,0,0,.25.7,1.44,1.44,0,0,0,.51.47l.29.11a1.14,1.14,0,0,0,.58,0,1.83,1.83,0,0,0,.59-.26c.18-.11.36-.2.54-.29.48-.25,1-.47,1.47-.69,1.46-.59,2.94-1.17,4.45-1.67a23.69,23.69,0,0,1,2.62-.74c1-.22,1.92-.4,2.89-.55,1.78-.23,3.55-.47,5.3-.84.94-.2,1.85-.46,2.76-.74s1.73-.56,2.57-.89,1.84-.78,2.74-1.22,1.57-.78,2.31-1.23c.39-.23.78-.46,1.15-.73s.82-.59,1.23-.9c.75-.56,1.51-1.13,2.26-1.72,1.37-1.09,2.68-2.25,4-3.36.71-.55,1.42-1.1,2.11-1.66s1.44-1.18,2.17-1.76,1.36-1.06,2-1.61,1.47-1.22,2.19-1.83c1.39-1.17,2.81-2.32,4.12-3.58.36-.35.72-.7,1.07-1.06s.63-.71.94-1.08c.58-.7,1.12-1.45,1.63-2.2a49.48,49.48,0,0,0,2.79-4.77c.41-.79.8-1.58,1.19-2.37s.76-1.76,1.1-2.66c.15-.33.3-.66.47-1s.23-.39.35-.59.26-.41.4-.61c.52-.76,1-1.52,1.53-2.3s.92-1.58,1.35-2.39,1-1.77,1.39-2.7a15,15,0,0,0,.89-4.09,10.66,10.66,0,0,0-.09-2.93,14,14,0,0,0-.62-2.63,13.4,13.4,0,0,0-1.18-2.55,19.81,19.81,0,0,0-2.49-3.19,20.27,20.27,0,0,0-2.9-2.41c-.54-.38-1.11-.71-1.67-1-.21-.12-.43-.23-.65-.34s-.67-.32-1-.48l-.35-.21c2.38-.54,4.76-1.08,7.17-1.54s4.77-.84,7.15-1.25c5-.86,10-1.57,15-2,2.3-.2,4.59-.34,6.9-.36l3.77,0c1.26,0,2.51,0,3.77.07,2.53.07,5,.28,7.58.46,1.43.1,2.86.21,4.3.34l2.77.48c1.18.21,2.36.41,3.53.63s2.6.51,3.9.76c2,.4,4.1.71,6.14,1.14s3.86.88,5.77,1.38c1.1.32,2.18.66,3.25,1.06l1.48.58c.62.25,1.23.51,1.86.72a11.3,11.3,0,0,0,1.38.38,2.44,2.44,0,0,0,1.26,0A1.26,1.26,0,0,0,745,149.24Z" fill="#fff"/><path d="M554.25,223.07c1.25-.31,2.5-.63,3.77-.83a27.32,27.32,0,0,1,3.5-.14c1.17,0,2.33.11,3.49.24,2.31.24,4.62.42,6.93.69.82.11,1.63.25,2.45.37s1.9.24,2.86.28a25.74,25.74,0,0,0,2.78-.07,27.64,27.64,0,0,0,2.88-.37,38.39,38.39,0,0,0,5.39-1.18A20,20,0,0,0,591,221a20.44,20.44,0,0,0,2.35-1.39,27,27,0,0,0,2.8-2.31,17,17,0,0,0,2.45-2.78,33.29,33.29,0,0,0,1.92-3.19c.56-1,1.15-2,1.81-3a56.91,56.91,0,0,1-.47,6.11,6.43,6.43,0,0,0,0,1.58,2,2,0,0,0,.25.7,1.44,1.44,0,0,0,.51.47l.29.11a1.14,1.14,0,0,0,.58,0,1.83,1.83,0,0,0,.59-.26c.18-.11.36-.2.54-.29.48-.25,1-.47,1.47-.69,1.46-.59,2.94-1.17,4.45-1.67a23.69,23.69,0,0,1,2.62-.74c1-.22,1.92-.4,2.89-.55,1.78-.23,3.55-.47,5.3-.84.94-.2,1.85-.46,2.76-.74s1.73-.56,2.57-.89,1.84-.78,2.74-1.22,1.57-.78,2.31-1.23c.39-.23.78-.46,1.15-.73s.82-.59,1.23-.9c.75-.56,1.51-1.13,2.26-1.72,1.37-1.09,2.68-2.25,4-3.36.71-.55,1.42-1.1,2.12-1.66s1.43-1.18,2.16-1.76,1.36-1.06,2-1.61,1.47-1.22,2.19-1.83c1.39-1.17,2.81-2.32,4.12-3.58.36-.35.72-.7,1.07-1.06s.63-.71.94-1.08c.58-.7,1.12-1.45,1.63-2.2a49.48,49.48,0,0,0,2.79-4.77c.41-.79.8-1.58,1.19-2.37s.76-1.76,1.1-2.66c.15-.33.3-.66.47-1s.23-.39.35-.59.26-.41.4-.61c.52-.76,1-1.52,1.53-2.3s.92-1.58,1.35-2.39,1-1.77,1.39-2.7a15,15,0,0,0,.89-4.09,10.66,10.66,0,0,0-.09-2.93,14,14,0,0,0-.62-2.63,13.4,13.4,0,0,0-1.18-2.55,19.81,19.81,0,0,0-2.49-3.19,20.27,20.27,0,0,0-2.9-2.41c-.54-.38-1.11-.71-1.67-1-.21-.12-.43-.23-.65-.34s-.67-.32-1-.48l-.35-.21c2.38-.54,4.76-1.08,7.17-1.54s4.77-.84,7.15-1.25c5-.86,10-1.57,15-2,2.3-.2,4.59-.34,6.9-.36l3.77,0c1.26,0,2.51,0,3.77.07,2.53.07,5,.28,7.58.46,1.43.1,2.86.21,4.3.34l2.77.48c1.18.21,2.36.41,3.53.63s2.6.51,3.9.76c2,.4,4.1.71,6.14,1.14s3.86.88,5.77,1.38c1.1.32,2.18.66,3.25,1.06l1.48.58c.62.25,1.23.51,1.86.72a11.3,11.3,0,0,0,1.38.38,2.44,2.44,0,0,0,1.26,0,1.26,1.26,0,0,0,.84-1,1.21,1.21,0,0,0-.31-1,2.65,2.65,0,0,0-.79-.58l-.16-.08c-.33-.16-.66-.3-1-.44q-.9-.41-1.8-.75c-1.1-.43-2.22-.83-3.35-1.19-2.5-.8-5.05-1.38-7.59-2-1.13-.29-2.27-.54-3.41-.76s-2.47-.42-3.7-.63-2.52-.42-3.78-.59-2.34-.3-3.51-.45c-2-.24-4-.41-5.93-.56-.94-.17-1.88-.32-2.83-.44-.5-.06-1-.09-1.52-.12l-1.7-.15-3.25-.34c-1.12-.11-2.23-.19-3.36-.2s-2.29,0-3.44,0-2.2,0-3.3.13l-1.48.23-1.66.19c-1.09.1-2.19.16-3.28.2s-2.15.08-3.22.18-2.13.28-3.18.47c-2.14.38-4.21,1.07-6.3,1.65l-1.46.38-2.72.48-2.12.27c-1.09.14-2.18.23-3.27.37s-2.15.37-3.22.57-2.1.42-3.17.57l-.94.14.14-.15,1.15-1.35c.75-.89,1.46-1.81,2.14-2.76a15.14,15.14,0,0,0,.92-1.43c.14-.26.28-.52.43-.78s.26-.58.39-.86a12.57,12.57,0,0,0,.66-2.08c.09-.36.15-.73.22-1.09s.09-.45.12-.68.09-.69.13-1a11.66,11.66,0,0,0,.08-1.77,14.2,14.2,0,0,0-.18-2.16c-.1-.52-.18-1-.32-1.55l-.26-1c-.08-.31-.19-.61-.29-.91-.19-.56-.4-1.11-.61-1.66s-.42-.94-.65-1.4-.56-1-.86-1.52c-.59-1-1.24-2-1.86-3-.35-.56-.69-1.13-1-1.7s-.84-1.32-1.27-2-.69-1-1-1.56-.76-1.17-1.13-1.77c-.22-.43-.46-.85-.67-1.28s-.54-1.13-.8-1.7c-.46-1-.86-2-1.28-3-.22-.52-.47-1-.71-1.54a11.85,11.85,0,0,0-.94-1.57,9.83,9.83,0,0,0-1-1.2c-.32-.33-.64-.65-1-.95A11.38,11.38,0,0,0,642.65,98c-.42-.23-.83-.46-1.25-.67l-.16-.08a21,21,0,0,0-3-1.21l-1.78-.5c-.54-.14-1.09-.29-1.64-.4-1.1-.23-2.19-.41-3.3-.53s-2.17-.23-3.26-.37-2.16-.29-3.25-.39l-3.54-.32c-2.21-.19-4.42-.43-6.61-.76-1.17-.17-2.33-.39-3.49-.63s-2.26-.52-3.39-.8-2-.55-3-.84-2.29-.63-3.44-.92-2.06-.49-3.09-.72a10.62,10.62,0,0,0-3.23-.19,17.35,17.35,0,0,0-4.46,1.16c-.67.25-1.34.54-2,.81s-1.33.49-2,.69l-.54.15h0a.9.9,0,0,0-.76.36,1,1,0,0,0-.1,1,1.1,1.1,0,0,0,.85.76c1,.74,2,1.47,3,2.26.57.45,1.14.91,1.7,1.38s1,.88,1.48,1.35c.23.23.45.47.67.71-.64-.08-1.28-.22-1.91-.36s-1.25-.35-1.86-.56-1.26-.48-1.88-.74c-1.34-.57-2.69-1.12-4.05-1.66-.7-.28-1.42-.52-2.14-.77s-1.34-.44-2-.62a25,25,0,0,0-4.51-.88,17.74,17.74,0,0,0-3.34,0,13.49,13.49,0,0,0-1.55.24c-.6.14-1.19.32-1.78.51-1,.36-2.06.79-3.09,1.18s-2,.73-3,1a24.77,24.77,0,0,1-2.69.58,23.81,23.81,0,0,1-2.79.21l-2.73,0c-1.45,0-2.9,0-4.35,0-.76,0-1.51.13-2.26.24a16.76,16.76,0,0,0-2.23.51,33.3,33.3,0,0,0-4.34,1.52,34.54,34.54,0,0,0-3.81,2c-.9.52-1.79,1.09-2.67,1.65s-1.61,1-2.42,1.49c-.61.35-1.22.68-1.84,1s-1.27.63-1.9,1a12.81,12.81,0,0,0-1.94,1.2,10.51,10.51,0,0,0-1.71,1.62c-.11.13-.21.27-.31.41a6.17,6.17,0,0,0-.42.7,2.1,2.1,0,0,0-.18.65,2.33,2.33,0,0,0,0,.59,3.18,3.18,0,0,0,.14.61,7.31,7.31,0,0,0,.4,1c.16.33.35.65.53,1l.67,1.11c.4.67.8,1.34,1.21,2a61.89,61.89,0,0,0-7.44-1.89,19.47,19.47,0,0,0-4.45-.16,17.21,17.21,0,0,0-4.41,1.06c-.69.24-1.35.54-2,.85a8.48,8.48,0,0,0-.86.41c-.36.21-.72.42-1.07.65-1.22.83-2.42,1.68-3.58,2.6s-2.35,2-3.5,3L497,125.8c-.56.47-1.15.92-1.71,1.38s-1.13,1-1.72,1.41-1.3.93-2,1.38-1.13.74-1.68,1.15-1.22,1-1.81,1.48c-1.1.94-2.25,1.81-3.35,2.75s-2.39,2-3.56,3.09-2.36,2-3.56,3-2.25,1.88-3.36,2.84a30.5,30.5,0,0,0-3.32,3.21q-1.56,1.77-3.11,3.56c-.82,1-1.55,2-2.28,3s-1.39,2.05-2,3.12c-.31.52-.63,1.06-.9,1.6s-.57,1.18-.85,1.77-.54,1.19-.82,1.77-.49,1-.75,1.47a43.41,43.41,0,0,1-2.47,3.66c-.46.6-.95,1.19-1.41,1.78a20.17,20.17,0,0,0-1.23,1.83c-.42.68-.84,1.37-1.21,2.09s-.63,1.3-.9,2a22,22,0,0,0-1.19,4.12,9.57,9.57,0,0,0-.1,2.14c0,.59.1,1.19.19,1.78a11.48,11.48,0,0,0,.46,2c.12.37.29.73.41,1.1,0,.16,0,.31.08.47a1.17,1.17,0,0,0,.41.69l0,0a8.5,8.5,0,0,1,.35,1.19c.08.37.15.73.24,1.09a8,8,0,0,0,.54,1.44,7.55,7.55,0,0,0,1.55,2.24,12,12,0,0,0,2.2,1.61c.77.45,1.57.84,2.35,1.27s1.53.87,2.31,1.27l2.33,1.21c.82.43,1.63.89,2.45,1.33a22.42,22.42,0,0,1,2.19,1.24c.65.44,1.3.9,1.93,1.37s1.37,1.06,2.06,1.57,1.43,1.13,2.14,1.7,1.45,1.11,2.18,1.66a27.19,27.19,0,0,0,2.22,1.6,21.09,21.09,0,0,0,2.34,1.26,27.43,27.43,0,0,0,2.64,1.06c.89.3,1.78.55,2.69.78,1.74.44,3.48,1,5.25,1.25,1,.16,2,.29,3,.41s1.74.22,2.61.26a8.14,8.14,0,0,0,1.48-.12c.39-.05.77-.12,1.15-.2a20.6,20.6,0,0,0,2.69-.75c.84-.28,1.66-.6,2.48-.93a14,14,0,0,1,2.6-.8h.08l.12,0a2.5,2.5,0,0,1-.07.26,16,16,0,0,1-1.17,2,16.88,16.88,0,0,0-1.21,2.15,6.67,6.67,0,0,0-.52,1.64,3.35,3.35,0,0,0,0,.71,2.29,2.29,0,0,0,.2.71,2.38,2.38,0,0,0,.35.56,4.26,4.26,0,0,0,.7.64,12.16,12.16,0,0,0,2,1.17,27,27,0,0,0,2.56,1.05c.4.14.81.28,1.22.4s.88.23,1.33.33c.86.18,1.73.32,2.6.46s1.8.28,2.71.41,1.94.26,2.92.31,1.84,0,2.77,0c1.82-.06,3.64-.26,5.46-.32a23.92,23.92,0,0,1,2.81,0l2.82.29c.9.09,1.79.17,2.69.21s1.79,0,2.68,0c.6,0,1.21,0,1.81-.06l2.13-.15c1.36-.1,2.73-.21,4.08-.38a32.84,32.84,0,0,0,4-.72m4.15-3-.31,0,.53-.57c.75-.81,1.45-1.66,2.14-2.52s1.33-1.74,2-2.62,1.26-1.72,1.86-2.61c1.25-1.86,2.41-3.77,3.55-5.7s2.27-3.76,3.28-5.71c.5-1,1-2,1.44-2.95s1-2,1.42-3,.9-2,1.34-3.05.91-2.13,1.36-3.2l0,0c.35-.83.72-1.64,1.07-2.47s.61-1.51.92-2.27c.45-1,.91-2.06,1.34-3.1s.8-2,1.2-3,.78-2,1.13-3c.18-.53.36-1.06.51-1.61s.28-1,.43-1.55c.34-1.25.68-2.48,1-3.74.15-.62.27-1.25.42-1.87.07-.29.16-.58.23-.87s.09-.39.12-.59c.64-.17,1.27-.33,1.9-.51l.47-.13c0,.15,0,.29,0,.44-.08.7-.15,1.4-.24,2.1-.16,1.07-.33,2.14-.52,3.2s-.47,2.25-.77,3.37c-.62,2.2-1.35,4.37-2.13,6.53-.67,1.86-1.4,3.71-2.1,5.56-.37,1-.72,1.94-1.1,2.9s-.72,1.81-1.11,2.71l-1,2.32c-.46,1.05-.94,2.1-1.44,3.14-.24.52-.5,1-.76,1.54l-.78,1.6c-.48,1-1,2-1.47,2.94s-1.06,2.07-1.62,3.08-1.16,2-1.75,2.93-1.27,1.89-1.94,2.82-1.37,1.92-2.09,2.87-1.39,1.8-2.1,2.7c-.17.23-.35.45-.52.67-.45.56-.92,1.11-1.42,1.62s-1.09,1-1.65,1.49c-.93,0-1.86,0-2.79.11m6-38.5c-.39.86-.8,1.71-1.21,2.55s-.9,1.79-1.36,2.67-.89,1.78-1.33,2.67l-1.28,2.61c-.44.91-.86,1.83-1.27,2.74-.82,1.83-1.63,3.66-2.5,5.46s-1.82,3.51-2.75,5.25a53.11,53.11,0,0,1-3,4.94c-.5.74-1,1.45-1.59,2.17s-1.09,1.44-1.65,2.15-1.18,1.49-1.77,2.24c-.5.6-1,1.19-1.54,1.78-.27.31-.55.62-.85.91s-.58.52-.88.76-.9.57-1.37.83a15.56,15.56,0,0,1-1.43.68l-.43.14,0,0c-.91-.08-1.82-.18-2.73-.29.34-.26.67-.53,1-.81a25.57,25.57,0,0,0,2.31-2.46c1.47-1.75,2.81-3.6,4.19-5.42s2.68-3.7,3.88-5.64c.6-.95,1.22-1.9,1.81-2.85s1.21-2,1.82-3.06c1.17-2,2.18-4,3.26-6,.55-1,1.13-2,1.69-3.07s1.11-2.05,1.68-3.07,1.16-2,1.78-3l1.81-2.84c.63-1,1.24-2,1.88-3s1.17-1.8,1.7-2.74c.44-.78.85-1.57,1.31-2.33s.92-1.52,1.34-2.29.83-1.53,1.26-2.28c.24-.4.47-.8.7-1.2a10.28,10.28,0,0,1,.53-.91,5.29,5.29,0,0,1,.54-.52,1.14,1.14,0,0,0,.21-.28c.87-.22,1.74-.44,2.61-.69l.45-.13c-.5.54-1,1.09-1.45,1.68-.59.76-1.16,1.55-1.7,2.36s-1,1.65-1.51,2.49-1,1.7-1.5,2.57-.93,1.71-1.36,2.58-.81,1.75-1.21,2.62m-32.13,2.81c-.48,1-.95,2-1.43,3s-1,1.92-1.42,2.89-1,1.94-1.45,2.9a22.7,22.7,0,0,1-1.61,2.79c-.7,1-1.46,2-2.22,3-.66.82-1.34,1.61-2,2.38s-1.51,1.63-2.28,2.43-1.52,1.49-2.33,2.19q-.63.54-1.23,1.11c-.4.38-.79.77-1.18,1.16-.7.71-1.38,1.43-2,2.19-.38.44-.74.9-1.1,1.37l.66-1.2c.41-.76.77-1.54,1.18-2.3l.49-.67c.5-.7,1-1.4,1.5-2.08l1.42-1.89c.56-.68,1.11-1.37,1.69-2s1.19-1.41,1.78-2.11,1.25-1.42,1.85-2.15c.33-.39.63-.8.93-1.21a11.24,11.24,0,0,0,.77-1.17c.58-1,1.16-2,1.71-3l.86-1.53L527,190c.26-.45.52-.9.77-1.35.57-1,1.12-2.06,1.66-3.1l1.11-2.08c.38-.71.74-1.44,1.14-2.14A32.74,32.74,0,0,1,534,177.6a1.85,1.85,0,0,1,.14-.14l.11-.08,1.52-.41.49-.12a19.15,19.15,0,0,0-1.07,1.73c-1,1.91-1.92,3.87-2.87,5.81m-47.39,17.52a19.69,19.69,0,0,1-1.73,1.19c-.37.22-.73.42-1.11.62s-.7.32-1.06.48-.56.23-.85.32l-1.4.45a.89.89,0,0,0-.31.15c-.4-.3-.8-.62-1.19-.93l1.08-.59c.49-.28,1-.56,1.47-.87a20.63,20.63,0,0,0,2.74-2.2l2.41-2.17c.86-.77,1.7-1.56,2.52-2.38s1.52-1.54,2.25-2.35,1.55-1.68,2.35-2.5,1.52-1.48,2.26-2.24l2.26-2.3c.57-.59,1.18-1.13,1.76-1.7a18.94,18.94,0,0,1,1.7-1.53l.4-.29.14-.1.16-.12,1.36-.11a22.25,22.25,0,0,0-1.62,2c-.64.89-1.24,1.81-1.9,2.69-.33.44-.66.87-1,1.32s-.64.94-1,1.39a2.35,2.35,0,0,0-.19.25c-.65.8-1.29,1.61-1.93,2.42s-1.35,1.62-2.06,2.4a27.23,27.23,0,0,1-2.3,2.38c-1.69,1.52-3.45,3-5.26,4.31m-12-1.14-.16-.12c-.54-.41-1.09-.82-1.66-1.19.33-.28.66-.56,1-.85.45-.44.89-.87,1.32-1.32s.73-.82,1.09-1.23.71-.77,1.05-1.16c.77-.9,1.5-1.83,2.22-2.76s1.31-1.72,1.93-2.61c.29-.41.57-.82.87-1.22.55-.67,1.14-1.29,1.75-1.91.32-.33.65-.66,1-1s.57-.47.87-.69.64-.45,1-.66l1.81-.16,2.93-.25c-.62.57-1.2,1.19-1.76,1.81-.7.78-1.38,1.58-2,2.39s-1.48,1.89-2.18,2.87c-.33.45-.66.9-1,1.34-1,1.16-2,2.31-3,3.39-.55.57-1.11,1.13-1.69,1.68s-1.16,1-1.77,1.51-1.06.74-1.61,1.06-1.27.71-1.91,1.05M454.07,179.5c.05-.32.12-.64.2-.95a22.52,22.52,0,0,1,.8-2.49,1.54,1.54,0,0,0,.08-.19c.79.2,1.57.42,2.32.69a13.46,13.46,0,0,1,1.94,1c.23.14.44.29.65.43.39.27.77.55,1.14.86s.92.79,1.37,1.21c.78.71,1.55,1.44,2.37,2.12.61.51,1.25,1,1.9,1.47-.91.14-1.82.31-2.73.47l-.15,0-.48-.16c-.32-.12-.65-.26-1-.4a11.94,11.94,0,0,1-1.18-.61c-.73-.42-1.42-.91-2.13-1.37a24.62,24.62,0,0,0-2.32-1.4l-.06,0a7.67,7.67,0,0,0-2.75-.64m22.62-34.41,2.29-1.93a10.43,10.43,0,0,1,1.11-.11,11.23,11.23,0,0,1,1.16,0,20.74,20.74,0,0,1,4.47,1c.65.26,1.29.55,1.94.84s1.33.58,2,.87,1.38.62,2.05,1a18.13,18.13,0,0,1,1.69,1A21.76,21.76,0,0,1,497,151.2c.7.86,1.37,1.74,2,2.66a26.21,26.21,0,0,1,1.58,2.71c1,1.93,1.9,3.88,2.86,5.82s1.88,3.88,2.88,5.79c.5,1,1,1.93,1.54,2.89s1,1.81,1.52,2.7c.62,1.06,1.26,2.11,2,3.11a17.73,17.73,0,0,0,1.22,1.5l-2.44.39c-.34-.37-.66-.75-1-1.12s-.91-1-1.35-1.54c-.66-.78-1.28-1.58-1.88-2.41s-1.1-1.66-1.63-2.51-1.09-1.81-1.63-2.72-1-1.75-1.42-2.62-1-1.86-1.5-2.77-1-1.75-1.59-2.6a26,26,0,0,0-4-4.95A33.69,33.69,0,0,0,489,151.8c-.91-.57-1.81-1.17-2.71-1.76s-1.73-1.08-2.61-1.59c-.56-.32-1.12-.63-1.69-.91a26,26,0,0,0-2.66-1.14,20.92,20.92,0,0,0-2.3-.69c-.29-.07-.59-.13-.88-.18l.51-.44m5.15-4.35,1.61-1.45,1-.88c1,.3,2,.63,3,1l-.21-.08,2.75,1c1.05.44,2.08.92,3.1,1.45a24.07,24.07,0,0,1,2.74,1.7c1.44,1.08,2.8,2.26,4.15,3.45a43.49,43.49,0,0,1,3.79,3.77c.3.36.59.74.86,1.12s.57.81.85,1.22c.62.9,1.22,1.81,1.8,2.74s1.11,1.72,1.62,2.6,1,1.85,1.47,2.81.89,2,1.35,2.94.87,1.85,1.3,2.78.83,1.94,1.23,2.91.76,2,1.18,3,.88,2.08,1.39,3.08q.39.8.81,1.59l-2.31.41-1-1.08a20.94,20.94,0,0,1-1.68-2.39c-.58-.92-1.12-1.85-1.65-2.79s-1-1.83-1.5-2.74-1-1.86-1.5-2.8c-1-1.93-2-3.85-3.05-5.76-.52-1-1.05-1.92-1.58-2.88s-1-1.86-1.61-2.76-1.21-1.78-1.86-2.64c-.34-.45-.7-.88-1.06-1.31s-.7-.85-1.07-1.25a27,27,0,0,0-2.41-2.25,16.26,16.26,0,0,0-2.81-1.89L492,145c-.76-.37-1.54-.7-2.32-1-1-.41-1.91-.85-2.87-1.24a15.17,15.17,0,0,0-1.72-.59c-.52-.14-1-.27-1.58-.39s-1-.19-1.55-.26a9,9,0,0,0-.91-.1l.79-.68m5.17-4.48c.57-.46,1.14-.91,1.7-1.38h0c.43.11.86.22,1.28.36.92.37,1.81.8,2.72,1.21l2.74,1.21c.92.41,1.81.88,2.7,1.36s1.86,1,2.75,1.58l.76.52c1,.74,2,1.5,3,2.33.5.42,1,.86,1.43,1.32s.86,1,1.27,1.45l-.15-.17a26.46,26.46,0,0,1,1.77,2.43c.27.41.55.83.8,1.25s.52.91.78,1.36c.53.88,1.1,1.74,1.59,2.65s1,1.84,1.45,2.78,1,2,1.53,3.07c.38.85.74,1.72,1.1,2.59s.84,1.94,1.24,2.92c.79,1.91,1.47,3.86,2.3,5.76.27.64.58,1.28.85,1.92s.64,1.46,1,2.18c.26.56.53,1.11.83,1.65l-2.42.45-.18-.37-1-2.12c0,.1.09.19.13.29-.44-1-.86-1.94-1.27-2.92S517,170,516.57,169s-.89-2.16-1.39-3.22-1-2-1.45-3-.91-1.93-1.38-2.88-1-1.91-1.56-2.82q-1.74-2.73-3.67-5.33a28.32,28.32,0,0,0-2.27-2.73c-.71-.75-1.47-1.47-2.24-2.17s-1.64-1.47-2.48-2.18-1.62-1.39-2.47-2a22.72,22.72,0,0,0-2.91-1.95l-1.35-.7q-.82-.4-1.68-.78c-1.05-.46-2.14-.82-3.21-1.21-.85-.3-1.69-.62-2.54-.9l1-.86m15.74-12.6.72-.6c.39,0,.78-.11,1.17-.13l1.13,0c.61,0,1.22,0,1.83,0a23.81,23.81,0,0,1,5.37,1.44l2.45,1c.83.34,1.67.65,2.49,1s1.72.76,2.55,1.2a23.88,23.88,0,0,1,2.16,1.31,30,30,0,0,1,2.68,2.21,31.15,31.15,0,0,1,2.45,2.56c.51.62,1,1.25,1.46,1.91.28.39.54.79.78,1.19s.43.75.64,1.13c.4.7.82,1.39,1.21,2.1s.76,1.39,1.1,2.11.75,1.73,1.08,2.6.72,2,1,3,.65,1.85.94,2.79c.14.5.28,1,.43,1.49s.31,1,.43,1.49c.25,1,.5,2,.78,3s.55,2,.84,3,.59,2,.9,2.93.68,1.88,1,2.82c.49,1.42.93,2.84,1.35,4.28.2.67.41,1.33.67,2,.11.3.24.59.37.88l-.51.11-2.07.45c-.44-.86-1-1.68-1.4-2.54-.55-1-1.09-2.06-1.58-3.12-.81-1.8-1.51-3.65-2.25-5.48-.38-.92-.8-1.84-1.12-2.79s-.61-2-.93-2.93-.73-2-1.11-3-.74-2-1.12-3-.82-2-1.19-3c-.18-.49-.36-1-.56-1.48s-.42-1-.64-1.48c-.45-1-.95-1.93-1.49-2.86s-1.12-1.82-1.7-2.72-1.17-1.75-1.79-2.6a26.28,26.28,0,0,0-2.12-2.47c-.36-.37-.73-.74-1.1-1.1a13.45,13.45,0,0,0-1.08-.92c-.46-.36-.93-.7-1.41-1s-.91-.55-1.38-.81c-.82-.47-1.64-.94-2.49-1.36l-.17-.08c-1-.47-2-.9-3-1.33s-1.77-.7-2.66-1-1.67-.58-2.53-.8-1.79-.43-2.7-.59l-.81-.12.83-.7m50.7,46.07c-.11-.23-.23-.46-.34-.7-.23-.59-.42-1.2-.64-1.8s-.58-1.46-.9-2.18a39.7,39.7,0,0,1-1.61-5.21c-.22-.93-.42-1.86-.62-2.79s-.42-2-.6-3-.31-1.95-.47-2.92-.31-1.88-.46-2.82-.28-1.91-.48-2.86a26.24,26.24,0,0,0-.77-2.76c-.35-1-.74-2-1.18-3s-.83-1.68-1.25-2.53l-.69-1.36c-.24-.46-.51-.9-.78-1.34-.49-.81-1-1.59-1.58-2.39s-1-1.59-1.55-2.36-1.12-1.6-1.69-2.4-1.24-1.62-1.88-2.41c-.51-.63-1-1.25-1.57-1.85a.71.71,0,0,0-.18-.27l-.62-.58c-.45-.48-.92-.94-1.41-1.37l-.33-.29-.37-.35c-.3-.29-.58-.58-.87-.87-.56-.58-1.11-1.18-1.61-1.81s-1-1.28-1.52-1.9l-.39-.48-.88-1.5a10.34,10.34,0,0,1-.6-1.14l.18,0a11.65,11.65,0,0,1,2.45.71,20.61,20.61,0,0,1,3,1.64l1.55,1c.47.31.92.64,1.37,1a39.65,39.65,0,0,1,4.09,3.79c1.3,1.38,2.51,2.84,3.67,4.34.64.87,1.26,1.76,1.86,2.66s1.21,1.78,1.79,2.69a27.48,27.48,0,0,1,1.55,2.94c.49,1,1,2,1.42,3.06.16.35.32.72.47,1.08.45,1.1.86,2.21,1.21,3.35a23.7,23.7,0,0,1,.75,3.56c.14,1,.26,2.1.32,3.16s0,2,0,3,0,2.2.14,3.3c0,.53.11,1.06.17,1.58s.11,1,.17,1.46c.15,1.15.32,2.3.54,3.44s.43,2.06.68,3.08.51,2,.84,3,.67,1.95,1,2.92l0,.06-1.47.35v0m41.23-12.16c-.07-.43-.13-.85-.2-1.28-.14-1-.26-2.11-.32-3.17s-.07-2.26,0-3.4,0-2.23,0-3.36-.13-2.22-.25-3.32-.26-2.25-.4-3.37-.25-2.23-.34-3.35c0-.58-.07-1.16-.09-1.75s0-1.09,0-1.64c0-1.18.12-2.35.17-3.52s.07-2.27.1-3.4,0-2.19,0-3.28c0-.58,0-1.15-.1-1.73a12.46,12.46,0,0,0-.31-1.91c-.13-.54-.29-1.07-.44-1.6s-.31-1.08-.49-1.6c-.4-1.17-.86-2.33-1.37-3.46a26.19,26.19,0,0,0-1.55-3,31.23,31.23,0,0,0-2-2.87c-.77-1-1.58-1.93-2.37-2.89s-1.47-1.74-2.22-2.6a25.62,25.62,0,0,0-2.31-2.35,31.89,31.89,0,0,0-2.84-2.22c-.35-.25-.72-.48-1.09-.71.8.15,1.59.33,2.38.53l1.22.35.72.37,1.54.82a26.33,26.33,0,0,1,2.77,1.81,27.16,27.16,0,0,1,2.88,2.59c.89.94,1.76,1.9,2.57,2.91.41.54.8,1.09,1.17,1.66s.7,1.15,1,1.73.71,1.23,1,1.86.53,1.1.77,1.66a18.81,18.81,0,0,1,1,2.73c.23,1,.44,1.93.6,2.91s.24,2,.38,2.92c0,0,0-.07,0-.11l.06.45c.16,1.1.27,2.21.41,3.32s.28,2.07.4,3.11.24,2.11.39,3.17.25,2.15.32,3.23a22.91,22.91,0,0,1,.05,3.21c-.07,1-.18,2.09-.27,3.13s-.13,2.14-.16,3.21,0,2.25,0,3.37c0,2,0,4,.07,6,0,1,0,1.95.06,2.93v1.8c-.93.25-1.86.49-2.78.75,0-.23-.07-.45-.11-.68m18.8-62.87.22.09c.5.2,1,.42,1.48.66s1.11.59,1.66.92l1.6.93c.52.31,1,.64,1.51,1l.54.4c.62.48,1.24,1,1.89,1.38s1.31.87,1.94,1.33c.94.74,1.83,1.55,2.71,2.35a22.52,22.52,0,0,1,2.41,2.66c.59.78,1.18,1.56,1.7,2.39a20.38,20.38,0,0,1,1.34,2.58,29.69,29.69,0,0,1,1.21,3.55,37.26,37.26,0,0,1,.78,3.75c.15,1.28.26,2.57.31,3.85a14.19,14.19,0,0,1,0,1.84c0,.56-.09,1.12-.16,1.68a15.44,15.44,0,0,1-.34,1.9c-.16.62-.35,1.24-.57,1.85-.4.94-.85,1.85-1.33,2.75s-1.11,2-1.59,3-1,2-1.46,3a33.77,33.77,0,0,1-1.71,3c-.45.71-.89,1.43-1.37,2.12-.25.35-.51.68-.76,1s-.5.72-.75,1.07c-.48.66-1,1.31-1.45,2s-.9,1.26-1.36,1.88a18.77,18.77,0,0,1-1.94,2.24c.56-1,1.13-2,1.69-2.95.26-.47.53-.94.76-1.43s.51-1.16.74-1.75a26.9,26.9,0,0,0,1-3.27c.26-1.08.5-2.17.72-3.26s.51-2.21.76-3.31c.51-2.24,1-4.5,1.52-6.73.28-1.1.5-2.21.71-3.33.11-.55.19-1.11.29-1.67s.21-1.27.28-1.9a18.5,18.5,0,0,0,.11-3.49,22.16,22.16,0,0,0-.59-3.43,29.85,29.85,0,0,0-2.46-6.67,23.4,23.4,0,0,0-1.75-2.87c-.36-.49-.75-1-1.14-1.43s-.77-.88-1.17-1.31c-.78-.83-1.61-1.61-2.42-2.42s-1.58-1.58-2.35-2.4-1.57-1.69-2.37-2.53l-1-1,.17.08m38.46,26.54c-.28-1.14-.63-2.26-1-3.38s-.67-2.27-1-3.41c-.23-.93-.44-1.87-.65-2.81.17.29.35.58.53.87a.57.57,0,0,0,0,.26,32.66,32.66,0,0,0,1.74,3.75c.61,1.1,1.19,2.22,1.7,3.37a26,26,0,0,1,1.36,5.5c.14,1.07.27,2.14.33,3.21,0,.59.06,1.17.08,1.75a10.18,10.18,0,0,1-.06,1.56c-.11.7-.26,1.4-.44,2.1a19.41,19.41,0,0,1-3,6.11c-.43.56-.87,1.12-1.31,1.67s-.93,1.21-1.43,1.78l-1.52,1.74-.72.8-.1.1-1,.25-.87.23c.2-.33.4-.67.59-1s.49-.74.73-1.1.51-.77.76-1.15c.49-.75,1-1.51,1.5-2.24.36-.46.73-.92,1.08-1.39s.69-.9,1-1.37a20.29,20.29,0,0,0,1.64-2.91A12.64,12.64,0,0,0,653,132a19.68,19.68,0,0,0,.12-3.6c0-.58-.1-1.17-.17-1.75s-.19-1.33-.3-2c-.21-1.16-.48-2.31-.75-3.45m-15.26,31.58c.25.37.49.74.73,1.12s.53.77.79,1.16l.4.63c.12.21.22.42.32.64.23.65.38,1.32.56,2a17.59,17.59,0,0,1,.44,2.16c.07.7.12,1.4.17,2.1s.06,1.47.07,2.2,0,1.47-.06,2.2-.12,1.4-.21,2.1c-.17,1.11-.41,2.21-.64,3.31s-.48,2.21-.79,3.3l-1.89,6.71c-.38,1.37-.77,2.75-1.26,4.09s-1,2.75-1.58,4.11l-.22.51a63.45,63.45,0,0,1-3.19,6.05c-.63,1.07-1.24,2.14-1.89,3.19s-1.26,1.84-1.92,2.74c-.42.56-.83,1.13-1.24,1.69s-.86,1.16-1.31,1.73c-.93,1.15-1.87,2.3-2.85,3.42-1.21.26-2.44.47-3.67.65.33-.35.68-.69,1-1,.8-.82,1.53-1.7,2.25-2.58s1.48-1.9,2.15-2.89,1.22-1.91,1.79-2.89a130.45,130.45,0,0,0,6.21-12.82c.78-1.78,1.54-3.56,2.3-5.35.48-1.11,1-2.22,1.42-3.34s.93-2.24,1.33-3.38.72-2.28,1-3.43a27.15,27.15,0,0,0,.71-3.7,31,31,0,0,0,.25-3.48,26.09,26.09,0,0,0-.25-3.64,14.11,14.11,0,0,0-.75-3.27c-.45-1.21-1-2.38-1.51-3.57-.31-.71-.62-1.44-1-2.13l-.4-.74,2.09-.44a6.47,6.47,0,0,0,.58.89m-13.34,3.57c.08,1.08.15,2.16.19,3.24s0,2.32,0,3.48,0,2.3-.09,3.45-.09,2.19-.17,3.29-.2,2-.34,3-.37,2.13-.63,3.18-.63,2.17-1,3.25-.71,2.25-1.12,3.37-.81,2.18-1.22,3.27c-.65,1.74-1.3,3.49-2,5.21q-.64,1.5-1.41,2.94c-.55,1-1.12,2.06-1.69,3.08s-1.1,1.94-1.71,2.88l-2,3c-1.18,1.81-2.51,3.52-3.61,5.38-.56.93-1.07,1.9-1.58,2.86-.09.17-.18.35-.28.52l.06-.81c.11-1.38.22-2.76.41-4.13a20.62,20.62,0,0,1,.47-2.34,14.87,14.87,0,0,1,.54-1.59l.25-.36c.63-.89,1.24-1.81,1.84-2.73s1.27-2,1.85-3.1,1.07-2,1.57-3,1-2.09,1.48-3.16.94-2.21,1.38-3.32.86-2.15,1.24-3.25a59.42,59.42,0,0,0,1.85-6.58c.27-1.15.52-2.31.73-3.48s.36-2.43.51-3.65c.06-.49.13-1,.19-1.46.16-1.13.33-2.25.45-3.39s.18-2.35.25-3.53.19-2.29.21-3.45,0-2.14.09-3.2c1-.23,2-.45,3.07-.66,0,.6.09,1.2.13,1.79M466.82,156c.39-.57.79-1.14,1.2-1.69,1,.26,2,.53,3,.87s2,.72,2.95,1.08c.67.26,1.35.52,2,.8s1.39.63,2.08,1a26.06,26.06,0,0,1,3.71,2.26,17.41,17.41,0,0,1,2.62,2.3c.3.37.57.74.85,1.12s.57.8.84,1.21c.58.89,1.15,1.8,1.68,2.73s1,1.89,1.49,2.84.95,1.9,1.49,2.82a28.31,28.31,0,0,0,4,5,21.71,21.71,0,0,0,2.18,2l.2.17-1.16.17c-.68.1-1.37.21-2.06.28h-.05l-.34-.21a20.21,20.21,0,0,1-2.18-1.86c-.67-.65-1.28-1.36-1.89-2.08a25,25,0,0,1-1.78-2.41c-.6-.93-1.12-1.91-1.65-2.88-.25-.46-.51-.91-.77-1.36s-.53-.94-.82-1.38-.65-.93-1-1.38-.7-.88-1.07-1.3c-.73-.84-1.53-1.61-2.31-2.39-.4-.4-.79-.8-1.2-1.19a12,12,0,0,0-1.23-1,22.42,22.42,0,0,0-2.86-1.73l-.72-.36c-.76-.38-1.54-.74-2.33-1.07a27.17,27.17,0,0,0-2.79-1l-2.52-.74c.13-.21.27-.42.41-.63m-3.69,6.75,1.65.59c.74.3,1.48.6,2.2,1l.89.45,1.45.71a40.26,40.26,0,0,1,4.32,2.26,21.43,21.43,0,0,1,2.44,2.12c.43.42.83.87,1.24,1.3s.8.82,1.18,1.25c.6.74,1.18,1.5,1.75,2.27.31.41.62.83.91,1.26l.92,1.36c.58.85,1.14,1.73,1.76,2.56a14.86,14.86,0,0,0,1.54,1.74c-.9,0-1.8.07-2.69.13l-.15-.06a9.2,9.2,0,0,1-.89-.44,16.7,16.7,0,0,1-1.57-.94c-.79-.6-1.54-1.28-2.28-1.94l-2.31-2.13c-.78-.74-1.53-1.48-2.25-2.28s-1.44-1.59-2.23-2.32l-1.15-1a13.84,13.84,0,0,0-1.14-.88,25.63,25.63,0,0,0-2.65-1.61q-2.22-1.26-4.45-2.49a32.06,32.06,0,0,0,1.51-2.84m1.08-2.34c.27-.59.58-1.16.89-1.72l.39-.64,2.54.75c.74.22,1.48.44,2.21.7a34.62,34.62,0,0,1,5.86,3,12.64,12.64,0,0,1,1.09.84c.43.4.84.81,1.25,1.23.76.79,1.53,1.58,2.25,2.41a24.19,24.19,0,0,1,1.86,2.53,27.12,27.12,0,0,1,1.46,2.9c.46,1,.92,2,1.46,2.93a20.78,20.78,0,0,0,1.74,2.61,29.57,29.57,0,0,0,2.6,3c.16.15.31.3.48.44l-.59.06-.67.06h-.33l-.09-.06a11.28,11.28,0,0,1-1.25-1.15c-.4-.43-.79-.87-1.18-1.32-.62-.77-1.16-1.6-1.75-2.4s-1.23-1.74-1.9-2.56-1.45-1.68-2.17-2.53-1.48-1.5-2.22-2.24a29.79,29.79,0,0,0-2.38-2.12,16.51,16.51,0,0,0-2.81-1.79l-.59-.3L470,163.9l-1.25-.62c-.58-.29-1.17-.59-1.77-.86-1-.45-2-.83-3.09-1.2l.36-.77M460.72,167l3.39,1.88c1.2.68,2.41,1.34,3.56,2.1.37.28.75.56,1.1.88s.84.76,1.25,1.16c.78.77,1.5,1.6,2.21,2.43s1.45,1.58,2.2,2.35,1.48,1.51,2.23,2.26,1.34,1.4,2.09,2l-1.8.21-2.21.24c-.68-.52-1.32-1.09-2-1.66s-1.48-1.36-2.18-2.09l-2.15-2.23c-.71-.72-1.44-1.41-2.15-2.13-.55-.53-1.09-1.07-1.67-1.56a15.3,15.3,0,0,0-2-1.43c-.35-.21-.7-.4-1.06-.59l-.2-.11-.82-.38-.57-.22-.6-.23-.63-.23c.38-.49.77-1,1.14-1.5s.55-.77.81-1.17m39.54-41.25,1.1.08a31.78,31.78,0,0,1,3.62.73,32.32,32.32,0,0,1,3.32,1.11h0c.75.3,1.5.62,2.25.94s1.57.69,2.32,1.08,1.5.81,2.25,1.23l1.07.61c.33.2.64.4.95.62a22.09,22.09,0,0,1,2.1,1.77c.65.64,1.29,1.32,1.89,2a40.59,40.59,0,0,1,2.81,4.09c.45.75.92,1.49,1.34,2.26s.76,1.44,1.11,2.17a30.37,30.37,0,0,1,1.09,2.88c.31,1,.7,2,1,3s.66,2,1,2.95.71,2,1,3,.6,2,.9,3,.69,1.87,1.07,2.8c.8,1.93,1.59,3.87,2.47,5.77.55,1.2,1.16,2.36,1.8,3.52q.43.78.9,1.56c.09.15.19.3.28.46l-1.23.27,0,0c-.31-.31-.59-.64-.88-1a30.76,30.76,0,0,1-2.75-4.18q-1.24-2.22-2.33-4.53c-.45-1-.88-2-1.31-3s-.77-2-1.15-3c-.19-.5-.37-1-.54-1.49s-.32-1-.49-1.46c-.37-1-.79-2-1.23-3s-1-2.09-1.54-3.11-1.08-1.94-1.63-2.9-1.12-1.82-1.66-2.73c-.29-.49-.56-1-.86-1.46s-.59-.93-.91-1.39-.63-.79-.95-1.18l-1.21-1.44a29.1,29.1,0,0,0-2.21-2.37,21.51,21.51,0,0,0-2.62-2.24c-.86-.6-1.74-1.18-2.64-1.72-.48-.29-1-.57-1.47-.83l-.3-.16-1.06-.49c-.49-.21-1-.37-1.5-.56l-1.57-.58c-1-.37-2-.73-3-1.07-.69-.23-1.4-.44-2.1-.65l1.49-1.28M473.45,148c.39-.38.78-.76,1.18-1.12.71.12,1.42.26,2.12.41A19.44,19.44,0,0,1,479,148a23.88,23.88,0,0,1,2.68,1.21c.93.49,1.83,1,2.73,1.59s1.73,1.15,2.59,1.73,1.75,1.15,2.61,1.74l.74.51a25.22,25.22,0,0,1,2.06,1.65,20.47,20.47,0,0,1,1.7,1.79,37.55,37.55,0,0,1,3.38,5.1c1,1.77,1.88,3.62,2.82,5.43.47.92,1,1.82,1.5,2.71s1,1.79,1.59,2.66a35.55,35.55,0,0,0,3.8,4.93l.13.14-1.91.25-.23,0-.61-.52c-.36-.33-.72-.65-1.07-1a27.4,27.4,0,0,1-2.18-2.26c-.64-.78-1.25-1.58-1.81-2.42s-1.09-1.77-1.61-2.67c-1-1.78-2-3.62-3.18-5.3-.66-.92-1.32-1.83-2-2.72a32.41,32.41,0,0,0-2.28-2.55c-.78-.8-1.57-1.58-2.41-2.31a27.53,27.53,0,0,0-2.71-2c-.87-.57-1.76-1.11-2.68-1.61-.38-.21-.78-.41-1.17-.61l-1.82-.86-1.42-.64c-.5-.24-1-.49-1.48-.75a29.74,29.74,0,0,0-2.83-1.26c-.5-.19-1-.4-1.52-.54l-.2-.05c.42-.47.83-.94,1.26-1.41m-2.5,2.82a6.08,6.08,0,0,1,.74.16c.38.1.76.23,1.13.36.94.37,1.89.74,2.79,1.19l1.4.73c.49.25,1,.47,1.5.7,1,.45,2,.92,2.93,1.42a26,26,0,0,1,2.72,1.66c.18.11.35.23.51.35.47.33.93.66,1.37,1s1,.91,1.52,1.39c.9.89,1.75,1.84,2.57,2.8.66.82,1.29,1.67,1.89,2.54s1.21,1.75,1.75,2.67,1,1.76,1.45,2.66,1,1.88,1.53,2.81a26.39,26.39,0,0,0,3.54,4.86,19.26,19.26,0,0,0,1.82,1.68l-.45.06-1.26.18-1.26-1c-.61-.48-1.2-1-1.77-1.52s-1.09-1.1-1.61-1.66-1-1.11-1.53-1.69a22.62,22.62,0,0,1-1.7-2.32c-.55-.89-1-1.81-1.54-2.73a49.47,49.47,0,0,0-3.4-5.47c-.31-.42-.63-.82-.94-1.22s-.74-.92-1.15-1.34a18.13,18.13,0,0,0-2.57-2.06c-.85-.58-1.72-1.14-2.61-1.67-.36-.21-.74-.41-1.12-.6-.55-.27-1.11-.52-1.66-.77-1.51-.68-3.06-1.26-4.61-1.82-.82-.29-1.63-.59-2.45-.86-.45-.14-.91-.27-1.37-.39.6-.72,1.22-1.42,1.84-2.12m-14.61,22.54c.31-.53.63-1.06,1-1.58.14-.22.29-.44.44-.66l1.21.42a17.61,17.61,0,0,1,1.94.86c.35.19.7.4,1.05.61l.74.5a14.71,14.71,0,0,1,1.14,1c.39.37.78.75,1.15,1.14.72.73,1.44,1.46,2.14,2.22s1.38,1.51,2.06,2.28,1.31,1.45,2,2.14l.69.67-1.37.17-.45-.2q-.64-.31-1.26-.69c-.84-.49-1.65-1-2.45-1.57-1.39-1-2.63-2.21-4-3.28-.38-.31-.79-.59-1.19-.87s-1-.64-1.5-.92l-.33-.18a18.36,18.36,0,0,0-3.41-1.19l.42-.82m107.58,46.75-.32,0a13.15,13.15,0,0,0,1.16-1.2c.77-.88,1.49-1.81,2.21-2.73s1.42-1.8,2.11-2.73,1.41-1.9,2.11-2.86,1.34-1.93,2-2.92,1.23-2,1.81-2.94,1.1-1.94,1.64-2.92c.25-.47.52-.92.78-1.39s.54-1,.81-1.53.57-1,.84-1.55.56-1.06.83-1.59c.5-1,1-2,1.46-3s1-2.17,1.48-3.27,1-2.33,1.42-3.5c.83-2.13,1.68-4.25,2.47-6.4s1.51-4.34,2.13-6.56c.24-.87.45-1.74.61-2.63s.31-1.92.46-2.88.28-2,.38-3.07c.05-.41.09-.82.13-1.24l.06-.5,3.15-.92a6.8,6.8,0,0,0-.14.68c-.08.64-.08,1.29-.12,1.93-.07,1.28-.11,2.56-.28,3.82-.07.47-.13.92-.21,1.38s-.19,1-.3,1.47c-.22,1-.45,2-.66,3a46.06,46.06,0,0,1-1.65,5.9c-.34,1-.74,1.91-1.15,2.85-.48,1.12-1,2.24-1.46,3.36s-.82,2-1.25,3-.86,2-1.28,3c0-.09.08-.18.11-.27-.26.61-.54,1.22-.78,1.84s-.44,1.16-.66,1.74c-.44,1.19-.89,2.37-1.38,3.54q-.57,1.29-1.2,2.55c-.45.91-.89,1.82-1.36,2.71s-1,1.81-1.52,2.7-1.09,1.83-1.66,2.73c-.43.68-.87,1.35-1.33,2s-.85,1.15-1.29,1.71c-.8,1-1.63,1.92-2.47,2.87-.44.49-.89,1-1.37,1.43a13.36,13.36,0,0,1-1.36,1.13l-1.19.83c-.24.17-.49.33-.74.48l-.4.23-2.6-.24m5.38.51-.21,0,.47-.33a17.45,17.45,0,0,0,2.45-2.09c.34-.34.65-.7,1-1.06l1.1-1.24q1.1-1.24,2.1-2.55a60.31,60.31,0,0,0,3.49-5.19c1.09-1.74,2.13-3.52,3.08-5.34.35-.67.7-1.33,1-2s.68-1.45,1-2.19c.56-1.34,1.08-2.7,1.65-4s1.07-2.42,1.61-3.63,1.18-2.72,1.75-4.09c.84-1.93,1.72-3.84,2.46-5.8.35-.95.65-1.92.92-2.89s.54-2,.76-3,.42-2,.64-3c.12-.51.23-1,.34-1.53s.17-1,.24-1.51.17-1.13.23-1.7.08-1,.1-1.53c0-1,.11-1.93.17-2.9l0-.39a14,14,0,0,1,.46-1.47l0-.06a.54.54,0,0,0,.07-.13l1.92-.53,1-.26c0,.27-.07.54-.1.82-.08.74-.15,1.49-.25,2.24-.21,1.52-.4,3-.61,4.57-.18,1.1-.42,2.18-.68,3.27s-.49,2.09-.78,3.12-.57,2.09-.9,3.13-.74,2.14-1.14,3.2c-.77,2-1.57,4-2.36,6s-1.59,4-2.37,6.06c-.39,1-.8,2-1.22,3s-.81,1.91-1.21,2.86l-2.47,6-.47,1.13c-.74,1.66-1.49,3.33-2.35,4.94-.41.77-.87,1.52-1.34,2.26s-1,1.53-1.54,2.26-1.18,1.41-1.79,2.09l-1,1.08a12.66,12.66,0,0,1-1,.89,18.23,18.23,0,0,1-2.59,1.54.73.73,0,0,0-.33.32l-.51-.07c-.91-.12-1.84-.2-2.76-.29m8.56.91a20.44,20.44,0,0,1-2.71-.18,15.6,15.6,0,0,0,1.43-1,12.47,12.47,0,0,0,1.18-1c.38-.37.75-.77,1.12-1.16.76-.84,1.5-1.7,2.2-2.6.33-.43.62-.88.92-1.33s.55-.84.81-1.27a43.15,43.15,0,0,0,2.27-4.24q1-2.19,2-4.41l0,.09c.86-2,1.76-4,2.63-5.93.43-1,.87-1.91,1.3-2.87s.94-2.18,1.39-3.28c1.63-4,3.37-7.94,4.89-12,.4-1.07.78-2.13,1.11-3.22s.61-2.08.9-3.13.53-2.1.78-3.16c.14-.57.26-1.14.37-1.72s.19-1.17.27-1.76c.16-1.2.32-2.41.49-3.62.08-.58.17-1.16.23-1.75s.1-1.07.17-1.6l.15-1c1.07-.27,2.14-.52,3.22-.76,0,.31,0,.63-.08.94-.07.76-.13,1.53-.18,2.29-.11,1.47-.21,2.94-.37,4.41-.15,1-.34,2-.5,2.92s-.41,2.13-.67,3.18-.52,2.13-.82,3.18-.65,2.21-1,3.31-.71,2.15-1.08,3.21-.76,2.12-1.15,3.18-.74,2-1.13,3-.87,2.11-1.3,3.16c-.88,2.14-1.68,4.31-2.54,6.46s-1.61,4-2.4,6.06c-.36.94-.74,1.88-1.14,2.8a42,42,0,0,1-2.26,4.5c-.45.75-.9,1.51-1.37,2.25s-.93,1.3-1.42,1.92-.84,1-1.28,1.52-.88.9-1.3,1.36l-1.4,1.51c-.49.52-1,1-1.48,1.54-.74.06-1.48.09-2.23.1m7.43-.94c-.75.16-1.52.29-2.28.42l-.22,0,.75-.81c.37-.41.74-.81,1.12-1.2s.74-.76,1.08-1.16c.77-.9,1.51-1.81,2.23-2.76.31-.41.6-.86.87-1.3l.9-1.46a49.55,49.55,0,0,0,3-5.86c.89-2,1.72-4.06,2.58-6.09.53-1.29,1.09-2.57,1.61-3.87s1-2.5,1.55-3.75c.44-1,.89-2,1.32-3s.93-2.19,1.37-3.29.81-2.05,1.2-3.09.81-2.09,1.16-3.16c.72-2.15,1.39-4.31,2-6.5.28-1.08.56-2.15.77-3.24l.27-1.59c.1-.54.19-1.07.28-1.6.25-1.65.34-3.32.45-5,.06-.79.11-1.58.18-2.37,0-.38.07-.77.1-1.15l.06-.55v-.15l3.76-.9c0,.49,0,1,0,1.45,0,1.11,0,2.21,0,3.32s0,2.3-.09,3.45-.18,2.29-.3,3.43c0,.25-.07.5-.1.74-.32,2.23-.69,4.46-1.15,6.67-.23,1.13-.51,2.25-.79,3.37s-.58,2.21-1,3.3c-.23.7-.51,1.4-.76,2.09l-.72,1.92c-.49,1.28-1,2.56-1.52,3.82-.47,1-1,2-1.47,3.07s-1,2.1-1.51,3.15-1,2.08-1.49,3.11-1,2-1.49,3c-1,2.06-2.06,4.12-3.21,6.12-.55,1-1.12,1.89-1.68,2.82-.29.48-.59.95-.91,1.41s-.61.85-.93,1.26c-.66.81-1.34,1.61-2,2.4s-1.69,1.83-2.54,2.74l0,.07h0a22.58,22.58,0,0,1-2.25.59m12.68-9c-.42.72-.87,1.42-1.36,2.1A20.6,20.6,0,0,1,595,215.5c-.62.58-1.27,1.13-1.93,1.67-.49.38-1,.72-1.53,1.05l0-.06c.8-.91,1.58-1.85,2.32-2.82a28.53,28.53,0,0,0,1.83-2.75c.6-1,1.21-2,1.8-3s1.14-2.08,1.69-3.13,1.09-2.1,1.62-3.16,1-2,1.54-3,1-2,1.53-3,1-2.07,1.58-3.11,1-2,1.5-3.06c1-2.24,1.87-4.51,2.76-6.78.41-1,.77-2.08,1.08-3.16s.62-2.25.91-3.38c.58-2.26,1-4.55,1.38-6.84.21-1.22.37-2.45.51-3.68s.22-2.29.28-3.44,0-2.29.07-3.44,0-2.14.1-3.21c0-.18,0-.36,0-.54l3.66-.82c0,.4,0,.8-.06,1.21s0,1.09,0,1.64,0,1.17-.1,1.75c-.09,1.14-.14,2.28-.21,3.42s-.21,2.3-.35,3.44c-.21,1.65-.41,3.3-.61,4.94-.16,1.08-.34,2.16-.56,3.23s-.49,2.27-.75,3.4-.59,2.27-.93,3.39-.72,2.14-1.13,3.2-.89,2.27-1.37,3.39-.87,2-1.36,2.95-1.08,2.05-1.65,3.06-1.09,2-1.69,3-1.27,1.95-1.9,2.93c-.76,1.18-1.55,2.35-2.33,3.51-.4.58-.82,1.15-1.24,1.72-.2.28-.41.55-.6.83l-.06.1a21.74,21.74,0,0,0-1.44,2.23c-.49.81-.91,1.65-1.37,2.47m7.52,2.41c.34-.66.69-1.31,1-2,.51-1,1-2,1.58-2.88s1.24-1.95,1.91-2.89,1.35-1.92,2-2.9,1.26-1.87,1.87-2.81,1.2-2,1.78-3,1.16-2,1.7-3,1-2,1.49-3,.94-2.25,1.39-3.38L621.5,185c.43-1.1.89-2.19,1.28-3.31s.75-2.2,1.11-3.3a32.66,32.66,0,0,0,1-3.2c.26-1.14.47-2.28.65-3.43s.31-2.39.4-3.59.17-2.24.23-3.36.07-2,.09-3,0-2,0-3-.09-1.86-.15-2.79c0-.46-.08-.92-.13-1.38l-.06-.61,1.61-.33.36-.07c0,.14.08.28.11.42.19.76.36,1.53.54,2.3s.39,1.65.54,2.49.28,1.67.39,2.52c.05.41.09.82.13,1.24s0,.91,0,1.35c0,1,0,2,0,3s-.1,2-.21,3-.23,1.92-.35,2.87c-.11.75-.24,1.48-.4,2.22s-.38,1.53-.61,2.28-.53,1.45-.81,2.17-.57,1.45-.87,2.17c-.46,1.05-.95,2.08-1.45,3.11s-1.08,2.29-1.61,3.45q-1.51,3.3-3.17,6.55t-3.5,6.49c-.61,1.07-1.21,2.15-1.8,3.23s-1.16,2.08-1.8,3.08q-.47.73-1,1.41a1.56,1.56,0,0,1,.16-.2l-.33.41c-.53.65-1.07,1.28-1.66,1.88s-1.26,1.15-1.89,1.73c-.93.36-1.85.75-2.75,1.17m7.4-2.64-.53.12c.36-.4.69-.83,1-1.25a17.88,17.88,0,0,0,1.1-1.49c1.3-2,2.41-4.19,3.61-6.28s2.4-4.28,3.51-6.47,2.22-4.43,3.27-6.67c.52-1.1,1-2.21,1.57-3.3s1.13-2.25,1.65-3.4.95-2.23,1.41-3.35c.24-.59.48-1.18.69-1.79s.36-1.18.52-1.78a34.83,34.83,0,0,0,.67-3.5c.2-1.29.41-2.58.54-3.88s.17-2.45.21-3.68c0-.65,0-1.29,0-1.94a19.06,19.06,0,0,0-.19-2c-.1-.87-.23-1.73-.37-2.59s-.31-1.6-.5-2.4-.32-1.47-.49-2.2c0-.13-.08-.27-.11-.4l.73-.15c.08.15.14.31.22.47s.29.55.44.82c.29.53.54,1.09.78,1.64s.52,1.17.77,1.76l.76,1.71c.1.28.2.57.29.86s.21.79.3,1.2a21.15,21.15,0,0,1,.34,2.09c.05.56.1,1.11.12,1.66s0,1.16,0,1.74c0,1.18-.11,2.35-.24,3.53s-.43,2.2-.71,3.29-.61,2.2-1,3.26c-.83,2.23-1.72,4.44-2.63,6.64-1,2.5-2.08,5-3.14,7.51-.93,2.14-1.88,4.27-2.94,6.35a54.52,54.52,0,0,1-3.51,6.06c-.54.79-1.11,1.56-1.7,2.31s-1.42,1.74-2.2,2.56c-.42.44-.87.86-1.27,1.32s-.68.82-1,1.23c-.68.1-1.36.24-2,.39m13.55-3.07c-.74.29-1.49.55-2.24.8l-.27.1c1-1.24,2-2.51,3-3.81.35-.5.7-1,1.06-1.48s.65-.86,1-1.3.67-1,1-1.44.66-1.07,1-1.61c.57-1,1.17-1.92,1.72-2.89s1.17-2.11,1.73-3.18c1.08-2.11,1.93-4.33,2.81-6.52.42-1.06.78-2.15,1.13-3.23s.75-2.28,1.12-3.42.74-2.12,1.12-3.18c.19-.53.38-1.06.55-1.59s.35-1.17.5-1.76c.3-1.11.59-2.23.8-3.36.14-.7.23-1.4.34-2.11.07-.54.12-1.09.14-1.64,0-1.14.06-2.27,0-3.4,0-.55-.06-1.1-.1-1.65s-.13-1.38-.22-2.07A19.08,19.08,0,0,0,642,157a10.14,10.14,0,0,0-1-2.69c-.44-.71-.93-1.39-1.37-2.1-.2-.31-.41-.61-.62-.92l2.21-.46c.16.26.31.53.46.8.37.61.77,1.19,1.17,1.78a17.34,17.34,0,0,1,1.65,3,1.42,1.42,0,0,0,.08.18l0,.08c0,.07,0,.13.07.19.24.67.44,1.35.62,2a18,18,0,0,1,.39,2.07,24.21,24.21,0,0,1,.14,2.82c0,1.07,0,2.13-.07,3.2,0,.5,0,1,0,1.5s0,1.11-.08,1.67c-.05.95-.11,1.9-.23,2.84s-.38,2.08-.65,3.1-.64,2.18-1,3.25-.75,2-1.15,3-.74,1.87-1.14,2.8c-.54,1.22-1.12,2.43-1.68,3.64s-1.14,2.59-1.69,3.9c-.44,1-.91,2-1.38,3s-1,2-1.6,2.9-1.11,1.93-1.73,2.86l-1,1.47c-.29.43-.56.86-.87,1.27a32.51,32.51,0,0,1-2.82,2.81,1.18,1.18,0,0,0-.17.22l-.12.07c-.64.32-1.3.63-2,.91m10.9-7.24c-1,.83-2,1.64-3,2.43l-.65.5c.24-.38.49-.75.73-1.12s.63-1,.93-1.43.62-1,.93-1.57c.55-1,1.13-1.91,1.64-2.9s1-2.14,1.54-3.22.91-2.1,1.41-3.14,1-2.11,1.57-3.17.95-2,1.39-3,1-2.31,1.5-3.47.86-2.17,1.23-3.27.68-2.25,1-3.4a16.91,16.91,0,0,0,.35-1.72c.1-.66.16-1.32.23-2s.12-1.21.16-1.81,0-1.08.07-1.63.07-1.21.09-1.82,0-1.09,0-1.64a27.51,27.51,0,0,0-.24-3.62,17.53,17.53,0,0,0-.76-3.2c-.06-.18-.11-.36-.18-.54l-.09-.27-.08-.21-.15-.39v0a.61.61,0,0,1,0-.12,16.81,16.81,0,0,0-1.82-3.33c-.37-.54-.74-1.08-1.07-1.64l0-.06,2.21-.47.6,1a14.9,14.9,0,0,1,.9,1.67c.12.28.24.56.38.83l.45.84a13.85,13.85,0,0,1,.71,1.51c.35.93.66,1.87.94,2.82a19.47,19.47,0,0,1,.58,2.93c0,.13,0,.27,0,.4l0,.26,0,.23c0,.05,0,.11,0,.16,0,.29.07.58.1.87a20.46,20.46,0,0,1,.1,2.71c0,.95,0,1.89-.05,2.84,0,.49,0,1-.08,1.48s-.08.82-.14,1.23c-.16,1.11-.3,2.21-.44,3.32s-.34,2-.51,3.08-.39,2-.65,3-.58,2.1-1,3.13-.72,1.89-1.11,2.83-1,2.12-1.51,3.15c-.25.49-.53.95-.81,1.42l-.91,1.58c-.28.5-.57,1-.87,1.5s-.66,1-1,1.52l-.94,1.38c-.24.35-.46.7-.69,1.06l-1.25,1c-.63.49-1.24,1-1.84,1.51m9.35-7.54c-.65.55-1.3,1.08-2,1.62.16-.26.31-.53.46-.79.55-1,1.14-1.94,1.68-2.93s1.11-2.11,1.59-3.19,1-2.24,1.41-3.38a33.73,33.73,0,0,0,1.09-3.36c.31-1.12.57-2.25.79-3.4s.45-2.23.65-3.36c.11-.58.19-1.18.31-1.77s.22-1.1.32-1.65c.22-1.21.38-2.44.48-3.66a34.34,34.34,0,0,0,.15-3.51c0-.58-.07-1.17-.12-1.75l0-.28a2.29,2.29,0,0,0,0-.25c0-.41-.09-.81-.13-1.22a16.19,16.19,0,0,0-.29-1.85c-.13-.58-.28-1.14-.45-1.7a31.7,31.7,0,0,0-1.29-3.53c-.22-.48-.49-.94-.74-1.41s-.45-1-.7-1.51-.53-.94-.81-1.4l.49-.11.68-.14.42.49c.24.3.5.58.76.87.46.53.88,1.08,1.29,1.64a1.33,1.33,0,0,1,.14.19l1.23,1.65a14.71,14.71,0,0,1,.94,1.47c.25.49.46,1,.67,1.5a14,14,0,0,1,.66,2.21c.18.82.34,1.65.46,2.48s.11,1.81.12,2.71c0,.5,0,1,0,1.51s0,1-.08,1.49-.06,1-.07,1.51,0,1,0,1.48-.11,1-.18,1.52-.1.85-.15,1.28a30.13,30.13,0,0,1-.67,3c-.25,1-.48,2-.78,3s-.64,2-1,3c-.15.46-.34.92-.52,1.37s-.4,1-.61,1.49-.57,1.27-.88,1.89a18.24,18.24,0,0,1-1.06,1.94c-.73,1.12-1.52,2.2-2.3,3.28l-1.93,1.6m10.12-11.38c-.45.8-.9,1.61-1.4,2.38s-1,1.51-1.56,2.25l0,0c.4-.88.78-1.77,1.14-2.68.22-.55.44-1.11.65-1.67s.36-1.08.53-1.62.36-1.05.52-1.57.35-1.18.51-1.77c.31-1.13.63-2.25.91-3.39.13-.54.21-1.09.29-1.64s.18-1.16.26-1.74.12-1.26.16-1.9.09-1.26.17-1.9.12-1.07.16-1.6.06-1.21.09-1.82,0-1.14,0-1.71a13.39,13.39,0,0,0-.14-1.9,19.08,19.08,0,0,0-.67-3.28c-.2-.63-.45-1.24-.7-1.84a9.33,9.33,0,0,0-.77-1.51c-.38-.61-.81-1.19-1.24-1.77-.61-.84-1.21-1.69-1.86-2.5-.18-.23-.37-.45-.56-.68h.07l.23.17c.4.29.83.54,1.25.79a22.26,22.26,0,0,1,2.32,1.48,14.45,14.45,0,0,1,2.21,2.35,14,14,0,0,1,1.1,1.86c.29.6.57,1.22.83,1.84s.48,1.49.73,2.23c.13.4.25.81.36,1.22a7.32,7.32,0,0,1,.19,1c.06.69.08,1.37.08,2.05,0,.38,0,.76,0,1.14s0,.53-.09.79c-.28,1.79-.77,3.54-1.19,5.29-.23.94-.46,1.86-.73,2.79s-.53,1.68-.83,2.51c-.2.48-.38,1-.57,1.45-.33.78-.69,1.53-1.07,2.28s-.87,1.71-1.34,2.55m6.62-27.62c.34.45.67.91,1,1.4.16.27.33.54.48.83s.2.42.29.63a12.65,12.65,0,0,1,.54,1.57c.14.57.25,1.14.34,1.72,0,.4.07.79.09,1.19a8.86,8.86,0,0,1-.07,1.36c-.05.35-.11.71-.16,1.07a11,11,0,0,1-.55,2.1c-.46,1-1.05,2-1.58,2.95-.13.25-.27.49-.41.72l.15-.59c.28-1.13.62-2.24.83-3.38a12.8,12.8,0,0,0,.29-1.94c0-.62.06-1.24.06-1.87a14.64,14.64,0,0,0-.08-1.75,13.82,13.82,0,0,0-.36-1.92c-.14-.57-.29-1.13-.41-1.71a13.38,13.38,0,0,0-.48-1.64c-.18-.49-.35-1-.55-1.46l.61.72m-6.28-30.14c.13.36.29.71.41,1.07s.27.8.41,1.2.25.89.33,1.35.13.66.19,1a12.74,12.74,0,0,1,.18,1.95,11,11,0,0,1-.09,1.52l-.12,1c0,.25-.1.5-.14.75s-.13.68-.22,1a13.56,13.56,0,0,1-.51,1.52c-.1.23-.21.46-.32.7s-.29.55-.44.81c-.6.91-1.21,1.8-1.89,2.65-.39.48-.79,1-1.19,1.43s-1,1.19-1.54,1.76c-.26.25-.53.5-.82.73l-.12.1c.32-.39.62-.8.93-1.2.73-.94,1.45-1.89,2.09-2.9a12.63,12.63,0,0,0,.74-1.47c.27-.57.53-1.15.74-1.74a23.26,23.26,0,0,0,1-3.24,16.2,16.2,0,0,0,.29-1.83,10.27,10.27,0,0,0,.09-1.66c0-.55-.07-1.09-.11-1.63s-.06-1.09-.12-1.64c-.13-1.12-.25-2.25-.47-3.36-.16-.79-.35-1.57-.55-2.34.1.17.21.34.31.52a17.41,17.41,0,0,1,.95,1.94M640.28,99.1c.5.24,1,.5,1.47.76a13,13,0,0,1,2.12,1.56l.45.47c.12.12.23.25.34.37a2.18,2.18,0,0,0,.09.23l.06.14a43.21,43.21,0,0,1,2.18,6.63c.28,1.14.5,2.29.75,3.43s.48,2.37.78,3.55l.6,2.37c.2.79.41,1.57.6,2.36.35,1.5.65,3,.89,4.54.11.91.2,1.83.23,2.75a17.28,17.28,0,0,1-.09,2.49,10,10,0,0,1-.31,1.42c-.13.47-.3.92-.47,1.38a21.79,21.79,0,0,1-1.26,2.39,28.37,28.37,0,0,1-1.67,2.39c-.58.75-1.18,1.48-1.7,2.27s-1,1.62-1.53,2.42c-.25.39-.52.78-.76,1.19s-.44.8-.67,1.2a22.31,22.31,0,0,1-1.29,2l-.16.2c-.73.16-1.46.29-2.2.4a5,5,0,0,0,.33-.47c.29-.45.56-.93.83-1.4,1.1-1.91,1.72-4,2.77-6,.56-1,1.22-2,1.87-3a25,25,0,0,0,1.75-2.75,22.07,22.07,0,0,0,1.28-3.3,14.29,14.29,0,0,0,.4-1.69c.1-.64.16-1.27.2-1.91A16.57,16.57,0,0,0,648,124c-.17-1.14-.45-2.26-.71-3.38-.53-2.23-1.08-4.44-1.65-6.66q-.42-1.62-.87-3.24c-.3-1.15-.6-2.31-.92-3.45-.15-.55-.36-1.07-.55-1.6s-.41-1-.62-1.54-.47-1.12-.74-1.67a10.58,10.58,0,0,0-.89-1.52,14.67,14.67,0,0,0-1.41-1.72c-.21-.22-.42-.43-.64-.64l.53.22.78.35m-8.39-2.35.94.13s0,0,0,0a1,1,0,0,0,.55.42c.27.09.53.2.79.3.52.25,1,.5,1.56.77a11.62,11.62,0,0,1,1.25.81,16.88,16.88,0,0,1,2.12,2.19c.23.32.45.64.65,1a12,12,0,0,1,.58,1.13c.43,1,.82,2,1.19,3s.63,2.16.91,3.24c.57,2.23,1.18,4.44,1.75,6.66.36,1.37.71,2.74,1,4.12s.66,2.67.88,4c.07.66.1,1.31.11,2a13.61,13.61,0,0,1-.12,1.8,12.18,12.18,0,0,1-.44,2c-.19.59-.41,1.17-.64,1.75a15.43,15.43,0,0,1-1.57,2.77c-.69.95-1.38,1.9-2,2.87a20.32,20.32,0,0,0-1.68,3c-.46,1-.88,2-1.37,2.95-.27.54-.55,1.05-.86,1.57s-.59,1-.93,1.47-.65.76-1,1.12-.47.48-.72.71l-.77.12c-.5.09-1,.2-1.48.31l-1.21.29c.34-.4.65-.82,1-1.22s.65-.83,1-1.26.54-.74.78-1.13.46-.78.66-1.19.38-.85.56-1.29c.35-.82.7-1.64,1-2.48s.59-1.65.9-2.48a24,24,0,0,1,1.55-2.82,26.43,26.43,0,0,0,1.72-3.07,12.64,12.64,0,0,0,.65-1.78c.15-.53.27-1.08.38-1.62.24-1.18.47-2.35.6-3.55.06-.58.07-1.17.08-1.76a12.17,12.17,0,0,0-.09-1.71,22.9,22.9,0,0,0-.77-3.66c-.33-1.11-.73-2.19-1.11-3.28s-.81-2.29-1.22-3.43-.85-2.26-1.32-3.38c-.24-.57-.5-1.15-.79-1.7s-.6-1.07-.91-1.59a28.87,28.87,0,0,0-1.84-2.81c-.39-.52-.79-1-1.21-1.53a17.17,17.17,0,0,0-1.19-1.37c-.5-.49-1-.94-1.57-1.38a17.3,17.3,0,0,0-1.77-1.32l-.14-.08h0c1.18.16,2.36.25,3.53.41m-10.17-1.12,1.14.09a1,1,0,0,0,.54.4l1.39.51c.67.29,1.34.59,2,.94a15.43,15.43,0,0,1,1.75,1.14,23.65,23.65,0,0,1,2.09,1.78,21.62,21.62,0,0,1,1.75,2.06,35.48,35.48,0,0,1,2,3c.31.52.61,1,.9,1.57s.49,1,.71,1.47c.87,2.11,1.63,4.26,2.36,6.42.38,1.09.76,2.19,1.11,3.3a24.11,24.11,0,0,1,.72,3.16,15.07,15.07,0,0,1,.11,1.91c0,.64,0,1.29-.11,1.93-.14,1-.36,1.94-.57,2.9-.11.5-.23,1-.36,1.48a13.3,13.3,0,0,1-.46,1.39,41.62,41.62,0,0,1-2.49,4.29c-.22.37-.45.73-.66,1.1a8.08,8.08,0,0,0-.51,1.07c-.33.81-.64,1.63-1,2.45s-.69,1.54-1,2.31a13.09,13.09,0,0,1-1.32,2.26c-.51.66-1,1.29-1.58,1.93a15.7,15.7,0,0,1-1.8,1.93,16.49,16.49,0,0,0-1.62,1.39c-.27.26-.54.52-.82.77l-.33.29a.86.86,0,0,0-.32,0l-1.25.3c.44-.59.87-1.19,1.3-1.79l.94-1.32c.34-.45.68-.91,1-1.37.65-1,1.36-1.85,2-2.82s1.28-2,1.85-3,1-2,1.5-3c.24-.5.45-1,.69-1.49s.52-1,.77-1.56c.54-1.1,1-2.21,1.5-3.34.21-.51.41-1,.57-1.55s.28-1,.4-1.57a15.58,15.58,0,0,0,.28-1.92q.07-.81.12-1.62c0-.57,0-1.14,0-1.72s-.07-1.12-.13-1.69c-.12-1.21-.27-2.42-.48-3.63a31.65,31.65,0,0,0-.82-3.43,27.14,27.14,0,0,0-1.12-3.13,20.93,20.93,0,0,0-1.63-3.2,34.53,34.53,0,0,0-2.11-2.86,26.06,26.06,0,0,0-1.83-2.09c-.65-.64-1.33-1.23-2-1.82a26,26,0,0,0-2.26-1.78c-.77-.53-1.56-1-2.31-1.56l-.9-.68-.22-.17-.07,0-.11-.08a16.22,16.22,0,0,0-1.65-1.09l-.93-.55h.12c1.06.12,2.13.23,3.2.32m-13.24-2c.63.16,1.27.31,1.91.45l2.51,2.68c.79.83,1.56,1.68,2.34,2.52s1.61,1.7,2.44,2.54,1.58,1.53,2.34,2.33,1.26,1.4,1.86,2.13a22.87,22.87,0,0,1,2.6,4.43,32.14,32.14,0,0,1,1.16,3.34,30.45,30.45,0,0,1,.74,3.41c0,.3.06.6.09.91s0,.71,0,1.06a17.51,17.51,0,0,1-.15,2.05c-.17,1.11-.39,2.22-.62,3.32s-.48,2.24-.78,3.35c-.6,2.22-1.11,4.46-1.63,6.7-.19.83-.41,1.66-.6,2.49s-.4,1.78-.61,2.67-.41,1.78-.66,2.66a22,22,0,0,1-.84,2.44,19.21,19.21,0,0,1-.9,1.89c-.38.7-.79,1.39-1.18,2.08l-1.21,2.16a19.16,19.16,0,0,1-1,1.68l-.54.11c.09-.23.17-.46.25-.69.32-1,.69-2,1-3s.57-2.24.87-3.35c.15-.55.31-1.11.44-1.67s.24-1.17.35-1.75c.21-1.17.39-2.33.58-3.5s.34-2.49.45-3.75.06-2.32.06-3.48,0-2.48,0-3.73.09-2.36.17-3.54.12-2.32.14-3.47,0-2.36-.1-3.53c-.05-.62-.14-1.24-.24-1.85s-.22-1.29-.35-1.93a23,23,0,0,0-.88-3.28c-.23-.64-.46-1.27-.74-1.88A11.06,11.06,0,0,0,617,107a30.67,30.67,0,0,0-2.16-3c-.71-.9-1.47-1.77-2.25-2.61s-1.63-1.67-2.47-2.48-1.73-1.74-2.53-2.68-1.43-1.8-2.19-2.65c-.34-.38-.68-.76-1-1.12l.86.25c1.08.32,2.18.6,3.28.86M596,90.69a8.42,8.42,0,0,1,1.33.1c.59.09,1.16.22,1.74.35l1.14.26,1,.68c.42.34.85.68,1.25,1.06a14.39,14.39,0,0,1,1.24,1.23c.82.92,1.57,1.88,2.34,2.83a34.44,34.44,0,0,0,2.36,2.62c.84.84,1.68,1.68,2.5,2.55s1.35,1.52,2,2.31,1,1.34,1.49,2c.25.38.49.76.71,1.15s.4.74.57,1.12a26.14,26.14,0,0,1,1.07,3.24,30.78,30.78,0,0,1,.63,3.29,24.88,24.88,0,0,1,.25,3.33c0,1.21-.05,2.41-.11,3.62s-.16,2.3-.25,3.45-.11,2.35-.14,3.53,0,2.49,0,3.73c0,.57,0,1.13,0,1.69s-.11,1.2-.17,1.79c-.14,1.07-.32,2.12-.5,3.18s-.39,2.29-.64,3.42-.59,2.28-.87,3.42-.53,2.09-.86,3.12c-.17.51-.34,1-.49,1.54s-.23.75-.37,1.12a4.78,4.78,0,0,1-.44.8,2.31,2.31,0,0,0-.27.42l0,.07-.45.1.06-.51c.14-1.11.3-2.21.45-3.31s.33-2.24.5-3.37c.2-1.31.33-2.62.48-3.94a89.72,89.72,0,0,0,.42-13.81c-.09-2.09-.11-4.17-.21-6.26s-.17-3.94-.45-5.89l0-.15c0-.13,0-.26,0-.4a.28.28,0,0,1,0-.09,8.36,8.36,0,0,0-.14-.85c-.05-.28-.11-.57-.16-.85a24.74,24.74,0,0,0-1-3.46c-.21-.59-.44-1.18-.7-1.75s-.52-1.08-.81-1.61a23.36,23.36,0,0,0-1.82-2.95c-.76-1-1.57-2-2.4-3a33.58,33.58,0,0,0-2.45-2.47c-.85-.8-1.73-1.56-2.59-2.36s-1.7-1.6-2.6-2.34a32.09,32.09,0,0,0-3.22-2.2c-.47-.29-.94-.57-1.43-.84l-.54-.29.26-.08a12.09,12.09,0,0,1,2.53-.38m17.09,25.77v0h0l0-.22,0,.24M593.67,97.19c-.37-.37-.74-.73-1.13-1.08s-.74-.62-1.11-.93c-.75-.6-1.52-1.19-2.29-1.76L588.5,93c.58-.21,1.15-.44,1.71-.67l.7-.29.06,0c.56.24,1.12.49,1.66.78s1,.59,1.56.9c.92.55,1.81,1.14,2.68,1.75,1.47,1.15,2.8,2.48,4.16,3.75.74.68,1.46,1.35,2.17,2.06.36.35.71.72,1,1.09s.62.71.92,1.08.73.94,1.08,1.42.73,1,1,1.53c.62,1.07,1.18,2.17,1.69,3.29a27.87,27.87,0,0,1,1.62,5.93c0,.37.09.74.13,1.11a1.49,1.49,0,0,0,0,.21c.07.65.13,1.31.16,2,.06,1.17.07,2.34.11,3.5s.06,2.4.07,3.6,0,2.35.08,3.52q.11,3.48,0,7c0,1.12-.13,2.24-.2,3.35s-.22,2.34-.35,3.5c-.05.48-.1.95-.16,1.42-.11.89-.26,1.76-.4,2.64s-.27,2-.4,3-.25,2-.35,3c0,.38-.07.75-.11,1.12l-4.25,1.09-.08,0c.06-.34.12-.69.19-1,.23-1.13.39-2.26.53-3.41s.23-2.08.34-3.13a28.52,28.52,0,0,0,.23-3.2c0-2.25-.31-4.5-.51-6.74s-.15-4.42-.23-6.62c0-1.15-.1-2.29-.18-3.44s-.16-2.35-.34-3.51-.42-2.21-.66-3.31-.55-2.17-.85-3.24c-.23-.8-.47-1.6-.66-2.41s-.44-1.78-.67-2.67-.45-1.72-.74-2.56-.68-1.67-1-2.49l-.21-.49a41.42,41.42,0,0,0-2.15-4.26c-.37-.65-.81-1.27-1.22-1.89s-.94-1.48-1.39-2.24a.86.86,0,0,0-.28-.29c-.13-.17-.27-.34-.41-.5-.3-.34-.62-.68-.94-1m-2.76,3.49c.72.16,1.44.31,2.17.41a7.62,7.62,0,0,0,1,0,3.25,3.25,0,0,0,.44,0c.18.3.37.59.56.89.42.65.85,1.3,1.25,2s.72,1.28,1.05,1.94.63,1.28.92,1.93.42,1,.62,1.51.41,1,.57,1.54c.34,1.11.6,2.24.85,3.38s.49,2.23.78,3.34.56,2.12.81,3.18c.31,1.29.57,2.6.79,3.91.13,1.07.19,2.15.26,3.22s.12,2.19.14,3.28c0,2.24,0,4.48.15,6.71.07,1.14.19,2.27.28,3.41q.07.81.12,1.62c0,.53.06,1.06.06,1.59a56.32,56.32,0,0,1-.56,6.34l0,.21c-.13,1-.28,2-.46,3-.1.51-.19,1-.26,1.54,0,.24-.07.47-.11.71l-2.25.58c0-.43,0-.86,0-1.28,0-1.05,0-2.09-.08-3.14-.08-2.1-.05-4.21-.09-6.31a58.55,58.55,0,0,1,.19-6.49c.1-1.08.2-2.17.24-3.25a27.22,27.22,0,0,0-.14-3.13c-.11-1.19-.26-2.37-.43-3.55,0,.11,0,.21,0,.31-.24-1.7-.42-3.42-.67-5.12-.12-.87-.23-1.75-.34-2.63s-.27-1.83-.41-2.75c-.16-1.11-.29-2.22-.52-3.31a21,21,0,0,0-.85-3.13,30.08,30.08,0,0,0-1.43-3.24c-.49-1-1.06-1.88-1.63-2.81a24.54,24.54,0,0,0-2-2.79c-.68-.84-1.42-1.62-2.17-2.39s-1.43-1.45-2.2-2.12l-.23-.19a26.46,26.46,0,0,0,3.57,1.14M569.44,96l.72-.18c.34-.08.68-.12,1-.17s.56-.07.84-.09c.85.41,1.68.84,2.5,1.3a24,24,0,0,1,4.51,3.31c.69.65,1.34,1.34,2,2,1.2,1.35,2.32,2.78,3.44,4.19l-.07-.09.07.1a.39.39,0,0,1,.08.1l-.07-.09a30.12,30.12,0,0,1,4.09,6.57,37.27,37.27,0,0,1,1.36,3.65,34.09,34.09,0,0,1,1,3.86,46.9,46.9,0,0,1,0,6.6c-.06,1.15-.11,2.29-.19,3.43s-.17,2.27-.17,3.41a54.59,54.59,0,0,0,.48,6.76,59,59,0,0,1,.5,6.76c0,2-.09,4,.07,6.08.09,1.11.24,2.21.42,3.31.07.46.15.93.24,1.39l.12.64-1.41.41-1.78.54c-.12-.52-.28-1-.4-1.53q-.31-1.25-.54-2.52c-.3-1.7-.59-3.4-.84-5.11-.15-1-.27-2.09-.36-3.14s-.19-2.23-.29-3.34-.18-2.28-.26-3.41-.11-2.25-.14-3.37c-.06-2.36-.05-4.71-.07-7.07,0-1.17,0-2.34,0-3.5s0-2.25-.11-3.36a38.06,38.06,0,0,0-.41-3.85c-.08-.54-.2-1.07-.32-1.6s-.27-1.21-.42-1.8-.33-1.19-.52-1.77-.41-1-.63-1.57a17.52,17.52,0,0,0-1.76-3.24l-1-1.32c-.39-.51-.77-1-1.18-1.53s-.77-.93-1.19-1.36-.82-.83-1.24-1.23l-1.34-1.31c-.4-.38-.79-.78-1.21-1.15a22.69,22.69,0,0,0-2.9-2.25c-.92-.59-1.87-1.14-2.81-1.71-.62-.36-1.24-.71-1.87-1l.6-.24q.75-.27,1.5-.51m-5.72,2.13c.5-.17,1-.36,1.49-.55,1.26.62,2.47,1.3,3.67,2l1.74,1c.54.33,1.07.7,1.59,1.08a19.89,19.89,0,0,1,1.56,1.33l1.67,1.64c.58.57,1.15,1.14,1.71,1.72a20.84,20.84,0,0,1,1.37,1.59c.57.78,1.14,1.57,1.68,2.37a18.15,18.15,0,0,1,1.37,2.48c.21.49.42,1,.6,1.49s.41,1.31.57,2c.3,1.22.52,2.46.71,3.7a62.51,62.51,0,0,1,.31,6.84q0,3.54,0,7.07c0,1.17,0,2.34,0,3.51s0,2.24.1,3.36c.13,2.26.3,4.5.47,6.75a62.49,62.49,0,0,0,1,7.06c.21,1.07.41,2.14.66,3.2s.48,1.87.77,2.79l-1.71.59c-.06-.2-.11-.4-.17-.6-.14-.48-.25-1-.34-1.44-.2-1-.39-2-.59-3s-.44-2-.71-3-.49-2.1-.72-3.16c-.33-1.53-.63-3.06-.85-4.61a99,99,0,0,1-.61-12.76c0-.56,0-1.11,0-1.66s0-1.05-.07-1.57,0-1.12-.05-1.67-.07-1.06-.12-1.59c-.12-1.09-.21-2.19-.38-3.28-.08-.55-.17-1.1-.26-1.66s-.17-1-.31-1.55-.32-1-.5-1.44-.44-1.12-.67-1.68a21.09,21.09,0,0,0-1.45-2.79c-.56-.93-1.11-1.89-1.76-2.78s-1.45-1.89-2.18-2.83a18.34,18.34,0,0,0-2.07-2.33c-.82-.76-1.69-1.47-2.56-2.19s-1.77-1.44-2.72-2.08c-.43-.29-.89-.54-1.34-.8s-.92-.53-1.39-.77l-.47-.24c-.58-.29-1.17-.56-1.77-.8a27.93,27.93,0,0,0,2.74-.82m-11,1.46c.8,0,1.6,0,2.4,0s1.46,0,2.2,0l.23,0,1.4.43c.57.17,1.12.36,1.66.58,1,.45,1.9.94,2.82,1.47.45.26.9.53,1.34.82s.9.61,1.34.94c.66.54,1.32,1.08,2,1.64l1,.85c.34.3.7.6,1,.93s.67.7,1,1.06.58.72.86,1.09l1.57,2c.36.49.71,1,1,1.5s.73,1.18,1.09,1.77.61,1,.87,1.54.52,1.12.76,1.69a25.57,25.57,0,0,1,.93,2.67,4.94,4.94,0,0,1,.12.65c0,.28.09.55.13.83.07.45.14.9.2,1.36.12,1,.2,2,.28,3,0,.56.08,1.12.09,1.69s0,1,0,1.5,0,1.19,0,1.78,0,1.07,0,1.6c0,1.06,0,2.11-.06,3.17s0,2.11,0,3.16.07,2.17.14,3.25a54.08,54.08,0,0,0,.82,6.6c.2,1,.42,2.1.64,3.15s.48,2,.72,3,.39,2,.57,3,.31,2,.58,2.95c0,.18.11.35.17.53-1.14.36-2.26.73-3.39,1.12-.25-.9-.5-1.81-.74-2.72-.17-.64-.33-1.28-.48-1.93a17.22,17.22,0,0,1-.31-1.77c-.13-1-.23-2-.3-3s-.19-2.21-.29-3.31c-.21-2.24-.28-4.5-.41-6.75,0-.59-.08-1.17-.15-1.75s-.18-1.28-.27-1.92c-.13-1.05-.24-2.11-.36-3.16s-.22-2.33-.38-3.49-.35-2.28-.54-3.42a26.39,26.39,0,0,0-.75-3.28,31,31,0,0,0-1.13-3.28c-.45-1-1-2.06-1.47-3.08s-1-1.91-1.61-2.85-1.21-2-1.87-3-1.36-2-2.12-2.87a33,33,0,0,0-2.36-2.52c-.81-.81-1.64-1.58-2.5-2.34s-1.56-1.42-2.38-2.08-1.42-1.14-2.13-1.71-1.55-1.29-2.36-1.89a18.59,18.59,0,0,0-1.86-1.15h.25m-4.53.16.9-.08c.35.16.7.32,1,.5s.8.43,1.19.66l1.36.8c.41.25.8.53,1.18.81.84.68,1.67,1.38,2.51,2.05s1.7,1.4,2.52,2.13,1.68,1.48,2.49,2.25,1.66,1.61,2.45,2.46c.57.61,1.1,1.26,1.62,1.92.61.86,1.22,1.72,1.8,2.6s1.1,1.78,1.63,2.69,1,1.81,1.48,2.75.79,1.67,1.15,2.52a35.32,35.32,0,0,1,1.15,3.66,32.31,32.31,0,0,1,.66,3.64c.14,1.09.3,2.17.38,3.27s.15,2.23.23,3.34.2,2.2.32,3.3.16,2.17.19,3.26c0,2.24.12,4.48.3,6.72s.25,4.46.57,6.66a32.29,32.29,0,0,0,.77,3.51c.15.55.29,1.1.45,1.65l.25.88c-.92.32-1.84.63-2.77.92-.49-1.4-1-2.82-1.31-4.27-.2-.84-.37-1.69-.55-2.53s-.33-1.68-.46-2.52c-.12-1-.21-2-.27-3s-.1-2.24-.18-3.35-.16-2.32-.22-3.48-.16-2.18-.3-3.27-.37-2.1-.53-3.16-.3-1.89-.44-2.84c-.06-.48-.12-.95-.2-1.43s-.15-.85-.22-1.27c-.16-.91-.28-1.82-.5-2.72-.1-.4-.23-.8-.34-1.19s-.29-.95-.44-1.42c-.29-.91-.66-1.78-1-2.65-.42-1-.84-2.07-1.34-3.06s-1-2-1.53-3-1.15-2-1.8-2.94a28.73,28.73,0,0,0-2.15-2.88c-1-1.1-2-2.16-3-3.18a38.84,38.84,0,0,0-3.37-2.91l.17.13-.31-.25h0l-.14-.11-.22-.17L551.9,106a1.09,1.09,0,0,0,.17.13c-.75-.58-1.49-1.16-2.25-1.72s-1.56-1-2.35-1.54a30.24,30.24,0,0,0-3.07-1.78c-.21-.11-.42-.2-.63-.3.59-.19,1.19-.38,1.79-.55a19.67,19.67,0,0,1,2.63-.5m-6.78,1.94.23-.1a.7.7,0,0,0,.24.13l.65.24a29.6,29.6,0,0,1,3.83,2.09l2,1.31c.62.41,1.21.86,1.8,1.32l2.51,2a.79.79,0,0,0,.17.14c.8.65,1.58,1.3,2.34,2s1.57,1.51,2.31,2.3c.39.41.78.82,1.16,1.24s.7.8,1,1.21a38.65,38.65,0,0,1,2.92,4.48c.43.8.83,1.61,1.23,2.43s.73,1.51,1.06,2.28c.47,1.19,1,2.37,1.36,3.58.21.65.37,1.31.55,2a17.77,17.77,0,0,1,.43,1.92c.12.92.25,1.83.38,2.75.06.55.1,1.11.15,1.66s.12,1,.16,1.57.08,1,.14,1.58.14,1.1.19,1.65c.1,1.09.17,2.17.18,3.26s.07,2.27.13,3.41c.12,2.21.18,4.42.4,6.62.13,1.18.33,2.34.57,3.5s.42,2.06.69,3.07c.14.55.3,1.09.48,1.63s.41,1.08.64,1.61c.1.25.19.51.29.76-1.3.33-2.6.65-3.91,1-.2-.6-.35-1.22-.5-1.83-.22-.88-.47-1.77-.68-2.66s-.4-1.79-.57-2.69-.36-1.88-.51-2.82-.17-2.07-.2-3.1a15.34,15.34,0,0,1,0-1.66c0-.56.08-1.13.11-1.69.06-1.05.08-2.11.08-3.17s-.07-2.23-.17-3.34-.21-2.28-.39-3.4-.4-2.2-.67-3.29a34.07,34.07,0,0,0-2.29-6.19c-.47-1-.91-2-1.44-3s-1.1-1.93-1.69-2.87-1.18-1.86-1.83-2.75-1.46-1.88-2.22-2.8-1.5-1.8-2.27-2.68-1.51-1.61-2.29-2.39-1.62-1.53-2.47-2.25S546,110.13,545,109.4a48.7,48.7,0,0,0-4.78-3.28c-.43-.25-.87-.49-1.31-.71l-1.12-.52c-.43-.18-.87-.37-1.31-.54.35-.21.69-.43,1-.63a36.41,36.41,0,0,1,3.87-2m-8.51,4.87,1.8-1.1c.3.09.59.18.88.29l1.11.43c.61.27,1.22.53,1.8.85s1.39.8,2.07,1.23,1.28.83,1.91,1.27,1.13.82,1.68,1.25c1.79,1.44,3.53,2.92,5.18,4.53a62,62,0,0,1,4.39,4.91c.57.69,1.13,1.38,1.68,2.08,1.13,1.55,2.12,3.17,3.1,4.82a25.24,25.24,0,0,1,1.29,2.54c.41.9.81,1.78,1.21,2.68a31.1,31.1,0,0,1,1.38,4,41.78,41.78,0,0,1,.83,4.27c.13,1.07.22,2.15.3,3.23s.11,2.24.09,3.36-.06,2.11-.15,3.17-.2,2.21-.19,3.33c0,.54,0,1.08,0,1.63s.06,1.1.11,1.65c.11,1.06.23,2.13.36,3.19s.33,2.24.58,3.35.43,2,.74,2.94c0,.13.08.25.13.38l-2.59.64c-.09-.31-.17-.61-.25-.92-.12-.47-.2-.94-.3-1.42s-.21-1-.3-1.5c-.39-2-.73-3.92-1-5.9-.12-1-.2-2.06-.25-3.09s-.12-2.18-.13-3.27c0-.54,0-1.08,0-1.61s-.12-1.16-.18-1.73c-.13-1.11-.22-2.22-.34-3.33a27,27,0,0,0-.57-3.47c-.26-1.1-.58-2.18-.92-3.26s-.69-2.1-1.07-3.14-.81-2.15-1.28-3.2c-.23-.52-.47-1-.73-1.53s-.58-1-.87-1.55c-.55-1-1.07-2-1.69-2.88-.31-.47-.61-.95-.95-1.4s-.77-1-1.16-1.52-.67-.86-1-1.28a13.15,13.15,0,0,0-1.16-1.2c-.51-.48-1-1-1.51-1.46s-1-1-1.42-1.55-.94-1-1.44-1.45-1.1-.91-1.66-1.34c-.84-.7-1.59-1.5-2.45-2.17s-1.81-1.33-2.71-2l-1.35-1a15.07,15.07,0,0,0-1.37-.87c-.84-.47-1.68-1-2.54-1.38.33-.18.65-.36,1-.56M527,109.93a11.91,11.91,0,0,1,1-.72c.7-.4,1.41-.76,2.12-1.12l.05,0c.79.37,1.58.77,2.34,1.2s1.46.8,2.14,1.28c1.36,1,2.7,2,4,3,.49.4,1,.83,1.41,1.26.23.21.44.43.68.62s.67.54,1,.8h0c.34.26.68.53,1,.82s.8.76,1.18,1.17c.73.77,1.42,1.58,2.17,2.33s1.6,1.46,2.3,2.29,1.24,1.56,1.85,2.36c.41.59.82,1.19,1.2,1.81s.72,1.23,1.07,1.86.7,1.22,1,1.85.62,1.28.91,1.94c.7,1.72,1.34,3.46,1.89,5.24.27.9.53,1.8.78,2.71s.41,1.8.56,2.71.21,2.08.28,3.12c0,.57.06,1.13.1,1.69s.08,1.18.09,1.77c0,1.07-.1,2.14-.1,3.22s0,2.14,0,3.2c0,.55,0,1.09.1,1.63s.16,1.3.25,2c.14,1,.3,2,.5,3.06s.41,2,.64,2.94c.12.51.24,1,.39,1.52.06.23.14.45.22.68l-1.49.37-1.58.39-.09-.32c-.16-.49-.3-1-.46-1.46l-.48-1.49c-.16-.51-.29-1-.43-1.55-.53-2-1-4.07-1.32-6.13-.12-.72-.23-1.44-.34-2.15s-.21-1.36-.31-2c-.13-1-.21-2-.29-3.06s-.12-2.06-.23-3.08c-.13-1.18-.32-2.35-.5-3.53a26.91,26.91,0,0,0-.69-3.18c-.3-1.08-.7-2.13-1.09-3.17s-.89-2.11-1.37-3.14a42,42,0,0,0-3-5.8c-1.25-1.85-2.46-3.74-3.86-5.48-.72-.89-1.44-1.77-2.19-2.62s-1.48-1.61-2.26-2.38c-.52-.52-1.06-1-1.61-1.51s-1.14-1-1.72-1.41h0l-.16-.13.1.08c-.66-.51-1.36-1-2.05-1.43a23.78,23.78,0,0,0-2.14-1.33l-.68-.34a14.24,14.24,0,0,0-1.75-.76c-.42-.15-.83-.28-1.26-.4a5.73,5.73,0,0,0-.7-.13l-.27,0c.06-.07.12-.15.19-.22.26-.25.54-.5.83-.73m-8.5,8c1,.15,2,.37,2.94.61s2.07.59,3.1.89L526,120c.87.33,1.77.56,2.64.91a7.49,7.49,0,0,1,.9.44,9.28,9.28,0,0,1,.83.56c.53.43,1,.9,1.51,1.38s1,1,1.51,1.57q1.5,1.65,2.87,3.39c.53.71,1.06,1.42,1.58,2.15s1.11,1.67,1.67,2.51,1.08,1.59,1.6,2.4a24.38,24.38,0,0,1,1.42,2.55c.27.56.56,1.11.84,1.66s.55,1.14.8,1.71a27.55,27.55,0,0,1,1.63,5.4c.17.94.29,1.89.44,2.83l.45,2.86c.16,1,.31,2,.48,3s.39,1.94.6,2.91a51.08,51.08,0,0,0,1.46,5.56c.19.58.39,1.17.63,1.73s.49,1.13.73,1.7.5,1.33.74,2c.13.35.27.68.43,1l-.87.2-2.13.53c-.22-.56-.48-1.11-.69-1.67-.34-.9-.63-1.82-.89-2.74-.56-2-1.16-3.93-1.61-5.93-.22-1-.47-2-.7-3l-.72-3.07c-.23-1-.48-2-.72-3s-.49-2-.8-3-.6-1.86-.95-2.77c-.41-1.06-.83-2.12-1.32-3.15-.85-1.82-1.81-3.6-2.79-5.35-.5-.89-1-1.78-1.53-2.66s-1.1-1.77-1.67-2.65-1.12-1.63-1.7-2.44-1.25-1.67-1.91-2.49a29.56,29.56,0,0,0-2.07-2.41,28.23,28.23,0,0,0-2.28-2.09,19.9,19.9,0,0,0-3.84-2.36l-1.44-.7-1.2-.56c-.39-.17-.79-.32-1.19-.47s-1.08-.4-1.62-.58c.46,0,.93.09,1.39.16M507.7,120a20.15,20.15,0,0,1,2.05-1c.59-.24,1.19-.45,1.8-.65.5,0,1,0,1.51.06a24,24,0,0,1,4.93,1.33c.53.2,1,.41,1.56.65s1.11.53,1.65.8a32,32,0,0,1,3.19,1.77,19.65,19.65,0,0,1,2,1.71,27.14,27.14,0,0,1,1.94,2.08c.62.77,1.21,1.55,1.8,2.34s1.13,1.62,1.69,2.43,1.13,1.75,1.67,2.64,1.06,1.78,1.56,2.69c1.13,2.1,2.25,4.2,3.27,6.36a49.26,49.26,0,0,1,2,5.51c.31,1,.57,2.05.81,3.08s.45,1.94.67,2.91q.71,3.06,1.42,6.11c.24,1,.48,2,.76,3s.57,2,.87,3,.59,2,1,2.93c.21.54.46,1.07.71,1.6l.06.11-1.49.38h0l-.22,0c-.06-.13-.13-.27-.18-.41-.17-.4-.32-.8-.46-1.21-.3-.87-.52-1.76-.78-2.65s-.56-1.85-.88-2.77-.74-2-1.07-3-.6-1.85-.88-2.78-.58-2.05-.88-3.07-.54-2-.81-3-.58-1.95-.88-2.92-.68-2-1-2.93-.65-1.9-1-2.84-.81-2-1.27-3-.91-1.81-1.4-2.69-1-1.69-1.49-2.53a14.41,14.41,0,0,0-.85-1.34c-.3-.43-.61-.84-.93-1.26A28.2,28.2,0,0,0,528,131a27.44,27.44,0,0,0-2.23-2.08c-.71-.58-1.43-1.16-2.18-1.67a20.18,20.18,0,0,0-2.23-1.33l-.28-.14a48.76,48.76,0,0,0-4.72-2l.22.08-3.11-1.18a27.74,27.74,0,0,0-2.85-.9,18.48,18.48,0,0,0-3.13-.55c-.53,0-1.07,0-1.61,0,.61-.43,1.24-.85,1.86-1.25m-11.85,9.45c.48-.4,1-.78,1.44-1.17,1.47.44,2.95.87,4.39,1.4s2.77,1,4.16,1.54q.72.28,1.44.63c.51.24,1,.54,1.5.83.93.56,1.84,1.13,2.73,1.75a28.69,28.69,0,0,1,4.49,4.39c.36.44.72.87,1.06,1.31s.62.76.89,1.16.63,1,.91,1.47.54,1,.81,1.48c.51.93,1.05,1.84,1.54,2.79l1.52,3c.2.4.39.8.58,1.2.41.93.79,1.87,1.16,2.82s.7,2,1,3,.7,2,1.06,3,.79,2,1.21,3.05c.87,2.07,1.82,4.1,2.87,6.08a24.14,24.14,0,0,0,3.38,5l-3.9.85-.14-.22c-.22-.32-.43-.65-.64-1-.41-.64-.82-1.29-1.21-1.94s-.8-1.43-1.18-2.16-.74-1.44-1.09-2.17a51.71,51.71,0,0,1-2-5.37c-.32-.95-.63-1.89-.93-2.85s-.67-2-1-2.93c-.17-.46-.37-.91-.56-1.36s-.43-1-.67-1.51c-.45-.94-.92-1.86-1.4-2.78s-.95-1.83-1.5-2.69-1.16-1.68-1.76-2.51c-.31-.42-.61-.85-.94-1.25s-.72-.85-1.09-1.26c-.68-.77-1.39-1.52-2.14-2.22a37.59,37.59,0,0,0-5.06-3.92c-.89-.58-1.82-1.11-2.75-1.63s-1.66-.92-2.51-1.34l-.1-.05c-1-.48-1.95-.91-2.93-1.37s-1.84-.88-2.79-1.26a13.83,13.83,0,0,0-1.53-.53c.59-.41,1.14-.87,1.68-1.33M492.44,132a.93.93,0,0,0,.27.12c.39.1.78.2,1.16.32s.67.22,1,.33c.94.39,1.85.82,2.77,1.26s1.85.84,2.77,1.29a58.07,58.07,0,0,1,5.5,3.08c.39.25.77.51,1.15.78a33.77,33.77,0,0,1,3.43,2.77c.57.55,1.13,1.1,1.66,1.69s.89,1,1.33,1.54c.56.69,1.07,1.41,1.59,2.14a27.15,27.15,0,0,1,1.53,2.31c.47.83.92,1.68,1.35,2.53s.81,1.57,1.19,2.38.78,1.76,1.11,2.67.69,1.9,1,2.87.58,1.89.86,2.84.58,2,.88,2.94.58,1.82.95,2.7.89,2,1.36,2.94a31.9,31.9,0,0,0,2.46,4.13l-3,.58-.33-.66c-.25-.5-.48-1-.72-1.52-.41-.9-.79-1.81-1.19-2.72l-.63-1.38c-.2-.46-.39-.93-.58-1.4-.4-1-.76-1.95-1.16-2.91s-.89-2.06-1.36-3.09c-.06-.12-.11-.25-.17-.37,0,.09.08.18.13.27-.43-.94-.84-1.89-1.27-2.84s-1-2-1.52-3-1-1.82-1.46-2.72-1-1.86-1.64-2.76-1.09-1.75-1.67-2.6-1.15-1.62-1.75-2.41c-.35-.45-.72-.89-1.1-1.32s-.69-.78-1-1.16a23,23,0,0,0-2.28-2c-.89-.71-1.79-1.39-2.72-2.05a27,27,0,0,0-2.68-1.64c-.68-.37-1.38-.74-2.08-1.09l-.67-.33c-.9-.42-1.82-.78-2.73-1.18l-2.38-1.07c-.44-.2-.89-.4-1.35-.56l-.16,0,.31-.25a21.24,21.24,0,0,1,1.89-1.38M454,181.31l.2,0a7.58,7.58,0,0,1,1.56.32A15.56,15.56,0,0,1,458,183c.66.44,1.31.9,2,1.33l.46.29-.17,0c-1.72.21-3.44.47-5.13.84l-.33,0,0-.08-.07-.1s0,0,0,0-.12-.34-.19-.52-.12-.34-.17-.51a15.63,15.63,0,0,1-.43-3m1.95,7.46c-.08-.41-.15-.82-.26-1.22l0-.09,4.75-.78,1.23-.15.34,0-.19.24a21.75,21.75,0,0,1-3.65,3.46,8.21,8.21,0,0,1-1.17.63l-.17.06a9.11,9.11,0,0,1-.51-1,8.66,8.66,0,0,1-.34-1.13m2.26,3.63-.1-.08a9.16,9.16,0,0,0,.82-.43c.41-.26.8-.57,1.19-.87.62-.48,1.24-1,1.84-1.49.27-.24.55-.48.81-.74s.53-.56.78-.85c.52-.59,1-1.21,1.6-1.75a.52.52,0,0,0,.1-.11c.87-.11,1.73-.22,2.6-.31l.53-.06q-.33.48-.63,1c-.59.92-1.11,1.89-1.77,2.76a17,17,0,0,1-1.31,1.5,18.94,18.94,0,0,1-1.67,1.44,19.42,19.42,0,0,1-2.48,1.39l-.42-.23a14.52,14.52,0,0,1-1.89-1.13m4.14,2.35A14.5,14.5,0,0,0,464,193.7a19.78,19.78,0,0,0,2.49-2.16c.38-.39.74-.78,1.11-1.18s.65-.76,1-1.15c.71-.88,1.42-1.75,2.12-2.64l.66-.85.14-.15a1.08,1.08,0,0,0,.18-.24l2.43-.24.24,0-.07.09a21.13,21.13,0,0,0-1.62,2.55c-.48.87-1,1.72-1.52,2.56s-1.18,1.74-1.82,2.58a16.43,16.43,0,0,1-1.34,1.43c-.52.49-1.06.94-1.61,1.39-.31.22-.61.45-.92.66l-.05,0-1.21-.61c-.64-.32-1.25-.66-1.87-1m6.25,3.32c-.36-.2-.71-.41-1.07-.6l-.38-.2.81-.63c.43-.35.85-.72,1.26-1.1a19.46,19.46,0,0,0,2.25-2.55c.65-.85,1.25-1.73,1.85-2.62s1.14-1.78,1.75-2.64c.16-.24.33-.47.5-.7a15.75,15.75,0,0,1,1.12-1.19c.41-.39.84-.74,1.27-1.11h0l2.65-.24.28,0-.43.51c-.4.48-.8,1-1.19,1.47-.65.85-1.16,1.79-1.74,2.69s-1.21,1.78-1.85,2.64c-.35.48-.7.94-1.07,1.4-.77.93-1.57,1.83-2.37,2.73a24.62,24.62,0,0,1-2.78,2.62l-.86-.45m6.14,4.13-.33-.26a25.42,25.42,0,0,0,2.31-1.36c.49-.34,1-.68,1.43-1.05s.9-.77,1.33-1.17a65.43,65.43,0,0,0,4.63-4.79c.81-.93,1.54-1.95,2.3-2.92a44.43,44.43,0,0,1,3.16-3.42c.55-.54,1.1-1.08,1.68-1.59s1.13-.95,1.72-1.39c.37-.27.75-.54,1.13-.79a.91.91,0,0,0,.16-.11c.7,0,1.4-.12,2.1-.18l.34,0-.92.91q-.56.56-1.08,1.14c-.36.41-.74.82-1.11,1.22s-.71.8-1.07,1.19c-.74.81-1.49,1.59-2.22,2.41s-1.43,1.66-2.14,2.5-1.55,1.72-2.35,2.56-1.55,1.53-2.35,2.26-1.6,1.48-2.42,2.21c-.57.51-1.16,1-1.77,1.46-1.13.72-2.31,1.35-3.49,2-.34-.27-.69-.53-1-.79m5.63,4.38-.22-.17c.3-.1.61-.2.91-.32a15.75,15.75,0,0,0,1.75-.73,17.38,17.38,0,0,0,1.51-.87c.52-.34,1-.7,1.51-1.06,1.87-1.37,3.68-2.84,5.43-4.36a33.26,33.26,0,0,0,2.39-2.36c.78-.84,1.57-1.68,2.32-2.56.31-.35.6-.71.9-1.06l1.08-1.24c.7-.79,1.31-1.64,2-2.47.5-.61,1-1.22,1.47-1.85s.91-1.23,1.39-1.84a2.43,2.43,0,0,1-.2.25l.32-.4a1.47,1.47,0,0,1-.1.13,25.33,25.33,0,0,1,3.13-3.17l.45-.05c.93-.12,1.85-.28,2.77-.41l.62-.09c-.41.53-.8,1.06-1.2,1.6-.6.82-1.24,1.61-1.85,2.43s-1.13,1.49-1.71,2.22-1.39,1.68-2.1,2.51-1.48,1.76-2.23,2.63-1.43,1.73-2.19,2.56c-.38.42-.78.83-1.16,1.25l-1.19,1.32a21,21,0,0,1-2.94,2.63c-1.69,1.22-3.39,2.41-5.14,3.54-.88.57-1.76,1.13-2.66,1.68a13.8,13.8,0,0,1-1.37.73c-.55.26-1.12.48-1.69.7l-.08.05a17.64,17.64,0,0,1-1.87-1.22m4.31,2.39-.33-.14.6-.26a15.25,15.25,0,0,0,1.53-.85c.95-.57,1.88-1.17,2.81-1.77s1.9-1.24,2.84-1.89S494,202.71,495,202a15.35,15.35,0,0,0,1.23-1c.41-.37.81-.75,1.18-1.15l1.24-1.32c.39-.43.81-.84,1.21-1.26.77-.81,1.49-1.67,2.25-2.48s1.52-1.68,2.28-2.51,1.34-1.46,2-2.21,1.28-1.51,1.91-2.28,1.35-1.61,2-2.43,1.16-1.52,1.75-2.28c.26-.31.51-.63.79-.92l1-1,.17,0c1-.14,2-.26,3.07-.38-.28.4-.55.8-.81,1.21s-.58,1-.87,1.47c-1.16,1.94-2.4,3.84-3.68,5.7s-2.47,3.36-3.75,5c-.62.77-1.27,1.52-1.95,2.24-.37.39-.75.77-1.12,1.15s-.73.74-1.11,1.09c-.8.76-1.63,1.47-2.46,2.2L500,202c-.37.31-.75.59-1.12.88s-.75.54-1.14.78-1,.6-1.49.9c-.89.51-1.79,1-2.67,1.55s-1.79,1.13-2.73,1.62-1.88.95-2.85,1.36l-1,.36a1.11,1.11,0,0,0-.41.24c-.66-.21-1.31-.43-1.95-.68m4.65,1.4c.56-.23,1.11-.49,1.65-.76,1.07-.53,2.1-1.12,3.12-1.75s2-1.17,3-1.76c.51-.3,1-.59,1.53-.92s1.06-.72,1.57-1.11c.93-.71,1.81-1.48,2.69-2.24s1.82-1.58,2.7-2.41,1.66-1.58,2.44-2.41,1.58-1.8,2.34-2.72,1.61-1.95,2.39-2.93,1.41-1.84,2.1-2.77,1.33-1.8,2-2.72,1.29-2,1.94-2.93c.43-.63.88-1.26,1.35-1.87.17-.2.35-.4.53-.59l.26-.28,2.07-.41,1.29-.26c-.45.58-.89,1.16-1.31,1.76-.63.91-1.22,1.83-1.85,2.73s-1.37,1.89-2.08,2.81c-.88,1.15-1.73,2.33-2.61,3.48-.63.77-1.26,1.55-1.86,2.34s-1.15,1.53-1.74,2.28-1.42,1.69-2.14,2.52-1.67,1.8-2.55,2.67c-1.65,1.63-3.29,3.29-5.1,4.76-.63.52-1.28,1-1.93,1.51l0,0-.07.05-.09.07-.35.26a.71.71,0,0,0-.14.1c-.88.6-1.78,1.16-2.69,1.71l-1.54.91a15.13,15.13,0,0,1-1.57.76,7.58,7.58,0,0,1-.8.28c-.45.13-.89.26-1.35.37a.88.88,0,0,0-.32.16c-.65-.15-1.29-.32-1.94-.49l-.89-.23m12.32-2.16-.07.06h0l.06,0M496,211.75l-.21,0,.22-.1a21.58,21.58,0,0,0,2.49-1.38c.75-.44,1.51-.88,2.22-1.38l.65-.44.21-.15.4-.3.22-.16.28-.21.74-.57,1.41-1.13c1.84-1.54,3.53-3.23,5.27-4.88.83-.8,1.62-1.62,2.39-2.48s1.58-1.74,2.34-2.64,1.47-1.8,2.23-2.68,1.52-1.7,2.25-2.58c1.53-1.87,3.1-3.71,4.53-5.65.66-.9,1.28-1.83,1.92-2.73.3-.44.62-.86.94-1.29s.63-.86,1-1.29l.08-.1a7.52,7.52,0,0,1,1.07-1l1.76-.32-.09.17c-.58,1.05-1.16,2.09-1.69,3.16s-1,2-1.5,3-1,2.12-1.5,3.16c-.38.72-.77,1.44-1.18,2.16s-.79,1.3-1.22,1.93c-.9,1.35-1.87,2.65-2.87,3.92-.7.88-1.42,1.75-2.14,2.62s-1.53,1.86-2.27,2.8c-.57.7-1.18,1.35-1.8,2s-1.23,1.18-1.87,1.76-1.43,1.22-2.16,1.82-1.27,1-1.93,1.52a18.06,18.06,0,0,1-2.07,1.25c-.69.35-1.39.65-2.11.94-1.58.6-3.21,1-4.82,1.55l-.08,0a7.75,7.75,0,0,1-1-.07c-.7-.07-1.41-.15-2.11-.24m13.27,6.73a15.62,15.62,0,0,1,1-1.56c.46-.65.94-1.3,1.43-1.94.85-1.12,1.71-2.23,2.59-3.33.71-.85,1.46-1.66,2.24-2.45.36-.38.74-.75,1.12-1.12s.79-.71,1.2-1.05a59.23,59.23,0,0,0,4.63-4.61c.6-.64,1.2-1.29,1.76-2s1.22-1.52,1.82-2.28l-.15.19c.7-.87,1.43-1.73,2.06-2.66s1.16-1.81,1.7-2.73,1.09-2,1.62-2.94,1-1.94,1.51-2.92l1.46-2.92c.47-.95,1-1.89,1.45-2.85.24-.48.48-1,.73-1.44s.5-.9.78-1.33c.54-.83,1.09-1.66,1.68-2.46l.09-.12c.51-.13,1-.26,1.53-.41-.23.41-.46.82-.67,1.24-.48.9-.95,1.8-1.38,2.73s-.92,2.06-1.36,3.09-.83,1.89-1.3,2.82-1,1.88-1.53,2.8c-.29.48-.58,1-.89,1.42s-.62.9-.91,1.36l-.49.76c-.15.25-.29.51-.44.77-.24.43-.44.9-.65,1.35q-.74,1.5-1.53,3c-.51,1-1.11,1.87-1.67,2.8s-1.17,1.86-1.8,2.77-1.26,1.8-1.93,2.68l-1,1.24c-.65.81-1.31,1.61-2,2.38s-1.53,1.55-2.34,2.28-1.65,1.48-2.46,2.23-1.54,1.45-2.32,2.16c-1.11,1-2.27,1.95-3.47,2.85-.29.19-.57.4-.85.59a1.57,1.57,0,0,0-.23.2,10.38,10.38,0,0,1-1-.59m2.76,1.39c.77-.55,1.52-1.11,2.26-1.7s1.65-1.36,2.45-2.08l2.39-2.15c.82-.73,1.67-1.44,2.47-2.2l1.19-1.17c.37-.38.73-.79,1.07-1.2.75-.87,1.46-1.76,2.16-2.67s1.33-1.78,2-2.7,1.28-1.83,1.87-2.78c.27-.42.53-.86.8-1.29s.6-.92.88-1.39c.57-1,1.09-2,1.61-3s.91-1.93,1.49-2.83,1.31-1.9,1.94-2.87,1.08-1.8,1.61-2.71,1.09-2,1.58-3,1-2,1.47-3,1-1.89,1.51-2.83a27,27,0,0,1,1.92-3.13c.21-.25.43-.49.65-.74l.1-.11.63-.12c-.51.77-1,1.56-1.48,2.37-.27.46-.51.94-.77,1.42s-.53,1-.78,1.53c-.45.94-.86,1.91-1.29,2.87s-.79,1.74-1.22,2.6-.87,1.69-1.29,2.54-.79,1.58-1.14,2.38-.77,1.81-1.15,2.72-.9,1.9-1.35,2.85-1,1.95-1.48,2.9-1.13,2-1.73,2.93-1.21,1.85-1.8,2.78c-1.06,1.66-2.14,3.31-3.32,4.89-1.35,1.66-2.78,3.26-4.26,4.8-.78.81-1.55,1.62-2.36,2.39a28.58,28.58,0,0,1-2.42,2.13,13.22,13.22,0,0,1-1.22.78,15,15,0,0,1-1.4.67l-1.29.49a1.24,1.24,0,0,0-.39.22c-.63-.19-1.25-.42-1.87-.66m4.63,1.28a9.78,9.78,0,0,0,1.21-.61,17.37,17.37,0,0,0,2.81-2.09c1.66-1.49,3.23-3.1,4.74-4.74.75-.81,1.5-1.64,2.22-2.48a32.55,32.55,0,0,0,2.23-2.88c.64-.91,1.27-1.83,1.88-2.76s1.3-1.89,1.94-2.84,1.25-1.83,1.83-2.77,1.14-1.89,1.66-2.85,1-1.93,1.53-2.9c.26-.5.49-1,.71-1.51s.47-1,.71-1.5c.48-1,1-1.91,1.51-2.86s1.06-1.93,1.53-2.91c1-2,1.77-4,2.8-6,.33-.61.65-1.22,1-1.82s.66-1.1,1-1.64.7-1.09,1.05-1.63l.47-.75c.53-.12,1.06-.23,1.59-.36l1.35-.36c-.39.48-.78,1-1.15,1.45q-1,1.33-2,2.73c-.63.94-1.2,1.91-1.76,2.89s-1.09,2-1.65,3-1,2-1.53,2.94-1,2-1.5,3-1,2-1.46,3.06-1,2-1.5,3-1,2.07-1.48,3.11-.93,2-1.39,3-1,2.12-1.51,3.17c-.71,1.43-1.54,2.81-2.37,4.18a40.89,40.89,0,0,1-2.71,3.93q-1.57,2-3.29,3.81c-.61.65-1.23,1.3-1.87,1.93a24.34,24.34,0,0,1-2,1.71c-.3.21-.59.41-.9.6a7.82,7.82,0,0,1-1,.45c-.51.18-1,.34-1.53.47a.81.81,0,0,0-.43.28q-1.43-.21-2.85-.45m6.28.85.31-.14c.37-.21.71-.47,1-.71a21.93,21.93,0,0,0,2.65-2.35c1.62-1.65,3.17-3.37,4.61-5.16.76-.93,1.48-1.89,2.15-2.88s1.25-1.9,1.85-2.86,1.23-2,1.81-3,1-1.92,1.54-2.88c1.06-2,2.09-4,3.15-6,.54-1,1.1-2,1.62-3s1-2,1.52-3,1-1.94,1.51-2.9,1-1.95,1.59-2.91c1.12-2,2.16-4,3.4-5.86,1-1.45,1.94-2.88,3-4.26.35-.43.71-.85,1.1-1.25l.64-.64c.18-.18.35-.36.54-.53l2.28-.68c-.3.36-.58.72-.85,1.1-.62.87-1.21,1.78-1.81,2.67s-1.17,1.89-1.73,2.86c-1.15,2-2.36,3.93-3.44,6-.54,1-1,2-1.58,3.07s-1,2-1.57,3q-1.25,2.31-2.41,4.66c-.4.79-.75,1.61-1.1,2.43s-.65,1.54-1,2.3c-.46,1.07-.93,2.13-1.45,3.18s-1,2-1.48,3-1,2.07-1.59,3.08a25.74,25.74,0,0,1-1.78,2.82c-.51.72-1,1.43-1.55,2.12-1,1.3-2.13,2.56-3.24,3.81-.56.62-1.11,1.26-1.71,1.84a21.27,21.27,0,0,1-1.83,1.59c-.34.23-.69.44-1,.64a9.52,9.52,0,0,1-.92.41c-.44.15-.88.28-1.33.4a1,1,0,0,0-.37.2l-.73,0q-.91,0-1.83,0m8.22-.32-1,0a15.54,15.54,0,0,0,2.09-1.79c.77-.77,1.49-1.59,2.21-2.4s1.53-1.76,2.27-2.65,1.49-1.89,2.19-2.87c.33-.46.66-.93,1-1.4s.62-1,.91-1.46c.55-1,1.09-1.94,1.6-2.93s1.08-2,1.62-3c1.12-2.09,2.12-4.24,3.14-6.37.47-1,1-1.94,1.53-2.9s1.16-2.07,1.75-3.09,1.1-2,1.65-3,1.07-2,1.61-3c1.09-2,2.31-4,3.45-5.95.33-.56.63-1.12,1-1.67s.71-1.15,1.08-1.73c.65-1,1.27-2.06,2-3,.25-.29.5-.58.77-.85s.64-.6,1-.89l.86-.73.53-.46,1.62-.43.6-.16-.08.15c-.3.51-.61,1-.9,1.52s-.51.9-.76,1.36c-.54,1-1.16,1.9-1.74,2.85-.29.48-.56,1-.84,1.46s-.56.91-.85,1.36c-.61,1-1.27,1.88-1.88,2.84s-1.24,1.94-1.86,2.9-1.21,1.85-1.78,2.79-1.18,2.07-1.75,3.11c-1.1,2-2.19,4-3.24,6.06-.54,1-1.08,2.11-1.63,3.16s-1.1,2-1.65,3-1.15,2.05-1.75,3.07-1.12,1.95-1.69,2.92-1.15,1.95-1.75,2.9-1.23,1.86-1.86,2.77c-1,1.46-2,2.92-3.13,4.31-.5.61-1,1.22-1.56,1.78a19.08,19.08,0,0,1-1.85,1.63c-.34.25-.7.49-1,.73-.59,0-1.18,0-1.76,0m13.67.48c-1,.08-2.09.11-3.14.11a7.18,7.18,0,0,0,.79-.52,11.53,11.53,0,0,0,1-.84c.32-.31.61-.64.9-1s.61-.69.91-1c.6-.69,1.15-1.41,1.71-2.13s1.21-1.48,1.79-2.24,1.2-1.57,1.79-2.37,1.08-1.54,1.6-2.32,1.1-1.75,1.61-2.65.92-1.7,1.39-2.55,1-1.79,1.44-2.7c.92-1.8,1.75-3.63,2.62-5.45.42-.89.82-1.79,1.26-2.67s.88-1.75,1.32-2.64l1.28-2.61c.44-.89.92-1.77,1.37-2.66s.86-1.73,1.3-2.6.84-1.72,1.27-2.57c.89-1.73,1.88-3.42,2.88-5.1.6-1,1.16-2,1.79-3s1.28-1.88,2-2.78c.53-.64,1.09-1.26,1.64-1.88.27-.31.56-.6.86-.89l.41-.4a4.79,4.79,0,0,1,.47-.43l.06-.08,1-.24-.09.12c-.61.9-1.24,1.78-1.82,2.7s-1.2,1.9-1.74,2.88-1.07,1.95-1.59,2.93c-1,1.91-2,3.82-2.93,5.76s-1.84,4.16-2.7,6.27c-.4,1-.79,1.94-1.16,2.93s-.78,2.08-1.19,3.12-.79,2-1.2,3-.77,2-1.18,3c-.19.46-.38.91-.58,1.37-.44,1-.91,2-1.43,2.93l-.71,1.33-.72,1.41c-.5.95-1,1.89-1.54,2.85s-1.07,1.83-1.65,2.72-1.09,1.66-1.66,2.48-1.09,1.48-1.66,2.2l0,0,0,0-.12.15a.76.76,0,0,0,.08-.11c-.37.47-.74.94-1.13,1.4s-.9,1-1.38,1.48a24.62,24.62,0,0,1-2.72,2.39c-.38.27-.77.52-1.16.76l-1.33.09m4.63-.38c.77-.65,1.5-1.36,2.21-2.08s1.44-1.63,2.13-2.47,1.37-1.7,2-2.59,1.3-1.85,1.94-2.78c.28-.41.57-.82.83-1.24s.57-1,.85-1.46c.52-.91,1.09-1.81,1.6-2.73.26-.47.51-.94.77-1.4s.53-.94.79-1.41a77.28,77.28,0,0,0,3.47-7.51s0,0,0,.08c.87-2,1.69-4.06,2.49-6.11s1.61-4,2.45-6c.42-1,.85-1.92,1.31-2.87s.94-1.91,1.41-2.86c1-2,2-3.89,3-5.81.34-.62.7-1.22,1.07-1.82s.67-1.11,1-1.65c.74-1.1,1.47-2.22,2.28-3.28l.59-.69.07-.09,1-.25c-.1.38-.17.76-.25,1.14q-.3,1.37-.66,2.73c-.26,1-.54,2.06-.81,3.1s-.61,2.08-1,3.09c-.75,2-1.51,4.1-2.34,6.12-.41,1-.83,2-1.21,3s-.76,2-1.15,2.94c-.88,2.22-1.73,4.46-2.65,6.66-.43,1-.88,1.94-1.32,2.91s-.91,2-1.4,3c-1,2-2.13,3.84-3.24,5.74s-2.29,3.85-3.52,5.71c-.6.89-1.21,1.76-1.85,2.62s-1.3,1.76-2,2.62l-.08.1c-.57.7-1.16,1.38-1.77,2.05a18.81,18.81,0,0,1-2.32,2.23l-.33.21c-.69.17-1.38.35-2.07.5s-1.62.32-2.43.43l-.9.1" fill="#c5a45a"/><path d="M620.87,96.85l.11.09h0l-.13-.1" fill="#c5a45a"/><path d="M600,107.28a.36.36,0,0,0,0,.09l0,.06-.06-.15" fill="#c5a45a"/><path d="M584.44,106.44h0v0h0" fill="#c5a45a"/><path d="M553.23,107.07l.06.05.11.08-.17-.13" fill="#c5a45a"/><path d="M553.47,107.26l0,0,0,0-.06,0" fill="#c5a45a"/><polyline points="534.92 115.36 534.92 115.36 534.93 115.36 534.92 115.36" fill="#c5a45a"/><path d="M652.86,152.15h0s0,0,0,0l0,0" fill="#c5a45a"/></svg>