<svg xmlns="http://www.w3.org/2000/svg" viewBox="0 0 2200 319"><title>blok-5</title><path d="M1609.05,161.86c.69.87,1.37,1.76,2,2.64s1.19,1.52,1.8,2.27c1.39,1.74,2.79,3.47,4.17,5.22.68.85,1.35,1.71,2,2.56s1.32,1.6,2,2.39c1.38,1.66,2.76,3.33,4.12,5l2,2.49c.71.88,1.42,1.78,2.16,2.64s1.42,1.67,2.16,2.47,1.52,1.65,2.27,2.48c1.47,1.62,2.91,3.26,4.37,4.88s3,3.24,4.53,4.76,3.15,3,4.81,4.44,3.37,2.82,5.07,4.21,3.28,2.55,5,3.76,3.6,2.55,5.42,3.78c1,.65,1.91,1.28,2.87,1.91s1.7,1.1,2.58,1.61c1.93,1.13,3.9,2.22,5.91,3.22s4,1.93,6,2.86,3.93,1.78,5.91,2.65l3.09,1.35c1,.44,2,.84,3.06,1.24,3.86,1.5,7.74,2.95,11.7,4.18,1.08.33,2.16.65,3.26.94s2,.49,3,.71c2.11.48,4.22,1,6.35,1.39l2.1.42c.63.15,1.26.32,1.88.51l.59.26a.82.82,0,0,0,.35,0c.52.17,1,.36,1.55.54.72.26,1.44.53,2.14.84s1.54.7,2.29,1.07,1.35.69,2,1.07c.88.51,1.76,1,2.63,1.56l.21.09a.8.8,0,0,0,1.05.13l.06,0a.82.82,0,0,0,.1-1.13l0,0a.86.86,0,0,0,0-.5c-.17-.42-.32-.84-.48-1.26s-.21-.64-.31-1l.06.2c-.27-.9-.56-1.78-.89-2.66-.18-.47-.35-.94-.54-1.4s-.21-1-.31-1.5c-.21-1-.39-2-.55-3s-.34-2.27-.49-3.41-.26-2-.45-3-.44-2.24-.66-3.36-.39-2-.6-3-.44-2.12-.69-3.18l-.75-3.1c-.51-2.08-.94-4.17-1.44-6.25-.25-1.07-.52-2.13-.83-3.18s-.64-2.12-1-3.18c-.63-2.14-1.26-4.27-2-6.37-.38-1-.77-2-1.13-3.08s-.67-2-1-2.94c-.63-2.05-1.22-4.12-2-6.1s-1.75-4.15-2.62-6.22c-.43-1-.89-2.05-1.35-3.06-.21-.48-.46-1-.69-1.42s-.33-.67-.5-1a.91.91,0,0,0-.15-.37l-.17-.25c-.44-.86-.88-1.72-1.33-2.58s-1-2-1.58-3c-.23-.41-.46-.82-.7-1.22a.65.65,0,0,0-.16-.4,2.09,2.09,0,0,1-.2-.22c-.22-.36-.44-.72-.67-1.08-.59-.93-1.19-1.85-1.81-2.76-1.21-1.78-2.43-3.58-3.74-5.29-2.33-3.06-4.76-6-7.17-9a1,1,0,0,0-.32-.56l-.59-.57-.32-.39q-2-2.49-4.07-4.95l-1-1.23a.86.86,0,0,0-.31-.52l-.42-.33c-.8-.94-1.62-1.86-2.46-2.77s-1.89-2-2.85-3l-.09-.09c-.57-.57-1.14-1.14-1.73-1.7q-2.46-2.33-5-4.61c-2.86-2.61-5.81-5.13-8.81-7.58a.83.83,0,0,0-.24-.29l-1.12-.82a.18.18,0,0,1-.07-.05c-1.68-1.35-3.37-2.7-5.1-4s-3.55-2.47-5.36-3.65c-.88-.57-1.77-1.12-2.67-1.66s-1.81-1.09-2.73-1.61c-1.91-1.1-3.85-2.15-5.82-3.13s-3.9-1.89-5.87-2.81c-1-.45-1.91-.9-2.88-1.31s-2-.84-3-1.22c-2-.74-3.92-1.46-5.91-2.09-1-.32-2.08-.58-3.13-.84s-2.22-.51-3.34-.72c-.53-.1-1.06-.17-1.59-.24s-1.07-.12-1.6-.17c-1-.09-2-.17-3-.21-2.09-.1-4.19-.17-6.28-.15-1.55,0-3.09,0-4.63-.06s-2.83-.08-4.25-.14-2.74-.14-4.1-.28l-.48,0c-1.73-1.28-3.48-2.53-5.24-3.77-2-1.44-4.08-2.88-6.17-4.26s-4-2.66-6-4-4-2.48-6-3.67c-.88-.53-1.77-1-2.65-1.54s-1.95-1.1-2.95-1.62a9.64,9.64,0,0,0-2.83-1.13,3.61,3.61,0,0,0-.93,0,2.82,2.82,0,0,0-.68.17,1.85,1.85,0,0,0-.6.33l-.12.12a1.38,1.38,0,0,0-.4.58,1.83,1.83,0,0,0-.14.73,2.1,2.1,0,0,0,.16.89l.11.24.34.53a2.56,2.56,0,0,0,.45.48c.14.14.3.27.45.4s.41.32.62.48c.38.27.77.53,1.16.77.84.53,1.69,1,2.56,1.51s1.8.94,2.69,1.42c1.07.56,2.13,1.11,3.2,1.65l-.24-.12c1.11.58,2.2,1.18,3.26,1.84s2,1.28,3,1.93c2,1.33,4,2.73,6,4.06s4,2.54,6,3.88c1,.65,1.9,1.33,2.85,2,.05.4.07.8.09,1.2,0,.82.08,1.65.1,2.47s0,1.92,0,2.88c-.06,2-.18,4.08-.12,6.12s.15,4,.36,6a28.94,28.94,0,0,0,.51,2.93c.22,1,.44,2.09.64,3.14s.35,1.94.52,2.92.37,2,.61,3c.51,2,1.1,4.07,1.67,6.1s1.16,4.12,1.79,6.16,1.28,4.15,2,6.2c.18.5.37,1,.56,1.5s.35.91.55,1.36.47,1.05.72,1.58.47.94.71,1.41c.48.95,1,1.89,1.51,2.83s1.12,1.86,1.73,2.75C1606.44,158.54,1607.74,160.2,1609.05,161.86Z" fill="#fff"/><path d="M1694.61,146.16a1,1,0,0,0-.32-.56l-.59-.57-.32-.39q-2-2.49-4.07-4.95l-1-1.23a.86.86,0,0,0-.31-.52l-.42-.33c-.8-.94-1.62-1.86-2.46-2.77s-1.89-2-2.85-3l-.09-.09c-.57-.57-1.14-1.14-1.73-1.7q-2.46-2.33-5-4.61c-2.86-2.61-5.81-5.13-8.81-7.58a.83.83,0,0,0-.24-.29l-1.12-.82a.18.18,0,0,1-.07-.05c-1.68-1.35-3.37-2.7-5.1-4s-3.55-2.47-5.36-3.65c-.88-.57-1.77-1.12-2.67-1.66s-1.81-1.09-2.73-1.61c-1.91-1.1-3.85-2.15-5.82-3.13s-3.9-1.89-5.87-2.81c-1-.45-1.91-.9-2.88-1.31s-2-.84-3-1.22c-2-.74-3.92-1.46-5.91-2.09-1-.32-2.08-.58-3.13-.84s-2.22-.51-3.34-.72c-.53-.1-1.06-.17-1.59-.24s-1.07-.12-1.6-.17c-1-.09-2-.17-3-.21-2.09-.1-4.19-.17-6.28-.15-1.55,0-3.09,0-4.63-.06s-2.83-.08-4.25-.14-2.74-.14-4.1-.28l-.48,0c-1.73-1.28-3.48-2.53-5.24-3.77-2-1.44-4.08-2.88-6.17-4.26s-4-2.66-6-4-4-2.48-6-3.67l-2.65-1.54c-1-.56-1.95-1.1-2.95-1.62a9.64,9.64,0,0,0-2.83-1.13,3.61,3.61,0,0,0-.93,0,2.82,2.82,0,0,0-.68.17,1.85,1.85,0,0,0-.6.33l-.12.12a1.38,1.38,0,0,0-.4.58,1.83,1.83,0,0,0-.14.73,2.1,2.1,0,0,0,.16.89l.11.24.34.53a2.56,2.56,0,0,0,.45.48c.14.14.3.27.45.4s.41.32.62.48c.38.27.77.53,1.16.77.84.53,1.69,1,2.56,1.51s1.8.94,2.69,1.42c1.07.56,2.13,1.11,3.2,1.65l-.24-.12c1.11.58,2.2,1.18,3.26,1.84s2,1.28,3,1.93c2,1.33,4,2.73,6,4.06s4,2.54,6,3.88c1,.65,1.9,1.33,2.85,2,.05.4.07.8.09,1.2,0,.82.08,1.65.1,2.47s0,1.92,0,2.88c-.06,2-.18,4.08-.12,6.12s.15,4,.36,6a28.94,28.94,0,0,0,.51,2.93c.22,1,.44,2.09.64,3.14s.35,1.94.52,2.92.37,2,.61,3c.51,2,1.1,4.07,1.67,6.1s1.16,4.12,1.79,6.17,1.28,4.14,2,6.19c.18.5.37,1,.56,1.5s.35.91.55,1.36.47,1.05.72,1.58.47.94.71,1.41c.48.95,1,1.89,1.51,2.83s1.12,1.86,1.73,2.75c1.2,1.74,2.5,3.4,3.81,5.06.69.87,1.37,1.76,2,2.64s1.19,1.52,1.8,2.27c1.39,1.74,2.79,3.47,4.17,5.22.68.85,1.35,1.71,2,2.56s1.32,1.6,2,2.39c1.38,1.66,2.76,3.33,4.12,5l2,2.49c.71.88,1.42,1.78,2.16,2.64s1.42,1.67,2.16,2.47,1.52,1.65,2.27,2.48c1.47,1.62,2.91,3.26,4.37,4.88s3,3.24,4.53,4.76,3.15,3,4.81,4.44,3.37,2.82,5.07,4.21,3.27,2.55,5,3.76,3.6,2.55,5.42,3.78c1,.65,1.91,1.28,2.87,1.91s1.7,1.1,2.58,1.61c1.93,1.13,3.9,2.22,5.91,3.22s4,1.93,6,2.86,3.93,1.78,5.91,2.65l3.09,1.35c1,.44,2,.84,3.06,1.24,3.86,1.5,7.74,2.95,11.69,4.18,1.09.33,2.17.65,3.27.94s2,.49,3,.71c2.11.48,4.22,1,6.35,1.39l2.1.42c.63.15,1.26.32,1.88.51l.59.26a.82.82,0,0,0,.35,0c.52.17,1,.36,1.55.54.72.26,1.44.53,2.14.84s1.54.7,2.29,1.07,1.35.69,2,1.07c.88.51,1.76,1,2.63,1.56l.21.09a.8.8,0,0,0,1.05.13l.06,0a.82.82,0,0,0,.1-1.13l0,0a.86.86,0,0,0,0-.5c-.17-.42-.32-.84-.48-1.26s-.21-.64-.31-1l.06.2c-.27-.9-.56-1.78-.89-2.66-.18-.47-.35-.94-.54-1.4s-.21-1-.31-1.5c-.21-1-.39-2-.55-3s-.34-2.27-.49-3.41-.26-2-.45-3-.44-2.24-.66-3.36-.39-2-.6-3-.44-2.12-.69-3.18l-.75-3.1c-.51-2.08-.94-4.17-1.44-6.25-.25-1.07-.52-2.13-.83-3.18s-.64-2.12-1-3.18c-.63-2.14-1.26-4.27-2-6.37-.38-1-.77-2-1.13-3.08s-.67-2-1-2.94c-.63-2.05-1.22-4.12-2-6.1s-1.75-4.15-2.62-6.22c-.43-1-.89-2.05-1.35-3.06-.21-.48-.46-1-.69-1.42s-.33-.67-.5-1a.91.91,0,0,0-.15-.37l-.17-.25c-.44-.86-.88-1.72-1.33-2.58s-1-2-1.58-3c-.23-.41-.46-.82-.7-1.22a.65.65,0,0,0-.16-.4,2.09,2.09,0,0,1-.2-.22c-.22-.36-.44-.72-.67-1.08-.59-.93-1.19-1.85-1.81-2.76-1.21-1.78-2.43-3.58-3.74-5.29-2.33-3.06-4.76-6-7.17-9M1714.27,181c.07.15.13.3.19.45l0,0c-.34-.4-.7-.78-1.06-1.17a30.78,30.78,0,0,0-2.47-2.38c-.41-.35-.85-.67-1.29-1s-.82-.58-1.25-.84c-1-.57-1.91-1.12-2.87-1.68s-2-1.12-3-1.64-2-1-2.94-1.42-2-.9-3.07-1.28-2.12-.72-3.2-1-2.29-.58-3.44-.81-2.12-.39-3.18-.59-2.1-.34-3.14-.54l-1.64-.33c-.51-.11-1-.17-1.53-.25-1.06-.17-2.11-.37-3.16-.59l-.43-.08a28.61,28.61,0,0,1-6.59-2l-.92-.5-.45-.26c-1-1-1.92-2.07-2.9-3.09.61.21,1.23.38,1.84.55l-.14,0,.27.07-.13,0,.13,0h0c1,.29,2.07.56,3.13.8s2,.41,3,.64,2,.42,3,.6l3.22.56c1,.17,2,.33,3,.54s1.92.43,2.87.67,2,.51,3,.75,2,.45,3,.7,2.07.54,3.1.82c1.36.39,2.7.86,4,1.35a25.74,25.74,0,0,1,4,1.76c1.1.68,2.18,1.4,3.23,2.16.54.39,1.08.78,1.59,1.2s1,.87,1.44,1.33.75.8,1.13,1.19.84.91,1.24,1.38a19.64,19.64,0,0,1,2,2.7c.1.2.2.4.29.6s.19.46.28.68m-112-48.35c-.12-1-.19-2.1-.29-3.15s-.2-2.2-.35-3.3c-.1-.79-.22-1.58-.34-2.37-.08-.59-.15-1.19-.23-1.79l-.3-2c-.17-1.18-.34-2.36-.55-3.53s-.41-2.21-.63-3.3-.45-2.16-.7-3.23-.55-2.11-.85-3.16-.6-1.91-.91-2.87-.56-1.83-.88-2.72c-.23-.63-.45-1.25-.67-1.88l3,2.11c.24.67.5,1.32.73,2,.35,1,.69,2,1,3.08s.72,2.12,1,3.19.66,2.23,1,3.35c.53,2,1,4,1.47,6s.77,3.89,1.06,5.85c.15,1.15.28,2.3.37,3.45s.18,2.23.25,3.35q.23,3.59.37,7.19c.11,2.41.36,4.8.64,7.2.15,1.22.28,2.45.5,3.66s.5,2.34.79,3.49.63,2.31,1,3.46c.15.45.3.91.47,1.36-.81-1.39-1.52-2.84-2.19-4.3-.43-1-.83-2-1.2-3s-.69-2.11-1-3.18c-.58-2.08-1-4.22-1.4-6.34-.14-.75-.29-1.51-.41-2.26-.3-2.12-.53-4.25-.79-6.38m76.55,36.2c1.05.19,2.12.32,3.17.53s2.15.4,3.23.56,2.07.35,3.11.51,2.06.34,3.08.55,2.1.53,3.14.83,2,.67,3,1.06c2,.77,3.94,1.64,5.85,2.59,1.27.66,2.52,1.34,3.76,2a21.19,21.19,0,0,1,3.46,2.51c.77.72,1.5,1.49,2.22,2.26a17.29,17.29,0,0,1,1.88,2.53c.36.6.71,1.21,1,1.82a18.06,18.06,0,0,1,.93,2.06c.27.68.47,1.39.72,2.08l.18.5-.33-.43c-.65-.84-1.31-1.68-2-2.53s-1.31-1.62-2-2.4a23.89,23.89,0,0,0-2.27-2.23,22.2,22.2,0,0,0-2.41-1.8,26.24,26.24,0,0,0-2.5-1.5c-1-.54-2-1-3-1.55s-1.8-.87-2.73-1.24-2-.76-3-1.09-1.91-.58-2.87-.83-1.91-.47-2.87-.68-2.18-.48-3.28-.69-2-.34-3-.49l-2.81-.44c-.7-.11-1.4-.22-2.09-.36-.34-.08-.68-.15-1-.25s-.85-.27-1.28-.43-.81-.3-1.21-.47-.76-.31-1.13-.49c-1.12-1.36-2.24-2.73-3.38-4.08,1,.33,2,.59,3,.83s2.25.5,3.39.71m12.76,2.18.07,0h0Zm27.61,25.75c-.36-.47-.74-.94-1.12-1.41s-.61-.74-.95-1.08-.82-.84-1.27-1.22l-.61-.52c-.21-.18-.44-.34-.66-.51-.39-.3-.81-.57-1.21-.84-1.65-1.11-3.37-2.12-5.11-3.07-1-.52-1.93-1-2.91-1.49s-1.86-.88-2.81-1.26c-1.86-.74-3.78-1.35-5.7-1.93s-3.73-1.1-5.6-1.62a52.28,52.28,0,0,1-5.62-1.9c-.81-.33-1.59-.72-2.36-1.12-.29-.15-.58-.3-.86-.47a6.81,6.81,0,0,1-.84-.56l-.11-.1a1,1,0,0,0-.5-.17h0q-1.11-1.29-2.19-2.58l-.07-.09.3.09c.53.14,1.07.25,1.61.36s1,.17,1.47.25l1.46.23c1,.15,2,.28,3,.41,2,.28,4,.7,6,1.12a53.74,53.74,0,0,1,5.72,1.57c1,.33,1.94.68,2.88,1.1s1.92.87,2.86,1.33l.78.39a33.63,33.63,0,0,1,3.23,1.89c.51.33,1,.69,1.49,1.06s.86.7,1.28,1.07c.73.71,1.41,1.45,2.08,2.21s1.29,1.58,1.92,2.39l1.79,2.28c.59.77,1.16,1.55,1.69,2.36q.52.9,1,1.83m-.76,3.74c-.78-.73-1.57-1.44-2.4-2.11s-1.64-1.25-2.47-1.86-1.51-1.1-2.31-1.58-1.75-1-2.65-1.49a26.56,26.56,0,0,0-2.8-1.21c-.95-.35-1.91-.67-2.87-1-1.88-.62-3.75-1.26-5.64-1.86-1.42-.44-2.85-.88-4.24-1.4s-2.62-1-3.88-1.63a9.71,9.71,0,0,1-1.25-.79.9.9,0,0,0-.24-.12c-.61-.69-1.22-1.38-1.81-2.08l-1.35-1.61.74.31a51,51,0,0,0,5.66,1.81c1.91.49,3.81,1,5.71,1.56,1,.28,1.95.58,2.92.9s1.81.6,2.7,1c1.54.63,3.06,1.33,4.55,2.07s2.7,1.45,4,2.24c.69.42,1.38.83,2,1.29.37.25.74.51,1.09.77l.94.76c.36.33.72.67,1,1s.84.95,1.25,1.44a31,31,0,0,1,2,2.72c.69,1.11,1.37,2.23,2,3.36.3.55.62,1.1.88,1.67.13.27.26.53.38.8-.1-.14-.19-.29-.29-.44a26.75,26.75,0,0,0-3.7-4.52m2.93,6.64c-.37-.4-.8-.75-1.21-1.12s-.78-.65-1.18-1c-.73-.58-1.49-1.14-2.26-1.68s-1.69-1.2-2.57-1.76a28.7,28.7,0,0,0-2.61-1.43,29.37,29.37,0,0,0-2.68-1.22c-1.81-.68-3.68-1.23-5.51-1.86-.91-.31-1.82-.59-2.73-.9s-1.81-.67-2.69-1.07l-1.28-.61a10.47,10.47,0,0,1-1-.6c-.41-.28-.81-.59-1.24-.86a.85.85,0,0,0-.34-.14l-.86-1.09c-.68-.82-1.36-1.64-2-2.45.28.11.56.23.85.33.88.33,1.77.63,2.67.92l2.86.88,5.5,1.74c.92.29,1.84.6,2.75.93.45.17.89.34,1.33.53s.79.36,1.18.56c.7.36,1.4.73,2.07,1.16s1.43.94,2.13,1.44,1.42,1,2.11,1.55,1.35,1.1,2,1.68c.43.4.84.8,1.25,1.22s.78.86,1.15,1.3a32.2,32.2,0,0,1,2.08,2.87c.21.34.42.67.62,1l-.33-.36m.92,4.19.7,1.33c-.51-.56-1-1.1-1.6-1.61a21.82,21.82,0,0,0-2.25-1.82c-.75-.51-1.52-1-2.31-1.43s-1.67-.88-2.51-1.29l-1.18-.56c-.41-.19-.82-.39-1.24-.57a25,25,0,0,0-2.54-.81c-.87-.25-1.74-.47-2.61-.71-.42-.11-.85-.24-1.27-.38l-1.19-.44c-.82-.3-1.63-.62-2.43-1l-1.19-.54c-1-1.37-2-2.73-3.08-4.07l-.51-.66c.44.19.89.37,1.33.54.88.36,1.79.64,2.7.92s1.83.59,2.74.89c1.22.4,2.46.77,3.67,1.21.6.21,1.19.44,1.77.7s1.16.54,1.74.83,1.43.74,2.11,1.17,1.53,1,2.28,1.53a46.41,46.41,0,0,1,4.17,3.23,14.33,14.33,0,0,1,2.09,2.48c.21.34.42.68.61,1m2.45,8.17a21,21,0,0,0-2.15-1.85,32.34,32.34,0,0,0-4.58-2.93l-1.37-.71-.66-.31-.68-.28c-.4-.15-.82-.26-1.23-.37l-1.31-.37-1.41-.4c-.48-.13-1-.28-1.43-.45s-.9-.35-1.35-.54-.8-.35-1.2-.54l0,0-.88-1.2c-1.24-1.74-2.46-3.5-3.72-5.22l.64.24c.84.29,1.67.59,2.53.83s1.72.43,2.58.66a19.6,19.6,0,0,1,3.34,1.13q1.59.74,3.15,1.53c.86.45,1.71.94,2.53,1.46a21.29,21.29,0,0,1,2.58,2l1,1c.39.4.77.8,1.13,1.22l1,1.28c.3.39.57.79.84,1.2s.34.62.49.94.33.73.48,1.09.29.72.43,1.08.24.58.37.87a14.84,14.84,0,0,0-1.11-1.27m1.88,6.93c-.27-.37-.56-.74-.85-1.1a14.59,14.59,0,0,0-2-1.93,30.92,30.92,0,0,0-4.13-3c-.8-.47-1.62-.91-2.45-1.32s-1.54-.75-2.3-1.14l-1.22-.62q-.51-.26-1-.54l-.54-.3a2.87,2.87,0,0,1-.54-.37l0,0-.56-.67c-.51-.62-1-1.25-1.49-1.88.45.15.9.29,1.36.41l2.5.66,1.36.4a7.93,7.93,0,0,1,1.24.52c.23.1.46.22.68.33l.52.26a29.19,29.19,0,0,1,2.9,1.73c.51.34,1,.68,1.5,1s.94.74,1.4,1.13c.24.22.48.45.71.69s.5.54.73.82c.46.57.88,1.16,1.29,1.77.12.19.25.39.36.6s.32.61.47.92a21.49,21.49,0,0,1,.89,2.17c.08.3.16.6.22.89-.08-.12-.16-.24-.23-.36l-.76-1.11m.34,4.88a23.59,23.59,0,0,0-1.94-1.66c-.66-.49-1.33-1-2-1.38s-1.38-.79-2.09-1.15l0,0-.19-.09h0l-.18-.09-.83-.45c-1.35-1.79-2.71-3.58-4.09-5.35-.41-.52-.82-1-1.24-1.55l2.75,1.36a29.82,29.82,0,0,1,3.25,2q1.62,1.15,3.12,2.46l.43.42.52.59c.36.44.71.89,1,1.36.61.87,1.18,1.76,1.76,2.65l.45.76a6.83,6.83,0,0,1,.61,1.28c.09.31.17.63.25.94-.06-.09-.13-.18-.19-.28a11.31,11.31,0,0,0-1.43-1.8m-10.79.87c.18.42.37.83.58,1.24s.44.75.67,1.12a25,25,0,0,0,1.69,2.38,23.23,23.23,0,0,0,1.95,2.14l.21.18-.23-.1a24.63,24.63,0,0,1-2.76-1.51,26.77,26.77,0,0,1-2.58-1.9,23.32,23.32,0,0,1-1.84-1.88c-.56-.65-1.07-1.36-1.56-2.06a41,41,0,0,1-2.5-4.24c-.38-.77-.75-1.55-1.09-2.35s-.64-1.62-.92-2.44-.6-1.71-.83-2.58-.46-1.91-.66-2.88-.41-1.92-.58-2.89-.31-1.83-.49-2.74l-.06-.27c.34.42.68.85,1,1.28,1.16,1.46,2.28,2.95,3.43,4.42.76,1,1.57,1.94,2.37,2.89l.12.28c.22.51.41,1,.59,1.58.26.78.49,1.57.73,2.36s.5,1.73.75,2.59.59,1.94.94,2.89.68,1.67,1.06,2.49m-19.49-8.41a30.47,30.47,0,0,0,2.77,5.93,23.45,23.45,0,0,0,2,2.8c.33.4.67.79,1,1.17l.09.08-.33-.16c-.3-.16-.62-.3-.91-.48s-.57-.38-.85-.59a17.49,17.49,0,0,1-1.41-1.17l-.72-.7a8.12,8.12,0,0,1-.61-.69q-1.08-1.4-2-2.88a23.33,23.33,0,0,1-1.58-3,30.39,30.39,0,0,1-1.24-3.82c-.34-1.34-.61-2.68-.82-4-.26-2-.42-4-.54-6-.07-1-.07-2.07-.07-3.1s0-2.12,0-3.18c0-.84,0-1.69,0-2.54s-.09-1.84-.14-2.76c-.09-1.8-.27-3.6-.53-5.39l-.06-.47q1.11,1.37,2.19,2.76c.18.24.35.48.53.71.28,1.22.54,2.44.72,3.67.24,1.52.32,3.06.43,4.6.06,1,.07,2.08.09,3.13s0,2,.1,3.05c.09,2.2.25,4.4.54,6.59a31.86,31.86,0,0,0,1.44,6.47m-4.11,1.34a26,26,0,0,0,3.1,5.23c.3.4.6.8.92,1.18s.56.6.85.89q-.51-.27-1-.57c-.34-.21-.66-.44-1-.66l-.94-.64a14.43,14.43,0,0,1-2.22-2.13,29.79,29.79,0,0,1-1.93-2.9c-.32-.55-.6-1.14-.88-1.72s-.51-1.06-.76-1.59a32.17,32.17,0,0,1-1.48-4.58c-.21-.82-.39-1.64-.52-2.48s-.24-1.62-.36-2.43c-.15-1.05-.29-2.09-.35-3.15s-.07-2.22-.08-3.33c0-2.09,0-4.17.1-6.26,0-1.08.07-2.16.11-3.24s.07-2.11,0-3.17c0-.52-.08-1-.12-1.56s-.06-1-.08-1.55a31.18,31.18,0,0,0-.42-3.48l-.06-.34.39.48c.69.82,1.39,1.64,2.09,2.45.18.81.38,1.61.51,2.43s.22,1.55.34,2.33c.12,1,.24,1.94.32,2.91s.15,2.13.21,3.2c0,.49.07,1,.09,1.45s0,1,0,1.47c0,1.05,0,2.1,0,3.15s0,2.09,0,3.13.11,2,.2,3a48,48,0,0,0,.88,6.32c.23,1,.5,2.07.8,3.09a26,26,0,0,0,1.14,3.09m-1.87,4c.32.41.66.81,1,1.19a1.62,1.62,0,0,0,.18.19c-.31-.16-.63-.32-.93-.49a16.45,16.45,0,0,1-1.49-1,19.69,19.69,0,0,1-2.42-2.41,26.23,26.23,0,0,1-1.54-2.34c-.45-.78-.85-1.57-1.22-2.39a35.31,35.31,0,0,1-1.44-4.36c-.39-1.55-.72-3.13-1-4.71-.13-1.08-.24-2.15-.31-3.23s-.09-2.19-.11-3.28,0-2.2,0-3.3,0-2.24,0-3.37c0-.51,0-1,0-1.53s0-1.07-.07-1.6c-.07-1.13-.18-2.27-.26-3.41s-.14-2.18-.28-3.26-.29-2.2-.44-3.29c0-.24-.07-.48-.1-.72,0,.1,0,.2,0,.3-.09-.64-.19-1.28-.28-1.92v0c-.14-1-.29-2.07-.5-3.09s-.46-2.05-.73-3.06c.7.82,1.39,1.65,2.06,2.49.33.4.64.81.94,1.22a1.55,1.55,0,0,0,0,.21c0,.17.09.33.14.49s.16.49.23.73c.17.6.34,1.19.46,1.8.26,1.26.47,2.52.66,3.79.07.49.13,1,.17,1.49s.05,1,.1,1.52.13,1.08.18,1.62.07,1,.08,1.57c0,1,0,2.09,0,3.14s0,2.13,0,3.2,0,2.14,0,3.21,0,2.07.09,3.11a31.89,31.89,0,0,0,.25,3.24c.15,1.14.33,2.27.52,3.39s.37,2.24.63,3.35.52,2,.84,3a23.94,23.94,0,0,0,1.29,3.15c.49,1,1,2,1.57,2.94a25,25,0,0,0,1.62,2.34m-7.29-5c.25.47.5.94.78,1.39a23.5,23.5,0,0,0,1.57,2.27,16.2,16.2,0,0,1-1.55-.92c-.56-.43-1.09-.9-1.61-1.38a19.19,19.19,0,0,1-1.49-1.63q-.48-.62-.93-1.26c-.3-.45-.57-.92-.84-1.39-.54-1-1-2-1.45-2.94a16.47,16.47,0,0,1-.67-1.77c-.2-.67-.36-1.35-.51-2-.29-1.42-.53-2.84-.75-4.26-.15-1.13-.26-2.25-.33-3.38s-.09-2.19-.14-3.29c-.08-2.2-.12-4.4-.16-6.6,0-1.09,0-2.18-.09-3.26s-.16-2.27-.24-3.4-.15-2.2-.25-3.29l-.18-1.7c-.06-.54-.11-1.07-.18-1.6s-.15-1.06-.23-1.58c-.15-1.14-.3-2.28-.49-3.42s-.35-2.13-.56-3.19c-.09-.5-.18-1-.28-1.51s-.21-1-.32-1.48-.24-1-.37-1.55l0-.08c.86.95,1.74,1.87,2.63,2.79.18.61.46,1.19.7,1.78.35.86.67,1.72,1,2.6a33.54,33.54,0,0,1,1.34,5.51c.13,1,.26,1.93.38,2.9.07.5.12,1,.18,1.49s.14,1.09.22,1.63c.15,1.08.25,2.16.35,3.25s.21,2.16.28,3.25.12,2.16.12,3.24.08,2.26.1,3.39c0,.56,0,1.12,0,1.67s0,1.09,0,1.63c0,1.08.08,2.15.16,3.23s.2,2.22.35,3.33c.09.64.19,1.28.31,1.92s.23,1.1.36,1.64c.26,1.1.53,2.2.87,3.29s.72,2.07,1.13,3.09c.23.56.51,1.1.79,1.63m-6.57-4a27.59,27.59,0,0,0,1.57,2.81,24.06,24.06,0,0,0,1.77,2.38,17.78,17.78,0,0,1-1.72-1.08,16.21,16.21,0,0,1-2.21-2.25,20.94,20.94,0,0,1-1.37-2c-.43-.71-.8-1.47-1.16-2.22a32.23,32.23,0,0,1-1.33-4.18,40.13,40.13,0,0,1-.79-4.19c-.3-2.19-.48-4.38-.62-6.58s-.18-4.52-.25-6.79c0-1.13-.08-2.27-.14-3.4s-.16-2.22-.26-3.33c-.2-2.29-.5-4.58-.88-6.85s-.86-4.41-1.32-6.6c-.21-1-.45-2.09-.71-3.13s-.6-2.27-.92-3.4-.59-2.08-.92-3.1-.69-2.1-1.06-3.15c-.17-.46-.33-.92-.49-1.38l.34.36c.82.86,1.65,1.72,2.44,2.6.31.34.61.69.92,1s.35.8.51,1.21.33.91.48,1.37.33.95.48,1.44.28,1,.41,1.51.24,1,.36,1.53.22,1,.32,1.48c.21,1,.39,2.07.58,3.1s.35,2.08.51,3.12.3,2.21.46,3.31q.44,3.25.72,6.53c.1,1.13.21,2.25.3,3.37s.1,2.19.14,3.28.08,2.17.13,3.25.13,2.25.2,3.38.12,2.17.22,3.25.26,2.46.46,3.69.39,2.2.62,3.3a30.81,30.81,0,0,0,.82,3.14c.19.57.44,1.11.68,1.65s.47,1,.71,1.5m-4.63-1.17a21.55,21.55,0,0,0,1.62,2.79l.13.18-.23-.2a10.41,10.41,0,0,1-.86-.9c-.55-.61-1.08-1.23-1.6-1.86s-.76-1-1.13-1.56-.68-1-1-1.55c-.61-1.12-1.17-2.27-1.7-3.43a65.87,65.87,0,0,1-2.24-6.22c-.34-1.08-.63-2.18-.9-3.28s-.52-2.14-.74-3.21c-.12-.58-.21-1.16-.29-1.75-.29-2.17-.44-4.35-.65-6.53-.11-1.08-.21-2.17-.26-3.25s-.09-2.25-.14-3.38c-.1-2.21-.26-4.42-.38-6.64s-.25-4.27-.46-6.4c-.12-1.11-.22-2.23-.34-3.34-.06-.54-.11-1.08-.17-1.61s-.17-1.27-.26-1.9c-.33-2.17-.7-4.33-1.22-6.46-.16-.63-.31-1.26-.48-1.89l.53.54c.15.31.29.64.44,1s.43.95.64,1.42c.41,1,.79,1.95,1.15,2.94s.74,2,1.09,3,.71,2.08,1,3.13.63,2.21.93,3.32.57,2.15.83,3.23.47,2.21.72,3.32c.47,2.15.9,4.31,1.22,6.49,0,.13,0,.26,0,.39q.45,3.31.73,6.65c.2,2.25.26,4.51.33,6.76s.25,4.51.47,6.77a67.24,67.24,0,0,0,1,6.91c.23,1.09.54,2.16.86,3.22a21.57,21.57,0,0,0,1.26,3.3m-5.09-3.08c.27.51.54,1,.84,1.51s.59.9.91,1.34l.42.57-.65-.45c-.84-.69-1.63-1.42-2.41-2.17a27.49,27.49,0,0,1-2.16-2.41c-.84-1.07-1.62-2.17-2.37-3.31-.36-.56-.71-1.13-1-1.72s-.65-1.28-1-1.94c-.18-.42-.36-.83-.52-1.26s-.4-1.08-.58-1.62c-.34-1-.65-2-.92-3s-.56-2.14-.76-3.23-.37-2.13-.55-3.2c-.07-.42-.14-.84-.2-1.26-.14-1.07-.28-2.13-.36-3.2s-.12-2.22-.17-3.33-.09-2.14-.13-3.22,0-2.15,0-3.23,0-2.13,0-3.19,0-2.18,0-3.27c.08-2.23.13-4.47.11-6.7s-.11-4.28-.33-6.41c-.12-1.16-.3-2.31-.47-3.47s-.34-2.07-.56-3.1c-.27-1.31-.56-2.61-.89-3.91l1.66,1.79c.1.31.23.62.33.93.18.51.33,1,.49,1.54.33,1.08.62,2.16.9,3.25q.83,3.14,1.36,6.33c.14.79.28,1.58.4,2.38.27,2.16.52,4.31.74,6.47s.36,4.35.51,6.52.3,4.42.41,6.63c0,1.07.11,2.13.21,3.19s.25,2.26.37,3.39c.23,2.3.48,4.59.9,6.86.2,1.09.49,2.17.76,3.25s.57,2.18.9,3.26.65,2,1,3.05.84,2.27,1.32,3.39.92,2,1.43,2.95m1.5,3h0l-.14-.11.15.11m-10.81-11.31c.22.51.44,1,.69,1.52a28.58,28.58,0,0,0,1.65,2.83c.57.89,1.19,1.75,1.84,2.58l-.35-.23c-.46-.35-.91-.71-1.35-1.09s-1.06-.92-1.59-1.39a17.72,17.72,0,0,1-1.4-1.47c-.42-.48-.84-1-1.24-1.45-.65-.86-1.28-1.74-1.85-2.65a27.06,27.06,0,0,1-1.56-3,45.36,45.36,0,0,1-1.55-4.37c-.23-.76-.48-1.51-.66-2.27s-.35-1.6-.48-2.41a57.07,57.07,0,0,1-.42-6.27c0-.56,0-1.13,0-1.7s0-1.09.08-1.64c.07-1.05.16-2.1.24-3.15.06-.72.11-1.43.18-2.14s.15-1.32.23-2c.26-2,.58-4.06.87-6.09.16-1.08.33-2.17.45-3.26s.18-2.08.26-3.12.17-2.15.2-3.23,0-2.06,0-3.08c0-1.32-.06-2.64-.13-4a1.74,1.74,0,0,1,0,.22c.22,1,.44,2,.61,3s.29,1.73.42,2.6c.27,2.17.39,4.35.45,6.54s.06,4.33,0,6.5c0,1.12,0,2.24,0,3.36s0,2.1,0,3.15,0,2.24,0,3.36.08,2.14.14,3.21.11,2.11.17,3.17.18,2.24.32,3.35.34,2.35.55,3.53.37,2.13.58,3.2.5,2.07.8,3.09.68,2.12,1.07,3.17c.19.53.41,1.06.64,1.57m-6.91-3.52c.23.52.49,1,.74,1.53s.49.93.77,1.36.52.8.79,1.19l-.33-.19q-.69-.42-1.35-.9a16.47,16.47,0,0,1-1.42-1.21,19.06,19.06,0,0,1-1.3-1.4,20.14,20.14,0,0,1-1.59-2.31,27.09,27.09,0,0,1-1.28-2.52,24.11,24.11,0,0,1-1.36-4.92c-.08-.63-.14-1.27-.18-1.91s0-1.48,0-2.23,0-1.53,0-2.29.11-1.48.2-2.22c.06-.52.15-1,.21-1.56s.15-1.19.24-1.77.21-1.25.27-1.87.11-1.16.18-1.74c.13-1,.26-1.92.38-2.88s.24-2.19.35-3.29c.22-2.08.46-4.15.58-6.24.07-1,.14-2.06.22-3.1s.13-2,.17-3.06.09-2.1.13-3.15,0-2.08,0-3.12-.11-2.11-.18-3.17-.16-2-.27-3-.23-2.13-.4-3.19c-.09-.55-.19-1.1-.3-1.64.34.33.67.66,1,1,.55.55,1.08,1.1,1.61,1.66,0,0,0,.06,0,.09a25.25,25.25,0,0,1,.48,2.57c.27,2,.4,4,.52,6s.15,4.13.12,6.2c0,1.26-.1,2.51-.2,3.77s-.17,2.41-.31,3.61-.34,2.37-.51,3.55-.39,2.61-.56,3.91h0l0-.15,0,.29c-.14,1.15-.29,2.29-.41,3.43s-.18,2.17-.26,3.25-.17,2.19-.2,3.28,0,2.13,0,3.19.12,2.27.21,3.4c0,.5.09,1,.15,1.49s.16,1.22.29,1.82.25,1.14.39,1.71.29,1,.45,1.51c.3,1,.6,1.94,1,2.89s.62,1.59,1,2.38M1644,199.4c-.21-.31-.41-.63-.6-1-.42-.73-.8-1.47-1.15-2.24a26.35,26.35,0,0,1-1.53-5.3c-.11-.86-.21-1.72-.29-2.58s-.1-1.81-.09-2.72a47.53,47.53,0,0,1,.49-5.46c.13-1,.29-2,.46-3,.2-1.17.39-2.34.52-3.52.06-.51.08-1,.11-1.54s.09-1.14.14-1.71c.09-1.08.15-2.17.21-3.25s.09-2.18.15-3.26.11-2.16.13-3.23c0-.58,0-1.15,0-1.72s0-1.09,0-1.62c0-1.09,0-2.17,0-3.26,0-2.16-.16-4.31-.38-6.46s-.47-4.61-.85-6.9c-.17-1-.36-2-.58-3l.25.24,1.27,1.32.87.88a7.84,7.84,0,0,0,.27,1.06c.16.53.3,1.07.42,1.61.24,1.09.44,2.19.61,3.3.26,2,.43,4,.56,6,.07,1,.12,2.08.14,3.11s0,2.06-.06,3.09l-.12,3.21c0,1-.11,2-.19,3s-.11,2.12-.18,3.18-.16,2.07-.25,3.11-.17,1.79-.25,2.68-.14,1.85-.24,2.77-.2,1.76-.29,2.64-.14,1.75-.24,2.62l-.39,3.17c-.07.55-.14,1.1-.19,1.65s-.09,1.05-.13,1.58c-.07,1,0,2.07,0,3.11,0,.51,0,1,0,1.53s.07,1,.12,1.53a20.14,20.14,0,0,0,.58,3.08c.21.8.46,1.58.74,2.35m-35-50.34-.09-.63c-.13-1.21-.24-2.42-.35-3.63s-.16-2.28-.23-3.42c-.13-2.4-.11-4.8-.19-7.21,0-1.17-.1-2.34-.17-3.5s-.14-2.31-.23-3.46-.27-2.58-.46-3.86c-.17-1.13-.36-2.27-.58-3.4s-.47-2.33-.73-3.49-.56-2.35-.85-3.52-.59-2.28-.91-3.41-.66-2.17-1-3.24c-.24-.74-.47-1.47-.71-2.2.77.53,1.56,1,2.34,1.57.19.37.4.72.57,1.1s.47,1,.69,1.5c.41,1,.76,1.95,1.1,2.94l.58,1.65c.18.52.34,1.06.5,1.59q.49,1.64,1,3.27c.32,1.1.55,2.23.78,3.35.27,1.28.49,2.57.68,3.86.15,1.08.28,2.16.41,3.25s.27,2.23.37,3.35c.2,2.25.19,4.51.25,6.76s0,4.58.1,6.87.12,4.66.3,7c.1,1.26.24,2.52.46,3.77.19,1.1.45,2.21.73,3.29s.62,2.4,1,3.59.71,2.16,1.13,3.23c-.43-.64-.84-1.29-1.25-1.94s-.88-1.6-1.29-2.42-.74-1.54-1.09-2.33a40.13,40.13,0,0,1-1.69-5.14c-.44-1.74-.84-3.49-1.12-5.27l0,.14m80-1.74c-1.09-.48-2.21-.89-3.34-1.27-2.23-.75-4.48-1.45-6.77-2-1.14-.28-2.29-.48-3.44-.68s-2.24-.37-3.36-.49-2.38-.25-3.57-.33-2.35-.11-3.52-.17-2.27-.16-3.41-.21-2.38-.15-3.58-.28-2.3-.27-3.45-.42c-.53-.06-1.07-.15-1.6-.18a12.83,12.83,0,0,1-1.64-.16,22,22,0,0,1-2.28-.49,15.46,15.46,0,0,1-1.5-.49c-.21-.08-.42-.17-.62-.27l-2.27-2.32.35.08a29.56,29.56,0,0,0,3.38.48c1.17.1,2.34.2,3.51.25,2.35.1,4.7.11,7.05.17,1.22,0,2.43,0,3.64.09s2.38.15,3.57.2c.88,0,1.77.06,2.65.12s1.86.15,2.79.3a50,50,0,0,1,5.4,1.18,42.05,42.05,0,0,1,5.32,1.89c1.76.8,3.52,1.62,5.22,2.56a27,27,0,0,1,2.47,1.63c.85.65,1.66,1.37,2.48,2.06.41.33.81.67,1.22,1-.47-.29-.94-.55-1.43-.79-1.08-.53-2.17-1-3.27-1.48M1634,184.92a22.52,22.52,0,0,0,.65,3.35c.14.45.28.9.44,1.34-.36-.55-.71-1.1-1-1.68-.7-1.26-1.34-2.54-1.92-3.85s-.91-2.41-1.3-3.63c-.2-.63-.35-1.27-.5-1.91s-.23-1.14-.33-1.72-.12-1.1-.17-1.65,0-1.17-.06-1.75c0-1.12-.09-2.24,0-3.35s.15-2.3.27-3.44.21-2.31.29-3.46.23-2.31.32-3.47.13-2.26.17-3.39.1-2.32.15-3.48.06-2.26.06-3.39,0-2.28,0-3.42-.06-2.27-.1-3.4-.13-2.22-.19-3.33-.14-2.25-.22-3.37c-.18-2.3-.53-4.58-.9-6.85-.1-.63-.22-1.25-.34-1.87.85.73,1.7,1.46,2.53,2.21l.4.37c0,.08,0,.16,0,.24.1.39.19.77.28,1.16.19.81.36,1.62.53,2.44.35,1.7.69,3.42,1,5.14.14,1,.24,2,.34,3.05s.22,2.16.29,3.24.16,2.28.2,3.42,0,2.24,0,3.36,0,2.21,0,3.32-.08,2.19-.15,3.28-.14,2.21-.19,3.32-.13,2.14-.21,3.22-.13,2.16-.19,3.24-.09,2.23-.17,3.34c-.14,2.2-.25,4.4-.3,6.6,0,1.11,0,2.22.05,3.33s.2,2.3.37,3.44m-8.18-5.8c-.4-.59-.76-1.19-1.13-1.79s-.72-1.22-1.06-1.84-.6-1.21-.88-1.82a39.26,39.26,0,0,1-1.7-4.53c-.26-.87-.5-1.74-.72-2.62-.09-.37-.19-.75-.26-1.12s-.14-.78-.2-1.17c-.13-1.15-.25-2.29-.33-3.45,0-.56,0-1.13-.07-1.71s-.07-1.09-.07-1.64c0-1.16,0-2.32,0-3.48s.09-2.37.17-3.56c.15-2.28.29-4.56.34-6.84,0-1.16,0-2.32,0-3.47s0-2.25-.06-3.38-.11-2.33-.21-3.49-.21-2.19-.32-3.29c-.24-2.39-.52-4.79-1-7.16-.4-2.12-.78-4.24-1.24-6.35l-.24-1,1.51,1.3,1,1.08.82.84c.12.39.25.78.37,1.17s.31,1,.45,1.52c.31,1.1.6,2.2.87,3.31a65.84,65.84,0,0,1,1.26,6.67s0,.06,0,.09c.15,1.12.29,2.23.38,3.36s.16,2.31.19,3.47.09,2.33.11,3.49,0,2.33,0,3.49,0,2.29,0,3.44-.1,2.35-.16,3.52-.1,2.34-.14,3.51-.14,2.37-.22,3.55-.07,2.3-.07,3.45,0,2.35,0,3.53c0,.53,0,1.07.07,1.6s.08,1.14.15,1.71c.16,1.24.4,2.48.67,3.7s.53,2.28.88,3.39.66,2,1,3l-.28-.4m29.92-47.05c2.24,0,4.49.11,6.73.25a35.11,35.11,0,0,1,3.53.45c1.09.17,2.16.41,3.24.64s1.9.42,2.84.67a52.52,52.52,0,0,1,5.15,1.83c.87.35,1.73.71,2.57,1.11s1.69.85,2.52,1.31,1.8,1.11,2.67,1.7a26.79,26.79,0,0,1,2.87,2.22c.4.35.78.73,1.18,1.09l1.32,1.14c.56.48,1.13.94,1.68,1.43l-.52-.44a17.93,17.93,0,0,0-1.5-1.09,30.11,30.11,0,0,0-3.2-1.88c-1.06-.56-2.15-1.06-3.23-1.57a32.32,32.32,0,0,0-3.16-1.31c-1.17-.42-2.34-.82-3.53-1.17s-2.48-.68-3.73-1-2.39-.49-3.59-.67-2.37-.27-3.56-.38-2.35-.25-3.52-.35-2.28-.13-3.41-.17c-2.37-.09-4.74-.11-7.1-.24-1.2-.07-2.39-.17-3.59-.29-.59-.05-1.18-.11-1.76-.2s-1.09-.19-1.63-.31l-.86-.2c-.75-.23-1.49-.49-2.23-.77-.49-.2-1-.4-1.5-.58-.66-.67-1.33-1.35-2-2l-.39-.39c.54.15,1.08.29,1.62.39l1.7.27c1.16.18,2.33.34,3.5.45.85.09,1.71.14,2.57.17s2,0,3,0l2.67,0,2.67,0m-25.21,52.49c-.17-.27-.33-.55-.49-.83q-1-1.8-1.86-3.69a40.42,40.42,0,0,1-1.62-4.68,48.35,48.35,0,0,1-1-4.92c-.07-.5-.13-1-.17-1.48s-.07-1.21-.08-1.82c0-1.14,0-2.28,0-3.42s0-2.25.12-3.38.2-2.35.3-3.52.13-2.28.2-3.42.16-2.36.23-3.54.09-2.36.12-3.55,0-2.33.06-3.5,0-2.34,0-3.51,0-2.3-.11-3.45a70.65,70.65,0,0,0-.79-7.13c-.15-1-.32-1.94-.5-2.91s-.41-1.91-.63-2.85c0-.16-.08-.33-.11-.49.55.55,1.1,1.08,1.67,1.61.1.35.19.7.29,1,.22.8.42,1.61.59,2.42.33,1.61.59,3.24.83,4.87.15,1.08.3,2.17.4,3.25s.19,2.19.28,3.28.21,2.3.29,3.44.13,2.27.18,3.41,0,2.27,0,3.41,0,2.25,0,3.37-.08,2.32-.1,3.48-.05,2.21-.1,3.31-.16,2.29-.23,3.44-.09,2.26-.19,3.38-.22,2.32-.24,3.48.05,2.38.1,3.57c0,.62,0,1.25.09,1.87s.14,1.3.23,1.95c0,0,0-.08,0-.13a30.37,30.37,0,0,0,1.9,6.73c.12.3.24.6.37.9m54-47c-.55-.35-1.1-.7-1.66-1-1-.59-2.07-1.14-3.14-1.63s-2.3-1-3.46-1.51-2.07-.85-3.13-1.22-2.43-.75-3.65-1.08-2.2-.61-3.31-.85a27.15,27.15,0,0,0-3.46-.58c-1.14-.1-2.29-.18-3.44-.22s-2.56-.1-3.84-.1-2.51,0-3.77,0-2.36.05-3.54.06a43.82,43.82,0,0,1-4.86-.4c-.83-.11-1.65-.24-2.47-.37s-1.51-.27-2.25-.46c-1-.28-1.91-.61-2.85-1-.46-.18-.93-.37-1.39-.57l-.72-.32-.45-.2c-.83-.78-1.67-1.53-2.49-2.32a2,2,0,0,1-.21-.2,28.76,28.76,0,0,0,3.18.61c1.14.16,2.29.25,3.44.34s2.29.17,3.44.24,2.31.12,3.46.15,2.35.08,3.52.12,2.34.1,3.5.18,2.39.15,3.59.25,2.32.24,3.48.39a60.51,60.51,0,0,1,6.91,1.43l.79.2a.45.45,0,0,0,.11,0l-.11,0-.28-.07.53.14h0l.09,0c.92.25,1.81.59,2.71.91s1.88.65,2.81,1a35.17,35.17,0,0,1,5.12,2.6c.64.39,1.26.79,1.89,1.19s1.44.89,2.17,1.32c.51.32,1,.64,1.52,1s.93.7,1.38,1.07l1.67,1.32-.79-.51m-8.9-8.14a28.89,28.89,0,0,0-3.14-1.59c-1.08-.46-2.2-.84-3.29-1.27s-2.12-.82-3.21-1.15-2.28-.69-3.42-1-2.37-.66-3.57-.89-2.32-.4-3.48-.54-2.37-.21-3.56-.31-2.28-.16-3.43-.21-2.39-.1-3.59-.14-2.28-.07-3.42-.13l-1.78-.13-1.66-.1c-1.17-.09-2.35-.19-3.52-.32a33.22,33.22,0,0,1-4.41-.82,18.8,18.8,0,0,1-2.59-1c-.67-.32-1.33-.66-2-1l-1.24-1.23c.62.17,1.24.31,1.86.44,1.12.23,2.24.44,3.36.6,1.74.24,3.47.48,5.22.61.84.06,1.7.06,2.54.07s1.81,0,2.71,0q3.43,0,6.87.17c1.16.06,2.31.16,3.45.28s2.42.26,3.62.43c.78.1,1.56.23,2.34.37s1.41.32,2.1.51c1.11.31,2.23.62,3.34,1s2.3.79,3.44,1.21a39.06,39.06,0,0,1,6.23,3l.22.13c.78.48,1.55,1,2.3,1.5s1.53,1,2.29,1.57,1.26.92,1.88,1.38c-.81-.51-1.64-1-2.47-1.48m-5.42-5.74c-1.07-.57-2.16-1.13-3.27-1.62s-2.13-.86-3.2-1.26-2.22-.78-3.34-1.14-2.41-.79-3.64-1.12-2.22-.5-3.34-.71-2.39-.4-3.59-.58a70.19,70.19,0,0,0-7.1-.52c-2.28-.1-4.57,0-6.85-.14-1.19-.06-2.36-.17-3.54-.33s-2.26-.3-3.38-.49c-1.33-.21-2.65-.48-4-.8a32.36,32.36,0,0,1-3.46-1.24c-.54-.22-1.07-.46-1.6-.67s-.89-.34-1.32-.54c-.5-.44-1-.89-1.52-1.32l-.35-.3.43.12c1.14.29,2.29.55,3.44.81s2.22.51,3.34.71,2.34.37,3.52.48,2.38.2,3.57.3l3.65.31c2.32.21,4.65.27,7,.45s4.8.44,7.18.84c1,.18,2,.41,3,.65s2.06.5,3.09.77,2.23.69,3.33,1.09c.53.19,1.06.38,1.58.6s1.15.51,1.73.78c1,.48,2,1,3,1.55s2.08,1.13,3.11,1.71l.58.34c.79.49,1.56,1,2.32,1.53l-.47-.26m-50.23,48h0l-.15-.25c-.76-1.31-1.46-2.63-2.09-4a45.28,45.28,0,0,1-2.09-6c-.57-2.18-1.11-4.36-1.47-6.58-.14-1.12-.24-2.25-.3-3.38s-.1-2.42-.11-3.63,0-2.3,0-3.45,0-2.3.06-3.45,0-2.26,0-3.39,0-2.35,0-3.52a66.09,66.09,0,0,0-.45-6.6c-.12-1.13-.22-2.26-.38-3.39s-.37-2.5-.6-3.75-.44-2.26-.72-3.37-.61-2.19-.92-3.28c-.46-1.62-1-3.22-1.58-4.81l.55.43c.72.56,1.44,1.11,2.14,1.68l1.44,1.21.24.71c.15.45.29.9.42,1.36.3,1,.55,2,.78,3.08.49,2.22.92,4.45,1.32,6.69.08.45.16.91.23,1.37.3,2.17.55,4.35.77,6.53.11,1.14.2,2.27.27,3.4s.1,2.31.12,3.46,0,2.32.07,3.48,0,2.31,0,3.46c-.08,2.29-.17,4.57-.2,6.85,0,1.16,0,2.33,0,3.49s.11,2.34.18,3.51.2,2.34.33,3.51c.07.61.15,1.22.25,1.83s.24,1.17.38,1.75.3,1.12.46,1.69.29,1,.46,1.56.4,1.17.61,1.75m20.14,23.75-.3-.35a14.13,14.13,0,0,1-1.21-1.83c-.39-.7-.74-1.41-1.08-2.14a28.87,28.87,0,0,1-1-2.88c-.15-.56-.29-1.13-.4-1.7s-.16-.91-.22-1.36c-.15-1.1-.28-2.2-.32-3.31s-.06-2.22,0-3.33.09-2.21.17-3.31.14-2.21.24-3.31c.18-2.17.29-4.34.44-6.51.07-1.09.17-2.17.24-3.26s.13-2.21.21-3.32c.16-2.19.23-4.38.27-6.57,0-1.15,0-2.3,0-3.45s-.1-2.21-.16-3.31-.13-2.22-.23-3.33-.18-2.12-.32-3.17c-.27-2.09-.64-4.17-1-6.24l2.06,1.84.12.55c.08.34.15.69.23,1,.18.77.36,1.55.52,2.32.31,1.45.59,2.91.81,4.38.3,2.17.57,4.35.77,6.54.1,1.07.19,2.15.23,3.23s0,2.11.06,3.17,0,2.22,0,3.33,0,2.18-.07,3.27c-.09,2.16-.14,4.33-.24,6.5,0,.92-.09,1.83-.14,2.75s-.09,1.87-.2,2.8-.29,2-.44,3-.29,2.25-.41,3.38-.25,2.27-.32,3.42a27.25,27.25,0,0,0,0,3.26c.06,1.13.22,2.26.39,3.38a19.93,19.93,0,0,0,.75,3.14c.14.46.3.9.46,1.35M1700,226.4c-.3-.61-.58-1.23-.85-1.86s-.46-1.15-.67-1.74c-.23-.75-.46-1.5-.64-2.26s-.39-1.81-.53-2.73c-.26-1.61-.42-3.25-.55-4.89-.13-2-.19-4-.18-6.06,0-.55,0-1.1,0-1.65s0-1.07-.08-1.59l-.09-1.57c0-.56-.06-1.13-.13-1.69,0-.09,0-.17,0-.26.47.66,1,1.33,1.45,2,.35.45.71.89,1.07,1.32a19.29,19.29,0,0,1,.46,2.5c.14,1,.28,1.9.4,2.86s.22,1.93.32,2.9.24,1.94.36,2.91.26,2,.41,3c.06.47.12.94.21,1.41s.19,1,.3,1.51.21,1,.33,1.47.22.91.37,1.36c.33,1,.71,2,1.13,3,.2.46.41.91.62,1.36s.44.92.69,1.36a27.68,27.68,0,0,0,1.71,2.73q.45.65.93,1.29c.29.38.6.75.91,1.12.46.52.94,1,1.45,1.52a15.21,15.21,0,0,1-1.61-.54l-.71-.39c-.28-.16-.54-.36-.81-.55-.46-.32-.89-.68-1.32-1a16.61,16.61,0,0,1-1.6-1.65c-.27-.33-.55-.66-.81-1s-.4-.56-.6-.84a28.78,28.78,0,0,1-1.88-3.27m9,6.23c-.66-.8-1.27-1.65-1.86-2.51-.33-.5-.66-1-1-1.53s-.63-1.16-.91-1.76c-.54-1.14-1-2.31-1.45-3.5a29,29,0,0,1-.72-2.89c-.21-1-.36-1.94-.49-2.91s-.25-2-.36-3-.22-1.9-.32-2.84-.15-1.57-.24-2.35-.21-1.51-.32-2.26c0-.22-.06-.44-.1-.65.41.49.81,1,1.2,1.48h0c.1.42.18.84.26,1.27.2.95.41,1.89.6,2.84s.36,1.86.54,2.79.41,1.9.62,2.85.41,1.9.67,2.84c.11.45.26.89.41,1.33s.37,1.12.56,1.67c.33,1,.7,1.93,1.1,2.88s.82,1.74,1.26,2.6,1,1.76,1.52,2.62a30.14,30.14,0,0,0,1.78,2.57,19,19,0,0,0,1.93,2.18l.29.26a15.35,15.35,0,0,1-1.39-.73c-.52-.33-1-.67-1.5-1s-.71-.65-1-1-.75-.81-1.1-1.24m9.82.51a13.4,13.4,0,0,1-.8-1.61c-.48-1.09-1-2.18-1.35-3.3-.27-.84-.52-1.69-.76-2.54-.12-.42-.24-.84-.37-1.26l.83,1.2c1,1.53,2.12,3,3.24,4.51s2.3,3,3.39,4.5c.51.73,1,1.49,1.49,2.23s1,1.51,1.57,2.26c.71,1,1.47,1.94,2.26,2.87a37.31,37.31,0,0,1-5.33-3.75,18,18,0,0,1-1.74-1.75c-.52-.62-1-1.24-1.49-1.9-.32-.48-.64-1-.94-1.46m-66-87.41-.22-.09-1.84-1.81h0a15,15,0,0,0,1.63.18c.54,0,1.07.1,1.61.17,1.17.15,2.35.29,3.53.42s2.36.2,3.54.26l3.46.18c1.14.06,2.29.07,3.43.12s2.43.15,3.65.24c2,.17,4,.43,5.93.73,1,.16,2,.37,3,.59s1.94.47,2.9.74c.71.2,1.43.4,2.14.62.87.27,1.72.58,2.57.92s1.58.64,2.36,1a25,25,0,0,1,2.26,1.12c.75.46,1.47.94,2.19,1.45a22,22,0,0,1,2.21,1.74c.68.62,1.34,1.25,2,1.86.39.35.77.71,1.15,1.07l-.74-.47a39,39,0,0,0-6.09-3.06c-1-.41-2.07-.78-3.11-1.17s-2.18-.76-3.29-1.07-2.27-.63-3.42-.91-2.16-.47-3.25-.67-2.13-.37-3.2-.52-2.3-.28-3.45-.39-2.23-.23-3.35-.3-2.28-.14-3.42-.19c-1,0-2-.08-3-.17s-1.85-.16-2.76-.31-1.92-.35-2.88-.56-1.65-.4-2.48-.62-1.38-.43-2.06-.68l-1-.41M1664,118l-.31-.16c-1-.54-2.1-1-3.18-1.51-.5-.22-1-.4-1.55-.6s-1.08-.42-1.63-.6c-1.19-.4-2.39-.76-3.6-1.09s-2.35-.66-3.53-1-2.33-.52-3.5-.74c-2.35-.44-4.73-.71-7.1-1-1.15-.12-2.31-.18-3.46-.29l-3.49-.35-3.6-.34c-1.17-.1-2.34-.23-3.5-.41-2.32-.38-4.6-.94-6.89-1.47-.64-.15-1.27-.3-1.91-.47s-1.33-.43-2-.67-1.28-.46-1.91-.71-1.34-.56-2-.84l-.27-.11-3-2.44.07,0h-.07l.06,0h0l.16,0-.14,0,1.64.45c.56.16,1.13.28,1.7.4,1.1.25,2.2.45,3.32.61,2.38.36,4.78.62,7.18.84,1.17.11,2.33.18,3.5.29l3.68.34c1.17.1,2.33.19,3.49.31s2.33.28,3.49.42c1.51.18,3,.39,4.5.66s3,.6,4.5,1a51.28,51.28,0,0,1,6.51,2.18c1.18.51,2.34,1.07,3.49,1.64s2.18,1.14,3.25,1.74,2.27,1.27,3.39,1.92c.6.37,1.21.74,1.79,1.14l.92.74m-21.67-12.56c1.07.4,2.14.8,3.21,1.22.62.24,1.23.51,1.83.78l-.42-.14c-1.12-.36-2.25-.71-3.38-1s-2.49-.67-3.75-1c-2.31-.53-4.66-.9-7-1.24-1.19-.17-2.38-.29-3.57-.41l-3.41-.37c-2.39-.24-4.78-.41-7.17-.69s-4.73-.59-7.06-1.09c-.81-.17-1.62-.35-2.42-.55l-2.32-.58c-.42-.12-.84-.23-1.25-.36l-1.4-.49-.67-.22a6.7,6.7,0,0,1-.76-.24c-.35-.15-.7-.32-1.06-.46l-1.27-1,.8.14c.55.11,1.09.23,1.64.33s1.18.22,1.77.31c1.13.17,2.26.35,3.38.55.63.11,1.26.22,1.89.31s1.12.15,1.68.22c1.14.16,2.28.37,3.42.44.6,0,1.2.06,1.79.11l1.76.14c.58,0,1.16.08,1.74.09s1.17,0,1.75,0c1.77.08,3.53.32,5.29.57a42.13,42.13,0,0,1,5.06,1.17c2.19.63,4.35,1.32,6.47,2.12l3.43,1.3m87.45,134c.13.48.25,1,.38,1.44,0,.11.06.21.1.32-.5-.63-1-1.26-1.49-1.9-.73-.95-1.38-2-2-3-.75-1.16-1.5-2.3-2.27-3.44-.68-1-1.38-2-2.08-2.94l-.28-.38c.38.23.77.47,1.14.72a22.31,22.31,0,0,1,2.23,1.75c.2.19.4.37.58.57a7.18,7.18,0,0,1,.6.74c.38.52.75,1.05,1.1,1.6.16.26.32.52.46.79s.29.58.42.88c.29.63.59,1.25.89,1.88a1.42,1.42,0,0,0,.08.18c0,.25.1.5.17.75m-3.19-17.82-.08-.12.09,0a.51.51,0,0,1,0,.13l0,0m-17.69-49.92c-.78-.65-1.61-1.25-2.44-1.85s-1.67-1.17-2.53-1.72a20.31,20.31,0,0,0-2.87-1.45c-.92-.4-1.86-.75-2.8-1.1s-1.6-.58-2.42-.84l-2.25-.67c-.86-.26-1.73-.48-2.59-.7s-1.46-.38-2.18-.57c-2-.55-4-1.12-6-1.53s-4.1-.73-6.14-1.1c-.78-.14-1.56-.31-2.33-.48l-2.45-.49c-1.54-.32-3.06-.69-4.59-1.07-.93-.28-1.85-.6-2.76-.94a12.5,12.5,0,0,1-1.4-.63c-.21-.12-.44-.22-.66-.33l-.59-.66,1.29.27c1.09.22,2.18.42,3.28.56,2.23.26,4.47.48,6.7.7a60.45,60.45,0,0,1,6.56.89c2.19.47,4.38,1,6.56,1.48,1.38.32,2.76.64,4.13,1s2.49.66,3.74,1a37.76,37.76,0,0,1,8.62,3.28c.71.44,1.4.9,2.08,1.39a15.2,15.2,0,0,1,1.9,1.69q.54.57,1,1.17c.33.39.63.8,1,1.21.58.75,1.15,1.51,1.69,2.29.24.46.47.92.7,1.38a23.27,23.27,0,0,0-2.26-2.18m-3.6-7.42q-.66-.47-1.35-.9c-.5-.32-1-.64-1.53-.91a41.65,41.65,0,0,0-6.19-2.53c-2.19-.71-4.4-1.37-6.61-2-1.08-.3-2.16-.56-3.24-.83l-3.31-.8c-1-.25-2.08-.52-3.12-.74s-2.25-.43-3.39-.58-2.16-.25-3.25-.36-2.25-.26-3.38-.37-2.14-.23-3.2-.38-2.29-.37-3.43-.61-2-.41-3-.68l-1-.31-.43-.14c-.77-.84-1.54-1.69-2.32-2.52h0c1.13.3,2.27.54,3.41.76a32.71,32.71,0,0,0,3.26.44c1.11.1,2.23.14,3.35.17s2.33.09,3.5.15,2.19.12,3.28.21,2.33.18,3.49.3,2.19.25,3.27.41,2.16.3,3.22.51c1.55.3,3.08.64,4.6,1,.9.27,1.79.56,2.67.86s1.93.63,2.87,1,1.78.75,2.65,1.18,1.63.86,2.43,1.32,1.49.95,2.21,1.47a18.25,18.25,0,0,1,1.83,1.57c.56.58,1.1,1.18,1.68,1.74s1.15,1.14,1.72,1.73l.56.6.1.17c-.41-.36-.87-.68-1.31-1M1603.73,94.93q1.5,0,3,0c2.1,0,4.19,0,6.29.12,1.26,0,2.52.15,3.78.26.61.06,1.23.13,1.83.23s1.35.23,2,.38c1,.22,2,.46,3,.73s2,.57,3,.9,1.92.67,2.88,1l3,1.12c1.52.59,3,1.27,4.49,2-1.82-.65-3.66-1.22-5.52-1.73q-.93-.27-1.86-.51c-.57-.16-1.14-.28-1.7-.4s-1.23-.21-1.84-.3l-1.65-.27c-1.13-.17-2.27-.25-3.42-.31-.57,0-1.15-.07-1.72-.13l-1.77-.21c-1.21-.13-2.43-.22-3.63-.42-.52-.08-1-.2-1.54-.28l-2-.32c-1.13-.18-2.25-.43-3.39-.64s-2.3-.38-3.44-.6l-1.71-.35c-.56-.11-1.13-.19-1.7-.29l-.35-.06.81,0,3.06.08m-.24,55.1c-.28-.56-.56-1.11-.81-1.67s-.53-1.22-.77-1.83-.43-1.1-.62-1.65c-.42-1.16-.81-2.34-1.19-3.52-.62-2-1.23-4-1.81-6s-1.17-4.12-1.75-6.18c-.27-.94-.55-1.89-.76-2.85s-.42-2-.6-3c-.37-2.07-.78-4.14-1.21-6.2a25.51,25.51,0,0,1-.49-3c-.1-1-.17-2-.23-3-.06-1.41-.09-2.83-.07-4.25,0-.72.06-1.44.09-2.17l.09-2.31c0-.59,0-1.19,0-1.78.22.6.45,1.21.65,1.83.36,1,.7,2.12,1,3.18s.66,2.1,1,3.16.55,2.12.79,3.19.48,2.2.71,3.31c.43,2.16.78,4.34,1.13,6.52l0,.2,0,.33s0-.08,0-.12c.13.86.25,1.71.4,2.57.13.7.25,1.4.35,2.11.16,1.12.29,2.25.42,3.38.07.65.15,1.29.26,1.93s.2,1.16.29,1.74c0,.12,0,.25,0,.38v.06l0,.16,0-.07.12.78c.16,1.11.33,2.21.5,3.31s.4,2.21.62,3.31c.43,2.15.88,4.31,1.48,6.42.33,1.19.72,2.35,1.15,3.49a3.24,3.24,0,0,1-.17-.32c-.26-.48-.51-1-.76-1.46" fill="#c5a45a"/><path d="M1720.78,227l.15.07-.15-.07h0" fill="#c5a45a"/><path d="M1668.16,160.59l-.25-.07h0l.28.08" fill="#c5a45a"/><path d="M1607.58,103.36h0" fill="#c5a45a"/><path d="M1651,204.12a1.17,1.17,0,0,0,0-.11s0-.09,0-.13l.1.24" fill="#c5a45a"/><path d="M1600.54,134.41s0,0,0-.06l0,.15s0-.06,0-.09" fill="#c5a45a"/></svg>