<svg xmlns="http://www.w3.org/2000/svg" viewBox="0 0 2200 270"><title>blok-6</title><path d="M758.09,180.15l.08-.06h0Z" fill="lime"/><path d="M695.69,61.79c-1.09-.25-2.19-.49-3.29-.72s-2.13-.43-3.18-.67l-3.42-.77c-1.15-.25-2.31-.46-3.46-.68L679,58.26c-1.11-.23-2.23-.43-3.36-.62-2.22-.37-4.43-.79-6.66-1.11-1.74-.25-3.48-.5-5.22-.73a.8.8,0,0,0-.64-.09l-1-.14c-2.3-.3-4.6-.7-6.91-.86-1.1-.07-2.2,0-3.3,0l-1.52,0c-.52,0-1,0-1.55,0a2.61,2.61,0,0,0-.48.05,2.88,2.88,0,0,0-.49.18,1.38,1.38,0,0,0-.48.48,1.34,1.34,0,0,0-.12.31,1,1,0,0,0,0,.35,5,5,0,0,0,.08.56,2,2,0,0,0,.12.34c.07.19.15.38.23.56.23.49.48,1,.74,1.44.54,1,1.08,2,1.59,3S651,64,651.46,65s.88,1.94,1.33,2.91c.65,1.43,1.34,2.84,2,4.27.41,1,.77,2,1.1,3s.65,2.18.93,3.29.51,2.18.73,3.28.44,2.24.65,3.36c0,.1,0,.19.05.29-.09-.3-.18-.6-.28-.89-.35-1.09-.73-2.18-1-3.28s-.73-2.36-1.18-3.51-1-2.38-1.53-3.56A65.67,65.67,0,0,0,651,67.88c-.58-1-1.2-2-1.87-2.94a18.25,18.25,0,0,0-2.46-2.74c-.42-.38-.87-.75-1.31-1.12s-1-.81-1.5-1.17a7.42,7.42,0,0,0-1.7-.88,9.81,9.81,0,0,0-1.66-.41,14.45,14.45,0,0,0-3.52-.34c-1.17.07-2.33.23-3.48.4s-2.23.39-3.34.63c-.55.13-1.11.28-1.65.44s-1.14.39-1.71.59c-1.06.38-2.15.71-3.21,1.12-.64.24-1.28.5-1.91.79s-1,.47-1.49.72c-1,.54-2.09,1.1-3.12,1.67-.56.3-1.12.61-1.67.93s-1,.64-1.48,1c-1,.67-2,1.36-3,2.08s-2.09,1.52-3.08,2.35-1.71,1.52-2.53,2.31-1.84,1.73-2.77,2.58-1.86,1.67-2.76,2.54-1.68,1.62-2.57,2.37c-.66.56-1.34,1.1-2,1.66s-1.37,1.15-2.07,1.72c-1.18.87-2.38,1.7-3.55,2.58l-2,1.5c-.68.5-1.38,1-2.09,1.44a1.08,1.08,0,0,0-.48.61v0a1.05,1.05,0,0,0,.1.78,1,1,0,0,0,.28.3.94.94,0,0,0,.72,1,34.16,34.16,0,0,1,4.89,1.29,23.19,23.19,0,0,1,2.95,1.58c1,.62,2,1.25,3,2a31.35,31.35,0,0,1,2.83,2.46,28.8,28.8,0,0,1,2.53,2.88c.64.86,1.25,1.73,1.82,2.63s1.16,1.89,1.73,2.84,1.2,2,1.83,3,1.2,1.77,1.84,2.63,1.34,1.8,2,2.71,1.47,2,2.25,3,1.38,1.63,2.12,2.41,1.59,1.59,2.43,2.35c.61.56,1.22,1.12,1.86,1.65a16.53,16.53,0,0,0,2.26,1.52,4.06,4.06,0,0,0,1.68.61,4.38,4.38,0,0,0,1.75-.35c.88-.32,1.71-.71,2.55-1.1s2-.72,3-1.21a6.34,6.34,0,0,0,.62-.37,8.93,8.93,0,0,1,.83-.39c.49-.21,1-.41,1.46-.63a30.58,30.58,0,0,0,2.77-1.6,25.87,25.87,0,0,0,2.72-1.83l2.24-1.78c.73-.58,1.44-1.18,2.18-1.75.91-.7,1.82-1.4,2.72-2.12s1.72-1.38,2.56-2.1c.38-.33.74-.68,1.11-1l1.24-1.08,2.61-2.19,1.33-1.14-.56.73c-.63.81-1.25,1.64-1.89,2.44-.36.45-.73.9-1.1,1.34s-.74.83-1.11,1.24c-.66.72-1.36,1.41-2.06,2.09-1.42,1.37-2.82,2.76-4.32,4s-3,2.4-4.48,3.57c-.89.64-1.78,1.28-2.7,1.88s-1.82,1.17-2.72,1.76-1.72,1.15-2.6,1.69c-.43.26-.86.53-1.31.77s-.91.46-1.38.67l-.27.12-.54.19a4.34,4.34,0,0,0-.5.2,1.12,1.12,0,0,0-.59.69,1.45,1.45,0,0,0,0,.3c0,.59.52.93.94,1.25.2.16.42.3.63.46.83.58,1.65,1.18,2.47,1.77s1.56,1.09,2.35,1.63,1.55,1.15,2.36,1.69c1.73,1.16,3.53,2.21,5.34,3.26s3.76,2.14,5.67,3.17,3.68,2,5.55,2.9c1,.47,1.91.93,2.86,1.38s1.93.92,2.9,1.36c2,.9,4,1.69,6.09,2.46l2.88,1,1.46.53c.45.16.89.34,1.35.48q.31.09.63.15c.21,0,.41,0,.62.06a3.19,3.19,0,0,0,.54,0l1.79-.26a27.73,27.73,0,0,0,3.12-.74c1-.26,2-.48,3-.73s2.12-.56,3.17-.88,2-.66,3.06-1,2-.67,3-1a61.61,61.61,0,0,0,5.94-2.49c1.94-.94,3.83-2,5.7-3.05s3.68-2.06,5.52-3.07,3.81-2.1,5.66-3.24,3.42-2.36,5.08-3.61c.77-.58,1.55-1.15,2.33-1.72l-.52,1c-.24.45-.5.88-.75,1.32s-.45.77-.69,1.15-.52.85-.8,1.25-.61.89-.94,1.32l-.88,1.17c-.66.84-1.31,1.68-2,2.5s-1.55,1.81-2.36,2.69-1.63,1.73-2.48,2.56-1.59,1.5-2.4,2.24c-1.07,1-2.15,1.95-3.26,2.88-1,.81-1.94,1.6-2.93,2.38-.69.47-1.37,1-2.06,1.41s-1.53,1-2.28,1.57-1.5,1-2.28,1.53l-1.09.69c-.32.2-.63.43-.94.65s-.76.52-1.13.8l-1.14.92a1,1,0,0,0-.29.45.88.88,0,0,0,.08.69,1.09,1.09,0,0,0,.52.67c1.05.48,2.12.94,3.18,1.4s2,.88,2.93,1.36,2,1,3,1.53,1.89,1,2.85,1.52,1.94,1.06,2.9,1.6l3,1.61c1.94,1.06,3.85,2.15,5.75,3.27s4,2.31,6,3.47l5.87,3.43c1.9,1.12,3.84,2.15,5.79,3.18,1,.52,2,1.07,2.93,1.6s1.89,1,2.85,1.44c.43.22.87.42,1.31.63a1.77,1.77,0,0,0,.31.15,3,3,0,0,0,.41.18,2.81,2.81,0,0,0,.49.09,4.92,4.92,0,0,0,1.27-.11,17.78,17.78,0,0,0,3.21-.9,30.9,30.9,0,0,0,3.22-1.43,27.35,27.35,0,0,0,2.92-1.59c.85-.55,1.67-1.13,2.48-1.72s1.4-1.06,2.11-1.58q2.26-1.71,4.52-3.43c1-.78,2-1.56,3-2.36s1.68-1.41,2.5-2.14c1.68-1.48,3.35-3,5-4.53.79-.78,1.55-1.59,2.31-2.41s1.59-1.72,2.37-2.61,1.39-1.66,2.1-2.48c.55-.65,1.13-1.27,1.69-1.91-.43.66-.88,1.3-1.33,1.95-.67,1-1.36,1.92-2,2.89s-1.43,2-2.13,3.08c-1.32,1.92-2.62,3.85-4,5.72s-2.87,3.79-4.26,5.71c-.52.71-1,1.41-1.56,2.11l-2.15,2.7a32.18,32.18,0,0,1-2.31,2.63c-.84.83-1.71,1.62-2.58,2.41s-1.64,1.53-2.52,2.22h0c-.38.28-.76.54-1.15.8a10.9,10.9,0,0,0-1,.71l-.09.11a1.18,1.18,0,0,0-.28.47v0a1.56,1.56,0,0,0,0,.68,2.05,2.05,0,0,0,.92,1.05,10,10,0,0,0,1.89.92c.63.26,1.27.5,1.91.74,1.05.39,2.12.73,3.18,1.1s2.27.77,3.4,1.17c2.2.77,4.41,1.53,6.65,2.2s4.57,1.35,6.86,2,4.56,1.25,6.86,1.85,4.54,1.2,6.83,1.74,4.67,1.09,7,1.7l.51.13a1.08,1.08,0,0,0,.44.22.92.92,0,0,0,.37,0c.68.18,1.36.36,2,.56,1.15.33,2.3.66,3.46,1l.12,0a1.08,1.08,0,0,0,.18.11.86.86,0,0,0,.55.08c.86.24,1.73.47,2.6.68,1.15.28,2.31.5,3.48.71s2.48.36,3.73.5,2.29.2,3.43.25,2.45.06,3.67,0a25.91,25.91,0,0,0,3.72-.47l1.82-.36c.56-.11,1.11-.26,1.66-.41s1.21-.39,1.81-.59,1-.38,1.56-.58a36.8,36.8,0,0,0,3.45-1.56c.51-.27,1-.59,1.49-.9s1-.63,1.45-1a27.88,27.88,0,0,0,2.85-2.36c.44-.41.88-.84,1.29-1.29a15.68,15.68,0,0,0,1.17-1.49c.65-.93,1.33-1.83,2-2.76a24.49,24.49,0,0,0,1.67-2.9c.5-1,1-2.05,1.36-3.11.16-.4.3-.81.44-1.22l.46.27,2.59,1.54,2.61,1.49c1.76,1,3.57,1.93,5.37,2.87.86.45,1.71.92,2.56,1.39l1.37.72,1.91,1.07c1.2.67,2.4,1.32,3.62,2s2.39,1.15,3.6,1.7,2.37,1.06,3.58,1.56,2.5,1,3.76,1.49c2.41.92,4.82,1.86,7.24,2.76q2.93,1.1,5.87,2.13c.46.16.91.32,1.37.46a5.41,5.41,0,0,0,.69.19,2.92,2.92,0,0,0,1.14,0,1.44,1.44,0,0,0,.87-.66,1.14,1.14,0,0,0,.15-.36v-.05a1.34,1.34,0,0,0,0-.66,1.94,1.94,0,0,0-.37-.78v-.05a1.88,1.88,0,0,0-.14-.42c-.05-.16-.08-.32-.13-.48s-.15-.56-.22-.84a3,3,0,0,0-.15-.42,2.14,2.14,0,0,0-.21-.43,2.06,2.06,0,0,0-.59-.55,4.81,4.81,0,0,0-.94-.46c-.36-.16-.73-.3-1.1-.45l-1-.4c-1.52-.72-3-1.43-4.55-2.13-.91-.42-1.83-.84-2.76-1.24l-2.57-1.06c-1.8-.76-3.58-1.56-5.38-2.33s-3.65-1.56-5.46-2.37-3.58-1.67-5.33-2.57l-5-2.54c-1.71-.86-3.44-1.69-5.15-2.55l-4.57-2.32c.23-.35.46-.69.66-1.06a19.47,19.47,0,0,0,1.41-3.25c.35-1.11.64-2.24.89-3.38s.53-2.3.72-3.46a34.52,34.52,0,0,0,.31-3.66c.07-1.17.1-2.35.09-3.52s-.07-2.25-.17-3.37a26.82,26.82,0,0,0-.64-3.56c-.26-1.12-.51-2.24-.79-3.35s-.61-2.25-1-3.36-.73-2.23-1.15-3.32-.84-2.21-1.23-3.32-.81-2.28-1.28-3.39c-.28-.65-.58-1.29-.89-1.93l0-.21a.91.91,0,0,0-.32-.5l-.31-.6a30.45,30.45,0,0,0-1.9-3c-.63-.93-1.25-1.88-1.91-2.79s-1.4-1.95-2.12-2.92c-.11-.16-.24-.32-.36-.47a.87.87,0,0,0-.35-.43c-.54-.65-1.11-1.27-1.68-1.89-1.56-1.7-3.23-3.28-4.84-4.92q-1.21-1.22-2.46-2.37c-.85-.77-1.71-1.51-2.58-2.25s-1.81-1.49-2.75-2.19l-2.62-1.94c-.87-.68-1.75-1.35-2.61-2s-2-1.56-3-2.3-1.87-1.31-2.83-1.93c-.46-.3-.93-.59-1.41-.86a17,17,0,0,0-1.57-.84,15.07,15.07,0,0,0-1.68-.67,1.88,1.88,0,0,0-.91-.06,1.15,1.15,0,0,0-.79.55,2.29,2.29,0,0,0-.23.84c-.11.89-.15,1.8-.24,2.7s-.25,1.79-.34,2.7-.17,1.75-.27,2.62c-.14,1.13-.31,2.26-.53,3.38s-.45,2.39-.65,3.59a64,64,0,0,1-1.38,6.72c-.5,1.79-1,3.58-1.55,5.35-.28.88-.55,1.76-.88,2.63s-.66,1.73-1,2.59c-.7,1.65-1.45,3.27-2.16,4.91.15-.67.31-1.34.46-2,.23-1,.43-2,.62-3.07s.35-2,.45-3,.2-2.06.3-3.09c.3-2.37.58-4.74.79-7.12.1-1.1.19-2.2.24-3.3s.11-2.32.11-3.48,0-2.39,0-3.59,0-2.41-.13-3.61c-.18-2.43-.39-4.85-.76-7.26-.17-1.14-.41-2.25-.67-3.37A5.69,5.69,0,0,0,800,104a3.18,3.18,0,0,0-.54-.67,2.65,2.65,0,0,0-.26-.21c-.28-.21-.56-.41-.85-.59-1.92-1.17-3.9-2.24-5.91-3.24s-4.11-2-6.12-3.13l-3-1.63c-1-.55-2.06-1.11-3.08-1.69s-1.91-1.11-2.87-1.65-2.08-1.13-3.15-1.63-2.05-1-3.09-1.43-2-1-3.1-1.39c-2.19-.91-4.39-1.79-6.63-2.56s-4.38-1.43-6.58-2.13-4.4-1.37-6.62-2c-1.1-.29-2.19-.62-3.28-.93s-2.23-.57-3.36-.8-2.26-.45-3.38-.71-2.21-.5-3.32-.77-2.15-.57-3.24-.77c-.2,0-.4-.07-.6-.08a1.92,1.92,0,0,0-1.07.25,1.4,1.4,0,0,0-.63.85l0,.14a3.45,3.45,0,0,0,0,.85c0,.53.08,1.06.15,1.58.12.86.28,1.71.43,2.55s.27,1.61.39,2.42c.31,2.24.57,4.5.86,6.74s.62,4.73.88,7.09.54,4.67.64,7,.09,4.71.16,7.06c0,.69,0,1.37.05,2.05-.15-.67-.3-1.34-.46-2-.53-2.27-1-4.56-1.57-6.83s-1.14-4.32-1.75-6.47-1.36-4.49-2.11-6.72c-.34-1-.67-2.06-1-3.08s-.86-2.31-1.31-3.46c-.86-2.18-1.79-4.33-2.72-6.48s-1.74-4-2.75-5.93a29.1,29.1,0,0,0-1.69-2.84,9.19,9.19,0,0,0-1.11-1.38A11.12,11.12,0,0,0,715,68.26a13.74,13.74,0,0,0-2.72-1.53c-1.11-.48-2.23-.91-3.37-1.34s-2-.73-3.1-1l-3.38-1C700.19,62.74,697.93,62.3,695.69,61.79ZM830.85,202.57h0l0,0Z" fill="#fff"/><path d="M623.11,91.35l.22,0h0l-.25,0" fill="#c5a45a"/><path d="M642.87,115.23l.17-.13,0,0-.2.15" fill="#c5a45a"/><path d="M758.17,180.09h0l-.07.06Z" fill="#c5a45a"/><path d="M695.69,61.79c-1.09-.25-2.19-.49-3.29-.72s-2.13-.43-3.18-.67l-3.42-.77c-1.15-.25-2.31-.46-3.46-.68L679,58.26c-1.11-.23-2.23-.43-3.36-.62-2.22-.37-4.43-.79-6.66-1.11-1.74-.25-3.48-.5-5.22-.73a.8.8,0,0,0-.64-.09l-1-.14c-2.3-.3-4.6-.7-6.91-.86-1.1-.07-2.2,0-3.3,0l-1.52,0c-.52,0-1,0-1.55,0a2.61,2.61,0,0,0-.48.05,2.88,2.88,0,0,0-.49.18,1.38,1.38,0,0,0-.48.48,1.34,1.34,0,0,0-.12.31,1,1,0,0,0,0,.35,5,5,0,0,0,.08.56,2,2,0,0,0,.12.34c.07.19.15.38.23.56.23.49.48,1,.74,1.44.54,1,1.08,2,1.59,3S651,64,651.46,65s.88,1.94,1.33,2.91c.65,1.43,1.34,2.84,2,4.27.41,1,.77,2,1.1,3s.65,2.18.93,3.29.51,2.18.73,3.28.44,2.24.65,3.36a2.93,2.93,0,0,0,.05.29c-.09-.3-.18-.6-.28-.89-.35-1.09-.73-2.18-1-3.28s-.73-2.36-1.18-3.51-1-2.38-1.53-3.56A65.67,65.67,0,0,0,651,67.88c-.58-1-1.2-2-1.87-2.93a17.85,17.85,0,0,0-2.46-2.75c-.42-.38-.87-.75-1.31-1.12s-1-.81-1.5-1.17a7.42,7.42,0,0,0-1.7-.88,9.81,9.81,0,0,0-1.66-.41,14.45,14.45,0,0,0-3.52-.34c-1.17.07-2.33.23-3.48.4s-2.23.39-3.34.63c-.55.13-1.11.28-1.65.44s-1.14.39-1.71.59c-1.06.38-2.15.71-3.21,1.12-.64.24-1.28.5-1.91.79s-1,.47-1.49.72c-1,.54-2.09,1.1-3.12,1.67-.56.3-1.12.61-1.67.93s-1,.64-1.48,1c-1,.67-2,1.36-3,2.08s-2.09,1.52-3.08,2.35-1.71,1.52-2.53,2.31-1.84,1.73-2.77,2.58-1.86,1.67-2.76,2.54-1.68,1.62-2.57,2.37c-.66.56-1.34,1.1-2,1.66s-1.37,1.15-2.07,1.72c-1.18.87-2.38,1.7-3.55,2.58l-2,1.5c-.68.5-1.38,1-2.09,1.44a1.08,1.08,0,0,0-.48.61v0a1.05,1.05,0,0,0,.1.78,1,1,0,0,0,.28.3.94.94,0,0,0,.72,1,34.16,34.16,0,0,1,4.89,1.29,23.19,23.19,0,0,1,2.95,1.58c1,.62,2,1.25,3,2a31.35,31.35,0,0,1,2.83,2.46,28.8,28.8,0,0,1,2.53,2.88c.64.86,1.25,1.73,1.82,2.63s1.16,1.89,1.73,2.84,1.2,2,1.83,3,1.2,1.77,1.84,2.63,1.34,1.8,2,2.71,1.47,2,2.25,3,1.38,1.63,2.12,2.41,1.59,1.59,2.43,2.35c.61.56,1.22,1.12,1.86,1.65a15.67,15.67,0,0,0,2.26,1.52,4.06,4.06,0,0,0,1.68.61,4.38,4.38,0,0,0,1.75-.35c.88-.32,1.71-.71,2.55-1.1a31.67,31.67,0,0,0,3-1.21,6.34,6.34,0,0,0,.62-.37,8.93,8.93,0,0,1,.83-.39c.49-.21,1-.41,1.46-.63a30.58,30.58,0,0,0,2.77-1.6,25.87,25.87,0,0,0,2.72-1.83l2.24-1.78c.73-.58,1.44-1.18,2.18-1.75.91-.7,1.82-1.4,2.72-2.12s1.72-1.38,2.56-2.1c.38-.33.74-.68,1.11-1l1.24-1.08,2.61-2.19,1.33-1.14-.56.73c-.63.81-1.25,1.64-1.89,2.44l-1.1,1.35c-.36.42-.74.82-1.11,1.23-.66.72-1.36,1.41-2.06,2.09-1.42,1.37-2.82,2.76-4.32,4s-3,2.4-4.48,3.57c-.89.65-1.78,1.28-2.7,1.88s-1.82,1.17-2.72,1.76-1.72,1.16-2.6,1.69c-.43.27-.86.53-1.31.77s-.91.46-1.38.67l-.27.12-.54.19a4.34,4.34,0,0,0-.5.2,1.12,1.12,0,0,0-.59.69,1.45,1.45,0,0,0,0,.3c0,.59.52.93.94,1.25.2.16.42.3.63.46.83.58,1.65,1.18,2.47,1.77s1.56,1.09,2.35,1.63,1.55,1.15,2.36,1.69c1.73,1.16,3.53,2.21,5.34,3.26s3.76,2.14,5.67,3.17,3.68,2,5.55,2.9c1,.47,1.91.93,2.86,1.38s1.93.92,2.9,1.36c2,.9,4,1.7,6.09,2.46l2.88,1,1.46.53c.45.16.89.34,1.35.48q.31.09.63.15c.21,0,.41,0,.62.06a3.19,3.19,0,0,0,.54,0l1.79-.26a27.73,27.73,0,0,0,3.12-.74c1-.26,2-.48,3-.73s2.12-.56,3.17-.88,2-.66,3.06-1,2-.67,3-1a61.61,61.61,0,0,0,5.94-2.49c1.94-.94,3.83-2,5.7-3.05s3.68-2.06,5.52-3.07,3.81-2.1,5.66-3.24,3.42-2.36,5.08-3.61c.77-.58,1.55-1.15,2.33-1.72l-.52,1c-.24.45-.5.88-.75,1.32s-.45.77-.69,1.15-.52.85-.8,1.25-.61.89-.94,1.32l-.88,1.17c-.66.84-1.31,1.68-2,2.5s-1.55,1.81-2.36,2.69-1.63,1.73-2.48,2.56-1.59,1.5-2.4,2.24c-1.07,1-2.15,1.95-3.26,2.88-1,.81-1.94,1.6-2.93,2.38-.69.47-1.37,1-2.06,1.41s-1.53,1-2.28,1.57-1.51,1-2.28,1.53l-1.09.69c-.32.2-.63.43-.95.65s-.75.52-1.12.8l-1.14.92a1,1,0,0,0-.29.45.88.88,0,0,0,.08.69,1.09,1.09,0,0,0,.52.67c1.05.48,2.12.94,3.18,1.4s2,.88,2.93,1.36,2,1,3,1.53l2.84,1.52c1,.52,1.95,1.06,2.91,1.6l3,1.61c1.94,1.06,3.85,2.15,5.75,3.27s4,2.31,6,3.47l5.87,3.43c1.9,1.12,3.84,2.15,5.79,3.18,1,.52,2,1.07,2.93,1.6s1.89,1,2.85,1.44l1.31.64.31.14a3,3,0,0,0,.41.18,2.81,2.81,0,0,0,.49.09,4.52,4.52,0,0,0,1.27-.11,17.78,17.78,0,0,0,3.21-.9,30.9,30.9,0,0,0,3.22-1.43,27.35,27.35,0,0,0,2.92-1.59c.85-.55,1.67-1.13,2.48-1.72s1.4-1.06,2.11-1.58q2.26-1.71,4.52-3.43c1-.78,2-1.56,3-2.36s1.68-1.41,2.5-2.14c1.68-1.48,3.35-3,5-4.53.79-.78,1.55-1.59,2.31-2.41s1.59-1.72,2.37-2.61,1.39-1.65,2.1-2.48c.55-.65,1.13-1.27,1.69-1.91-.43.66-.88,1.3-1.33,1.95-.67,1-1.36,1.92-2,2.89s-1.43,2-2.13,3.08c-1.32,1.92-2.62,3.85-4,5.72s-2.87,3.79-4.26,5.71c-.52.71-1,1.41-1.56,2.11l-2.15,2.7a32.18,32.18,0,0,1-2.31,2.63c-.84.83-1.71,1.62-2.58,2.41s-1.64,1.53-2.52,2.22h0c-.38.28-.76.54-1.15.8a10.9,10.9,0,0,0-1,.71l-.09.11a1.18,1.18,0,0,0-.28.47v0a1.56,1.56,0,0,0,0,.68,2.05,2.05,0,0,0,.92,1.05,10,10,0,0,0,1.89.92c.63.26,1.27.5,1.91.74,1.05.39,2.12.73,3.18,1.1s2.27.77,3.4,1.17c2.2.77,4.41,1.53,6.65,2.2s4.57,1.35,6.86,2,4.56,1.25,6.86,1.85,4.54,1.2,6.83,1.74,4.67,1.09,7,1.7l.51.13a1,1,0,0,0,.44.22.92.92,0,0,0,.37,0c.68.18,1.36.36,2,.56,1.15.33,2.3.66,3.46,1l.12,0a1.08,1.08,0,0,0,.18.11.86.86,0,0,0,.55.08c.86.24,1.73.47,2.6.68,1.15.28,2.31.5,3.48.71s2.48.36,3.73.5,2.29.2,3.43.25,2.45.06,3.67,0a25.91,25.91,0,0,0,3.72-.47l1.82-.36c.56-.11,1.11-.26,1.66-.41s1.21-.39,1.81-.59,1-.38,1.56-.58a36.8,36.8,0,0,0,3.45-1.56c.51-.27,1-.59,1.49-.9s1-.63,1.45-1a27.88,27.88,0,0,0,2.85-2.36c.44-.41.88-.84,1.29-1.29a15.68,15.68,0,0,0,1.17-1.49c.65-.93,1.33-1.83,2-2.76a24.49,24.49,0,0,0,1.67-2.9c.5-1,1-2.05,1.36-3.11.16-.4.3-.81.44-1.22l.46.27,2.59,1.54,2.61,1.49c1.76,1,3.57,1.93,5.37,2.87.86.45,1.71.92,2.56,1.39l1.37.72,1.91,1.07c1.2.67,2.4,1.32,3.62,2s2.39,1.15,3.6,1.7,2.37,1.06,3.58,1.56,2.5,1,3.76,1.49c2.41.92,4.82,1.86,7.24,2.76q2.93,1.1,5.87,2.13l1.37.47c.23.07.45.13.69.18a2.92,2.92,0,0,0,1.14,0,1.44,1.44,0,0,0,.87-.66,1.14,1.14,0,0,0,.15-.36v-.05a1.34,1.34,0,0,0,0-.66,1.94,1.94,0,0,0-.37-.78v-.05a2.07,2.07,0,0,0-.14-.42c-.05-.16-.08-.32-.13-.48s-.15-.56-.22-.84a3,3,0,0,0-.15-.42,2.14,2.14,0,0,0-.21-.43,2.06,2.06,0,0,0-.59-.55,4.81,4.81,0,0,0-.94-.46c-.36-.16-.73-.3-1.1-.45l-1-.4c-1.52-.72-3-1.43-4.55-2.13-.91-.42-1.83-.84-2.76-1.24l-2.57-1.06c-1.8-.76-3.58-1.56-5.38-2.33s-3.65-1.56-5.46-2.37-3.58-1.67-5.33-2.57l-5-2.54c-1.71-.86-3.44-1.69-5.15-2.55l-4.57-2.32c.23-.35.46-.69.66-1.06a19.47,19.47,0,0,0,1.41-3.25c.35-1.11.64-2.24.89-3.38s.53-2.3.72-3.46a34.52,34.52,0,0,0,.31-3.66c.07-1.17.1-2.35.09-3.52s-.07-2.25-.17-3.37a26.82,26.82,0,0,0-.64-3.56c-.26-1.12-.51-2.24-.79-3.35s-.61-2.25-1-3.36-.73-2.23-1.15-3.32-.84-2.21-1.23-3.32-.81-2.28-1.28-3.39c-.28-.65-.58-1.29-.89-1.93l0-.21a.91.91,0,0,0-.32-.5l-.31-.6a30.45,30.45,0,0,0-1.9-3c-.63-.93-1.25-1.88-1.91-2.79s-1.4-1.95-2.12-2.92c-.11-.16-.24-.32-.36-.47a.87.87,0,0,0-.35-.43c-.54-.65-1.11-1.27-1.68-1.89-1.56-1.7-3.23-3.28-4.84-4.92q-1.21-1.22-2.46-2.37c-.85-.77-1.71-1.51-2.58-2.25s-1.81-1.49-2.75-2.19l-2.62-1.94c-.87-.68-1.75-1.35-2.61-2s-2-1.56-3-2.3-1.87-1.31-2.83-1.93c-.46-.3-.93-.59-1.41-.86a17,17,0,0,0-1.57-.84,17.28,17.28,0,0,0-1.68-.67,1.88,1.88,0,0,0-.91-.06,1.15,1.15,0,0,0-.79.55,2.29,2.29,0,0,0-.23.84c-.11.89-.15,1.8-.24,2.7s-.25,1.79-.34,2.7-.17,1.75-.27,2.62c-.14,1.13-.31,2.26-.53,3.38s-.45,2.39-.65,3.59a64,64,0,0,1-1.38,6.72c-.5,1.79-1,3.58-1.55,5.35-.28.88-.55,1.76-.88,2.63s-.66,1.73-1,2.59c-.7,1.65-1.45,3.28-2.16,4.91.15-.67.31-1.34.46-2,.23-1,.43-2,.62-3.07s.35-2,.45-3,.2-2.06.3-3.09c.3-2.37.58-4.74.79-7.12.1-1.1.19-2.2.24-3.3s.11-2.32.11-3.48,0-2.39,0-3.59,0-2.41-.13-3.61c-.18-2.43-.39-4.85-.76-7.26-.17-1.14-.41-2.25-.67-3.37A5.69,5.69,0,0,0,800,104a3.18,3.18,0,0,0-.54-.67,2.65,2.65,0,0,0-.26-.21c-.28-.21-.56-.41-.85-.59-1.92-1.17-3.9-2.24-5.91-3.24s-4.11-2-6.12-3.13c-1-.54-2-1.09-3-1.62s-2.06-1.12-3.08-1.7-1.91-1.11-2.87-1.65-2.08-1.13-3.15-1.63-2.05-1-3.09-1.42-2-1-3.1-1.4c-2.19-.91-4.39-1.79-6.63-2.56s-4.38-1.43-6.58-2.13-4.4-1.37-6.62-2c-1.1-.29-2.19-.62-3.28-.93s-2.23-.57-3.36-.8-2.26-.45-3.38-.71-2.22-.5-3.32-.77-2.15-.57-3.24-.77c-.2,0-.4-.07-.6-.08a1.92,1.92,0,0,0-1.07.25,1.4,1.4,0,0,0-.63.85l0,.14a3.45,3.45,0,0,0,0,.85c0,.53.08,1.06.15,1.58.12.86.28,1.71.43,2.55s.27,1.61.39,2.42c.31,2.24.57,4.5.86,6.74s.62,4.73.88,7.09.54,4.67.64,7,.09,4.71.16,7.06c0,.69,0,1.37.05,2.06-.15-.68-.3-1.35-.46-2-.53-2.27-1-4.56-1.57-6.83s-1.14-4.32-1.75-6.47-1.36-4.49-2.11-6.72c-.34-1-.67-2.06-1-3.07-.42-1.17-.86-2.32-1.31-3.47-.86-2.18-1.79-4.33-2.72-6.48s-1.74-4-2.75-5.93a29.1,29.1,0,0,0-1.69-2.84,9.19,9.19,0,0,0-1.11-1.38A11.12,11.12,0,0,0,715,68.26a13.74,13.74,0,0,0-2.72-1.53c-1.11-.48-2.23-.91-3.37-1.34s-2-.73-3.1-1l-3.38-1c-2.2-.63-4.46-1.07-6.7-1.58m14,7.13c.49.56.94,1.15,1.38,1.76.61.89,1.2,1.81,1.77,2.73s1.09,1.88,1.58,2.85.93,1.92,1.37,2.9,1,2.07,1.39,3.12c.14.34.27.69.4,1l.72,2c.38,1.08.71,2.19,1.09,3.28s.81,2.2,1.21,3.3.7,2.08,1,3.15c.14.56.28,1.12.43,1.67s.33,1,.5,1.57c.33,1,.62,2.07.85,3.12s.5,2.24.76,3.36.51,2.08.72,3.13c.11.54.23,1.07.33,1.61s.19,1.12.29,1.68c.19,1.08.49,2.12.74,3.19s.44,2.13.62,3.21.35,2.13.55,3.2l.3,1.53c.09.46.14.93.19,1.4a1.79,1.79,0,0,1,0-.23,2.29,2.29,0,0,0,0,.25v0l.18,1.83,0-.31c.08.84.19,1.67.28,2.51,0,.54.09,1.08.14,1.62l-4.18-2c-.07-.26-.13-.53-.18-.79-.08-.5-.17-1-.26-1.49-.17-1-.33-2-.51-3-.09-.55-.2-1.09-.29-1.64s-.19-1.11-.27-1.67c-.18-1.13-.33-2.26-.55-3.38-.1-.55-.22-1.09-.33-1.63s-.2-1.08-.29-1.62c-.18-1.12-.3-2.25-.51-3.37s-.49-2.09-.73-3.14-.48-2.29-.72-3.43c-.34-1.57-.79-3.11-1.1-4.68a20.1,20.1,0,0,0-.56-2.32c-.27-.79-.56-1.57-.85-2.34-.37-1-.69-2.11-1-3.17s-.77-2.22-1.21-3.31-.84-2.06-1.24-3.09-.8-2.11-1.26-3.14-.94-2-1.42-3-1-2-1.57-2.93-1.15-2-1.73-2.94-1.09-1.86-1.69-2.76-1-1.55-1.61-2.32v0c.88.25,1.77.5,2.64.8l1.32.48q.72.77,1.41,1.56m32.52,66.42a37.33,37.33,0,0,1-.74-6.32c-.14-2.34-.11-4.69-.08-7s.13-4.66,0-7c-.06-1.19-.13-2.38-.2-3.56s-.17-2.34-.21-3.51,0-2.34-.07-3.5-.15-2.35-.25-3.52-.25-2.27-.41-3.39c-.08-.61-.2-1.22-.31-1.82s-.2-1.12-.31-1.68c-.05-.24-.11-.47-.17-.71l-.05-.22a.83.83,0,0,0,0-.15v0c0-.12-.06-.23-.08-.35-.53-2.2-1.2-4.38-1.89-6.54-.36-1.11-.75-2.2-1.16-3.3s-.74-2.12-1.14-3.17L735,79.3l2.36.55.71.16c.47,1,.84,2,1.24,3.08s.76,2.11,1.15,3.16.79,2.12,1.14,3.19.66,2.16,1,3.24.6,2.2.87,3.31.5,2.22.71,3.35.36,2.26.55,3.39.38,2.26.52,3.4.31,2.33.42,3.49c.23,2.33.29,4.66.35,7,0,1.11.06,2.23,0,3.34s0,2.34.06,3.5.08,2.36.13,3.54,0,2.27.07,3.4a43.39,43.39,0,0,0,.58,6.74c0,.26.09.52.14.77l-4.38-2-.33-.14-.12-.47m42.28-37.6c1,.55,2,1.1,3,1.63.71.37,1.43.73,2.15,1.09.21.7.45,1.4.7,2.1s.48,1.42.69,2.15c.45,1.49.88,3,1.27,4.51.25,1.11.45,2.24.67,3.36s.34,2.26.47,3.4.27,2.37.31,3.57.07,2.39.07,3.58c0,1.61,0,3.22,0,4.83s.07,3,0,4.47c0,.82-.05,1.65-.07,2.47,0,1.21-.13,2.43-.19,3.64s-.11,2.18-.15,3.26c0,.63,0,1.25-.09,1.88s-.12,1.19-.17,1.79c-.11,1.2-.25,2.41-.41,3.61-.12.88-.23,1.76-.36,2.63s-.25,1.66-.34,2.49c0,.43-.09.85-.14,1.27s-.15.82-.22,1.22q-.21,1.25-.45,2.49a1.13,1.13,0,0,0,0,.55l-.06.11-1.19-.61a3.55,3.55,0,0,0,.17-.64l.09-.62c.05-.42.08-.84.13-1.27s.12-.83.15-1.25.08-.91.1-1.36c0-.87.1-1.74.13-2.61s.06-1.86.08-2.79c0-1.14.08-2.27.09-3.41s0-2.21,0-3.31-.1-2.26-.16-3.39-.19-2.36-.29-3.54-.13-2.18-.21-3.26-.23-2.31-.33-3.46-.27-2.44-.42-3.65-.31-2.25-.52-3.36-.49-2.3-.7-3.46-.39-2.3-.6-3.44c-.45-2.33-.92-4.65-1.39-7-.17-.84-.37-1.67-.58-2.5s-.32-1.41-.49-2.11-.41-1.57-.63-2.35c-.3-1-.62-2.1-1-3.14l.78.41m22.68,54.11c.22-.53.43-1.06.63-1.6s.38-1.1.57-1.65c.38-1.15.77-2.29,1.12-3.44.69-2.26,1.44-4.49,2-6.78a63,63,0,0,0,1.38-6.91l.27-2c.08-.61.11-1.23.15-1.84q.12-1.68.12-3.36c0-1,0-1.89,0-2.84s.07-1.93.07-2.89a14.33,14.33,0,0,0-.12-1.47c-.05-.5-.11-1-.18-1.49s-.16-1.16-.27-1.74a.52.52,0,0,0,0-.11l1.1.68.48.3c.18.73.35,1.46.49,2.2s.22,1.54.32,2.31c0,0,0-.07,0-.1.14,1.15.28,2.31.39,3.47s.16,2.27.19,3.41,0,2.26,0,3.38c0,.61,0,1.22,0,1.83s-.08,1.22-.16,1.83h0c-.37,2.3-.91,4.57-1.49,6.83s-1.26,4.64-2,6.94c-.32,1.05-.67,2.1-1,3.15s-.76,2.25-1.15,3.37c-.77,2.17-1.55,4.34-2.1,6.57-.2.78-.38,1.56-.55,2.35s-.32,1.55-.44,2.33-.24,1.78-.28,2.67c0,.1,0,.2,0,.31-1.22-.62-2.44-1.23-3.67-1.83a1.49,1.49,0,0,0,0-.21,33.85,33.85,0,0,1,1.23-5.36c.64-2,1.18-4,1.95-5.94.33-.8.65-1.59,1-2.39h0m10.2-35.15,1.61,1.27a23.39,23.39,0,0,1,1,4.31c.13,1.09.24,2.19.34,3.29s.22,2.2.26,3.3a24.64,24.64,0,0,1-.18,3.43c-.12,1.12-.25,2.25-.35,3.38s-.21,2-.33,3c-.33,2.28-.75,4.54-1.23,6.79q-.36,1.73-.69,3.45c-.23,1.16-.49,2.31-.75,3.46-.51,2.24-1,4.48-1.48,6.74a48.1,48.1,0,0,0-1,7.26,36.2,36.2,0,0,0,.19,5.41l-3.65-1.91-1.7-.87c0-.54,0-1.09,0-1.63s.09-1.3.18-1.95c.16-1.11.39-2.2.63-3.29s.53-2.19.84-3.27c.64-2.22,1.46-4.39,2.15-6.6s1.34-4.46,1.93-6.71,1.13-4.65,1.61-7a42.66,42.66,0,0,0,.95-7.3c0-.6,0-1.19,0-1.79s0-1.13,0-1.69c0-1.15,0-2.28-.1-3.42-.13-1.8-.36-3.58-.59-5.37-.11-.81-.22-1.63-.35-2.45,0-.13,0-.27-.07-.41l.82.59m5.72,4.45a.81.81,0,0,0,0,.38c.12.46.23.93.34,1.4s.17.67.24,1c.13.74.26,1.48.38,2.22.06.52.12,1,.16,1.54l.12,1.8c.08,1.17.19,2.35.24,3.52s0,2.31,0,3.46,0,2.45-.09,3.68c0,.73-.11,1.47-.2,2.2-.16,1.16-.31,2.31-.46,3.47s-.36,2.34-.61,3.5-.56,2.33-.81,3.5-.48,2.29-.72,3.43-.46,2.24-.66,3.37-.35,2.48-.49,3.73a33,33,0,0,0-.28,3.44c0,1.14,0,2.29,0,3.43s.13,2.51.29,3.76c0,.28.07.56.11.84l-.47-.24-2.57-1.32,0-.35c-.05-.45-.1-.91-.14-1.36-.09-1-.16-1.94-.17-2.91s0-1.93.05-2.9.17-1.87.29-2.81c.16-1.1.34-2.19.56-3.28s.49-2.34.74-3.5c.5-2.29,1-4.57,1.45-6.87.21-1.14.43-2.27.64-3.41s.41-2.34.59-3.52a61.63,61.63,0,0,0,.66-7.17c0-1.12.07-2.24.1-3.36a26.77,26.77,0,0,0-.08-3.35c-.09-1.12-.25-2.24-.36-3.36s-.26-2.39-.43-3.58c-.09-.62-.21-1.24-.35-1.85l.08.06c.61.48,1.22,1,1.84,1.41m7.69,33.42c.2-1.27.35-2.54.5-3.81s.24-2.33.3-3.51.11-2.34.14-3.52.1-2.34.07-3.52-.09-2.36-.2-3.53-.19-2.32-.27-3.48c-.06-.71-.15-1.42-.24-2.13s-.18-1.25-.31-1.87-.3-1.34-.46-2l.12.1c.84.8,1.64,1.62,2.45,2.45l.49.49c.28,1.47.52,3,.76,4.44.27,1.63.53,3.27.74,4.91q.4,3.4.59,6.84c.06,1.1.06,2.21,0,3.32s0,2.38-.09,3.57-.14,2.33-.22,3.48-.18,2.39-.32,3.59c-.2,1.42-.39,2.85-.56,4.28s-.35,2.67-.52,4c-.06.48-.13,1-.22,1.44s-.22,1.1-.32,1.65-.24,1.31-.32,2-.12,1.18-.17,1.77c-.09,1.13-.15,2.25-.17,3.38,0,.63,0,1.27,0,1.9-1.24-.58-2.48-1.16-3.71-1.77l-.06,0c-.07-.75-.13-1.5-.18-2.26a33.84,33.84,0,0,1,0-3.49c.09-2.3.3-4.6.5-6.89.13-1.57.33-3.14.54-4.7.37-2.36.77-4.71,1.15-7.07m6.46-20.36c.6.66,1.19,1.31,1.75,2l.32.45c.11.47.2.94.29,1.41.16.85.28,1.71.44,2.57s.35,1.79.49,2.7.26,1.71.38,2.57c.26,2.22.41,4.45.58,6.68a60.09,60.09,0,0,1-.07,7.1c-.08,1.88-.31,3.75-.52,5.63-.11.93-.21,1.86-.32,2.8s-.21,1.69-.33,2.53c-.14,1-.28,2.07-.4,3.1s-.22,1.87-.34,2.81-.25,1.57-.37,2.36-.26,1.87-.34,2.81c0,.65-.08,1.29-.11,1.93l-3.36-1.59c0-.4,0-.8,0-1.21,0-.79,0-1.58,0-2.37,0-1.55.14-3.11.31-4.66.16-1.05.36-2.09.54-3.14.22-1.24.33-2.5.47-3.74s.23-2.26.34-3.38.28-2.43.37-3.64c0-.54,0-1.07.07-1.61s0-1.18,0-1.77c0-1.21,0-2.41,0-3.62s0-2.23-.06-3.34-.07-2.37-.15-3.55-.19-2.24-.31-3.36-.26-2.4-.43-3.6c-.31-2.27-.73-4.52-1.1-6.78.61.62,1.21,1.25,1.8,1.9M831,202.41h0l-.08.07h0l-.18.16c-1.51,1.35-3,2.67-4.65,3.93-.86.68-1.75,1.3-2.66,1.9s-1.77,1.14-2.68,1.67l-.76.41c-.82.41-1.64.79-2.48,1.13a18.38,18.38,0,0,1-2,.67c-1,0-1.9-.14-2.84-.23h0c.92-.5,1.82-1,2.71-1.6,1.72-1.09,3.4-2.27,5-3.51l2.5-1.88c.44-.33.88-.65,1.31-1s.84-.74,1.25-1.12q2.31-2.11,4.43-4.42c.68-.75,1.36-1.51,2-2.27.36-.4.71-.79,1.05-1.2s.64-.8.95-1.2c.61-.79,1.17-1.62,1.73-2.44s1.2-1.79,1.77-2.69l.42-.69,1.24.66c.75.41,1.49.84,2.22,1.28l-.22.35q-.8,1.2-1.65,2.34l-1.81,2.36c-.64.83-1.31,1.63-2,2.44s-1.29,1.57-2,2.31-1.58,1.6-2.41,2.36l-.21.19,0,0v0m-.17.15,0,0h0l0,0h0l.07-.06m-89.1-19.68c-.78.45-1.55.91-2.35,1.33-1.67.88-3.36,1.71-5,2.6l-1.39-.76-.83-.45.5-.22c.54-.25,1.06-.55,1.57-.84,1-.59,2-1.26,3-1.91,2-1.33,4-2.72,5.94-4.12s3.88-2.85,5.77-4.34c1-.78,2-1.57,3-2.37s1.79-1.52,2.68-2.29,1.82-1.55,2.7-2.36l2.68-2.52c1.78-1.66,3.5-3.37,5.2-5.11,1.05-1.07,2.09-2.15,3.15-3.21l1.41-1.45.85-.9a6.51,6.51,0,0,0,.65-.82,1.63,1.63,0,0,0,.11-.23l3.35,1.7-4,4.29c-.77.84-1.56,1.65-2.34,2.49s-1.63,1.72-2.48,2.54-1.68,1.59-2.53,2.37-1.77,1.63-2.67,2.43-1.69,1.5-2.56,2.23-1.89,1.55-2.83,2.34-1.77,1.5-2.69,2.22-1.93,1.47-2.92,2.2-1.78,1.26-2.67,1.89-1.85,1.29-2.8,1.89c-.78.47-1.57.92-2.36,1.38m-14.56,0-.19-.1c.77-.43,1.54-.87,2.3-1.32,1-.61,2-1.29,3-1.94s2-1.33,2.94-2,1.8-1.21,2.68-1.86,2-1.43,3-2.14,1.85-1.42,2.76-2.15,1.83-1.4,2.75-2.08,1.71-1.39,2.54-2.11c1.73-1.48,3.41-3,5.08-4.56s3.33-3.18,5-4.79c.66-.66,1.33-1.31,2-2s1.36-1.47,2-2.22,1.12-1.25,1.67-1.89c.26-.29.51-.6.76-.89s.24-.29.35-.44l.14-.22s0,0,0,0l.64.33.09.05.2.22a1.36,1.36,0,0,0,.6.27h.19l1.36.7-1.87,1.86c-.83.83-1.66,1.66-2.47,2.49s-1.69,1.74-2.54,2.6-1.64,1.7-2.49,2.53-1.8,1.75-2.7,2.62-1.66,1.64-2.51,2.44-1.81,1.67-2.7,2.51-1.79,1.67-2.71,2.47q-2.76,2.43-5.66,4.7c-1.91,1.49-3.88,2.89-5.88,4.25-1.1.74-2.2,1.47-3.31,2.18-.6.37-1.21.73-1.83,1.06s-1.43.66-2.14,1l-.09.05c-1-.52-2-1.05-2.93-1.6m-4.87-2.84c.66-.41,1.31-.83,2-1.26.43-.28.87-.55,1.29-.84s.86-.64,1.28-1c1.79-1.35,3.59-2.68,5.43-3.95s3.91-2.75,5.8-4.21c.9-.69,1.77-1.42,2.65-2.13s1.85-1.53,2.77-2.31c3.5-3,7-6,10.32-9.13q1.92-1.83,3.74-3.76l1.81-1.92c.29-.31.59-.62.88-.94l.57-.61c.06-.07.12-.13.17-.2a1.07,1.07,0,0,0,.15-.22c.63.33,1.26.66,1.88,1l.68.36-1.66,1.76-2.29,2.48c.07-.09.16-.18.23-.26-.75.81-1.53,1.58-2.31,2.36s-1.61,1.62-2.43,2.42l-2.56,2.5c-.8.78-1.63,1.54-2.45,2.31l-2.5,2.41c-.81.77-1.62,1.56-2.45,2.3s-1.79,1.53-2.68,2.29-1.71,1.51-2.59,2.23-1.79,1.39-2.68,2.08-1.84,1.41-2.79,2.09-1.91,1.36-2.88,2c-.43.31-.88.6-1.32.9s-1,.66-1.46,1l0,0c-1.11.68-2.24,1.32-3.38,1.94l-.07,0c-1-.59-2-1.2-3.07-1.8m-6.94-4c-.66-.38-1.31-.77-2-1.16l1.12-.55a18.9,18.9,0,0,0,2-1.21l1.38-.84a15.22,15.22,0,0,0,1.44-1c.94-.72,1.9-1.43,2.84-2.17s1.77-1.42,2.67-2.11l1.45-1.09c.41-.31.8-.65,1.18-1,.89-.78,1.78-1.55,2.68-2.31s1.75-1.53,2.6-2.31,1.68-1.59,2.49-2.41,1.63-1.62,2.41-2.46l2.44-2.57c.8-.83,1.62-1.62,2.44-2.43,1.6-1.59,3.24-3.13,4.89-4.68.8-.75,1.59-1.51,2.39-2.25a1.47,1.47,0,0,0,.38-.55l.56.23c.82.34,1.64.67,2.47,1l-.13.1c-.39.34-.77.67-1.15,1-.83.75-1.62,1.53-2.42,2.31-1.65,1.61-3.27,3.24-4.88,4.9-.82.85-1.65,1.68-2.46,2.54s-1.64,1.69-2.48,2.51-1.72,1.66-2.57,2.51-1.67,1.68-2.54,2.5c-1.7,1.59-3.42,3.17-5.17,4.71-.89.79-1.77,1.58-2.7,2.31s-1.93,1.49-2.9,2.22c-1.7,1.26-3.43,2.48-5.2,3.63-.7.43-1.41.84-2.13,1.24L715.4,176m-5.77-3.39-1.14-.64.29-.15a16.75,16.75,0,0,0,1.56-1c.45-.3.9-.6,1.33-.92s.86-.67,1.3-1l1.36-1.05,1.32-1.09c.92-.74,1.81-1.5,2.7-2.26.44-.38.87-.76,1.28-1.16s.85-.83,1.29-1.23.85-.75,1.27-1.14l1.26-1.16c.87-.8,1.74-1.59,2.63-2.37.43-.36.86-.73,1.27-1.11s.9-.83,1.35-1.23.87-.76,1.3-1.14.9-.8,1.34-1.21c.82-.78,1.68-1.53,2.53-2.3,1.75-1.57,3.54-3.11,5.35-4.62,1.21-1,2.47-2,3.72-2.94.57-.45,1.16-.88,1.74-1.32l.83-.62.12-.09.29.13,1.85.83c-.71.57-1.38,1.19-2.06,1.8-.84.75-1.66,1.52-2.48,2.29l-2.44,2.35c-.81.81-1.63,1.61-2.42,2.44s-1.61,1.73-2.42,2.6-1.58,1.67-2.37,2.5-1.59,1.69-2.42,2.51-1.65,1.63-2.48,2.43-1.72,1.64-2.56,2.47c-.37.36-.73.74-1.12,1.08s-.92.77-1.39,1.15c-.88.72-1.75,1.45-2.6,2.2s-1.84,1.51-2.77,2.26a13.64,13.64,0,0,1-1.15.85l-1.46.92c-.42.26-.83.53-1.24.8-.83.5-1.72.88-2.58,1.33l0,0-2.14-1.25m-5.73-3.21-1.72-.95.63-.2a11.87,11.87,0,0,0,2.18-1.06c1-.6,2-1.19,3-1.86.47-.32.93-.68,1.39-1s.9-.7,1.35-1.07.85-.78,1.28-1.17.91-.78,1.37-1.16.87-.71,1.3-1.08.81-.74,1.22-1.1c.9-.79,1.83-1.53,2.74-2.29l2.67-2.2,2.65-2.17c1.81-1.46,3.59-2.93,5.36-4.43s3.54-3,5.31-4.53c1.08-.91,2.19-1.79,3.31-2.63l1.65-1.21.68-.48a2.69,2.69,0,0,0,.27-.2l2.33,1.08-.49.34c-.91.65-1.79,1.34-2.69,2s-1.79,1.39-2.66,2.12-1.78,1.48-2.64,2.25-1.77,1.59-2.65,2.4L730.44,150c-.4.38-.79.78-1.19,1.17-.84.81-1.72,1.58-2.54,2.4s-1.62,1.64-2.45,2.43-1.69,1.65-2.51,2.49c-.44.45-.87.9-1.32,1.34s-.77.75-1.14,1.14-.85.9-1.28,1.34-.82.79-1.25,1.17c-.88.79-1.75,1.58-2.66,2.33-.44.37-.87.75-1.31,1.11s-.93.71-1.38,1.08a31.46,31.46,0,0,1-2.61,1.84,17.89,17.89,0,0,1-2.13,1.1c-.92-.51-1.85-1-2.77-1.55m11.64-42.57c-1.25.9-2.52,1.77-3.77,2.67l.07-.05c-1.51,1.08-3,2.13-4.59,3.12s-3.18,2-4.8,3c-.4.24-.79.48-1.18.74s-.74.49-1.12.71c-.87.5-1.76,1-2.64,1.44s-1.64.91-2.47,1.36-1.69.9-2.56,1.33-1.69.84-2.55,1.24l-2.7,1.24c-1.67.77-3.38,1.44-5.07,2.16l-2.52,1.07c-.87.37-1.75.74-2.63,1.08s-1.68.63-2.51,1-1.76.72-2.64,1.06c-1.17.43-2.35.84-3.52,1.25a1,1,0,0,0-.26.12l-1.17-.44c-.48-.17-.95-.36-1.42-.54.49-.12,1-.24,1.45-.38,1.06-.3,2.1-.64,3.13-1s2-.74,3-1.14,2-.74,2.92-1.16,1.79-.88,2.68-1.32,1.91-.94,2.84-1.44,1.84-.94,2.75-1.42c.46-.24.92-.51,1.38-.77L687,141c.89-.48,1.75-1,2.65-1.51s1.68-.87,2.5-1.35,1.78-1,2.66-1.51,1.78-1.06,2.67-1.58c1.79-1.06,3.57-2.13,5.3-3.28l2.55-1.67c.9-.59,1.8-1.18,2.66-1.82l1.64-1.22c.52-.38,1.05-.75,1.57-1.14l.73-.54.44-.35c.86.43,1.71.86,2.58,1.28l.76.38-.2.15m0,2.52-.06,0,.06,0h0m-58.88,17.25c-.81-.39-1.62-.77-2.42-1.17.29,0,.59-.07.89-.13,1-.19,2-.46,3-.72.44-.12.89-.23,1.33-.37s1-.32,1.43-.49c1-.35,1.95-.68,2.91-1s1.78-.75,2.66-1.12,1.78-.71,2.63-1.14l2.75-1.39c.4-.19.79-.4,1.17-.62l1.27-.79c.83-.51,1.71-.95,2.56-1.43s1.69-1,2.55-1.48l1.25-.68c.4-.22.79-.46,1.19-.69l2.58-1.53c.84-.5,1.7-1,2.55-1.46s1.7-1,2.56-1.56l2.46-1.46c.87-.53,1.74-1,2.6-1.59s1.55-1,2.33-1.5,1.59-1,2.4-1.49l2.28-1.34,1.14-.66.29-.17,1.9.89-.57.35c-.82.52-1.63,1-2.43,1.58s-1.62,1.12-2.45,1.66l-2.5,1.63-2.5,1.57c-.84.53-1.66,1.1-2.5,1.63-.41.25-.82.5-1.22.76l-1.13.74c-.82.55-1.65,1.07-2.49,1.59s-1.75,1.05-2.6,1.61-1.68,1-2.51,1.55l-2.48,1.58c-.82.51-1.67,1-2.51,1.45l-1.37.75-1.19.68c-.86.46-1.76.82-2.65,1.2-1.82.77-3.63,1.55-5.47,2.25l-2.16.85c-1.15.41-2.29.83-3.46,1.19s-2.13.64-3.21.91l-.84-.4m-5.66-2.8-1.41-.74a24.81,24.81,0,0,0,2.82-.6c.7-.19,1.39-.41,2.08-.63s1.49-.48,2.22-.75l-.13.05.1,0,.16-.06c1.07-.4,2.12-.84,3.18-1.27s2-.86,3-1.33,1.94-1,2.9-1.51,1.94-1,2.88-1.57,1.85-1.12,2.78-1.67,1.75-1.12,2.61-1.7,1.76-1.21,2.65-1.79,1.77-1.19,2.64-1.8q2.67-1.87,5.42-3.63c1.84-1.18,3.66-2.38,5.52-3.53l1.6-.94c.55-.32,1.09-.66,1.64-1l1.72-.92.8-.4a5.33,5.33,0,0,0,.56-.32q1.51.72,3,1.41l.82.37-.36.21c-.81.47-1.62.94-2.41,1.43-1.64,1-3.25,2.14-4.89,3.18-.86.55-1.72,1.1-2.59,1.64s-1.63,1-2.43,1.51-1.69,1.08-2.56,1.59c-.43.25-.86.5-1.28.77l-1.28.81c-.81.52-1.64,1-2.47,1.53l-2.37,1.41c-.86.52-1.7,1.05-2.58,1.54s-1.71,1-2.53,1.49c-.37.24-.75.48-1.13.69l-1.28.66c-.87.43-1.73.9-2.61,1.31s-1.72.74-2.58,1.12-1.7.74-2.56,1.08l-2.2.78c-.38.14-.75.28-1.14.4s-.83.25-1.25.37c-.81.23-1.62.44-2.44.63a19,19,0,0,1-2.51.4l-1.22.1a.83.83,0,0,0-.22,0l-.66-.35m-5-2.69c.27,0,.53,0,.79-.09a27.06,27.06,0,0,0,3.34-.8c1.18-.34,2.31-.81,3.45-1.26l3.07-1.23,1.62-.68a13.72,13.72,0,0,0,1.44-.71c.51-.28,1-.59,1.48-.89s.92-.54,1.37-.82c1-.62,2.06-1.21,3.05-1.87s1.88-1.31,2.84-1.95c1.37-.91,2.74-1.82,4.1-2.75s2.78-2,4.15-3c.88-.63,1.76-1.26,2.62-1.91s1.44-1.1,2.17-1.64,1.62-1.14,2.44-1.69,1.71-1.12,2.57-1.66,1.67-1.09,2.53-1.61c.43-.26.87-.51,1.31-.76l.61-.35.47-.29.76.34,1.71.81-.74.39c-.93.49-1.83,1-2.74,1.54-1.88,1.08-3.68,2.28-5.49,3.47-.7.45-1.39.89-2.08,1.36s-1.35.93-2,1.4c-1.36.94-2.69,1.94-4,2.91-1,.68-1.92,1.34-2.86,2.05l-2.54,1.87c-.9.62-1.82,1.21-2.73,1.81s-1.84,1.17-2.79,1.7c-1.87,1.06-3.73,2.12-5.69,3-1.37.63-2.77,1.22-4.17,1.77s-2.65.92-4,1.3a27.89,27.89,0,0,1-4.15.8.67.67,0,0,0-.38.2l-1.49-.81M637.24,136l.63-.11c.6-.12,1.18-.28,1.77-.46a34.26,34.26,0,0,0,3.29-1.25c.5-.22,1-.47,1.46-.71s1-.51,1.49-.78c1-.57,2-1.21,3-1.81.46-.28.93-.53,1.39-.8s1-.63,1.53-.95c.93-.6,1.86-1.2,2.8-1.78l2.86-1.81c1-.63,2-1.3,2.92-2,.47-.32.93-.66,1.39-1,1.32-.93,2.66-1.84,4-2.77l2.05-1.39c.7-.46,1.38-1,2.06-1.43h0l.16-.11-.06,0,1-.74c.77-.54,1.57-1.05,2.35-1.6s1.67-1.18,2.51-1.77,1.51-1.07,2.29-1.56c.45-.28.91-.54,1.37-.8l3.26,1.3c-.83.55-1.65,1.12-2.48,1.69s-1.79,1.26-2.7,1.88-2,1.41-3,2.13L672.45,119l-2.2,1.65-2.38,1.77c-.71.52-1.41,1.06-2.13,1.58s-1.5,1.08-2.24,1.62c-.52.38-1,.75-1.58,1.12s-1,.77-1.56,1.15l-1.3.88c-.49.33-1,.67-1.44,1a12.32,12.32,0,0,1-1.08.69c-.49.27-1,.55-1.45.83-.89.51-1.77,1.06-2.68,1.55s-1.82.9-2.73,1.32-2,.86-2.95,1.24-2.2.76-3.32,1a18.61,18.61,0,0,1-1.83.4c-.29,0-.58.09-.88.12l-.94.09-.54,0h-.12c-.62-.39-1.25-.78-1.86-1.19m-2.39-1.71-1.16-.79c.62-.14,1.23-.3,1.83-.5a34.72,34.72,0,0,0,3.39-1.29c.51-.23,1-.49,1.5-.75l1.5-.8c.52-.29,1-.59,1.53-.91s1-.63,1.47-.92c1.06-.62,2.13-1.19,3.2-1.8.46-.26.91-.55,1.36-.83l1.51-1c.94-.6,1.86-1.24,2.78-1.89s2.13-1.48,3.18-2.24c.36-.27.71-.56,1.07-.84s.87-.68,1.31-1c.79-.59,1.53-1.23,2.31-1.83l1.53-1.08,1.83-1.35,1.14-.82.14-.1c.64-.46,1.27-.94,1.9-1.4,1.05-.75,2.09-1.52,3.18-2.2.57-.36,1.16-.71,1.74-1l.84-.46.21-.12,2.31.85c-.84.52-1.64,1.1-2.45,1.66s-1.86,1.32-2.8,2-2,1.4-3,2.13l-1,.72c-1,.69-2,1.37-2.91,2.09l-2.74,2c-.94.7-1.84,1.45-2.77,2.17s-1.69,1.28-2.55,1.9c-1.81,1.29-3.62,2.59-5.47,3.84-.47.32-.95.65-1.44.94s-1,.6-1.55.91c-.95.57-1.88,1.19-2.86,1.7-.73.39-1.45.78-2.2,1.13s-1.43.64-2.16.93-1.5.54-2.27.74a20.51,20.51,0,0,1-2.8.49l-.17,0-.5-.35m-4.38-3.11.45-.11c.5-.12,1-.27,1.48-.41s1-.28,1.48-.46,1-.4,1.57-.61.94-.34,1.4-.53.94-.44,1.4-.67c.94-.45,1.88-.9,2.81-1.38s1.84-1,2.74-1.54,1.79-1,2.62-1.59,1.83-1.29,2.72-2c.43-.33.86-.66,1.3-1s.79-.57,1.17-.86c.82-.65,1.64-1.29,2.48-1.92s1.6-1.29,2.38-2,1.62-1.34,2.45-2,1.7-1.27,2.54-1.93c1.6-1.25,3.17-2.54,4.79-3.77l.44-.33c.47-.34.95-.67,1.44-1l.67-.44.28-.18,1.65.58c-.61.37-1.21.76-1.81,1.16-.76.52-1.51,1.07-2.26,1.6s-1.51,1.13-2.26,1.68c-1.06.76-2.1,1.54-3.15,2.3-.48.35-1,.69-1.45,1.06s-.87.7-1.3,1.06c-.92.78-1.9,1.5-2.83,2.27s-1.85,1.42-2.76,2.15-1.82,1.44-2.75,2.13l-.11.09c-.8.56-1.59,1.13-2.37,1.7-.94.65-1.9,1.25-2.87,1.85S643,127.44,642,128s-2,1.14-3,1.67c-.48.25-1,.5-1.48.72s-.92.37-1.38.54c-.73.26-1.45.51-2.19.72s-1.44.33-2.16.46Zm19-27.8c-.88.55-1.7,1.16-2.54,1.76s-1.82,1.28-2.68,2-1.57,1.3-2.36,1.92-1.76,1.35-2.62,2.06-1.75,1.36-2.6,2.06c-.42.34-.82.7-1.22,1.07s-.77.67-1.18,1l-1.26,1c-.4.32-.8.66-1.21,1a25.71,25.71,0,0,1-2.24,1.64c-.5.31-1,.6-1.52.89s-1,.62-1.59.88a13.36,13.36,0,0,1-1.72.68l-1.59.52a14.31,14.31,0,0,1-3.13.43h-.46c-.51-.47-1-1-1.52-1.44l-.22-.22.62,0h-.21a11,11,0,0,0,1.72-.18c.52-.09,1-.26,1.54-.4s1.1-.31,1.64-.48c.23-.07.46-.13.68-.22s.53-.22.79-.34c.46-.21.91-.46,1.34-.71s1-.6,1.53-.93c.91-.6,1.81-1.24,2.7-1.88l1.37-1c.41-.3.79-.62,1.18-.94.86-.71,1.72-1.4,2.62-2,.42-.31.85-.59,1.28-.88s1-.66,1.44-1l1.27-.93c.44-.32.91-.62,1.37-.92.72-.47,1.44-1,2.13-1.47s1.34-1,2.06-1.49c1.32-.84,2.66-1.68,4-2.5.52-.31,1.05-.59,1.58-.86s.86-.46,1.3-.68l.05,0,1.36.42-1,.59,0,0c-.92.55-1.83,1.11-2.74,1.67M618,120.52h0m49.86-24.3c-.19-2.29-.44-4.57-.69-6.86a29,29,0,0,0-.46-3.22c-.26-1.14-.59-2.26-.84-3.41-.11-.54-.2-1.1-.31-1.64s-.22-1.08-.36-1.61c-.31-1.12-.65-2.23-1-3.33s-.73-2.16-1.12-3.23c-.23-.62-.46-1.23-.72-1.83s-.5-1-.76-1.57l-.73-1.46c-.25-.52-.48-1-.71-1.59a23,23,0,0,0-1.51-2.92c-.57-.91-1.14-1.83-1.7-2.75a33.61,33.61,0,0,0-2-2.75c-.28-.37-.55-.75-.82-1.13.24,0,.49,0,.74,0,.7,0,1.4.11,2.09.19h.12L658.53,59c.56.72,1.14,1.44,1.67,2.18s.92,1.38,1.34,2.1c.19.34.37.68.57,1s.49.84.73,1.26c.45.8.86,1.62,1.3,2.42.22.4.43.79.63,1.2a12.75,12.75,0,0,1,.49,1.21c.25.7.5,1.4.76,2.09s.62,1.53,1,2.28.63,1.38.93,2.07.58,1.38.85,2.09c.33.91.64,1.82.89,2.76.31,1.09.58,2.2.84,3.3.13.53.24,1.06.34,1.59s.22,1.09.32,1.64c.2,1.06.34,2.14.45,3.21s.18,2,.25,3.07c.1,1.21.2,2.43.39,3.63.15,1,.32,2,.47,3,.07.52.17,1,.27,1.53,0,.23.09.46.14.69a7.06,7.06,0,0,0,.28.89l.09.23c0,.1.07.19.1.28-1.26-.49-2.52-1-3.79-1.42a4.88,4.88,0,0,0-.23-.64l-.18-.49c-.16-.46-.31-.93-.47-1.4s-.36-1-.5-1.5a17.83,17.83,0,0,1-.56-3.07m98.28-7.73,0,0,0,0m-.14-.06c1.14.47,2.27,1,3.39,1.48.09.17.19.34.29.51.25.49.51,1,.72,1.5s.41,1.07.61,1.61c.4,1.12.81,2.24,1.19,3.37.73,2.19,1.32,4.42,1.92,6.64.18.69.35,1.38.52,2.07.52,2.2.92,4.42,1.32,6.65.2,1.08.41,2.17.53,3.27s.22,2.2.31,3.3c.19,2.25.26,4.5.32,6.75,0,1.18.09,2.37.12,3.55s0,2.1,0,3.14,0,2.29,0,3.43,0,2.23,0,3.35,0,2.21,0,3.32c0,.52,0,1,0,1.55s0,1.11,0,1.66v.66c0,.62,0,1.24,0,1.86s0,1,0,1.5,0,.85,0,1.27l0,1.19,0,.62c-.87-.46-1.73-.91-2.59-1.38l-1.2-.63q-.07-.31-.12-.63-.12-.76-.21-1.53c-.13-1.11-.24-2.22-.34-3.33-.21-2.34-.33-4.68-.41-7-.06-1.45-.15-2.89-.21-4.33,0-.69,0-1.38-.07-2.07s-.07-1.43-.06-2.15l.06-1.39c0-.69,0-1.37,0-2.06,0-1.16-.07-2.33-.09-3.5s-.11-2.35-.15-3.52-.17-2.34-.32-3.49-.33-2.41-.52-3.61-.39-2.42-.63-3.62-.49-2.41-.79-3.6-.62-2.31-.94-3.46-.71-2.35-1.11-3.51-.66-2.21-1-3.31-.75-2.33-1.18-3.48c-.22-.59-.45-1.18-.68-1.76s-.49-1.06-.75-1.58l0,0,1.92.75m43.58,123.31-.86-.16c-1-.19-2-.4-3-.64l.52-.29c1.05-.61,2.09-1.25,3.13-1.88s1.93-1.18,2.85-1.84,1.89-1.45,2.79-2.22,1.77-1.54,2.64-2.33,1.83-1.71,2.72-2.59,1.67-1.63,2.45-2.5,1.5-1.81,2.22-2.74c1.3-1.69,2.68-3.31,3.89-5.05.63-.9,1.22-1.83,1.79-2.76.25-.39.49-.79.74-1.19.12-.19.24-.39.35-.59l3.78,2,.2.11c-.11.19-.22.38-.34.57-.24.39-.49.78-.74,1.17-1.09,1.66-2.21,3.3-3.44,4.86-.61.77-1.28,1.5-1.92,2.26s-1.34,1.6-2,2.38c-1.31,1.49-2.7,2.93-4.15,4.28-.78.67-1.6,1.3-2.42,1.93s-1.59,1.26-2.4,1.87a60.86,60.86,0,0,1-5.19,3.54c-.53.32-1.08.62-1.62.92s-1.33.61-2,.89m-12.91-3.31q-2.37-.63-4.77-1.2l1.23-.91,1.36-1c.43-.33.84-.68,1.25-1,1.79-1.55,3.48-3.21,5.18-4.85.79-.75,1.55-1.53,2.34-2.28s1.65-1.52,2.45-2.31,1.56-1.63,2.3-2.49,1.43-1.69,2.13-2.55l2.15-2.65a29.5,29.5,0,0,0,2.14-3c.57-.91,1.1-1.85,1.65-2.78s1.11-1.84,1.65-2.77c.18-.31.36-.62.53-.93,1,.47,1.91.94,2.86,1.43s1.83,1,2.75,1.47l-.11.15-1,1.34c-.7.93-1.36,1.87-2,2.81s-1.42,1.93-2.15,2.88-1.51,2-2.3,2.91c-1.34,1.6-2.71,3.18-4.12,4.72s-2.87,3-4.37,4.36l-2.67,2.36c-.9.81-1.79,1.62-2.73,2.38a42.67,42.67,0,0,1-5.72,3.89M774.44,201c.94-.63,1.92-1.2,2.88-1.81l1.42-.9c.5-.33,1-.7,1.43-1.07,1-.75,1.94-1.48,2.89-2.25s1.85-1.58,2.75-2.4,1.7-1.61,2.53-2.44,1.66-1.66,2.44-2.54,1.55-1.75,2.34-2.62,1.47-1.72,2.16-2.63,1.31-1.84,1.94-2.78c1.34-2,2.68-4,3.89-6.16.34-.58.65-1.17,1-1.77s.56-1,.85-1.56c1.05.54,2.11,1,3.16,1.58l-.17.32c-.21.36-.42.72-.65,1.07-.46.73-.93,1.45-1.4,2.17l0,.05-.06.09a4,4,0,0,0-.22.34l.12-.19,0,0-.14.22c-.59.9-1.14,1.81-1.72,2.7-1.25,1.87-2.63,3.64-4,5.43-.72.94-1.44,1.86-2.2,2.77s-1.42,1.62-2.16,2.41c-1.28,1.37-2.57,2.73-3.9,4s-2.62,2.58-4,3.84c-.69.61-1.39,1.21-2.12,1.78s-1.54,1.14-2.31,1.7c-1.44,1.05-2.89,2.07-4.41,3-1.38-.38-2.75-.77-4.12-1.17l1.81-1.22m21.11-34.58-.54,1c-.39.68-.77,1.36-1.18,2-.79,1.29-1.57,2.6-2.38,3.88-1.3,1.92-2.73,3.76-4.18,5.57-.76.93-1.5,1.88-2.22,2.84-.36.47-.7.94-1.06,1.4s-.71.84-1.07,1.25c-1.12,1.25-2.29,2.44-3.44,3.65-.63.65-1.25,1.31-1.87,2s-1.15,1.14-1.74,1.68c-.77.69-1.56,1.35-2.36,2-.44.36-.88.72-1.33,1.07s-.85.61-1.29.9c-.89.58-1.79,1.16-2.71,1.68s-1.93,1.06-2.91,1.57l-1.37.67-2.79-.95.21-.17c.4-.34.8-.68,1.21-1,.88-.69,1.79-1.34,2.69-2s1.92-1.4,2.87-2.12c.47-.34.91-.73,1.35-1.11s.89-.77,1.34-1.14.85-.68,1.27-1,1-.88,1.49-1.35c.82-.79,1.64-1.58,2.48-2.35.46-.43.92-.86,1.36-1.3s.81-.84,1.22-1.27c.79-.84,1.6-1.65,2.39-2.5,3.23-3.47,6.44-7,9.46-10.64a34.05,34.05,0,0,0,2.07-3c.57-.87,1.16-1.73,1.69-2.63.52.29,1,.59,1.57.9l.05,0c-.1.15-.19.31-.28.47m-39.9-81.62c.35,1,.75,1.92,1.19,2.86.25.51.48,1,.7,1.56s.39,1.08.57,1.62c.37,1.12.71,2.24,1,3.37s.64,2.24.92,3.37.47,2.17.7,3.25.5,2.41.71,3.62.31,2.24.43,3.36.19,2.32.25,3.48.15,2.46.23,3.69,0,2.18.07,3.26.11,2.37.15,3.56.06,2.48.09,3.72.07,2.38.12,3.57.06,2.21.13,3.32.15,2.34.28,3.5.24,2.31.48,3.45c.16.78.32,1.56.47,2.34s.39,1.69.59,2.53l-.08-.36c.21.87.43,1.74.65,2.6l-1.26-.62c-.05-.16-.09-.33-.13-.49-.11-.41-.21-.83-.31-1.24-.23-1-.45-1.93-.63-2.91s-.39-2.22-.58-3.33c-.1-.58-.19-1.15-.28-1.72s-.15-1.12-.22-1.68c-.13-1.12-.27-2.25-.39-3.38s-.29-2.26-.41-3.39-.25-2.39-.38-3.58-.29-2.35-.41-3.52-.23-2.34-.36-3.5c-.25-2.26-.46-4.53-.75-6.79-.08-.57-.18-1.14-.28-1.7l-.27-1.75c-.09-.57-.19-1.15-.3-1.72s-.26-1.15-.39-1.73c-.28-1.16-.55-2.31-.88-3.45s-.65-2.22-1-3.33-.67-2.19-1.08-3.27-.76-2.23-1.16-3.35c-.22-.63-.47-1.25-.7-1.88s-.49-1.36-.74-2c-.32-.88-.65-1.75-1-2.62l4.2,1.32m34.12,121.94c-1.26-.29-2.52-.6-3.77-.92,1.45-1.17,2.93-2.3,4.36-3.5.94-.79,1.89-1.57,2.84-2.35s1.8-1.47,2.67-2.23c.48-.42.94-.86,1.4-1.3l1.28-1.2c.82-.79,1.55-1.67,2.33-2.5s1.54-1.69,2.32-2.53c.4-.42.8-.85,1.19-1.29s.77-.9,1.14-1.35a30.88,30.88,0,0,0,2.1-2.86c.65-1,1.29-2,1.94-3s1.42-2.12,2-3.24,1.09-2.11,1.55-3.19l.61.3c.73.37,1.47.72,2.2,1.08-.58,1-1.14,2-1.71,2.95-.86,1.46-1.62,3-2.53,4.4-.6.89-1.24,1.74-1.89,2.59l-2.09,2.76c-.67.88-1.37,1.74-2.07,2.6a26.62,26.62,0,0,1-2.23,2.4c-.69.68-1.4,1.35-2.08,2.05s-1.39,1.44-2.1,2.15c-1.38,1.38-2.77,2.76-4.21,4.08-.43.39-.85.76-1.29,1.13s-.88.67-1.32,1c-.9.66-1.79,1.34-2.68,2M747.29,82.27l2.15.59c.39,1.06.78,2.11,1.18,3.16s.8,2.24,1.21,3.35.79,2.2,1.15,3.31.76,2.07,1.09,3.12c.54,1.7,1,3.42,1.44,5.14.24,1.06.45,2.12.65,3.18s.36,2.24.47,3.37.25,2.37.37,3.56.16,2.22.23,3.33.16,2.32.25,3.47.15,2.3.26,3.44.26,2.45.38,3.68.21,2.29.34,3.43.27,2.25.39,3.37.28,2.33.41,3.5.33,2.24.52,3.36.37,2.24.59,3.35c.15.78.34,1.56.53,2.34l-3-1.38c0-.23-.11-.47-.17-.69l-.18-.68c-.1-.37-.19-.74-.28-1.11-.25-1.06-.5-2.12-.69-3.19s-.35-2.31-.52-3.47-.32-2.23-.44-3.35-.19-2.33-.28-3.49c-.18-2.32-.3-4.63-.49-6.95-.08-1.1-.14-2.21-.23-3.31s-.21-2.32-.31-3.48c-.2-2.32-.49-4.62-.83-6.92-.17-1.15-.38-2.29-.6-3.43s-.43-2.31-.68-3.45c-.51-2.3-1.23-4.55-1.91-6.8-.33-1.09-.69-2.18-1.08-3.25s-.76-2.24-1.15-3.36c-.47-1.34-1-2.65-1.55-4l.75.21m32.89,120.84c.91-.63,1.83-1.25,2.73-1.89s1.89-1.33,2.79-2.05,1.78-1.48,2.64-2.26c.6-.53,1.19-1.07,1.78-1.61l-.19.18c.91-.82,1.83-1.62,2.72-2.44s1.69-1.6,2.52-2.41,1.55-1.52,2.28-2.33,1.54-1.76,2.28-2.68,1.46-1.77,2.15-2.69,1.49-2,2.17-3.06c.58-.89,1.09-1.83,1.63-2.74l.18-.31a.64.64,0,0,0,.08-.14c.45-.76.91-1.52,1.37-2.27.23-.39.46-.78.68-1.19.08-.17.17-.33.25-.51.84.43,1.68.87,2.52,1.29-.45.86-.86,1.74-1.3,2.61s-.88,1.61-1.38,2.39-1.08,1.65-1.61,2.49-.9,1.42-1.36,2.13c-.63.93-1.31,1.84-2,2.71s-1.54,1.81-2.31,2.71c-1.49,1.74-2.89,3.57-4.47,5.23-.91,1-1.83,1.91-2.8,2.81-1.53,1.38-3.07,2.76-4.61,4.12s-3.28,2.72-4.91,4.08l-2.78-.73-2.3-.59,1.27-.85M761.47,86.7c.09.18.17.36.27.54.23.42.48.84.73,1.25s.49,1,.68,1.47.45,1.18.67,1.77c.43,1.15.81,2.31,1.17,3.48s.65,2.21,1,3.3.78,2.32,1.12,3.5c.26.9.5,1.81.74,2.71.26,1.13.48,2.26.7,3.4s.4,2.28.55,3.43c.31,2.4.63,4.81.72,7.24,0,.71,0,1.42,0,2.12s0,1.39,0,2.08,0,1.35,0,2,0,1.32,0,2-.08,1.05-.13,1.57-.1,1.3-.12,2,0,1.17,0,1.75,0,1.17,0,1.76c0,1.12.07,2.25.12,3.38s.09,2.47.16,3.7c0,.94.09,1.88.16,2.82s.15,1.79.23,2.68.16,1.66.27,2.49l-.09,0-1.94-1,0-.12L768,146.1c-.33-1.24-.64-2.49-.94-3.75-.25-1-.46-2.09-.68-3.14s-.39-2.26-.54-3.39-.26-2.38-.35-3.57-.14-2.21-.21-3.32-.14-2.35-.19-3.53-.1-2.44-.16-3.66-.17-2.38-.26-3.56-.1-2.22-.21-3.33-.25-2.39-.36-3.59-.2-2.31-.34-3.45a69.06,69.06,0,0,0-1.23-7c-.26-1.14-.5-2.29-.77-3.43s-.62-2.35-1-3.51-.69-2.27-1.06-3.39a27.94,27.94,0,0,0-1.22-3.19c-.29-.61-.56-1.23-.81-1.85,1.24.39,2.49.81,3.72,1.25m-20.85-6.14c1.11.22,2.23.46,3.33.77l.53.15c.9,2.1,1.77,4.22,2.49,6.39.37,1.12.78,2.22,1.16,3.33s.68,2.24,1,3.36.59,2.16.86,3.24.43,2.16.58,3.26.32,2.37.45,3.55.17,2.24.25,3.36.21,2.31.29,3.47.17,2.32.25,3.49.19,2.28.26,3.43.14,2.24.22,3.37.15,2.34.22,3.52.17,2.29.24,3.43.2,2.32.35,3.47.32,2.28.48,3.42.36,2.27.6,3.39c.18.85.39,1.69.61,2.53l-4.67-2.16,0-.11c-.25-1-.46-2.09-.62-3.14s-.28-2.27-.35-3.42c-.13-2.31-.11-4.63-.22-6.94,0-1.13-.08-2.27-.12-3.4s0-2.3,0-3.45-.06-2.32-.09-3.49-.08-2.24-.16-3.36-.21-2.44-.37-3.66-.36-2.3-.57-3.45-.49-2.26-.75-3.38-.53-2.39-.83-3.58c-.57-2.25-1.24-4.46-1.93-6.67-.34-1.08-.71-2.16-1.09-3.22s-.83-2.12-1.23-3.19-.69-1.88-1-2.81L740,80.44l.58.12M589.74,91.25c-.41-.12-.83-.22-1.25-.33l.36-.08c.88-.2,1.76-.37,2.65-.52,1.26-.17,2.52-.27,3.78-.33h1l1.6,0-1.76.56c-.75.22-1.5.4-2.25.6a21.83,21.83,0,0,1-2.53.52h0l-.05,0c-.51-.18-1-.32-1.56-.47m93.51,17.37a9,9,0,0,0-.43-1c-.11-.23-.21-.47-.31-.71-.21-.5-.46-1-.67-1.5s-.25-.86-.36-1.29-.25-1-.38-1.54c-.25-1-.48-2-.68-3.07s-.35-2.18-.5-3.28c-.08-.54-.14-1.09-.24-1.63s-.21-1-.3-1.52-.14-1.07-.19-1.6-.13-1-.23-1.55c-.2-1.13-.45-2.24-.68-3.36s-.42-2.29-.65-3.44-.48-2.27-.77-3.4-.61-2.17-.93-3.25a24.73,24.73,0,0,0-1.24-3.23c-.9-2-1.89-4-2.9-5.95a19.17,19.17,0,0,0-1-1.8l-1.19-1.77c-.81-1.21-1.66-2.39-2.52-3.56-.43-.61-.84-1.22-1.25-1.84,1.45.19,2.91.4,4.35.63l.45.07c.44.57.88,1.13,1.31,1.7.61.88,1.17,1.78,1.72,2.7s1.23,2,1.79,3.07,1,2.06,1.53,3.1.89,1.93,1.3,2.91c.59,1.41,1.17,2.82,1.7,4.24s1.11,2.73,1.63,4.1c.36,1,.61,2.09.89,3.14s.54,2.18.77,3.28.46,2.33.68,3.49l.3,1.65c.09.52.17,1,.28,1.55.19.85.43,1.69.59,2.55s.32,1.69.41,2.55c.11,1.16.22,2.33.4,3.49s.4,2.17.65,3.25.51,2.23.85,3.32c.16.53.35,1,.55,1.57l-4.35-1.84-.31-.13a.29.29,0,0,1,0-.09m-1.31-3-.06-.16h0s0,.1.07.16m-.11-.28,0,0c0-.06-.05-.13-.08-.2l.05.12h0v0m2.07-43.92c.29,0,.58.12.87.18a.37.37,0,0,0,.05.11c.67,1.09,1.31,2.19,1.94,3.3s1.23,2.17,1.81,3.28,1,2,1.53,3,1,2.17,1.49,3.26c.64,1.4,1.25,2.82,1.8,4.27.36,1,.69,2.13,1,3.2s.69,2.26,1,3.4.49,2.25.7,3.39.43,2.4.6,3.61.26,2.26.43,3.38.36,2.31.58,3.45.45,2.41.7,3.61.5,2.26.76,3.39.47,2.29.68,3.45q.17.89.36,1.77c.12.56.27,1.1.42,1.65.27,1,.59,2.07.9,3.1,0,.12.08.23.11.35l-3.55-1.55a1.2,1.2,0,0,0-.15-.52l-.11-.23c-.13-.36-.26-.72-.38-1.09s-.28-.93-.4-1.4-.27-1.08-.38-1.62-.24-1.12-.38-1.67c-.28-1.11-.56-2.22-.8-3.34s-.43-2.22-.63-3.33-.46-2.3-.73-3.44-.45-2.31-.68-3.46-.49-2.24-.77-3.35-.52-2.37-.75-3.56-.46-2.19-.75-3.27-.56-2.22-.88-3.32a37.41,37.41,0,0,0-1.23-3.56c-.21-.52-.44-1-.66-1.56s-.4-1-.61-1.47c-.46-1.09-.94-2.16-1.42-3.23-.23-.52-.47-1-.73-1.53s-.59-1.1-.91-1.65c-1.14-2-2.12-4.11-3.16-6.17-.24-.49-.49-1-.75-1.44l3.09.61m29.46,58.77c.25.74.53,1.46.83,2.18l-3.13-1.52-.81-.38a.61.61,0,0,1,0-.12c-.29-.83-.54-1.67-.8-2.51-.33-1-.66-2.09-.93-3.16s-.5-2.17-.7-3.26-.39-2.17-.57-3.26c-.34-2.15-.56-4.31-.78-6.48l-.07-.8a1.1,1.1,0,0,0,0,.18c-.12-1.21-.22-2.41-.35-3.6s-.28-2.19-.43-3.28-.3-2.25-.55-3.36-.58-2.2-.9-3.29-.63-2.16-1-3.22c-.08-.22-.16-.44-.25-.66a.82.82,0,0,0-.1-.26c-.32-.81-.67-1.61-1-2.41-.43-1-.88-2.07-1.35-3.08s-1-2.12-1.51-3.15-1.17-2.05-1.73-3.09-1.11-2-1.68-3l-1.61-2.86c-.5-.86-1-1.73-1.48-2.59l1.46.3,1.07.23a1.46,1.46,0,0,0,.17.29c.67.89,1.34,1.77,2,2.65.51.65,1,1.28,1.53,1.94.59.88,1.16,1.76,1.74,2.64s1.24,1.9,1.82,2.87S703.35,76,703.86,77s1,1.9,1.47,2.88.95,2.15,1.36,3.26.69,2.13,1,3.2.67,2.12,1,3.19a21.4,21.4,0,0,1,.53,3.17c.12,1.09.25,2.19.41,3.27s.3,2.06.42,3.09.27,2,.38,3.06.15,2.08.21,3.12c0,.52.05,1.05.09,1.58s.12,1.33.19,2c.13,1.1.22,2.2.38,3.3s.34,2.15.57,3.21a41.91,41.91,0,0,0,1.49,4.9M690.24,62.81c.6,1,1.17,2,1.75,3.06s1.1,1.92,1.63,2.89,1.16,2,1.72,3.08c.28.51.54,1,.82,1.54l.87,1.56c.4.73.74,1.49,1.08,2.24s.66,1.49,1,2.24.66,1.58,1,2.38.66,1.58.95,2.38a2.09,2.09,0,0,1-.08-.23l0,.09a1.55,1.55,0,0,1,.08.23h0a.49.49,0,0,0,0,.11v0c.36,1.07.67,2.14,1,3.23s.61,2.23.84,3.35.35,2.19.48,3.3.23,2.35.35,3.53v0c.2,2.19.28,4.38.46,6.57.1,1.25.23,2.49.38,3.72.06.54.15,1.08.23,1.61l.27,1.71a42.3,42.3,0,0,0,1.24,5.46c.21.7.43,1.4.66,2.09l-.67-.3L705,118.1l-.06-.16c-.11-.27-.21-.54-.31-.81-.35-1-.65-2-.95-2.95s-.67-2.1-.94-3.16-.53-2.34-.78-3.51-.54-2.21-.84-3.31-.57-2.34-.83-3.52-.51-2.33-.76-3.49-.42-2.24-.58-3.38-.36-2.25-.57-3.37-.45-2.36-.71-3.53-.57-2.3-.92-3.43-.74-2.28-1.11-3.43-.77-2.21-1.24-3.28-1-2.21-1.47-3.31-.92-2-1.41-3-1.09-2.16-1.66-3.23-1.17-2.1-1.76-3.14c-.37-.65-.74-1.3-1.13-1.94,1.09.24,2.17.49,3.26.7m-16.74-3.3c1.17.19,2.33.36,3.49.58l1.71.34c.57,1,1.11,2,1.63,3.07s1,2.08,1.53,3.11,1.09,2.07,1.67,3.09a34.11,34.11,0,0,1,1.53,3.09c.94,2.1,1.82,4.24,2.65,6.39.17.5.35,1,.5,1.51s.34,1.19.49,1.79c.27,1.09.52,2.18.78,3.28s.45,2.25.64,3.39c.09.55.17,1.12.28,1.67s.24,1.13.37,1.7c.26,1.17.5,2.33.68,3.52.09.59.18,1.19.28,1.78s.2,1.1.32,1.64c.24,1.17.43,2.35.61,3.53s.35,2.24.55,3.35c.15.81.33,1.62.51,2.42s.33,1.72.51,2.57.3,1.51.5,2.25c0,0,0,0,0,0l-2.2-1-1-.43a1.48,1.48,0,0,0-.1-.27l-.32-.75c-.11-.24-.22-.49-.32-.73-.19-.44-.36-.89-.53-1.33a28.14,28.14,0,0,1-.87-3.11c-.25-1.09-.5-2.18-.71-3.27a31.18,31.18,0,0,1-.46-3.34c-.06-.56-.1-1.13-.19-1.69s-.18-1-.29-1.56c-.21-1.08-.53-2.14-.78-3.23s-.47-2.19-.7-3.29c-.47-2.23-1-4.46-1.64-6.64a32.91,32.91,0,0,0-1.15-3.34c-.23-.54-.48-1.06-.71-1.59s-.5-1.13-.74-1.7-.39-1-.61-1.5-.49-1.08-.73-1.61c-.48-1.06-.94-2.13-1.45-3.17-.22-.46-.47-.91-.71-1.36s-.53-1-.79-1.52c-.52-1-1.07-2-1.66-3s-1.2-2-1.83-3c-.33-.5-.66-1-1-1.47l-.32-.42.57.09M719.61,125l-2.1-1a1,1,0,0,0-.07-.15c-.4-1.09-.88-2.15-1.29-3.24s-.68-2-1-3-.63-2.11-.87-3.19-.38-2.09-.55-3.13-.29-2.23-.44-3.34c-.07-.46-.12-.92-.17-1.38-.1-1.12-.19-2.25-.31-3.37s-.27-2.11-.46-3.15c-.1-.52-.19-1-.27-1.55s-.22-1.16-.34-1.74c-.22-1.09-.44-2.17-.62-3.27s-.28-2.08-.49-3.12a29.49,29.49,0,0,0-.87-3.19c-.36-1.09-.71-2.19-1.07-3.28s-.78-2.24-1.24-3.33-.91-2-1.42-3-1-1.94-1.54-2.88-1.13-1.94-1.73-2.89-1.17-1.8-1.76-2.7c-.34-.51-.66-1-1-1.54s-.74-1-1.12-1.43-1-1.21-1.43-1.83c1,.23,2.09.45,3.13.7l.92.24c.38.41.76.83,1.11,1.27s.62.8.91,1.21c.63.91,1.24,1.84,1.83,2.78s1.16,2,1.73,2.94,1.12,1.91,1.64,2.89.95,1.9,1.4,2.86.86,1.88,1.23,2.85c.59,1.63,1.22,3.24,1.82,4.86.37,1,.71,2.11,1,3.17.16.54.3,1.07.44,1.61s.26,1.07.41,1.59a33.31,33.31,0,0,1,.87,3.22c.1.56.17,1.12.27,1.68s.23,1.18.35,1.76c.24,1.07.47,2.13.67,3.2s.43,2.27.68,3.4.52,2.12.69,3.2.33,2.31.51,3.47.44,2.1.62,3.16.36,2.28.54,3.42.4,2.15.59,3.22.35,1.91.54,2.86l-1.73-.85M660.05,57.56l3.27.42.2,0,.3.39c.53.78,1,1.57,1.57,2.34s1.13,1.55,1.69,2.33,1.27,1.85,1.9,2.79a25.89,25.89,0,0,1,1.72,3c.5,1,1,2,1.47,3s.92,2,1.35,3c.1.23.2.47.29.71.35,1,.62,2,.91,3s.6,2.22.85,3.35.42,2.27.6,3.4.38,2.25.58,3.38c.13.74.25,1.49.34,2.23,0,.46.06.91.09,1.36,0,.63.1,1.25.19,1.87s.15,1,.21,1.52.11,1.11.17,1.67c.12,1.1.25,2.21.42,3.31s.37,2,.57,3a16.36,16.36,0,0,0,.89,3.24c0,.13.11.25.16.38l-1.06-.44-2-.83a1.17,1.17,0,0,0-.12-.52c-.07-.14-.13-.28-.19-.42-.23-.66-.43-1.32-.67-2l.12.32a12.68,12.68,0,0,1-.44-1.94c-.12-.67-.2-1.35-.31-2s-.26-1.45-.37-2.17-.19-1.47-.27-2.21c-.1-1.1-.19-2.21-.3-3.31s-.26-2.25-.43-3.37-.44-2.25-.68-3.37-.56-2.18-.85-3.27a29.63,29.63,0,0,0-1.09-3.3c-.2-.52-.4-1-.61-1.56s-.47-1-.71-1.53c-.48-1-1-1.95-1.43-2.95s-.87-2.08-1.31-3.12a13.57,13.57,0,0,0-.74-1.54c-.28-.49-.57-1-.86-1.45l-.87-1.5c-.29-.49-.59-1-.9-1.43-.61-.94-1.17-1.91-1.83-2.82s-1.33-1.74-2-2.61l-.36-.45.57.08M594,93l1-.25c.52-.13,1-.24,1.56-.38s1.14-.34,1.7-.51c.8-.23,1.61-.45,2.41-.66.41-.1.82-.21,1.23-.28l.6-.08.79-.1a.76.76,0,0,0,.32-.11l2.25.49c.43.1.85.19,1.29.27-.3.11-.59.21-.87.34l-1.12.49c-.35.16-.7.29-1.06.44-.77.31-1.52.66-2.31.93A14.06,14.06,0,0,1,600,94a16.22,16.22,0,0,1-1.83.19c-.42,0-.83,0-1.25-.07s-.89-.11-1.33-.18q-.77-.48-1.56-.93m48.26,45.4c.28,0,.56-.11.84-.17.51-.11,1-.26,1.51-.41l1.54-.49c1.12-.37,2.24-.79,3.32-1.26s2.08-.95,3.11-1.44,2-1,2.94-1.61l1.4-.77a15.05,15.05,0,0,0,1.36-.75c.46-.3.9-.63,1.36-.93l1.46-.91c.92-.58,1.79-1.21,2.71-1.79s1.88-1.22,2.82-1.83,1.85-1.22,2.76-1.84l2.74-1.87c.91-.64,1.82-1.29,2.74-1.92l2.46-1.76.14-.1.31-.22-.28.2c.79-.56,1.58-1.09,2.37-1.64l2.3-1.63c.72-.52,1.44-1,2.18-1.52.34-.23.7-.44,1.06-.65l.36-.21,2.38,1,.22.09c-.28.15-.56.3-.83.46-.93.53-1.83,1.11-2.75,1.67a65.47,65.47,0,0,0-5.75,3.92l-2.65,2-2.83,2.12c-.88.66-1.77,1.32-2.66,2l-2.86,2.1-.61.44c-.61.44-1.22.88-1.81,1.34L664,131.23c-1,.64-1.92,1.25-2.87,1.9s-1.81,1.23-2.75,1.8a13.11,13.11,0,0,1-1.44.75c-.52.25-1.05.48-1.58.71-1,.45-2.08.88-3.12,1.31l-1.22.5c-.8.29-1.61.54-2.43.76-.46.13-.92.25-1.39.35s-.88.15-1.33.21-.76.06-1.15.06l-1.61-.07h0l-1.69-1,.86-.13m18,9.49,1.31-.41c.43-.13.85-.3,1.27-.45,1-.34,2-.68,2.95-1.07s1.93-.73,2.89-1.11l2.73-1.11c.87-.36,1.75-.71,2.62-1.08.45-.19.91-.39,1.34-.62l1.31-.71c.87-.47,1.76-.92,2.63-1.4s1.68-.94,2.5-1.43l2.46-1.41c.89-.52,1.74-1.08,2.63-1.59s1.75-1,2.6-1.52,1.6-1,2.41-1.51c.39-.25.8-.48,1.2-.73s.81-.52,1.22-.79c.85-.55,1.71-1.08,2.57-1.61s1.7-1.06,2.54-1.61,1.39-.88,2.06-1.34,1.42-1,2.14-1.48,1.41-.91,2.11-1.35c.52-.33,1.06-.63,1.59-.94l2.77,1.31-1.42,1c-.87.61-1.71,1.25-2.56,1.88-1.65,1.15-3.34,2.24-5,3.37-.84.58-1.72,1.11-2.58,1.66s-1.73,1.1-2.61,1.65-1.72,1.1-2.6,1.63l-1.31.77c-.44.27-.87.54-1.32.8-.84.48-1.69.93-2.52,1.44l-1.39.85c-.41.25-.83.48-1.25.71-.93.53-1.85,1.07-2.79,1.58l-2.69,1.44c-.93.51-1.88,1-2.82,1.46s-1.8.94-2.73,1.36c-.7.31-1.41.59-2.12.88s-1.47.61-2.22.9c-1,.37-2,.73-3.07,1-1.29.38-2.6.69-3.9,1a1,1,0,0,0-.21.08l-.72-.28c-.86-.35-1.72-.72-2.57-1.1l.55-.15m77.61-10.6-.76.53q-1.37.94-2.67,2c-1.78,1.42-3.49,2.93-5.21,4.43l-5.34,4.63c-1.71,1.5-3.39,3-5.08,4.56-.87.77-1.68,1.59-2.55,2.36L715,156.94c-.45.42-.88.85-1.32,1.27-.8.79-1.69,1.48-2.52,2.24l-1.33,1.27c-.41.38-.85.74-1.29,1.09-.78.61-1.56,1.21-2.38,1.75l-1.76,1.07c-.42.26-.84.5-1.27.72a10.51,10.51,0,0,1-1.53.59l-1.11.33a1.09,1.09,0,0,0-.27.11c-.72-.4-1.43-.8-2.15-1.18l-1.91-1,.37-.17,1.56-.76c.46-.23.92-.45,1.38-.69s1-.56,1.5-.84c1.07-.6,2.08-1.28,3.1-1.95s1.88-1.33,2.81-2c.45-.33.9-.63,1.35-.95s.94-.7,1.4-1.07c.92-.73,1.87-1.41,2.82-2.09.46-.34.9-.7,1.35-1.05l1.39-1.06c.48-.35,1-.69,1.42-1.07l1.35-1.11c.87-.73,1.7-1.52,2.54-2.28s1.7-1.48,2.54-2.24c1.7-1.53,3.35-3.13,5.09-4.61.61-.52,1.25-1,1.86-1.51s1.3-1.05,2-1.56l1.91-1.48c.39-.3.8-.58,1.19-.87l2.84,1.45m-17.45,39,2.79-1.85,2.91-2c.94-.65,1.89-1.29,2.79-2,1.92-1.49,3.8-3,5.66-4.59.9-.75,1.77-1.53,2.65-2.31s1.72-1.63,2.58-2.45,1.73-1.6,2.58-2.43,1.56-1.59,2.34-2.38c1.62-1.65,3.22-3.3,4.85-4.94l3.31-3.31,1.55-1.52.66-.64c.2-.2.43-.39.62-.6l.14-.14c1,.4,1.91.81,2.84,1.24l-.47.48-1.11,1.17c-.76.82-1.52,1.64-2.3,2.44-1.6,1.66-3.26,3.26-5,4.82s-3.41,3.13-5.14,4.67l-2.59,2.3-2.51,2.27-2.69,2.38c-.87.77-1.78,1.5-2.69,2.24-1.8,1.46-3.66,2.86-5.5,4.29-.56.44-1.1.9-1.67,1.33s-1.19.91-1.78,1.37c-1.14.89-2.37,1.65-3.59,2.43q-.45.28-.9.54c-.81-.48-1.62-1-2.44-1.43l-.13-.08c.74-.43,1.48-.87,2.2-1.34m68.29-14.43c.58.31,1.16.63,1.73,1s1,.58,1.48.86l-.38.61c-.49.74-1,1.48-1.47,2.23-.28.41-.56.83-.83,1.25s-.67.93-1,1.38c-.74,1-1.5,1.89-2.24,2.84s-1.52,1.85-2.28,2.77-1.49,1.81-2.25,2.7-1.46,1.71-2.21,2.55-1.66,1.82-2.49,2.72c-.38.43-.78.85-1.17,1.27s-.79.76-1.18,1.14c-.91.84-1.79,1.71-2.67,2.58l-.47.44c-.53.46-1.08.91-1.62,1.37s-1.15,1-1.71,1.52-1.45,1.18-2.2,1.74l-2.4,1.8c-.73.53-1.46,1.07-2.15,1.65s-1.33,1.12-2,1.66l-1.71-.58-1.57-.53c.7-.45,1.4-.91,2.09-1.39l2.75-2,1.49-1.07a13.64,13.64,0,0,0,1.48-1.15c.83-.77,1.64-1.56,2.47-2.32s1.79-1.54,2.69-2.3a22.32,22.32,0,0,0,2.48-2.75c.82-1,1.66-2,2.49-3s1.45-1.84,2.15-2.78c1.51-2,3-4,4.44-6,.71-1,1.39-2.11,2.05-3.19s1.22-2,1.82-3,1.1-1.82,1.6-2.75c.22-.41.42-.83.64-1.25s.32-.61.47-.92l1.69.9M768,199.38c1-.54,2-1.07,3-1.67s2.08-1.28,3.06-2,1.83-1.39,2.72-2.12,2-1.7,3-2.62,1.68-1.67,2.54-2.49,1.7-1.61,2.51-2.45c.39-.4.79-.81,1.15-1.23s.76-.92,1.13-1.4c1.46-1.86,3-3.63,4.46-5.51.72-.94,1.42-1.89,2.08-2.87.36-.52.69-1.06,1-1.6s.65-1,1-1.55c.53-.9,1.09-1.79,1.61-2.7l.73-1.34.27-.53,1.17.69,1.24.73c-.76,1.33-1.44,2.71-2.23,4s-1.7,2.77-2.59,4.13a58.44,58.44,0,0,1-4,5.52c-.75.87-1.51,1.71-2.26,2.58s-1.49,1.76-2.28,2.6c-1.1,1.17-2.18,2.36-3.31,3.49s-2.12,2-3.21,3l-2.39,2.12a25.22,25.22,0,0,1-2.54,1.84l-2.6,1.76c-.89.6-1.77,1.21-2.67,1.81-1.43-.43-2.86-.85-4.29-1.29l1.74-.92m32.24,9.29c1-.61,2.07-1.25,3.09-1.92s1.91-1.43,2.83-2.17S808,203,809,202.21a74.38,74.38,0,0,0,5.64-5.45c.83-.89,1.62-1.8,2.42-2.72s1.61-1.87,2.38-2.83,1.3-1.67,1.93-2.52,1.31-1.75,1.91-2.67,1.13-1.71,1.73-2.56l.84-1.2.29-.42,2.13,1.15,1.43.79-.36.53c-.32.43-.62.88-.92,1.32-.62.91-1.24,1.81-1.89,2.7s-1.38,1.79-2.09,2.67-1.47,1.89-2.2,2.83-1.43,1.78-2.21,2.6-1.63,1.68-2.44,2.52-1.65,1.65-2.49,2.46-1.69,1.64-2.56,2.43l-.34.31c-.65.58-1.32,1.15-2,1.68s-1.47,1.07-2.21,1.59a47.87,47.87,0,0,1-4.7,2.86l-1.41-.39c-.84-.23-1.68-.48-2.51-.72l.87-.5M781.41,96.11l.29.16a.9.9,0,0,0,0,.43c.65,2.13,1.32,4.26,1.88,6.42l.66,2.82c.52,2.25.89,4.53,1.29,6.8.2,1.16.4,2.32.56,3.48s.31,2.33.5,3.49a66.72,66.72,0,0,1,.77,6.88c.15,2.35.34,4.69.39,7,0,1.11.12,2.21.21,3.32s.13,2.3.18,3.45.07,2.18.07,3.27,0,2.19,0,3.29-.09,2.34-.12,3.52c0,.6,0,1.21-.08,1.82s-.08,1.52-.13,2.29-.17,1.38-.24,2.07c0,.43-.11.86-.14,1.29l-2.41-1.24a.57.57,0,0,0,0-.13c0-.22,0-.43-.05-.65,0-.49-.09-1-.11-1.47s0-1-.05-1.47-.07-1-.07-1.5c0-1.13,0-2.25,0-3.38,0-.55,0-1.1,0-1.65s0-1.14,0-1.7c0-1.17,0-2.33.05-3.49s.06-2.22,0-3.33-.07-2.25-.11-3.38-.12-2.27-.21-3.4c-.17-2.33-.32-4.66-.51-7s-.49-4.57-.85-6.84c-.18-1.18-.41-2.36-.63-3.54s-.42-2.35-.66-3.52c-.47-2.29-.95-4.58-1.5-6.85-.44-1.83-.93-3.64-1.43-5.44-.25-.92-.52-1.83-.79-2.73-.11-.37-.22-.74-.32-1.1l.53.3c1,.57,2,1.13,3,1.66m-9.14-4.88c1.06.49,2.13,1,3.15,1.53l.39.22c.27.93.53,1.87.81,2.8s.53,1.74.79,2.62q.76,2.67,1.42,5.36c.51,2.19,1,4.39,1.4,6.59.23,1.15.42,2.3.6,3.46s.39,2.37.55,3.56q.48,3.45.66,6.94c.06,1.14.1,2.29.11,3.43s0,2.3.06,3.46,0,2.58,0,3.88,0,2.35,0,3.53c0,.71,0,1.42-.07,2.12s0,1.3,0,1.94,0,1.22-.06,1.82,0,1.15,0,1.73c0,1.13,0,2.26,0,3.39,0,.57,0,1.14,0,1.72s0,1,0,1.44c0,.82.09,1.65.15,2.47l-2-1.06v-.27c0-.18,0-.37-.06-.56,0-.36,0-.72,0-1.08,0-.68,0-1.37,0-2.05l0-.87c0-.26,0-.52,0-.77,0-.6,0-1.2,0-1.8s0-1,0-1.56,0-1.1,0-1.65,0-1,0-1.5v-1.61c0-2.26,0-4.51,0-6.77s-.07-4.47-.16-6.71-.14-4.56-.32-6.83c-.08-1.09-.21-2.16-.36-3.23-.07-.56-.15-1.11-.23-1.67s-.2-1.1-.31-1.64c-.46-2.28-1-4.53-1.67-6.77s-1.31-4.42-2-6.62c-.34-1.1-.68-2.2-1-3.28s-.78-2.23-1.2-3.34l-.44-1.2c-.14-.38-.28-.77-.45-1.14,0-.1-.09-.19-.13-.28l.54.25M660,83.06c-.22-1.12-.44-2.24-.7-3.36a57,57,0,0,0-1.89-6.51,34.13,34.13,0,0,0-1.39-3.29c-.48-1-1-2-1.44-3.05s-.88-1.94-1.34-2.9-1-2-1.44-2.93c-.39-.77-.78-1.52-1.19-2.28-.31-.57-.63-1.15-.91-1.74h1c.44,0,.89,0,1.34,0,.41.5.79,1,1.17,1.56.53.71,1.07,1.42,1.59,2.14s1,1.78,1.54,2.67c.28.47.55.94.82,1.42s.5,1,.73,1.51c.45,1,.8,2.06,1.25,3.07s1,2.09,1.39,3.18.67,2.12,1,3.19.66,2.23.95,3.36a33.28,33.28,0,0,1,.68,3.3c.09.56.18,1.13.31,1.68s.27,1.11.4,1.67a19.23,19.23,0,0,1,.46,2.38c.11.81.19,1.62.27,2.42l.48,4.68v0s0,.07,0,.11h0v-.07a.61.61,0,0,0,0,.14v0h0v0h0v0a30.18,30.18,0,0,0,.36,3.14c.1.47.2.94.34,1.4s.31.91.48,1.36l.33,1-2.16-.76-2.64-.94,0-.47a1,1,0,0,0,.05-.35c0-.55,0-1.09,0-1.63s-.06-1-.1-1.57c-.08-1.09-.17-2.17-.24-3.26a67.62,67.62,0,0,0-.82-6.79c-.19-1.12-.41-2.24-.64-3.35m-6.63-4.74h0l0-.06ZM638.48,60.41c.54.07,1.07.15,1.6.25a8.52,8.52,0,0,1,1.47.36,7.43,7.43,0,0,1,1.27.75c.76.6,1.49,1.23,2.2,1.89a22.32,22.32,0,0,1,1.92,2.09c.64.87,1.2,1.8,1.75,2.73s1.21,2.17,1.77,3.28c1,2.07,1.95,4.2,2.85,6.34,0,0,0,0,0,0,.23.57.45,1.14.65,1.72s.35,1.1.51,1.65c.34,1.16.71,2.31,1.09,3.46s.62,2.09.88,3.15l.81,3.37c.16.68.33,1.36.47,2s.27,1.35.43,2a17.11,17.11,0,0,0,.63,1.87,9.52,9.52,0,0,1,.56,1.79c0,.16,0,.32,0,.48l-2-.7a1.39,1.39,0,0,0,0-.58,13.36,13.36,0,0,0-.23-1.41c-.1-.46-.18-.93-.29-1.38-.21-.94-.42-1.88-.64-2.82s-.42-1.83-.67-2.73c-.14-.48-.3-.95-.47-1.42s-.33-1-.51-1.53l-.12-.33c-.19-.53-.37-1.07-.61-1.59s-.5-1.07-.74-1.61-.52-1.08-.77-1.63-.44-1-.69-1.53c-.56-1.1-1.09-2.23-1.69-3.3-.3-.52-.62-1-1-1.51s-.78-1.17-1.19-1.75c-.72-1-1.43-2-2.21-3s-1.56-1.92-2.4-2.82c-.43-.48-.88-.94-1.34-1.39a19.86,19.86,0,0,0-1.72-1.44c-1-.77-1.95-1.49-3-2.18a31.39,31.39,0,0,0-3-1.84c-.21-.12-.43-.23-.65-.34l1.17-.18h0a16.08,16.08,0,0,1,3.79-.24m-11.29,2.07c.48-.17.94-.36,1.42-.51s1.06-.31,1.6-.44l1.3.56c.49.25,1,.49,1.46.76s1.06.65,1.57,1,1,.72,1.42,1.08.91.71,1.36,1.07c.78.65,1.56,1.32,2.29,2a30,30,0,0,1,2.29,2.5q1.1,1.34,2.16,2.7c.65.83,1.25,1.7,1.86,2.56s1.26,1.89,1.82,2.88c.3.55.56,1.12.85,1.68s.51,1,.75,1.51.46,1.06.71,1.58.52,1.08.76,1.62.51,1.08.75,1.63.4,1,.6,1.57c.28.73.55,1.45.82,2.18.46,1.36.86,2.74,1.27,4.11.21.7.4,1.4.56,2.1l.33,1.5-.07,0-1.13-.38s0,0,0-.07a3.39,3.39,0,0,0-.15-.9c-.1-.35-.21-.69-.31-1-.23-.8-.5-1.6-.78-2.38a33.6,33.6,0,0,0-2.19-4.62,1.36,1.36,0,0,0-.34-.41c-.29-.48-.57-1-.88-1.43s-.79-1.17-1.2-1.75c-.66-.92-1.34-1.82-2-2.71a64.7,64.7,0,0,0-4.47-5.17c-.83-.87-1.66-1.75-2.51-2.61s-1.63-1.51-2.44-2.26-1.75-1.67-2.69-2.41l-2.83-2.21c-1.13-.89-2.28-1.76-3.49-2.55-1-.63-1.93-1.27-2.91-1.88l1.07-.38,1.41-.49m-4.67,1.73.17-.07.09.06c.94.56,1.86,1.15,2.77,1.75s1.73,1.11,2.57,1.71,1.71,1.27,2.55,1.93,1.55,1.21,2.32,1.83,1.71,1.55,2.54,2.36,1.6,1.52,2.35,2.33c1.59,1.71,3.08,3.49,4.5,5.33.92,1.21,1.81,2.46,2.68,3.7.46.67.92,1.34,1.35,2s1,1.57,1.41,2.38c0,.07.09.14.15.21a.82.82,0,0,0,.1.24,35.31,35.31,0,0,1,2.13,4.48c.22.64.43,1.28.62,1.93,0,.12.07.24.11.36-.92-.29-1.84-.57-2.77-.84a1.46,1.46,0,0,0-.12-.39c-.28-.61-.64-1.19-1-1.78s-.69-1.29-1.06-1.92-.76-1.26-1.15-1.89S644,88.67,643.59,88a1.74,1.74,0,0,0-.4-.45,1,1,0,0,0-.14-.47,26.7,26.7,0,0,0-2.29-3c-.81-.92-1.65-1.8-2.48-2.7a14.55,14.55,0,0,0-1.14-1.08l-1.32-1.15c-.91-.8-1.85-1.58-2.79-2.35l-.14-.12c-.8-.67-1.58-1.37-2.37-2.06s-1.72-1.52-2.58-2.28-1.84-1.62-2.79-2.39-1.83-1.5-2.79-2.21-1.93-1.35-2.93-2h0c1-.55,2-1.06,3.06-1.56m-4.82,2.52c1.35.86,2.69,1.74,4,2.68s2.27,1.78,3.38,2.7c.87.75,1.72,1.52,2.57,2.3s1.68,1.51,2.51,2.27l1.19,1.09L632.7,79c.86.77,1.64,1.61,2.44,2.44s1.66,1.87,2.47,2.82,1.7,2,2.47,3.1c.21.31.42.63.61,1a1.66,1.66,0,0,0,.58.57.75.75,0,0,0,.11.28c.41.63.81,1.26,1.2,1.91.19.32.36.65.54,1s.37.65.54,1l1,2c-.65-.16-1.3-.32-2-.46a7.08,7.08,0,0,0-.77-1.26l.15.23-.73-1a.89.89,0,0,0-.29-.25,1.7,1.7,0,0,0-.3-.56c-.72-.92-1.43-1.84-2.18-2.74s-1.49-1.74-2.27-2.58-1.62-1.62-2.43-2.43-1.7-1.61-2.58-2.37l-2.66-2.34c-.91-.79-1.86-1.52-2.79-2.28s-1.83-1.48-2.76-2.2-1.92-1.5-2.9-2.23c-.46-.34-.92-.66-1.39-1l-1.34-1c-.48-.33-1-.67-1.46-1l-1.46-.9c.58-.39,1.16-.76,1.75-1.14s.93-.53,1.4-.79m-4.81,3c.7.41,1.39.84,2.08,1.27.5.31,1,.65,1.48,1l1.31.92,1.42,1c1,.71,1.94,1.44,2.9,2.18s1.91,1.46,2.84,2.23l1.44,1.19q1.32,1.13,2.55,2.34c.82.79,1.63,1.61,2.41,2.44.38.42.75.84,1.12,1.27s.78.87,1.18,1.31c.75.83,1.47,1.68,2.17,2.55l1.51,2c.5.67,1,1.36,1.49,2a.8.8,0,0,0,.21.2v0a.45.45,0,0,0,0,.11q-1.26-.23-2.52-.42a3.68,3.68,0,0,0-.45-.73L635.6,92l-1-1.29-.26-.34a1.3,1.3,0,0,0-.18-.23c-.53-.68-1.08-1.35-1.67-2-.74-.81-1.5-1.63-2.3-2.39s-1.67-1.55-2.52-2.29a36.15,36.15,0,0,0-2.82-2.29c-.92-.65-1.83-1.33-2.75-2s-2-1.4-3-2.1-1.91-1.25-2.89-1.85c-.5-.29-1-.61-1.46-.93s-1.07-.66-1.61-1c-.28-.18-.59-.32-.88-.48s-.41-.23-.63-.33l-1.53-.71.21-.18c.84-.61,1.69-1.23,2.55-1.83M608.63,73l.66.3,1.55.73a8.67,8.67,0,0,1,.79.43c.23.12.47.24.69.37l1.66,1c.45.3.9.6,1.36.88,1,.62,2,1.24,3,1.94l3,2.15c1.15.85,2.27,1.75,3.37,2.66.71.62,1.41,1.25,2.07,1.92s1.26,1.26,1.86,1.92,1.23,1.4,1.84,2.12,1.13,1.4,1.66,2.13l.11.16a3,3,0,0,0,.18.25c.13.2.27.39.41.59l.2.27-1.83-.21-1-.14-.29-.14-.15-.22-.47-.58c-.34-.41-.69-.81-1-1.2-.71-.8-1.46-1.54-2.23-2.28a39.69,39.69,0,0,0-5.47-4.17c-1-.68-2-1.32-3-2s-1.93-1.22-2.9-1.82-2-1.26-3-1.87-2-1.11-2.95-1.67c-.79-.45-1.59-.88-2.41-1.29l.27-.25c.71-.68,1.42-1.37,2.16-2m-3.75,3.51c1,.48,2,1,3,1.57s2,1.11,3,1.69,2,1.23,3,1.86,1.93,1.2,2.86,1.85c.77.54,1.56,1.08,2.32,1.65s1.55,1.19,2.3,1.81A22.49,22.49,0,0,1,623,88.5c.61.62,1.19,1.27,1.76,1.92.38.43.75.86,1.11,1.3l-.51-.09-2-.25-1.08-.13-1.52-.2a1.68,1.68,0,0,0-.31-.61,5.78,5.78,0,0,0-.49-.5c-.21-.21-.42-.42-.64-.62-.4-.4-.82-.77-1.24-1.15a31.52,31.52,0,0,0-3-2.3c-1-.67-2-1.32-3-2-.55-.34-1.1-.67-1.66-1s-1-.61-1.52-.9-1.18-.63-1.77-1l-1.85-1c-.63-.33-1.28-.61-1.93-.89-.33-.14-.67-.24-1-.35l1.33-1.21c.39-.37.79-.73,1.19-1.09m-4.17,3.85,0,0c.46.16.94.3,1.4.47s.85.33,1.27.51,1,.5,1.46.76,1.07.61,1.61.91.92.5,1.36.77.92.58,1.37.88c1,.63,1.9,1.28,2.82,2s1.71,1.31,2.54,2c.67.57,1.32,1.17,2,1.77l0,0-1.15-.16c-1.4-.19-2.8-.42-4.2-.68h0a12.18,12.18,0,0,0-1.19-1c-.44-.33-.89-.65-1.34-1-1-.67-2-1.33-3-2-.52-.33-1-.66-1.58-1s-1.07-.56-1.61-.83c-1.14-.56-2.28-1.13-3.46-1.62l-.27-.11c.68-.58,1.34-1.2,2-1.82m-5.13,4.43,1.28-1.06c.3.1.6.19.88.31l1,.4c1,.48,1.89,1,2.82,1.59.51.3,1,.6,1.51.93s1,.67,1.44,1l.78.55c-.57-.1-1.13-.21-1.7-.3s-1-.15-1.52-.24l-.24-.14c-.32-.19-.64-.38-1-.56l-1.12-.59c-.38-.19-.77-.4-1.16-.58a22.51,22.51,0,0,0-2.54-.9l-.66-.21.25-.21m-3.08,2.32,1-.72c.6.17,1.19.34,1.78.54s1.47.46,2.18.75l.16.09-1.08,0a.93.93,0,0,0-.44.12,25.28,25.28,0,0,0-2.6.2l-.5.08-.72,0a14.41,14.41,0,0,0-1.61.18c.59-.45,1.19-.89,1.8-1.31m5.93,8.74h.17a17.65,17.65,0,0,0,3.15-.41,25.28,25.28,0,0,0,3-1c.44-.16.89-.3,1.33-.47s.9-.34,1.35-.51,1-.32,1.51-.49l1.32-.41,1-.27.26-.08.24-.15c1.34.15,2.68.27,4,.4l-.84.37c-.41.18-.81.38-1.21.6s-.78.45-1.18.66c-.83.46-1.65.92-2.45,1.43a21.72,21.72,0,0,1-2,1,17,17,0,0,1-2.19.82,10.25,10.25,0,0,1-1.33.31,14.64,14.64,0,0,1-1.47.15,11.08,11.08,0,0,1-2.28-.32.68.68,0,0,0-.37,0c-.66-.61-1.35-1.18-2.06-1.72m4.72,4.5-.66-.76.37,0c.36,0,.73,0,1.08,0l.81-.07a15.6,15.6,0,0,0,3.24-.77c.52-.17,1-.38,1.52-.59s.94-.4,1.39-.63l1.46-.8c.48-.25,1-.49,1.47-.72l1.5-.74c.52-.25,1.06-.46,1.6-.68.94-.39,1.87-.81,2.84-1.12l.53-.15a1.23,1.23,0,0,0,.52-.27c1,.14,2,.28,3,.45l.8.14-1.27.62c-1,.5-2,1.1-3,1.67s-1.88,1.15-2.82,1.73c-.63.35-1.27.67-1.9,1s-1.37.77-2.06,1.15a16.88,16.88,0,0,1-2.14.93c-.68.27-1.36.5-2,.72a10.89,10.89,0,0,1-1.5.35c-.48.07-1,.11-1.44.14a7.12,7.12,0,0,1-1.46-.19l-1-.28c-.3-.38-.6-.76-.91-1.13m3.9,5.59c-.5-.8-1-1.59-1.52-2.38a4.26,4.26,0,0,0,.5.06,7.62,7.62,0,0,0,1.17,0,13.87,13.87,0,0,0,1.7-.22c.61-.13,1.22-.3,1.82-.48a33.27,33.27,0,0,0,3.35-1.18c.53-.22,1-.48,1.56-.74s1.13-.55,1.71-.81c.42-.19.85-.36,1.26-.57s1-.51,1.45-.77c.85-.47,1.71-.9,2.58-1.32l1.37-.68,1.37-.61a19.32,19.32,0,0,1,2.34-.87l.92-.26c.33-.08.67-.19,1-.26a1.26,1.26,0,0,0,.37-.13l1.42.33.31.07c-.37.13-.74.28-1.1.43s-.93.36-1.38.57-.91.46-1.36.7c-1,.54-2,1.12-2.9,1.74-1.45,1-2.85,2-4.28,2.92l-2.14,1.45c-.68.48-1.35,1-2.05,1.42q-.76.47-1.56.9c-.32.18-.64.34-1,.51a10.33,10.33,0,0,1-1,.39,13.27,13.27,0,0,1-2.85.6,15.63,15.63,0,0,1-2.63-.33.74.74,0,0,0-.21,0l-.28-.47m1.41,2.3.58.07a8.06,8.06,0,0,0,1.63,0,12.87,12.87,0,0,0,1.64-.33,15.89,15.89,0,0,0,1.63-.47,21.44,21.44,0,0,0,2.92-1.45c.53-.29,1-.6,1.55-.93s.84-.55,1.26-.82l1-.62,1.79-1.07-.12.07.19-.12h0c.86-.53,1.71-1.08,2.56-1.62.68-.41,1.37-.81,2.07-1.19s1.54-.8,2.33-1.18,1.54-.67,2.33-1,1.54-.6,2.33-.86c.38-.11.76-.21,1.15-.3a8.39,8.39,0,0,1,1.22-.2l.46.12,1.12.36-.78.31a23.43,23.43,0,0,0-2.78,1.3c-.88.48-1.75,1-2.62,1.46-1.25.71-2.46,1.46-3.68,2.21l-1.31.77c-.42.25-.84.5-1.24.79-.82.6-1.62,1.23-2.43,1.83s-1.49,1.14-2.22,1.73c-.36.29-.73.59-1.1.87s-.82.57-1.24.84l-.91.55c-.33.18-.67.34-1,.51a18.88,18.88,0,0,1-2.17.93,8.75,8.75,0,0,1-1.77.31,7.52,7.52,0,0,1-1.42-.15c-.34-.09-.68-.19-1-.31a.7.7,0,0,0-.35,0q-.82-1.2-1.59-2.43m4.24,6-1.1-1.47.56,0a5.53,5.53,0,0,0,.91,0,9.58,9.58,0,0,0,3.2-.83,23.14,23.14,0,0,0,2.73-1.36c.52-.31,1-.63,1.54-1s.79-.57,1.18-.87c.85-.66,1.7-1.35,2.6-2s1.8-1.28,2.74-1.87,1.78-1,2.66-1.5,1.84-1,2.78-1.54,1.83-1,2.75-1.42a27.26,27.26,0,0,1,2.82-1.26l1.38-.51c.47-.18.93-.36,1.41-.51s.77-.2,1.16-.28l.55-.1.73.19c-1,.51-2,1.09-2.93,1.68s-1.84,1.16-2.75,1.75-1.83,1.26-2.74,1.9c-.44.32-.87.66-1.28,1s-.86.67-1.31,1l-1.36.94a13.45,13.45,0,0,0-1.13.86c-.35.29-.67.62-1,.93a9.74,9.74,0,0,1-1.26,1c-.45.31-.9.6-1.34.92l-1.35,1c-.44.32-.88.61-1.33.9-.68.44-1.34.88-2,1.31-.52.29-1.06.56-1.6.81-.27.14-.55.26-.83.38s-.45.16-.67.23c-.52.14-1,.3-1.59.39a11.4,11.4,0,0,1-1.43.18,7.85,7.85,0,0,1-1.53-.14l-.7-.2h0l-.41-.55m1.89,2.54.51,0a9.29,9.29,0,0,0,1.39-.1,9.66,9.66,0,0,0,1.31-.21c.51-.13,1-.25,1.53-.41a13.07,13.07,0,0,0,1.47-.56q.71-.3,1.38-.63c.47-.24.92-.53,1.38-.82.92-.55,1.87-1.08,2.76-1.69.45-.31.89-.62,1.34-.91s1-.6,1.42-.91a12.89,12.89,0,0,0,1.39-1c.42-.37.83-.73,1.28-1.07s.65-.45,1-.67.92-.59,1.38-.89.83-.58,1.23-.89,1.09-.8,1.66-1.18,1.13-.77,1.71-1.14c1.1-.7,2.22-1.38,3.33-2.07.82-.49,1.66-1,2.51-1.41.42-.21.84-.39,1.26-.6a9.23,9.23,0,0,0,.91-.52l1.73.53-.31.16c-.39.21-.77.45-1.15.68-.88.54-1.75,1.08-2.62,1.64l-1.41.92c-.45.31-.88.65-1.31,1-.86.67-1.76,1.29-2.66,1.9s-1.73,1.28-2.59,1.94-1.76,1.28-2.61,1.95-1.67,1.4-2.48,2.13c-.38.34-.75.68-1.15,1s-.9.72-1.36,1.07c-.83.64-1.65,1.29-2.51,1.86l-1.17.76c-.56.33-1.13.63-1.71.92a9.25,9.25,0,0,1-.88.32l-.81.25c-.65.19-1.31.39-2,.55a9,9,0,0,1-1.86.19c-.55,0-1.09,0-1.64-.07-.57-.65-1.12-1.31-1.65-2m34.1-6.36c-.39.36-.78.72-1.18,1.06l-1.3,1.06c-.87.69-1.72,1.39-2.6,2.07l.21-.16-.78.59c-.85.66-1.68,1.35-2.53,2l-2.18,1.72c-.42.31-.84.61-1.28.89s-1,.59-1.47.88-1,.6-1.46.88a14.8,14.8,0,0,1-1.5.72c-.56.23-1.12.46-1.67.73-.23.12-.45.26-.68.39a6,6,0,0,1-.57.28l-1.69.6c-.57.21-1.11.47-1.67.71a11.78,11.78,0,0,1-2,.65h-.16l-.14,0a9.49,9.49,0,0,1-1.07-.61c-.39-.24-.78-.5-1.15-.77-.16-.12-.31-.25-.45-.37.43,0,.86-.1,1.29-.17a10.42,10.42,0,0,0,1.64-.43l1.5-.46a12.62,12.62,0,0,0,1.48-.58c.5-.24,1-.52,1.48-.8,1-.54,2-1.06,2.91-1.7.42-.29.82-.61,1.24-.9s.9-.63,1.33-1,.81-.58,1.21-.87.9-.66,1.34-1l1.25-1c.41-.33.85-.63,1.29-.94.91-.64,1.79-1.33,2.68-2l1.35-1c.42-.3.82-.62,1.21-.94.83-.67,1.67-1.33,2.53-2l2.54-1.88c.81-.59,1.65-1.12,2.49-1.67.66-.43,1.34-.85,2-1.26q.68-.4,1.35-.78c.25-.14.5-.27.75-.42l1.49.5L656.14,104c-.79.72-1.59,1.44-2.41,2.14-1.68,1.43-3.39,2.84-5,4.31m-8.84,14.74c.89-.61,1.74-1.27,2.59-1.93s1.81-1.43,2.71-2.15c1.64-1.31,3.16-2.76,4.67-4.22a49.39,49.39,0,0,0,4.33-4.59c.72-.88,1.42-1.78,2.11-2.68s1.3-1.63,1.94-2.46c.31-.38.6-.77.89-1.17s.45-.65.68-1a15.12,15.12,0,0,0,.84-1.47c1.76.63,3.52,1.28,5.3,1.87l.39.14-.37.26c-.78.58-1.54,1.19-2.29,1.82l-2.34,2c-.78.67-1.57,1.34-2.37,2s-1.66,1.34-2.47,2-1.52,1.35-2.29,2-1.58,1.3-2.38,1.93-1.62,1.3-2.45,1.91c-.62.45-1.23.92-1.84,1.38l-1.17.83c-.42.31-.84.61-1.28.89-.88.55-1.79,1.06-2.68,1.6s-1.8,1-2.73,1.54-1.74.88-2.62,1.32l.07,0c.93-.6,1.86-1.2,2.76-1.83m71.9,10.65c-1.85,1.18-3.77,2.23-5.7,3.27l-2.67,1.47c-1,.51-1.91,1-2.86,1.55-1.47.84-2.95,1.67-4.46,2.44s-2.94,1.42-4.44,2.06c-.94.38-1.88.76-2.83,1.11s-2,.71-3,1-2,.67-3,1-2.08.61-3.13.88c-1.29.33-2.58.63-3.86,1-.67.18-1.35.35-2,.49s-1.17.19-1.75.28a4.22,4.22,0,0,1-.61,0,7,7,0,0,1-1-.27c1.3-.45,2.59-.93,3.87-1.45.91-.37,1.83-.73,2.75-1.08s1.71-.67,2.56-1c1.74-.72,3.47-1.47,5.21-2.18.86-.35,1.71-.7,2.56-1.07s1.73-.76,2.59-1.15c1.75-.78,3.49-1.61,5.21-2.47.82-.41,1.64-.85,2.45-1.29l2.66-1.36c.42-.21.83-.42,1.23-.65l1.19-.71c.38-.23.76-.44,1.14-.66l1.23-.73c.84-.5,1.67-1,2.5-1.52s1.62-1,2.42-1.51l1.61-1.1c.62-.43,1.24-.85,1.84-1.29l-.22.16,2.36-1.67h0l-.14.1.13-.09h0l.18-.13,0,0h0l.55-.4-.12.09.16-.12a.1.1,0,0,0,0,0l0,0c.39-.28.78-.56,1.15-.85l.38-.3,1.15.55c.66.32,1.34.63,2,.92l-1.68,1.21c-.82.59-1.63,1.18-2.44,1.79-1.66,1.26-3.31,2.56-5.07,3.69m-5.47,16.22c.89-.8,1.78-1.6,2.66-2.43s1.68-1.64,2.5-2.5,1.45-1.57,2.14-2.38,1.46-1.73,2.15-2.61,1.48-1.89,2.17-2.87c.32-.45.65-.89,1-1.36s.62-.94.9-1.43l1-1.79c.27-.45.5-.93.75-1.39s.46-.86.67-1.3c.3-.65.6-1.3.88-1.95,1.13.47,2.25.95,3.36,1.47,1.32.62,2.64,1.27,4,1.93l1.93,1q-.4.28-.81.6c-.91.69-1.82,1.39-2.71,2.11s-1.72,1.36-2.55,2.07-1.7,1.5-2.53,2.26-1.7,1.59-2.56,2.37-1.71,1.5-2.55,2.27-1.66,1.56-2.52,2.31-1.73,1.5-2.62,2.23-1.73,1.49-2.61,2.23-1.81,1.45-2.67,2.23c-.46.41-.93.81-1.41,1.19s-.85.67-1.28,1c-.91.71-1.8,1.44-2.75,2.11-.77.54-1.54,1.07-2.33,1.59s-1.89,1.13-2.87,1.62l-1.56.78a14.72,14.72,0,0,1-1.84.74.26.26,0,0,0-.09.05l-1.91-.84-.34-.15c.38-.26.76-.52,1.13-.79l2.75-1.94q2.82-2,5.56-4.16c1.74-1.35,3.41-2.78,5-4.25m66.33,11.5c-.73.88-1.49,1.72-2.25,2.56s-1.49,1.62-2.26,2.4-1.56,1.59-2.38,2.35c-1.68,1.54-3.37,3.07-5.09,4.55-1.29,1.11-2.64,2.14-4,3.18l.11-.08-5.34,4c-.92.69-1.82,1.4-2.78,2-.51.33-1,.64-1.52.94s-1.06.58-1.6.85c-.85.44-1.73.85-2.61,1.23a20.45,20.45,0,0,1-4,1.19h-.31l-.16,0c-.72-.31-1.42-.67-2.12-1q1.05-.54,2.1-1.05c1-.5,2.07-1,3.08-1.5l3-1.58c1.13-.6,2.2-1.26,3.27-1.94l.13-.08.24-.15-.1.06.54-.34-.25.16c1-.65,2.09-1.29,3.1-2s2-1.39,3-2.09,1.89-1.45,2.81-2.2,1.83-1.43,2.72-2.17c1.8-1.49,3.54-3.06,5.27-4.63.89-.82,1.78-1.63,2.65-2.48s1.66-1.69,2.47-2.55l1.86-2c.65-.69,1.29-1.39,1.94-2.09s1.28-1.36,1.9-2.06c.27-.3.53-.61.79-.92.11-.13.21-.26.31-.4l.38.2,1.27.63-.3.4c-.21.24-.46.44-.68.68s-.64.73-1,1.09-.68.79-1,1.18-.69.77-1,1.16c-.72.79-1.41,1.61-2.1,2.43M752.54,195.5a4.68,4.68,0,0,0,.4-.27,18.61,18.61,0,0,0,1.5-1.15c.42-.35.81-.72,1.22-1.08l1.31-1.17c.87-.78,1.73-1.58,2.55-2.42s1.5-1.74,2.22-2.63c.88-1.09,1.77-2.18,2.6-3.31l2.47-3.33,2.14-2.81c.74-1,1.46-2,2.17-3,1.35-1.92,2.67-3.86,4-5.79.55-.81,1.13-1.61,1.69-2.41s1.22-1.77,1.81-2.67,1.07-1.65,1.54-2.51a14.32,14.32,0,0,0,.65-1.3c.16-.35.32-.7.46-1.05.08-.18.15-.37.21-.55,1.08.55,2.15,1.12,3.22,1.68-.44.71-.8,1.47-1.2,2.19-.5.92-1.07,1.8-1.61,2.69-1,1.74-2.1,3.47-3.2,5.17-.68,1-1.38,2-2.11,3l-2.16,2.91c-.7.94-1.39,1.89-2.11,2.82s-1.61,2-2.42,3c-.62.76-1.22,1.54-1.83,2.3a9.85,9.85,0,0,1-.92,1c-.34.34-.7.66-1,1-.73.7-1.44,1.41-2.15,2.12s-1.36,1.45-2.07,2.14c-.59.48-1.19.94-1.81,1.4l-2,1.52c-1.37,1-2.79,2-4.25,2.91l-.11.08-.25-.09c-.31-.13-.61-.26-.9-.4m92.79-2.3c-.18.55-.39,1.09-.6,1.63a31.12,31.12,0,0,1-2.07,4.22c-.43.72-.93,1.4-1.42,2.08s-.89,1.26-1.35,1.89a17.88,17.88,0,0,1-1.69,1.79c-.63.59-1.27,1.17-1.94,1.72-1,.7-1.94,1.34-3,1.95a24.29,24.29,0,0,1-3,1.46,40.2,40.2,0,0,1-4.25,1.46c-1.44.38-2.92.62-4.39.86-.33,0-.66.09-1,.11l-.45,0c.32-.15.62-.29.93-.45,1-.51,1.94-1.07,2.89-1.64s1.83-1.15,2.7-1.77c.41-.3.81-.62,1.21-.93l1.21-1c.82-.67,1.62-1.35,2.41-2l.56-.49a1.07,1.07,0,0,0,.16-.14,46.77,46.77,0,0,0,4-3.88c.71-.81,1.4-1.64,2.1-2.46s1.27-1.57,1.9-2.36c.31-.38.63-.76.93-1.15s.59-.79.88-1.2c.41-.56.8-1.14,1.17-1.73l2.31,1.35-.22.65m4.55-35.3c.35,1.11.67,2.23,1,3.36.23.94.44,1.89.66,2.83s.41,1.84.56,2.77a35,35,0,0,1,.21,4.91c0,1.75-.13,3.5-.3,5.25-.18,1.34-.51,2.66-.81,4a29.68,29.68,0,0,1-1.12,4,17.71,17.71,0,0,1-1.25,2.31c-.17.26-.35.51-.53.76l-.89-.42q0-.81.09-1.62c.06-.77.14-1.53.24-2.3.16-1.15.36-2.28.61-3.42a36.25,36.25,0,0,0,.72-3.71c.15-1.23.25-2.46.37-3.68s.27-2.43.3-3.65c0-1,0-2,0-3s-.05-1.95-.09-2.92-.12-2-.21-3-.25-2-.4-3-.16-1.84-.24-2.76v0c.41,1.1.77,2.21,1.13,3.33m-7-16.07c.33.49.67,1,1,1.47s.64,1,.94,1.57.68,1.29,1,1.95l.36,2.52c.17,1.19.34,2.38.5,3.58s.21,2.54.29,3.82.26,2.34.31,3.51.06,2.38,0,3.58,0,2.41-.11,3.62c0,.76-.07,1.53-.13,2.3s-.15,1.56-.25,2.35c-.16,1.39-.3,2.79-.47,4.19-.16,1-.39,2-.61,3s-.44,2-.6,3.05-.3,2.09-.39,3.14c0,.32,0,.64-.07,1l-3.33-1.48c0-.52,0-1,.06-1.57,0-1.07.12-2.14.26-3.21s.38-2.3.52-3.46.25-2.33.39-3.49c.27-2.32.55-4.62.75-6.94.1-1.17.22-2.33.28-3.5s.07-2.48,0-3.72,0-2.37,0-3.55-.16-2.34-.28-3.5l-.33-3.34c-.13-1.21-.29-2.41-.48-3.61s-.37-2.21-.58-3.31c-.11-.56-.24-1.12-.35-1.68l0-.16,1.34,2M828,125.12c.3,1.22.6,2.45.87,3.68.22,1,.38,1.95.51,2.94s.18,2.23.25,3.34.16,2.34.19,3.51a29.21,29.21,0,0,1-.08,3.24c-.1,1.16-.19,2.33-.34,3.49,0-.09,0-.19,0-.28-.16,1.18-.3,2.36-.44,3.54s-.34,2.24-.5,3.36-.38,2.34-.59,3.5-.41,2.33-.61,3.5c-.09.55-.19,1.11-.29,1.66s-.19,1.31-.27,2l0-.23,0,.25h0v0c-.16,1.2-.31,2.41-.41,3.61s-.21,2.29-.3,3.44-.16,2.25-.22,3.38,0,2.28,0,3.41c0,.36.06.72.08,1.07l-2.16-1.12c-.11-.46-.22-.93-.3-1.4s-.16-1.07-.23-1.6c-.12-1-.17-2-.22-3s-.08-2.09-.09-3.14c0-.57,0-1.14,0-1.72s.09-1,.14-1.54c.1-1.05.2-2.1.31-3.15.32-2.2.73-4.38,1.08-6.57.2-1.16.42-2.32.65-3.49s.43-2.5.57-3.76.24-2.46.36-3.69c.06-.57.12-1.13.17-1.69s0-1.26.07-1.89,0-1.11,0-1.67,0-1.28,0-1.91c0-1.18,0-2.35,0-3.52,0-.86-.13-1.71-.19-2.56s-.11-1.9-.21-2.85-.21-1.94-.39-2.89c-.09-.44-.17-.88-.27-1.31l-.09-.39,0,0c1,.76,1.91,1.56,2.84,2.37m-25.25,20.12c.51-1.19,1-2.4,1.43-3.61.83-2.21,1.44-4.49,2.09-6.75.32-1.13.63-2.27.9-3.42s.48-2.33.68-3.5.41-2.36.64-3.54.46-2.22.62-3.35c.22-1.52.38-3,.56-4.58.09-.76.23-1.51.33-2.27s.13-1.25.19-1.88l.06,0,.55.25h0c.14.62.29,1.24.4,1.86s.17,1.07.24,1.61l.18,1.57a11.71,11.71,0,0,1,.06,1.57c0,1.11-.07,2.22-.09,3.34s0,2.07-.07,3.11-.17,2.09-.3,3.12-.41,2.35-.66,3.51-.54,2.31-.83,3.46-.6,2.22-.94,3.32-.77,2.33-1.18,3.48-.85,2.49-1.29,3.72-.9,2.59-1.4,3.86c-.42,1-.83,2-1.24,3-.5,1.19-.9,2.42-1.29,3.65-.17.53-.33,1.07-.49,1.61s-.38,1.14-.55,1.71c-.3,1.06-.56,2.14-.77,3.22-.07.38-.14.76-.2,1.14q-2.31-1.14-4.62-2.31l.06-.18c.1-.24.19-.49.28-.74.19-.5.37-1,.54-1.49.22-.67.43-1.36.61-2,.43-.9.85-1.8,1.27-2.69,1-2.08,1.76-4.24,2.7-6.33.52-1.15,1-2.29,1.53-3.44m-8.45-42.38,1.92,1.1c.53.31,1.06.61,1.55,1l.19.17c.06.1.12.2.17.3a9.2,9.2,0,0,1,.26,1c.09.4.19.79.27,1.18.16.78.29,1.56.41,2.35.29,2.22.54,4.46.64,6.7.06,1.2.11,2.39.13,3.59s0,2.35,0,3.53,0,2.08-.1,3.13c0,.88-.11,1.77-.18,2.65-.14,1.79-.32,3.57-.52,5.35-.13,1-.26,2-.36,2.95s-.17,1.82-.26,2.73c-.33,2.3-.79,4.58-1.33,6.85-.25,1.07-.53,2.15-.74,3.23s-.42,2.4-.67,3.59a40.16,40.16,0,0,1-1.08,4.15c-.11.38-.24.76-.38,1.14s-.47.89-.71,1.33c0-.07,0-.13.05-.19a1,1,0,0,0,0-.49,1.7,1.7,0,0,0,.24-.55c.11-.56.23-1.12.35-1.67s.2-1.09.32-1.63a16,16,0,0,0,.23-1.69c.06-.58.13-1.17.23-1.75.36-2.35.67-4.72.9-7.09.07-.79.15-1.58.2-2.37s.06-1.45.08-2.18c.1-2.49.27-5,.31-7.48,0-1.14.07-2.27,0-3.4s-.1-2.36-.14-3.54c0-.65,0-1.3-.08-2l-.12-1.65c-.08-1.21-.18-2.42-.27-3.64s-.25-2.42-.41-3.63-.31-2.28-.52-3.41-.43-2.15-.65-3.23-.58-2.25-.9-3.37-.64-2.15-1-3.22q-.17-.52-.36-1c.77.39,1.53.78,2.28,1.2m-59.52,8.25c0-2.3,0-4.61-.22-6.9s-.45-4.88-.73-7.31-.6-4.67-.9-7c-.21-1.68-.4-3.37-.64-5.05-.12-.91-.26-1.82-.41-2.72s-.28-1.57-.41-2.35a13.49,13.49,0,0,1-.13-1.4l1,.26.58.15c.35,1.18.76,2.34,1.11,3.52.23.8.48,1.58.7,2.38s.39,1.53.58,2.29c.25,1.08.48,2.16.73,3.24s.44,2,.65,3h0a1.31,1.31,0,0,0,.06.27.36.36,0,0,0,0,.1c.24,1.15.42,2.32.61,3.48s.3,2.3.42,3.45.21,2.35.28,3.53.06,2.25.09,3.38.11,2.43.19,3.65.13,2.32.19,3.48c.13,2.34.09,4.69,0,7s-.06,4.69,0,7c.07,1.55.19,3.09.38,4.62.05.4.11.8.17,1.19l-1-.44-2.74-1.25-.24-3.08c0-.57-.1-1.13-.15-1.7,0-.42-.09-.83-.14-1.25l0-1.45q0-3.54,0-7.08c0-2.36-.13-4.73-.18-7.09M713.78,70c.3.24.59.49.87.74a6.93,6.93,0,0,1,.81.9,32,32,0,0,1,3.15,5.47c1,2,1.88,4.09,2.76,6.15.27.66.55,1.32.83,2,.42,1,.84,2,1.23,3.08s.79,2.15,1.16,3.24c.73,2.16,1.48,4.32,2.13,6.51s1.3,4.51,1.91,6.78,1,4.38,1.53,6.57c.27,1.14.54,2.29.8,3.43.14.63.28,1.26.41,1.88s.23,1.16.35,1.75c.21,1.11.37,2.23.54,3.35s.34,2.08.51,3.11l.15,1c0,.3,0,.59,0,.89,0,.88,0,1.76-.06,2.64,0,.68,0,1.37,0,2.06l-1.89-.92c0-.26,0-.51-.06-.77,0-.51-.09-1-.14-1.52l0-.15a.07.07,0,0,1,0,.05s0,0,0-.06c-.1-1.06-.24-2.1-.35-3.16,0-.52-.11-1-.17-1.58s-.12-1.07-.21-1.6-.22-1-.33-1.56-.21-1.09-.32-1.64c-.2-1.06-.36-2.12-.57-3.17s-.55-2.22-.85-3.32-.46-2.12-.68-3.18c-.45-2.14-1-4.24-1.56-6.35-.28-1.11-.53-2.23-.85-3.32s-.69-2-1-3-.56-2.17-.91-3.24-.81-2.29-1.25-3.43l-.4-1.08c-.36-1-.67-2.07-1-3.08s-.82-2.22-1.25-3.32-.87-2-1.32-3-.88-2-1.36-3-.93-1.84-1.44-2.73-1-1.72-1.58-2.56c-.31-.47-.61-.93-.94-1.38l-.51-.68.37.18a11.53,11.53,0,0,1,1.58,1" fill="#c5a45a"/><path d="M830.92,202.51h0l.07-.06-.07.06" fill="#c5a45a"/><path d="M831,202.44h0l0,0Z" fill="#c5a45a"/><path d="M826.73,162.68v-.07h0a.22.22,0,0,1,0,.08" fill="#c5a45a"/><path d="M826.75,162.58v0Z" fill="#c5a45a"/><path d="M826.74,162.6v0h0Z" fill="#c5a45a"/><path d="M840.21,170.69v0h0Z" fill="#c5a45a"/><path d="M739.44,93.27v0l0,0,0-.08" fill="#c5a45a"/><polygon points="665.13 95.37 665.13 95.37 665.13 95.37 665.13 95.37" fill="#c5a45a"/><path d="M730.72,128.15h0v0" fill="#c5a45a"/><path d="M727.81,123.69h0v0h0" fill="#c5a45a"/><path d="M716.22,128.87l0,0,.06,0h0" fill="#c5a45a"/><path d="M656.75,141.08l-.08,0,0,0,.13,0" fill="#c5a45a"/><path d="M657,141l-.17.07h0Z" fill="#c5a45a"/><path d="M667.34,128.72l.1-.07.06,0-.16.11" fill="#c5a45a"/><path d="M677.39,118.61a.1.1,0,0,1,0,0l-.15.11.2-.15" fill="#c5a45a"/><path d="M669.91,116.93h0l-.12.08.12-.09" fill="#c5a45a"/><polyline points="669.92 116.93 669.91 116.93 669.91 116.94 669.92 116.93" fill="#c5a45a"/><polyline points="666.14 113.66 666.13 113.66 666.13 113.67 666.14 113.66" fill="#c5a45a"/><path d="M666,113.77l.14-.11-.28.2.14-.09" fill="#c5a45a"/><path d="M663.34,115.7l-.18.13-.11.08.29-.21" fill="#c5a45a"/></svg>