<svg xmlns="http://www.w3.org/2000/svg" viewBox="0 0 2200 273"><title>blok-2</title><path d="M1402.78,29.59a1.23,1.23,0,0,1,.85-.57,2.7,2.7,0,0,1,1,.05l.18,0c.35.08.7.18,1,.27.63.16,1.25.34,1.87.53,1.13.35,2.25.74,3.36,1.16,2.45.93,4.82,2.06,7.21,3.13,1.06.48,2.11,1,3.14,1.53s2.2,1.2,3.29,1.81,2.23,1.24,3.32,1.89,2,1.21,3,1.83c1.69,1,3.34,2.14,5,3.25.84.45,1.67.92,2.49,1.42.43.26.85.56,1.27.84s.94.64,1.42,1l2.75,1.76c1,.6,1.87,1.24,2.76,1.93s1.8,1.42,2.69,2.15,1.72,1.37,2.49,2.15c.35.36.68.74,1,1.1s.77.79,1.18,1.18c.79.76,1.61,1.49,2.45,2.2s1.63,1.4,2.39,2.15,1.5,1.54,2.21,2.35c1.43,1.63,2.63,3.45,3.9,5.2.3.41.6.81.91,1.21l1.83,2.07,1.49,1.53c.76.78,1.57,1.53,2.33,2.33s1.45,1.62,2.16,2.44,1.39,1.64,2.13,2.42l.65.69c0-.07,0-.13,0-.2,0-.59,0-1.18-.07-1.77,0-1.16,0-2.33,0-3.49a16,16,0,0,1,.17-1.7l.15-.87c.05-.31.15-.62.23-.92a12.22,12.22,0,0,1,.77-2c.16-.34.34-.66.51-1s.21-.41.32-.6.37-.6.55-.9a11.83,11.83,0,0,1,1-1.43,12.91,12.91,0,0,1,1.48-1.57c.4-.35.79-.71,1.22-1l.81-.61c.26-.19.53-.35.79-.53.5-.32,1-.62,1.52-.92a12.46,12.46,0,0,1,1.37-.68c.54-.24,1.08-.45,1.62-.67,1.1-.43,2.22-.79,3.33-1.18l1.87-.68,2.22-.76,1.79-.57q1-.33,2-.69c.45-.19.89-.37,1.33-.58s1.13-.55,1.68-.83c1-.5,1.93-1.06,2.89-1.59.5-.27,1-.52,1.52-.76a11.74,11.74,0,0,1,1.71-.64,10.21,10.21,0,0,1,1.56-.29c.45-.06.91-.12,1.37-.14a11.39,11.39,0,0,1,2.47.2c.47.08.93.15,1.4.25l.17,0a20.12,20.12,0,0,1,3.13.94c.58.24,1.15.47,1.71.72s1,.45,1.54.71a31.93,31.93,0,0,1,2.91,1.64c.92.58,1.84,1.17,2.78,1.73s1.87,1.12,2.79,1.72l3,2c1.85,1.22,3.73,2.41,5.65,3.52,1,.59,2.07,1.14,3.12,1.67s2.09,1,3.15,1.48,1.92.83,2.88,1.22,2.18.93,3.27,1.42,1.91.9,2.86,1.36a10.39,10.39,0,0,1,2.65,1.86,17.43,17.43,0,0,1,2.77,3.67c.37.62.71,1.27,1.07,1.89a21,21,0,0,0,1.14,1.8l.33.45h0a.92.92,0,0,1-.16,1.57,1.07,1.07,0,0,1-1.13.06c-1.26,0-2.52-.11-3.78-.11-.73,0-1.46,0-2.19,0s-1.34.07-2,.13l-1,.14c.56.34,1.14.63,1.72.91s1.2.51,1.81.72,1.28.41,1.93.59c1.4.39,2.8.8,4.2,1.22.73.22,1.44.48,2.16.73s1.32.49,2,.77a25.87,25.87,0,0,1,4.08,2.12,18,18,0,0,1,2.59,2.1,12.78,12.78,0,0,1,1.06,1.15c.38.49.74,1,1.07,1.51.6.93,1.13,1.89,1.7,2.84s1.11,1.83,1.72,2.7a24,24,0,0,0,1.75,2.14,23.06,23.06,0,0,0,2,1.9l2.1,1.73c1.13.91,2.3,1.77,3.38,2.74.57.51,1.1,1.05,1.63,1.6a16.29,16.29,0,0,1,1.42,1.78,33.52,33.52,0,0,1,2.46,3.89,35.22,35.22,0,0,1,1.73,3.93c.39,1,.73,2,1.07,3s.64,1.79,1,2.68c.25.64.52,1.29.81,1.92s.6,1.3.88,2a13.81,13.81,0,0,1,.78,2.15,10.81,10.81,0,0,1,.32,2.33c0,.17,0,.34,0,.51a5.63,5.63,0,0,1-.11.81,2.15,2.15,0,0,1-.26.63,2.27,2.27,0,0,1-.37.45,2.68,2.68,0,0,1-.49.4,7.84,7.84,0,0,1-.9.49c-.33.16-.68.29-1,.42s-.8.3-1.21.45l-2.19.82a63.69,63.69,0,0,1,7,3.15,20.54,20.54,0,0,1,3.58,2.64,17.59,17.59,0,0,1,2.79,3.58,19.82,19.82,0,0,1,1,1.92c.15.28.3.57.42.86s.3.78.43,1.17c.44,1.41.86,2.83,1.19,4.27s.62,3,.9,4.5c.15.8.3,1.6.46,2.4s.33,1.43.49,2.14.28,1.45.47,2.17.44,1.54.69,2.31.42,1.29.59,2,.36,1.52.51,2.29c.27,1.41.63,2.81.91,4.23s.6,3.08.86,4.63.57,3.07.9,4.59.59,2.87.87,4.31a32.26,32.26,0,0,1,.6,4.58c.07,1.58.15,3.15.21,4.73.05,1.25,0,2.5-.07,3.75s-.19,2.47-.35,3.7c-.08.6-.17,1.21-.3,1.81s-.28,1.28-.44,1.92-.31,1.26-.46,1.89-.22,1.08-.32,1.62a43.21,43.21,0,0,0-.34,4.4c0,.76,0,1.52,0,2.28a20.18,20.18,0,0,1-.17,2.19c-.1.79-.2,1.6-.36,2.38s-.31,1.42-.51,2.11a21.84,21.84,0,0,1-1.64,4,9.64,9.64,0,0,1-1.25,1.73c-.4.45-.82.87-1.25,1.28a11.68,11.68,0,0,1-1.61,1.27c-.32.22-.67.4-1,.61-.12.1-.23.21-.36.31a1.13,1.13,0,0,1-.74.29h0a9.33,9.33,0,0,0-1,.72c-.29.23-.57.48-.86.7a8.38,8.38,0,0,1-1.32.79,7.52,7.52,0,0,1-2.61.79,11.79,11.79,0,0,1-2.72-.11c-.88-.13-1.76-.32-2.64-.47s-1.73-.27-2.59-.44l-2.58-.5-2.74-.49c-.83-.14-1.65-.33-2.48-.39s-1.58-.1-2.37-.13l-2.59,0c-.91,0-1.82,0-2.73,0s-1.83,0-2.74,0-1.83,0-2.74-.13a21,21,0,0,1-2.61-.48,23.73,23.73,0,0,1-2.73-.81c-.88-.31-1.74-.68-2.59-1.06-1.63-.74-3.32-1.41-4.89-2.29-.87-.49-1.72-1-2.57-1.52s-1.5-.9-2.21-1.42a7.93,7.93,0,0,1-1.08-1c-.27-.28-.53-.58-.78-.88a22.6,22.6,0,0,1-1.63-2.25c-.49-.74-.93-1.51-1.37-2.28a14.29,14.29,0,0,0-1.53-2.24l-.06-.07-.09-.08-.09.25a14.32,14.32,0,0,0-.31,2.25,15.32,15.32,0,0,1-.39,2.44,6.68,6.68,0,0,1-.61,1.61,2.93,2.93,0,0,1-.42.56,1.86,1.86,0,0,1-.6.44,2.18,2.18,0,0,1-.62.22,3.72,3.72,0,0,1-.94.06,11.18,11.18,0,0,1-2.3-.32c-.9-.22-1.79-.47-2.66-.77l-1.2-.44c-.43-.17-.84-.38-1.24-.58-.79-.39-1.56-.82-2.32-1.25s-1.59-.91-2.38-1.37a28.83,28.83,0,0,1-2.48-1.57c-.75-.54-1.47-1.13-2.17-1.73-1.38-1.19-2.68-2.47-4.07-3.65a23.21,23.21,0,0,0-2.23-1.72c-.79-.52-1.59-1-2.39-1.53s-1.5-1-2.23-1.51-1.42-1.08-2.11-1.66c-.46-.38-.93-.76-1.37-1.17s-1.05-1-1.58-1.44c-1-.93-2-1.86-3-2.84a36.37,36.37,0,0,1-2.65-3c-.78-1-1.56-2-2.44-3a26.48,26.48,0,0,0-2.65-2.3c-.93-.7-1.89-1.35-2.88-2-2-1.24-3.88-2.54-5.85-3.76-.71-.42-1.43-.82-2.15-1.24a26.92,26.92,0,0,1-2.42-1.56,25.86,25.86,0,0,1-2.13-1.79,28.39,28.39,0,0,1-2-2.08,36.44,36.44,0,0,1-3.48-4.27,19.56,19.56,0,0,1-1.45-2.5,19.84,19.84,0,0,1-1-2.56,26.66,26.66,0,0,1-.75-3.55,16.38,16.38,0,0,1-.19-3.7,35.47,35.47,0,0,1,.48-3.69c.2-1.15.36-2.3.45-3.47a57.26,57.26,0,0,0-3.44,5.08,6.39,6.39,0,0,1-1,1.21,1.94,1.94,0,0,1-.64.39,1.47,1.47,0,0,1-.69.05,1.71,1.71,0,0,1-.3-.09,1.1,1.1,0,0,1-.45-.35,1.8,1.8,0,0,1-.31-.58,5.55,5.55,0,0,0-.24-.56c-.22-.49-.47-1-.72-1.45-.78-1.38-1.58-2.75-2.45-4.08a24.18,24.18,0,0,0-1.59-2.21c-.62-.76-1.25-1.51-1.92-2.23-1.24-1.28-2.49-2.57-3.63-4-.6-.73-1.16-1.5-1.69-2.29s-1-1.51-1.46-2.29-1-1.76-1.39-2.66-.74-1.59-1-2.4c-.16-.43-.33-.85-.45-1.29s-.27-1-.4-1.47c-.24-.91-.48-1.82-.7-2.75-.39-1.71-.7-3.43-1.07-5.14-.21-.88-.43-1.75-.62-2.63s-.4-1.81-.61-2.72-.4-1.67-.58-2.52-.38-1.86-.57-2.79c-.36-1.78-.76-3.57-1-5.37l-.18-1.49c0-.48,0-1-.06-1.43,0-.91,0-1.83.1-2.74a50.36,50.36,0,0,1,.78-5.47c.17-.87.35-1.74.54-2.6s.5-1.85.79-2.76c.1-.36.18-.71.26-1.07s.06-.46.09-.69.05-.48.07-.73c.06-.91.13-1.83.23-2.75s.26-1.81.43-2.71.33-2,.59-3a15.22,15.22,0,0,1,1.85-3.75,10.65,10.65,0,0,1,1.89-2.24,14.16,14.16,0,0,1,2.12-1.67,13.19,13.19,0,0,1,2.52-1.26,19.09,19.09,0,0,1,3.93-1,19.78,19.78,0,0,1,3.77-.08c.66,0,1.31.13,2,.22.24,0,.48.08.72.13l1.09.26.4,0c-1.52-1.9-3.05-3.81-4.65-5.66s-3.21-3.62-4.83-5.43c-3.36-3.77-6.83-7.44-10.49-10.92-1.67-1.59-3.38-3.13-5.17-4.58l-3-2.3c-1-.78-2-1.55-3-2.3-2-1.52-4.13-2.92-6.22-4.35q-1.78-1.23-3.58-2.41c-.82-.46-1.64-.91-2.47-1.35-1-.57-2.1-1.15-3.16-1.71s-2.34-1.21-3.52-1.82c-1.84-1-3.65-2-5.51-2.93s-3.57-1.72-5.39-2.51c-1-.44-2.11-.84-3.19-1.19l-1.53-.48c-.64-.18-1.28-.36-1.9-.59a10.25,10.25,0,0,1-1.32-.56,2.46,2.46,0,0,1-1-.81A1.28,1.28,0,0,1,1402.78,29.59Z" fill="#fff"/><path d="M1506.19,206.07a36.37,36.37,0,0,0,2.65,3c1,1,2,1.91,3,2.84.53.48,1,1,1.58,1.44s.91.79,1.37,1.17c.69.58,1.39,1.13,2.11,1.66s1.48,1,2.23,1.51,1.6,1,2.39,1.53a22,22,0,0,1,2.23,1.72c1.39,1.18,2.69,2.46,4.07,3.65.7.6,1.42,1.19,2.17,1.73a28.83,28.83,0,0,0,2.48,1.57c.79.46,1.58.92,2.38,1.37s1.53.86,2.32,1.25c.4.2.81.41,1.24.58l1.2.44c.87.3,1.76.55,2.66.77a11.18,11.18,0,0,0,2.3.32,3.72,3.72,0,0,0,.94-.06,2.18,2.18,0,0,0,.62-.22,1.86,1.86,0,0,0,.6-.44,2.93,2.93,0,0,0,.42-.56,6.68,6.68,0,0,0,.61-1.61,15.32,15.32,0,0,0,.39-2.44,14.32,14.32,0,0,1,.31-2.25l.09-.25.09.08.06.07a14.29,14.29,0,0,1,1.53,2.24c.44.77.88,1.54,1.37,2.28a22.6,22.6,0,0,0,1.63,2.25c.25.3.51.6.78.88a7.93,7.93,0,0,0,1.08,1c.71.52,1.47,1,2.21,1.42s1.7,1,2.57,1.52c1.57.88,3.26,1.55,4.89,2.29.85.38,1.71.75,2.59,1.06a23.73,23.73,0,0,0,2.73.81,21,21,0,0,0,2.61.48c.91.1,1.82.11,2.74.13s1.83.06,2.74,0,1.82,0,2.73,0l2.59,0c.79,0,1.58.07,2.37.13a23.69,23.69,0,0,1,2.48.4c.91.16,1.83.31,2.74.48l2.58.5c.86.17,1.73.3,2.59.44s1.76.34,2.64.47a11.79,11.79,0,0,0,2.72.11,7.52,7.52,0,0,0,2.61-.79,8.38,8.38,0,0,0,1.32-.79c.29-.22.57-.47.86-.7a9.33,9.33,0,0,1,1-.72h0a1.13,1.13,0,0,0,.74-.29l.36-.31c.33-.21.68-.39,1-.61a11.68,11.68,0,0,0,1.61-1.27c.43-.41.85-.83,1.25-1.28a9.64,9.64,0,0,0,1.25-1.73,21.84,21.84,0,0,0,1.64-4c.2-.69.37-1.4.51-2.11s.26-1.59.36-2.38a20.18,20.18,0,0,0,.17-2.19c0-.76,0-1.52,0-2.28a43.21,43.21,0,0,1,.34-4.4c.1-.54.2-1.08.32-1.62s.31-1.26.46-1.89.31-1.28.44-1.92.22-1.21.3-1.81c.16-1.23.28-2.46.35-3.7s.12-2.5.07-3.75c-.06-1.58-.14-3.15-.21-4.73a32.26,32.26,0,0,0-.6-4.58c-.28-1.44-.56-2.88-.87-4.31s-.64-3-.9-4.59-.56-3.09-.86-4.63-.64-2.82-.91-4.23c-.15-.77-.31-1.53-.51-2.29s-.38-1.31-.59-2-.49-1.53-.69-2.31-.31-1.45-.47-2.17-.34-1.43-.49-2.14-.31-1.6-.46-2.4c-.28-1.51-.56-3-.9-4.5s-.75-2.86-1.19-4.27c-.13-.39-.27-.78-.43-1.17s-.27-.58-.42-.86a19.82,19.82,0,0,0-1-1.92,17.59,17.59,0,0,0-2.79-3.58,20.54,20.54,0,0,0-3.58-2.64,63.69,63.69,0,0,0-7-3.15l2.19-.82c.41-.15.81-.29,1.21-.45s.69-.26,1-.42a7.84,7.84,0,0,0,.9-.49,2.68,2.68,0,0,0,.49-.4,2.27,2.27,0,0,0,.37-.45,2.15,2.15,0,0,0,.26-.63,5.63,5.63,0,0,0,.11-.81c0-.17,0-.34,0-.51a10.81,10.81,0,0,0-.32-2.33,13.81,13.81,0,0,0-.78-2.15c-.28-.65-.59-1.3-.88-2s-.56-1.28-.81-1.92c-.34-.89-.67-1.78-1-2.68s-.68-2-1.07-3a35.22,35.22,0,0,0-1.73-3.93,33.52,33.52,0,0,0-2.46-3.89,16.29,16.29,0,0,0-1.42-1.78c-.53-.55-1.06-1.09-1.63-1.6-1.08-1-2.25-1.83-3.38-2.74l-2.1-1.73a23.06,23.06,0,0,1-2-1.9,24,24,0,0,1-1.75-2.14c-.61-.87-1.18-1.78-1.72-2.7s-1.1-1.91-1.7-2.84c-.33-.52-.69-1-1.07-1.51a12.78,12.78,0,0,0-1.06-1.15,18,18,0,0,0-2.59-2.1,25.87,25.87,0,0,0-4.08-2.12c-.65-.28-1.31-.53-2-.77s-1.43-.51-2.16-.73c-1.4-.42-2.8-.83-4.2-1.22-.65-.18-1.29-.37-1.93-.59s-1.21-.46-1.81-.72-1.16-.57-1.72-.91l1-.14c.66-.06,1.33-.11,2-.13s1.46,0,2.19,0c1.26,0,2.52.06,3.78.11a1.07,1.07,0,0,0,1.13-.06.92.92,0,0,0,.16-1.57h0l-.33-.45a21,21,0,0,1-1.14-1.8c-.36-.62-.7-1.27-1.07-1.89a17.43,17.43,0,0,0-2.77-3.67,10.39,10.39,0,0,0-2.65-1.86c-1-.46-1.9-.92-2.86-1.36s-2.17-1-3.27-1.42-1.93-.79-2.88-1.22-2.12-1-3.15-1.48-2.1-1.08-3.12-1.67c-1.92-1.11-3.8-2.3-5.65-3.52l-3-2c-.92-.6-1.86-1.15-2.79-1.72s-1.86-1.15-2.78-1.73a31.93,31.93,0,0,0-2.91-1.64c-.5-.26-1-.48-1.54-.71s-1.13-.48-1.71-.72a20.12,20.12,0,0,0-3.13-.94l-.17,0c-.47-.1-.93-.17-1.4-.25a11.39,11.39,0,0,0-2.47-.2c-.46,0-.92.08-1.37.14a10.21,10.21,0,0,0-1.56.29,11.74,11.74,0,0,0-1.71.64c-.51.24-1,.49-1.52.76-1,.53-1.91,1.09-2.89,1.59-.55.28-1.11.56-1.68.83s-.88.39-1.33.58q-1,.36-2,.69l-1.79.57-2.22.76-1.87.68c-1.11.39-2.23.75-3.33,1.18-.54.22-1.08.43-1.62.67a12.46,12.46,0,0,0-1.37.68c-.51.3-1,.6-1.52.92-.26.18-.53.34-.79.53l-.81.61c-.43.31-.82.67-1.22,1a12.91,12.91,0,0,0-1.48,1.57,11.83,11.83,0,0,0-1,1.43c-.18.3-.36.6-.55.9s-.21.4-.32.6-.35.65-.51,1a12.22,12.22,0,0,0-.77,2c-.08.3-.18.61-.23.92l-.15.87a16,16,0,0,0-.17,1.7c-.06,1.16-.08,2.33,0,3.49,0,.59,0,1.18.07,1.77,0,.07,0,.13,0,.2l-.65-.69c-.74-.78-1.42-1.61-2.13-2.42s-1.41-1.66-2.16-2.44-1.57-1.55-2.33-2.33l-1.49-1.53L1466,71.09c-.31-.4-.61-.8-.91-1.21-1.27-1.75-2.47-3.57-3.9-5.2-.71-.81-1.44-1.6-2.21-2.35s-1.58-1.45-2.39-2.15-1.66-1.44-2.45-2.2c-.41-.39-.8-.78-1.18-1.18s-.68-.74-1-1.1c-.77-.78-1.65-1.45-2.49-2.15s-1.78-1.45-2.69-2.15-1.81-1.33-2.76-1.93l-2.75-1.76c-.48-.31-1-.63-1.42-1s-.84-.58-1.27-.84c-.82-.5-1.65-1-2.49-1.42-1.65-1.11-3.3-2.21-5-3.25-1-.62-2-1.23-3-1.83s-2.2-1.28-3.32-1.89-2.19-1.22-3.29-1.81-2.08-1-3.14-1.53c-2.39-1.07-4.76-2.2-7.21-3.13-1.11-.42-2.23-.81-3.36-1.16-.62-.19-1.24-.37-1.87-.53-.35-.09-.7-.19-1-.27l-.18,0a2.7,2.7,0,0,0-1-.05,1.23,1.23,0,0,0-.85.57,1.28,1.28,0,0,0,0,1.32,2.46,2.46,0,0,0,1,.81,10.25,10.25,0,0,0,1.32.56c.62.23,1.26.41,1.9.59l1.53.48c1.08.35,2.14.75,3.19,1.19,1.82.79,3.62,1.61,5.39,2.51s3.67,2,5.51,2.93c1.18.61,2.36,1.21,3.53,1.83s2.1,1.13,3.15,1.7c.83.44,1.65.89,2.47,1.35q1.8,1.19,3.58,2.41c2.09,1.43,4.19,2.83,6.22,4.35,1,.75,2,1.52,3,2.3l3,2.3c1.79,1.45,3.5,3,5.17,4.58,3.66,3.48,7.13,7.15,10.49,10.92,1.62,1.81,3.25,3.6,4.83,5.43s3.13,3.76,4.65,5.66l-.4,0-1.09-.26c-.24-.05-.48-.1-.72-.13-.65-.09-1.3-.19-2-.22a19.78,19.78,0,0,0-3.77.08,19.09,19.09,0,0,0-3.93,1,13.19,13.19,0,0,0-2.52,1.26,14.16,14.16,0,0,0-2.12,1.67,10.65,10.65,0,0,0-1.89,2.24,15.22,15.22,0,0,0-1.85,3.75c-.26,1-.4,2-.59,3s-.33,1.8-.43,2.71-.17,1.84-.23,2.75c0,.25,0,.49-.07.73s0,.46-.09.69-.16.71-.26,1.07c-.29.91-.58,1.83-.79,2.76s-.37,1.73-.54,2.6a50.36,50.36,0,0,0-.78,5.47c-.07.91-.12,1.83-.1,2.74,0,.47,0,1,.06,1.43l.18,1.49c.24,1.8.64,3.59,1,5.37q.27,1.39.57,2.79c.18.85.39,1.68.58,2.52s.4,1.82.61,2.72.41,1.75.62,2.63c.37,1.71.68,3.43,1.07,5.14.22.93.46,1.84.7,2.75.13.49.25,1,.4,1.47s.29.86.45,1.29c.3.81.66,1.61,1,2.4s.88,1.79,1.39,2.66,1,1.54,1.46,2.29,1.09,1.56,1.69,2.29c1.14,1.39,2.39,2.68,3.63,4,.67.72,1.3,1.47,1.92,2.23a24.18,24.18,0,0,1,1.59,2.21c.87,1.33,1.67,2.7,2.45,4.08.25.48.5,1,.72,1.45a5.55,5.55,0,0,1,.24.56,1.8,1.8,0,0,0,.31.58,1.1,1.1,0,0,0,.45.35,1.71,1.71,0,0,0,.3.09,1.47,1.47,0,0,0,.69-.05,1.94,1.94,0,0,0,.64-.39,6.39,6.39,0,0,0,1-1.21,57.26,57.26,0,0,1,3.44-5.08c-.09,1.17-.25,2.32-.45,3.47a35.13,35.13,0,0,0-.48,3.69,16.38,16.38,0,0,0,.19,3.7,26.66,26.66,0,0,0,.75,3.55,19.84,19.84,0,0,0,1,2.56,19.56,19.56,0,0,0,1.45,2.5,36.44,36.44,0,0,0,3.48,4.27,28.39,28.39,0,0,0,2,2.08,25.86,25.86,0,0,0,2.13,1.79,26.92,26.92,0,0,0,2.42,1.56c.72.42,1.44.82,2.15,1.24,2,1.22,3.9,2.52,5.85,3.76,1,.63,2,1.28,2.88,2a26.48,26.48,0,0,1,2.65,2.3c.88.95,1.66,2,2.44,3m-1.39-4.92c-.67-.64-1.38-1.24-2.11-1.82-.14-.73-.3-1.46-.37-2.2s-.09-1.43-.1-2.14v-.86c0-1.14,0-2.28,0-3.42s.09-2.36.14-3.54.11-2.28.24-3.42.27-2.25.45-3.37.41-2.29.65-3.43.45-2.14.68-3.21c.13-.58.26-1.16.38-1.74s.23-1.13.36-1.68c.27-1.13.54-2.25.83-3.36.23-.81.45-1.62.67-2.43s.53-1.88.82-2.81.63-2,.94-2.95c.61-1.89,1.18-3.79,1.82-5.66.73-2.18,1.5-4.33,2.4-6.44.45-1.06.94-2.1,1.49-3.12s1-1.89,1.58-2.82c.37-.61.75-1.2,1.12-1.8l.23-.38.29.4c.38.53.78,1.05,1.17,1.58-.1.18-.19.35-.27.53s-.24.56-.36.83c-.27.58-.57,1.15-.84,1.73-.54,1.17-1,2.35-1.54,3.54-.21.5-.43,1-.64,1.48s-.41,1.05-.6,1.58c-.35,1-.67,2-1,3.05s-.65,2.07-1,3.12-.59,2.17-.88,3.26c-.22.79-.46,1.57-.69,2.35s-.46,1.73-.69,2.6l0,.05c-.31,1.11-.63,2.22-.92,3.34s-.6,2.14-.85,3.22-.49,2.15-.74,3.22-.49,2.13-.71,3.2c-.42,2.15-.68,4.34-1,6.51s-.59,4.44-.77,6.67c-.08,1.07-.13,2.13-.17,3.2s-.07,2.19-.07,3.29,0,2.2.1,3.3l.06.77-.22-.22m19.26-33.87c.23-.93.48-1.86.68-2.8s.39-1.91.54-2.87.29-2,.43-3,.29-1.92.37-2.89.12-1.94.13-2.91c0-.74,0-1.47-.09-2.21l.27.39c.53.73,1.07,1.44,1.62,2.16a1,1,0,0,0,0,.35,3.57,3.57,0,0,1,.09.74,9,9,0,0,1-.14,1l-.21,1.38c-.12.85-.28,1.71-.43,2.56s-.26,1.75-.37,2.63-.28,1.76-.42,2.64c-.18,1.06-.27,2.14-.38,3.21s-.27,2.34-.39,3.51l-.36,3.35c-.12,1.16-.28,2.31-.47,3.45s-.39,2.31-.59,3.46-.38,2.3-.59,3.46c-.4,2.23-.87,4.46-1.17,6.71-.16,1.18-.34,2.35-.48,3.53s-.23,2.24-.36,3.35c-.26,2.27-.4,4.55-.46,6.83s-.16,4.57-.1,6.85a23.81,23.81,0,0,0,.28,3.37c.06.42.15.83.25,1.24-.77-.48-1.55-1-2.31-1.48l0,0-.24-.38a14.46,14.46,0,0,1-.71-1.42c-.2-.49-.39-1-.55-1.5s-.16-.76-.22-1.14-.07-.84-.1-1.25c0-.78-.08-1.56-.09-2.34,0-1,0-1.91,0-2.87s0-1.8,0-2.7,0-1.8.1-2.69a55.38,55.38,0,0,1,.71-5.75c.35-1.94.69-3.89,1.11-5.82s1-3.89,1.44-5.83c.25-1,.49-1.95.71-2.94s.42-1.89.62-2.84.45-1.94.63-2.91.37-2,.59-2.94.41-1.84.64-2.75m23.4,22.19c.47-2.11,1-4.21,1.37-6.34a17,17,0,0,0,.24-2l.32.4.93,1.26,0,.13a1.23,1.23,0,0,1,0,.19,33.07,33.07,0,0,1-.55,4.33c-.13.8-.29,1.6-.44,2.39l-.42,2.32c-.22,1.15-.44,2.3-.63,3.45l-.24,1.54-.09.48c-.08.58-.18,1.16-.28,1.73-.19,1.15-.37,2.3-.55,3.45a12.81,12.81,0,0,0-.12,1.39c0,.51,0,1,0,1.53,0,.94.09,1.89.12,2.83s0,1.85.07,2.77,0,1.76.06,2.64,0,1.57-.06,2.35-.08,1.71-.12,2.57l0,.83c-.16.85-.36,1.69-.51,2.53-.08.45-.15.9-.23,1.35,0-.58,0-1.17,0-1.75,0-1-.11-2-.23-3-.06-.55-.12-1.09-.2-1.64s-.17-1.09-.27-1.64c-.2-1-.35-2.1-.46-3.16s-.19-2.21-.27-3.32-.12-2.09-.13-3.14c0-1.24,0-2.49.12-3.72a24.56,24.56,0,0,1,.48-3.19c.21-1.06.43-2.11.67-3.17s.45-2.1.69-3.15.51-2.17.75-3.25m26.2,43.21q-.86-3.3-1.43-6.65a30.47,30.47,0,0,1-.33-3.3c-.06-1-.1-2.1-.12-3.16s0-2.06,0-3.1v-.31c0-.57.06-1.14.1-1.7s0-1.09.06-1.63c0-1.1.13-2.19.19-3.29a24.86,24.86,0,0,0,0-2.59l1,.94.06.19c0,.06,0,.11,0,.17s.09.31.13.47a19,19,0,0,1,.38,2.26c.1.81.24,1.61.33,2.43l.33,3.2c.11,1.06.27,2.11.38,3.16s.21,2.28.28,3.42.18,2.16.3,3.24.3,2.29.5,3.43.36,2.13.53,3.2a22.11,22.11,0,0,0,.77,3.43c.18.54.4,1.06.62,1.59.15.38.31.76.47,1.13h-1.51a1,1,0,0,0-.14-.32c-.28-.4-.55-.81-.82-1.22-.17-.25-.32-.52-.47-.78s-.37-.69-.53-1-.33-.77-.48-1.16c-.25-.66-.43-1.34-.62-2m10.14,6.59c-.29-.67-.58-1.33-.84-2s-.42-1.21-.6-1.83a21.56,21.56,0,0,1-.45-2.29c-.11-.78-.2-1.57-.28-2.36-.16-1.51-.22-3-.25-4.54,0-.55,0-1.11,0-1.66.06-1.21.1-2.4.08-3.61,0-1.05-.06-2.09-.12-3.14-.05-.84-.12-1.68-.24-2.51l2.13,2,1.32,1.25c.13.37.25.75.36,1.13s.18.72.25,1.08.14.92.19,1.39c.09.85.16,1.71.18,2.58,0,.5,0,1-.08,1.49-.07,1.08-.1,2.16-.11,3.24s0,2.37,0,3.55c0,.52.07,1,.1,1.56s0,1.09.09,1.64.13,1.24.21,1.86c.06.42.14.85.23,1.27-.68-.07-1.36-.09-2-.11h-.2m27.93-5a7.48,7.48,0,0,0-2.55-1.21h-.07a27.14,27.14,0,0,0-2.69-.36c-.84-.07-1.68-.12-2.51-.25a11.64,11.64,0,0,1-1.31-.25l-1-.29-.48-.18-.1-.11c-.61-.69-1.21-1.39-1.84-2.07.81,0,1.61.05,2.41,0,1.06,0,2.12-.11,3.17-.19l1.83-.09c.47,0,1,0,1.42,0l.77.07a13.8,13.8,0,0,1,2.12.46c.76.26,1.51.57,2.25.9l-.06.2a21.22,21.22,0,0,1-.92,2.45c-.13.29-.28.58-.43.87m3.7-41c0,.22.08.44.13.66l-.8-.4a18.64,18.64,0,0,0-2.24-.89,24.3,24.3,0,0,0-2.78-.76c-.63-.14-1.26-.25-1.89-.34-1-.16-2-.29-3-.38s-2.15-.19-3.22-.31a32.88,32.88,0,0,0-6.35-.28A26.38,26.38,0,0,0,1589,192c-1,.33-1.92.66-2.86,1.05s-1.93.81-2.89,1.23-1.82.81-2.74,1.17-2,.77-3,1.12-1.87.67-2.83,1-2,.51-3,.72c-.67.13-1.34.25-2,.36-.49.09-1,.19-1.47.26-.56-.6-1.12-1.21-1.67-1.82.64-.11,1.27-.24,1.89-.41,1.18-.34,2.34-.77,3.48-1.21,1-.37,1.92-.77,2.87-1.17s2-.85,3-1.3c2-.88,3.91-1.81,5.86-2.74s3.89-1.88,5.85-2.78a26.1,26.1,0,0,1,2.93-1.14c1.06-.34,2.13-.6,3.21-.84a21.37,21.37,0,0,1,4.92-.39,18.58,18.58,0,0,1,2,.24c.74.15,1.48.32,2.21.52s1.41.39,2.12.57l2,.54a21.51,21.51,0,0,1,4.14,2,10.6,10.6,0,0,1,.92.7c.29.24.55.51.81.77.2,1,.4,2,.59,2.94m-1.33-6.61c.07.34.13.68.2,1-.26-.18-.52-.34-.78-.49-.45-.27-.9-.53-1.37-.76l-1.48-.68a15.08,15.08,0,0,0-1.71-.6c-1-.3-2-.54-3-.82-.82-.23-1.63-.46-2.46-.64l-.67-.13a17.34,17.34,0,0,0-3.37-.26,25.76,25.76,0,0,0-3.29.27c-.54.08-1.08.19-1.62.31s-1.1.22-1.64.36c-1.05.27-2.09.56-3.1.91s-2,.75-3,1.16l-3,1.27c-2,.84-4,1.73-6,2.61-1,.44-2,.85-2.93,1.26s-1.91.82-2.87,1.21-2,.8-3,1.17a24.91,24.91,0,0,1-2.8.82c-.47.09-1,.16-1.42.26l-1.55-1.77,1.63-.74c1-.47,2-1,3-1.54s1.84-1.09,2.77-1.6,1.85-1,2.78-1.51l2.75-1.37,2.88-1.46c1-.46,1.92-.89,2.91-1.28s1.92-.7,2.88-1,2.07-.7,3.11-1l1.42-.43,1.38-.33a45.34,45.34,0,0,1,5.32-.6c1.79-.09,3.59-.16,5.38-.12a24.66,24.66,0,0,1,3.21.38c1.13.22,2.23.48,3.33.79l2.78.92-.21-.07c1,.32,2,.69,3,1.07l.24,1.33c.13.71.24,1.42.36,2.13m-1.25-6.72c.09.44.19.88.28,1.32-.85-.31-1.7-.58-2.55-.87-1.09-.37-2.16-.76-3.27-1.06-.6-.16-1.2-.3-1.81-.43l-1.49-.29a23.81,23.81,0,0,0-3.49-.29c-1,0-2.12,0-3.18,0s-2.2.09-3.31.16-2.07.16-3.1.3a32.16,32.16,0,0,0-3.48.74q-3.12.81-6.18,1.88a31.16,31.16,0,0,0-3,1.24c-1,.45-1.91.94-2.87,1.39l-3,1.48c-1.05.52-2.07,1.1-3.09,1.66s-1.79,1.05-2.69,1.55-1.87,1-2.82,1.49l.29-.15-2.07,1.06-.37.18L1560,189.5c.57-.23,1.13-.49,1.68-.77l2.12-1.1c.62-.33,1.25-.64,1.86-1,1.83-1,3.58-2.08,5.38-3.08.93-.52,1.87-1,2.79-1.51s1.64-.91,2.48-1.35c1-.5,2.07-1,3.1-1.45s1.91-.86,2.87-1.27,1.93-.73,2.89-1.09c.49-.19,1-.39,1.46-.57s.93-.34,1.41-.49a26.31,26.31,0,0,1,2.89-.8l-.22,0c.62-.12,1.25-.27,1.89-.34s1.29-.13,1.94-.15c1.26-.06,2.52,0,3.77,0,.31,0,.62,0,.93.06,1,.11,2.09.28,3.13.47s2,.38,3,.62,1.93.52,2.89.76,1.93.46,2.88.75a13.26,13.26,0,0,1,1.23.51h0c.15.72.32,1.43.48,2.14m-4.48-19.66c.07.36.14.71.2,1.07-.23-.14-.46-.28-.7-.41-.81-.44-1.65-.84-2.49-1.22a24.58,24.58,0,0,0-2.47-.94c-.91-.31-1.81-.6-2.73-.86s-2.08-.56-3.13-.79l-.19,0c-.92-.2-1.86-.34-2.79-.49-.53-.09-1.06-.19-1.59-.23s-1.16-.06-1.74-.06-1,0-1.42,0-1,.12-1.54.18a24.77,24.77,0,0,0-3.2.62c-1,.27-2,.57-3,.91s-2,.69-3,1.08-2,.83-2.94,1.31c-.48.24-1,.49-1.43.76s-.91.54-1.36.81c-.91.55-1.86,1-2.77,1.57l-2.73,1.63c-.91.55-1.83,1.06-2.71,1.64s-1.7,1.15-2.56,1.71-1.74,1-2.61,1.5c-1.72,1-3.42,2-5.17,2.88-1,.52-2.11,1-3.18,1.47-.88.39-1.79.71-2.68,1.11-.44-.55-.89-1.1-1.34-1.64l-.32-.4c.28-.15.56-.3.83-.46.6-.35,1.19-.73,1.76-1.14,1.22-.86,2.45-1.7,3.72-2.5.84-.54,1.71-1,2.54-1.59s1.7-1.14,2.53-1.73,1.7-1.24,2.55-1.86,1.66-1.24,2.48-1.86c.41-.32.83-.61,1.26-.9s.84-.6,1.27-.89c.8-.56,1.64-1.07,2.46-1.61s1.76-1.14,2.66-1.67,1.64-.94,2.47-1.37,1.44-.67,2.18-1,1.5-.59,2.25-.89c.4-.16.8-.33,1.2-.48s.89-.31,1.35-.45c.77-.23,1.55-.41,2.33-.59a35,35,0,0,1,3.52-.48,30.91,30.91,0,0,1,3.47-.05,23.56,23.56,0,0,1,2.51.31c.92.17,1.83.4,2.73.65s1.72.51,2.58.77l2.52.77a23.48,23.48,0,0,1,5.09,2.21c.51.34,1,.72,1.47,1.1l.87.73a10.83,10.83,0,0,1,.83.83c.07.3.13.61.2.91M1540,164.81l0,0-.93-1.19,0,0c.86-.56,1.73-1.1,2.6-1.67s1.7-1.18,2.52-1.82,1.66-1.3,2.45-2,1.73-1.55,2.56-2.36l1-1c.38-.38.76-.75,1.12-1.13.76-.81,1.46-1.65,2.16-2.51s1.26-1.59,1.93-2.34,1.46-1.54,2.22-2.28a24,24,0,0,1,2.81-2.32c1-.67,2-1.28,3-1.87l1-.55c1-.51,2-1,3-1.51a27.18,27.18,0,0,1,3-1.33c1-.35,2-.68,3.08-1s2.07-.64,3.12-.92c1.83-.46,3.69-.84,5.56-1.12a39.79,39.79,0,0,1,5.56-.42c.57,0,1.13,0,1.7.07l1.85.16a20.6,20.6,0,0,1,3.39.61,11.8,11.8,0,0,1,2.36,1l.15.11c-.38.19-.77.35-1.17.51l-1.63.63-.61.13c-.79.16-1.57.37-2.36.55s-1.59.3-2.39.4c-.41.06-.81.11-1.22.15l-.51,0-.44,0c-.65,0-1.3.11-2,.19-.29,0-.57.06-.85.07a.68.68,0,0,0-.31.11c-.8.13-1.59.29-2.38.47-1,.22-2,.44-3,.71l-2.81.82c-.9.28-1.78.61-2.68.9s-1.83.55-2.73.88c-.48.18-1,.36-1.44.57l-1.39.63c-.85.4-1.72.77-2.55,1.2s-1.87,1-2.78,1.61a22.52,22.52,0,0,0-2.32,1.69c-.75.61-1.44,1.28-2.16,1.94l-2.11,1.91c-.73.66-1.45,1.34-2.19,2s-1.53,1.33-2.32,2-1.48,1.21-2.23,1.8a38.39,38.39,0,0,1-4.5,3.07c-.7.38-1.39.75-2.07,1.16s-1.07.69-1.62,1l-.69.33m-24.72-35.17-.5.46-1.71-2.31.21-.27.91-1.14c.61-.76,1.24-1.51,1.87-2.25,1.29-1.53,2.52-3.11,3.79-4.67.7-.87,1.43-1.73,2.1-2.63s1.28-1.72,1.88-2.61,1.14-1.76,1.74-2.62a24,24,0,0,1,2-2.49c.73-.79,1.48-1.57,2.26-2.32s1.53-1.48,2.28-2.24,1.49-1.46,2.24-2.19,1.58-1.58,2.39-2.35l.33-.3-.08.07c.71-.67,1.41-1.36,2.11-2s1.51-1.3,2.29-1.91a19.39,19.39,0,0,1,2.45-1.54c.53-.29,1.08-.57,1.63-.82s1.31-.55,2-.81,1.26-.49,1.9-.71,1.29-.41,1.94-.57c1.27-.29,2.54-.5,3.82-.68a26.5,26.5,0,0,1,3.88-.23,25.63,25.63,0,0,1,3.28.3l1.72.32.8.16q.59.23,1.17.48c.74.33,1.47.69,2.19,1.07-.43-.06-.86-.1-1.29-.13a31.06,31.06,0,0,0-3.61,0,25.83,25.83,0,0,0-3.27.4c-1.12.2-2.24.42-3.35.65s-2.45.5-3.66.79a29.24,29.24,0,0,0-3.34,1,24.57,24.57,0,0,0-3.06,1.36c-1.1.57-2.19,1.19-3.23,1.85-.47.3-.92.63-1.37,1s-.91.64-1.34,1a12.62,12.62,0,0,0-1.44,1.29c-.39.43-.78.86-1.15,1.3-.72.83-1.4,1.68-2,2.56s-1.38,1.8-2,2.72-1.35,1.92-2.06,2.86c-.33.44-.68.86-1,1.28s-.75.88-1.15,1.31c-.77.82-1.54,1.63-2.35,2.41s-1.62,1.58-2.41,2.39-1.54,1.6-2.26,2.45-1.41,1.74-2.09,2.63-1.39,1.79-2.15,2.64-1.46,1.54-2.22,2.27l-1,.88m24.41-60.91.18,0-1.43.21-3.43.51c-1.1.16-2.22.29-3.33.42s-2.27.22-3.4.38c-.58.09-1.15.19-1.73.3s-1.19.25-1.78.41a25.44,25.44,0,0,0-3.16,1.16,29.65,29.65,0,0,0-6.07,3.69,22,22,0,0,0-2.6,2.32,19,19,0,0,0-2.08,2.8c-.34.54-.65,1.1-1,1.66s-.56,1-.82,1.49c-.53,1-1,2-1.52,3-.94,2.09-2,4.14-3,6.21-.49,1-1,2.05-1.47,3.06s-1,2-1.46,3a26.25,26.25,0,0,0-1.23,3.19c-.19.61-.37,1.22-.51,1.83s-.22,1.06-.3,1.59c-.18,1.12-.34,2.24-.52,3.36a19.55,19.55,0,0,1-.12-3c0-.77.07-1.54.11-2.31s.05-1.63.09-2.45c0-.43.06-.87.08-1.3s0-.85,0-1.27c0-.84.15-1.68.25-2.52a30.32,30.32,0,0,1,.51-3.4q.35-1.62.72-3.24c.25-1.11.41-2.23.61-3.35s.4-2,.68-3c.2-.61.44-1.21.7-1.8s.58-1.14.91-1.7.61-.94.93-1.41a14.42,14.42,0,0,1,1.1-1.47q1.26-1.45,2.64-2.82a36.49,36.49,0,0,1,3-2.45,29.65,29.65,0,0,1,3.15-2,19.62,19.62,0,0,1,2.65-1.18c.93-.33,1.88-.58,2.83-.82a22,22,0,0,1,3.53-.58c1.19-.08,2.39-.16,3.59-.15.78,0,1.56.09,2.35.16s1.55.08,2.33.1l.67,0a18,18,0,0,1,1.8.17l1.84.26c.63.09,1.25.19,1.87.32s1,.25,1.57.39l.23.08m-46.62-3.16c-.93.73-1.86,1.46-2.74,2.24-.5.45-1,.91-1.48,1.38s-.84.82-1.23,1.26a20.18,20.18,0,0,0-2.14,2.89,12.86,12.86,0,0,0-1.33,3.39,20.37,20.37,0,0,0-.52,3.31c-.05.56-.05,1.13-.07,1.69s0,1.18,0,1.77c0,.9-.13,1.79-.21,2.68,0,.45-.09.91-.12,1.37s-.06.88-.12,1.32-.11.77-.16,1.16l-.54-.73-.63-.81v-.14c0-.36,0-.72-.07-1.08,0-.77-.07-1.53-.11-2.3s0-1.53,0-2.29,0-1.41,0-2.12a20.38,20.38,0,0,1,.75-4.71,17.64,17.64,0,0,1,.68-2,20.22,20.22,0,0,1,1-1.92,11.27,11.27,0,0,1,.92-1.26c.38-.44.76-.88,1.15-1.31.71-.81,1.48-1.56,2.26-2.31a25.88,25.88,0,0,1,4.48-3.46c1.12-.58,2.27-1.1,3.43-1.58a32,32,0,0,0,3.7-1.86.64.64,0,0,0,.19-.18l1-.35c-.75.6-1.5,1.21-2.26,1.79-.93.73-1.9,1.41-2.86,2.09s-1.93,1.32-2.85,2m-7.71,34.22a9.16,9.16,0,0,0,1-.33l1.36,1.64c-.26.11-.52.21-.77.33-.72.32-1.41.69-2.1,1.06-1.14.61-2.3,1.19-3.4,1.86a14.61,14.61,0,0,0-2.62,2.08,26.26,26.26,0,0,0-2.47,2.7,31.86,31.86,0,0,0-2,2.89,25.74,25.74,0,0,0-1.75,3.33c-.46,1.1-.92,2.2-1.32,3.33s-.72,2.31-1.06,3.48-.65,2.32-1,3.49c-.51,1.87-1,3.75-1.52,5.62a129.76,129.76,0,0,0-3.12,13.9c-.17,1.12-.31,2.25-.4,3.38s-.13,2.4-.11,3.6,0,2.28.15,3.42c0,.48.12,1,.16,1.43-.86-.9-1.69-1.83-2.47-2.79-.07-1.49-.09-3-.1-4.45,0-.72,0-1.44,0-2.17s.07-1.39.09-2.09c0-1.12.06-2.24.19-3.34s.34-2.45.51-3.67a64.32,64.32,0,0,1,1.27-6.73l.14-.53c.41-1.41.85-2.81,1.32-4.21s1-2.67,1.56-4l2.7-6.43c.43-1,.93-2.06,1.43-3.07s1-2,1.57-3c.36-.61.73-1.2,1.13-1.78s.87-1.19,1.33-1.76.92-1.14,1.42-1.68,1-1,1.44-1.53a17.62,17.62,0,0,1,1.68-1.43c.56-.4,1.1-.83,1.68-1.19.21-.11.42-.21.64-.3l.71-.25c.45-.14.9-.26,1.34-.42s.84-.29,1.27-.42m8.22,11.1c.4-.44.82-.88,1.22-1.33l2,2.43c-.61.88-1.28,1.72-1.93,2.57s-1.32,1.88-2,2.82-1.36,1.93-2,2.93-1.18,1.94-1.75,2.93l-.76,1.26c-.64,1-1.28,2.1-1.87,3.18s-1.09,2.1-1.6,3.17a60.1,60.1,0,0,0-2.65,6.31c-.38,1.09-.71,2.2-1,3.31s-.68,2.3-1,3.46-.58,2.25-.81,3.39-.44,2.2-.62,3.31-.37,2.38-.48,3.58-.2,2.19-.26,3.29l0,.43a14.08,14.08,0,0,1-.56,1.58,21.2,21.2,0,0,1-1.09,2.12c-.71,1.19-1.48,2.34-2.25,3.49-.15.23-.31.45-.46.67,0-.19.07-.38.11-.58.19-1.07.39-2.14.54-3.22.3-2.14.32-4.31.52-6.45l.33-3.56c.11-1.11.27-2.22.45-3.32s.39-2.31.6-3.46.45-2.13.72-3.18c.51-1.79,1.09-3.57,1.66-5.34.36-1.11.72-2.21,1.09-3.32s.78-2.23,1.21-3.33.82-2.11,1.28-3.14a31.28,31.28,0,0,1,1.48-2.88c.51-.87,1-1.73,1.6-2.56s1.27-1.79,1.91-2.68,1.37-1.85,2.08-2.76,1.42-1.82,2.18-2.7,1.43-1.63,2.16-2.42M1616.34,208l-.06.75-2.44-1a28.08,28.08,0,0,0-2.8-1c-.83-.22-1.66-.43-2.49-.61l-.79-.16a21.68,21.68,0,0,0-3.32-.42,12.05,12.05,0,0,0-1.59,0c-.56,0-1.11.12-1.67.18-1.1.13-2.2.23-3.3.44-.55.1-1.11.22-1.65.35s-1.1.27-1.64.45-1,.38-1.49.58l-1.46.58c-1,.44-2,.88-3.08,1.23a24.33,24.33,0,0,1-2.9.78c-.92.18-1.84.36-2.77.45a19.62,19.62,0,0,1-2.87.1l-.39,0,0,0c-.49-.49-1-1-1.43-1.51l-.8-.85h.26a24.24,24.24,0,0,0,3-.21,28.73,28.73,0,0,0,6.29-1.45c1-.38,2-.83,2.92-1.27s2-.89,2.94-1.3,2-.76,3-1.1c.46-.15.94-.28,1.41-.41s.9-.25,1.36-.36a17.68,17.68,0,0,1,3.49-.17,26.18,26.18,0,0,1,4.31.54c.74.17,1.48.35,2.22.55s1.38.41,2.07.63c1,.32,2,.64,3,1s1.94.75,2.89,1.18q0,1-.12,2.07m-1.31,7.58c-.24,1-.45,2.1-.59,3.16-1.67-.28-3.35-.56-5-.82a24.7,24.7,0,0,0-3.08-.39,14,14,0,0,0-1.45,0q-.77,0-1.53.09c-1.07.08-2.13.25-3.19.42s-2.11.3-3.18.39-2.09.16-3.14.22-2,.13-3,.1a15.88,15.88,0,0,1-1.82-.23c-.32-.06-.64-.12-1-.21l-.16-.05c-.66-.6-1.34-1.19-2-1.77a16.16,16.16,0,0,0,2.29-.41c1-.26,2-.6,3-.91l1.56-.49,1.5-.42c.92-.25,1.85-.48,2.78-.68.57-.1,1.13-.18,1.7-.25s1.18-.18,1.78-.25a20.49,20.49,0,0,1,3.23-.14,39.28,39.28,0,0,1,4.79.92l1.58.34,1,.21c.78.16,1.55.39,2.31.61l1.66.57m.62-2.51-.21.83c-1-.36-2.09-.71-3.17-1-.63-.17-1.27-.3-1.92-.43l-1.36-.29c-.86-.2-1.72-.41-2.59-.59l-.65-.14a17.55,17.55,0,0,0-3.31-.35,30.66,30.66,0,0,0-3.18.19c-1,.11-2.11.16-3.14.37s-2.18.4-3.27.63-2.06.53-3.08.82-1.9.57-2.87.79c-.58.11-1.16.21-1.74.29a9.66,9.66,0,0,1-1.7.13h-.1l-.25-.21-.49-.47-.42-.41c.21,0,.43,0,.64-.05a27.2,27.2,0,0,0,3.91-.73,22,22,0,0,0,3-1c1-.42,2-.9,3-1.39a27,27,0,0,1,2.94-1.36,22.76,22.76,0,0,1,3-.83c1.08-.19,2.17-.33,3.26-.48.58-.08,1.16-.15,1.74-.19a10.6,10.6,0,0,1,1.38,0,33.52,33.52,0,0,1,6.43,1.32c.73.25,1.44.54,2.16.83l2.45,1c0,.25,0,.49-.08.74-.11.64-.22,1.28-.37,1.9m-1.37,7.33c0,.47-.08.94-.1,1.42,0,.63,0,1.25,0,1.88l-.62-.21-.62-.19-.58-.18c-.3-.08-.59-.16-.88-.22l-.23,0c-.4-.08-.79-.14-1.2-.19a14.15,14.15,0,0,0-2.44-.12c-.76,0-1.52.11-2.28.19-1,.11-2,.2-3,.33l-3.08.4c-1,.13-2,.22-3,.28s-1.71.1-2.57.08l-1.58-1.56c-.42-.43-.85-.86-1.28-1.28,1,0,1.94-.17,2.9-.29s2.1-.24,3.14-.38,2.13-.26,3.19-.47,2.15-.4,3.25-.52c.56-.07,1.13-.1,1.7-.14a13.26,13.26,0,0,1,1.41,0c1.37.11,2.73.35,4.08.57l3.83.64M1609,163.51c.12.64.24,1.28.37,1.92-.68-.27-1.36-.54-2-.79-1-.36-2-.7-3-1l-1.59-.52c-.51-.16-1-.35-1.52-.49l-1.14-.28-.34-.06c-.55-.11-1.1-.19-1.66-.26-1-.14-2.09-.24-3.14-.31a22,22,0,0,0-3.44.13,30.84,30.84,0,0,0-3.2.48l-1.85.38c-.49.11-1,.2-1.48.33s-1.06.32-1.58.52l-1.58.61c-1,.38-2,.71-3,1.11l-3.08,1.25c-1.07.45-2.12.93-3.15,1.47s-1.91,1-2.84,1.61c-.44.27-.86.55-1.29.83s-.89.56-1.34.83c-.93.56-1.85,1.15-2.8,1.66l-2.88,1.53q-2.28,1.13-4.65,2.09a31.83,31.83,0,0,1-4.75,1.57c-.43.08-.86.16-1.3.21h0l-.8-1,.51-.19c.56-.21,1.12-.43,1.67-.66,1.22-.51,2.43-1,3.6-1.63,1.87-.94,3.7-2,5.53-3,.87-.49,1.75-1,2.58-1.53s1.68-1.19,2.54-1.77,1.8-1.13,2.69-1.71,1.73-1.15,2.6-1.71,1.79-1.09,2.66-1.68a30.68,30.68,0,0,1,2.64-1.58c.74-.36,1.47-.69,2.23-1s1.63-.63,2.45-.93a40.75,40.75,0,0,1,4.75-1.46c.9-.17,1.82-.3,2.73-.4a22.86,22.86,0,0,1,2.74-.08c.38,0,.76.06,1.13.11l1.22.19c.85.13,1.69.27,2.52.43s1.67.38,2.49.6,1.57.43,2.35.67h0a30.06,30.06,0,0,1,3.29,1.19,29.16,29.16,0,0,1,3.29,1.69c.31.2.61.4.91.62m7.16,34.07c0,.63.08,1.26.11,1.88l-.18-.08c-.49-.21-1-.36-1.53-.52a30.72,30.72,0,0,0-3-.78c-.54-.1-1.09-.21-1.62-.33l-1.52-.38c-.65-.16-1.3-.32-2-.46-.43-.09-.86-.18-1.3-.25-1-.19-2.06-.32-3.09-.41a24.88,24.88,0,0,0-3.34-.14c-1.12,0-2.23.16-3.33.3a32.1,32.1,0,0,0-3.37.59c-1.1.26-2.19.56-3.28.86-2,.57-3.86,1.43-5.78,2.18-1,.38-1.93.78-2.92,1.09s-1.94.55-2.93.76a29.77,29.77,0,0,1-3.11.42l-1.46.1-.8,0-.16-.17-1.34-1.39.2,0a35.66,35.66,0,0,0,6-1.49c1-.34,2-.7,2.9-1.09s1.93-.77,2.87-1.19c1.86-.83,3.69-1.75,5.58-2.5a38.38,38.38,0,0,1,5.82-1.89,18.36,18.36,0,0,1,2.44-.34,23.42,23.42,0,0,1,2.65,0l.89.06c1,.07,2.08.17,3.12.26s2.08.14,3.11.26,2.09.25,3.13.45a25.12,25.12,0,0,1,2.84.72,19,19,0,0,1,2.2.87c.64.32,1.28.65,1.91,1,.09.54.16,1.08.22,1.62m.21,3.76c.05.93.09,1.87.11,2.81-.43-.2-.87-.39-1.31-.55-.81-.3-1.63-.57-2.45-.85-1.56-.52-3.14-1-4.74-1.45-.59-.15-1.18-.3-1.78-.43-.42-.09-.83-.16-1.26-.22-1-.14-2-.25-3.07-.32a14,14,0,0,0-5,.35c-.5.12-1,.23-1.49.37a48.73,48.73,0,0,0-6.07,2.17c-1,.41-1.92.82-2.9,1.17a20.83,20.83,0,0,1-2.78.77c-.74.14-1.5.25-2.25.36s-1.52.24-2.29.3-1.56.09-2.33.09h-1.61l-.89-.92-.31-.32a18.54,18.54,0,0,0,2.47-.19,26.54,26.54,0,0,0,5.8-1.6c1-.4,2-.82,3-1.25s1.84-.83,2.78-1.18,2-.7,3-1,2-.58,3.06-.81c1.24-.24,2.49-.46,3.75-.6.69-.07,1.37-.13,2.06-.14s1.14,0,1.71,0l.61.05a25.75,25.75,0,0,1,3.16.4c1.07.2,2.13.44,3.19.7.53.14,1.06.28,1.6.39l1.55.3c1,.21,2,.51,2.93.81.37.13.74.26,1.11.42a7.06,7.06,0,0,1,.68.33m-2.59,26.73-.18.91a18.36,18.36,0,0,0-3.41-1.18l-.37-.08a14.64,14.64,0,0,0-1.75-.2c-.49,0-1-.07-1.47-.07-1.72,0-3.43.17-5.15.11-1-.07-1.93-.17-2.9-.3a13.89,13.89,0,0,1-1.41-.25c-.16,0-.32-.08-.48-.12-.32-.34-.64-.66-1-1l1-.09c1-.11,1.94-.26,2.9-.43s2-.36,3-.51,2-.28,3.06-.41c.53-.07,1.07-.13,1.61-.17s1,0,1.48,0c.3,0,.6,0,.89.08s.81.1,1.21.17a18,18,0,0,1,2,.54l1.22.42c0,.27,0,.53-.07.79-.07.61-.16,1.22-.24,1.82m-113.3-30.33-2.19-1.43c-.06-.14-.12-.28-.17-.43a7.52,7.52,0,0,1-.28-.84c-.15-.46-.28-.92-.42-1.39a14.6,14.6,0,0,1-.36-1.72c-.09-.66-.14-1.32-.18-2-.07-1.26-.13-2.52-.15-3.78,0-.72,0-1.43.06-2.14s.12-1.6.21-2.4c.11-1.06.25-2.11.39-3.17s.31-2.05.49-3.06.41-2,.62-3,.41-1.83.66-2.74c.34-1.22.72-2.43,1.11-3.63.19-.59.39-1.18.57-1.77s.36-1.29.53-1.94c0,.1,0,.19-.08.29.29-1,.57-2.09.85-3.13s.62-2.1.91-3.15.63-2.36.94-3.54c.27-1,.55-2,.88-2.95a48.09,48.09,0,0,1,2.38-5.64c.45-.92.89-1.84,1.34-2.75.22-.45.43-.9.68-1.34l.69-1.21c.66-1.1,1.43-2.12,2.16-3.17.37-.52.78-1,1.11-1.59.12-.2.22-.41.32-.62l1.89,2.69-.27.43-.67,1.05c-.55.87-1.1,1.74-1.61,2.64s-1,1.68-1.43,2.54-.81,1.61-1.16,2.44c-.9,2.12-1.69,4.27-2.41,6.46s-1.38,4.36-2.05,6.55c-.37,1.2-.74,2.4-1.06,3.62s-.6,2.32-.88,3.48-.52,2.18-.74,3.28c-.12.59-.25,1.17-.35,1.76s-.19,1.16-.3,1.73-.22,1.14-.32,1.71-.16,1-.25,1.58c-.19,1.09-.37,2.2-.53,3.3s-.31,2.28-.42,3.42-.24,2.34-.28,3.52l-.12,3.55c0,1.15,0,2.3,0,3.45s0,2.34,0,3.51a15.29,15.29,0,0,0,.16,1.66l-.25-.18m-4.54-3c-.77-.5-1.55-1-2.34-1.49l-.44-.26a.82.82,0,0,0-.06-.46,17.63,17.63,0,0,1-1.06-2.81,9.22,9.22,0,0,1-.27-1.35c-.06-.5-.11-1-.14-1.5-.07-.91-.1-1.83-.11-2.74s.11-1.83.2-2.74.2-1.74.35-2.6c.34-1.79.79-3.56,1.25-5.33q.15-.58.33-1.17c.59-2.07,1.19-4.14,1.78-6.21.29-1,.55-2,.83-3s.61-2.09.93-3.13c.65-2.07,1.29-4.15,1.92-6.22s1.24-4.12,1.89-6.17c.35-1.08.7-2.16,1.11-3.22s.81-2,1.23-3,.87-2,1.33-2.93,1-2,1.51-3c.78-1.33,1.58-2.64,2.36-4,.39-.65.8-1.28,1.2-1.91l.43-.71.61.82,1.17,1.61,0,.14v.08a14.54,14.54,0,0,1-.55,1.43l-.22.33-1.67,2.38c-.3.41-.6.82-.88,1.25s-.59,1-.88,1.47-.52.88-.75,1.34l-.69,1.41-1.35,2.74c-.46.92-.87,1.86-1.27,2.81s-.76,1.87-1.07,2.83c-.65,2-1.15,4-1.69,6.07-.4,1.43-.82,2.86-1.18,4.3-.32,1.28-.64,2.57-1,3.84s-.82,2.79-1.21,4.19c-.22.77-.43,1.55-.59,2.33s-.3,1.47-.44,2.2c-.39,2-.68,4.06-.91,6.1a62.2,62.2,0,0,0-.5,6.24c0,1.1,0,2.2.06,3.3,0,.55.06,1.1.1,1.66s0,1,.1,1.44a18,18,0,0,0,.61,3.16c.06.18.11.36.17.55l-.18-.12m-7.27-4.61c-.57-.48-1.13-1-1.68-1.47-.07-.71-.14-1.41-.2-2.12s-.1-1.37-.15-2.05-.15-1.25-.18-1.88,0-1.32,0-2,0-1.6.08-2.39.21-1.75.33-2.62a41.33,41.33,0,0,1,1-4.92q.39-1.47.84-2.91c.65-2.07,1.29-4.15,1.9-6.24s1.38-4.41,2-6.63c.32-1.09.62-2.2,1-3.29s.64-2,1-3,.7-2.14,1.08-3.2.73-2.14,1.15-3.19.86-2.13,1.3-3.19.88-2,1.34-3,.92-2,1.44-2.91,1-1.74,1.44-2.6c.78-1.25,1.62-2.46,2.45-3.68.44-.63.86-1.26,1.28-1.91l.52-.78c.7.86,1.39,1.72,2.06,2.6l-.48.83c-.28.46-.57.91-.86,1.36s-.61,1-.91,1.52l-1.87,3.14c-.3.51-.61,1-.89,1.54s-.53,1-.78,1.57c-.46,1-.93,2-1.35,3s-.85,2-1.24,3-.79,2.12-1.14,3.2c-1.31,4.1-2.4,8.28-3.61,12.41-.33,1.14-.65,2.29-1,3.44s-.51,2-.77,3.05c-.55,2.09-1.07,4.19-1.63,6.28a.29.29,0,0,1,0-.09c-.42,1.55-.81,3.11-1.18,4.68a42.46,42.46,0,0,0-.87,4.74l-.15,1.5c0,.53-.1,1.07-.1,1.61,0,1.13,0,2.27.1,3.4,0,.54.09,1.08.15,1.61s.18,1,.3,1.52a16.4,16.4,0,0,0,.52,1.64,21.18,21.18,0,0,1-2.24-1.54m-5.22-5.36A23.17,23.17,0,0,1,1482,183l0,0a.22.22,0,0,0,0-.08c-.09-1.24-.2-2.48-.27-3.73-.06-1-.09-2.09-.1-3.14,0-.52,0-1,0-1.57s.1-1.11.17-1.66c.14-1.08.28-2.17.44-3.26.34-2.27.82-4.53,1.3-6.78.23-1.11.5-2.21.72-3.31s.51-2.25.77-3.37.53-2.26.78-3.4.48-2.22.76-3.32c.36-1.32.77-2.63,1.18-3.93.21-.65.42-1.3.64-2s.44-1.42.7-2.12c.39-1.07.83-2.13,1.31-3.17s1-2.11,1.48-3.13c1-2,2.11-4,3.24-5.94l.39-.63c.61-1,1.24-1.94,1.89-2.88s1.36-1.86,2.08-2.75,1.39-1.73,2.06-2.61c.3-.38.59-.77.87-1.16l2.39,3-.09.12c-.11.15-.2.31-.3.47-.21.32-.43.64-.64,1-.44.66-.89,1.3-1.34,2-.94,1.37-1.91,2.73-2.73,4.18-.27.47-.53.95-.79,1.42s-.52.94-.77,1.42c-.52,1-1,2-1.42,3-.92,2.07-1.74,4.18-2.52,6.3-.38,1.06-.71,2.14-1,3.2s-.67,2.11-1,3.16-.67,2.28-1,3.43-.54,2.11-.82,3.16c-.36,1.3-.75,2.6-1.13,3.9s-.75,2.69-1.13,4c-.6,2.12-1.22,4.24-1.78,6.37a48.67,48.67,0,0,0-1.31,6.44c-.08.56-.15,1.13-.21,1.7s-.12,1-.13,1.56c0,1.19,0,2.37,0,3.55,0,.53.07,1.05.12,1.57s.09,1.09.13,1.64l.09,1.11-.16-.17c-.51-.58-1-1.15-1.51-1.75m-4.32-14.95c.15-.93.34-1.85.47-2.79a23.13,23.13,0,0,0,.26-2.64.41.41,0,0,1,0-.11c0-.34,0-.68.05-1,0-.7,0-1.41.1-2.11.11-1.4.22-2.81.35-4.2.12-1.16.21-2.32.34-3.48s.33-2.25.52-3.37.4-2.29.62-3.43.49-2.11.77-3.16.67-2.34,1-3.5.7-2.16,1.11-3.21.88-2.17,1.38-3.23,1-2.1,1.53-3.13,1-1.93,1.57-2.87c.87-1.42,1.74-2.83,2.6-4.25.6-1,1.2-2,1.87-2.91s1.32-1.86,2-2.81c.32-.49.66-1,1-1.44l1-1.31c.24-.32.48-.65.7-1,.79,1,1.58,2,2.36,2.93l-.32.43c-.63.87-1.27,1.72-1.92,2.57s-1.41,1.81-2.08,2.74-1.31,1.89-1.92,2.86-1.3,2.11-1.9,3.2c-1.12,2-2.22,4.09-3.17,6.22-.48,1.06-1,2.13-1.39,3.21s-.8,2.08-1.13,3.15c-.71,2.33-1.42,4.66-2.05,7-.3,1.1-.51,2.22-.73,3.34s-.49,2.27-.7,3.41-.48,2.21-.69,3.32-.43,2.21-.66,3.31-.46,2.32-.69,3.48-.46,2.33-.63,3.5-.31,2.32-.47,3.49a27.9,27.9,0,0,0-.28,3.29c0,1.22,0,2.44.06,3.65v.08c-.21-.59-.4-1.18-.55-1.78-.18-.83-.34-1.67-.47-2.51a18.37,18.37,0,0,1-.16-2.46c0-.83.12-1.67.24-2.49m-7.39-2.79c-.45-.89-.92-1.77-1.42-2.63-.14-.84-.31-1.68-.41-2.53s-.11-1.67-.12-2.51v-.27a16.32,16.32,0,0,1,.09-1.71c.13-1.18.32-2.36.52-3.54s.4-2.43.59-3.65q.57-3.65,1.3-7.26t1.6-7.1c.3-1.23.61-2.46.88-3.69s.5-2.23.8-3.34c.22-.75.44-1.5.67-2.25s.44-1.48.72-2.19a20.89,20.89,0,0,1,.94-2.17c.33-.67.69-1.33,1.06-2,.5-.83,1-1.66,1.51-2.47s1.1-1.67,1.7-2.47,1.22-1.6,1.84-2.38c.28-.35.56-.71.87-1l.87-.9c.62-.59,1.24-1.16,1.88-1.73s1.3-1.09,2-1.61l1.85-1.46.35-.26.23.28,1.06,1.26a5.77,5.77,0,0,0-.42.44c-.33.33-.65.66-1,1-.63.68-1.25,1.39-1.86,2.09s-1.27,1.52-1.87,2.31-1.21,1.59-1.78,2.4-1.28,1.84-1.91,2.77-1.33,2-1.92,3.06-1.13,2-1.63,3.09-.86,2.06-1.24,3.1-.8,2.18-1.18,3.28-.71,2.26-1.06,3.39-.67,2.18-1,3.27-.71,2.33-1,3.52-.52,2.19-.72,3.29-.36,2.28-.53,3.42-.34,2.28-.45,3.43-.19,2.24-.29,3.36-.17,2.34-.23,3.51-.17,2.31-.31,3.45-.36,2.16-.55,3.24l-.42,2.18m-4.14-6.67c-.44-.53-.88-1.06-1.35-1.56,0-.53,0-1.06,0-1.6s-.11-1.21-.17-1.83c-.11-1.11-.13-2.24-.14-3.36,0-1,0-1.92.11-2.87a54.12,54.12,0,0,1,1-6.93c.46-2.29,1-4.55,1.65-6.8q1.08-3.93,2.21-7.84c.66-2.28,1.33-4.56,2.07-6.82a33.28,33.28,0,0,1,1.25-3.18c.45-1,.94-2,1.49-3s1.29-2,2-2.92c.35-.46.71-.92,1.09-1.35s.74-.83,1.12-1.22a21.1,21.1,0,0,1,1.57-1.43c.32-.27.65-.52,1-.76l.76-.49c.55-.29,1.11-.57,1.66-.87l1.69-.9c.54-.27,1.08-.56,1.64-.79.28-.12.57-.23.85-.37l.46-.24.48.58-.33.25c-.59.46-1.17.94-1.76,1.41s-1.28,1-1.88,1.57-1.28,1.18-1.9,1.8a15.87,15.87,0,0,0-1.39,1.45c-.41.5-.8,1-1.19,1.53-.73,1-1.45,2-2.12,3s-1.35,2.23-2,3.37a33.84,33.84,0,0,0-1.65,3.16c-.25.57-.49,1.13-.7,1.72s-.39,1.21-.57,1.82c-.34,1.16-.68,2.33-1,3.5s-.57,2.46-.83,3.69-.54,2.38-.82,3.56q-.86,3.62-1.59,7.26c-.49,2.4-.9,4.82-1.27,7.25s-.84,4.76-1.09,7.16c-.06.62-.07,1.23-.07,1.85s0,1.08,0,1.62l-.33-.42m-8.7-10.83c-.34-.64-.67-1.29-1-2l-.06-.12a.82.82,0,0,0,0-.27,31,31,0,0,1-.46-4c0-.51.07-1,.11-1.54l.15-1.75c.1-1.11.25-2.21.42-3.32s.31-2.19.56-3.26.51-2.14.79-3.21c.38-1.36.76-2.73,1.1-4.11s.62-2.6,1-3.89c.27-1,.56-1.94.85-2.9s.62-2.06,1-3.07.76-2.14,1.22-3.18.92-1.9,1.42-2.83,1-1.59,1.59-2.37c.32-.45.64-.91,1-1.35l.91-1.19c.63-.86,1.28-1.7,1.93-2.55a23.61,23.61,0,0,1,1.87-2.12,16.16,16.16,0,0,1,1.6-1.38c.56-.43,1.14-.83,1.74-1.21l.18-.11.08,0,.16-.1a18.43,18.43,0,0,1,3.18-1.33c.68-.21,1.36-.42,2-.67l.86-.34,1.45,1.74c-.36.11-.71.21-1.06.33-.79.28-1.6.51-2.38.79a10.06,10.06,0,0,0-2.46,1.48,19.34,19.34,0,0,0-2,1.6c-.51.48-1,1-1.46,1.49s-.76.8-1.11,1.22c-.73.87-1.43,1.76-2.09,2.68-.33.45-.63.91-.91,1.38-.36.62-.73,1.23-1.06,1.86-.53,1-1,2.08-1.46,3.13-.25.56-.48,1.12-.7,1.69s-.38,1.05-.56,1.59c-.35,1.06-.72,2.13-1.1,3.18l-1.25,3.38c-.4,1.06-.79,2.14-1.12,3.23-.68,2.26-1.4,4.53-1.86,6.85-.23,1.18-.44,2.37-.63,3.56s-.29,2.23-.45,3.34c-.08.62-.17,1.24-.24,1.87s-.1,1.15-.13,1.73,0,1.08-.06,1.61,0,1.22-.08,1.82c-.08,1.61-.09,3.22-.06,4.82,0-.08-.1-.16-.16-.24-.42-.66-.85-1.33-1.24-2m-4-12.45c-.16-.78-.32-1.56-.5-2.33-.13-.52-.26-1-.38-1.55,0-.41.09-.83.12-1.25s.08-1.11.12-1.67.09-1.21.16-1.81.16-1.15.25-1.73.18-1.19.27-1.79.14-1.08.25-1.62c.22-1.14.48-2.28.78-3.4s.56-2,.89-2.92.77-2,1.21-3,.87-1.88,1.37-2.78,1-1.82,1.52-2.72,1.16-1.91,1.72-2.88c.21-.36.42-.71.65-1.06s.57-.8.87-1.2c.56-.75,1.14-1.51,1.72-2.25a21.72,21.72,0,0,1,1.76-2.06c.21-.21.41-.42.62-.62l.12-.12.16-.16.19-.18.28-.29a19.07,19.07,0,0,1,2.28-1.93q1.21-.86,2.49-1.62a14.83,14.83,0,0,1,1.49-.75l.87-.37c.28-.12.55-.27.82-.41a14.17,14.17,0,0,1,1.75-.75c.35-.13.71-.26,1.06-.37l1.44,1.73-.07,0c-.61.23-1.23.42-1.85.62a17,17,0,0,0-3.5,1.46l-.12.07h0l-.36.21-.19.12-.24.15-.48.31a18,18,0,0,0-2.58,2,31.12,31.12,0,0,0-2.45,2.69c-.34.43-.65.87-1,1.31s-.72,1-1.07,1.48-.64.87-1,1.32-.68,1-1,1.51-.72,1.12-1,1.7-.56,1-.81,1.56c-.48,1.07-1,2.15-1.36,3.26s-.76,2.21-1.07,3.33-.65,2.43-1,3.65c-.29,1.06-.55,2.13-.77,3.2s-.48,2.31-.75,3.46-.56,2.22-.84,3.34-.57,2.31-.8,3.47-.36,2.2-.52,3.3c-.09.6-.19,1.2-.25,1.8s-.12,1.13-.17,1.7-.07.89-.12,1.33c-.06-.26-.14-.53-.2-.8-.29-1.24-.55-2.48-.8-3.73m-2.64-11.73c-.16-.82-.34-1.64-.51-2.46.06-1.33.12-2.66.24-4a18.08,18.08,0,0,1,.38-2.18c.14-.68.3-1.36.48-2,.15-.51.3-1,.46-1.54s.27-.94.44-1.4c.37-1,.76-2,1.14-3s.81-1.87,1.22-2.8a28.64,28.64,0,0,1,1.33-2.73c.22-.37.45-.73.68-1.1s.52-.87.8-1.29.59-.8.89-1.19.59-.81.88-1.23.57-.81.86-1.21.62-.8.94-1.19c.57-.7,1.16-1.38,1.78-2s1.25-1.13,1.9-1.66a13.62,13.62,0,0,1,1.89-1.32c.48-.27,1-.54,1.46-.76a13.93,13.93,0,0,1,1.65-.56l2-.53.23-.07c.67-.18,1.34-.35,2-.47.38-.07.76-.13,1.14-.21l.63-.13.44.54.32.39c-.51.18-1,.37-1.51.59s-1,.52-1.49.74-1,.41-1.45.65a31.46,31.46,0,0,0-3.2,2c-.49.33-1,.68-1.42,1a18.23,18.23,0,0,0-1.37,1.27l-.87.88a1,1,0,0,0-.17.18l-.19.2c-.41.42-.82.84-1.19,1.3a33.49,33.49,0,0,0-2.06,2.83,35.05,35.05,0,0,0-1.91,3.17c-.26.49-.51,1-.77,1.5s-.58,1.05-.86,1.57c-.55,1-1.06,2-1.59,3s-1,2.08-1.49,3.15a33,33,0,0,0-1.24,3.31c-.36,1.17-.7,2.34-1,3.53s-.54,2.31-.74,3.48-.32,2.23-.5,3.34c-.05.31-.1.6-.13.9-.19-.82-.37-1.65-.54-2.48m-.84-15.2c.16-1,.36-1.89.54-2.83s.36-1.64.58-2.45c.16-.5.32-1,.46-1.49.28-.84.58-1.67.91-2.49s.77-1.76,1.17-2.63c.76-1.64,1.47-3.31,2.35-4.89.14-.22.27-.45.42-.67s.45-.62.68-.91c.43-.54.87-1.06,1.34-1.56a10.54,10.54,0,0,1,.8-.7c.34-.25.69-.5,1-.73.66-.43,1.3-.87,2-1.29s1.19-.63,1.8-.93a12.1,12.1,0,0,1,5.2-1.23,21,21,0,0,1,2.74.28,14.67,14.67,0,0,0,1.47.16h.29l0,.06-.87.17c-1,.24-2,.53-3,.81-.69.18-1.39.37-2.07.61a9.31,9.31,0,0,0-1.54.7c-.57.32-1.15.64-1.69,1a18.19,18.19,0,0,0-2.57,2.15,15.38,15.38,0,0,0-1.29,1.39c-.35.46-.7.91-1,1.37s-.71,1-1.06,1.48-.59.9-.87,1.35-.69,1.08-1.05,1.6-.75,1-1.07,1.58-.57,1-.86,1.52-.57,1-.81,1.47c-.48,1.06-.93,2.14-1.39,3.21-.24.57-.48,1.14-.7,1.71s-.38,1-.57,1.55-.42,1.06-.59,1.6-.36,1.15-.53,1.72c-.29.93-.55,1.86-.78,2.8v0q.06-1.36.18-2.73c.09-.91.24-1.82.38-2.73m12-25.74.92-.19c-.45.26-.89.54-1.33.8a12.6,12.6,0,0,0-1.4,1c-.45.37-.92.72-1.39,1.07a14.91,14.91,0,0,0-1.47,1.29,16,16,0,0,0-1.15,1.32c-.39.49-.76,1-1.12,1.5a14.27,14.27,0,0,0-1,1.69c-.54,1-1,2.11-1.45,3.17-.09.18-.17.37-.26.56,0-.27.09-.55.13-.82.2-1.09.33-2.21.6-3.29a11.05,11.05,0,0,1,.88-2l.54-.94a9.69,9.69,0,0,1,.79-1.11c.27-.3.53-.58.81-.87.43-.4.87-.77,1.34-1.14a12.61,12.61,0,0,1,1.39-.89c.21-.11.41-.22.63-.31s.59-.24.89-.35a16,16,0,0,1,1.63-.49m23.67-19.69a19.44,19.44,0,0,1,2-.94c.19-.07.38-.13.57-.21q-1,.72-1.89,1.5c-.86.73-1.66,1.53-2.46,2.34-.38.39-.75.79-1.12,1.19s-.74.8-1.09,1.21a11.61,11.61,0,0,0-1,1.36,18.38,18.38,0,0,0-.91,1.61A23.81,23.81,0,0,0,1479.9,76c-.2.6-.36,1.21-.51,1.82s-.26,1.07-.33,1.62c-.13,1.18-.15,2.37-.17,3.57,0,.5,0,1,0,1.51,0-.05,0-.1,0-.15-.08-.36-.14-.72-.19-1.09-.06-.77-.09-1.55-.11-2.33q0-.93,0-1.86a32.14,32.14,0,0,1,.16-3.25c0-.3.09-.61.17-.91s.11-.5.18-.75a13.41,13.41,0,0,1,.54-1.5c.15-.32.31-.63.47-.94s.22-.45.35-.66l.53-.87a10.82,10.82,0,0,1,.88-1.25,12,12,0,0,1,1.35-1.41l.76-.66c.36-.3.73-.57,1.11-.84l1.06-.69c.32-.21.66-.39,1-.58M1516,55.5c.27.06.55.13.82.21l.56.16c-.3,0-.6.06-.9.1a13.64,13.64,0,0,0-2.18.46,12.24,12.24,0,0,0-1.65.64c-.54.27-1.08.56-1.61.85l-1.44.82c-.48.29-1,.57-1.43.91-1,.7-1.91,1.42-2.87,2.13s-1.8,1.32-2.69,2c-1.82,1.39-3.64,2.77-5.44,4.19-.9.72-1.82,1.42-2.66,2.2a16.56,16.56,0,0,0-2.38,2.7c-.36.52-.71,1.06-1,1.62a13.21,13.21,0,0,0-.74,1.57,21.93,21.93,0,0,0-1,3.37,23.56,23.56,0,0,0-.34,3.25c-.09,1.17-.19,2.34-.39,3.5-.39,2.17-1.23,4.23-1.56,6.41-.08.54-.17,1.07-.22,1.61,0,.19,0,.39,0,.58-.51-.55-1-1.11-1.47-1.69v-.25a23.88,23.88,0,0,1,.24-2.39c.07-.45.17-.9.23-1.36s.1-.93.14-1.4c.1-1,.24-1.89.32-2.84s.06-1.89.07-2.83a25.54,25.54,0,0,1,.19-2.91,22,22,0,0,1,.5-2.67c.14-.46.3-.92.48-1.37a10.51,10.51,0,0,1,.65-1.3,18.16,18.16,0,0,1,1.47-2c.6-.7,1.24-1.36,1.9-2,1.13-1,2.31-2,3.52-3,.63-.5,1.29-1,1.94-1.47l1.94-1.48c1-.74,1.88-1.53,2.82-2.3s1.8-1.5,2.72-2.21a44.1,44.1,0,0,1,5.83-3.84l.14-.07.2-.12.51-.09.64-.08a12.15,12.15,0,0,1,2.63.1c.55.1,1.09.19,1.63.32m8,3.37c1,.61,2,1.27,3,1.88l0,0-.16,0a16.18,16.18,0,0,0-2.2-.07,18.47,18.47,0,0,0-2.1.11,15.44,15.44,0,0,0-1.78.32c-.64.13-1.27.28-1.9.45a30.5,30.5,0,0,0-3.19,1c-.57.22-1.14.44-1.7.68s-1.13.54-1.68.84c-1.06.58-2.1,1.19-3.13,1.83l-3.09,1.92c-1,.62-2,1.22-2.91,1.87a23.66,23.66,0,0,0-2.89,2.39,13.81,13.81,0,0,0-1.12,1.29,16.31,16.31,0,0,0-1,1.43c-.64,1-1.19,2.08-1.73,3.15-.26.49-.5,1-.72,1.51a13.93,13.93,0,0,0-.6,1.79,25.34,25.34,0,0,0-.56,3.47A23,23,0,0,1,1494,88c-.28.83-.57,1.66-.84,2.5s-.5,1.72-.74,2.58c-.14.45-.27.9-.37,1.35s-.17.9-.22,1.35-.07.91-.09,1.37,0,1,0,1.58,0,1,0,1.57c-.25-.33-.51-.65-.77-1s-.63-.79-1-1.17l-.53-.57c0-.33-.08-.67-.11-1,0-.5-.08-1-.08-1.5s.1-1.15.18-1.73.18-1.17.31-1.76c.22-1.06.51-2.1.76-3.16a20.34,20.34,0,0,0,.54-3.38c.08-1.17.13-2.34.19-3.52a15.91,15.91,0,0,1,.49-3.14c.18-.59.37-1.19.59-1.76a12,12,0,0,1,.89-1.84,13.94,13.94,0,0,1,1-1.48c.41-.51.85-1,1.31-1.47,1-.93,2.11-1.77,3.2-2.61s2.24-1.72,3.38-2.57c1.83-1.38,3.68-2.74,5.51-4.12.9-.68,1.77-1.38,2.73-2s1.86-1.11,2.81-1.63c.38-.19.76-.37,1.15-.52a11.16,11.16,0,0,1,1.12-.35,16.23,16.23,0,0,1,3-.4,10.75,10.75,0,0,1,1.49.15c.57.1,1.13.23,1.7.36l.8.25a1,1,0,0,0,.69,0l0,0,.82.48m8.65,5.45c.9.6,1.8,1.18,2.71,1.75l.1.07L1534.4,66a18.7,18.7,0,0,0-2-.17h-.5l-1.13,0c-.93,0-1.85-.15-2.78-.21a27.67,27.67,0,0,0-2.88,0c-.9,0-1.81.07-2.71.18a25.14,25.14,0,0,0-2.73.48c-1.16.26-2.31.56-3.43.93a20.52,20.52,0,0,0-3.27,1.49,28.42,28.42,0,0,0-2.83,1.76,30.88,30.88,0,0,0-2.77,2.18c-.92.81-1.79,1.66-2.64,2.54-.39.4-.8.81-1.15,1.24s-.7.9-1,1.37-.62.88-.91,1.34a15.66,15.66,0,0,0-1,1.68c-.24.49-.46,1-.66,1.48s-.36,1-.52,1.56c-.35,1.17-.64,2.36-.9,3.55-.13.57-.25,1.14-.37,1.71s-.26,1.06-.39,1.59c-.25,1.08-.51,2.17-.69,3.27s-.27,2.33-.41,3.49-.13,2.29-.21,3.44c0,.56,0,1.13-.07,1.7s0,1.08-.08,1.62c0,.73-.08,1.47-.09,2.2l-.81-1a.78.78,0,0,0-.24-.2c0-.14,0-.29-.07-.43-.07-.37-.12-.74-.17-1.11a16.55,16.55,0,0,0-.4-2.1,14.43,14.43,0,0,1-.21-2.63c0-.83-.05-1.66,0-2.5a13.27,13.27,0,0,1,.37-2.58c.2-.83.39-1.65.62-2.47s.52-1.68.76-2.52a9.14,9.14,0,0,0,.27-1.15c.06-.42.11-.85.17-1.27a42.39,42.39,0,0,1,.72-4.91,11.37,11.37,0,0,1,.5-1.38c.2-.46.42-.92.64-1.38.44-.88.86-1.77,1.36-2.62.35-.55.72-1.08,1.12-1.59a14.16,14.16,0,0,1,1.27-1.42,25.84,25.84,0,0,1,2.53-2c1-.65,1.94-1.27,2.92-1.9,1.92-1.23,3.85-2.44,5.84-3.55.48-.25,1-.5,1.47-.71s1.12-.45,1.69-.66a34.22,34.22,0,0,1,3.43-1.1,20.33,20.33,0,0,1,2.65-.52,25.19,25.19,0,0,1,2.75-.1,18.12,18.12,0,0,1,2.07.2c.73.13,1.43.31,2.14.51l1.41.46a1,1,0,0,0,.67,0c.31.21.62.43.94.63M1544.3,71c1,.48,2.06.94,3.11,1.37l.82.34c-.51,0-1,.14-1.51.22-1.13.19-2.24.49-3.37.71s-2.42.4-3.65.52-2.31.24-3.47.41-2.27.38-3.39.64a33.82,33.82,0,0,0-3.57,1,13,13,0,0,0-1.56.73c-.6.31-1.17.66-1.74,1a25.78,25.78,0,0,0-2.74,2c-.5.43-1,.86-1.47,1.3s-.92.84-1.34,1.29c-.79.87-1.56,1.76-2.27,2.7s-1.4,1.85-2.05,2.8-1.36,1.94-2.08,2.89-1.51,2-2.29,2.94-1.47,1.8-2.11,2.77-1.37,2.11-2,3.21-1.17,2.06-1.72,3.1c-.28.52-.56,1-.82,1.59s-.47,1-.69,1.58c-.46,1.06-1,2.1-1.41,3.16s-.74,2-1.12,3c-.08.22-.16.46-.23.7l-.36-.43c0-.65.15-1.3.25-1.94.14-.82.27-1.63.4-2.44s.23-1.58.37-2.37a20.15,20.15,0,0,1,.48-2,23.54,23.54,0,0,1,.86-2.44c.35-.84.74-1.66,1.13-2.48s.8-1.65,1.19-2.48.71-1.55,1.08-2.32c1-2.08,2-4.15,2.89-6.25.46-1.06,1-2.09,1.48-3.12s1-2,1.57-3a18,18,0,0,1,1.16-1.69c.22-.28.44-.57.68-.83l.63-.65a31.85,31.85,0,0,1,2.71-2.21,30.84,30.84,0,0,1,3-1.9,23.14,23.14,0,0,1,4.79-1.84c.92-.2,1.84-.38,2.77-.51,1.09-.16,2.2-.24,3.29-.37s2.33-.3,3.48-.47,2.27-.36,3.41-.52l3.63-.53,1.77.83m11.55,5.48a11.84,11.84,0,0,1,1.74,1.87l.16.23-.61-.11c-.54-.09-1.09-.17-1.64-.23a29.78,29.78,0,0,0-3.88-.28c-1.17,0-2.34.12-3.5.21s-2.33.14-3.5.24a33.43,33.43,0,0,0-3.45.4c-1.25.25-2.51.52-3.74.86a23.61,23.61,0,0,0-3.27,1.18c-.55.24-1.1.48-1.64.76s-1.1.6-1.63.93a25.1,25.1,0,0,0-2.92,2.1c-.22.19-.44.37-.65.57a5.78,5.78,0,0,0-.64.58l-.06.06a2.68,2.68,0,0,0-.3.28l-.11.1a58.85,58.85,0,0,0-4,4.33c-1.37,1.57-2.69,3.19-4,4.77a89,89,0,0,0-8.27,11.07c-.71,1.13-1.42,2.24-2.08,3.39-.56,1-1.12,2-1.7,3s-1.13,1.91-1.71,2.86l-.27.44-.29-.36a.19.19,0,0,0,0-.07,2.09,2.09,0,0,0,.05-.49,5.57,5.57,0,0,1,.15-.91c.12-.37.26-.74.41-1.1s.39-1,.58-1.51c.37-1,.81-2,1.26-3s.92-2.17,1.45-3.22,1.07-2.06,1.63-3.08,1-1.87,1.59-2.79c.32-.51.64-1,1-1.51s.66-.91,1-1.35c.77-1,1.54-2,2.3-2.95s1.42-1.87,2.08-2.84,1.29-1.92,2-2.87,1.41-2,2.16-2.89a25,25,0,0,1,2.26-2.46c.82-.76,1.66-1.5,2.55-2.18a25.41,25.41,0,0,1,2.85-1.87,11.72,11.72,0,0,1,1.14-.52c.42-.17.85-.32,1.28-.46.8-.26,1.61-.47,2.43-.67,1-.22,2-.43,3-.58,1.18-.17,2.36-.3,3.55-.44a34.4,34.4,0,0,0,3.47-.58c1.19-.27,2.38-.55,3.59-.77.58-.1,1.16-.14,1.74-.19s1.09,0,1.64,0l1.17.07,1.06.51c.53.26,1.06.51,1.57.8a9.38,9.38,0,0,1,1.11.75M1526.44,86l.17-.16-.16.15h0m27.21-3c-.45,0-.9.12-1.35.2l-.64.13a.92.92,0,0,0-.4,0c-.82.32-1.64.62-2.48.9s-1.43.44-2.13.71a42.44,42.44,0,0,0-4.33,2l-.47.26c-.8.42-1.61.81-2.37,1.3s-1.46,1-2.17,1.54-1.46,1.12-2.18,1.68-1.34,1-2,1.47c-.91.65-1.82,1.31-2.69,2s-1.75,1.41-2.58,2.18-1.65,1.67-2.45,2.54-1.54,1.7-2.28,2.57c-1.43,1.69-2.78,3.44-4.3,5s-3.19,3.19-4.59,5a30.29,30.29,0,0,0-1.82,2.65c-.56.88-1.12,1.77-1.67,2.66s-1.19,2-1.71,3c-.16.31-.32.62-.49.93l0-.07c-.88-1.17-1.76-2.34-2.66-3.5l.62-.94q.83-1.29,1.62-2.61c.51-.85,1-1.7,1.52-2.56s.87-1.55,1.33-2.32c.25-.4.51-.8.76-1.21.62-1,1.24-2,1.9-3s1.27-1.85,1.94-2.75c1.37-1.87,2.82-3.69,4.32-5.46.75-.9,1.51-1.79,2.25-2.7s1.52-1.86,2.29-2.77,1.5-1.8,2.27-2.68c.43-.49.88-1,1.34-1.44l.15-.15.79-.78a27.28,27.28,0,0,1,5-3.64,36.49,36.49,0,0,1,3.37-1.52,17.94,17.94,0,0,1,1.76-.55c.58-.16,1.16-.3,1.73-.44s.93-.21,1.4-.28l1.5-.2c1-.11,2-.19,3-.26,1.86-.14,3.73-.36,5.59-.34,1.07,0,2.14.15,3.19.29.6.08,1.19.16,1.78.27s1.2.26,1.79.42h.08l.36.65c.3.54.6,1.07.93,1.59l-.79,0c-1,0-1.93-.05-2.9-.05-.48,0-1,0-1.44,0s-1,.08-1.56.14m0,4.45a25.59,25.59,0,0,0,3.51,1.33h-.3c-1,0-2,.14-3,.28s-2.13.29-3.19.52a26.66,26.66,0,0,0-3.27,1c-1,.37-2,.74-3,1.19a31.14,31.14,0,0,0-3.13,1.65,21,21,0,0,0-2.61,1.91c-.86.72-1.66,1.5-2.47,2.27s-1.37,1.26-2,1.91-1.26,1.23-1.9,1.83c-1.26,1.19-2.47,2.41-3.72,3.6l.23-.22c-.87.82-1.72,1.65-2.54,2.51a24.46,24.46,0,0,0-2.06,2.37c-.65.87-1.24,1.78-1.83,2.69a58.1,58.1,0,0,1-3.9,5.19c-1.33,1.63-2.62,3.3-4,4.9-.68.79-1.36,1.59-2,2.4-.27.33-.53.66-.79,1l-1.41-1.85.36-.63c.27-.44.51-.9.75-1.36.47-.88,1-1.75,1.48-2.6l.12-.19a55.29,55.29,0,0,1,3.5-5.31c.33-.42.68-.81,1-1.21s.72-.8,1.1-1.2c.78-.82,1.57-1.64,2.34-2.49,1.5-1.65,2.86-3.43,4.29-5.16.7-.84,1.42-1.66,2.15-2.48s1.44-1.6,2.21-2.36c1-.89,2-1.75,3-2.56.86-.68,1.74-1.33,2.62-2s1.79-1.42,2.68-2.14,1.81-1.45,2.77-2.11a15.35,15.35,0,0,1,1.4-.85l1.43-.8c.63-.32,1.28-.63,1.92-.93s1.34-.61,2-.87,1.47-.51,2.2-.76l1-.35a2.35,2.35,0,0,0,.33.3,7,7,0,0,0,.78.56c.63.38,1.29.71,2,1m19.71,9.71c.29.44.58.88.85,1.34.12.18.22.37.33.56-.71-.13-1.41-.25-2.12-.34-1.09-.15-2.18-.31-3.27-.42a23.66,23.66,0,0,0-3.67,0c-.55,0-1.11.1-1.66.15l-1.86.18c-.58.06-1.16.12-1.74.2s-1.19.2-1.78.33-1.25.3-1.87.46-1.06.27-1.59.42a17.22,17.22,0,0,0-3.4,1.45c-.49.26-1,.52-1.46.83s-1,.69-1.51,1.06l-1.45,1.15c-.42.34-.85.68-1.25,1.05-1,.87-1.85,1.8-2.71,2.76s-1.46,1.7-2.18,2.56-1.48,1.8-2.22,2.71c-1.47,1.84-2.94,3.69-4.45,5.5-.72.86-1.44,1.72-2.2,2.55l-2.33,2.5-2.3,2.44c-.73.76-1.48,1.51-2.24,2.24-1.26,1.18-2.55,2.33-3.84,3.47-.64.57-1.3,1.12-2,1.64-.42.32-.86.62-1.27,1-.35-.52-.71-1-1.06-1.53l-.85-1.2.49-.43,1.06-.93c.82-.75,1.62-1.53,2.38-2.34,1.39-1.49,2.56-3.14,3.84-4.71a60.15,60.15,0,0,1,4.59-5,52.9,52.9,0,0,0,4.59-5c.71-.89,1.35-1.83,2-2.77s1.32-1.87,2-2.8a44.67,44.67,0,0,1,4.13-5.16,33.9,33.9,0,0,1,3.17-2.41,35,35,0,0,1,3.33-2,31.19,31.19,0,0,1,3.61-1.56,35.92,35.92,0,0,1,3.68-1l-.11,0,.12,0,.12,0-.11,0c1.76-.41,3.52-.83,5.3-1.14.93-.17,1.87-.3,2.82-.38a24.12,24.12,0,0,1,2.55-.06,23.85,23.85,0,0,1,3,.28c.93.14,1.85.32,2.76.53.21.2.41.39.61.6s.47.49.69.76l.45.59m3.15,5.23a26.6,26.6,0,0,0,1.64,2.34c-.62-.18-1.25-.33-1.89-.47l-.52-.11c-.51-.1-1-.18-1.56-.26s-1-.16-1.55-.2c-1.14-.09-2.28-.09-3.43-.07s-2.24,0-3.36.12a18.68,18.68,0,0,0-3.06.54c-1.16.27-2.33.54-3.48.86s-2.08.7-3.11,1.08a21.52,21.52,0,0,0-2.86,1.28c-.53.3-1.06.59-1.58.9s-.88.52-1.28.82a13.05,13.05,0,0,0-1.21,1l-1.24,1.13c-.81.75-1.56,1.55-2.33,2.34-.37.38-.74.76-1.09,1.16l-1.08,1.28c-.33.4-.69.79-1,1.18s-.7.86-1,1.29a101.23,101.23,0,0,1-8.42,9.61c-1.14,1.08-2.32,2.1-3.54,3.09-.83.68-1.66,1.37-2.53,2s-1.62,1.23-2.4,1.89l-2.32,2c-.38.32-.77.62-1.17.91l-.5.36c-.32-.51-.65-1-1-1.52q1.2-.81,2.34-1.71c.86-.67,1.68-1.38,2.51-2.09a63.15,63.15,0,0,0,5.18-4.9c1.53-1.65,3.07-3.31,4.57-5,.75-.83,1.46-1.71,2.17-2.57s1.48-1.81,2.2-2.73q2.16-2.81,4.38-5.55a63.1,63.1,0,0,1,4.5-5.17c.92-.85,1.86-1.69,2.85-2.45.55-.42,1.11-.82,1.69-1.19s.92-.54,1.39-.8a19.3,19.3,0,0,1,2.62-1.09c.92-.29,1.85-.55,2.79-.8a20.8,20.8,0,0,1,2.06-.4l2.41-.29,2.32-.24c.69-.06,1.37-.07,2.06-.07s1.28.07,1.92.15l2,.26c1.39.19,2.76.4,4.13.7.27.45.54.91.82,1.36m7.71,8,.19.15a16,16,0,0,0-2.17-.25c-1,0-2,0-3,0h-2.74c-1,0-2.1.1-3.15.16s-2.28.14-3.41.27-2.29.26-3.42.5-2.31.59-3.45.94-2.21.73-3.3,1.14-2,.77-3,1.23-2.06,1-3.06,1.5a29,29,0,0,0-2.93,1.86,28.14,28.14,0,0,0-2.63,2.1c-.86.78-1.71,1.56-2.55,2.35s-1.64,1.66-2.47,2.49-1.49,1.51-2.25,2.25c-.47.44-1,.87-1.4,1.33s-.82.84-1.21,1.28c-1.51,1.68-3,3.4-4.52,5-.77.8-1.53,1.6-2.28,2.41s-1.4,1.48-2.13,2.2c-.44.41-.88.82-1.35,1.19s-1,.81-1.58,1.21l-2.27,1.67c-.64-1-1.29-2-1.95-3l.45-.31a28.39,28.39,0,0,0,2.29-1.95c.77-.67,1.52-1.36,2.32-2s1.65-1.26,2.45-1.92,1.65-1.37,2.46-2.07a53.56,53.56,0,0,0,4.75-4.66c.73-.8,1.43-1.63,2.13-2.45s1.33-1.63,2-2.47,1.3-1.67,1.93-2.52c.32-.42.63-.85,1-1.27l1.13-1.38c.32-.38.62-.78.94-1.17s.73-.85,1.11-1.26c.69-.74,1.38-1.47,2.09-2.17l1-.94.62-.57c.16-.15.32-.3.49-.43a24.9,24.9,0,0,1,2.4-1.52c.54-.29,1.08-.58,1.64-.84s1.09-.46,1.64-.66,1.3-.49,2-.72,1.15-.37,1.73-.53l2.5-.62c.45-.11.9-.23,1.35-.32s1-.15,1.45-.21.92-.07,1.38-.09l1.31-.05,2.56,0c.55,0,1.09,0,1.64.09s1,.12,1.55.2a30.16,30.16,0,0,1,3.12.61,15.46,15.46,0,0,1,1.66.57l1.37.54.17.15c.55.49,1.12.95,1.69,1.42s1.22,1,1.85,1.53m3.44,2.94a17.83,17.83,0,0,1,1.75,2c.36.51.72,1,1.06,1.54l-.68-.16a34.53,34.53,0,0,0-3.51-.52c-.93-.09-1.87-.21-2.8-.25s-1.89,0-2.83,0h-2.22a41.1,41.1,0,0,0-4.44.18c-1.46.15-2.92.35-4.36.61a27.85,27.85,0,0,0-3.48.92c-1.1.34-2.17.73-3.23,1.17s-2.05.92-3.06,1.39-2,1-3,1.56-1.66.91-2.45,1.44l-1.22.84c-.34.24-.68.47-1,.72-.73.57-1.39,1.2-2.08,1.82-.32.29-.65.57-1,.86s-.71.66-1.06,1c-.69.66-1.4,1.31-2.1,2s-1.62,1.41-2.38,2.15-1.55,1.55-2.27,2.38-1.56,1.72-2.34,2.57-1.47,1.69-2.22,2.52-1.39,1.5-2.11,2.22-1.28,1.14-1.93,1.68-1.33,1.11-2,1.64a42.23,42.23,0,0,1-3.69,2.53c-.54-.81-1.07-1.62-1.59-2.44l.75-.54c.46-.33.92-.66,1.37-1a33.58,33.58,0,0,0,2.79-2.26c1.63-1.53,3.07-3.24,4.59-4.87s3-3.35,4.42-5.07c.7-.84,1.4-1.67,2.17-2.44s1.56-1.56,2.31-2.38,1.5-1.65,2.26-2.47,1.54-1.56,2.33-2.32a30.52,30.52,0,0,1,2.78-2.44,35.46,35.46,0,0,1,3.18-2.15c.81-.45,1.63-.86,2.47-1.26s1.9-.85,2.87-1.23,2-.77,3-1.09,2-.63,3-.91c.82-.21,1.64-.38,2.47-.51,1.14-.16,2.29-.29,3.44-.4s2.24-.13,3.35-.2,2.2-.1,3.3-.1l3.24,0c.48,0,1,0,1.43.1l1.56.22c.45.06.9.13,1.34.22s.76.17,1.14.27l.65.62m4.1,5.73a36.32,36.32,0,0,1,1.78,4c.15.38.29.76.42,1.15-.45-.15-.9-.27-1.36-.39s-.8-.21-1.2-.29-1-.19-1.47-.26a46.52,46.52,0,0,0-5.78-.41c-1.19,0-2.37,0-3.56.07s-2.22.12-3.33.23-2.19.25-3.28.45-2.3.44-3.44.68-2.33.5-3.48.81-2.11.64-3.15,1-2.09.75-3.11,1.19-2,1-3,1.47a34.45,34.45,0,0,0-5.64,3.42c-.89.68-1.74,1.4-2.57,2.16s-1.64,1.58-2.42,2.42-1.52,1.63-2.22,2.51-1.29,1.67-1.9,2.53c-.33.46-.65.92-1,1.39a15.8,15.8,0,0,1-1,1.33c-.67.79-1.35,1.57-2.08,2.3s-1.44,1.27-2.16,1.89-1.4,1.19-2.12,1.76-1.47,1.1-2.19,1.66c-.5.38-1,.77-1.53,1.12-.83-1.06-1.65-2.12-2.46-3.19.23-.14.46-.28.7-.41.5-.28,1-.55,1.5-.87s.94-.63,1.39-1c.84-.63,1.65-1.3,2.45-2a34.84,34.84,0,0,0,2.62-2.39c1.55-1.58,3-3.27,4.44-4.93.75-.85,1.5-1.71,2.22-2.59s1.41-1.65,2.17-2.43c.38-.4.78-.79,1.17-1.18s.73-.76,1.1-1.15.74-.75,1.1-1.13.76-.81,1.15-1.2l2-1.92c.49-.44,1-.85,1.53-1.24s1.09-.82,1.66-1.2c1.06-.7,2.18-1.32,3.29-2,.74-.4,1.48-.78,2.25-1.13s1.64-.78,2.47-1.13a37.68,37.68,0,0,1,5.07-1.69c.52-.12,1-.23,1.56-.31l1.68-.26c1.08-.15,2.16-.29,3.24-.36s2-.1,3.08-.1a.81.81,0,0,0,.22,0c1.07,0,2.14,0,3.2,0,.74,0,1.49,0,2.23.08l2.37.22a28.42,28.42,0,0,1,4.3.74l.65.22a1.28,1.28,0,0,0,.27,0l.12.21m3.63,9.11c.13.35.27.7.41,1.05-.94-.2-1.89-.36-2.84-.5-.54-.08-1.07-.15-1.61-.18l-1.66-.08c-1.12,0-2.24-.13-3.35-.13s-2.18.15-3.28.17c-.71,0-1.43,0-2.14,0s-1.35.13-2,.24-1.39.23-2.08.32-1.39.16-2.09.21a13.08,13.08,0,0,0-1.65.22c-.54.11-1.07.23-1.6.36l-1.84.47c-.55.14-1.09.33-1.63.5-1,.35-2.08.8-3.11,1.21l-1.64.67c-.52.23-1,.49-1.53.75-1,.53-2,1.11-3,1.71s-1.88,1.16-2.79,1.78-1.86,1.29-2.75,2a25.38,25.38,0,0,0-2.61,2.36c-.78.8-1.54,1.6-2.33,2.39-.41.41-.83.82-1.22,1.25s-.7.81-1,1.23c-.69.85-1.42,1.66-2.14,2.48s-1.39,1.54-2.12,2.27q-2.19,2-4.47,4c-.39.34-.79.66-1.18,1s-.73.63-1.12.93l-.76.56c-.54-.71-1.08-1.41-1.63-2.11l.34-.22c.84-.56,1.62-1.21,2.41-1.84s1.72-1.47,2.53-2.26,1.52-1.51,2.27-2.28c.38-.4.76-.8,1.12-1.22s.69-.84,1-1.26c.7-.86,1.3-1.8,1.92-2.72s1.22-1.73,1.86-2.57,1.4-1.75,2.16-2.58,1.47-1.58,2.24-2.34a42.13,42.13,0,0,1,3.31-2.82,30.58,30.58,0,0,1,3.58-2.29c.86-.46,1.74-.9,2.61-1.34a24.26,24.26,0,0,1,2.59-1.19c1.79-.68,3.58-1.33,5.43-1.84.86-.21,1.73-.4,2.61-.59a64.67,64.67,0,0,1,6.49-1.11c2.29-.23,4.58-.31,6.87-.32.7,0,1.4,0,2.1.06s1.52.12,2.28.2,1.59.18,2.38.32,1.3.29,1.94.46l1.15.35.86.32c.23.67.48,1.33.72,2m2.52,6.28c.08.36.14.72.2,1.09v.28l-.23-.13a6.35,6.35,0,0,0-.63-.33c-.41-.18-.82-.33-1.24-.48a16.62,16.62,0,0,0-1.84-.49l-.74-.15a23.63,23.63,0,0,0-2.5-.29c-.83-.08-1.66-.15-2.5-.16h-.08c-.74,0-1.48,0-2.22,0s-1.47.1-2.2.18c-1.09.13-2.18.26-3.25.46s-2.23.44-3.34.69c-2.18.49-4.31,1.22-6.44,1.89a42,42,0,0,0-6,2.65c-1,.51-2,1-3,1.61s-1.93,1.14-2.83,1.8a27.71,27.71,0,0,0-2.52,2.07c-.87.8-1.75,1.6-2.59,2.44s-1.4,1.51-2.1,2.27-1.39,1.5-2.12,2.22l-1.52,1.4c-.53.49-1.06,1-1.6,1.47-1.56,1.39-3.18,2.73-4.85,4-.43.32-.86.65-1.3.95l-1.3.86-1.27.86-.27.2-1-1.29-.93-1.22.59-.39c.43-.3.85-.63,1.26-.95.78-.63,1.57-1.25,2.32-1.9s1.55-1.37,2.3-2.09c.48-.45.95-.9,1.41-1.37s.74-.8,1.09-1.21c.7-.81,1.35-1.66,2-2.5s1.25-1.74,1.92-2.57c.37-.46.77-.89,1.17-1.33l1.14-1.26c.7-.78,1.41-1.54,2.15-2.27s1.39-1.22,2.13-1.77,1.52-1.11,2.3-1.64c1.53-1.05,3.12-2,4.73-2.93.64-.34,1.27-.66,1.93-1s1.3-.54,1.95-.81,1.33-.55,2-.79,1.37-.46,2.06-.67c1-.25,1.94-.49,2.92-.69a31.73,31.73,0,0,1,3.22-.37c1.06-.12,2.1-.32,3.15-.48.55-.08,1.1-.13,1.65-.18s.86,0,1.29,0h1.27c.3,0,.6,0,.91-.06.63-.06,1.26-.11,1.89-.11,1.67.06,3.34.1,5,.2a22.67,22.67,0,0,1,2.46.32c.87.14,1.73.32,2.59.52h0c.33.73.67,1.46,1,2.2.13.4.26.8.36,1.21m1.69,11.53c.4.24.8.49,1.19.75-.54-.2-1.09-.38-1.63-.56s-.82-.26-1.23-.37l-1.29-.31-1.56-.35a19.33,19.33,0,0,0-4.48-.54,28.8,28.8,0,0,0-3.08.22c-1,.14-2.09.35-3.13.59s-2,.48-3,.77-1.91.53-2.85.85-2,.67-3,1-1.91.74-2.85,1.13c-1.86.76-3.72,1.55-5.52,2.45-1,.5-2,1.07-3,1.64s-1.66,1-2.46,1.58-1.69,1.22-2.52,1.87l-2.45,1.92-2.47,2c-.8.64-1.61,1.26-2.41,1.91-1.6,1.28-3.28,2.44-4.95,3.64-.78.56-1.58,1.1-2.4,1.59-.52.31-1.06.57-1.58.88l-1.34-1.74-.55-.7c.33-.16.65-.34,1-.53.6-.37,1.2-.75,1.81-1.1l1.63-.88c.54-.29,1.06-.62,1.57-1a51.68,51.68,0,0,0,4.61-3.45c.76-.63,1.54-1.25,2.28-1.91s1.48-1.35,2.22-2l2.14-2c.7-.64,1.39-1.31,2.1-1.94a27.4,27.4,0,0,1,4.64-3.21c.55-.29,1.11-.58,1.69-.85l1.69-.77a26.47,26.47,0,0,1,2.7-1.12c.91-.31,1.83-.58,2.74-.88s1.91-.64,2.88-.93l2.56-.7c1.44-.34,2.9-.62,4.36-.87.72-.12,1.44-.2,2.16-.28s1.36-.14,2-.15c.34,0,.67,0,1,.08a8.17,8.17,0,0,1,1,.22c.89.27,1.75.64,2.63.93l1.47.48c1,.41,2,.8,3,1.23s1.81.86,2.68,1.35m7.17,8.38c.24.71.46,1.42.67,2.14-.41-.34-.84-.67-1.28-1a17.9,17.9,0,0,0-2.79-1.52,27.59,27.59,0,0,0-2.79-1.06l-3.16-1,.21.07a49.71,49.71,0,0,0-4.9-1.41l-.31-.06a20.1,20.1,0,0,0-2.57-.35c-.91-.07-1.83-.06-2.75,0s-2,.12-3,.24a27,27,0,0,0-3.23.6l-1.51.4c-.51.15-1,.33-1.5.52l-2.74,1.06c-.94.38-1.87.78-2.78,1.23s-1.9,1-2.84,1.54-1.71,1-2.56,1.59-1.77,1.08-2.63,1.66-1.69,1.12-2.51,1.73-1.64,1.23-2.48,1.83-1.73,1.24-2.61,1.85-1.6,1.1-2.41,1.64-1.79,1.09-2.68,1.65-1.62,1.06-2.41,1.62-1.49,1.09-2.27,1.59c-.36.23-.73.45-1.1.66l-.41.21a.54.54,0,0,0-.15-.15l0,0-.93-1.22.12-.06c.52-.26,1-.52,1.55-.81.89-.52,1.74-1.1,2.58-1.69s1.68-1.17,2.52-1.77,1.63-1.21,2.43-1.84c1.64-1.29,3.28-2.6,4.91-3.9l2.34-1.86c.83-.66,1.67-1.31,2.55-1.9a49.64,49.64,0,0,1,5-3.05c2.14-1.05,4.32-2,6.51-2.94,1-.4,1.93-.77,2.9-1.14s2-.71,2.94-1,1.89-.6,2.84-.85,1.9-.5,2.86-.72,1.87-.33,2.82-.42a19.65,19.65,0,0,1,2.66-.06,31.4,31.4,0,0,1,3.6.59l1.79.4c.55.13,1.08.3,1.62.46a24.09,24.09,0,0,1,4.69,2c.42.28.82.59,1.22.9.35.53.69,1.07,1,1.62a20.18,20.18,0,0,1,1,2m3.39,14.78c.14.7.29,1.4.49,2.08-.5-.2-1-.39-1.53-.54-1-.28-2-.51-3-.74s-2.1-.53-3.15-.76l-.1,0c-.93-.2-1.87-.37-2.81-.51s-2.1-.34-3.17-.43a37.89,37.89,0,0,0-6.39-.09c-1,.09-2,.23-3.06.41l-1.64.31c-.51.11-1,.25-1.51.39-1,.28-2,.55-2.94.88s-1.91.76-2.85,1.17-1.89.85-2.82,1.3c-.5.24-1,.5-1.48.77s-.85.46-1.27.71c-.89.54-1.78,1.07-2.64,1.66s-1.66,1.1-2.49,1.65a54.18,54.18,0,0,1-4.91,3c-.73.35-1.47.69-2.21,1s-1.5.67-2.26,1l-2.16.77-1.11.36-.25.09-2.52-3.1a24.06,24.06,0,0,0,5.74-1.79c2.06-.89,4.06-1.9,6-3,1-.53,1.92-1,2.85-1.63s1.82-1.12,2.71-1.72,1.78-1.19,2.71-1.73,1.75-1,2.65-1.48c.4-.2.8-.4,1.21-.58,1-.48,2-1,3.06-1.41s2-.82,2.94-1.23l1.55-.65c.53-.22,1.07-.41,1.63-.59s.94-.24,1.41-.35,1.09-.25,1.64-.36a28.6,28.6,0,0,1,6.25-.65c1.08.07,2.16.19,3.23.33.56.08,1.14.16,1.7.28s1,.25,1.52.41c1.4.45,2.81.9,4.21,1.37s2.88,1.07,4.3,1.64c.14.61.28,1.21.4,1.82m1.13,4.06c.23.75.46,1.5.62,2.26,0,.13,0,.26.08.39l-.16-.06c-.46-.16-.93-.28-1.4-.4l-2.53-.65c-1-.24-1.9-.54-2.87-.76l-.73-.16c-.77-.17-1.54-.31-2.31-.45a27.39,27.39,0,0,0-3.12-.38c-1.13-.07-2.27-.09-3.4-.08a22.27,22.27,0,0,0-3,.16c-.51.07-1,.16-1.54.25s-1.12.21-1.68.35c-1,.25-1.92.5-2.87.8s-2,.67-2.92,1-2,.74-3,1.15-1.9.8-2.84,1.22-2.06.89-3,1.4-1.84,1-2.77,1.44l.28-.14-.37.19c-1,.5-2,1-3,1.56s-1.8,1-2.71,1.56l-1.34.74c-.44.24-.9.46-1.34.69-.88.46-1.75.94-2.63,1.39-.5.25-1,.5-1.51.73l-.66.32-2-2.31a31.28,31.28,0,0,0,4.5-1.7c1-.46,1.94-.93,2.89-1.45a27.43,27.43,0,0,0,2.42-1.53c.85-.57,1.68-1.16,2.52-1.75l2.44-1.69c.83-.58,1.69-1.11,2.55-1.64s1.67-1,2.53-1.4,1.6-.76,2.41-1.13,1.74-.77,2.63-1.13a27.11,27.11,0,0,1,2.64-.86c.85-.24,1.71-.49,2.57-.69.67-.13,1.33-.26,2-.37s1.56-.22,2.35-.29a34.3,34.3,0,0,1,4.42,0c.46,0,.92.06,1.38.11a56.74,56.74,0,0,1,6.22,1c1,.21,2,.48,3,.71s2,.46,3,.74l1,.36c.37.14.74.31,1.1.47a.66.66,0,0,0,.3.07m-.59,62.6a14.25,14.25,0,0,1-2.19,2.06,4.4,4.4,0,0,1-.45.3,4.57,4.57,0,0,0-.47.29l0,0-.1,0-.08,0-.23-.24c-1.1-1.35-2.27-2.62-3.49-3.86l-.12-.12.54.06c.79.08,1.59.13,2.38.2a14.22,14.22,0,0,1,2.67.39,7.85,7.85,0,0,1,1.42.71.91.91,0,0,1,.16.11m-6.17,4.62a5.79,5.79,0,0,1-2,1.12l-.1-.15a8,8,0,0,1-.52-1.21,22.17,22.17,0,0,1-.71-5c0-.1,0-.2,0-.3l.23.24.88.88q1.61,1.8,3.23,3.58l-.08,0c-.34.24-.64.52-1,.78m-4,1.44a14.59,14.59,0,0,1-2.19-.29l-.47-.08a21.31,21.31,0,0,1-1.07-2.63,18,18,0,0,1-.41-2.17,16.58,16.58,0,0,1-.1-2c0-1.1.22-2.17.34-3.26,0-.38.07-.76.1-1.15l.38.38,1.84,1.86v.15a23.39,23.39,0,0,1,.17,2.37c0,.38,0,.77.08,1.15s.11.73.18,1.09c.14.77.32,1.54.51,2.3a13.56,13.56,0,0,0,.4,1.42,5.9,5.9,0,0,0,.37.85h-.13m-4.7-.74c-.7-.11-1.4-.23-2.09-.38l-1.33-.27s0,0,0-.06c-.11-.36-.21-.73-.31-1.09-.16-.7-.3-1.39-.4-2.09a16,16,0,0,1-.15-2c0-1,.08-2.1.18-3.15s.24-2,.4-3a21.8,21.8,0,0,0,.32-3v-.1l.17.16,1.74,1.71a1.4,1.4,0,0,0,0,.29c0,.07,0,.14,0,.21,0,.36,0,.72,0,1.08,0,1.13,0,2.26,0,3.38,0,.5,0,1,0,1.51s.08,1.07.13,1.61a21.22,21.22,0,0,0,.6,3.24,13.93,13.93,0,0,0,.68,1.87m-7-1.29-1-.18a26.69,26.69,0,0,1-.55-3.78c-.06-1.2-.12-2.41-.15-3.61,0-.59,0-1.17,0-1.76,0-1.08.09-2.15.2-3.22s.29-2.12.31-3.19c0-.63,0-1.26,0-1.89,0-.22,0-.45,0-.67l.2.19,1.92,1.84h0c.1.55.23,1.1.3,1.66a14.75,14.75,0,0,1,.14,1.62c0,.29,0,.58,0,.86-.06,1.06-.19,2.11-.28,3.16s-.15,2.13-.18,3.2a19.22,19.22,0,0,0,.18,3.39c.08.56.18,1.11.3,1.66.07.33.16.66.25,1l-.43-.08-1.21-.2m-7.38-.59-1.3,0c-.54-1.23-1.07-2.46-1.51-3.72-.19-.74-.34-1.49-.47-2.25-.19-1.07-.34-2.16-.52-3.23s-.34-2.15-.44-3.23-.2-2.31-.24-3.47-.06-2.2-.12-3.29-.17-2.18-.24-3.27c0-.53-.06-1.06-.1-1.59s-.08-1.1-.11-1.65-.07-1-.14-1.57-.1-.85-.14-1.28l.25.22c.5.49,1,1,1.53,1.46a.64.64,0,0,0,.06.18q.21.66.39,1.32c.19.72.34,1.44.48,2.16s.23,1.53.32,2.29a42.42,42.42,0,0,1,.35,4.64c0,1.24-.07,2.48,0,3.72a64,64,0,0,0,.64,6.64c.09.58.19,1.15.31,1.73s.3,1.15.47,1.72a25.24,25.24,0,0,0,1,2.5h-.42m-7.13-.06a18.49,18.49,0,0,1-2.23-.21.94.94,0,0,0,0-.09c-.3-.53-.61-1.06-.88-1.6a15.05,15.05,0,0,1-.62-1.43c-.37-1-.71-2-1-3-.66-2-1.26-4-1.82-6a21.5,21.5,0,0,1-.67-3.9c0-.59-.07-1.18-.11-1.77s-.09-1.13-.13-1.7c-.07-1.12-.07-2.25-.12-3.37s-.07-2.3-.11-3.44-.07-2.18-.08-3.27c0-.94,0-1.87,0-2.8s0-2,.06-3.06l.06-2,.42.45c.64.69,1.27,1.38,1.92,2,.1.11.21.22.32.32a26.43,26.43,0,0,1,.47,4.43v0c0,.77,0,1.54,0,2.31s0,1.57,0,2.36c0,1-.06,2.09,0,3.14,0,.55,0,1.1.07,1.64s0,.93,0,1.4c.05,1.15.14,2.3.23,3.45s.21,2.23.41,3.33c.41,2.28.92,4.55,1.53,6.78.17.6.33,1.19.52,1.78s.41,1.09.65,1.62a18,18,0,0,0,.91,1.67c.17.27.34.54.52.81h-.28m-4.87-.82c-.65-.2-1.3-.43-1.94-.68a1.15,1.15,0,0,0-.17-.44c-.18-.29-.36-.58-.53-.88-.5-.93-1-1.87-1.39-2.84s-.77-2-1.13-3-.74-1.92-1.12-2.88c-.21-.54-.41-1.09-.61-1.63s-.28-.88-.4-1.32-.24-.92-.33-1.38-.22-1.13-.32-1.69c-.2-1.08-.41-2.16-.57-3.25-.07-.51-.13-1-.18-1.55s-.12-1.06-.17-1.6c-.08-1-.12-2-.13-3,0-2.08,0-4.17.19-6.26.15-2.25.37-4.51.67-6.75.07-.56.16-1.12.23-1.69s.09-1,.12-1.45c.73.73,1.45,1.46,2.16,2.21l.12.12c0,.45.11.89.15,1.34s0,.81,0,1.21c0,1,0,1.92,0,2.87s0,2.1.05,3.15,0,2,.08,3,.12,2,.19,3,.14,2.25.23,3.38.11,2.23.21,3.35c.05.58.12,1.15.17,1.73s.09,1.21.14,1.81.13,1.09.21,1.63.18,1.06.32,1.58c.29,1.15.63,2.29,1,3.42s.67,2.16,1,3.24.72,2.1,1.1,3.14c.21.55.42,1.09.68,1.61l.3.58-.35-.1m-4.51-1.79-.84-.38-1.82-.82a1.09,1.09,0,0,0-.15-.33c-.29-.37-.56-.74-.83-1.12-.16-.23-.3-.48-.45-.72a16.09,16.09,0,0,1-.75-1.57c-.22-.56-.43-1.11-.64-1.67-.38-1-.73-2-1-3,0-.05,0-.11,0-.16s-.08-.28-.11-.42l0-.12,0-.07,0,0c-.2-.79-.39-1.58-.56-2.38-.5-2.27-.75-4.6-1-6.91-.15-1.22-.28-2.44-.34-3.67s-.08-2.2-.1-3.3,0-1.91,0-2.87,0-2,0-3c0-1.45.08-2.9.11-4.35,0-1.16.06-2.32.13-3.49s.17-2.19.24-3.29c0-.73.06-1.46.07-2.2l.85,1c.45.53.9,1.07,1.37,1.6,0,.13,0,.26,0,.38,0,.27,0,.53.06.8,0,.77-.06,1.53-.11,2.3-.09,1.16-.22,2.33-.3,3.5s-.12,2.23-.16,3.35-.09,2.31-.08,3.47,0,2.52,0,3.78,0,2.39.15,3.59.24,2.28.4,3.41.39,2.38.62,3.56.42,2.29.71,3.42c.16.63.34,1.24.54,1.86s.41,1.12.62,1.67c.43,1.08.87,2.16,1.27,3.26s.85,2.22,1.35,3.3c.26.55.54,1.1.82,1.63m-8.3-9.36,0,.08h0l0-.09m2.22,6.29c-.6-.37-1.2-.74-1.8-1.13a8.47,8.47,0,0,1-.79-.54s0,0,0-.08c-.94-1.4-2-2.76-2.81-4.22-.38-.67-.74-1.34-1.06-2.05a18.07,18.07,0,0,1-.85-2.26c-.21-.79-.39-1.59-.56-2.39s-.4-1.84-.56-2.77-.29-1.69-.37-2.54-.16-1.78-.17-2.67c0-1.21,0-2.41,0-3.62s0-2.25,0-3.38c0-1.62.06-3.24.19-4.85.06-.76.13-1.52.25-2.28s.27-1.61.42-2.42c.22-1.14.51-2.27.79-3.4s.49-2.22.72-3.32.45-2.35.65-3.53l0-.19c.39.46.78.9,1.18,1.34a7.41,7.41,0,0,1,.19,1.49v.13c0,.53,0,1.07,0,1.6s0,1.06-.06,1.6c-.07,1.11-.16,2.21-.2,3.32-.09,2.42,0,4.84,0,7.26,0,1.13.11,2.27.15,3.41s0,2.32.08,3.49.13,2.35.19,3.52.18,2.29.33,3.43c.33,2.37.61,4.75,1.09,7.1.13.58.26,1.17.4,1.76.07.3.15.6.22.91l.09.34c0,.09,0,.18.07.25s.09.33.14.49a2.1,2.1,0,0,0,.06.24c.08.25.16.51.23.76.26.83.58,1.65.88,2.46a25.11,25.11,0,0,0,1.09,2.63,2.12,2.12,0,0,1,.11.21l-.18-.1m-14.57-3c-.4,0-.78-.1-1.17-.17a1,1,0,0,0-.05-.3l-.3-1c-.38-1.44-.7-2.9-.94-4.38-.18-1.05-.32-2.09-.48-3.14s-.35-2.19-.54-3.28-.33-2.16-.41-3.24-.09-2.08-.1-3.12c0-.52,0-1.05,0-1.57,0-1.1.09-2.2.16-3.3s.17-2.19.32-3.28.23-2.16.43-3.23.41-2.19.65-3.28c.11-.49.25-1,.33-1.46,0-.3.1-.59.13-.88l.09-.89c.06-.55.09-1.09.14-1.63s.11-1.12.19-1.68c.15-1,.32-2.1.54-3.14s.47-2,.74-3,.59-2.17.85-3.26.43-2,.63-3c.08-.46.17-.92.23-1.38.31.43.63.85,1,1.27v.15c0,1-.12,2-.22,3,0,.52-.12,1-.22,1.53s-.21,1.05-.33,1.58c-.21,1-.41,2.09-.63,3.13s-.44,2.13-.67,3.2-.45,2.14-.64,3.22-.4,2.2-.56,3.31-.27,2.13-.36,3.2,0,2.24,0,3.36v-.24c0,1,0,1.94,0,2.91s.08,1.77.15,2.64a58.89,58.89,0,0,0,.76,6.49c.1.52.21,1,.28,1.57s.13,1.05.19,1.58c.11,1.1.2,2.2.23,3.31,0,1.4,0,2.81-.05,4.21,0,.81,0,1.61-.09,2.42a16.1,16.1,0,0,1-.21,1.82m-3-.63c-.63-.19-1.26-.4-1.88-.65a.88.88,0,0,0-.16-.41l-.7-1.19a14.87,14.87,0,0,1-.68-1.39,13,13,0,0,1-.47-1.37,28.24,28.24,0,0,1-.58-3.18c-.15-1.1-.25-2.22-.35-3.33-.2-2.13-.33-4.28-.35-6.42.05-2,.24-3.93.44-5.89.12-1.1.2-2.2.32-3.29s.26-2.26.47-3.37.39-2.14.64-3.19.46-2.06.72-3.08.55-1.89.8-2.84.39-1.72.58-2.58.39-1.86.58-2.79.42-1.86.66-2.79.54-2,.77-3.05c.13-.56.24-1.12.34-1.69s.2-1.06.28-1.59c.14-.92.24-1.85.32-2.77l.42.49c0,.05,0,.1,0,.15,0,.33,0,.65,0,1a26.21,26.21,0,0,1-.44,3.64c-.18,1.06-.36,2.11-.57,3.16s-.47,2.16-.71,3.24-.46,2.21-.62,3.33-.32,2.08-.43,3.13-.16,2.3-.27,3.45-.39,2.09-.59,3.14-.42,2.21-.58,3.32c-.08.54-.12,1.09-.18,1.63l-.18,1.51c-.12,1.11-.19,2.23-.26,3.34s-.13,2.22-.15,3.34,0,2.29,0,3.43c0,.54,0,1.08.1,1.61s.13,1.1.2,1.65c.15,1.09.38,2.18.56,3.27s.35,2.11.54,3.16.38,2.11.62,3.16.45,1.83.71,2.73m-4.42-1.88c-.84-.46-1.68-.94-2.51-1.42a.77.77,0,0,0-.16-.48c-.33-.43-.62-.87-.9-1.32a7.35,7.35,0,0,1-.49-1c-.13-.34-.23-.68-.33-1-.19-.85-.36-1.69-.47-2.55s-.19-1.78-.26-2.68c-.13-1.67-.2-3.35-.21-5a44.58,44.58,0,0,1,.32-4.76c.21-1.59.42-3.18.75-4.75.25-1.14.52-2.28.8-3.42l.75-3.19c.27-1.12.54-2.23.78-3.36s.43-2.17.67-3.25.52-2.2.77-3.3.49-2.2.71-3.31.45-2.17.63-3.25.41-2.25.57-3.38.33-2.24.43-3.36.14-2.24.17-3.35c0-.62,0-1.23,0-1.85l.84,1.12q.49.65,1,1.26c0,.3-.07.59-.1.89-.07.64-.12,1.29-.19,1.93s-.15,1.27-.24,1.9-.24,1.36-.36,2c-.4,2.17-1,4.28-1.53,6.42-.24,1.07-.41,2.16-.61,3.23s-.37,2.13-.6,3.18c-.12.54-.24,1.09-.38,1.62s-.27,1.08-.38,1.62c-.21,1.08-.42,2.15-.61,3.23s-.34,2.17-.47,3.27-.21,2.2-.29,3.3-.16,2.29-.25,3.43-.18,2.22-.25,3.33a34,34,0,0,0,0,3.64c0,1.11.11,2.22.19,3.33.17,2.22.4,4.45.76,6.66a17.93,17.93,0,0,0,.9,3.38,11.4,11.4,0,0,0,.57,1.23m-5.45-3.24c-.49-.36-1-.73-1.45-1.12l-.56-.47a.8.8,0,0,0-.16-.38c-.28-.37-.54-.75-.79-1.15a7.56,7.56,0,0,1-.47-.89c-.16-.38-.29-.76-.42-1.15a19.17,19.17,0,0,1-.44-2.38c-.11-.83-.14-1.67-.19-2.51-.1-1.66-.16-3.33-.18-5,0-.87.06-1.74.11-2.62a28.55,28.55,0,0,1,.36-3.32c.21-1.13.43-2.26.68-3.39s.47-2.19.7-3.28.54-2.26.84-3.39c.22-.8.44-1.61.67-2.41s.47-1.71.66-2.58c.36-1.72.7-3.43,1-5.16.2-1.1.42-2.2.63-3.3s.45-2.25.66-3.38c.42-2.26.69-4.54,1-6.81.16-1.1.34-2.2.43-3.31s.19-2.15.24-3.22c0-.46,0-.93,0-1.39l1.36,2c.05.25.07.5.1.76s.06.59.1.89c.06.56.07,1.11.08,1.67,0,1.74-.13,3.47-.29,5.2-.21,2.26-.64,4.48-1,6.71-.16,1.09-.37,2.18-.56,3.27s-.41,2.13-.62,3.2-.49,2.22-.71,3.34-.4,2.24-.61,3.36c-.41,2.22-.85,4.44-1.27,6.66-.2,1.07-.41,2.14-.58,3.22s-.33,2.32-.47,3.49-.25,2.26-.33,3.39-.12,2.39-.11,3.59c0,2.3.16,4.61.4,6.9a21.41,21.41,0,0,0,.61,3.49,10,10,0,0,0,.39,1.21,2.92,2.92,0,0,0,.14.31m-6.23-5.36c-.44-.38-.89-.76-1.36-1.12-.12-.41-.25-.82-.37-1.24a18.17,18.17,0,0,1-.43-2.41,23.51,23.51,0,0,1-.12-2.37c0-1.77.13-3.55.24-5.32.07-1.1.14-2.22.27-3.32s.27-2.25.43-3.37.34-2.22.49-3.34.35-2.33.54-3.49.35-2.24.57-3.35.45-2.33.68-3.5c.45-2.24.85-4.5,1.24-6.75.21-1.17.41-2.35.57-3.53s.23-2.19.34-3.28.22-2.3.34-3.44.19-2.26.3-3.39c0-.53.1-1.07.18-1.6s.18-1.11.25-1.66c.14-1.11.23-2.22.41-3.32.09-.51.18-1,.26-1.53s.15-1.17.24-1.75l0-.17c.12.16.24.33.37.49.33.46.66.91,1,1.36l.12.69c.08.36.15.73.23,1.1s.15.87.21,1.31a10.9,10.9,0,0,1,.07,1.14c0,1.21-.19,2.41-.31,3.61-.07.68-.13,1.36-.23,2s-.2,1.26-.29,1.9c-.34,2.26-.6,4.55-1,6.8-.19,1.13-.42,2.24-.61,3.37s-.38,2.22-.55,3.34-.36,2.34-.55,3.51-.37,2.15-.61,3.22c-.53,2.31-1.09,4.61-1.51,6.94-.2,1.12-.39,2.24-.61,3.36s-.4,2.2-.56,3.3c-.09.56-.16,1.13-.2,1.7s-.07,1.14-.1,1.71c-.06,1.2-.1,2.4-.07,3.6s.07,2.33.13,3.49.11,2.18.23,3.26a16.5,16.5,0,0,0,.52,2.7c-.25-.23-.51-.46-.78-.68m-11-8.13-1-.9c-.16-.44-.31-.87-.44-1.32a25.3,25.3,0,0,1-.64-3.56c-.08-.67-.14-1.35-.16-2s0-1.19,0-1.79v-.07c0-.92,0-1.84.07-2.76s.14-2,.24-3,.21-2.11.41-3.16.35-2.13.56-3.19c.1-.51.21-1,.31-1.54s.18-1,.27-1.49c.2-1.07.43-2.13.71-3.19.13-.48.26-.95.4-1.43.29-1,.62-2,.92-3.06s.63-2.08,1-3.12.67-2.13,1-3.19.62-2,.92-3c.63-2.19,1.28-4.37,1.78-6.58s.9-4.22,1.29-6.34c.21-1.09.4-2.19.58-3.28s.32-2.22.44-3.34.16-2.17.24-3.25a.76.76,0,0,0,0-.15c.21.28.42.55.64.82v.09c0,.21.07.43.1.64s0,.37.07.56c.06.41.1.82.13,1.24,0,.83.09,1.66.11,2.49,0,1.14-.09,2.27-.19,3.4s-.3,2.3-.45,3.45c-.25,1.93-.53,3.87-.91,5.78-.19.94-.4,1.87-.6,2.8l-.6,2.85c-.21,1-.37,2-.59,2.94s-.41,1.89-.62,2.83-.39,1.93-.6,2.89-.45,1.92-.68,2.87c-.46,2-.95,3.92-1.34,5.9-.2,1-.39,2-.56,3s-.34,1.91-.49,2.86-.3,2-.39,3.07-.17,1.88-.2,2.82,0,2-.07,3,0,1.92,0,2.88,0,1.82,0,2.73c0,.45,0,.91.07,1.37s0,.88.1,1.32.15.86.26,1.28a8.6,8.6,0,0,0,.29.9c-.81-.65-1.61-1.33-2.38-2m-3.39-3.18c-.21-.21-.43-.42-.64-.64-.57-.6-1.12-1.21-1.63-1.85s-.88-1.12-1.32-1.68l-.12-.37a18.12,18.12,0,0,1-.43-3.19c-.06-.9-.1-1.8-.11-2.7v-.13c0-1.1,0-2.19.08-3.29s.09-2.13.18-3.19c.19-2.23.49-4.45.8-6.67s.59-4.35,1-6.5c.22-1.08.48-2.14.74-3.2s.51-2.07.78-3.11c.65-2.29,1.38-4.57,2.07-6.85.3-1,.6-2,.93-3s.62-2.08.93-3.12c.6-2.09,1.28-4.17,2-6.24.34-1,.72-2,1.16-3s.85-2,1.29-2.93.78-1.71,1.19-2.55c.17-.35.35-.69.51-1l.59.79v.11c0,.3,0,.61,0,.91,0,1.33-.15,2.66-.27,4,0,.64-.13,1.29-.21,1.93s-.18,1.4-.3,2.09c-.38,2.15-.77,4.3-1.23,6.43-.23,1-.44,2.09-.67,3.12s-.5,2-.77,3.07c-.57,2.07-1.15,4.13-1.79,6.18s-1.28,4.22-1.85,6.34c0,0,0-.06,0-.09a77,77,0,0,0-2,8c-.09.54-.16,1.07-.25,1.61s-.19,1-.27,1.57c-.17,1-.29,2.09-.45,3.14-.09.55-.17,1.1-.24,1.66s-.09,1-.12,1.5c-.09,1.12-.16,2.25-.21,3.38s-.06,2.18,0,3.27,0,2.18.13,3.27.24,2,.44,3" fill="#c5a45a"/><path d="M1532.57,65.81h0" fill="#c5a45a"/><path d="M1542.41,87l-.09,0-.06,0,.15-.07" fill="#c5a45a"/><path d="M1555.12,96h0" fill="#c5a45a"/><path d="M1579.16,115.9h0" fill="#c5a45a"/><path d="M1578.86,115.9h0" fill="#c5a45a"/><polyline points="1588.34 133.78 1588.34 133.78 1588.33 133.78 1588.34 133.78" fill="#c5a45a"/><path d="M1473.12,89.2h0" fill="#c5a45a"/></svg>