<svg xmlns="http://www.w3.org/2000/svg" viewBox="0 0 73.71 15"><defs><style>.cls-1{opacity:0.5;}.cls-2{fill:#fff;}</style></defs><title>hardart</title><g id="Слой_2" data-name="Слой 2"><g id="data"><g class="cls-1"><path class="cls-2" d="M10.63,8.16v6.47H6.92v-6c0-1.24-.43-1.87-1.4-1.87S3.7,7.51,3.7,8.89v5.74H0V0H3.7V4.59a4.58,4.58,0,0,1,2.87-1C9,3.56,10.63,5.37,10.63,8.16Z"/><path class="cls-2" d="M23.57,3.87V14.62H20.71l-.32-.76A5.06,5.06,0,0,1,17.15,15a5.48,5.48,0,0,1-5.64-5.74,5.46,5.46,0,0,1,5.64-5.7A5.11,5.11,0,0,1,20.43,4.7l.38-.83ZM20.05,9.25a2.41,2.41,0,1,0-4.82,0,2.41,2.41,0,1,0,4.82,0Z"/><path class="cls-2" d="M32.33,3.83V7.22H30.89c-1.31,0-1.86.57-1.86,2v5.46h-3.7V3.88h2.48l.58,1.2a3.58,3.58,0,0,1,3-1.25Z"/><path class="cls-2" d="M44.75,0V14.63H42l-.34-.79A5,5,0,0,1,38.42,15a5.49,5.49,0,0,1-5.65-5.74,5.48,5.48,0,0,1,5.65-5.73,5,5,0,0,1,2.67.75V0ZM41.32,9.26a2.41,2.41,0,1,0-4.81,0,2.41,2.41,0,1,0,4.81,0Z"/><path class="cls-2" d="M57.7,3.87V14.62H54.83l-.31-.76A5.07,5.07,0,0,1,51.27,15a5.48,5.48,0,0,1-5.63-5.74,5.45,5.45,0,0,1,5.63-5.7A5.12,5.12,0,0,1,54.56,4.7l.38-.83ZM54.17,9.25a2.41,2.41,0,1,0-4.81,0,2.41,2.41,0,1,0,4.81,0Z"/><path class="cls-2" d="M72.29,11.39A1.14,1.14,0,0,1,71,10.16V7.22h2.61V3.88H71V.79h-.76l-2.85,3v7a3.53,3.53,0,0,0,3.82,3.84h2.55V11.39Z"/><path class="cls-2" d="M66.46,3.83V7.22H65c-1.31,0-1.86.57-1.86,2v5.46h-3.7V3.88h2.48l.58,1.2a3.57,3.57,0,0,1,3-1.25Z"/></g></g></g></svg>
