<svg xmlns="http://www.w3.org/2000/svg" viewBox="0 0 26 25.99"><defs><style>.cls-1{fill:#fff;opacity:0.6;}</style></defs><title>instagram</title><g id="Слой_2" data-name="Слой 2"><g id="data"><path class="cls-1" d="M13,6.33A6.67,6.67,0,1,0,19.67,13,6.65,6.65,0,0,0,13,6.33Zm0,11A4.34,4.34,0,1,1,17.34,13,4.34,4.34,0,0,1,13,17.33ZM21.49,6.06a1.55,1.55,0,1,1-1.55-1.55A1.54,1.54,0,0,1,21.49,6.06Zm4.42,1.58a7.74,7.74,0,0,0-2.1-5.45A7.78,7.78,0,0,0,18.36.09C16.22,0,9.78,0,7.64.09a7.75,7.75,0,0,0-5.45,2.1A7.74,7.74,0,0,0,.09,7.63C0,9.78,0,16.21.09,18.36a7.71,7.71,0,0,0,2.1,5.44,7.75,7.75,0,0,0,5.45,2.1c2.14.12,8.58.12,10.72,0a7.69,7.69,0,0,0,5.45-2.1,7.76,7.76,0,0,0,2.1-5.44c.12-2.15.12-8.58,0-10.72Zm-2.77,13a4.41,4.41,0,0,1-2.47,2.47c-1.72.68-5.78.52-7.67.52s-5.95.15-7.66-.52a4.38,4.38,0,0,1-2.47-2.47C2.19,19,2.35,14.89,2.35,13S2.2,7,2.87,5.33A4.41,4.41,0,0,1,5.34,2.86c1.71-.67,5.77-.52,7.66-.52s6-.15,7.67.52a4.44,4.44,0,0,1,2.47,2.47c.67,1.72.52,5.78.52,7.67S23.81,19,23.14,20.66Z"/></g></g></svg>