<svg xmlns="http://www.w3.org/2000/svg" width="295" height="133" viewBox="0 0 295 133"><title>list3z-small</title><path d="M292.8,63.8a11,11,0,0,1-.2,1.8,6.8,6.8,0,0,0-.2,1.5,10.5,10.5,0,0,1-.7,4.3,9.3,9.3,0,0,1-2.6,3.3c-2.2,2.1-4.5,4.1-6.8,6.1a56.9,56.9,0,0,0-5.7,6.3c-2,2.4-3.8,5.2-6.2,7.3a38.2,38.2,0,0,1-7.9,5.1,41.4,41.4,0,0,1-4.3,2,23.8,23.8,0,0,1-5,1.5,18.4,18.4,0,0,1-4.7-.1c-1.6-.1-3.3-.6-4.8-.3.8,1.4,2.5,2.4,3.5,3.7s1.3,3,0,4.5-5.9,4.3-9.3,5.7a31.6,31.6,0,0,1-5.4,2l-5.7,1.1c-3.8.7-7.2,2.3-10.9,3.2a56.5,56.5,0,0,1-12.9,1.8,25.9,25.9,0,0,0-5.6.4,48.1,48.1,0,0,0-5.4,1.6l-5.1,1.8-4.9,1.9a31.6,31.6,0,0,1-10.6,1.5,19.8,19.8,0,0,1-9.8-2.4,17.7,17.7,0,0,1-4.7-3.4c-1.4-1.3-2.7-2.9-4.1-4.2a54,54,0,0,0,1.8,5.7c.5,1.4.8,3.7-1.5,3.2a38.8,38.8,0,0,0-11.8-1c-4.2.3-8.2.7-12.4.1a37.1,37.1,0,0,1-11.2-3.8l-10.9-5.1c-3.5-1.6-7.2-3.2-10.3-5.6a44,44,0,0,1-8.1-8.6c-2.3-3-5.2-5.4-7.7-8.3a13.6,13.6,0,0,1-2.9-12.3,16.4,16.4,0,0,1,2.8-5.8,36.4,36.4,0,0,1,4.3-4.5c-6.2.1-12.4.5-18.6,1.1a104.6,104.6,0,0,0-18.5,2.8c-5.9,1.5-11.8,3.1-17.6,5.2-2.7,1-5.3,2.3-8,3.5l-8.5,3.9A66.1,66.1,0,0,0,6,96.7a32.1,32.1,0,0,1-3,2.1c-.9.5-3.1,1.2-3-.7s1.6-1.9,2.4-2.5L6.3,93c2.6-1.6,5.3-3,7.9-4.4a140.6,140.6,0,0,1,17-6.9l3.7-1.4c1.4-.6,2.9-1,4.4-1.5a52.7,52.7,0,0,1,8.6-2.5c3.2-.8,6.4-1,9.6-1.6a41,41,0,0,1,9.9-.9,68.3,68.3,0,0,0,10.1-.4c3.2-.4,6.4-.5,9.6-.8C84,70.4,80.8,68,79,64.5a19.1,19.1,0,0,1-1.5-11.8,48.3,48.3,0,0,1,1.8-6.2l2.1-6a40.5,40.5,0,0,0,1.5-6,23.8,23.8,0,0,1,1.2-5.9c1.6-3.6,4.9-6.1,8.2-8a80.4,80.4,0,0,1,11.4-4.7c4.1-1.4,8.2-2.8,12.2-4.6s7.4-4.1,11.1-6a13.2,13.2,0,0,1,6.7-1.5c2.3.1,4.4.6,6.7.7.7,0,1.5.3,1.2,1.3s-.5.6-.8,1a6.9,6.9,0,0,0-1.1,1.3,31.7,31.7,0,0,0-4,5.6,33.9,33.9,0,0,0,6.5-4.1A48.6,48.6,0,0,1,149,5.3a18.6,18.6,0,0,1,8-2.4c2.7,0,5.3.6,8,.8,5.7.3,10.9-2.6,16.5-2.5A30.6,30.6,0,0,1,190,2.4c2.6.7,5.1,1.7,7.7,2.4s5.6,1,7.7,2.9a3.1,3.1,0,0,1,.9,3.4c-.3,1.5-.9,3-1.3,4.5a41.1,41.1,0,0,1,8.1-4.1A16.8,16.8,0,0,1,222,11a29.3,29.3,0,0,1,8,2.8l7.9,3.9c2.5,1.2,5.1,2,7.6,3.2l8.1,4c2.7,1.5,5.4,2.7,8.1,4.1a74.8,74.8,0,0,1,7.6,4.8,41.7,41.7,0,0,1,6.7,5.9c2,2.2,3.7,4.6,5.9,6.6a59.8,59.8,0,0,1,6.5,5.8,15.9,15.9,0,0,1,4.1,7.5A14.9,14.9,0,0,1,292.8,63.8Z" style="fill:#fff; fill-opacity:0"/><path d="M292.5,59.6a15.9,15.9,0,0,0-4.1-7.5,59.8,59.8,0,0,0-6.5-5.8c-2.2-2-3.9-4.4-5.9-6.6a41.7,41.7,0,0,0-6.7-5.9,74.8,74.8,0,0,0-7.6-4.8c-2.7-1.4-5.4-2.6-8.1-4.1l-8.1-4c-2.5-1.2-5.1-2-7.6-3.2L230,13.8a29.3,29.3,0,0,0-8-2.8,16.8,16.8,0,0,0-8.9.5,41.1,41.1,0,0,0-8.1,4.1c.4-1.5,1-3,1.3-4.5a3.1,3.1,0,0,0-.9-3.4c-2.1-1.9-5-2.2-7.7-2.9s-5.1-1.7-7.7-2.4a30.6,30.6,0,0,0-8.5-1.2C175.9,1.1,170.7,4,165,3.7c-2.7-.2-5.3-.8-8-.8a18.6,18.6,0,0,0-8,2.4,48.6,48.6,0,0,0-6.8,4.3,33.9,33.9,0,0,1-6.5,4.1,31.7,31.7,0,0,1,4-5.6,6.9,6.9,0,0,1,1.1-1.3c.3-.4.7-.6.8-1s-.5-1.3-1.2-1.3c-2.3-.1-4.4-.6-6.7-.7A13.2,13.2,0,0,0,127,5.3c-3.7,1.9-7.3,4.2-11.1,6s-8.1,3.2-12.2,4.6a80.4,80.4,0,0,0-11.4,4.7c-3.3,1.9-6.6,4.4-8.2,8a23.8,23.8,0,0,0-1.2,5.9,40.5,40.5,0,0,1-1.5,6l-2.1,6a48.3,48.3,0,0,0-1.8,6.2A19.1,19.1,0,0,0,79,64.5c1.8,3.5,5,5.9,8.1,8.1-3.2.3-6.4.4-9.6.8a68.3,68.3,0,0,1-10.1.4,41,41,0,0,0-9.9.9c-3.2.6-6.4.8-9.6,1.6a52.7,52.7,0,0,0-8.6,2.5c-1.5.5-3,.9-4.4,1.5l-3.7,1.4a140.6,140.6,0,0,0-17,6.9C11.6,90,8.9,91.4,6.3,93L2.4,95.6C1.6,96.2.1,97,0,98.1s2.1,1.2,3,.7a32.1,32.1,0,0,0,3-2.1,66.1,66.1,0,0,1,7.7-4.4l8.5-3.9c2.7-1.2,5.3-2.5,8-3.5,5.8-2.1,11.7-3.7,17.6-5.2a104.6,104.6,0,0,1,18.5-2.8c6.2-.6,12.4-1,18.6-1.1a36.4,36.4,0,0,0-4.3,4.5,16.4,16.4,0,0,0-2.8,5.8,13.6,13.6,0,0,0,2.9,12.3c2.5,2.9,5.4,5.3,7.7,8.3a44,44,0,0,0,8.1,8.6c3.1,2.4,6.8,4,10.3,5.6l10.9,5.1a37.1,37.1,0,0,0,11.2,3.8c4.2.6,8.2.2,12.4-.1a38.8,38.8,0,0,1,11.8,1c2.3.5,2-1.8,1.5-3.2a54,54,0,0,1-1.8-5.7c1.4,1.3,2.7,2.9,4.1,4.2a17.7,17.7,0,0,0,4.7,3.4,19.8,19.8,0,0,0,9.8,2.4,31.6,31.6,0,0,0,10.6-1.5l4.9-1.9,5.1-1.8a48.1,48.1,0,0,1,5.4-1.6,25.9,25.9,0,0,1,5.6-.4,56.5,56.5,0,0,0,12.9-1.8c3.7-.9,7.1-2.5,10.9-3.2l5.7-1.1a31.6,31.6,0,0,0,5.4-2c3.4-1.4,6.9-3,9.3-5.7s1.2-2.9,0-4.5-2.7-2.3-3.5-3.7c1.5-.3,3.2.2,4.8.3a18.4,18.4,0,0,0,4.7.1,23.8,23.8,0,0,0,5-1.5,41.4,41.4,0,0,0,4.3-2,38.2,38.2,0,0,0,7.9-5.1c2.4-2.1,4.2-4.9,6.2-7.3a56.9,56.9,0,0,1,5.7-6.3c2.3-2,4.6-4,6.8-6.1a9.3,9.3,0,0,0,2.6-3.3,10.5,10.5,0,0,0,.7-4.3,6.8,6.8,0,0,1,.2-1.5,11,11,0,0,0,.2-1.8A14.9,14.9,0,0,0,292.5,59.6ZM283.8,67l6.4-.6v1.4a4.2,4.2,0,0,1-.3,2.2C287.8,69.8,285.5,68.3,283.8,67Zm2.3,6.5a20.8,20.8,0,0,1-3.2-1.2,33.8,33.8,0,0,1-5.5-4.5,7.6,7.6,0,0,1,3.3-.3,7.8,7.8,0,0,1,2.4,1.6,18.3,18.3,0,0,0,5.9,2.6h-.1l-1.4,1.5C287,73.7,286.8,73.7,286.1,73.5Zm-9.4.2c-1.8-1.6-3.3-3.6-5.2-5.1l1.9-.3c.8-.1,1.1.2,1.7.6l3.3,2.5a21,21,0,0,0,7.1,3.7l-2.6,2.3A24.3,24.3,0,0,1,276.7,73.7Zm2.8,6.8a47.5,47.5,0,0,1-7.6-5c-2.3-1.9-4.4-4.2-6.9-6a14.5,14.5,0,0,1,2.9-.4,6.1,6.1,0,0,1,1.8.9,19.9,19.9,0,0,1,3.5,3,28.8,28.8,0,0,0,8.2,5.7l-1.2,1.1A2.3,2.3,0,0,0,279.5,80.5ZM266,78.2c-3.4-2.4-6.3-5.3-9.9-7.3l3.4-.5a4.5,4.5,0,0,1,1.6-.1l1.3.5a21.6,21.6,0,0,1,5.3,3.6,54.5,54.5,0,0,0,10.4,7.4,11.5,11.5,0,0,0-1.4,1.7A30.7,30.7,0,0,1,266,78.2Zm8.4,8.1-3.7-1a21.6,21.6,0,0,1-3.4-1.7c-2.1-1.2-4.3-2.3-6.3-3.7-3.9-2.6-7.7-5.4-11.7-7.8l1.9-.3a2.5,2.5,0,0,1,1.5.2l3.5,1.7a43.3,43.3,0,0,1,6.1,4.1c3.9,3.1,8.3,5.9,13.2,7.2l-.3.3Zm-4.1,2.5-1.7-.2-3.3-1.1A53.4,53.4,0,0,1,253.9,81c-1.7-1.3-3.4-2.6-5-4s-3.2-2.8-4.9-4a2.7,2.7,0,0,1,1.8-.1l1.5.8,3.6,2.1,7.2,4.4c4.7,3.1,9.7,6.2,15.1,7.6l-.9,1.2A12.3,12.3,0,0,0,270.3,88.8Zm-1,3.7a16.6,16.6,0,0,0-2.2-.3l-2.2-.7-4.8-1.6L255.6,88a32.2,32.2,0,0,1-3.9-2.5A190.9,190.9,0,0,1,236.4,74l2-.2a11,11,0,0,1,1.8-.2,12.8,12.8,0,0,1,2,1.1L244,76h-.1l.4.3-.2-.2c4,3.1,7.9,6.3,12.2,9a72.9,72.9,0,0,0,7.4,3.7,23.3,23.3,0,0,0,7.3,2l-.2.2Zm-3.8,2.9a10.9,10.9,0,0,0-2.6-.5l-2.4-.5-5.2-1.6a41.4,41.4,0,0,1-9.6-4.3,66.3,66.3,0,0,1-8.7-6.3c-2.8-2.4-5.2-5.1-8-7.6a16.5,16.5,0,0,1,3.1-.4,5.3,5.3,0,0,1,2,1.3l4.4,3.3c3,2.3,6.2,4.3,9.3,6.4a42.6,42.6,0,0,0,9,5.3l5.2,1.9a34.7,34.7,0,0,0,5.5,1.6l-.3.2Zm-12.1,1.3a60.8,60.8,0,0,1-16.2-8.8c-2.6-1.9-5.2-4-7.7-6.1s-5.1-4.5-7.8-6.7h2.5a2.3,2.3,0,0,1,1.2.2l.8.6c1.5,1.1,2.8,2.5,4.2,3.7a82.9,82.9,0,0,0,15.3,11.1,46.7,46.7,0,0,0,8.2,3.7,71.7,71.7,0,0,0,9.1,2.4,10.1,10.1,0,0,1-2.3,1.2,5.9,5.9,0,0,1-2.3.1A28.3,28.3,0,0,1,253.4,96.7Zm-16.2-1a96.8,96.8,0,0,1-8.2-6.1,51.3,51.3,0,0,1-7.2-6.8c-2.1-2.5-4.1-5.1-6.3-7.5a4.3,4.3,0,0,1,2.5.3l1.5,1.2,4,3.4c2.5,2.1,5.3,4.1,8,6s5.3,3.9,8.2,5.7c5.3,3.3,11.1,6.6,17.4,7.7-.1,0-.2,0-.2.1a26.7,26.7,0,0,1-2.6.9,8.8,8.8,0,0,1-2.8-.1,21,21,0,0,1-5.6-.8A36,36,0,0,1,237.2,95.7ZM217.3,81.4c2.5,2.7,5,5.5,7.6,8.2s5.6,4.5,8.5,6.6l4.4,3.6c1.3,1.1,2.4,2.5,3.6,3.7a65.4,65.4,0,0,0-7.1-4.5,49.9,49.9,0,0,1-7.3-4.6c-4.7-3.5-8.2-8.1-12-12.6a57,57,0,0,0-5.6-6.4,6.3,6.3,0,0,1,2.4.2,7.7,7.7,0,0,1,1.8,1.8C214.9,78.7,216.1,80,217.3,81.4Zm27.4,28.8c-.8-.5-1.9-.8-2.7-1.2l-2.9-1.4-5-2.8a56.1,56.1,0,0,1-16.2-13.7c-2.1-2.6-4.8-4.7-6.9-7.2s-4.4-5.8-7-8.5c.6.1,1.3-.1,1.7.2a5.3,5.3,0,0,1,1.4,1.2,23.9,23.9,0,0,1,2.3,2.2l4.3,5.1a66.2,66.2,0,0,0,9.9,9.9,94.1,94.1,0,0,0,11.3,7.2,50.2,50.2,0,0,1,5.6,3.8,42.3,42.3,0,0,1,5.1,4.4Zm-3.1,2.3c-.8-.5-2.1-.3-3-.5a18.8,18.8,0,0,1-3-1.2,60,60,0,0,1-5.4-3.3,74.1,74.1,0,0,1-16.7-15.4c-1.2-1.5-2.3-3.1-3.5-4.5l-3.6-4.3a77.7,77.7,0,0,0-7.1-8.1,3.5,3.5,0,0,1,2.4,1.4c.8.7,1.5,1.6,2.3,2.4s2.8,3.2,4.1,4.8,2.5,2.8,3.9,4.1a38.7,38.7,0,0,1,4.1,4,75.5,75.5,0,0,0,8,8,49.8,49.8,0,0,0,9.2,6.6c3.3,1.7,6.5,3.5,9.9,4.9Zm-5.7,2.2c-1-.2-2-.1-3-.4A28.6,28.6,0,0,1,227,111a51,51,0,0,1-9.3-8.1c-2.9-3-5.3-6.4-8-9.6-5.3-6.2-10.3-12.9-16.9-17.8.9,0,2.5-.3,3.2.2a12.6,12.6,0,0,1,2.4,2.2,42.3,42.3,0,0,1,4.4,5.1c2.5,3.1,5.2,5.9,7.7,9a63.5,63.5,0,0,0,8.5,8.7,79.8,79.8,0,0,0,9.5,7.7c3.1,2.1,6.7,4.7,10.6,5.3l-1.7.7-1,.5Zm-9.2,1.3a31.3,31.3,0,0,1-5.8-3.6,48.6,48.6,0,0,1-9.4-8.7c-2.8-3.3-5.2-6.8-8-10s-5.7-6.6-8.7-9.7-5.7-6.4-9.1-8.8h1.9a3.5,3.5,0,0,1,1.6.8,15.7,15.7,0,0,1,2.6,1.9,56.8,56.8,0,0,1,5.1,4.7c5.8,6.1,11.2,12.5,16.8,18.8a67.2,67.2,0,0,0,9.1,8.6,45.9,45.9,0,0,0,5.1,3.5,17.4,17.4,0,0,0,5.3,2.6l-1.8.4a3.8,3.8,0,0,1-1.5.1A12,12,0,0,1,226.7,116Zm-4.8,1.5a26.9,26.9,0,0,1-2.9-1.6c-1.9-1.4-3.7-3-5.4-4.5-6.5-5.8-12.1-12.6-18-19-2.8-3.1-5.8-6-8.9-8.9s-5.8-5.6-8.5-8.5H180a2.7,2.7,0,0,1,1.4.5,11.2,11.2,0,0,1,2.8,1.6,36.3,36.3,0,0,1,4.9,4.7l9.2,9.7c1.4,1.6,3,3.1,4.4,4.7l4.2,5a74.9,74.9,0,0,0,8.7,9.1c1.6,1.4,3.4,2.7,5.2,4a28.2,28.2,0,0,0,5.3,3.1l-1,.2c-.5.1-1.2.5-1.7.4A3.9,3.9,0,0,1,221.9,117.5Zm-10.4-.6a81,81,0,0,1-15.1-14.1c-2.3-2.7-4.4-5.5-6.6-8.2s-4.5-5.2-6.6-7.8c-3.5-4.4-7.3-8.7-11.9-11.8a9.1,9.1,0,0,1,3.3.2,8.6,8.6,0,0,1,2.5,2.2l5.2,5.5c3,3.2,6.4,6,9.4,9.2s6.1,6.8,9.2,10.1,6.1,6.2,9.4,9,6.7,5.9,10.7,7.7a9.5,9.5,0,0,1-2.7.9,5.1,5.1,0,0,1-2.2-.4A12.9,12.9,0,0,1,211.5,116.9Zm-2,4.4-2.3-1.1a30.7,30.7,0,0,1-4.2-2.8h.1l-.2-.2h0a57.6,57.6,0,0,1-8.7-8.4,89.2,89.2,0,0,1-6.8-8.4c-2.2-3.1-4.3-6.2-6.5-9.2a100.2,100.2,0,0,0-14.8-16.4,2.4,2.4,0,0,1,1.7.4l1.3.7,2.9,2.1a54.9,54.9,0,0,1,5.5,5.3c6.2,6.4,11.7,13.6,17.4,20.4a80.9,80.9,0,0,0,9.6,9.8l5.3,4.1a18.4,18.4,0,0,0,5.2,3.1l-3,.7-1.4.2A4.9,4.9,0,0,1,209.5,121.3Zm-9,.6a37.8,37.8,0,0,1-6.1-4.4,99.2,99.2,0,0,1-18.1-19.6c-2.7-3.8-5.5-7.5-8.1-11.4a111.7,111.7,0,0,1-6.8-11.7,2.4,2.4,0,0,1,1.7.6l1.8,1.5,3.2,3c2.2,2.2,4.1,4.5,6,6.8,4,4.6,7.4,9.7,11.1,14.6h-.1a72.6,72.6,0,0,0,4.9,6.1c1.6,1.8,3.3,3.5,4.9,5.2a45.3,45.3,0,0,0,12.5,9.6l-3.7.3A5.8,5.8,0,0,1,200.5,121.9Zm-5.7,1a15.3,15.3,0,0,1-3-1.9l-5.6-4.5a109.1,109.1,0,0,1-17.1-19.4c-2.6-3.6-5.1-7.2-7.4-11a54.4,54.4,0,0,1-5.5-11.4h2.4a74.3,74.3,0,0,0,6.7,11.6c4.7,6.7,9.7,13.4,15,19.6a103,103,0,0,0,8.6,8.9,72.6,72.6,0,0,0,9.6,7.8h-.3l-1.9.4A1.7,1.7,0,0,1,194.8,122.9Zm-6,1.5a21.9,21.9,0,0,1-4-2.1,45.4,45.4,0,0,1-7.3-5.8,88,88,0,0,1-6.5-7.2c-2-2.4-3.7-5.1-5.6-7.6l.2.3-4.8-6.4a70,70,0,0,1-4.5-6.6,52.6,52.6,0,0,1-3.6-7.1,29.2,29.2,0,0,1-1.4-3.8,21.7,21.7,0,0,0-1.2-3.6h3.2a67.8,67.8,0,0,0,6,12.8,145.7,145.7,0,0,0,15.1,20,100.8,100.8,0,0,0,8.6,8.7c1.6,1.4,3.3,2.8,5.1,4.1a39.8,39.8,0,0,0,5.1,3.8h-.3a8.4,8.4,0,0,1-2.5.9A9.8,9.8,0,0,1,188.8,124.4Zm-5.8,2-1.7-.6a16.9,16.9,0,0,1-3.2-1.9,34.2,34.2,0,0,1-5.3-4.7c-3-3.3-5.4-7-8-10.5s-5.4-7.4-8-11.1a93.6,93.6,0,0,1-7.3-11.2,107.5,107.5,0,0,1-5.2-12.1c1,0,2.8-.3,3.3.5a9,9,0,0,1,1.3,3.2,45.1,45.1,0,0,0,2.9,7.2,64.8,64.8,0,0,0,3.4,6.4,56.6,56.6,0,0,0,4,5.6l8.3,11a79.9,79.9,0,0,0,9.3,10c3.3,3,7,6,11.2,7.6h-.2l-3.1,1.2C184.3,126.6,183.5,126.6,183,126.4Zm-7,1.9-3.2-2.1a29.9,29.9,0,0,1-5.5-4.6c-3.3-3.4-5.9-7.4-8.6-11.2s-5.5-7.5-8.1-11.4a119.7,119.7,0,0,1-7.3-12c-2.1-4-3.4-8.4-4.9-12.7h3.3c1.2,3,2.2,6.2,3.6,9.2a95.3,95.3,0,0,0,9.9,15.8c3.8,5.1,7.7,10.1,11.5,15.1a.1.1,0,0,0-.1-.1c4.1,5.4,8.9,11.6,15.7,13.6a13.4,13.4,0,0,1-2.6.9,9.3,9.3,0,0,1-2.2.4C177,129.1,176.4,128.5,176,128.3Zm-10.3-1.5a46,46,0,0,1-5.3-4.6c-3.4-3.4-6.4-7.2-9.5-10.9s-5.8-7.1-8.4-10.9a83.9,83.9,0,0,1-6.6-12.6,46.7,46.7,0,0,1-2.3-6.6c-.7-2.3-1.1-4.6-1.8-6.8h3.9a56.7,56.7,0,0,0,2.4,7.3,58.5,58.5,0,0,0,3,6.8c4.3,7.9,9.9,15,15.2,22.2,2.8,3.7,5.5,7.6,8.6,11.1a53.2,53.2,0,0,0,9.9,7.8h-2.6a8.9,8.9,0,0,1-2.3,0,6.1,6.1,0,0,1-1-.7Zm-17.2-11.6c-5.8-5.4-11.2-11.4-14.9-18.5a113.3,113.3,0,0,1-4.9-11.3c-1.4-3.6-2.3-7.3-3.5-10.9H129a95,95,0,0,0,4.4,13.7,63.1,63.1,0,0,0,6.2,11.8c2.6,3.7,5.2,7.1,8.1,10.5l8.6,9.9a47.6,47.6,0,0,0,9.4,8.5,18.5,18.5,0,0,1-7.9-4.9,44.7,44.7,0,0,0-4.4-4.3Zm2.7,10.5c-2.9-3.2-6.1-6-9.3-8.9a87.4,87.4,0,0,1-14.4-18.3,46,46,0,0,1-4.8-10.6,113.3,113.3,0,0,1-2.8-11.5l-.3-1.8h3.2l1.8,6.4c.7,2.3,1.5,4.4,2.4,6.6A98.8,98.8,0,0,0,131.7,98a84.6,84.6,0,0,0,6.7,9.8,64.4,64.4,0,0,0,8,8.5,10.5,10.5,0,0,1,1.7,1.9,9.4,9.4,0,0,1,1.2,2.2A56.2,56.2,0,0,1,151.2,125.7Zm-7.7-1a46.7,46.7,0,0,1-4.5-4.4l-4.6-5.1c-2.7-3-5.3-6.1-7.8-9.2s-5-5.9-6.8-9.3a42.7,42.7,0,0,1-4.9-21.9h2a79.3,79.3,0,0,0,3.3,13.6,48.5,48.5,0,0,0,5.5,11.2,119.1,119.1,0,0,0,7.2,10.3,86.8,86.8,0,0,0,9,9.2l4.9,4.4a61.4,61.4,0,0,1,4.2,4.7l-2.2-.4a5,5,0,0,1-2-.8A23.7,23.7,0,0,1,143.5,124.7Zm-3.5,1.8c-.9-.7-1.9-1.2-2.9-1.9a42.2,42.2,0,0,1-5.6-4.7,91,91,0,0,1-8.4-10.2c-2.7-3.6-5.4-7.2-7.9-10.9A30.6,30.6,0,0,1,110.3,87a19.5,19.5,0,0,1-.1-5.9c.4-2,.9-4.1,1.2-6.1h.8a43.3,43.3,0,0,0,1.7,13.4,40.7,40.7,0,0,0,4.8,10.9c2.4,3.3,5,6.4,7.6,9.5s5.6,6.7,8.5,9.9,5.6,6.3,9,8.7h-2.4A4.2,4.2,0,0,1,140,126.5Zm-8.4-1c-1.9-1.5-3.8-3-5.5-4.6a66.3,66.3,0,0,1-8.1-8.7,119.9,119.9,0,0,1-7-11.4,49.3,49.3,0,0,1-5.4-12.2,27.4,27.4,0,0,1-.9-6.4,8,8,0,0,1,.4-3.1c.3-1,.6-2,1-3a3,3,0,0,0,.4-1h2.1c-1.2,4.6-1.8,9.2-.6,13.9,2.1,8,7.9,14.6,12.9,21a105.6,105.6,0,0,0,8,9.7,52.4,52.4,0,0,0,9.7,7.9c-1,.1-2.9.6-3.8.2A23.5,23.5,0,0,1,131.6,125.5Zm-8.4-.9c-1.9-1.6-3.6-3.4-5.3-5.1s-5.5-6.8-8.2-10.2a55.1,55.1,0,0,1-6.9-10.8,47.6,47.6,0,0,1-1.9-5.7,62.3,62.3,0,0,1-1.5-6.2,19.5,19.5,0,0,1,.1-5.4c.4-2,1.2-3.9,1.8-5.9h2.2l-1.2,3.5a12.7,12.7,0,0,0-.3,3.4,24.8,24.8,0,0,0,.8,6.6,38,38,0,0,0,4.9,11.1c2.2,3.5,4.4,7.1,6.8,10.5A78.5,78.5,0,0,0,132,127.8l-2.7-.3a12.1,12.1,0,0,1-3.1-.9A19.6,19.6,0,0,1,123.2,124.6Zm-15.7-8.9c-5.3-5.4-8.7-12.1-11.1-19.1a40.1,40.1,0,0,1-2.1-10.3,30.6,30.6,0,0,1,1.8-10.8h2.3a38.6,38.6,0,0,0-1.7,5.8,22.5,22.5,0,0,0,.1,5.8,50.1,50.1,0,0,0,3,10.7c1.4,3.6,3.8,6.8,6.1,9.8s5,6.2,7.5,9.3a76.6,76.6,0,0,0,7.8,8.3l-4.2-2-2.8-1.3a9.2,9.2,0,0,1-2.4-1.9A57,57,0,0,1,107.5,115.7Zm-9.4-4.6a57,57,0,0,1-5-8.1,48.5,48.5,0,0,1-3.5-9.2,21.6,21.6,0,0,1-.9-9.8c.5-2.9,2-5.7,3.3-8.4h1.2a32.4,32.4,0,0,0-1.6,10.2c.2,6.5,3.1,12.4,5.8,18.1a53.3,53.3,0,0,0,11,15.2l-2.3-1.1a11.9,11.9,0,0,1-2.5-1.3l-2.1-1.8A24.3,24.3,0,0,1,98.1,111.1ZM84.3,99.3c-2-2.2-3.9-4.2-4.6-7.2a13.3,13.3,0,0,1,.8-7.9l.5-.9a22.1,22.1,0,0,0,.1,8.5A35.3,35.3,0,0,0,84.3,99.3ZM87.6,77a15.9,15.9,0,0,1,1.3-1.3,23.3,23.3,0,0,0-3,9.9,26.7,26.7,0,0,0,2,9.7c.6,1.7,1.2,3.4,1.9,5.1a39.5,39.5,0,0,0,2.3,4.6,65.2,65.2,0,0,0,5.5,8.2,47.5,47.5,0,0,1-4-3.8,41.1,41.1,0,0,1-6.2-8.2c-1.5-2.8-3.2-5.6-4-8.6a18.7,18.7,0,0,1,.3-9.4,11.4,11.4,0,0,1,2.2-4.4ZM82,62.5c1.7,4,4.7,6.9,8.1,9.4A22.7,22.7,0,0,1,85,68.5a19.5,19.5,0,0,1-3.7-3.9,17.5,17.5,0,0,1-1.9-11.2,13.4,13.4,0,0,1,.7-2.7A27.9,27.9,0,0,0,82,62.5Zm1.7-13.4c.1,4.6.3,9.7,3.1,13.5a26.2,26.2,0,0,0,4.8,4.6,61.5,61.5,0,0,1,5.3,4.9,6.6,6.6,0,0,1-2-.1,8.6,8.6,0,0,1-2.2-1.5l-3.8-2.9a17.3,17.3,0,0,1-5.8-7.8,26.5,26.5,0,0,1-1.2-10.1,22.8,22.8,0,0,1,1-5.2c.4-1.8.5-3.6,1-5.3C84,42.5,83.7,45.8,83.7,49.1ZM90.9,24c-2.1,3.3-2.6,7.3-2.7,11.2s-.1,7.3-.1,11,.1,7.2,1.8,10.6A15,15,0,0,0,92.8,61a42.6,42.6,0,0,0,3.8,3.5c2.3,2.4,3.9,5.3,6.4,7.5h-1.9c-.5,0-.7-.2-1.1-.6l-2.1-2.2a59.2,59.2,0,0,0-4.5-4.1c-2.8-2.3-5.5-4.7-6.6-8.3s-1-7.7-.9-11.5-.4-7.6-.2-11.4l.3-3.1a8.5,8.5,0,0,1,.4-2.3,12,12,0,0,1,3.4-3.7A4.8,4.8,0,0,1,90.9,24Zm9.8-4.7c-3.1,3.2-4.9,7.6-6,11.9a78.9,78.9,0,0,0-1.4,11.9,21.3,21.3,0,0,0,2.5,11.3c1.7,3.5,4.9,5.6,7,8.8a31.9,31.9,0,0,0,3.5,4.7,23,23,0,0,0,4.1,3.5h-1.8a10.9,10.9,0,0,1-1.8.1,7.9,7.9,0,0,1-2.8-2.1c-1.7-1.6-3.1-3.6-4.6-5.3s-3.2-2.8-4.7-4.3a14.7,14.7,0,0,1-3.6-5.2c-1.6-3.9-1-8.6-1-12.8s-.2-8.7.7-13a11.8,11.8,0,0,1,2.4-4.9,17.9,17.9,0,0,1,2.5-2.2l.7-.6a2,2,0,0,1,.9-.5Zm9.4-3.4c-1.6,1.6-3,3.4-4.5,5a27.5,27.5,0,0,0-4.3,6A26,26,0,0,0,98,39.7a26.9,26.9,0,0,0,2.5,12.8,26.1,26.1,0,0,0,3.6,5.3c1.4,1.6,2.7,3.4,4.2,5a80.3,80.3,0,0,0,9.7,8.7h-1.8l-1.5-.8c-1.1-.7-2.2-1.1-3.3-1.9a22,22,0,0,1-5.2-4.9c-1.4-1.7-2.6-3.5-4.1-5a22.2,22.2,0,0,1-4.4-5.3,19.9,19.9,0,0,1-2.4-6.7,28.2,28.2,0,0,1,.1-7.1c.5-4.6,1-9.2,2.9-13.5a17.3,17.3,0,0,1,3.5-5.4,15.5,15.5,0,0,1,2.7-2.4,4.1,4.1,0,0,0,1.1-.7l.4-.5.9-.3Zm4.8-1.9c-1.2,2.1-2.3,4.2-3.6,6.3a59.8,59.8,0,0,0-3.4,6.1,26.6,26.6,0,0,0-2.3,12.2c.2,4.1,1.9,7.9,3.7,11.6s3.9,7.6,5.7,11.4a36.8,36.8,0,0,0,3,5,58.7,58.7,0,0,0,4.1,4.6,43.2,43.2,0,0,1-6.3-5c-1.8-1.6-3.7-3.2-5.4-5l-4.5-5.4a18.2,18.2,0,0,1-3.9-5.6,28.2,28.2,0,0,1-1.9-13.8,26.2,26.2,0,0,1,5.4-12.7,47.5,47.5,0,0,1,4.2-4.9,27,27,0,0,1,5-4.6Zm8.2-4.2c-1.4,2.1-2.2,4.5-3.5,6.7a56.7,56.7,0,0,0-3.6,6.3,20.8,20.8,0,0,0-2.1,5.9,26.6,26.6,0,0,0-.3,6.3c.3,4.4,1.7,8.5,2.9,12.7.6,2.1,1,4.2,1.6,6.2a48,48,0,0,0,2.4,6.3,54.2,54.2,0,0,0,6,11.1c-1.1,0-1.9-1.3-2.6-2l-2.5-2.7a24.7,24.7,0,0,1-4-6.1l-6.3-12.2a33.7,33.7,0,0,1-2.8-6.1,20.6,20.6,0,0,1-.8-6.6,25.5,25.5,0,0,1,4.2-12.5l3.5-6.1,1.6-2.9a4.8,4.8,0,0,1,.9-1.4l1.6-.8Zm10.4-3.9c-3.8,3.3-6.7,7.7-9.2,12A29.3,29.3,0,0,0,120.1,31c-.2,4.4.8,8.8,1.7,13s2.1,9.6,3.6,14.2,3.3,8.7,5,13c-1,0-1.6-1.3-2.1-2s-1.3-2.2-1.9-3.3a76.9,76.9,0,0,1-3.8-7.6c-2-4.5-2.9-9.3-4.4-14s-2.8-9.6-2.3-14.6,3.5-9,5.8-13.2a64.9,64.9,0,0,1,3.3-6.4,7.2,7.2,0,0,1,2.5-2.7,17.9,17.9,0,0,1,3.2-1.3A8.8,8.8,0,0,1,133.5,5.9ZM120.3,35v.2h0Zm14.3-23.2a33.7,33.7,0,0,0-2.5,5.9,60.1,60.1,0,0,0-1.4,6.1,69,69,0,0,0-.6,12,48.8,48.8,0,0,0,1.3,12.1c.4,2.1.9,4.1,1.3,6.1s.5,4,.9,6a55.7,55.7,0,0,0,4.1,11.2h-4.5c-1.8-5.2-4.1-10.2-5.7-15.4A141.9,141.9,0,0,1,124,41.5c-1.1-4.6-2.2-9.4-1.2-14.2a25.4,25.4,0,0,1,2.1-6.6,48.3,48.3,0,0,1,3.7-6.2A38,38,0,0,1,132.8,9l2.7-2.5a1.1,1.1,0,0,1,1.2-.3l1.9.3A33.5,33.5,0,0,0,134.6,11.8Zm6.7.8a32.3,32.3,0,0,0-6.1,15.5,46.4,46.4,0,0,0,.3,8.3c.3,2.9.7,5.8,1,8.8v-.3a35.5,35.5,0,0,0,1,6.4c.6,2.2,1.4,4.2,2,6.4,1.2,4.5,2,9.1,3.2,13.6h-2.3c-1.6-3.9-3.5-7.7-4.4-11.7s-1.2-7.3-2.1-10.9a57.3,57.3,0,0,1-1.7-11c0-1.9.1-3.7,0-5.6s-.1-4,0-5.9a46.4,46.4,0,0,1,2.5-10.4,10.6,10.6,0,0,0,3.4-1.2Zm9.9-6.3c-3.6,3.6-5.7,8.2-7.8,12.7a34,34,0,0,0-2.8,12.6c-.2,4.4,1.4,8.9,2.6,13.1s1.6,8.6,2.3,13c.4,2.3,1,4.5,1.6,6.7a34.2,34.2,0,0,1,.9,6.3,1.7,1.7,0,0,1,.1.7h-2.9c-1.5-6-2.6-12.2-4.6-18.1a47.5,47.5,0,0,1-1.9-9.1c-.3-3-.7-6-1-9h0a33.2,33.2,0,0,1-.2-8.9,32.3,32.3,0,0,1,2.5-8,28.4,28.4,0,0,1,4.7-7.3,26.8,26.8,0,0,1,3-2.8A19.5,19.5,0,0,1,151.2,6.3ZM160,5.1a42.6,42.6,0,0,0-9.3,11.8,29.8,29.8,0,0,0-2.5,6.2,24.6,24.6,0,0,0-.6,6.6c.1,4.7,1.3,9.2,2.3,13.7a122.2,122.2,0,0,1,4,28.2h-3.3q-.2-3-.6-6c-.4-1.9-1-3.8-1.4-5.7-.8-3.5-1-7.1-1.7-10.6S145,42.4,144.1,39a28,28,0,0,1-1.2-5,23.5,23.5,0,0,1,.1-5.3,32.2,32.2,0,0,1,2.7-10.1h0v-.2h-.1a43.9,43.9,0,0,1,4.8-8.8,32.6,32.6,0,0,1,3.1-3.3A5.5,5.5,0,0,1,155.5,5a8.9,8.9,0,0,1,2.3-.1Zm6.7.6a30.2,30.2,0,0,0-5.2,4.9,29.4,29.4,0,0,0-4.2,6.4,35,35,0,0,0-3.9,13,31.6,31.6,0,0,0,.6,6.9c.3,2.1.8,4.3,1.3,6.4a78.7,78.7,0,0,1,2.6,14.5c.2,2.3.2,4.7.2,7.1s.2,4.7.1,7h-1.8a65.7,65.7,0,0,0-1.2-16c-.8-4.9-2-9.7-3.2-14.4s-2.4-9.4-2.2-14.3,1.9-8.5,4.3-12.3a28.8,28.8,0,0,1,4.1-5.6l2.7-2.5a3.5,3.5,0,0,1,1.1-1c.4-.3.4-.3.9-.2h3.8Zm8.4-1.4a52,52,0,0,0-5.1,6.3,69,69,0,0,0-4.2,6.3,43.9,43.9,0,0,0-4.7,13.3,38.7,38.7,0,0,0-.1,14c.3,2.5.5,4.9.9,7.3s.9,4.6,1.2,6.8.8,4.6,1.1,6.9a53,53,0,0,1,.1,6.9l-3.6-.2a30.5,30.5,0,0,0-.1-4.3c-.1-1.6-.1-3.1-.1-4.7a80.9,80.9,0,0,0-.7-8.6c-.7-5.1-2.2-10-3.4-14.9s-1.8-9.8-.3-14.6a57.4,57.4,0,0,1,2.6-6.9,29.9,29.9,0,0,1,4-6A21.8,21.8,0,0,1,168,6.7a11.8,11.8,0,0,1,1.9-1.1l1.6-.5,3.4-.7Zm8.8-.9a38.7,38.7,0,0,0-6.8,7.2l-1.5,1.9v-.2a43.2,43.2,0,0,0-6.6,12.1,48.2,48.2,0,0,0-2.3,11.9c-.2,4,.4,8,.7,11.9s1.2,8.1,1.9,12.2a45.2,45.2,0,0,1,.4,12.2l-2.9-.2a43.9,43.9,0,0,0-.3-8.1c-.4-2.7-.9-5.4-1.4-8-.9-4.7-1.9-9.5-2.5-14.2a36.7,36.7,0,0,1,.9-15.1,46,46,0,0,1,6.1-13.1L174,8a21.6,21.6,0,0,1,2.5-2.7l1.3-1.2a2.3,2.3,0,0,1,1.5-.7A23.6,23.6,0,0,1,183.9,3.4Zm7.9,1.7c-4.3,3-7.6,7.3-10.5,11.6-5.1,8-9,17.9-8.7,27.5a51,51,0,0,0,2.6,13.9,31.1,31.1,0,0,1,1.1,6.8,67.7,67.7,0,0,1,0,7.8h-4a56.2,56.2,0,0,0,.3-8.2,79.1,79.1,0,0,0-1.3-8.5,141.7,141.7,0,0,1-2.5-14.5A41.6,41.6,0,0,1,170.1,27a36.8,36.8,0,0,1,6.4-13,63.6,63.6,0,0,1,4.6-5.7l2.6-2.7c.5-.5,1.9-2,2.7-1.9A35.8,35.8,0,0,1,191.8,5.1Zm5.1,1.6a45.6,45.6,0,0,0-5.3,5.5,25.2,25.2,0,0,0-2.4,3.3,35.5,35.5,0,0,0-2.3,3.1c-1.2,1.9-2.3,3.8-3.4,5.7a32.6,32.6,0,0,0-2.5,6.1,52.1,52.1,0,0,0-2.4,14.1c-.2,4.7.8,9.2,1.7,13.8a63.2,63.2,0,0,1,1.2,14.4h-2.6a38.2,38.2,0,0,0-.4-8.3,41.8,41.8,0,0,0-1.7-7.8A43.1,43.1,0,0,1,174.3,42a42.6,42.6,0,0,1,3.4-14.9,64.6,64.6,0,0,1,7.5-13,43.7,43.7,0,0,1,4.9-5.6l2.7-2.1a1.7,1.7,0,0,1,1.3-.5l1.7.5Zm6.6,2.2c-3,1.2-5.5,3.9-7.5,6.4a48.2,48.2,0,0,0-6.3,11c-3,7.2-4.8,15-4,22.8.3,3.9,1.2,7.8,1.5,11.7a94.5,94.5,0,0,1-.1,11.9H184a47,47,0,0,0-1-13c-.9-3.5-1.8-6.9-2.4-10.5a45.1,45.1,0,0,1,.3-11.6A38.5,38.5,0,0,1,184,27.1c.8-1.7,1.8-3.1,2.7-4.7a48.7,48.7,0,0,1,2.7-4.5h0c1.5-1.9,2.8-3.9,4.4-5.7a32,32,0,0,1,2.5-2.7c.8-.8,1.8-1.5,2.5-2.3a20.1,20.1,0,0,1,3.5,1Zm.8,1.5c-.8,4.3-3.3,8-5.6,11.6s-3.5,7.7-4.9,11.6a38.9,38.9,0,0,0-2.7,12.6c-.1,4.3.7,8.6.8,12.9q.2,3.3,0,6.6c-.1,1.2-.3,2.3-.5,3.5s-.2,2.3-.4,3.4h-1.5c.1-2.7.4-5.2.3-7.9a61.5,61.5,0,0,0-.6-7.4c-.6-4.3-2.1-8.5-2.1-12.9a54.3,54.3,0,0,1,.9-6.9,46.1,46.1,0,0,1,1.6-6.4,62.9,62.9,0,0,1,5.7-12,33.9,33.9,0,0,1,4.1-5.1A11.8,11.8,0,0,1,204.3,10.4Zm9.5,3.1a27.6,27.6,0,0,0-9.4,8.9,54.5,54.5,0,0,0-5,11.9,75.4,75.4,0,0,0-2.8,12.5c-.5,4.4-.2,8.8-.2,13.1a107,107,0,0,1-.6,12.7h-3.1c.3-1.2.3-2.5.5-3.7a20.9,20.9,0,0,0,.4-3.5,48.2,48.2,0,0,0,0-7.6c-.2-4.3-1.1-8.6-.7-12.9s1.7-8.5,3.2-12.6a42.6,42.6,0,0,1,5.7-11.5c1.2-1.7,3.2-2.6,4.8-3.7a37,37,0,0,1,5.9-3.1Zm11.8.7c-3.7.8-6.7,3-9.8,5.1h.2a31.4,31.4,0,0,0-9,8.8c-4,6.4-5.3,14.2-5.8,21.7-.3,3.9-.2,7.8-.5,11.7l-.6,5.8a32.7,32.7,0,0,1-.4,5.4H198c1.1-5.1.7-10.7.6-15.9s-.1-9.7.9-14.5a85.1,85.1,0,0,1,4.1-13.9,33.2,33.2,0,0,1,2.9-6,20.1,20.1,0,0,1,4.5-4.7,24,24,0,0,1,5.6-3.8,6.4,6.4,0,0,1,3.5-1,18.6,18.6,0,0,1,3.4.6Zm4.5,2a38.7,38.7,0,0,0-11.5,7.7,25.6,25.6,0,0,0-7,10.1,54,54,0,0,0-1.8,5.7,46.2,46.2,0,0,0-1.1,6.3l-.9,6.5c-.2,2.2-.3,4.6-.6,6.9s-.6,4.4-1,6.5-1.1,4.4-1.6,6.6H202c.4-2.6.3-5.3.6-7.9s.4-5.3.5-8c.2-8.9.3-18.5,4.8-26.5a23.6,23.6,0,0,1,4-5.4,38.4,38.4,0,0,1,5.4-4.4,42.1,42.1,0,0,1,5.7-3.6,13.5,13.5,0,0,1,3.4-1.1l1.3-.3c.7-.1.9.1,1.5.4Zm3.7,1.9c-3.8,2.3-7.6,4.7-10.7,8a28.9,28.9,0,0,0-6.3,10.5,79.7,79.7,0,0,0-3.4,11.8c-.7,4.1-.9,8.3-1.6,12.4a46,46,0,0,1-3.6,11.6h-1.3a77,77,0,0,0,2.6-12.3c1.1-7.4.4-15.1,2.7-22.4,1.1-3.5,2.3-6.9,4.6-9.8a37.8,37.8,0,0,1,7.9-7h0a26,26,0,0,1,7.4-3.8Zm5.4,2.5a40.9,40.9,0,0,0-5.3,4c-1.5,1.3-3,2.6-4.3,3.9-5.8,5.6-9,12.6-10.6,20.4-.8,4-.9,8-1.3,12a50,50,0,0,1-2.8,11.4h-4c2.3-4.2,3-9.1,3.7-13.7s.6-8.3,1.5-12.4a54,54,0,0,1,3.4-11.7,28.3,28.3,0,0,1,7.1-9.7,42.6,42.6,0,0,1,4.9-3.4,29,29,0,0,1,2.9-1.9l.7-.4c.4-.2.3-.2.8-.1l1.4.6A6.6,6.6,0,0,0,239.2,20.6Zm4.5,1.8c-1.5,1-2.9,2.2-4.3,3.2l-4,3.4a34.2,34.2,0,0,0-6.3,7.9c-3.3,6.2-4.9,13.4-6.2,20.3a.4.4,0,0,1,.1-.3c-1,5-1.5,10.1-2.6,15.1h-3.1a39.9,39.9,0,0,0,2.5-12.9c.3-7.7,1.4-15.3,5.2-22.1a33.5,33.5,0,0,1,7.1-8.8l4.5-3.7,2.4-1.9c.6-.5,1.7-.8,2.2-1.4Zm5,2.4c-3.3,2.1-6.7,4.3-9.3,7.2a64.4,64.4,0,0,0-5.7,8,53.4,53.4,0,0,0-4,9.2c-2.3,6.5-2.8,13.4-4,20.1V69a25.6,25.6,0,0,1-.5,2.7l-2.4.2c1.4-5.5,1.8-11.2,2.7-16.7a60.1,60.1,0,0,1,1.9-8.4,41.8,41.8,0,0,1,2.8-8.2,31.9,31.9,0,0,1,7.2-9.2l5.2-4.1a21.5,21.5,0,0,1,2.4-1.8.9.9,0,0,1,1,0l1.5.7Zm5.8,3a29.9,29.9,0,0,0-9.6,6c-5.5,4.6-7.5,11.8-9.2,18.5-1,3.7-1.9,7.4-2.8,11.1-.5,1.7-1,3.4-1.6,5.1a8.8,8.8,0,0,1-1.2,2.6c-.3.4-.5.4-1.1.4h-1.4c.9-3.7,1.2-7.5,1.9-11.2s1.1-6.4,2-9.4a48.2,48.2,0,0,1,3.4-9.2,57.5,57.5,0,0,1,5.6-8.3,34.4,34.4,0,0,1,7.5-6.2h-.2c.6-.4,2.1-1.7,2.8-1.6s1.1.6,1.5.8l1.5.7Zm5.7,2.8a28.8,28.8,0,0,0-8.9,7c-2.2,2.3-4.7,4.6-6.4,7.4a32.7,32.7,0,0,0-3.6,9.3c-.9,3.3-1.7,6.7-2.9,9.9-.6,1.6-1.3,3.1-2,4.6s-.8,2-1.4,2.3a8.7,8.7,0,0,1-2.3.1c1.9-3.5,2.8-7.7,3.7-11.5s1.6-7.4,2.4-11a28.1,28.1,0,0,1,3.8-9.7c1.9-3,4.8-5,7.6-7.1a13.1,13.1,0,0,1,4.5-2.4,3.7,3.7,0,0,1,2.5-.3,17.5,17.5,0,0,1,2.4,1.1Zm4.8,2.8a29.2,29.2,0,0,0-4,2.9c-1.3,1.2-2.7,2.2-4,3.3a35.3,35.3,0,0,0-10.5,15.8c-1,3-1.6,6.1-2.8,9a21.3,21.3,0,0,1-2.3,4.2,5.7,5.7,0,0,1-1.2,1.8c-.4.4-1.6.3-2.2.3a42.8,42.8,0,0,0,3.9-10.3c.9-3.2,1.5-6.5,2.5-9.7a26.6,26.6,0,0,1,4.6-8.2,85.7,85.7,0,0,1,6.6-6.9,21.4,21.4,0,0,1,3.9-2.8l2-1a.9.9,0,0,1,1.1.1l.8.5Zm3.8,2.7a50.6,50.6,0,0,0-9.3,6.6,24.6,24.6,0,0,0-3.8,4.1,22.3,22.3,0,0,0-2.6,5.1c-1.3,3.5-1.9,7.4-3.6,10.9a29.1,29.1,0,0,1-2.6,4.5l-1.5,2.2a1.2,1.2,0,0,1-1.1.5h-1.1a27.9,27.9,0,0,0,4.3-10,46.4,46.4,0,0,1,3.8-10.6A27.7,27.7,0,0,1,258,41l4-3.3a20.4,20.4,0,0,1,4.5-3.2Zm3.6,3a41,41,0,0,0-8.6,6.2,28.2,28.2,0,0,0-5.5,8.5c-1.4,3.3-1.8,6.9-3.3,10.1a23,23,0,0,1-2.5,4.3c-.5.6-.7,1-1.4,1.2a13.7,13.7,0,0,1-2.9.2,25.9,25.9,0,0,0,4.7-9c.9-3.2,1.4-6.5,2.7-9.6,2.5-6.3,8.9-10.6,14.6-13.8l1.6,1.4Zm3.5,3.8a73.6,73.6,0,0,0-7,5.5,24.7,24.7,0,0,0-5.3,6.3,48.3,48.3,0,0,0-3.9,7.9c-.6,1.4-1.1,2.7-1.8,4a7.6,7.6,0,0,1-1.2,1.9c-.3.3-1.1.3-1.6.3a23.5,23.5,0,0,0,3.5-8.1c.7-2.8,1.1-5.5,2.4-8.2a23.4,23.4,0,0,1,5-7.1,43.9,43.9,0,0,1,7.6-5.1l1.8,1.9Zm3.3,3.8c-1.9,1.7-3.9,3.4-5.6,5.2a31.7,31.7,0,0,0-3.9,5.9,52.3,52.3,0,0,1-4.1,6.3,15.5,15.5,0,0,1-2.4,2.7c-.9.8-2.1.8-3.3,1.1,1.4-2.2,2-4.7,3-7.1a41.7,41.7,0,0,1,3.3-6.7,24.6,24.6,0,0,1,5.2-5.5,59.3,59.3,0,0,1,5.6-4.3Zm3.7,3.2a24.2,24.2,0,0,0-4.2,3.6,48.6,48.6,0,0,0-3.5,5.3c-1.1,1.9-2.2,3.8-3.4,5.7l-.9,1.2a1.7,1.7,0,0,1-1.3.7l-3.1.4c2.3-3.2,4-6.9,5.9-10.3s5-6,8-8.7A25.2,25.2,0,0,0,282.9,49.9Zm3.8,3.7a19.8,19.8,0,0,0-6.8,6.4,25.6,25.6,0,0,1-3,3.7l-1.5,1.5a3.1,3.1,0,0,1-2,.7c1.7-2.8,3.1-5.8,4.8-8.6a17,17,0,0,1,6-6.2,16.2,16.2,0,0,1,1.9,1.8Zm3.1,4.7c-2.3.8-3.6,2.3-5.2,4.1a15.5,15.5,0,0,1-2.7,2.4c-1,.7-2.4.5-3.5.6,1.6-1.9,2.8-3.9,4.2-5.9a16.5,16.5,0,0,1,5.3-4.5A27.9,27.9,0,0,1,289.8,58.3Zm.7,6.1-5.7.4c1.7-1.7,3.1-3.9,5.5-4.8A10.9,10.9,0,0,1,290.5,64.4Z" style="fill:#c5a45a"/><path d="M177.2,10.4v.2h0Z" style="fill:#c5a45a"/><path d="M196.1,15.2a.1.1,0,0,1-.1.1h.1Z" style="fill:#c5a45a"/><path d="M223.5,93.9h.2Z" style="fill:#c5a45a"/><path d="M145.7,18.6Z" style="fill:#c5a45a"/></svg>
