<svg xmlns="http://www.w3.org/2000/svg" width="262" height="202" viewBox="0 0 262 202"><title>list2-small</title><path d="M70.6,192.8a.1.1,0,0,0-.1-.1h.1Z" style="fill:lime"/><path d="M259.5,107.9a24.6,24.6,0,0,1-.2-2.8c-.1-1.8-.5-3.7-.7-5.5a43.4,43.4,0,0,0-1.1-6.1,38.6,38.6,0,0,0-4.7-11.1c-1.8-3.2-3.7-6.8-7.1-8.4a23.9,23.9,0,0,0-5.3-1.9,49.1,49.1,0,0,0-5.3-.4,43,43,0,0,0-12.4,1.4,83.6,83.6,0,0,0-12,3.8c-3.8,1.6-7.5,3.5-11.2,5.2a21.6,21.6,0,0,1-5.6,1.8c-.4.1-2.1.4-2.3-.2s.7-1.4.9-1.7a37.3,37.3,0,0,1,9.2-7.6,57.2,57.2,0,0,1,10.6-5.7c7.6-2.9,15.8-3.2,23.9-2.9,2,.1,4,.4,6,.3a4.1,4.1,0,0,0,1.9-.5c1-.7-.1-1.7-.6-2.4a48.4,48.4,0,0,1-3.3-4.6l-3.6-4.9a102.4,102.4,0,0,0-7.6-8.5,17.8,17.8,0,0,0-10-5.3,28.7,28.7,0,0,0-12,1.4,67.9,67.9,0,0,0-10.8,4.4,69.3,69.3,0,0,0-10.1,6.9c-3.2,2.5-6.4,5.3-9.4,8.1l-8.9,8.8c-1.4,1.4-3,2.7-4.5,4a31.6,31.6,0,0,1-4.3,3.9c-.9.6-3.6,1.7-3.5-.2s1.5-3.8,2.5-5.3a74.1,74.1,0,0,1,7.2-9.5,86.3,86.3,0,0,1,8.6-8.5c3.2-2.7,6.7-5,10.1-7.5a47.2,47.2,0,0,1,10.5-5.9c3.9-1.4,8.2-2.2,12.2-3.2l5.8-1.3c1-.2,3.5-.7,2.3-2.2a18,18,0,0,0-2-1.9L210.2,30c-1.6-1.2-3.4-2.2-5-3.3l-3.6-2.9c-1.5-1.2-2.9-2.5-4.4-3.6A28.1,28.1,0,0,0,186.5,15c-3.7-.9-7.3-1.6-11-.4a32.8,32.8,0,0,0-10.2,5.6,48.4,48.4,0,0,0-8,7c-7.4,8.5-13.5,18-19.6,27.5-1.5,2.3-2.8,4.7-4.3,7s-2.4,4.5-4.8,4.8a2.2,2.2,0,0,1-2.2-.9c-.8-1.1-.5-2.3-.2-3.5a40.4,40.4,0,0,1,3.5-7.6,77.4,77.4,0,0,1,9.2-13.6c3.5-4.5,7.3-8.8,11.1-13s7.5-7.9,11.4-11.7c2-1.8,3.9-3.6,6-5.2l3-2.1,1.9-1.2a6.4,6.4,0,0,0,1.3-1c1.1-1.8-4.3-2.3-5.3-2.5-2.7-.5-5.3-.6-7.9-.9s-4.9-.7-7.3-1.1-5.4-.5-8.2-.7c-4.9-.2-10.4-.6-15.2.7s-10.1,3.9-13.6,8.2a43,43,0,0,0-4.4,6.7c-1.3,2.4-2.6,4.7-3.7,7.2-2.1,5.1-3.9,10.3-5.5,15.6s-2.8,10.5-4.3,15.7a23.5,23.5,0,0,1-2.9,6.9c-.9,1.3-3.2,4.7-4.6,2.1a12.1,12.1,0,0,1-.8-3.4,25.8,25.8,0,0,1-.4-3.9c-.1-2.8-.2-5.5-.1-8.2a43.7,43.7,0,0,1,.9-8.1,71.9,71.9,0,0,1,2.4-7.9,87,87,0,0,1,7.4-14.6A46.3,46.3,0,0,1,110.8,6.3l3.3-2.6c.3-.3.7-.6.7-1.1s-.7-.9-1.3-.8c-3.2.5-6.3,1.3-9.5,1.7l-6.4.9A138.2,138.2,0,0,0,78.5,8.5L73.8,10l-1.9.5-2.2.8c-3.1,1.2-6.2,2.4-9.2,3.9a87.5,87.5,0,0,0-16.3,9.9A87.5,87.5,0,0,0,30.8,38.9c-3.9,4.8-7.5,10-9.4,16a37.9,37.9,0,0,0-1.2,18.6,36.2,36.2,0,0,0,3.1,8.9A29.3,29.3,0,0,0,29,89.8a41.2,41.2,0,0,0,7.2,5.9,23.9,23.9,0,0,0,8.4,3.9c6.4,1.5,12.9.6,19.3-.1l4.7-.3h-.2c2-.1,4-.2,6-.1a13.6,13.6,0,0,1,5.2,1.2,51.4,51.4,0,0,1-8.8.7,68.2,68.2,0,0,0-9,.7c-2.9.4-5.7,1.5-8.7,2l-3.7.7a26.2,26.2,0,0,0-4,1.1,56.7,56.7,0,0,0-8.4,3.4l-3.8,1.7c-1.5.7-2.7,1.6-4.2,2.2a112,112,0,0,0-15.2,8.3,60.5,60.5,0,0,0-7,5.2,37.8,37.8,0,0,0-6,6c-.6.8-1.2,1.6-.5,2.7a2.6,2.6,0,0,0,3.3.8A14.8,14.8,0,0,0,6.4,133a24.7,24.7,0,0,1,2.8-2.8,56,56,0,0,1,7.4-5.4l7.7-4.8a47.1,47.1,0,0,1,7.6-4.2c2.7-1.3,5.5-2.5,8.3-3.6a118.6,118.6,0,0,1,19.3-5.7c6.8-1.3,13.6-2.2,20.5-3a32.6,32.6,0,0,1-6.8,2.5l-6.5,1.7a110.1,110.1,0,0,0-12.5,3.4,46.1,46.1,0,0,0-11.8,6.7c-3.3,2.6-6.8,5.7-9,9.4-4.5,7.6-3.5,17.6-1,25.7a49.6,49.6,0,0,0,5.9,12,79.6,79.6,0,0,0,8.2,10.9,63.3,63.3,0,0,0,11.2,9.5c2.1,1.4,4.3,2.6,6.4,3.8s4.2,2.5,6.4,3.6a62.8,62.8,0,0,0,10.8,4.4,117.1,117.1,0,0,0,11.8,2.3,103.7,103.7,0,0,0,12.5,1.1c4.1.1,8.2.3,12.3.1,8.2-.2,16.1-2.1,24-3.8l6-1.2c1.3-.2,4.1-.3,2.5-2.2s-5.3-5.9-8.2-8.7a133.1,133.1,0,0,1-17.6-20.6,104.7,104.7,0,0,1-7.9-13.8,65.9,65.9,0,0,1-3-7.3,23.3,23.3,0,0,1-.8-3.6,11.8,11.8,0,0,1-.3-3.7c.1-1,.4-2.1,1.5-2.2a6,6,0,0,1,3.3,1.6c1.8,1.6,2.6,4.2,3.4,6.4,1.9,5.1,4.1,10,6.3,15a114.2,114.2,0,0,0,8.9,15.6,63.3,63.3,0,0,0,6.1,8.3c2.3,2.4,4.7,4.8,7.1,7a41.4,41.4,0,0,0,8.1,5.8,17.1,17.1,0,0,0,8.6,1.5c3.5-.3,6.9-1.5,10.2-2.5l9.8-3.4a91.4,91.4,0,0,0,18-8.9l2.5-1.5a21.2,21.2,0,0,0,2-1.2c.5-.5.6-1.3-.1-1.6a8.6,8.6,0,0,0-2.3-.2,16.7,16.7,0,0,1-4.5-1.3c-1.6-.5-3-1.4-4.5-2h.1c-4.3-2-8.7-3.6-12.8-5.9a101,101,0,0,1-11.5-7.8c-1.8-1.4-3.8-2.7-5.5-4.2s-3.4-3.3-5.1-4.9c-3.2-3.2-6.1-6.7-9.3-9.9a71.5,71.5,0,0,1-5.3-5.7l-2.4-2.8a7.7,7.7,0,0,1-1.7-2.9c2.7.8,5.1,3.1,7.4,4.8a63.9,63.9,0,0,1,6.6,6.2l6.4,6.3c2.1,2,4.3,3.8,6.4,5.7A97.6,97.6,0,0,0,185,161a67.5,67.5,0,0,0,16.7,7.4,22.6,22.6,0,0,0,17.1-1.9A25,25,0,0,0,225,161c2.1-2.2,4.2-4.5,6.1-6.8.5-.5.9-1.2,1.4-1.6s.5-.2.7-.6a1,1,0,0,0-.8-1.3h-.9l-1.4-.5c-3-.9-6.1-1.8-9.2-2.5s-5.9-1-8.8-1.9c-1.3-.4-2.6-.6-3.9-1.1l-4.3-1.7a36.2,36.2,0,0,1-4.5-2l-4.6-2.2c-2.8-1.6-5.8-3-8.5-4.8s-5-3.7-7.4-5.7a28.5,28.5,0,0,1-3.4-3.6,15.9,15.9,0,0,1-2.6-4.1,12.5,12.5,0,0,1,4.5,1.8c1.4.8,2.7,1.7,4,2.6s4.5,3.5,6.7,5.3c4.6,3.9,9.2,7.8,14.6,10.6a39.5,39.5,0,0,0,10.6,3.3l5.2,1a33.2,33.2,0,0,0,6.3.2c3.8-.3,7.8-1.1,11-3.4s5.1-5.9,7.1-9.2c1-1.7,2-3.4,2.9-5.2s1.6-3.8,2.5-5.7a31.8,31.8,0,0,1,6.9-9,18.8,18.8,0,0,1,2.3-1.6c.6-.3,1.6-.4,2.1-1S259.6,108.6,259.5,107.9Z" style="fill:#fff; fill-opacity:0"/><path d="M136,172.2h0Z" style="fill:lime"/><path d="M157.3,27.2Z" style="fill:lime"/><polygon points="157.4 27.1 157.4 27.1 157.4 27.1 157.4 27.1" style="fill:lime"/><polygon points="213.3 144.1 213.3 144.1 213.2 144.1 213.3 144.1" style="fill:lime"/><polygon points="42.6 93.6 42.6 93.6 42.6 93.6 42.6 93.6" style="fill:#c5a45a"/><path d="M165.1,130Z" style="fill:#c5a45a"/><path d="M70.6,192.8a.1.1,0,0,0-.1-.1h.1Z" style="fill:#c5a45a"/><polygon points="222.9 120 222.9 120 222.9 120 222.9 120" style="fill:#c5a45a"/><path d="M172.1,27.3Z" style="fill:#c5a45a"/><path d="M259.5,107.9a24.6,24.6,0,0,1-.2-2.8c-.1-1.8-.5-3.7-.7-5.5a43.4,43.4,0,0,0-1.1-6.1,38.6,38.6,0,0,0-4.7-11.1c-1.8-3.2-3.7-6.8-7.1-8.4a23.9,23.9,0,0,0-5.3-1.9,49.1,49.1,0,0,0-5.3-.4,43,43,0,0,0-12.4,1.4,83.6,83.6,0,0,0-12,3.8c-3.8,1.6-7.5,3.5-11.2,5.2a21.6,21.6,0,0,1-5.6,1.8c-.4.1-2.1.4-2.3-.2s.7-1.4.9-1.7a37.3,37.3,0,0,1,9.2-7.6,57.2,57.2,0,0,1,10.6-5.7c7.6-2.9,15.8-3.2,23.9-2.9,2,.1,4,.4,6,.3a4.1,4.1,0,0,0,1.9-.5c1-.7-.1-1.7-.6-2.4a48.4,48.4,0,0,1-3.3-4.6l-3.6-4.9a102.4,102.4,0,0,0-7.6-8.5,17.8,17.8,0,0,0-10-5.3,28.7,28.7,0,0,0-12,1.4,67.9,67.9,0,0,0-10.8,4.4,69.3,69.3,0,0,0-10.1,6.9c-3.2,2.5-6.4,5.3-9.4,8.1l-8.9,8.8c-1.4,1.4-3,2.7-4.5,4a31.6,31.6,0,0,1-4.3,3.9c-.9.6-3.6,1.7-3.5-.2s1.5-3.8,2.5-5.3a74.1,74.1,0,0,1,7.2-9.5,86.3,86.3,0,0,1,8.6-8.5c3.2-2.7,6.7-5,10.1-7.5a47.2,47.2,0,0,1,10.5-5.9c3.9-1.4,8.2-2.2,12.2-3.2l5.8-1.3c1-.2,3.5-.7,2.3-2.2a18,18,0,0,0-2-1.9L210.2,30c-1.6-1.2-3.4-2.2-5-3.3l-3.6-2.9c-1.5-1.2-2.9-2.5-4.4-3.6A28.1,28.1,0,0,0,186.5,15c-3.7-.9-7.3-1.6-11-.4a32.8,32.8,0,0,0-10.2,5.6,48.4,48.4,0,0,0-8,7c-7.4,8.5-13.5,18-19.6,27.5-1.5,2.3-2.8,4.7-4.3,7s-2.4,4.5-4.8,4.8a2.2,2.2,0,0,1-2.2-.9c-.8-1.1-.5-2.3-.2-3.5a40.4,40.4,0,0,1,3.5-7.6,77.4,77.4,0,0,1,9.2-13.6c3.5-4.5,7.3-8.8,11.1-13s7.5-7.9,11.4-11.7c2-1.8,3.9-3.6,6-5.2l3-2.1,1.9-1.2a6.4,6.4,0,0,0,1.3-1c1.1-1.8-4.3-2.3-5.3-2.5-2.7-.5-5.3-.6-7.9-.9s-4.9-.7-7.3-1.1-5.4-.5-8.2-.7c-4.9-.2-10.4-.6-15.2.7s-10.1,3.9-13.6,8.2a43,43,0,0,0-4.4,6.7c-1.3,2.4-2.6,4.7-3.7,7.2-2.1,5.1-3.9,10.3-5.5,15.6s-2.8,10.5-4.3,15.7a23.5,23.5,0,0,1-2.9,6.9c-.9,1.3-3.2,4.7-4.6,2.1a12.1,12.1,0,0,1-.8-3.4,25.8,25.8,0,0,1-.4-3.9c-.1-2.8-.2-5.5-.1-8.2a43.7,43.7,0,0,1,.9-8.1,71.9,71.9,0,0,1,2.4-7.9,87,87,0,0,1,7.4-14.6A46.3,46.3,0,0,1,110.8,6.3l3.3-2.6c.3-.3.7-.6.7-1.1s-.7-.9-1.3-.8c-3.2.5-6.3,1.3-9.5,1.7l-6.4.9A138.2,138.2,0,0,0,78.5,8.5L73.8,10l-1.9.5-2.2.8c-3.1,1.2-6.2,2.4-9.2,3.9a87.5,87.5,0,0,0-16.3,9.9A87.5,87.5,0,0,0,30.8,38.9c-3.9,4.8-7.5,10-9.4,16a37.9,37.9,0,0,0-1.2,18.6,36.2,36.2,0,0,0,3.1,8.9A29.3,29.3,0,0,0,29,89.8a41.2,41.2,0,0,0,7.2,5.9,23.9,23.9,0,0,0,8.4,3.9c6.4,1.5,12.9.6,19.3-.1l4.7-.3h-.2c2-.1,4-.2,6-.1a13.6,13.6,0,0,1,5.2,1.2,51.4,51.4,0,0,1-8.8.7,68.2,68.2,0,0,0-9,.7c-2.9.4-5.7,1.5-8.7,2l-3.7.7a26.2,26.2,0,0,0-4,1.1,56.7,56.7,0,0,0-8.4,3.4l-3.8,1.7c-1.5.7-2.7,1.6-4.2,2.2a112,112,0,0,0-15.2,8.3,60.5,60.5,0,0,0-7,5.2,37.8,37.8,0,0,0-6,6c-.6.8-1.2,1.6-.5,2.7a2.6,2.6,0,0,0,3.3.8A14.8,14.8,0,0,0,6.4,133a24.7,24.7,0,0,1,2.8-2.8,56,56,0,0,1,7.4-5.4l7.7-4.8a47.1,47.1,0,0,1,7.6-4.2c2.7-1.3,5.5-2.5,8.3-3.6a118.6,118.6,0,0,1,19.3-5.7c6.8-1.3,13.6-2.2,20.5-3a32.6,32.6,0,0,1-6.8,2.5l-6.5,1.7a110.1,110.1,0,0,0-12.5,3.4,46.1,46.1,0,0,0-11.8,6.7c-3.3,2.6-6.8,5.7-9,9.4-4.5,7.6-3.5,17.6-1,25.7a49.6,49.6,0,0,0,5.9,12,79.6,79.6,0,0,0,8.2,10.9,63.3,63.3,0,0,0,11.2,9.5c2.1,1.4,4.3,2.6,6.4,3.8s4.2,2.5,6.4,3.6a62.8,62.8,0,0,0,10.8,4.4,117.1,117.1,0,0,0,11.8,2.3,103.7,103.7,0,0,0,12.5,1.1c4.1.1,8.2.3,12.3.1,8.2-.2,16.1-2.1,24-3.8l6-1.2c1.3-.2,4.1-.3,2.5-2.2s-5.3-5.9-8.2-8.7a133.1,133.1,0,0,1-17.6-20.6,104.7,104.7,0,0,1-7.9-13.8,65.9,65.9,0,0,1-3-7.3,23.3,23.3,0,0,1-.8-3.6,11.8,11.8,0,0,1-.3-3.7c.1-1,.4-2.1,1.5-2.2a6,6,0,0,1,3.3,1.6c1.8,1.6,2.6,4.2,3.4,6.4,1.9,5.1,4.1,10,6.3,15a134.8,134.8,0,0,0,8.9,15.7h0a63.3,63.3,0,0,0,6.1,8.3c2.3,2.4,4.7,4.8,7.1,7a41.4,41.4,0,0,0,8.1,5.8,17.1,17.1,0,0,0,8.6,1.5c3.5-.3,6.9-1.5,10.2-2.5l9.8-3.4a91.4,91.4,0,0,0,18-8.9l2.5-1.5a21.2,21.2,0,0,0,2-1.2c.5-.5.6-1.3-.1-1.6a8.6,8.6,0,0,0-2.3-.2,16.7,16.7,0,0,1-4.5-1.3c-1.6-.5-3-1.4-4.5-2h.1c-4.3-2-8.7-3.6-12.8-5.9a101,101,0,0,1-11.5-7.8c-1.8-1.4-3.8-2.7-5.5-4.2s-3.4-3.3-5.1-4.9c-3.2-3.2-6.1-6.7-9.3-9.9a71.5,71.5,0,0,1-5.3-5.7l-2.4-2.8a7.7,7.7,0,0,1-1.7-2.9c2.7.8,5.1,3.1,7.4,4.8a63.9,63.9,0,0,1,6.6,6.2l6.4,6.3c2.1,2,4.3,3.8,6.4,5.7A97.6,97.6,0,0,0,185,161a67.5,67.5,0,0,0,16.7,7.4,22.6,22.6,0,0,0,17.1-1.9A25,25,0,0,0,225,161c2.1-2.2,4.2-4.5,6.1-6.8.5-.5.9-1.2,1.4-1.6s.5-.2.7-.6a1,1,0,0,0-.8-1.3h-.9l-1.4-.5c-3-.9-6.1-1.8-9.2-2.5s-5.9-1-8.8-1.9c-1.3-.4-2.6-.6-3.9-1.1l-4.3-1.7a36.2,36.2,0,0,1-4.5-2l-4.6-2.2c-2.8-1.6-5.8-3-8.5-4.8s-5-3.7-7.4-5.7a28.5,28.5,0,0,1-3.4-3.6,15.9,15.9,0,0,1-2.6-4.1,12.5,12.5,0,0,1,4.5,1.8c1.4.8,2.7,1.7,4,2.6s4.5,3.5,6.7,5.3c4.6,3.9,9.2,7.8,14.6,10.6a39.5,39.5,0,0,0,10.6,3.3l5.2,1a33.2,33.2,0,0,0,6.3.2c3.8-.3,7.8-1.1,11-3.4s5.1-5.9,7.1-9.2c1-1.7,2-3.4,2.9-5.2s1.6-3.8,2.5-5.7a31.8,31.8,0,0,1,6.9-9,18.8,18.8,0,0,1,2.3-1.6c.6-.3,1.6-.4,2.1-1S259.6,108.6,259.5,107.9Zm-2.1-2.6a34.7,34.7,0,0,0-9.1-1.6,21,21,0,0,1,9,.2C257.3,104.4,257.4,104.9,257.4,105.3Zm-.4-3.1c-4.8-1.2-9.6-.1-14.4.6,4.5-1.9,9.1-3.9,14.1-3.4Zm-.5-4.5c-4-.3-7.8.8-11.5,2.2l-6.9,2.8c5.3-3.5,11-8.5,17.8-8Zm-5.4,14.7h-.3a22.7,22.7,0,0,1-10-1.3c-3.2-1.1-5.9-3.3-8.6-5.4l5.4.4a10.6,10.6,0,0,1,4.8,1.9C245.2,109.9,247.7,111.8,251.1,112.4ZM255.5,93a18.9,18.9,0,0,0-8.7,2.1,52.1,52.1,0,0,0-7.8,4.7c-1.1.8-2.3,1.5-3.5,2.2l-1.9,1c-.7.4-1,.3-1.9.2a62.6,62.6,0,0,0,5.7-4.5,37.2,37.2,0,0,1,6.1-4.3,33.8,33.8,0,0,1,6.9-2.6,12.2,12.2,0,0,1,3.3-.2c.3,0,1.1,0,1.3.2S255.4,92.6,255.5,93Zm-25.3,8.9a6.4,6.4,0,0,1-1.8,1,12.7,12.7,0,0,1-2.7-.2c1.9-1.3,3.5-2.8,5.2-4.1s3.8-2.8,5.8-4.1A27.2,27.2,0,0,1,250,90.2a28.7,28.7,0,0,0-6.4,2.3,43.1,43.1,0,0,0-9.1,6.2A43.5,43.5,0,0,1,230.2,101.9ZM254,88.8a32.2,32.2,0,0,0-7.6.1c-5.2.7-9.9,3.5-14.2,6.4l-6.1,4.6a27,27,0,0,1-3.3,2.2c-1,.6-2.3.3-3.4.2a94.5,94.5,0,0,0,7.6-6.6,59,59,0,0,1,8.7-6.1,33.3,33.3,0,0,1,9.8-3.8,18,18,0,0,1,5.2-.3,2.5,2.5,0,0,1,2.1.8A19.2,19.2,0,0,1,254,88.8Zm-5.9-7.9c.6.1,1.5,0,2,.5a10.1,10.1,0,0,1,1.4,2.5c-2.1-.5-4.5,0-6.6.4a29.9,29.9,0,0,0-6.6,2.1,55.1,55.1,0,0,0-13.5,8.8l-5.9,5-1.5,1.1a11.3,11.3,0,0,1-1.3,1,6.7,6.7,0,0,1-2,0h-2.2c4.3-4.4,8.7-8.9,13.9-12.3a86.9,86.9,0,0,1,8-4.4,71.4,71.4,0,0,1,9-3.8A19,19,0,0,1,248.1,80.9Zm-8.8.4a77.8,77.8,0,0,0-9.3,4.2,63,63,0,0,0-8.8,5.7,89.3,89.3,0,0,0-7.4,6.4l-3.5,3.7c-.3.2-.7.8-.9.9h-3.8c2.6-2.5,4.9-5.3,7.5-7.8a54.7,54.7,0,0,1,8.3-6.8,47.9,47.9,0,0,1,9.4-5.2,41.1,41.1,0,0,1,10.2-3,19.4,19.4,0,0,1,6.8,0A27.7,27.7,0,0,0,239.3,81.3Zm6.7-3.9a31.6,31.6,0,0,0-6.9.5,38.1,38.1,0,0,0-6.8,2,56,56,0,0,0-16.5,9.7A82.8,82.8,0,0,0,209,96l-3.1,3.3-1.5,1.7c-.3.3-.8,1-1.2,1.1h.1c-.3.2-1.1,0-1.6,0h-1.9a61.5,61.5,0,0,0,7.7-7.6,70.6,70.6,0,0,1,7.9-7.6,45.3,45.3,0,0,1,18.9-9.3,38.1,38.1,0,0,1,5.9-.7C242,76.7,244.3,76.5,246,77.4ZM230.7,74c4.3-.8,9.1-.7,13.1,1.1a38.2,38.2,0,0,0-15.7,2.3c-7,2.5-13.1,7-18.5,12-2.7,2.6-5.1,5.4-7.8,8a48.2,48.2,0,0,1-4.3,3.6c-.8.5-1.3,1-2.2,1h-2.8c6.8-4.5,11.7-11,17.6-16.6S222.9,75.5,230.7,74ZM221,75.6a55.1,55.1,0,0,0-9.1,6c-3.3,2.5-5.9,5.5-8.8,8.4a115,115,0,0,1-8.6,8.5c-1.4,1.1-3,2.1-4.5,3.1s-1.8.2-2.7.2h-3.1a77.8,77.8,0,0,0,9.6-6.6,92.3,92.3,0,0,0,8-7.3C207.2,82.5,213.5,77.7,221,75.6ZM206.9,81c-5.4,4.1-9.8,9.3-15.2,13.5a81.1,81.1,0,0,1-8.3,5.7,23.9,23.9,0,0,0-2.2,1.2,5.2,5.2,0,0,1-2.5.2l-5.5-.3c5.9-2.5,11.4-6.3,16.5-10.1,2.7-2,5.5-3.9,8.3-5.7A49.5,49.5,0,0,1,206.9,81Zm-12.6,4.8c-4.5,3.1-8.8,6.6-13.5,9.4-2.3,1.4-4.7,2.8-7.2,4l-3.7,1.7c-1.1.5-2.8.1-4.1,0l1.3-.9c4.2-3.1,8.1-6.5,12.7-9A58.5,58.5,0,0,1,194.3,85.8Zm-4.2-1.2.3.4A51.4,51.4,0,0,0,172,94.2l4-3.4,2.6-1.7a18.6,18.6,0,0,1,1.9-1.1c3.1-2.2,6.6-3.8,9.8-5.8C189.9,82.9,189.5,83.9,190.1,84.6Zm50.6-22.1c.5.5.9,1.2,1.4,1.8a40.2,40.2,0,0,1-4.9-.2l-5.3-.2a85.5,85.5,0,0,0-10.1.6,51,51,0,0,0-18.4,6.7c-1.5,1-3.1,1.9-4.6,3L194,77.3a33.5,33.5,0,0,1,5.9-6,48.3,48.3,0,0,1,8-4.5,53.2,53.2,0,0,1,17.4-4.9,56.2,56.2,0,0,1,9.2-.4,31.3,31.3,0,0,1,4.3.4C239.5,62,240.3,62,240.7,62.5Zm-2.1-3.2c.3.2.5.8.7,1.1a45.6,45.6,0,0,0-13.3-.2,59.1,59.1,0,0,0-18,4.7,45.7,45.7,0,0,0-8.4,4.6,33.9,33.9,0,0,0-6.7,6.4,34.2,34.2,0,0,1-7.7,7l-5.7,3.7a38.1,38.1,0,0,0-6.2,4.3c-3.7,3-7,6.2-10.8,9.1h.2l-1.1.7a7.5,7.5,0,0,1-1.5,0,64.6,64.6,0,0,0,7.1-6.7l3.3-3.7,1.3-1.7a7.2,7.2,0,0,1,2.1-1.2,53.1,53.1,0,0,0,8.1-4.4,84.2,84.2,0,0,0,7.1-6.1c2.8-2.5,5.5-5.1,8.4-7.3h.1l.3-.2h0a45.5,45.5,0,0,1,9.6-5.8,61.4,61.4,0,0,1,10.2-3.5,44.8,44.8,0,0,1,11-1.4,51.9,51.9,0,0,1,5.6.1l2.9.4A5.8,5.8,0,0,1,238.6,59.3Zm-3-4c.6.3,1.1,1.5,1.5,2a37.8,37.8,0,0,0-6.7-.5,42.9,42.9,0,0,0-7.2.4,59.2,59.2,0,0,0-13.9,3.6,61.3,61.3,0,0,0-12,6.7c-3.8,2.8-7,6-10.5,9.1s-7.5,6.5-12.2,8.5a12.8,12.8,0,0,1,2.6-2.6l3.6-2.3a40.7,40.7,0,0,0,6.5-5.3c2.1-2,3.9-4.1,6-6a68.7,68.7,0,0,1,6.6-5.5,48.1,48.1,0,0,1,17.6-8.2,46.9,46.9,0,0,1,10.6-.8l5.1.4A9.3,9.3,0,0,1,235.6,55.3ZM187.8,72a51.4,51.4,0,0,1-8,6.8c2.6-3.2,5.4-6.2,8.3-9.2a86.5,86.5,0,0,1,8.9-8.2,48.2,48.2,0,0,1,21.7-9.5,46.3,46.3,0,0,1,6.5-.4,17.6,17.6,0,0,1,6.4,1.5,47.1,47.1,0,0,0-13,.4A45.5,45.5,0,0,0,201.8,60,89.5,89.5,0,0,0,187.8,72Zm44.7-20.5a22.4,22.4,0,0,0-9.2-1.7,42.8,42.8,0,0,0-9.5,1.5,50.5,50.5,0,0,0-17.1,8,99.1,99.1,0,0,0-14,12.7c-4.4,4.7-8.6,9.7-12.6,14.7-2.3,2.9-4.8,5.7-7.4,8.4l-3.8,3.5a8.7,8.7,0,0,1-2.2,1.7c-.6.3-1.7,0-2.4,0a34.2,34.2,0,0,0,7.1-6.1l6.3-7.3c4.4-5.1,7.9-10.8,12.4-15.7s9.3-9.8,15-13.5c2.8-1.8,5.5-3.6,8.5-5.2a47.4,47.4,0,0,1,7.4-2.9c3.5-1,7.3-1.8,11-1.3a31.3,31.3,0,0,1,5.3,1.2c1,.2,1.9.6,2.9.9A6.1,6.1,0,0,1,232.5,51.5Zm-2.7-3a39.3,39.3,0,0,0-10.1-2,33.9,33.9,0,0,0-9.9,1.8c-6.2,1.9-11.6,5.3-16.9,9s-10.4,8.7-15,13.8c-2.2,2.5-4.1,5.2-6.1,7.9s-4.2,5.4-6.5,7.9-4.5,5.7-7.1,8.2-2.8,2.4-4.3,3.5l-2.3,1.4c-.7.5-1.9.3-2.8.3a79.7,79.7,0,0,0,13.3-11.2,71.1,71.1,0,0,0,5.5-6.8c1.8-2.2,3.7-4.4,5.3-6.7v.2a126.6,126.6,0,0,1,8.9-10.5c1.5-1.6,3.2-3.1,4.8-4.6a61.7,61.7,0,0,1,4.6-4.3c3.3-2.9,7.2-4.9,11.1-6.9a37.3,37.3,0,0,1,13.1-3.8,20,20,0,0,1,7.3.7l3.6.9,1.7.6A6,6,0,0,1,229.8,48.5Zm-41.9,5a57.3,57.3,0,0,1,18.1-10,29.5,29.5,0,0,1,11.4-2,14.9,14.9,0,0,1,9.9,4.5,39.7,39.7,0,0,0-8.9-2.1,28.8,28.8,0,0,0-10.5,1.5,55.6,55.6,0,0,0-17.8,9.5c-1.3,1.1-2.5,2.4-3.7,3.5l-3.9,3.7c-2.4,2.4-4.6,5-6.9,7.5-4.7,5.4-8.7,11.3-13.3,16.7a50.1,50.1,0,0,1-8.5,8.1A54.6,54.6,0,0,1,149,98l-2.2,1.6c-.4.2-.8.6-1.3.6h-1.4a111.5,111.5,0,0,0,16.6-14.1,205.9,205.9,0,0,0,13.5-15.9C178.6,64.6,182.4,58.2,187.9,53.5ZM163.1,78.1l7.2-8.2c2.8-3,5.6-5.9,8.6-8.7-2.1,2.7-4.1,5.6-6.2,8.3s-4.7,5.8-7.1,8.6-4.9,5.6-7.5,8.2-5.2,4.8-7.9,7.1l-4.7,3.7L143,98.9a5,5,0,0,1-2.7,1.4c2.6-2.3,5-4.5,7.4-7s4.9-5.3,7.6-7.8A78.3,78.3,0,0,0,163.1,78.1Zm-2.9.7a74.3,74.3,0,0,1-5.9,5.3c-2,1.8-3.9,3.8-5.7,5.7s-3.8,3.9-5.8,5.8l-2.9,2.6-1.3,1.2-.7.7a1.6,1.6,0,0,1-1,.2h-2.6c2-1.9,3.7-4.3,5.6-6.4a70.2,70.2,0,0,1,6.1-6.1C150.2,84.1,155.6,81.9,160.2,78.8Zm-4.7,1c-2.4,1.4-4.8,2.5-7.1,4a54.6,54.6,0,0,0-6.4,5.3,72.1,72.1,0,0,0-5.9,6.5,41.5,41.5,0,0,1-2.7,3.2c-.4.4-1,1.2-1.5,1.4a12.8,12.8,0,0,1-1.9-.1,56.9,56.9,0,0,1,4.9-6.1c2-2,4.1-3.8,6.2-5.7,4.1-3.7,8.7-6.9,12.7-10.8a2.1,2.1,0,0,0,.3,1.2A2.5,2.5,0,0,0,155.5,79.8Zm-.1-2.3h0Zm-.3-4.1a18,18,0,0,1-4.2,4.5c-4.3,3.7-8.8,7.2-13,11.1a60.4,60.4,0,0,0-5.7,5.6l-2.5,3.1a17.7,17.7,0,0,0-1.2,1.7c-.3.3-.3.4-.7.5h-1a132.7,132.7,0,0,1,14.7-17.1c5.4-5.4,11.4-10,17.2-15A49.4,49.4,0,0,0,155.1,73.4ZM161.5,63c-1.8,1.6-3.5,3.3-5.4,4.8a184.9,184.9,0,0,0-17,14.9q-3.9,3.9-7.5,8.1a91.7,91.7,0,0,0-6.6,8.8h-1.4a92,92,0,0,0,6.9-9.5c1-1.7,2.2-3.3,3.1-5a41.9,41.9,0,0,1,3.1-5,89.4,89.4,0,0,1,8.8-7.5c3.1-2.5,6.5-4.5,9.7-6.7s7.4-4.8,11.2-7.1C164.9,60.2,163.2,61.5,161.5,63ZM138,123.4a14.5,14.5,0,0,1,2.1,2.2,12.9,12.9,0,0,1,.9,1.6,97.5,97.5,0,0,0-8.4-5.9,58.9,58.9,0,0,1-8.3-5.8c-2.5-2.3-5.1-4.6-7.5-7a64.7,64.7,0,0,0-7.6-7.2c1.5,0,3.3-.3,4.6.6a32.4,32.4,0,0,1,3.5,2.7c2.5,2.1,4.7,4.5,7,6.8C128.6,115.7,133.4,119.5,138,123.4Zm-9-10c-4.2-3.9-7.9-8.4-12.5-11.8l6.1.6c8.1,5.9,13.3,14.9,20,22.2C137.9,120.9,133.4,117.3,129,113.4Zm14.9-44.8a105.9,105.9,0,0,1,9.3-11.9c3.4-3.9,6.8-7.8,10.4-11.5a85.6,85.6,0,0,1,12-9.6,42.5,42.5,0,0,1,13.5-6.2,24.6,24.6,0,0,1,15.6,1.1,48.3,48.3,0,0,0-14.7-.1c-4.9.6-9.1,3-13.1,5.9a108.4,108.4,0,0,0-11.6,9.9c-3.6,3.5-7.3,7-10.7,10.8S147.7,65,143.9,68.6Zm46.4-28.1a61.7,61.7,0,0,0-7.7,4.8L175,50.8a85.8,85.8,0,0,1-7.2,5.1c4.4-4.3,8.3-9,13.7-12.2a45.9,45.9,0,0,1,17.3-6.1A37.1,37.1,0,0,0,190.3,40.5Zm15.5-5.3-2.9.2-5.3.7a60.6,60.6,0,0,0-10.1,2.8,43.1,43.1,0,0,0-17,11.9,65.1,65.1,0,0,1-8.5,8.1L159.4,61a63.3,63.3,0,0,1-6.1,3.9c3.2-3,6.5-5.8,9.5-8.9s5.6-6.2,8.6-9c6.2-5.9,13.9-10.7,22.5-11.9a45.1,45.1,0,0,1,14.2.2A17.7,17.7,0,0,1,205.8,35.2Zm-3-2.1a44.5,44.5,0,0,0-7.3.2,36.2,36.2,0,0,0-14.2,4.4c-8.9,4.6-14.9,12.5-21.9,19.4-4,3.9-8.3,7.6-12.6,11.1,2.8-2.6,5.1-5.6,7.7-8.4s5.3-5.9,8.2-8.7c5.4-5.3,11-10.7,17.4-15a25.9,25.9,0,0,1,11.1-4.2.1.1,0,0,0-.1.1h.2a50.3,50.3,0,0,1,9.5-.3,38.6,38.6,0,0,1,8.9,2.2ZM201.5,26a3.8,3.8,0,0,1,1.2.9l3,2.2a27.5,27.5,0,0,0-13.6-2.2c-4.6.5-9.2,2.5-13.3,4.6a27.9,27.9,0,0,1,13.5-5.6,30.4,30.4,0,0,1,7.4-.2A3.6,3.6,0,0,1,201.5,26Zm-4.7-3.9c.4.2.8.8,1.2,1l.9.8a31.5,31.5,0,0,0-16,3.1,32.6,32.6,0,0,0-8.9,6.7l-2,2.2a15.6,15.6,0,0,1-2,1.6c-1.6,1.2-3.2,2.4-4.7,3.7,4.1-5.5,8-10.9,14.1-14.4A50.5,50.5,0,0,1,189,23a21.8,21.8,0,0,1,5.2-.9A11.3,11.3,0,0,1,196.8,22.1Zm-4.6-3a6.3,6.3,0,0,1,2.4,1.3,31,31,0,0,0-11.5,2.9,33.1,33.1,0,0,0-8.2,4.6,34.2,34.2,0,0,0-6.9,6.8c-1.7,2.3-3.6,4.6-5.1,7.1l-2.5,3.8a25.8,25.8,0,0,1-3.1,3.6c.7-1.5,1.3-3.1,1.9-4.6a38.3,38.3,0,0,1,2.5-4.4,51.8,51.8,0,0,1,6-8.7,40.3,40.3,0,0,1,16.5-11,36.5,36.5,0,0,1,5.5-1.3A10.5,10.5,0,0,1,192.2,19.1Zm-3-1.5a32.7,32.7,0,0,0-9.6,3.1A41,41,0,0,0,165.1,32a72.5,72.5,0,0,0-5.3,7.9,80.5,80.5,0,0,0-4.1,8.9c-.6,1.4-.9,3.2-1.9,4.4l-3.7,4.3a47.7,47.7,0,0,0,2.2-5.2l2.1-5.8a61.5,61.5,0,0,1,5.2-11,45.5,45.5,0,0,1,7.4-8.9,42.4,42.4,0,0,1,9.8-6.4,45.4,45.4,0,0,1,6.1-2.4C184.9,17.3,187.3,16.9,189.2,17.6Zm-28.5,8.8a43.2,43.2,0,0,1,9.6-7.4,20.7,20.7,0,0,1,6.2-2.9,13.8,13.8,0,0,1,6.7,0,28.1,28.1,0,0,0-4.9,1.6,41.6,41.6,0,0,0-4.7,2.4,44.8,44.8,0,0,0-4.7,2.8,41.5,41.5,0,0,0-7.7,7.4c-4.7,5.5-7.1,12.3-9.6,18.9L149.4,55c-.7,1.8-1.8,3.5-2.6,5.2,2.2-7.9,4.2-15.9,7.4-23.5A39.8,39.8,0,0,1,160.7,26.4ZM148.3,42.6c1.4-2.3,2.7-4.9,4.6-6.9A116.5,116.5,0,0,0,147.2,52c-.7,2.8-1.5,5.6-2.2,8.4s-.6,2.8-1.1,4.1A13.3,13.3,0,0,1,142,68c.5-3,.6-6.1,1-9.1a62.8,62.8,0,0,1,1.9-8.6A37.6,37.6,0,0,1,148.3,42.6ZM138.2,63.4h0a28.1,28.1,0,0,1,5.2-13.9,63.6,63.6,0,0,0-2.5,13.7c-.3,2.3-.5,4.5-.9,6.8a9.5,9.5,0,0,1-.4,1.8,6,6,0,0,1-.9,1.3c-.7,1-1.3,2-1.9,3,.4-2.2.4-4.4.7-6.6S137.9,65.4,138.2,63.4Zm-3,11.6c-.3,2-.5,4.5-1.6,6.2s-2.6,4.2-4.1,6.2c.9-2,1.7-4.1,2.5-6.2a53.1,53.1,0,0,0,1.9-6.5c.9-4.6,1.1-9.6,3-13.9C136,65.5,135.9,70.3,135.2,75Zm-3.4-6.9a23.7,23.7,0,0,1,2.2-3.3c-.7,3-1.1,6-1.7,9a55.4,55.4,0,0,1-2.6,8.8,81.6,81.6,0,0,1-3.6,8,32.7,32.7,0,0,1-4.2,6.9c1.5-4.3,2.9-8.6,4.1-12.9a114.3,114.3,0,0,1,4.2-12.9h0C130.7,70.5,131.2,69.3,131.8,68.1ZM128.7,71A138.8,138.8,0,0,0,124,85.2c-.7,2.4-1.3,4.7-2.1,7a56.9,56.9,0,0,1-2.5,6.9l-5.1-.4c3.3-4.3,5.1-9.2,7-14.2A59.2,59.2,0,0,1,128.7,71Zm-.4-2.3c-.8,1.1-1.6,2.1-2.3,3.2a69.8,69.8,0,0,0-7.1,14.2,44.8,44.8,0,0,1-2.9,6.8c-1.1,2-2.6,3.8-3.8,5.7h-2.4c3.7-4.4,5.9-10,8.4-15.2a50.9,50.9,0,0,1,4.2-8C124,73,125.9,70.3,128.3,68.7Zm-1.8-.7a35.4,35.4,0,0,0-6.3,7.6,85.9,85.9,0,0,0-4.8,9.6c-1.4,3-2.9,5.9-4.6,8.8a22.7,22.7,0,0,1-2.6,3.5c-.4.6-.6,1.1-1.4,1.1h-2.5a99.4,99.4,0,0,0,10.5-15.9c1.6-2.9,3.5-5.6,5.2-8.4s1.8-2.8,2.6-4.2,1.2-2.9,1.9-4.4a2.9,2.9,0,0,0,.8,1.3A3.4,3.4,0,0,0,126.5,68Zm18.1-36.4c-6.3,7-12.2,14.1-16.6,22.4a43.7,43.7,0,0,0-3.3,6.9c-.8,2.3-1.9,4.6-2.9,6.9a58.3,58.3,0,0,1-4.9,8.3,71.2,71.2,0,0,0-4.9,8c-1.5,2.7-3,5.3-4.8,7.9l-2.8,3.7L103,97.3c-.4.5-1.1,1-1.3,1.6h-1c2.2-2.7,4.3-5.5,6.3-8.5s3.7-6,5.4-9.1c3.3-6.2,6.2-12.7,9.4-18.9a205.6,205.6,0,0,1,10.6-18.2c2-3,3.9-5.9,6-8.7a106.9,106.9,0,0,1,7.1-8c2.7-2.8,5.6-5.5,8.5-8.1a68.1,68.1,0,0,1,9.5-7.5A249.9,249.9,0,0,0,144.6,31.6Zm14.8-18.7a125.9,125.9,0,0,0-15.8,14.3,91.4,91.4,0,0,0-7.1,8.1c-2.1,2.8-4,5.8-5.9,8.7A205.6,205.6,0,0,0,120,62.2c-3.2,6.2-6,12.6-9.4,18.7-1.9,3.4-3.8,6.6-5.9,9.9-1.1,1.6-2.3,3.2-3.5,4.7l-1.8,2.4a5.8,5.8,0,0,1-1,1.2,2.7,2.7,0,0,1-1.3.2c2.3-2.9,4.1-6,6.2-9.1s4.2-6.2,6-9.4c3.5-6.5,6.2-13.4,9.8-19.8s6.6-13.3,10.9-19.3,9.1-11.6,13.8-17.3a55.6,55.6,0,0,1,8.9-8.6A49.6,49.6,0,0,1,163.6,10,39.3,39.3,0,0,0,159.4,12.9Zm2.7-6.8a23.5,23.5,0,0,1,7,0l-7,1c-2.4.3-4.8.5-7.1.9A25.8,25.8,0,0,1,162.1,6.1ZM153.5,5a13.1,13.1,0,0,1,5.9,0,35.2,35.2,0,0,0-10.3,4.1,35.8,35.8,0,0,1-4.9,2,35.8,35.8,0,0,0-4.9,3L138,15a34.2,34.2,0,0,1,9.9-7.8A27.2,27.2,0,0,1,153.5,5ZM110.3,62.7c1.5-2.5,3.2-4.9,4.7-7.5h0c1.2-1.9,2.4-3.9,3.5-5.9h0c3.4-5.6,6.5-11.4,9.9-17a81,81,0,0,1,5.5-8.4,35.7,35.7,0,0,1,7.2-6.8,46.6,46.6,0,0,1,9.7-5.5l.5-.2a36.8,36.8,0,0,0-7.5,4.8,38.4,38.4,0,0,0-6.1,6,105.9,105.9,0,0,0-9.9,13.9c-3.1,4.9-6.1,9.9-8.9,15s-5.3,10.7-8,15.9A140.7,140.7,0,0,1,101,84.4c1.6-3.6,3.2-7.2,4.7-10.8l2.1-5.5a24.7,24.7,0,0,1,1-2.9c.4-.8.9-1.6,1.4-2.4h.1Zm7-14.4c-1.6,2.5-3.1,5.1-4.7,7.7,1.5-3.3,3.1-6.6,4.7-9.8s3.1-6.3,4.8-9.3,3.8-6.2,5.9-9.1a47.2,47.2,0,0,1,6.8-8,43.9,43.9,0,0,1,9.7-6.9,47.2,47.2,0,0,0-9,7,53,53,0,0,0-6.8,8.8c-4.2,6.3-7.6,13.1-11.5,19.6ZM147,3.5a17.8,17.8,0,0,1,4.6.3h-.2a23.9,23.9,0,0,0-3.7,1.5,34,34,0,0,0-10.4,8.1c-1.4,1.5-2.6,3.3-3.9,4.9s-2.9,3.1-4.2,4.8a40.5,40.5,0,0,1,3-7.5,22.8,22.8,0,0,1,4.6-6.1,21.2,21.2,0,0,1,6.4-4.7A13.4,13.4,0,0,1,147,3.5Zm-4.3-.2a15.2,15.2,0,0,0-3,1.7,29.1,29.1,0,0,0-10.5,13.2,51.5,51.5,0,0,0-2.4,7.6c-.3,1.3-1.5,2.5-2.2,3.6s-1.7,2.6-2.5,3.9c1-6.6,2.2-13,5.6-18.8a29.5,29.5,0,0,1,6.4-7.7A16.6,16.6,0,0,1,138,4.2,8.6,8.6,0,0,1,142.7,3.3Zm-6.4-.1-.9.6c-6.4,3.8-10.5,11-12.7,17.9a79.5,79.5,0,0,0-2.2,10.8,18.5,18.5,0,0,1-1.1,5.3c-.9,1.9-1.9,3.7-2.9,5.5,1.1-6.3.9-12.8,2-19.1s4.3-12.3,9-16.2C129.9,5.9,132.9,3.4,136.3,3.2Zm-7.4,1.5a27.9,27.9,0,0,0-6.8,6.9,38.9,38.9,0,0,0-4.4,9.2,47.4,47.4,0,0,0-1.6,10c-.3,3.2-.7,6.5-.9,9.8a24.5,24.5,0,0,1-1,5.4c-.6,1.9-1.4,3.8-2,5.7.5-7-.1-13.9,1.1-20.8s3-13.5,7.1-19.1A20.2,20.2,0,0,1,128.9,4.7ZM108.9,39c.3-7.3,1-15.1,4.7-21.7A29.7,29.7,0,0,1,121,8.2a39.8,39.8,0,0,0-9,19.9c-.6,3.6-1,7.1-1.3,10.8s.1,7.6-.1,11.4a59,59,0,0,1-.6,5.9,10.5,10.5,0,0,1-1,2.8l-1.2,2.8c-.3-3.8.3-7.6.6-11.4S108.7,42.8,108.9,39Zm-5.6,11.1a57.5,57.5,0,0,1,4.9-20.8h-.1c0-.1.1-.1.1-.2h0v-.2c-.4,3.5-.8,7-1,10.5s-.1,7.5-.4,11.2a92.4,92.4,0,0,0-.7,10.4l.3,2.8a4.1,4.1,0,0,1-.3,2.2c-.6,1.8-1.3,3.5-2,5.2C104,64.3,102.9,57.2,103.3,50.1Zm-3.1,18.2v.2c-.1-3.1-.1-6.2,0-9.4a31.5,31.5,0,0,1,1.5-9.1c-.3,5.5.3,11,.6,16.5.1,2.7.1,5.4.3,8.1,0,1.1-.8,2.2-1.2,3.2l-1.8,3.9A99.4,99.4,0,0,0,100.2,68.3Zm5.3,12.4c3.9-6.3,7.2-13,10.5-19.6,1.6-3.3,3.1-6.6,4.9-9.8s3.6-6.4,5.5-9.6c3.8-6.3,7.7-12.7,12.6-18.2a43.8,43.8,0,0,1,4.1-4.5,53,53,0,0,1,4.5-3.4,42.6,42.6,0,0,1,11.2-5.3l-3.1,1.6a42.9,42.9,0,0,0-8.4,6.3,87.6,87.6,0,0,0-7.1,7.8A154.6,154.6,0,0,0,127,43a88.4,88.4,0,0,0-5.3,9.5c-1.7,3.2-3.6,6.4-5.2,9.7s-3.2,6.2-4.7,9.5-3,6.4-4.7,9.5-4.3,6.5-6.4,9.9c-1.1,1.7-2.2,3.4-3.4,5s-1.2,1.5-1.8,2.3a3.9,3.9,0,0,1-.8,1,8,8,0,0,1-1.5.3c.9-1.6,1.9-3.2,2.8-4.9a36.4,36.4,0,0,1,2.8-4.7C101.2,87,103.4,84,105.5,80.7ZM98.6,61.8c-.1,6.5.1,13.1-.7,19.6a24.2,24.2,0,0,1-.7,4.7,21.7,21.7,0,0,1-1.7,4.2A91.7,91.7,0,0,1,90.7,99l-.4-.5a27.8,27.8,0,0,0,1.6-4c.5-1.5,1-2.9,1.4-4.4.8-3.3,1.4-6.5,2-9.8C96.4,74.1,96.5,67.8,98.6,61.8Zm-3.7,44.3c.8,1.2,1.6,2.4,2.3,3.7s2.8,5.1,4.1,7.8c2.6,5.5,5.4,11,7.6,16.7.6,1.5,1,3.1,1.7,4.6s.8,3.3,1.3,4.9a72.7,72.7,0,0,1-7.4-9.2,47.5,47.5,0,0,1-5-10.1c-1.5-3.6-2.6-7.3-3.8-11.1s-2.1-7.6-4.3-10.8h.9C93,103.8,94.2,104.8,94.9,106.1Zm1-40.5c-1.3,5.2-1.5,10.7-2.5,15.9a61.2,61.2,0,0,1-4.2,15.2c-.3-.5-1.2-1.4-1.2-2a6.9,6.9,0,0,1,.4-1c.1-.4.3-.9.4-1.4C91.5,83.5,90.5,73.5,95.9,65.6Zm-5.5,1.3a2.5,2.5,0,0,0,2.6.3c-4,8.2-3.3,17.4-6.2,25.9l-.9-1.3a6.1,6.1,0,0,1-.1-1.4,14.3,14.3,0,0,1,.6-3.5c.7-2.1,1.3-4.4,1.8-6.6A76.4,76.4,0,0,0,90.4,66.9Zm-7.2,16c.3-2.3,1.1-4.6,1.6-6.9,1-4.7,2.8-9.2,3.5-13.9l.6,2.5c.1,1-.1,2.2-.1,3.2a101.1,101.1,0,0,1-1.9,11c-.4,1.8-.8,3.5-1.3,5.3a22.5,22.5,0,0,0-1.3,5.1,13,13,0,0,1-1-1.5,6.6,6.6,0,0,1-.1-1.4C83.2,85.2,83.1,84,83.2,82.9ZM104.9,6.4a9.5,9.5,0,0,1,1.7-1,7.1,7.1,0,0,1,1.8-.8l2.5-.5A44.3,44.3,0,0,0,99.2,16.8a95.7,95.7,0,0,0-8,15.6,66.8,66.8,0,0,0-2.6,8.7,54.4,54.4,0,0,0-1.1,8.1c-.4,5.6-.1,11.2-1.6,16.6C85,68.9,84,72,83.2,75.1s-1.6,5.9-1.6,8.8a4.4,4.4,0,0,1-.8-1.5A6.8,6.8,0,0,1,81,81l.3-3.9a20.5,20.5,0,0,1,.7-3.4c.2-1.1.4-2.3.5-3.4.8-5,1.5-10.1,1.8-15.2a143.9,143.9,0,0,1,2-15.9,62.3,62.3,0,0,1,5-15.1A49.7,49.7,0,0,1,101.5,9.4h-.1A25.9,25.9,0,0,1,104.9,6.4ZM97.7,9.3l3.2-2.6a10.5,10.5,0,0,1,2.6-1.3,38.6,38.6,0,0,0-6.7,6.7,51,51,0,0,0-5.3,7.8A82.8,82.8,0,0,0,85,37.3a.4.4,0,0,0,.1-.3v.4c-1.3,5.1-1.6,10.4-2.1,15.7s-1.2,10.5-1.8,15.7A95.9,95.9,0,0,1,81.7,41c1.8-9.5,5-18.5,10.9-26.1A34.3,34.3,0,0,1,97.7,9.3ZM79,64.7c.2,2.4.6,4.7.7,7.1a61,61,0,0,1-.2,7.4A60.3,60.3,0,0,1,75,53.3a61.2,61.2,0,0,1,6.8-25.9,69.6,69.6,0,0,1,8.6-12.3c-5.2,6.9-8.3,15.3-10,23.8A96.9,96.9,0,0,0,79,64.7ZM73.4,60a49.3,49.3,0,0,0,1.5,10.8A66.3,66.3,0,0,1,72,56.2a37.2,37.2,0,0,1,1-14.5,87.1,87.1,0,0,1,7-16.3A43.7,43.7,0,0,1,90.7,12.3,70.3,70.3,0,0,0,80.8,26C75,36.2,73,48.3,73.4,60ZM95.6,6.4a55.6,55.6,0,0,0-9.5,7.8A49,49,0,0,0,79,24a79.7,79.7,0,0,0-5.5,11.4c-1.4,3.8-2.8,7.8-3.1,11.9a61.4,61.4,0,0,0,.5,14.2,10.8,10.8,0,0,1-1.6-3,15,15,0,0,1-.6-2.9c-.2-1.9-.3-3.8-.4-5.7a39.7,39.7,0,0,1,1.4-12.8,49,49,0,0,1,5.1-12.6A63.2,63.2,0,0,1,83,14a46.1,46.1,0,0,1,6-4.7A17.1,17.1,0,0,1,95.6,6.4ZM86.1,8.7l1.3-.5c.4-.1.7-.4,1.1-.4a37,37,0,0,0-7.8,6.4,62.3,62.3,0,0,0-6.5,8.1,51.7,51.7,0,0,0-7.3,20.2A52.3,52.3,0,0,0,67,55a9.3,9.3,0,0,1-1.6-3.5c-.1-1.4-.3-2.7-.5-4.1a33.1,33.1,0,0,1,.2-8.3,45.9,45.9,0,0,1,5.3-15.2A64.9,64.9,0,0,1,74,18.4c1.4-1.7,3-3.2,4.5-4.8A24.7,24.7,0,0,1,83.4,10,13.4,13.4,0,0,1,86.1,8.7ZM75.6,11.8a16.6,16.6,0,0,1,4.8-1.9A42,42,0,0,0,67,27.1c-3,6.9-4.6,14.3-3.5,21.8a31.7,31.7,0,0,1-2.1-4.1,8.6,8.6,0,0,1-.9-3.9,31.2,31.2,0,0,1,1.7-9.5A48.5,48.5,0,0,1,71.8,15,19.5,19.5,0,0,1,75.6,11.8Zm-3.7.7a39.9,39.9,0,0,0-8.6,12c-2.1,4.3-4.1,9.3-4.3,14.2A18.3,18.3,0,0,1,57.6,34a12.8,12.8,0,0,1,.7-3.9h0C60.1,23,64.5,14.9,71.9,12.5ZM56.4,21.2c.1-.6.6-1.5.5-2.1,2.4-1.3,4.9-2.5,7.4-3.6a30.7,30.7,0,0,0-7.6,14.2,27.3,27.3,0,0,1-.4-5.7A26.2,26.2,0,0,1,56.4,21.2ZM55,20.1a30.2,30.2,0,0,0,.2,10.8,20.8,20.8,0,0,1-1.6-4.8,26.1,26.1,0,0,1-.5-4.8Zm.4,14.8c.9,1.8,1.4,3.7,2.2,5.5s1.6,4.2,2.6,6.2c2,4.1,4.2,7.9,6.5,11.8l3.5,6c.5.9,1,1.9,1.4,2.8a8.6,8.6,0,0,1,.9,2.7,67.2,67.2,0,0,0,5.6,13.6L75.8,82l-1.2-.8a4.8,4.8,0,0,1-.5-1.7c-.7-2.1-1.3-4.1-2.1-6-1.8-4.2-4.1-8-6-12s-4-7.6-6-11.4S56.3,42.7,54.6,39a33.5,33.5,0,0,1-3.5-13.8,5.8,5.8,0,0,1,.3-2.3C51.5,27.3,53.4,31.1,55.4,34.9Zm-6-9.3c.3,8,4.1,14.6,7.3,21.6,1.6,3.4,3.3,6.9,5.2,10.2s3.5,6.9,5.3,10.4a81.2,81.2,0,0,1,5.1,11.7c-.3-.2-.9-.4-1.1-.7s-.3-.9-.5-1.2S70,76,69.6,75.3A42,42,0,0,0,67,70.1c-2.1-3.4-4.1-6.9-6.2-10.4s-4.2-6.8-6-10.3a55.3,55.3,0,0,1-4.5-10.7,34.7,34.7,0,0,1-1.1-6.3A30.8,30.8,0,0,1,49.4,25.6Zm-2,2.4a35,35,0,0,0,2.8,15.3,107.7,107.7,0,0,0,7.2,13.9h0l.7,1.1h0c0,.1,0,.1.1.2h0l5.6,9.4c.9,1.5,1.9,3,2.7,4.5s1.5,3.3,2.2,4.9l-2.2-1.5L65.4,75a5.8,5.8,0,0,1-.5-1.1,43,43,0,0,0-2.4-4.8c-1.7-3.2-3.4-6.4-5.3-9.4-3.9-6.2-8-12.5-9.6-19.8a31.9,31.9,0,0,1-.8-6.2A22.1,22.1,0,0,1,47.4,28Zm-1.9.9a33.1,33.1,0,0,0,1.8,15.9c1.9,5.3,5.1,10.1,8,14.9a143.8,143.8,0,0,1,7.4,13.4c-1.4-1-2.7-2.1-4-3.2l-1.8-1.5a6.4,6.4,0,0,1-1.3-1.9c-1.2-2.9-2.6-5.9-4.1-8.7-3.1-5.6-6.1-11.2-6.8-17.8A31.9,31.9,0,0,1,45.5,28.9Zm-1.7-.2a33.6,33.6,0,0,0,1,19.1,73.4,73.4,0,0,0,3.9,8.6c1.6,2.8,3,5.6,4.3,8.5-1.1-1.1-2.3-2.3-3.4-3.6a8.6,8.6,0,0,1-1.4-1.8,6.2,6.2,0,0,1-.7-1.9c-1.1-3.3-2.7-6.3-3.8-9.5A38.9,38.9,0,0,1,42,37.9,17.3,17.3,0,0,1,43.8,28.7Zm-5.5,6.9c.1-1,0-2.5.6-3.3a28.3,28.3,0,0,1,2.5-2.4,25.7,25.7,0,0,0-.6,13.2c.7,4.4,2.5,8.4,4.2,12.5a31.4,31.4,0,0,1-6.1-12.9A24.4,24.4,0,0,1,38.3,35.6Zm-5,3.6A4.4,4.4,0,0,1,34.7,37l2-2.4a32.5,32.5,0,0,0,4.1,18,49.1,49.1,0,0,0,5.4,7.5,53.2,53.2,0,0,0,6.4,7A105.5,105.5,0,0,0,60.7,74,70.9,70.9,0,0,1,52,68.5a93.8,93.8,0,0,1-8-6.1,39.1,39.1,0,0,1-6.9-8.3,26.2,26.2,0,0,1-3.6-9.4A14.5,14.5,0,0,1,33.3,39.2Zm-4.5,5.3a4.4,4.4,0,0,1,.8-1.1,23.5,23.5,0,0,1,1.9-2.5c-.2,5.7,2.2,11.4,5.4,16.1s8.4,8.8,13.4,12.4h.2a109.9,109.9,0,0,0,10.8,6.9c-6.7-2.3-13.3-5-19-9.3A37.3,37.3,0,0,1,29.7,50.9a14.9,14.9,0,0,1-1-5.5C28.7,45.1,28.6,44.8,28.8,44.5Zm-3.1,5c.4-.8.9-1.6,1.4-2.4.6,6.1,4.7,11.9,8.7,16.2A48.9,48.9,0,0,0,51.9,74.6a93.2,93.2,0,0,0,10,3.8c-5.6-1.4-11.3-2.3-16.7-4.5A42.8,42.8,0,0,1,37.5,70a32,32,0,0,1-6.1-5.5,30.4,30.4,0,0,1-4.8-7.9,25.7,25.7,0,0,1-1.1-4.8A4.4,4.4,0,0,1,25.7,49.5Zm-3.3,9.1a10.5,10.5,0,0,1,.5-1.9,27.8,27.8,0,0,1,1.2-3.8c.9,7.4,6.6,14.6,12.7,18.6A47.5,47.5,0,0,0,48,76.7c3.9,1.3,8,2,12,3s9.2,2.1,13.5,4c-8.1-2.9-16.9-2.8-25.4-4a33.5,33.5,0,0,1-22-13.1,32.3,32.3,0,0,1-3.3-6.4C22.5,59.6,22.2,59.2,22.4,58.6Zm-.9,7.8a32.5,32.5,0,0,1,.3-4.4A32.8,32.8,0,0,0,37.4,78a36.4,36.4,0,0,0,11.2,3.4l5.9.7,5.6.5a57.5,57.5,0,0,1,13.1,2.7,44.2,44.2,0,0,0-11.4-1.6c-3.9-.1-7.8.3-11.7,0A43.7,43.7,0,0,1,38.7,82,33.3,33.3,0,0,1,29,76.5a31.2,31.2,0,0,1-4.3-4.6,22,22,0,0,1-1.8-2.8C22.7,68.8,21.6,66.4,21.5,66.4Zm1.7,10.7a29.5,29.5,0,0,1-1.6-7A30.2,30.2,0,0,0,37.3,83.2h0c5.9,2.2,12.7,2.4,18.9,2.2s13.1.2,19.3,2.4a24.9,24.9,0,0,1,4,2,37.2,37.2,0,0,0-13.2-2.9c-4.7-.2-9.3.4-13.9.7-8.6.7-18-.2-25.1-5.4a20.2,20.2,0,0,1-2.7-2.4A7,7,0,0,1,23.2,77.1ZM26,83.2c6,4.6,13.6,6.1,21,6.2a103.4,103.4,0,0,0,11.1-.7,56.3,56.3,0,0,1,11.6.1,29.6,29.6,0,0,1,5.9,1.3,40.5,40.5,0,0,1,5.7,2.4c-7.3-3.1-15.3-2.3-23-1.6S43,93.5,35.6,90.5A19,19,0,0,1,26,83.2Zm7.7,8.3A29.8,29.8,0,0,0,42,93.6h.6a48,48,0,0,0,10.7-.4L64.2,92a38.4,38.4,0,0,1,10.7.4A31.8,31.8,0,0,1,80,93.7a20.5,20.5,0,0,1,4.4,2.8,25.9,25.9,0,0,0-10.1-2.8,62.3,62.3,0,0,0-10.6.5c-3.2.4-6.3.9-9.6,1.2a66.8,66.8,0,0,1-10,0A20.3,20.3,0,0,1,33.7,91.5Zm40.6,5.4a65.1,65.1,0,0,0-10.8.5,77.2,77.2,0,0,1-10.7.9,35.5,35.5,0,0,1-10.2-1.5,55.4,55.4,0,0,0,9.1.3,86.5,86.5,0,0,0,8.9-.8,58.4,58.4,0,0,1,13.8-1c4.9.4,9.1,2.4,13.1,5l-2.2.2H83.2C81.1,97.7,77.6,97.1,74.3,96.9Zm-42,43.9h0c-.2-5.8,1.1-11.3,4.9-15.7a48,48,0,0,1,14.3-11,60.4,60.4,0,0,0-11.4,13.3,73.7,73.7,0,0,0-4.1,7.9,69.1,69.1,0,0,0-3.5,8.5C32.4,142.9,32.3,141.8,32.3,140.8Zm17.8-23ZM35.4,149.6a48.7,48.7,0,0,0-.2,5.4,31.3,31.3,0,0,1-1.6-5.2,4.2,4.2,0,0,1-.2-2.2,14.4,14.4,0,0,1,.5-2.4,26.7,26.7,0,0,1,1.9-5.4c.8-1.7,1.5-3.5,2.3-5.2a75.8,75.8,0,0,1,5.3-9.2c1-1.4,2.1-2.8,3.2-4.1l1.9-1.9c.4-.4,1.2-.9,1.4-1.4h0l.2-.2h0c0-.1.1-.1.1-.2h0a33.7,33.7,0,0,1,7.6-5.9l.9-.3c-9.9,8.9-17.9,20.3-22,33A29.3,29.3,0,0,0,35.4,149.6Zm20.7-33.3h0ZM40.2,164.5l-1.8-2.9a12.5,12.5,0,0,1-.8-1.2l-.3-1.7a21.4,21.4,0,0,1-.4-6.7,37.4,37.4,0,0,1,3.8-13.4,77.1,77.1,0,0,1,16-22.8c1.9-1.8,3.8-3.9,6-5.2a12.9,12.9,0,0,1,3.5-1l3.8-.9c-1.7,1.2-3.6,2.4-5.3,3.7s-3.3,2.8-4.9,4.3a59.3,59.3,0,0,0-8.1,9.9A79.6,79.6,0,0,0,41,149.9C39.8,154.7,39.9,159.7,40.2,164.5Zm5.7-8.7a44.1,44.1,0,0,0-.2,16.2l-2.4-3.2-1.1-1.5c-.4-.5-.2-1-.3-1.6a73.1,73.1,0,0,1-.3-8.1,46.8,46.8,0,0,1,3.5-15.2c1-2.4,2.2-4.8,3.4-7.1s2.6-4.9,4.1-7.2A66.5,66.5,0,0,1,63,116c2.2-1.9,4.7-3.6,7.1-5.3l3.5-2.5a13.4,13.4,0,0,1,3.7-1.6c-3,3.9-6.7,7.1-10.1,10.6a69.7,69.7,0,0,0-9.7,11.3C52,136.8,47.5,145.8,45.9,155.8Zm5.5,22.3-1.6-1.6a12.9,12.9,0,0,1-1.6-1.7,18,18,0,0,1-1-3.3,39.3,39.3,0,0,1-.6-4.8A58,58,0,0,1,49,149.1a76.1,76.1,0,0,1,8-16.8,75.3,75.3,0,0,1,11-13.6c2.3-2.3,4.8-4.4,7-6.8s2.2-2.5,3.3-3.9l1.5-2a4.8,4.8,0,0,1,1.6-1.2c-2.9,4.6-6.6,8.6-9.8,13s-6.8,9.1-9.9,13.7a58,58,0,0,0-7,14.9c-.9,2.8-1.8,5.5-2.5,8.4a46.3,46.3,0,0,0-1.3,8.3,33.1,33.1,0,0,0,.3,9.4,22.1,22.1,0,0,0,1.2,4.2c.7,1.4,1.5,2.8,2.3,4.2A30.4,30.4,0,0,1,51.4,178.1Zm7.1,5.3a21.2,21.2,0,0,1-2.5-3.6,23.6,23.6,0,0,1-3.4-8.4,37.8,37.8,0,0,1,0-9.5,42.7,42.7,0,0,1,1.9-9.3c1.8-5.8,3.7-11.7,6.6-17.1a80.9,80.9,0,0,1,5.3-7.7c1.8-2.6,3.7-5.1,5.6-7.6l6.5-8.4a41,41,0,0,0,5.6-8.6h1c-5.2,10.7-12.8,20-18.1,30.7a89.6,89.6,0,0,0-6,15.9c-1.5,5.6-3.1,11.3-3,17.2a49.9,49.9,0,0,0,.9,9.4c.7,3.2,1.2,6.4,2.9,9.3A13,13,0,0,1,58.5,183.4Zm8.3,5.2a8.7,8.7,0,0,1-3.1-3.2,22.3,22.3,0,0,1-2.7-7.6,38.5,38.5,0,0,1-1.1-8.3,37.5,37.5,0,0,1,.3-8.2c.5-2.8,1.2-5.6,1.9-8.3a86.8,86.8,0,0,1,5.2-15.1,139.4,139.4,0,0,1,8.3-14c3.2-5.3,6.8-10.4,9.9-15.8-1.1,2.7-2.5,5.2-3.8,7.9s-2.6,5.2-3.9,7.9c-2.5,5.2-4.8,10.5-7,15.9a73.2,73.2,0,0,0-4.7,16.6c-.8,5.7-1.5,11.4-.8,17.1A41.1,41.1,0,0,0,71,191,44.9,44.9,0,0,1,66.8,188.6Zm10,5.1-2.3-1c-.9-.4-1.2-1.1-1.7-1.9a38.7,38.7,0,0,1-5.6-15.4,53.6,53.6,0,0,1,.1-16c.4-2.7.8-5.3,1.4-8a82.7,82.7,0,0,1,2.6-8c1.9-5.2,4-10.2,6.3-15.2S83.3,116.8,86,111c-1.5,5.7-3.5,11.3-5.5,16.8-1,2.8-2.2,5.4-3,8.3s-1.6,5.6-2.5,8.5a76.8,76.8,0,0,0-3.2,17.2,51.7,51.7,0,0,0,.1,8.8,27.5,27.5,0,0,0,1.4,8.1c1.7,5.9,4,12,8.4,16.6A40.1,40.1,0,0,1,76.8,193.7Zm10.9,3-1.1-.3h0l-.9-.2h-.1c.1,0,.2,0,.2.1a2.7,2.7,0,0,1-1.7-.8c-4-3.9-6.6-9-8.4-14.3a36.9,36.9,0,0,1-2-8.1,78.7,78.7,0,0,1-.4-8.4,71.5,71.5,0,0,1,2.4-16.5c.6-2.7,1.6-5.4,2.4-8a69.4,69.4,0,0,1,2.5-8.1c2.4-6.1,4.5-12.3,6.3-18.5-.1,1.5-.3,3-.4,4.5s-.1,2.3-.2,3.5c-.5,2.7-1.4,5.3-2.1,7.9s-2,5.1-2.6,7.9-1.2,5.5-1.9,8.3a54.9,54.9,0,0,0-1.4,8.1,86.3,86.3,0,0,0-.3,8.8,78.9,78.9,0,0,0,.8,8.5,60.7,60.7,0,0,0,1.6,8.5,44.2,44.2,0,0,0,7.9,17.2Zm6.7,1.1-1.9-.3c-.4-.1-1.6-.1-1.9-.4-3.1-3.5-5.2-7.9-7-12.2a43.8,43.8,0,0,1-1.9-7.1c-.5-2.4-1-4.8-1.3-7.3s-.6-4.7-.7-7,0-4.8.1-7.2c.2-4.7,1.4-9.4,2.4-14a61.7,61.7,0,0,1,1.9-7.4c.8-2.4,1.6-4.7,2.3-7.1,0,2.4.4,4.9,0,7.3s-.9,4.8-1.4,7.2a59,59,0,0,0-1.4,14.5,77.6,77.6,0,0,0,6.2,27.8,46.9,46.9,0,0,0,8.7,13.7Zm8.6.8a4,4,0,0,1-2.4-.4c-5.7-5.7-9-13-11.6-20.5a74.3,74.3,0,0,1-3.8-23.9A56.5,56.5,0,0,1,87,140.9c.9,1.7,1,4.1,1,6.1v5.9a66.3,66.3,0,0,0,1,12.6c.4,1.9.8,3.9,1.3,5.9a45,45,0,0,0,2.1,5.8,78.2,78.2,0,0,0,5.3,10.9,45.1,45.1,0,0,0,8.4,10.6Zm7.9.3c-.8,0-2,.2-2.6-.3a47.3,47.3,0,0,1-11.8-16.1c-1.4-3-2.7-6.2-3.8-9.3a59.3,59.3,0,0,1-2-9.3,60.8,60.8,0,0,1-.8-11.3c.5,1.7,1.3,3.3,1.8,4.9s.9,3,1.4,4.5c1.1,3.2,2,6.6,3.1,9.8a48.9,48.9,0,0,0,3.9,9.8,70.5,70.5,0,0,0,5.7,8.9,51.8,51.8,0,0,0,7.8,8.4Zm7.7,0h-1.8c-.5,0-.6.1-1-.2a2.4,2.4,0,0,1-.8-.6,56,56,0,0,1-11.2-13.5c-3.2-5.1-5.1-10.7-6.9-16.4,1.4,2.1,3.1,4.1,4.5,6.2,2.9,4.4,5.5,9,8.9,13.2a44.5,44.5,0,0,0,5.6,5.9,34.8,34.8,0,0,0,6.9,5Zm7-.7a38.7,38.7,0,0,1-10.8-8.1c-3.5-3.5-6-7.6-8.7-11.7l5.9,4.4a44,44,0,0,1,6.1,5.2,41.7,41.7,0,0,0,6.2,4.9,29.8,29.8,0,0,0,7.3,4.3Zm9.2-1.6c-5.5-1.7-10.4-5.2-14.5-9.1a76.4,76.4,0,0,0,12.4,4.5,82.7,82.7,0,0,0,13.2,2.2Zm12.5-3.9c-3.6-.5-7.3-.7-10.9-1.5a80.1,80.1,0,0,1-10.6-3.1,71.7,71.7,0,0,0,11.3,1.7c1.8.2,3.7.2,5.5.5a11.7,11.7,0,0,1,2.6.4C146,190.9,146.7,192,147.3,192.7Zm-4.9-5.3,1.5,1.5-11.3-1.2a76.4,76.4,0,0,1-11.5-2.6,27.8,27.8,0,0,1-7.6-3.6,83.1,83.1,0,0,0,15.6,3.2,71.8,71.8,0,0,1,7.9,1.2,26.2,26.2,0,0,1,3.8.9A10.4,10.4,0,0,1,142.4,187.4Zm-2.6-2.5c-7-1.8-14.3-1.9-21.3-3.7a45.4,45.4,0,0,1-9.6-3.3,22,22,0,0,1-7.4-6.5,59.3,59.3,0,0,0,8.8,5.1,87.2,87.2,0,0,0,9.9,3.1c3.5.8,7,1.3,10.4,2.1,1.7.5,3.5.8,5.1,1.4l2.2.9A6.6,6.6,0,0,1,139.8,184.9Zm-4.6-4.8c.5.5,1,1.2,1.6,1.7-6.7-2.4-14-2.9-20.8-5.2s-12.9-5.5-17.8-10.5a18.6,18.6,0,0,1-3.1-5.5c1.3,1,2.4,2.2,3.7,3.2l3.7,2.5a50.2,50.2,0,0,0,8.3,4.3c2.9,1.3,5.9,2.5,8.9,3.6s5.8,1.7,8.6,2.7a23.4,23.4,0,0,1,4.6,1.9A6.5,6.5,0,0,1,135.2,180.1Zm-4.8-5.4a15.4,15.4,0,0,1,1.7,1.9c-2.9-1.2-6-2.1-9-3a98.5,98.5,0,0,1-9.5-3.7,94.4,94.4,0,0,1-9-4.5,51.1,51.1,0,0,1-7.5-5.7,30.6,30.6,0,0,1-3.5-3.7,14.4,14.4,0,0,1-1.7-4.5A53.8,53.8,0,0,0,107,162.2c2.9,1.4,5.8,2.6,8.6,4.1s5.7,2.5,8.5,4a29.5,29.5,0,0,1,4.3,2.9A14.9,14.9,0,0,1,130.4,174.7Zm-4.1-5a95.4,95.4,0,0,0-9.1-4.4l-9.2-4.4h0l-.3-.2h0l-.4-.2a58.9,58.9,0,0,1-9.6-5.9,39.7,39.7,0,0,1-4.2-4,15.9,15.9,0,0,1-2-2.4,6,6,0,0,1-1.1-2.6,62.4,62.4,0,0,0,8.4,7,91.4,91.4,0,0,0,9.4,5.8c3.3,1.7,6.6,3.3,9.9,5.1S124.2,167,126.3,169.7Zm-5.4-7.9c.6.7,1,1.7,1.6,2.5a92,92,0,0,0-9.7-5.4c-3.4-1.8-6.7-3.6-9.9-5.7a75.8,75.8,0,0,1-9-6.8,19.5,19.5,0,0,1-3.9-4.2,8.2,8.2,0,0,1-.5-2.8c-.1-1-.1-2-.2-3a39.4,39.4,0,0,0,6.6,8.6,48.8,48.8,0,0,0,8.9,6.8c3.1,2,6.5,3.6,9.6,5.5a40,40,0,0,1,4.8,3.2A7.6,7.6,0,0,1,120.9,161.8Zm-2.1-3.5c-5.4-3.9-11.6-6.5-16.9-10.4s-10-8.9-12.2-15.2a17.7,17.7,0,0,1-.6-1.7,13.1,13.1,0,0,1-.1-2.8c-.1-2.1,0-4.1,0-6.2a58.5,58.5,0,0,0,3.3,8.2,43.1,43.1,0,0,0,5.4,7.3c4.2,4.8,9.1,8.7,14,12.8A30.3,30.3,0,0,1,118.8,158.3Zm-5.1-9.9,1.2,2.7c-2.6-2.6-5.6-4.9-8.4-7.2a70.3,70.3,0,0,1-9.9-10.5,29.3,29.3,0,0,1-3.5-5.6,49.3,49.3,0,0,1-2.4-6.4c-.5-1.5-.7-3-1.1-4.5a1.1,1.1,0,0,1-.2-.6c0-.3.1-.8.1-1.2a19.4,19.4,0,0,0,.2-2.4,19.3,19.3,0,0,0,.1-2.4,11,11,0,0,1,.2-1.8,22.6,22.6,0,0,0,.1-4.5,42.5,42.5,0,0,1,3.8,9.7c1.1,3.4,2.2,6.8,3.5,10.2a59.8,59.8,0,0,0,4.5,9.6,45.9,45.9,0,0,0,5.9,8c1.3,1.6,2.7,3.1,4.1,4.6A10.2,10.2,0,0,1,113.7,148.4Zm-2.8-14c-2.1-5.8-5-11.4-7.6-17s-5.2-10.6-8.8-15.1c1.2-.2,2.3,1.2,3,2.1s1.8,2.3,2.6,3.5,3.3,5.4,4.9,8.2a92.3,92.3,0,0,0,5.4,8.4c1.7,2.6,3.9,5,5.6,7.7A3.5,3.5,0,0,0,110.9,134.4Zm11.8,7.1c-.6-1.8-1.4-3.5-2.1-5.2a34.2,34.2,0,0,0-3.3-5.1h.1c-1.6-2.4-3.6-4.6-5.2-7s-3.3-5-4.8-7.6l-4.4-7.8a29.1,29.1,0,0,0-5.2-6.9,1.9,1.9,0,0,1,1.3,0l.9.8,1.9,2.1a49.4,49.4,0,0,1,3.5,4.5c2.3,3.3,4.5,6.5,6.5,9.8s4.2,6.6,6.3,9.9a68.9,68.9,0,0,1,5.1,10.6,122.3,122.3,0,0,1,4.1,13C125.6,149.1,124.2,145.3,122.7,141.5Zm7.2,13.8c-2.1-7.6-3.8-15.2-7.2-22.3a91.2,91.2,0,0,0-6-10c-2.2-3.4-4.2-6.9-6.4-10.2a69.2,69.2,0,0,0-8-10.5,36.2,36.2,0,0,1,9.2,9.1c2.7,3.6,5.3,7.3,7.7,11.1s5,7.3,6.6,11.4a94.1,94.1,0,0,1,3.4,12.9c1,5.1,1.8,10.3,2.9,15.5A43.7,43.7,0,0,1,129.9,155.3Zm4,7.8c-1-4.7-1.6-9.4-2.5-14.1s-1.9-8.7-3.1-12.9a45,45,0,0,1,3.1,4.5,18.5,18.5,0,0,1,1.2,4c.8,3.3,1.2,6.8,1.7,10.2,1.1,6.5,2.3,13.2,5.2,19.3C137.1,170.7,134.8,167.2,133.9,163.1Zm10.1,16c-1-1.8-2-3.6-2.9-5.5a57.9,57.9,0,0,1-4.2-14c-.9-5-1.4-10-2.5-14.8l1.9,2.6a6.3,6.3,0,0,1,1.2,2.3,39,39,0,0,1,1.3,5.7h0v.2h0a116.1,116.1,0,0,0,3.5,14.1,74,74,0,0,0,5.6,14.1A28.7,28.7,0,0,1,144,179.1Zm5.7,4.3c-2.8-4.9-4.5-10.4-6-15.8s-2.6-10.5-3.9-15.8c2.3,2.8,3.4,6.3,4.3,9.7s2.3,7.6,3.7,11.3a86.8,86.8,0,0,0,4.6,10.9,26.2,26.2,0,0,0,6.9,8.3A19.2,19.2,0,0,1,149.7,183.4Zm14.3,9.5a6,6,0,0,1-2.4-1.2,23.4,23.4,0,0,1-7.8-9h0c-3.8-7.5-6-15.6-8.6-23.6,2,2.8,3.2,6.1,4.6,9.3s2.8,6.6,4.5,9.8c2.8,5.6,6.8,11.8,12.6,14.6A13.7,13.7,0,0,1,164,192.9Zm5.8-.9c-3.3-.7-6.2-3.2-8.3-5.7a49.6,49.6,0,0,1-5.9-9.2v.2l-.4-.8v.2c-2.3-4.6-4.2-9.4-6.3-14.1l1.3,1.4h0a130.2,130.2,0,0,1,10.4,14c3.4,5.2,7.1,10.7,13.3,12.8Zm7.8-2.2c-1-.3-2-.2-3-.6a11.1,11.1,0,0,1-2.9-1.4,20.3,20.3,0,0,1-5.1-4.6c-3.1-3.8-5.4-8.2-8.2-12.2,3.9,3.1,6.9,7.1,10.5,10.4a28.1,28.1,0,0,0,12.2,7.2Zm7-2.4h-.8c-3.7-.3-7.3-2.2-10.3-4.4s-5.6-5.7-8.5-8.5a52.3,52.3,0,0,0,5.8,2.9,42.5,42.5,0,0,1,5.6,2.9,35.5,35.5,0,0,0,6.1,3.2,27.9,27.9,0,0,0,7,1.9Zm8.6-3.7c-5,.9-10.2-1.5-14.3-4a56.1,56.1,0,0,0,11.6.5c3.8-.3,8-.2,11.7-1.3A64.9,64.9,0,0,1,193.2,183.7Zm10.2-7.1a16.6,16.6,0,0,1-3.8,1.1,93.9,93.9,0,0,1-17.6.5,82.7,82.7,0,0,1,11-2.3A28,28,0,0,1,203.4,176.6Zm-8.2-3.4,1.8.9a39.3,39.3,0,0,0-10.2,1c-3.3.8-6.6,1.9-9.9,2.1a12,12,0,0,1-4.6-1.1,34.2,34.2,0,0,1-4.7-2.3,45.1,45.1,0,0,0,15.1,1c2.5-.3,5-.9,7.5-1.3l3.8-.3Zm-5.8-2.6a14.5,14.5,0,0,1,2.6,1.1c-3,.2-6,1-8.9,1.4a45.4,45.4,0,0,1-17.2-1.5,30.4,30.4,0,0,1-4-1.2,16.9,16.9,0,0,1-3.6-2.3,48.5,48.5,0,0,1-6.5-5.5c3.2,1.4,6.2,3.2,9.3,4.6a38.4,38.4,0,0,0,9.9,3.3,40.9,40.9,0,0,0,10.5.6l5.5-.3A9.7,9.7,0,0,1,189.4,170.6Zm-3.1-1.4a56.4,56.4,0,0,1-11.6.2,45,45,0,0,1-10.9-2.9c-3.5-1.4-6.6-3.3-10-4.9l-2.6-1.1a21.8,21.8,0,0,1-2.3-.9,10.5,10.5,0,0,1-1.7-1.9l-1.8-2.1c3.2,1.8,6.6,3.3,9.9,5s6.4,3.4,9.8,4.9a36.4,36.4,0,0,0,10.3,2.7,51.2,51.2,0,0,0,5.6.3h3.1A6.5,6.5,0,0,1,186.3,169.2Zm-6.9-3.8a13.5,13.5,0,0,1,2.6,1.5,38,38,0,0,1-17.3-3.4c-2.9-1.3-5.6-2.9-8.4-4.3l-8-4-4.4-2.4a8,8,0,0,1-1.9-1.3c-.6-.6-1.1-1.4-1.7-2.1,5.3,2.2,10.3,5.2,15.4,7.8,2.6,1.3,5.2,2.7,7.9,3.9a78.1,78.1,0,0,0,8.1,2.9h0a38.8,38.8,0,0,0,4.9,1.1A26.6,26.6,0,0,1,179.4,165.4Zm-5.3-3.7,2.5,1.8a36.5,36.5,0,0,1-5.9-1.6,104.1,104.1,0,0,1-18.9-8.7,97.6,97.6,0,0,0-9.1-4.7l-2.2-1a14.2,14.2,0,0,1-2.2-.7,10.9,10.9,0,0,1-1.3-1.7l-1.4-2.1a114.4,114.4,0,0,1,10.2,5.7l10,5.5a61.1,61.1,0,0,0,10.2,4.3c1.9.6,3.8.9,5.7,1.6A10,10,0,0,1,174.1,161.7Zm-5.3-4a72.3,72.3,0,0,1-16.6-7.3c-2.8-1.6-5.7-3.2-8.5-5a65.9,65.9,0,0,0-8.3-4.4,5.3,5.3,0,0,1-2.1-1.1l-1.5-2.2c-1-1.4-1.8-2.9-2.8-4.2,1.2.7,2.6,1.1,3.8,1.8a31.7,31.7,0,0,1,4.1,2.1,91.6,91.6,0,0,1,8,4.6c5.2,3.4,10.1,7.4,15.7,10.1A41,41,0,0,1,168.8,157.7Zm-20.6-19.1,4.3,3.5c2.9,2.4,5.2,5.4,7.9,8.1-6.8-3.6-12.7-8.7-19.4-12.6-3.2-1.9-6.6-3.6-9.9-5.3l-2-1.1-2.2-1a10.2,10.2,0,0,1-1.8-2.3l-1.6-2.5c6.3,4.1,13.8,5.9,20.1,10.1Zm-2-3.3c-2.6-1.6-4.9-3.3-7.7-4.7l-8.5-4h.2a57.7,57.7,0,0,1-7.6-4.4,5.7,5.7,0,0,1-1.8-1.2,6.2,6.2,0,0,1-1.1-1.7l-2.6-3.9c-3.5-5.1-7.4-10.3-12.4-14,1.4-.1,2.8,1,3.8,1.8s2.7,2.3,4,3.6,5.1,5.2,7.8,7.6,2.7,2.5,4.1,3.6a48.4,48.4,0,0,0,4.4,3c3,1.9,6.2,3.5,9,5.7A35.7,35.7,0,0,1,146.2,135.3Zm-2.8-7.4Zm31.9,24.7a59.8,59.8,0,0,1-4.9-3.9l-4.8-4.6c-2.9-2.7-5.8-5.4-8.6-8.2a59.3,59.3,0,0,0-5.3-4.7c-1.8-1.5-3.5-3.3-5.2-5a119.5,119.5,0,0,1-10.3-12.1,76.9,76.9,0,0,0-10.4-11.6,5.9,5.9,0,0,1,2.7,1.4,19.9,19.9,0,0,1,3.3,3.2c2.1,2.3,4.1,4.6,6,7,4.2,4.8,8.7,9.5,13.2,14,2.3,2.3,4.8,4.3,7.1,6.7a88.7,88.7,0,0,0,6.9,6.8c2.5,2.1,4.8,4.3,7.4,6.2l7.5,5.5c5.7,4.3,11.3,8.9,17.9,11.9A90.7,90.7,0,0,1,175.3,152.6Zm37.1,14.3a3.5,3.5,0,0,1-1.4.3,6.5,6.5,0,0,1-2.8-.2,32.8,32.8,0,0,1-6.1-1.8l-2.1-.9a61.7,61.7,0,0,1-8.7-4.8c-2.8-1.9-5.6-4-8.3-6.1l-8.1-5.9c-2.8-2.1-5.3-4.4-8-6.6h0c-2.7-2.3-5.1-4.8-7.6-7.3s-5.1-4.8-7.6-7.3c-5-4.9-9.9-10.1-14.4-15.4-1.2-1.5-2.4-2.9-3.7-4.3a17.1,17.1,0,0,0-3.8-3.8h1.3a1.3,1.3,0,0,1,.9.5,17.5,17.5,0,0,1,2.4,2.3,48.3,48.3,0,0,1,4.1,4.9,125.1,125.1,0,0,0,8.4,9.4c3,3.2,6,6.3,8.9,9.5a72.5,72.5,0,0,0,9.1,8.4c3.7,3.1,7.5,6.2,11.4,9h-.1a165.2,165.2,0,0,0,17.9,12.1,81.7,81.7,0,0,0,9.3,4.8c3.1,1.3,6.6,2.8,10.1,2.8Zm5.7-2.4a26.1,26.1,0,0,1-4.8.2,16.4,16.4,0,0,1-4.9-1,53.4,53.4,0,0,1-9.2-4,150.7,150.7,0,0,1-17.4-11.1c-5.9-4.1-11.5-8.7-17.1-13.3s-9.6-9.6-14.3-14.5c-2.7-2.8-5.5-5.6-8-8.6s-4.7-6.4-7.6-9.2a6.1,6.1,0,0,1,2.3.3,15.5,15.5,0,0,1,2.2,1.2l4,2.8a85,85,0,0,1,7.3,7.4c4.7,5.1,9.4,10.2,14.3,15.1h0l.2.2h0l8,7.7c3.4,3,6.7,6.2,10.4,8.9s7.1,5.6,10.9,8l5.4,3.7a31.3,31.3,0,0,0,6,2.4,56,56,0,0,0,7,2,50.5,50.5,0,0,0,6.8.8Zm3.5-2.6a43.3,43.3,0,0,1-11.9-1.7l-6.2-2a26.8,26.8,0,0,1-5.7-3.2c-1.9-1.3-3.8-2.4-5.6-3.7l-5.2-4c-3.6-2.8-7-5.7-10.4-8.6l-5.6-5.1-2.6-2.6-1.4-1.3-.3-.4-.6-.5h0c-4.4-4.4-8.6-9-12.8-13.5-2.1-2.3-4.1-4.7-6.4-6.9A40.1,40.1,0,0,0,140,103h2.5a6,6,0,0,1,2.5,1,41.3,41.3,0,0,1,4.2,3.1,100.5,100.5,0,0,1,7.3,7.3c4.7,5,9.1,10.4,13.8,15.4s9.5,8.9,14.3,13.3a63.2,63.2,0,0,0,8.1,6.6,75.6,75.6,0,0,0,8.9,4.7c3.6,1.7,7.2,2.4,11,3.3l5.6,1.1a48.5,48.5,0,0,0,5.5.9Zm3.5-3.8c-3-.3-6.1-.9-9.1-1.4l-4.6-1.1a43.1,43.1,0,0,1-4.9-1.1,52.1,52.1,0,0,1-8.7-3.8,44.7,44.7,0,0,1-8.2-5.4c-2.6-2.1-4.9-4.4-7.4-6.6s-4.4-3.8-6.5-5.8a164.4,164.4,0,0,1-13.3-14.4c-2.5-2.9-5-5.7-7.7-8.4a46.6,46.6,0,0,0-8.3-7.1h2.4a7.6,7.6,0,0,1,2.2,1.1,15.7,15.7,0,0,1,3.8,3,70.3,70.3,0,0,1,6.6,7.7c4.1,5.2,7.6,10.8,12.7,15.2l7.3,5.8c2.7,2,5.2,4.3,8.1,6.1l8.4,5.6a57.1,57.1,0,0,0,8.5,4.4,50.3,50.3,0,0,0,10.8,2.7,37.9,37.9,0,0,0,5.8.5,21,21,0,0,0,5.6-.8C227.5,155.6,226.3,156.8,225.1,158.1ZM173,125a23.2,23.2,0,0,0,4.5,4.9c3.4,2.8,7.1,5.9,11.1,7.8,2.1,1,4,2.1,6,3.2l6.4,3c2.2,1,4.5,1.8,6.7,2.6l2.9.7a20.1,20.1,0,0,0,3.5,1l7.8,1.5c2.7.6,5.4,1.4,8,2.2a12.8,12.8,0,0,1-4.7,1.4,34.5,34.5,0,0,1-9.6-.6,43.9,43.9,0,0,1-9.4-2.7,68.9,68.9,0,0,1-8-4.3c-2.6-1.7-5.1-3.5-7.7-5.1s-4.8-3.6-7.2-5.5-4.8-3.6-7.1-5.6a46.8,46.8,0,0,1-5.6-5.3c-2-2.5-3.8-5.1-5.7-7.6s-3.9-5-5.9-7.5a28.5,28.5,0,0,0-6.5-6h1.4a4.1,4.1,0,0,1,1.1.7,18.2,18.2,0,0,1,2.3,1.5,30.8,30.8,0,0,1,4.3,3.8,69.7,69.7,0,0,1,7.5,9.5c0-.1,0-.2-.1-.2a8.6,8.6,0,0,1,.7,1h0a18.3,18.3,0,0,1,1.4,2.8A18.1,18.1,0,0,0,173,125Zm18.3,5.3-6.1-5.2c-2-1.6-3.8-3.3-5.8-5a.1.1,0,0,0,.1.1l-.9-.8c-3.3-2.7-6.7-5.2-10.1-7.8l-5.2-4.1c-1.6-1.4-3.2-3-5-4.3a4.9,4.9,0,0,1,2.4.4l2.6,1.4a47.6,47.6,0,0,1,4.7,3.1c3.1,2.3,5.9,4.8,8.8,7.4,5.9,5.3,11.6,10.8,17.4,16.2l4.7,4.1a65.3,65.3,0,0,0,5.6,3.5A59.3,59.3,0,0,1,191.3,130.3Zm15.1,8.3a62.7,62.7,0,0,1-8.7-5.8l-8.1-7.6c-5.3-4.9-10.5-9.9-16-14.6a56.2,56.2,0,0,0-9.7-7.1,6.7,6.7,0,0,1,2.8.6l3.2,1.6a45.4,45.4,0,0,1,5.6,4.2c3.5,3.1,6.8,6.5,10.3,9.7s7,6.5,10.7,9.5a77.5,77.5,0,0,0,11.5,8.2c4.6,2.4,9.1,4.7,14.2,6A33,33,0,0,1,206.4,138.6Zm21.6,3.5c-4.4.4-9.1-1.3-13-3.1a84.9,84.9,0,0,1-11.8-6.6c-7.6-5.6-14.3-12.3-21.2-18.7-3.8-3.5-7.5-7.4-12.1-9.8a6.2,6.2,0,0,1,1.9.2l1.3.9a24.3,24.3,0,0,1,2.5,2l5.6,4.8c3.5,3.2,7.2,6.4,10.9,9.4,7.5,6,15,12.6,23.9,16.5a39.8,39.8,0,0,0,7.3,2.6,29.2,29.2,0,0,0,7.7,1.1A9.4,9.4,0,0,1,228,142.1Zm5.5-2.6c-8.8,1.1-17.7-3.1-24.8-7.8a130.4,130.4,0,0,1-11.1-8.5c-3.7-2.9-7.5-5.9-11.1-9s-7.5-6.8-11.4-10h4.6c.4,0,.2,0,.6.2l1.2.9a56.7,56.7,0,0,1,5,4.8,104.8,104.8,0,0,0,10.7,9.3l5.7,4.2a46.5,46.5,0,0,0,5.7,4.2,68.6,68.6,0,0,0,12,6.3,63.4,63.4,0,0,0,7.3,2.6,23.6,23.6,0,0,0,7.9,1.5A5.4,5.4,0,0,1,233.5,139.5Zm4.5-2.9a15.6,15.6,0,0,0-3,.2,13.5,13.5,0,0,1-2.9-.5l-6.3-1.8a77.5,77.5,0,0,1-11.8-5.3,72.8,72.8,0,0,1-10.4-7c-3.4-2.6-7-5-10.2-7.9s-6.5-6.8-10.1-9.8c.9,0,2.4-.3,3.1.1a9.1,9.1,0,0,1,2.4,2.4,63.3,63.3,0,0,0,4.4,4.6,112.1,112.1,0,0,0,10.2,8,92.5,92.5,0,0,0,10.8,6.7,93.8,93.8,0,0,0,11.3,6,26.8,26.8,0,0,0,14.3,1.8Zm3.3-5.1a1.4,1.4,0,0,1-1,.8l-3,.4a25.1,25.1,0,0,1-10.5-1.6,58.4,58.4,0,0,1-9.6-5c-3.3-2-6.7-3.7-9.9-5.8s-6.1-4.4-9-6.7-3.4-2.8-5-4.4-2.7-3.1-4.1-4.6a12.2,12.2,0,0,1,2.7.1c.8.1,1.3,1.2,1.9,1.8a43.7,43.7,0,0,0,4.2,4.4,65.6,65.6,0,0,0,9.2,7.3l10.5,6.5a42.8,42.8,0,0,0,10.9,4.9,30.3,30.3,0,0,0,13.4.7Zm2-3.4a3.1,3.1,0,0,1-1.6.6l-3.5.4c-6.5.6-13.3-2-18.7-5.3l-8.5-5.4a92.3,92.3,0,0,1-8.2-5.7,60.5,60.5,0,0,1-8-8,4.5,4.5,0,0,1,2.3.3,16.6,16.6,0,0,1,2.1,1.6l4.2,3.1c3.1,2.1,6.2,4.2,9.4,6.2s6.2,3.8,9.3,5.6a32,32,0,0,0,4.8,2.6l5,1.6a49.2,49.2,0,0,0,12.1,1.1A5.4,5.4,0,0,1,243.3,128.1Zm1.4-3a28.2,28.2,0,0,1-5.8-.2l-5.7-.6a33.5,33.5,0,0,1-5.4-1.6,34.6,34.6,0,0,1-5-2.7h.1l-.4-.2h.2c-4-2.4-8-4.8-11.9-7.4s-7.3-5-10.8-7.7h2a7.3,7.3,0,0,1,2,.5,38.6,38.6,0,0,1,4.1,2c2.9,1.6,5.6,3.6,8.4,5.5s5.6,4.1,8.6,5.8a32,32,0,0,0,9.4,3.8c3.3.8,7.7,1.8,11.1.7Zm-.4-3.4a27.8,27.8,0,0,1-10.3-1.2,32,32,0,0,1-9-4.1l-8.6-6a70.9,70.9,0,0,0-8.7-5.5h4.8l.9.7h-.2l7.2,6.2a27.8,27.8,0,0,0,7.6,5c2.8,1.1,5.8,2.1,8.7,3.1a20.9,20.9,0,0,0,9.9,1A7.8,7.8,0,0,1,244.3,121.7Zm3.4-2.7a9.3,9.3,0,0,1-2.4.4,18.6,18.6,0,0,1-8.1-1.2q-4.3-1.4-8.4-3a24.2,24.2,0,0,1-6.7-4.6l-6.5-5.6h2.6a3.2,3.2,0,0,1,1.7.2c.6.3,1.2,1.3,1.7,1.8l1.4,1.4c2.3,2.2,4.5,4.2,7.4,5.4a44.5,44.5,0,0,0,8.8,2.6c3.2.6,6.6,1.3,9.8.6A6.4,6.4,0,0,1,247.7,119Zm2.2-3.9a8.6,8.6,0,0,1-2.3.6,26,26,0,0,1-7.3-.8,53.8,53.8,0,0,1-6.9-1.8,17.4,17.4,0,0,1-6-3.2c-1.7-1.5-3.2-3.1-4.8-4.7l4,.2a13.6,13.6,0,0,1,2,.2,3.9,3.9,0,0,1,1.1.6c2.2,1.4,4.2,3.1,6.3,4.6a22.8,22.8,0,0,0,15.3,3.2C250.8,114.6,250.6,114.9,249.9,115.1Zm4.3-4.2c-4,.4-7.3-1.9-10.5-4.1a61.3,61.3,0,0,1,12.7,2.8C255.7,110,254.9,110.8,254.2,110.9Zm-8.4-5.6a40.3,40.3,0,0,1,6,.4,15.9,15.9,0,0,1,3,.6,26.8,26.8,0,0,0,2.7.7,6.8,6.8,0,0,0,.2,1.4A63.2,63.2,0,0,0,245.8,105.3Z" style="fill:#c5a45a"/><path d="M166.7,129.3Z" style="fill:#c5a45a"/><path d="M157.3,27.2Z" style="fill:#c5a45a"/><polygon points="50.5 69.5 50.5 69.5 50.5 69.5 50.5 69.5" style="fill:#c5a45a"/><path d="M222.9,120Z" style="fill:#c5a45a"/><path d="M226.1,60.2h0Z" style="fill:#c5a45a"/><path d="M60.7,96.3h0Z" style="fill:#c5a45a"/><polygon points="157.4 27.1 157.4 27.1 157.4 27.1 157.4 27.1" style="fill:#c5a45a"/><path d="M168,34.7Z" style="fill:#c5a45a"/><path d="M197.7,69.4h0Z" style="fill:#c5a45a"/><polygon points="213.3 144.1 213.3 144.1 213.2 144.1 213.3 144.1" style="fill:#c5a45a"/><polygon points="85 37.4 85 37.4 85 37.4 85 37.4" style="fill:#c5a45a"/><path d="M80.8,26Z" style="fill:#c5a45a"/><path d="M191.2,31.9Z" style="fill:#c5a45a"/><path d="M89.6,132.5v.2h0Z" style="fill:#c5a45a"/><path d="M176.2,146.9h0Z" style="fill:#c5a45a"/><path d="M176.3,146.9Z" style="fill:#c5a45a"/><path d="M118.5,49.4Z" style="fill:#c5a45a"/><path d="M42,93.6h0Z" style="fill:#c5a45a"/></svg>
