<svg xmlns="http://www.w3.org/2000/svg" width="262" height="202" viewBox="0 0 262 202"><title>list2z-small</title><path d="M70.6,9.2a.1.1,0,0,1-.1.1h.1Z" style="fill:lime"/><path d="M259.5,94.1a24.6,24.6,0,0,0-.2,2.8c-.1,1.8-.5,3.7-.7,5.5a43.4,43.4,0,0,1-1.1,6.1,38.6,38.6,0,0,1-4.7,11.1c-1.8,3.2-3.7,6.8-7.1,8.4a23.9,23.9,0,0,1-5.3,1.9,49.1,49.1,0,0,1-5.3.4,43,43,0,0,1-12.4-1.4,83.6,83.6,0,0,1-12-3.8c-3.8-1.6-7.5-3.5-11.2-5.2a21.6,21.6,0,0,0-5.6-1.8c-.4-.1-2.1-.4-2.3.2s.7,1.4.9,1.7a37.3,37.3,0,0,0,9.2,7.6,57.2,57.2,0,0,0,10.6,5.7c7.6,2.9,15.8,3.2,23.9,2.9,2-.1,4-.4,6-.3a4.1,4.1,0,0,1,1.9.5c1,.7-.1,1.7-.6,2.4a48.4,48.4,0,0,0-3.3,4.6l-3.6,4.9a102.4,102.4,0,0,1-7.6,8.5,17.8,17.8,0,0,1-10,5.3,28.7,28.7,0,0,1-12-1.4,67.9,67.9,0,0,1-10.8-4.4,69.3,69.3,0,0,1-10.1-6.9c-3.2-2.5-6.4-5.3-9.4-8.1l-8.9-8.8c-1.4-1.4-3-2.7-4.5-4a31.6,31.6,0,0,0-4.3-3.9c-.9-.6-3.6-1.7-3.5.2s1.5,3.8,2.5,5.3a74.1,74.1,0,0,0,7.2,9.5,86.3,86.3,0,0,0,8.6,8.5c3.2,2.7,6.7,5,10.1,7.5a47.2,47.2,0,0,0,10.5,5.9c3.9,1.4,8.2,2.2,12.2,3.2l5.8,1.3c1,.2,3.5.7,2.3,2.2a18,18,0,0,1-2,1.9l-2.5,1.9c-1.6,1.2-3.4,2.2-5,3.3l-3.6,2.9c-1.5,1.2-2.9,2.5-4.4,3.6a28.1,28.1,0,0,1-10.7,5.2c-3.7.9-7.3,1.6-11,.4a32.8,32.8,0,0,1-10.2-5.6,48.4,48.4,0,0,1-8-7c-7.4-8.5-13.5-18-19.6-27.5-1.5-2.3-2.8-4.7-4.3-7s-2.4-4.5-4.8-4.8a2.2,2.2,0,0,0-2.2.9c-.8,1.1-.5,2.3-.2,3.5a40.4,40.4,0,0,0,3.5,7.6,77.4,77.4,0,0,0,9.2,13.6c3.5,4.5,7.3,8.8,11.1,13s7.5,7.9,11.4,11.7c2,1.8,3.9,3.6,6,5.2l3,2.1,1.9,1.2a6.4,6.4,0,0,1,1.3,1c1.1,1.8-4.3,2.3-5.3,2.5-2.7.5-5.3.6-7.9.9s-4.9.7-7.3,1.1-5.4.5-8.2.7c-4.9.2-10.4.6-15.2-.7s-10.1-3.9-13.6-8.2a43,43,0,0,1-4.4-6.7c-1.3-2.4-2.6-4.7-3.7-7.2-2.1-5.1-3.9-10.3-5.5-15.6s-2.8-10.5-4.3-15.7a23.5,23.5,0,0,0-2.9-6.9c-.9-1.3-3.2-4.7-4.6-2.1a12.1,12.1,0,0,0-.8,3.4,25.8,25.8,0,0,0-.4,3.9c-.1,2.8-.2,5.5-.1,8.2a43.7,43.7,0,0,0,.9,8.1,71.9,71.9,0,0,0,2.4,7.9,87,87,0,0,0,7.4,14.6,46.3,46.3,0,0,0,10.7,12.2l3.3,2.6c.3.3.7.6.7,1.1s-.7.9-1.3.8c-3.2-.5-6.3-1.3-9.5-1.7l-6.4-.9a138.2,138.2,0,0,1-19.1-4.1L73.8,192l-1.9-.5-2.2-.8c-3.1-1.2-6.2-2.4-9.2-3.9a87.5,87.5,0,0,1-16.3-9.9,87.5,87.5,0,0,1-13.4-13.8c-3.9-4.8-7.5-10-9.4-16a37.9,37.9,0,0,1-1.2-18.6,36.2,36.2,0,0,1,3.1-8.9,29.3,29.3,0,0,1,5.7-7.4,41.2,41.2,0,0,1,7.2-5.9,23.9,23.9,0,0,1,8.4-3.9c6.4-1.5,12.9-.6,19.3.1l4.7.3h-.2c2,.1,4,.2,6,.1a13.6,13.6,0,0,0,5.2-1.2,51.4,51.4,0,0,0-8.8-.7,68.2,68.2,0,0,1-9-.7c-2.9-.4-5.7-1.5-8.7-2l-3.7-.7a26.2,26.2,0,0,1-4-1.1A56.7,56.7,0,0,1,37,93.1l-3.8-1.7c-1.5-.7-2.7-1.6-4.2-2.2a112,112,0,0,1-15.2-8.3,60.5,60.5,0,0,1-7-5.2,37.8,37.8,0,0,1-6-6C.2,68.9-.4,68.1.3,67a2.6,2.6,0,0,1,3.3-.8A14.8,14.8,0,0,1,6.4,69a24.7,24.7,0,0,0,2.8,2.8,56,56,0,0,0,7.4,5.4L24.3,82a47.1,47.1,0,0,0,7.6,4.2c2.7,1.3,5.5,2.5,8.3,3.6a118.6,118.6,0,0,0,19.3,5.7c6.8,1.3,13.6,2.2,20.5,3A32.6,32.6,0,0,0,73.2,96l-6.5-1.7a110.1,110.1,0,0,1-12.5-3.4,46.1,46.1,0,0,1-11.8-6.7c-3.3-2.6-6.8-5.7-9-9.4-4.5-7.6-3.5-17.6-1-25.7a49.6,49.6,0,0,1,5.9-12,79.6,79.6,0,0,1,8.2-10.9,63.3,63.3,0,0,1,11.2-9.5c2.1-1.4,4.3-2.6,6.4-3.8s4.2-2.5,6.4-3.6A62.8,62.8,0,0,1,81.3,4.9,117.1,117.1,0,0,1,93.1,2.6a103.7,103.7,0,0,1,12.5-1.1c4.1-.1,8.2-.3,12.3-.1,8.2.2,16.1,2.1,24,3.8l6,1.2c1.3.2,4.1.3,2.5,2.2s-5.3,5.9-8.2,8.7a133.1,133.1,0,0,0-17.6,20.6,104.7,104.7,0,0,0-7.9,13.8,65.9,65.9,0,0,0-3,7.3,23.3,23.3,0,0,0-.8,3.6,11.8,11.8,0,0,0-.3,3.7c.1,1,.4,2.1,1.5,2.2a6,6,0,0,0,3.3-1.6c1.8-1.6,2.6-4.2,3.4-6.4,1.9-5.1,4.1-10,6.3-15A114.2,114.2,0,0,1,136,29.9a63.3,63.3,0,0,1,6.1-8.3c2.3-2.4,4.7-4.8,7.1-7a41.4,41.4,0,0,1,8.1-5.8,17.1,17.1,0,0,1,8.6-1.5c3.5.3,6.9,1.5,10.2,2.5l9.8,3.4a91.4,91.4,0,0,1,18,8.9l2.5,1.5a21.2,21.2,0,0,1,2,1.2c.5.5.6,1.3-.1,1.6a8.6,8.6,0,0,1-2.3.2,16.7,16.7,0,0,0-4.5,1.3c-1.6.5-3,1.4-4.5,2h.1c-4.3,2-8.7,3.6-12.8,5.9a101,101,0,0,0-11.5,7.8c-1.8,1.4-3.8,2.7-5.5,4.2s-3.4,3.3-5.1,4.9c-3.2,3.2-6.1,6.7-9.3,9.9a71.5,71.5,0,0,0-5.3,5.7l-2.4,2.8a7.7,7.7,0,0,0-1.7,2.9c2.7-.8,5.1-3.1,7.4-4.8a63.9,63.9,0,0,0,6.6-6.2l6.4-6.3c2.1-2,4.3-3.8,6.4-5.7A97.6,97.6,0,0,1,185,41a67.5,67.5,0,0,1,16.7-7.4,22.6,22.6,0,0,1,17.1,1.9A25,25,0,0,1,225,41c2.1,2.2,4.2,4.5,6.1,6.8.5.5.9,1.2,1.4,1.6s.5.2.7.6a1,1,0,0,1-.8,1.3h-.9l-1.4.5c-3,.9-6.1,1.8-9.2,2.5s-5.9,1-8.8,1.9c-1.3.4-2.6.6-3.9,1.1l-4.3,1.7a36.2,36.2,0,0,0-4.5,2l-4.6,2.2c-2.8,1.6-5.8,3-8.5,4.8s-5,3.7-7.4,5.7a28.5,28.5,0,0,0-3.4,3.6,15.9,15.9,0,0,0-2.6,4.1,12.5,12.5,0,0,0,4.5-1.8c1.4-.8,2.7-1.7,4-2.6s4.5-3.5,6.7-5.3c4.6-3.9,9.2-7.8,14.6-10.6a39.5,39.5,0,0,1,10.6-3.3l5.2-1a33.2,33.2,0,0,1,6.3-.2c3.8.3,7.8,1.1,11,3.4s5.1,5.9,7.1,9.2c1,1.7,2,3.4,2.9,5.2s1.6,3.8,2.5,5.7a31.8,31.8,0,0,0,6.9,9,18.8,18.8,0,0,0,2.3,1.6c.6.3,1.6.4,2.1,1S259.6,93.4,259.5,94.1Z" style="fill:#fff; fill-opacity:0"/><path d="M136,29.8h0Z" style="fill:lime"/><path d="M157.3,174.8Z" style="fill:lime"/><polygon points="157.4 174.9 157.4 174.9 157.4 174.9 157.4 174.9" style="fill:lime"/><polygon points="213.3 57.9 213.3 57.9 213.2 57.9 213.3 57.9" style="fill:lime"/><polygon points="42.6 108.4 42.6 108.4 42.6 108.4 42.6 108.4" style="fill:#c5a45a"/><path d="M165.1,72Z" style="fill:#c5a45a"/><path d="M70.6,9.2a.1.1,0,0,1-.1.1h.1Z" style="fill:#c5a45a"/><polygon points="222.9 82 222.9 82 222.9 82 222.9 82" style="fill:#c5a45a"/><path d="M172.1,174.7Z" style="fill:#c5a45a"/><path d="M259.6,91.8c-.5-.6-1.5-.7-2.1-1a18.8,18.8,0,0,1-2.3-1.6,31.8,31.8,0,0,1-6.9-9c-.9-1.9-1.6-3.8-2.5-5.7s-1.9-3.5-2.9-5.2c-2-3.3-4-6.8-7.1-9.2s-7.2-3.1-11-3.4a33.2,33.2,0,0,0-6.3.2l-5.2,1a39.5,39.5,0,0,0-10.6,3.3c-5.4,2.8-10,6.7-14.6,10.6-2.2,1.8-4.4,3.6-6.7,5.3s-2.6,1.8-4,2.6a12.5,12.5,0,0,1-4.5,1.8,15.9,15.9,0,0,1,2.6-4.1,28.5,28.5,0,0,1,3.4-3.6c2.4-2,4.8-3.9,7.4-5.7s5.7-3.2,8.5-4.8l4.6-2.2a36.2,36.2,0,0,1,4.5-2l4.3-1.7c1.3-.5,2.6-.7,3.9-1.1,2.9-.9,5.9-1.2,8.8-1.9s6.2-1.6,9.2-2.5l1.4-.5h.9a1,1,0,0,0,.8-1.3c-.2-.4-.4-.4-.7-.6s-.9-1.1-1.4-1.6c-1.9-2.3-4-4.6-6.1-6.8a25,25,0,0,0-6.2-5.5,22.6,22.6,0,0,0-17.1-1.9A67.5,67.5,0,0,0,185,41a97.6,97.6,0,0,0-14.7,10c-2.1,1.9-4.3,3.7-6.4,5.7L157.5,63a63.9,63.9,0,0,1-6.6,6.2c-2.3,1.7-4.7,4-7.4,4.8a7.7,7.7,0,0,1,1.7-2.9l2.4-2.8a71.5,71.5,0,0,1,5.3-5.7c3.2-3.2,6.1-6.7,9.3-9.9,1.7-1.6,3.3-3.4,5.1-4.9s3.7-2.8,5.5-4.2a101,101,0,0,1,11.5-7.8c4.1-2.3,8.5-3.9,12.8-5.9H197c1.5-.6,2.9-1.5,4.5-2a16.7,16.7,0,0,1,4.5-1.3,8.6,8.6,0,0,0,2.3-.2c.7-.3.6-1.1.1-1.6a21.2,21.2,0,0,0-2-1.2l-2.5-1.5a91.4,91.4,0,0,0-18-8.9l-9.8-3.4c-3.3-1-6.7-2.2-10.2-2.5a17.1,17.1,0,0,0-8.6,1.5,41.4,41.4,0,0,0-8.1,5.8c-2.4,2.2-4.8,4.6-7.1,7a63.3,63.3,0,0,0-6.1,8.3h0a134.8,134.8,0,0,0-8.9,15.7c-2.2,5-4.4,9.9-6.3,15-.8,2.2-1.6,4.8-3.4,6.4a6,6,0,0,1-3.3,1.6c-1.1-.1-1.4-1.2-1.5-2.2a11.8,11.8,0,0,1,.3-3.7,23.3,23.3,0,0,1,.8-3.6,65.9,65.9,0,0,1,3-7.3,104.7,104.7,0,0,1,7.9-13.8,133.1,133.1,0,0,1,17.6-20.6c2.9-2.8,5.6-5.7,8.2-8.7s-1.2-2-2.5-2.2l-6-1.2c-7.9-1.7-15.8-3.6-24-3.8-4.1-.2-8.2,0-12.3.1A103.7,103.7,0,0,0,93.1,2.6,117.1,117.1,0,0,0,81.3,4.9,62.8,62.8,0,0,0,70.5,9.3c-2.2,1.1-4.3,2.3-6.4,3.6s-4.3,2.4-6.4,3.8a63.3,63.3,0,0,0-11.2,9.5,79.6,79.6,0,0,0-8.2,10.9,49.6,49.6,0,0,0-5.9,12c-2.5,8.1-3.5,18.1,1,25.7,2.2,3.7,5.7,6.8,9,9.4a46.1,46.1,0,0,0,11.8,6.7,110.1,110.1,0,0,0,12.5,3.4L73.2,96A32.6,32.6,0,0,1,80,98.5c-6.9-.8-13.7-1.7-20.5-3a118.6,118.6,0,0,1-19.3-5.7c-2.8-1.1-5.6-2.3-8.3-3.6A47.1,47.1,0,0,1,24.3,82l-7.7-4.8a56,56,0,0,1-7.4-5.4A24.7,24.7,0,0,1,6.4,69a14.8,14.8,0,0,0-2.8-2.8A2.6,2.6,0,0,0,.3,67c-.7,1.1-.1,1.9.5,2.7a37.8,37.8,0,0,0,6,6,60.5,60.5,0,0,0,7,5.2A112,112,0,0,0,29,89.2c1.5.6,2.7,1.5,4.2,2.2L37,93.1a56.7,56.7,0,0,0,8.4,3.4,26.2,26.2,0,0,0,4,1.1l3.7.7c3,.5,5.8,1.6,8.7,2a68.2,68.2,0,0,0,9,.7,51.4,51.4,0,0,1,8.8.7,13.6,13.6,0,0,1-5.2,1.2c-2,.1-4,0-6-.1h.2l-4.7-.3c-6.4-.7-12.9-1.6-19.3-.1a23.9,23.9,0,0,0-8.4,3.9,41.2,41.2,0,0,0-7.2,5.9,29.3,29.3,0,0,0-5.7,7.4,36.2,36.2,0,0,0-3.1,8.9,37.9,37.9,0,0,0,1.2,18.6c1.9,6,5.5,11.2,9.4,16a87.5,87.5,0,0,0,13.4,13.8,87.5,87.5,0,0,0,16.3,9.9c3,1.5,6.1,2.7,9.2,3.9l2.2.8,1.9.5,4.7,1.5a138.2,138.2,0,0,0,19.1,4.1l6.4.9c3.2.4,6.3,1.2,9.5,1.7.6.1,1.3-.1,1.3-.8s-.4-.8-.7-1.1l-3.3-2.6a46.3,46.3,0,0,1-10.7-12.2,87,87,0,0,1-7.4-14.6,71.9,71.9,0,0,1-2.4-7.9,43.7,43.7,0,0,1-.9-8.1c-.1-2.7,0-5.4.1-8.2a25.8,25.8,0,0,1,.4-3.9,12.1,12.1,0,0,1,.8-3.4c1.4-2.6,3.7.8,4.6,2.1a23.5,23.5,0,0,1,2.9,6.9c1.5,5.2,2.6,10.5,4.3,15.7s3.4,10.5,5.5,15.6c1.1,2.5,2.4,4.8,3.7,7.2a43,43,0,0,0,4.4,6.7c3.5,4.3,8.4,6.7,13.6,8.2s10.3.9,15.2.7c2.8-.2,5.5-.3,8.2-.7s4.8-.9,7.3-1.1,5.2-.4,7.9-.9c1-.2,6.4-.7,5.3-2.5a6.4,6.4,0,0,0-1.3-1l-1.9-1.2-3-2.1c-2.1-1.6-4-3.4-6-5.2q-5.8-5.7-11.4-11.7c-3.8-4.2-7.6-8.5-11.1-13a77.4,77.4,0,0,1-9.2-13.6,40.4,40.4,0,0,1-3.5-7.6c-.3-1.2-.6-2.4.2-3.5a2.2,2.2,0,0,1,2.2-.9c2.4.3,3.6,3.1,4.8,4.8s2.8,4.7,4.3,7c6.1,9.5,12.2,19,19.6,27.5a48.4,48.4,0,0,0,8,7,32.8,32.8,0,0,0,10.2,5.6c3.7,1.2,7.3.5,11-.4a28.1,28.1,0,0,0,10.7-5.2c1.5-1.1,2.9-2.4,4.4-3.6l3.6-2.9c1.6-1.1,3.4-2.1,5-3.3l2.5-1.9a18,18,0,0,0,2-1.9c1.2-1.5-1.3-2-2.3-2.2l-5.8-1.3c-4-1-8.3-1.8-12.2-3.2a47.2,47.2,0,0,1-10.5-5.9c-3.4-2.5-6.9-4.8-10.1-7.5a86.3,86.3,0,0,1-8.6-8.5,74.1,74.1,0,0,1-7.2-9.5c-1-1.5-2.4-3.4-2.5-5.3s2.6-.8,3.5-.2a31.6,31.6,0,0,1,4.3,3.9c1.5,1.3,3.1,2.6,4.5,4l8.9,8.8c3,2.8,6.2,5.6,9.4,8.1a69.3,69.3,0,0,0,10.1,6.9,67.9,67.9,0,0,0,10.8,4.4,28.7,28.7,0,0,0,12,1.4,17.8,17.8,0,0,0,10-5.3,102.4,102.4,0,0,0,7.6-8.5l3.6-4.9a48.4,48.4,0,0,1,3.3-4.6c.5-.7,1.6-1.7.6-2.4a4.1,4.1,0,0,0-1.9-.5c-2-.1-4,.2-6,.3-8.1.3-16.3,0-23.9-2.9a57.2,57.2,0,0,1-10.6-5.7,37.3,37.3,0,0,1-9.2-7.6c-.2-.3-1.1-1.3-.9-1.7s1.9-.3,2.3-.2a21.6,21.6,0,0,1,5.6,1.8c3.7,1.7,7.4,3.6,11.2,5.2a83.6,83.6,0,0,0,12,3.8,43,43,0,0,0,12.4,1.4,49.1,49.1,0,0,0,5.3-.4,23.9,23.9,0,0,0,5.3-1.9c3.4-1.6,5.3-5.2,7.1-8.4a38.6,38.6,0,0,0,4.7-11.1,43.4,43.4,0,0,0,1.1-6.1c.2-1.8.6-3.7.7-5.5a24.6,24.6,0,0,1,.2-2.8C259.6,93.4,260.1,92.3,259.6,91.8Zm-2.3,6.3a21,21,0,0,1-9,.2,34.7,34.7,0,0,0,9.1-1.6C257.4,97.1,257.3,97.6,257.3,98.1Zm-.6,4.5c-5,.5-9.6-1.5-14.1-3.4,4.8.7,9.6,1.8,14.4.6Zm-.8,4.7c-6.8.5-12.5-4.5-17.8-8l6.9,2.8c3.7,1.4,7.5,2.5,11.5,2.2ZM242.4,93.9a10.6,10.6,0,0,1-4.8,1.9l-5.4.4c2.7-2.1,5.4-4.3,8.6-5.4a22.7,22.7,0,0,1,10-1.3h.3C247.7,90.2,245.2,92.1,242.4,93.9ZM255,110.2c-.2.2-1,.2-1.3.2a12.2,12.2,0,0,1-3.3-.2,33.8,33.8,0,0,1-6.9-2.6,37.2,37.2,0,0,1-6.1-4.3,62.6,62.6,0,0,0-5.7-4.5c.9-.1,1.2-.2,1.9.2l1.9,1c1.2.7,2.4,1.4,3.5,2.2a52.1,52.1,0,0,0,7.8,4.7,18.9,18.9,0,0,0,8.7,2.1C255.4,109.4,255.3,110.1,255,110.2Zm-20.5-6.9a43.1,43.1,0,0,0,9.1,6.2,28.7,28.7,0,0,0,6.4,2.3,27.2,27.2,0,0,1-13.3-4.3c-2-1.3-3.9-2.6-5.8-4.1s-3.3-2.8-5.2-4.1a12.7,12.7,0,0,1,2.7-.2,6.4,6.4,0,0,1,1.8,1A43.5,43.5,0,0,1,234.5,103.3Zm18.3,12.4a2.5,2.5,0,0,1-2.1.8,18,18,0,0,1-5.2-.3,33.3,33.3,0,0,1-9.8-3.8,59,59,0,0,1-8.7-6.1,94.5,94.5,0,0,0-7.6-6.6c1.1-.1,2.4-.4,3.4.2a27,27,0,0,1,3.3,2.2l6.1,4.6c4.3,2.9,9,5.7,14.2,6.4a32.2,32.2,0,0,0,7.6.1A19.2,19.2,0,0,1,252.8,115.7Zm-10,4.5a71.4,71.4,0,0,1-9-3.8,86.9,86.9,0,0,1-8-4.4c-5.2-3.4-9.6-7.9-13.9-12.3h2.2a6.7,6.7,0,0,1,2,0,11.3,11.3,0,0,1,1.3,1l1.5,1.1,5.9,5a55.1,55.1,0,0,0,13.5,8.8,29.9,29.9,0,0,0,6.6,2.1c2.1.4,4.5.9,6.6.4a10.1,10.1,0,0,1-1.4,2.5c-.5.5-1.4.4-2,.5A19,19,0,0,1,242.8,120.2Zm5,2.5a19.4,19.4,0,0,1-6.8,0,41.1,41.1,0,0,1-10.2-3,47.9,47.9,0,0,1-9.4-5.2,54.7,54.7,0,0,1-8.3-6.8c-2.6-2.5-4.9-5.3-7.5-7.8h3.8c.2.1.6.7.9.9l3.5,3.7a89.3,89.3,0,0,0,7.4,6.4,63,63,0,0,0,8.8,5.7,77.8,77.8,0,0,0,9.3,4.2A27.7,27.7,0,0,0,247.8,122.7Zm-7.6,2.5a38.1,38.1,0,0,1-5.9-.7,45.3,45.3,0,0,1-18.9-9.3,70.6,70.6,0,0,1-7.9-7.6,61.5,61.5,0,0,0-7.7-7.6h1.9c.5,0,1.3-.2,1.6,0h-.1c.4.1.9.8,1.2,1.1l1.5,1.7L209,106a82.8,82.8,0,0,0,6.8,6.4,56,56,0,0,0,16.5,9.7,38.1,38.1,0,0,0,6.8,2,31.6,31.6,0,0,0,6.9.5C244.3,125.5,242,125.3,240.2,125.2Zm-30.1-8.6c-5.9-5.6-10.8-12.1-17.6-16.6h2.8c.9,0,1.4.5,2.2,1a48.2,48.2,0,0,1,4.3,3.6c2.7,2.6,5.1,5.4,7.8,8,5.4,5,11.5,9.5,18.5,12a38.2,38.2,0,0,0,15.7,2.3c-4,1.8-8.8,1.9-13.1,1.1C222.9,126.5,215.8,122,210.1,116.6Zm-8.3-2.4a92.3,92.3,0,0,0-8-7.3,77.8,77.8,0,0,0-9.6-6.6h3.1c.9,0,1.9-.3,2.7.2s3.1,2,4.5,3.1a115,115,0,0,1,8.6,8.5c2.9,2.9,5.5,5.9,8.8,8.4a55.1,55.1,0,0,0,9.1,6C213.5,124.3,207.2,119.5,201.8,114.2Zm-3.8,2.3c-2.8-1.8-5.6-3.7-8.3-5.7-5.1-3.8-10.6-7.6-16.5-10.1l5.5-.3a5.2,5.2,0,0,1,2.5.2,23.9,23.9,0,0,0,2.2,1.2,81.1,81.1,0,0,1,8.3,5.7c5.4,4.2,9.8,9.4,15.2,13.5A49.5,49.5,0,0,1,198,116.5ZM179.8,111c-4.6-2.5-8.5-5.9-12.7-9l-1.3-.9c1.3-.1,3-.5,4.1,0l3.7,1.7c2.5,1.2,4.9,2.6,7.2,4,4.7,2.8,9,6.3,13.5,9.4A58.5,58.5,0,0,1,179.8,111Zm10.5,8.8c-3.2-2-6.7-3.6-9.8-5.8a18.6,18.6,0,0,1-1.9-1.1l-2.6-1.7-4-3.4a51.4,51.4,0,0,0,18.4,9.2l-.3.4C189.5,118.1,189.9,119.1,190.3,119.8Zm48.5,20.3a31.3,31.3,0,0,1-4.3.4,56.2,56.2,0,0,1-9.2-.4,53.2,53.2,0,0,1-17.4-4.9,48.3,48.3,0,0,1-8-4.5,33.5,33.5,0,0,1-5.9-6l4.8,3.1c1.5,1.1,3.1,2,4.6,3a51,51,0,0,0,18.4,6.7,85.5,85.5,0,0,0,10.1.6l5.3-.2a40.2,40.2,0,0,1,4.9-.2c-.5.6-.9,1.3-1.4,1.8S239.5,140,238.8,140.1Zm-1.6,2.9-2.9.4a51.9,51.9,0,0,1-5.6.1,44.8,44.8,0,0,1-11-1.4,61.4,61.4,0,0,1-10.2-3.5,45.5,45.5,0,0,1-9.6-5.8h0l-.3-.2h-.1c-2.9-2.2-5.6-4.8-8.4-7.3a84.2,84.2,0,0,0-7.1-6.1,53.1,53.1,0,0,0-8.1-4.4,7.2,7.2,0,0,1-2.1-1.2l-1.3-1.7-3.3-3.7a64.6,64.6,0,0,0-7.1-6.7,7.5,7.5,0,0,1,1.5,0l1.1.7h-.2c3.8,2.9,7.1,6.1,10.8,9.1a38.1,38.1,0,0,0,6.2,4.3l5.7,3.7a34.2,34.2,0,0,1,7.7,7,33.9,33.9,0,0,0,6.7,6.4,45.7,45.7,0,0,0,8.4,4.6,59.1,59.1,0,0,0,18,4.7,45.6,45.6,0,0,0,13.3-.2c-.2.3-.4.9-.7,1.1A5.8,5.8,0,0,1,237.2,143Zm-4,4.2-5.1.4a46.9,46.9,0,0,1-10.6-.8,48.1,48.1,0,0,1-17.6-8.2,68.7,68.7,0,0,1-6.6-5.5c-2.1-1.9-3.9-4-6-6a40.7,40.7,0,0,0-6.5-5.3l-3.6-2.3a12.8,12.8,0,0,1-2.6-2.6c4.7,2,8.5,5.1,12.2,8.5s6.7,6.3,10.5,9.1a61.3,61.3,0,0,0,12,6.7,59.2,59.2,0,0,0,13.9,3.6,42.9,42.9,0,0,0,7.2.4,37.8,37.8,0,0,0,6.7-.5c-.4.5-.9,1.7-1.5,2A9.3,9.3,0,0,1,233.2,147.2ZM201.8,142a45.5,45.5,0,0,0,16.8,6.6,47.1,47.1,0,0,0,13,.4,17.6,17.6,0,0,1-6.4,1.5,46.3,46.3,0,0,1-6.5-.4,48.2,48.2,0,0,1-21.7-9.5,86.5,86.5,0,0,1-8.9-8.2c-2.9-3-5.7-6-8.3-9.2a51.4,51.4,0,0,1,8,6.8A89.5,89.5,0,0,0,201.8,142Zm28.4,9.6c-1,.3-1.9.7-2.9.9a31.3,31.3,0,0,1-5.3,1.2c-3.7.5-7.5-.3-11-1.3a47.4,47.4,0,0,1-7.4-2.9c-3-1.6-5.7-3.4-8.5-5.2-5.7-3.7-10.4-8.4-15-13.5s-8-10.6-12.4-15.7l-6.3-7.3a34.2,34.2,0,0,0-7.1-6.1c.7,0,1.8-.3,2.4,0a8.7,8.7,0,0,1,2.2,1.7l3.8,3.5c2.6,2.7,5.1,5.5,7.4,8.4,4,5,8.2,10,12.6,14.7a99.1,99.1,0,0,0,14,12.7,50.5,50.5,0,0,0,17.1,8,42.8,42.8,0,0,0,9.5,1.5,22.4,22.4,0,0,0,9.2-1.7A6.1,6.1,0,0,1,230.2,151.6Zm-2.3,2.5-1.7.6-3.6.9a20,20,0,0,1-7.3.7,37.3,37.3,0,0,1-13.1-3.8c-3.9-2-7.8-4-11.1-6.9a61.7,61.7,0,0,1-4.6-4.3c-1.6-1.5-3.3-3-4.8-4.6a126.6,126.6,0,0,1-8.9-10.5v.2c-1.6-2.3-3.5-4.5-5.3-6.7a71.1,71.1,0,0,0-5.5-6.8,79.7,79.7,0,0,0-13.3-11.2c.9,0,2.1-.2,2.8.3l2.3,1.4c1.5,1.1,2.9,2.3,4.3,3.5s4.7,5.5,7.1,8.2,4.4,5.2,6.5,7.9,3.9,5.4,6.1,7.9c4.6,5.1,9.3,9.9,15,13.8s10.7,7.1,16.9,9a33.9,33.9,0,0,0,9.9,1.8,39.3,39.3,0,0,0,10.1-2A6,6,0,0,1,227.9,154.1Zm-53.7-22.3a205.9,205.9,0,0,0-13.5-15.9,111.5,111.5,0,0,0-16.6-14.1h1.4c.5,0,.9.4,1.3.6L149,104a54.6,54.6,0,0,1,4.8,3.6,50.1,50.1,0,0,1,8.5,8.1c4.6,5.4,8.6,11.3,13.3,16.7,2.3,2.5,4.5,5.1,6.9,7.5l3.9,3.7c1.2,1.1,2.4,2.4,3.7,3.5a55.6,55.6,0,0,0,17.8,9.5,28.8,28.8,0,0,0,10.5,1.5,39.7,39.7,0,0,0,8.9-2.1,14.9,14.9,0,0,1-9.9,4.5,29.5,29.5,0,0,1-11.4-2,57.3,57.3,0,0,1-18.1-10C182.4,143.8,178.6,137.4,174.2,131.8Zm-18.9-15.3c-2.7-2.5-5.1-5.2-7.6-7.8s-4.8-4.7-7.4-7a5,5,0,0,1,2.7,1.4l2.5,1.8,4.7,3.7c2.7,2.3,5.4,4.6,7.9,7.1s5,5.4,7.5,8.2,4.7,5.7,7.1,8.6,4.1,5.6,6.2,8.3c-3-2.8-5.8-5.7-8.6-8.7l-7.2-8.2A78.3,78.3,0,0,0,155.3,116.5Zm-9.3-2.3a70.2,70.2,0,0,1-6.1-6.1c-1.9-2.1-3.6-4.5-5.6-6.4h2.6a1.6,1.6,0,0,1,1,.2l.7.7,1.3,1.2,2.9,2.6c2,1.9,3.9,3.8,5.8,5.8s3.7,3.9,5.7,5.7a74.3,74.3,0,0,1,5.9,5.3C155.6,120.1,150.2,117.9,146,114.2Zm8.1,9.1a2.1,2.1,0,0,0-.3,1.2c-4-3.9-8.6-7.1-12.7-10.8-2.1-1.9-4.2-3.7-6.2-5.7a56.9,56.9,0,0,1-4.9-6.1,12.8,12.8,0,0,1,1.9-.1c.5.2,1.1,1,1.5,1.4a41.5,41.5,0,0,1,2.7,3.2,72.1,72.1,0,0,0,5.9,6.5,54.6,54.6,0,0,0,6.4,5.3c2.3,1.5,4.7,2.6,7.1,4A2.5,2.5,0,0,0,154.1,123.3Zm1.4,1.1Zm3.2,9.9c-5.8-5-11.8-9.6-17.2-15a132.7,132.7,0,0,1-14.7-17.1h1c.4.1.4.2.7.5a17.7,17.7,0,0,0,1.2,1.7l2.5,3.1a60.4,60.4,0,0,0,5.7,5.6c4.2,3.9,8.7,7.4,13,11.1a18,18,0,0,1,4.2,4.5A49.4,49.4,0,0,0,158.7,134.3Zm7.7,9c-3.8-2.3-7.4-4.7-11.2-7.1s-6.6-4.2-9.7-6.7a89.4,89.4,0,0,1-8.8-7.5,41.9,41.9,0,0,1-3.1-5c-.9-1.7-2.1-3.3-3.1-5a92,92,0,0,0-6.9-9.5H125a91.7,91.7,0,0,0,6.6,8.8q3.6,4.2,7.5,8.1a184.9,184.9,0,0,0,17,14.9c1.9,1.5,3.6,3.2,5.4,4.8S164.9,141.8,166.4,143.3ZM124.3,90.6c-2.3,2.3-4.5,4.7-7,6.8a32.4,32.4,0,0,1-3.5,2.7c-1.3.9-3.1.6-4.6.6a64.7,64.7,0,0,0,7.6-7.2c2.4-2.4,5-4.7,7.5-7a58.9,58.9,0,0,1,8.3-5.8,97.5,97.5,0,0,0,8.4-5.9,12.9,12.9,0,0,1-.9,1.6,14.5,14.5,0,0,1-2.1,2.2C133.4,82.5,128.6,86.3,124.3,90.6Zm18.3-13c-6.7,7.3-11.9,16.3-20,22.2l-6.1.6c4.6-3.4,8.3-7.9,12.5-11.8S137.9,81.1,142.6,77.6Zm12,67.4c3.4,3.8,7.1,7.3,10.7,10.8a108.4,108.4,0,0,0,11.6,9.9c4,2.9,8.2,5.3,13.1,5.9a48.3,48.3,0,0,0,14.7-.1,24.6,24.6,0,0,1-15.6,1.1,42.5,42.5,0,0,1-13.5-6.2,85.6,85.6,0,0,1-12-9.6c-3.6-3.7-7-7.6-10.4-11.5a105.9,105.9,0,0,1-9.3-11.9C147.7,137,151.1,141.1,154.6,145Zm44.2,19.4a45.9,45.9,0,0,1-17.3-6.1c-5.4-3.2-9.3-7.9-13.7-12.2a85.8,85.8,0,0,1,7.2,5.1l7.6,5.5a61.7,61.7,0,0,0,7.7,4.8A37.1,37.1,0,0,0,198.8,164.4Zm9.3,2.3a45.1,45.1,0,0,1-14.2.2c-8.6-1.2-16.3-6-22.5-11.9-3-2.8-5.7-6-8.6-9s-6.3-5.9-9.5-8.9a63.3,63.3,0,0,1,6.1,3.9l2.6,2.1a65.1,65.1,0,0,1,8.5,8.1,43.1,43.1,0,0,0,17,11.9,60.6,60.6,0,0,0,10.1,2.8l5.3.7,2.9.2A17.7,17.7,0,0,1,208.1,166.7Zm1.6,1.5a38.6,38.6,0,0,1-8.9,2.2,50.3,50.3,0,0,1-9.5-.3h-.1a25.9,25.9,0,0,1-11.1-4.2c-6.4-4.3-12-9.7-17.4-15-2.9-2.8-5.5-5.7-8.2-8.7s-4.9-5.8-7.7-8.4c4.3,3.5,8.6,7.2,12.6,11.1,7,6.9,13,14.8,21.9,19.4a36.2,36.2,0,0,0,14.2,4.4,44.5,44.5,0,0,0,7.3.2Zm-10,8.1a30.4,30.4,0,0,1-7.4-.2,27.9,27.9,0,0,1-13.5-5.6c4.1,2.1,8.7,4.1,13.3,4.6a27.5,27.5,0,0,0,13.6-2.2l-3,2.2a3.8,3.8,0,0,1-1.2.9A3.6,3.6,0,0,1,199.7,176.3Zm-5.5,3.6a21.8,21.8,0,0,1-5.2-.9,50.5,50.5,0,0,1-9.6-3.8c-6.1-3.5-10-8.9-14.1-14.4,1.5,1.3,3.1,2.5,4.7,3.7a15.6,15.6,0,0,1,2,1.6l2,2.2a32.6,32.6,0,0,0,8.9,6.7,31.5,31.5,0,0,0,16,3.1l-.9.8c-.4.2-.8.8-1.2,1A11.3,11.3,0,0,1,194.2,179.9Zm-4.5,2.9a36.5,36.5,0,0,1-5.5-1.3,40.3,40.3,0,0,1-16.5-11,51.8,51.8,0,0,1-6-8.7,38.3,38.3,0,0,1-2.5-4.4c-.6-1.5-1.2-3.1-1.9-4.6a25.8,25.8,0,0,1,3.1,3.6l2.5,3.8c1.5,2.5,3.4,4.8,5.1,7.1a34.2,34.2,0,0,0,6.9,6.8,33.1,33.1,0,0,0,8.2,4.6,31,31,0,0,0,11.5,2.9,6.3,6.3,0,0,1-2.4,1.3A10.5,10.5,0,0,1,189.7,182.8Zm-6.8,1.4a45.4,45.4,0,0,1-6.1-2.4,42.4,42.4,0,0,1-9.8-6.4,45.5,45.5,0,0,1-7.4-8.9,61.5,61.5,0,0,1-5.2-11l-2.1-5.8a47.7,47.7,0,0,0-2.2-5.2l3.7,4.3c1,1.2,1.3,3,1.9,4.4a80.5,80.5,0,0,0,4.1,8.9,72.5,72.5,0,0,0,5.3,7.9,41,41,0,0,0,14.5,11.3,32.7,32.7,0,0,0,9.6,3.1C187.3,185.1,184.9,184.7,182.9,184.2Zm-28.7-18.9c-3.2-7.6-5.2-15.6-7.4-23.5.8,1.7,1.9,3.4,2.6,5.2l2.2,5.8c2.5,6.6,4.9,13.4,9.6,18.9a41.5,41.5,0,0,0,7.7,7.4,44.8,44.8,0,0,0,4.7,2.8,41.6,41.6,0,0,0,4.7,2.4,28.1,28.1,0,0,0,4.9,1.6,13.8,13.8,0,0,1-6.7,0,20.7,20.7,0,0,1-6.2-2.9,43.2,43.2,0,0,1-9.6-7.4A39.8,39.8,0,0,1,154.2,165.3Zm-9.3-13.6a62.8,62.8,0,0,1-1.9-8.6c-.4-3-.5-6.1-1-9.1a13.3,13.3,0,0,1,1.9,3.5c.5,1.3.7,2.7,1.1,4.1s1.5,5.6,2.2,8.4a116.5,116.5,0,0,0,5.7,16.3c-1.9-2-3.2-4.6-4.6-6.9A37.6,37.6,0,0,1,144.9,151.7Zm-7.4-19.2c-.3-2.2-.3-4.4-.7-6.6.6,1,1.2,2,1.9,3a6,6,0,0,1,.9,1.3,9.5,9.5,0,0,1,.4,1.8c.4,2.3.6,4.5.9,6.8a63.6,63.6,0,0,0,2.5,13.7,28.1,28.1,0,0,1-5.2-13.9h0C137.9,136.6,137.7,134.5,137.5,132.5Zm-.6,8.7c-1.9-4.3-2.1-9.3-3-13.9a53.1,53.1,0,0,0-1.9-6.5c-.8-2.1-1.6-4.2-2.5-6.2,1.5,2,2.7,4.1,4.1,6.2s1.3,4.2,1.6,6.2C135.9,131.7,136,136.5,136.9,141.2Zm-6.7-10.9h0a114.3,114.3,0,0,1-4.2-12.9c-1.2-4.3-2.6-8.6-4.1-12.9a32.7,32.7,0,0,1,4.2,6.9,81.6,81.6,0,0,1,3.6,8,55.4,55.4,0,0,1,2.6,8.8c.6,3,1,6,1.7,9a23.7,23.7,0,0,1-2.2-3.3C131.2,132.7,130.7,131.5,130.2,130.3Zm-8.9-12.8c-1.9-5-3.7-9.9-7-14.2l5.1-.4a56.9,56.9,0,0,1,2.5,6.9c.8,2.3,1.4,4.6,2.1,7a138.8,138.8,0,0,0,4.7,14.2A59.2,59.2,0,0,1,121.3,117.5Zm1.1,9.1a50.9,50.9,0,0,1-4.2-8c-2.5-5.2-4.7-10.8-8.4-15.2h2.4c1.2,1.9,2.7,3.7,3.8,5.7a44.8,44.8,0,0,1,2.9,6.8,69.8,69.8,0,0,0,7.1,14.2c.7,1.1,1.5,2.1,2.3,3.2C125.9,131.7,124,129,122.4,126.6Zm2.9,8.3a2.9,2.9,0,0,0-.8,1.3c-.7-1.5-1.2-2.9-1.9-4.4s-1.7-2.8-2.6-4.2-3.6-5.5-5.2-8.4a99.4,99.4,0,0,0-10.5-15.9h2.5c.8,0,1,.5,1.4,1.1a22.7,22.7,0,0,1,2.6,3.5c1.7,2.9,3.2,5.8,4.6,8.8a85.9,85.9,0,0,0,4.8,9.6,35.4,35.4,0,0,0,6.3,7.6A3.4,3.4,0,0,0,125.3,134.9ZM163.5,190a68.1,68.1,0,0,1-9.5-7.5c-2.9-2.6-5.8-5.3-8.5-8.1a106.9,106.9,0,0,1-7.1-8c-2.1-2.8-4-5.7-6-8.7a205.6,205.6,0,0,1-10.6-18.2c-3.2-6.2-6.1-12.7-9.4-18.9-1.7-3.1-3.5-6.1-5.4-9.1s-4.1-5.8-6.3-8.5h1c.2.6.9,1.1,1.3,1.6l1.4,1.6,2.8,3.7c1.8,2.6,3.3,5.2,4.8,7.9a71.2,71.2,0,0,0,4.9,8,58.3,58.3,0,0,1,4.9,8.3c1,2.3,2.1,4.6,2.9,6.9A43.7,43.7,0,0,0,128,148c4.4,8.3,10.3,15.4,16.6,22.4A249.9,249.9,0,0,0,163.5,190Zm.1,2a49.6,49.6,0,0,1-10.9-5.8,55.6,55.6,0,0,1-8.9-8.6c-4.7-5.7-9.5-11.3-13.8-17.3s-7.3-12.9-10.9-19.3-6.3-13.3-9.8-19.8c-1.8-3.2-3.9-6.4-6-9.4s-3.9-6.2-6.2-9.1a2.7,2.7,0,0,1,1.3.2,5.8,5.8,0,0,1,1,1.2l1.8,2.4c1.2,1.5,2.4,3.1,3.5,4.7,2.1,3.3,4,6.5,5.9,9.9,3.4,6.1,6.2,12.5,9.4,18.7A205.6,205.6,0,0,0,130.6,158c1.9,2.9,3.8,5.9,5.9,8.7a91.4,91.4,0,0,0,7.1,8.1,125.9,125.9,0,0,0,15.8,14.3A39.3,39.3,0,0,0,163.6,192Zm-8.6,2c2.3.4,4.7.6,7.1.9l7,1a23.5,23.5,0,0,1-7,0A25.8,25.8,0,0,1,155,194Zm-7.1.8A34.2,34.2,0,0,1,138,187l1.3.9a35.8,35.8,0,0,0,4.9,3,35.8,35.8,0,0,1,4.9,2,35.2,35.2,0,0,0,10.3,4.1,13.1,13.1,0,0,1-5.9,0A27.2,27.2,0,0,1,147.9,194.8Zm-37.7-55.6h0c-.5-.8-1-1.6-1.4-2.4a24.7,24.7,0,0,1-1-2.9l-2.1-5.5c-1.5-3.6-3.1-7.2-4.7-10.8a140.7,140.7,0,0,1,9.9,17.3c2.7,5.2,5.2,10.7,8,15.9s5.8,10.1,8.9,15a105.9,105.9,0,0,0,9.9,13.9,38.4,38.4,0,0,0,6.1,6,36.8,36.8,0,0,0,7.5,4.8l-.5-.2a46.6,46.6,0,0,1-9.7-5.5,35.7,35.7,0,0,1-7.2-6.8,81,81,0,0,1-5.5-8.4c-3.4-5.6-6.5-11.4-9.9-17h0c-1.1-2-2.3-4-3.5-5.9h0c-1.5-2.6-3.2-5-4.7-7.5A.1.1,0,0,1,110.2,139.2Zm7,14.5c3.9,6.5,7.3,13.3,11.5,19.6a53,53,0,0,0,6.8,8.8,47.2,47.2,0,0,0,9,7,43.9,43.9,0,0,1-9.7-6.9,47.2,47.2,0,0,1-6.8-8c-2.1-2.9-4.1-6-5.9-9.1s-3.3-6.2-4.8-9.3-3.2-6.5-4.7-9.8c1.6,2.6,3.1,5.2,4.7,7.7Zm26,43.4a21.2,21.2,0,0,1-6.4-4.7,22.8,22.8,0,0,1-4.6-6.1,40.5,40.5,0,0,1-3-7.5c1.3,1.7,2.9,3.1,4.2,4.8s2.5,3.4,3.9,4.9a34,34,0,0,0,10.4,8.1,23.9,23.9,0,0,0,3.7,1.5h.2a17.8,17.8,0,0,1-4.6.3A13.4,13.4,0,0,1,143.2,197.1Zm-5.2.7a16.6,16.6,0,0,1-3.9-2.6,29.5,29.5,0,0,1-6.4-7.7c-3.4-5.8-4.6-12.2-5.6-18.8.8,1.3,1.6,2.6,2.5,3.9s1.9,2.3,2.2,3.6a51.5,51.5,0,0,0,2.4,7.6A29.1,29.1,0,0,0,139.7,197a15.2,15.2,0,0,0,3,1.7A8.6,8.6,0,0,1,138,197.8ZM127.5,194c-4.7-3.9-7.9-10.2-9-16.2s-.9-12.8-2-19.1c1,1.8,2,3.6,2.9,5.5a18.5,18.5,0,0,1,1.1,5.3,79.5,79.5,0,0,0,2.2,10.8c2.2,6.9,6.3,14.1,12.7,17.9l.9.6C132.9,198.6,129.9,196.1,127.5,194Zm-7.1-3.8c-4.1-5.6-6-12.3-7.1-19.1s-.6-13.8-1.1-20.8c.6,1.9,1.4,3.8,2,5.7a24.5,24.5,0,0,1,1,5.4c.2,3.3.6,6.6.9,9.8a47.4,47.4,0,0,0,1.6,10,38.9,38.9,0,0,0,4.4,9.2,27.9,27.9,0,0,0,6.8,6.9A20.2,20.2,0,0,1,120.4,190.2Zm-12-38.6c-.3-3.8-.9-7.6-.6-11.4L109,143a10.5,10.5,0,0,1,1,2.8,59,59,0,0,1,.6,5.9c.2,3.8-.1,7.6.1,11.4s.7,7.2,1.3,10.8a39.8,39.8,0,0,0,9,19.9,29.7,29.7,0,0,1-7.4-9.1c-3.7-6.6-4.4-14.4-4.7-21.7C108.7,159.2,108.7,155.4,108.4,151.6Zm-4.3-21c.7,1.7,1.4,3.4,2,5.2a4.1,4.1,0,0,1,.3,2.2l-.3,2.8a92.4,92.4,0,0,0,.7,10.4c.3,3.7.3,7.5.4,11.2s.6,7,1,10.5v-.2h0c0-.1-.1-.1-.1-.2h.1a57.5,57.5,0,0,1-4.9-20.8C102.9,144.8,104,137.7,104.1,130.6Zm-4.5-10.3,1.8,3.9c.4,1,1.2,2.1,1.2,3.2-.2,2.7-.2,5.4-.3,8.1-.3,5.5-.9,11-.6,16.5a31.5,31.5,0,0,1-1.5-9.1c-.1-3.2-.1-6.3,0-9.4v.2A99.4,99.4,0,0,0,99.6,120.3Zm-.8-8.4a36.4,36.4,0,0,1-2.8-4.7c-.9-1.7-1.9-3.3-2.8-4.9a8,8,0,0,1,1.5.3,3.9,3.9,0,0,1,.8,1c.6.8,1.3,1.5,1.8,2.3s2.3,3.3,3.4,5c2.1,3.4,4.4,6.5,6.4,9.9s3.1,6.3,4.7,9.5,3,6.4,4.7,9.5,3.5,6.5,5.2,9.7A88.4,88.4,0,0,0,127,159a154.6,154.6,0,0,0,13.2,17,87.6,87.6,0,0,0,7.1,7.8,42.9,42.9,0,0,0,8.4,6.3l3.1,1.6a42.6,42.6,0,0,1-11.2-5.3,53,53,0,0,1-4.5-3.4,43.8,43.8,0,0,1-4.1-4.5c-4.9-5.5-8.8-11.9-12.6-18.2-1.9-3.2-3.7-6.4-5.5-9.6s-3.3-6.5-4.9-9.8c-3.3-6.6-6.6-13.3-10.5-19.6C103.4,118,101.2,115,98.8,111.9Zm-3.5,9.8c-.6-3.3-1.2-6.5-2-9.8-.4-1.5-.9-2.9-1.4-4.4a27.8,27.8,0,0,0-1.6-4l.4-.5a91.7,91.7,0,0,1,4.8,8.7,21.7,21.7,0,0,1,1.7,4.2,24.2,24.2,0,0,1,.7,4.7c.8,6.5.6,13.1.7,19.6C96.5,134.2,96.4,127.9,95.3,121.7Zm-3-22.2h-.9c2.2-3.2,3.2-7.2,4.3-10.8s2.3-7.5,3.8-11.1a47.5,47.5,0,0,1,5-10.1,72.7,72.7,0,0,1,7.4-9.2c-.5,1.6-.7,3.4-1.3,4.9s-1.1,3.1-1.7,4.6c-2.2,5.7-5,11.2-7.6,16.7-1.3,2.7-2.6,5.2-4.1,7.8s-1.5,2.5-2.3,3.7S93,98.2,92.3,99.5Zm-3.5,10.2c-.1-.5-.3-1-.4-1.4a6.9,6.9,0,0,1-.4-1c0-.6.9-1.5,1.2-2a61.2,61.2,0,0,1,4.2,15.2c1,5.2,1.2,10.7,2.5,15.9C90.5,128.5,91.5,118.5,88.8,109.7Zm-.6,12c-.5-2.2-1.1-4.5-1.8-6.6a14.3,14.3,0,0,1-.6-3.5,6.1,6.1,0,0,1,.1-1.4l.9-1.3c2.9,8.5,2.2,17.7,6.2,25.9a2.5,2.5,0,0,0-2.6.3A76.4,76.4,0,0,0,88.2,121.7Zm-5-6a6.6,6.6,0,0,1,.1-1.4,13,13,0,0,1,1-1.5,22.5,22.5,0,0,0,1.3,5.1c.5,1.8.9,3.5,1.3,5.3a101.1,101.1,0,0,1,1.9,11c0,1,.2,2.2.1,3.2l-.6,2.5c-.7-4.7-2.5-9.2-3.5-13.9-.5-2.3-1.3-4.6-1.6-6.9S83.2,116.8,83.2,115.7Zm18.2,76.8h.1a49.7,49.7,0,0,1-10.2-14.7,62.3,62.3,0,0,1-5-15.1,143.9,143.9,0,0,1-2-15.9c-.3-5.1-1-10.2-1.8-15.2-.1-1.1-.3-2.3-.5-3.4a20.5,20.5,0,0,1-.7-3.4L81,121a6.8,6.8,0,0,1-.2-1.4,4.4,4.4,0,0,1,.8-1.5c0,2.9,1,5.9,1.6,8.8s1.8,6.2,2.7,9.3c1.5,5.4,1.2,11,1.6,16.6a54.4,54.4,0,0,0,1.1,8.1,66.8,66.8,0,0,0,2.6,8.7,95.7,95.7,0,0,0,8,15.6,44.3,44.3,0,0,0,11.7,12.7l-2.5-.5a7.1,7.1,0,0,1-1.8-.8,9.5,9.5,0,0,1-1.7-1A25.9,25.9,0,0,1,101.4,192.5Zm-8.8-5.4c-5.9-7.6-9.1-16.6-10.9-26.1a95.9,95.9,0,0,1-.6-27.8c.6,5.2,1.3,10.5,1.8,15.7s.8,10.6,2.1,15.7v.4a.4.4,0,0,0-.1-.3,82.8,82.8,0,0,0,6.5,17.4,51,51,0,0,0,5.3,7.8,38.6,38.6,0,0,0,6.7,6.7,10.5,10.5,0,0,1-2.6-1.3l-3.2-2.6A34.3,34.3,0,0,1,92.6,187.1Zm-12.2-24c1.7,8.5,4.8,16.9,10,23.8a69.6,69.6,0,0,1-8.6-12.3A61.2,61.2,0,0,1,75,148.7a60.3,60.3,0,0,1,4.5-25.9,61,61,0,0,1,.2,7.4c-.1,2.4-.5,4.7-.7,7.1A96.9,96.9,0,0,0,80.4,163.1Zm.4,12.9a70.3,70.3,0,0,0,9.9,13.7A43.7,43.7,0,0,1,80,176.6a87.1,87.1,0,0,1-7-16.3,37.2,37.2,0,0,1-1-14.5,66.3,66.3,0,0,1,2.9-14.6A49.3,49.3,0,0,0,73.4,142C73,153.7,75,165.8,80.8,176ZM89,192.7a46.1,46.1,0,0,1-6-4.7,63.2,63.2,0,0,1-8.2-10.5,49,49,0,0,1-5.1-12.6,39.7,39.7,0,0,1-1.4-12.8c.1-1.9.2-3.8.4-5.7a15,15,0,0,1,.6-2.9,10.8,10.8,0,0,1,1.6-3,61.4,61.4,0,0,0-.5,14.2c.3,4.1,1.7,8.1,3.1,11.9A79.7,79.7,0,0,0,79,178a49,49,0,0,0,7.1,9.8,55.6,55.6,0,0,0,9.5,7.8A17.1,17.1,0,0,1,89,192.7Zm-5.6-.7a24.7,24.7,0,0,1-4.9-3.6c-1.5-1.6-3.1-3.1-4.5-4.8a64.9,64.9,0,0,1-3.6-5.5,45.9,45.9,0,0,1-5.3-15.2,33.1,33.1,0,0,1-.2-8.3c.2-1.4.4-2.7.5-4.1A9.3,9.3,0,0,1,67,147a52.3,52.3,0,0,0-.1,12.5,51.7,51.7,0,0,0,7.3,20.2,62.3,62.3,0,0,0,6.5,8.1,37,37,0,0,0,7.8,6.4c-.4,0-.7-.3-1.1-.4l-1.3-.5A13.4,13.4,0,0,1,83.4,192Zm-11.6-5a48.5,48.5,0,0,1-9.6-16.4,31.2,31.2,0,0,1-1.7-9.5,8.6,8.6,0,0,1,.9-3.9,31.7,31.7,0,0,1,2.1-4.1c-1.1,7.5.5,14.9,3.5,21.8a42,42,0,0,0,13.4,17.2,16.6,16.6,0,0,1-4.8-1.9A19.5,19.5,0,0,1,71.8,187ZM58.3,171.9h0a12.8,12.8,0,0,1-.7-3.9,18.3,18.3,0,0,1,1.4-4.7c.2,4.9,2.2,9.9,4.3,14.2a39.9,39.9,0,0,0,8.6,12C64.5,187.1,60.1,179,58.3,171.9Zm-2,6.1a27.3,27.3,0,0,1,.4-5.7,30.7,30.7,0,0,0,7.6,14.2c-2.5-1.1-5-2.3-7.4-3.6.1-.6-.4-1.5-.5-2.1A26.2,26.2,0,0,1,56.3,178Zm-3.2,2.7a26.1,26.1,0,0,1,.5-4.8,20.8,20.8,0,0,1,1.6-4.8,30.2,30.2,0,0,0-.2,10.8Zm-1.7-1.6a5.8,5.8,0,0,1-.3-2.3A33.5,33.5,0,0,1,54.6,163c1.7-3.7,3.4-7.5,5.4-11.1s4.2-7.5,6-11.4,4.2-7.8,6-12c.8-1.9,1.4-3.9,2.1-6a4.8,4.8,0,0,1,.5-1.7l1.2-.8,2.3-1.5a67.2,67.2,0,0,0-5.6,13.6,8.6,8.6,0,0,1-.9,2.7l-1.4,2.8-3.5,6c-2.3,3.9-4.5,7.7-6.5,11.8-1,2-1.7,4.2-2.6,6.2s-1.3,3.7-2.2,5.5C53.4,170.9,51.5,174.7,51.4,179.1Zm-2.2-9.5a34.7,34.7,0,0,1,1.1-6.3,55.3,55.3,0,0,1,4.5-10.7c1.8-3.5,4-6.9,6-10.3s4.1-7,6.2-10.4a42,42,0,0,0,2.6-5.2c.4-.7.7-1.5,1.1-2.3s.3-1,.5-1.2.8-.5,1.1-.7a81.2,81.2,0,0,1-5.1,11.7c-1.8,3.5-3.4,7-5.3,10.4s-3.6,6.8-5.2,10.2c-3.2,7-7,13.6-7.3,21.6A30.8,30.8,0,0,1,49.2,169.6Zm-2.4-1.3a31.9,31.9,0,0,1,.8-6.2c1.6-7.3,5.7-13.6,9.6-19.8,1.9-3,3.6-6.2,5.3-9.4a43,43,0,0,0,2.4-4.8,5.8,5.8,0,0,1,.5-1.1l1.1-.8,2.2-1.5c-.7,1.6-1.4,3.3-2.2,4.9s-1.8,3-2.7,4.5l-5.6,9.4h0v.2h0l-.7,1.1h0a107.7,107.7,0,0,0-7.2,13.9A35,35,0,0,0,47.4,174,22.1,22.1,0,0,1,46.8,168.3ZM44.7,162c.7-6.6,3.7-12.2,6.8-17.8,1.5-2.8,2.9-5.8,4.1-8.7a6.4,6.4,0,0,1,1.3-1.9l1.8-1.5c1.3-1.1,2.6-2.2,4-3.2a143.8,143.8,0,0,1-7.4,13.4c-2.9,4.8-6.1,9.6-8,14.9a33.1,33.1,0,0,0-1.8,15.9A31.9,31.9,0,0,1,44.7,162ZM42,164.1a38.9,38.9,0,0,1,1.7-10.2c1.1-3.2,2.7-6.2,3.8-9.5a6.2,6.2,0,0,1,.7-1.9,8.6,8.6,0,0,1,1.4-1.8c1.1-1.3,2.3-2.5,3.4-3.6-1.3,2.9-2.7,5.7-4.3,8.5a73.4,73.4,0,0,0-3.9,8.6,33.6,33.6,0,0,0-1,19.1A17.3,17.3,0,0,1,42,164.1Zm-3.1-4.8A31.4,31.4,0,0,1,45,146.4c-1.7,4.1-3.5,8.1-4.2,12.5a25.7,25.7,0,0,0,.6,13.2,28.3,28.3,0,0,1-2.5-2.4c-.6-.8-.5-2.3-.6-3.3A24.4,24.4,0,0,1,38.9,159.3Zm-5.4-2a26.2,26.2,0,0,1,3.6-9.4,39.1,39.1,0,0,1,6.9-8.3,93.8,93.8,0,0,1,8-6.1,70.9,70.9,0,0,1,8.7-5.5,105.5,105.5,0,0,0-8.1,6.9,53.2,53.2,0,0,0-6.4,7,49.1,49.1,0,0,0-5.4,7.5,32.5,32.5,0,0,0-4.1,18l-2-2.4a4.4,4.4,0,0,1-1.4-2.2A14.5,14.5,0,0,1,33.5,157.3Zm-4.8-.7a14.9,14.9,0,0,1,1-5.5,37.3,37.3,0,0,1,12.6-16.2c5.7-4.3,12.3-7,19-9.3a109.9,109.9,0,0,0-10.8,6.9h-.2c-5,3.6-9.8,7.3-13.4,12.4s-5.6,10.4-5.4,16.1a23.5,23.5,0,0,1-1.9-2.5,4.4,4.4,0,0,1-.8-1.1C28.6,157.2,28.7,156.9,28.7,156.6Zm-3.2-6.4a25.7,25.7,0,0,1,1.1-4.8,30.4,30.4,0,0,1,4.8-7.9,32,32,0,0,1,6.1-5.5,42.8,42.8,0,0,1,7.7-3.9c5.4-2.2,11.1-3.1,16.7-4.5a93.2,93.2,0,0,0-10,3.8,48.9,48.9,0,0,0-16.1,11.3c-4,4.3-8.1,10.1-8.7,16.2-.5-.8-1-1.6-1.4-2.4A4.4,4.4,0,0,1,25.5,150.2Zm-2.7-8.4a32.3,32.3,0,0,1,3.3-6.4,33.5,33.5,0,0,1,22-13.1c8.5-1.2,17.3-1.1,25.4-4-4.3,1.9-9,2.9-13.5,4s-8.1,1.7-12,3a47.5,47.5,0,0,0-11.2,5.2c-6.1,4-11.8,11.2-12.7,18.6a27.8,27.8,0,0,1-1.2-3.8,10.5,10.5,0,0,1-.5-1.9C22.2,142.8,22.5,142.4,22.8,141.8Zm.1-8.9a22,22,0,0,1,1.8-2.8,31.2,31.2,0,0,1,4.3-4.6,33.3,33.3,0,0,1,9.7-5.5,43.7,43.7,0,0,1,11.4-1.7c3.9-.3,7.8.1,11.7,0a44.2,44.2,0,0,0,11.4-1.6,57.5,57.5,0,0,1-13.1,2.7l-5.6.5-5.9.7A36.4,36.4,0,0,0,37.4,124a32.8,32.8,0,0,0-15.6,16,32.5,32.5,0,0,1-.3-4.4C21.6,135.6,22.7,133.2,22.9,132.9Zm1.7-10.7a20.2,20.2,0,0,1,2.7-2.4c7.1-5.2,16.5-6.1,25.1-5.4,4.6.3,9.2.9,13.9.7a37.2,37.2,0,0,0,13.2-2.9,24.9,24.9,0,0,1-4,2c-6.2,2.2-12.7,2.6-19.3,2.4s-13,0-18.9,2.2h0a30.2,30.2,0,0,0-15.7,13.1,29.5,29.5,0,0,1,1.6-7A7,7,0,0,1,24.6,122.2Zm11-10.7c7.4-3,15.2-1.1,22.7-.4s15.7,1.5,23-1.6a40.5,40.5,0,0,1-5.7,2.4,29.6,29.6,0,0,1-5.9,1.3,56.3,56.3,0,0,1-11.6.1,103.4,103.4,0,0,0-11.1-.7c-7.4.1-15,1.6-21,6.2A19,19,0,0,1,35.6,111.5Zm8.5-4.9a66.8,66.8,0,0,1,10,0c3.3.3,6.4.8,9.6,1.2a62.3,62.3,0,0,0,10.6.5,25.9,25.9,0,0,0,10.1-2.8,20.5,20.5,0,0,1-4.4,2.8,31.8,31.8,0,0,1-5.1,1.3,38.4,38.4,0,0,1-10.7.4l-10.9-1.2a48,48,0,0,0-10.7-.4H42a29.8,29.8,0,0,0-8.3,2.1A20.3,20.3,0,0,1,44.1,106.6Zm39.1-5.1h2.1l2.2.2c-4,2.6-8.2,4.6-13.1,5a58.4,58.4,0,0,1-13.8-1,86.5,86.5,0,0,0-8.9-.8,55.4,55.4,0,0,0-9.1.3,35.5,35.5,0,0,1,10.2-1.5,77.2,77.2,0,0,1,10.7.9,65.1,65.1,0,0,0,10.8.5C77.6,104.9,81.1,104.3,83.2,101.5ZM32.5,58.1A69.1,69.1,0,0,0,36,66.6a73.7,73.7,0,0,0,4.1,7.9A60.4,60.4,0,0,0,51.5,87.8a48,48,0,0,1-14.3-11c-3.8-4.4-5.1-9.9-4.9-15.7h0C32.3,60.2,32.4,59.1,32.5,58.1ZM50.1,84.2ZM36.7,57.5c4.1,12.7,12.1,24.1,22,33l-.9-.3a33.7,33.7,0,0,1-7.6-5.9h0c0-.1-.1-.1-.1-.2h0l-.2-.2h0c-.2-.5-1-1-1.4-1.4l-1.9-1.9c-1.1-1.3-2.2-2.7-3.2-4.1a75.8,75.8,0,0,1-5.3-9.2c-.8-1.7-1.5-3.5-2.3-5.2a26.7,26.7,0,0,1-1.9-5.4,14.4,14.4,0,0,1-.5-2.4,4.2,4.2,0,0,1,.2-2.2A31.3,31.3,0,0,1,35.2,47a48.7,48.7,0,0,0,.2,5.4A29.3,29.3,0,0,0,36.7,57.5ZM56.1,85.6ZM41,52.1A79.6,79.6,0,0,0,51.7,75.4a59.3,59.3,0,0,0,8.1,9.9c1.6,1.5,3.2,3,4.9,4.3s3.6,2.5,5.3,3.7l-3.8-.9a12.9,12.9,0,0,1-3.5-1c-2.2-1.3-4.1-3.4-6-5.2a77.1,77.1,0,0,1-16-22.8A37.4,37.4,0,0,1,36.9,50a21.4,21.4,0,0,1,.4-6.7l.3-1.7a12.5,12.5,0,0,1,.8-1.2l1.8-2.9C39.9,42.3,39.8,47.3,41,52.1ZM57.5,73.5a69.7,69.7,0,0,0,9.7,11.3c3.4,3.5,7.1,6.7,10.1,10.6a13.4,13.4,0,0,1-3.7-1.6l-3.5-2.5c-2.4-1.7-4.9-3.4-7.1-5.3A66.5,66.5,0,0,1,52.6,73.9c-1.5-2.3-2.8-4.8-4.1-7.2s-2.4-4.7-3.4-7.1a46.8,46.8,0,0,1-3.5-15.2,73.1,73.1,0,0,1,.3-8.1c.1-.6-.1-1.1.3-1.6l1.1-1.5L45.7,30a44.1,44.1,0,0,0,.2,16.2C47.5,56.2,52,65.2,57.5,73.5ZM54.7,21.1c-.8,1.4-1.6,2.8-2.3,4.2a22.1,22.1,0,0,0-1.2,4.2,33.1,33.1,0,0,0-.3,9.4,46.3,46.3,0,0,0,1.3,8.3c.7,2.9,1.6,5.6,2.5,8.4a58,58,0,0,0,7,14.9c3.1,4.6,6.5,9.2,9.9,13.7s6.9,8.4,9.8,13A4.8,4.8,0,0,1,79.8,96l-1.5-2q-1.6-2.1-3.3-3.9c-2.2-2.4-4.7-4.5-7-6.8A75.3,75.3,0,0,1,57,69.7a76.1,76.1,0,0,1-8-16.8,58,58,0,0,1-2.4-17.6,39.3,39.3,0,0,1,.6-4.8,18,18,0,0,1,1-3.3,12.9,12.9,0,0,1,1.6-1.7c.5-.5,1.1-1,1.6-1.6A30.4,30.4,0,0,1,54.7,21.1Zm7.1-4.8c-1.7,2.9-2.2,6.1-2.9,9.3A49.9,49.9,0,0,0,58,35c-.1,5.9,1.5,11.6,3,17.2a89.6,89.6,0,0,0,6,15.9c5.3,10.7,12.9,20,18.1,30.7h-1a41,41,0,0,0-5.6-8.6L72,81.8c-1.9-2.5-3.8-5-5.6-7.6a80.9,80.9,0,0,1-5.3-7.7c-2.9-5.4-4.8-11.3-6.6-17.1a42.7,42.7,0,0,1-1.9-9.3,37.8,37.8,0,0,1,0-9.5A23.6,23.6,0,0,1,56,22.2a21.2,21.2,0,0,1,2.5-3.6A13,13,0,0,1,61.8,16.3ZM71,11a48,48,0,0,0-3.8,8.3,48.5,48.5,0,0,0-1.9,9.2c-.7,5.7,0,11.4.8,17.1a73.2,73.2,0,0,0,4.7,16.6c2.2,5.4,4.5,10.7,7,15.9,1.3,2.7,2.7,5.3,3.9,7.9s2.7,5.2,3.8,7.9c-3.1-5.4-6.7-10.5-9.9-15.8a139.4,139.4,0,0,1-8.3-14A86.8,86.8,0,0,1,62.1,49c-.7-2.7-1.4-5.5-1.9-8.3a37.5,37.5,0,0,1-.3-8.2A38.5,38.5,0,0,1,61,24.2a22.3,22.3,0,0,1,2.7-7.6,8.7,8.7,0,0,1,3.1-3.2A44.9,44.9,0,0,1,71,11ZM81.7,6.7c-4.4,4.6-6.7,10.7-8.4,16.6a27.5,27.5,0,0,0-1.4,8.1,51.7,51.7,0,0,0-.1,8.8A76.8,76.8,0,0,0,75,57.4c.9,2.9,1.7,5.7,2.5,8.5s2,5.5,3,8.3c2,5.5,4,11.1,5.5,16.8-2.7-5.8-5.9-11.4-8.4-17.2s-4.4-10-6.3-15.2a82.7,82.7,0,0,1-2.6-8c-.6-2.7-1-5.3-1.4-8a53.6,53.6,0,0,1-.1-16,38.7,38.7,0,0,1,5.6-15.4c.5-.8.8-1.5,1.7-1.9l2.3-1A40.1,40.1,0,0,1,81.7,6.7Zm6-1.4h.6a44.2,44.2,0,0,0-7.9,17.2,60.7,60.7,0,0,0-1.6,8.5,78.9,78.9,0,0,0-.8,8.5,86.3,86.3,0,0,0,.3,8.8,54.9,54.9,0,0,0,1.4,8.1c.7,2.8,1.3,5.6,1.9,8.3s1.9,5.3,2.6,7.9,1.6,5.2,2.1,7.9c.1,1.2.1,2.4.2,3.5s.3,3,.4,4.5C85.1,82.2,83,76,80.6,69.9a69.4,69.4,0,0,1-2.5-8.1c-.8-2.6-1.8-5.3-2.4-8a71.5,71.5,0,0,1-2.4-16.5,78.7,78.7,0,0,1,.4-8.4,36.9,36.9,0,0,1,2-8.1c1.8-5.3,4.4-10.4,8.4-14.3a2.7,2.7,0,0,1,1.7-.8h-.1l.9-.2h0l1.1-.3ZM98.5,3.7a46.9,46.9,0,0,0-8.7,13.7,77.6,77.6,0,0,0-6.2,27.8A59,59,0,0,0,85,59.7c.5,2.4,1.1,4.8,1.4,7.2s0,4.9,0,7.3c-.7-2.4-1.5-4.7-2.3-7.1a61.7,61.7,0,0,1-1.9-7.4c-1-4.6-2.2-9.3-2.4-14-.1-2.4-.2-4.8-.1-7.2s.5-4.7.7-7,.8-4.9,1.3-7.3a43.8,43.8,0,0,1,1.9-7.1c1.8-4.3,3.9-8.7,7-12.2.3-.3,1.5-.3,1.9-.4l1.9-.3Zm7.6-.4a45.1,45.1,0,0,0-8.4,10.6,78.2,78.2,0,0,0-5.3,10.9,45,45,0,0,0-2.1,5.8c-.5,2-.9,4-1.3,5.9a66.3,66.3,0,0,0-1,12.6V55c0,2-.1,4.4-1,6.1a56.5,56.5,0,0,1-1.8-12.9A74.3,74.3,0,0,1,89,24.3c2.6-7.5,5.9-14.8,11.6-20.5a4,4,0,0,1,2.4-.4Zm7.5-.2a51.8,51.8,0,0,0-7.8,8.4,70.5,70.5,0,0,0-5.7,8.9,48.9,48.9,0,0,0-3.9,9.8c-1.1,3.2-2,6.6-3.1,9.8-.5,1.5-1,3-1.4,4.5s-1.3,3.2-1.8,4.9a60.8,60.8,0,0,1,.8-11.3,59.3,59.3,0,0,1,2-9.3c1.1-3.1,2.4-6.3,3.8-9.3A47.3,47.3,0,0,1,108.3,3.4c.6-.5,1.8-.3,2.6-.3Zm9.2.4a34.8,34.8,0,0,0-6.9,5,44.5,44.5,0,0,0-5.6,5.9c-3.4,4.2-6,8.8-8.9,13.2-1.4,2.1-3.1,4.1-4.5,6.2,1.8-5.7,3.7-11.3,6.9-16.4A56,56,0,0,1,115,3.9a2.4,2.4,0,0,1,.8-.6c.4-.3.5-.2,1-.2h1.8Zm8.8,1.3a29.8,29.8,0,0,0-7.3,4.3,41.7,41.7,0,0,0-6.2,4.9,44,44,0,0,1-6.1,5.2l-5.9,4.4c2.7-4.1,5.2-8.2,8.7-11.7a38.7,38.7,0,0,1,10.8-8.1Zm14.3,3A82.7,82.7,0,0,0,132.7,10a76.4,76.4,0,0,0-12.4,4.5c4.1-3.9,9-7.4,14.5-9.1Q140.4,6.8,145.9,7.8Zm-.7,3.5a11.7,11.7,0,0,1-2.6.4c-1.8.3-3.7.3-5.5.5a71.7,71.7,0,0,0-11.3,1.7,80.1,80.1,0,0,1,10.6-3.1c3.6-.8,7.3-1,10.9-1.5C146.7,10,146,11.1,145.2,11.3Zm-4.4,3.9a26.2,26.2,0,0,1-3.8.9,71.8,71.8,0,0,1-7.9,1.2,83.1,83.1,0,0,0-15.6,3.2,27.8,27.8,0,0,1,7.6-3.6,76.4,76.4,0,0,1,11.5-2.6l11.3-1.2-1.5,1.5A10.4,10.4,0,0,1,140.8,15.2ZM137.9,18l-2.2.9c-1.6.6-3.4.9-5.1,1.4-3.4.8-6.9,1.3-10.4,2.1a87.2,87.2,0,0,0-9.9,3.1,59.3,59.3,0,0,0-8.8,5.1,22,22,0,0,1,7.4-6.5,45.4,45.4,0,0,1,9.6-3.3c7-1.8,14.3-1.9,21.3-3.7A6.6,6.6,0,0,1,137.9,18Zm-5,5.2a23.4,23.4,0,0,1-4.6,1.9c-2.8,1-5.7,1.7-8.6,2.7s-6,2.3-8.9,3.6a50.2,50.2,0,0,0-8.3,4.3l-3.7,2.5c-1.3,1-2.4,2.2-3.7,3.2a18.6,18.6,0,0,1,3.1-5.5c4.9-5,11.3-8.3,17.8-10.5s14.1-2.8,20.8-5.2c-.6.5-1.1,1.2-1.6,1.7A6.5,6.5,0,0,1,132.9,23.2Zm-4.5,5.6a29.5,29.5,0,0,1-4.3,2.9c-2.8,1.5-5.7,2.6-8.5,4s-5.7,2.7-8.6,4.1A53.8,53.8,0,0,0,91.9,50.5,14.4,14.4,0,0,1,93.6,46a30.6,30.6,0,0,1,3.5-3.7,51.1,51.1,0,0,1,7.5-5.7,94.4,94.4,0,0,1,9-4.5,98.5,98.5,0,0,1,9.5-3.7c3-.9,6.1-1.8,9-3a15.4,15.4,0,0,1-1.7,1.9A14.9,14.9,0,0,1,128.4,28.8Zm-10.3,9.7-9.9,5.1a91.4,91.4,0,0,0-9.4,5.8,62.4,62.4,0,0,0-8.4,7,6,6,0,0,1,1.1-2.6,15.9,15.9,0,0,1,2-2.4,39.7,39.7,0,0,1,4.2-4,58.9,58.9,0,0,1,9.6-5.9l.4-.2h0l.3-.2h0l9.2-4.4a95.4,95.4,0,0,0,9.1-4.4C124.2,35,121.1,36.9,118.1,38.5Zm1.1,3a40,40,0,0,1-4.8,3.2c-3.1,1.9-6.5,3.5-9.6,5.5A48.8,48.8,0,0,0,95.9,57a39.4,39.4,0,0,0-6.6,8.6c.1-1,.1-2,.2-3a8.2,8.2,0,0,1,.5-2.8,19.5,19.5,0,0,1,3.9-4.2,75.8,75.8,0,0,1,9-6.8c3.2-2.1,6.5-3.9,9.9-5.7a92,92,0,0,0,9.7-5.4c-.6.8-1,1.8-1.6,2.5A7.6,7.6,0,0,1,119.2,41.5Zm-7.5,10.2c-4.9,4.1-9.8,8-14,12.8a43.1,43.1,0,0,0-5.4,7.3A58.5,58.5,0,0,0,89,80c0-2.1-.1-4.1,0-6.2a13.1,13.1,0,0,1,.1-2.8,17.7,17.7,0,0,1,.6-1.7c2.2-6.3,7-11.2,12.2-15.2s11.5-6.5,16.9-10.4A30.3,30.3,0,0,1,111.7,51.7Zm.2,4.2c-1.4,1.5-2.8,3-4.1,4.6a45.9,45.9,0,0,0-5.9,8,59.8,59.8,0,0,0-4.5,9.6c-1.3,3.4-2.4,6.8-3.5,10.2A42.5,42.5,0,0,1,90.1,98a22.6,22.6,0,0,0-.1-4.5,11,11,0,0,1-.2-1.8,19.3,19.3,0,0,0-.1-2.4,19.4,19.4,0,0,0-.2-2.4c0-.4-.1-.9-.1-1.2a1.1,1.1,0,0,1,.2-.6c.4-1.5.6-3,1.1-4.5a49.3,49.3,0,0,1,2.4-6.4,29.3,29.3,0,0,1,3.5-5.6,70.3,70.3,0,0,1,9.9-10.5c2.8-2.3,5.8-4.6,8.4-7.2l-1.2,2.7A10.2,10.2,0,0,1,111.9,55.9ZM116,69.8c-1.7,2.7-3.9,5.1-5.6,7.7a92.3,92.3,0,0,0-5.4,8.4c-1.6,2.8-3.1,5.6-4.9,8.2s-1.7,2.4-2.6,3.5-1.8,2.3-3,2.1c3.6-4.5,6.3-9.9,8.8-15.1s5.5-11.2,7.6-17A3.5,3.5,0,0,0,116,69.8Zm11.4-20.5a122.3,122.3,0,0,1-4.1,13,68.9,68.9,0,0,1-5.1,10.6c-2.1,3.3-4.3,6.5-6.3,9.9s-4.2,6.5-6.5,9.8a49.4,49.4,0,0,1-3.5,4.5L100,99.2l-.9.8a1.9,1.9,0,0,1-1.3,0,29.1,29.1,0,0,0,5.2-6.9l4.4-7.8c1.5-2.6,3.1-5.1,4.8-7.6s3.6-4.6,5.2-7h-.1a34.2,34.2,0,0,0,3.3-5.1c.7-1.7,1.5-3.4,2.1-5.2C124.2,56.7,125.6,52.9,127.4,49.3Zm4.7-9.6c-1.1,5.2-1.9,10.4-2.9,15.5a94.1,94.1,0,0,1-3.4,12.9c-1.6,4.1-4.2,7.7-6.6,11.4s-5,7.5-7.7,11.1a36.2,36.2,0,0,1-9.2,9.1,69.2,69.2,0,0,0,8-10.5c2.2-3.3,4.2-6.8,6.4-10.2a91.2,91.2,0,0,0,6-10c3.4-7.1,5.1-14.7,7.2-22.3A43.7,43.7,0,0,1,132.1,39.7Zm7.4-11.8c-2.9,6.1-4.1,12.8-5.2,19.3-.5,3.4-.9,6.9-1.7,10.2a18.5,18.5,0,0,1-1.2,4,45,45,0,0,1-3.1,4.5c1.2-4.2,2.3-8.6,3.1-12.9s1.5-9.4,2.5-14.1S137.1,31.3,139.5,27.9Zm8.5-9.6a74,74,0,0,0-5.6,14.1,116.1,116.1,0,0,0-3.5,14.1h0c0,.1-.1.1-.1.2h0a39,39,0,0,1-1.3,5.7,6.3,6.3,0,0,1-1.2,2.3l-1.9,2.6c1.1-4.8,1.6-9.8,2.5-14.8a57.9,57.9,0,0,1,4.2-14c.9-1.9,1.9-3.7,2.9-5.5A28.7,28.7,0,0,1,148,18.3ZM159.3,10a26.2,26.2,0,0,0-6.9,8.3,86.8,86.8,0,0,0-4.6,10.9c-1.4,3.7-2.6,7.5-3.7,11.3s-2,6.9-4.3,9.7c1.3-5.3,2.4-10.6,3.9-15.8s3.2-10.9,6-15.8A19.2,19.2,0,0,1,159.3,10Zm7.6-.7c-5.8,2.8-9.8,9-12.6,14.6-1.7,3.2-3.1,6.5-4.5,9.8s-2.6,6.5-4.6,9.3c2.6-8,4.8-16.1,8.6-23.6h-.1a.1.1,0,0,1,.1-.1h0a23.4,23.4,0,0,1,7.8-9A6,6,0,0,1,164,9.1,13.7,13.7,0,0,1,166.9,9.3Zm7.2,1.9c-6.2,2.1-9.9,7.6-13.3,12.8a130.2,130.2,0,0,1-10.4,14h.1a.1.1,0,0,0-.1.1h0l-1.3,1.4c2.1-4.7,4-9.5,6.3-14.1v.2a5.9,5.9,0,0,1,.4-.8v.2a49.6,49.6,0,0,1,5.9-9.2c2.1-2.5,5-5,8.3-5.7Zm7,2.2a28.1,28.1,0,0,0-12.2,7.2c-3.6,3.3-6.6,7.3-10.5,10.4,2.8-4,5.1-8.4,8.2-12.2a20.3,20.3,0,0,1,5.1-4.6,11.1,11.1,0,0,1,2.9-1.4c1-.4,2-.3,3-.6Zm8.4,3.2a27.9,27.9,0,0,0-7,1.9,35.5,35.5,0,0,0-6.1,3.2,42.5,42.5,0,0,1-5.6,2.9,52.3,52.3,0,0,0-5.8,2.9c2.9-2.8,5.2-6.1,8.5-8.5s6.6-4.1,10.3-4.4h.8Zm12.7,6.5c-3.7-1.1-7.9-1-11.7-1.3a56.1,56.1,0,0,0-11.6.5c4.1-2.5,9.3-4.9,14.3-4A64.9,64.9,0,0,1,202.2,23.1Zm-9.2,3a82.7,82.7,0,0,1-11-2.3,93.9,93.9,0,0,1,17.6.5,16.6,16.6,0,0,1,3.8,1.1A28,28,0,0,1,193,26.1Zm1,2.7-3.8-.3c-2.5-.4-5-1-7.5-1.3a45.1,45.1,0,0,0-15.1,1,34.2,34.2,0,0,1,4.7-2.3,12,12,0,0,1,4.6-1.1c3.3.2,6.6,1.3,9.9,2.1a39.3,39.3,0,0,0,10.2,1,10.1,10.1,0,0,1-1.8.9Zm-7,2.4-5.5-.3a40.9,40.9,0,0,0-10.5.6,38.4,38.4,0,0,0-9.9,3.3c-3.1,1.4-6.1,3.2-9.3,4.6a48.5,48.5,0,0,1,6.5-5.5,16.9,16.9,0,0,1,3.6-2.3,30.4,30.4,0,0,1,4-1.2,45.4,45.4,0,0,1,17.2-1.5c2.9.4,5.9,1.2,8.9,1.4a14.5,14.5,0,0,1-2.6,1.1A9.7,9.7,0,0,1,187,31.2Zm-2.9,2.4H181a51.2,51.2,0,0,0-5.6.3,36.4,36.4,0,0,0-10.3,2.7c-3.4,1.5-6.6,3.3-9.8,4.9s-6.7,3.2-9.9,5l1.8-2.1a10.5,10.5,0,0,1,1.7-1.9,21.8,21.8,0,0,1,2.3-.9l2.6-1.1c3.4-1.6,6.5-3.5,10-4.9a45,45,0,0,1,10.9-2.9,56.4,56.4,0,0,1,11.6.2A6.5,6.5,0,0,1,184.1,33.6Zm-7.5,3.3a38.8,38.8,0,0,0-4.9,1.1h0a78.1,78.1,0,0,0-8.1,2.9c-2.7,1.2-5.3,2.6-7.9,3.9-5.1,2.6-10.1,5.6-15.4,7.8.6-.7,1.1-1.5,1.7-2.1a8,8,0,0,1,1.9-1.3l4.4-2.4,8-4c2.8-1.4,5.5-3,8.4-4.3A38,38,0,0,1,182,35.1a13.5,13.5,0,0,1-2.6,1.5A26.6,26.6,0,0,1,176.6,36.9Zm-4.9,5c-1.9.7-3.8,1-5.7,1.6a61.1,61.1,0,0,0-10.2,4.3l-10,5.5A114.4,114.4,0,0,1,135.6,59l1.4-2.1a10.9,10.9,0,0,1,1.3-1.7,14.2,14.2,0,0,1,2.2-.7l2.2-1a97.6,97.6,0,0,0,9.1-4.7,104.1,104.1,0,0,1,18.9-8.7,36.5,36.5,0,0,1,5.9-1.6l-2.5,1.8A10,10,0,0,1,171.7,41.9Zm-11.1,8c-5.6,2.7-10.5,6.7-15.7,10.1a91.6,91.6,0,0,1-8,4.6,31.7,31.7,0,0,1-4.1,2.1c-1.2.7-2.6,1.1-3.8,1.8,1-1.3,1.8-2.8,2.8-4.2l1.5-2.2a5.3,5.3,0,0,1,2.1-1.1,65.9,65.9,0,0,0,8.3-4.4c2.8-1.8,5.7-3.4,8.5-5a72.3,72.3,0,0,1,16.6-7.3A41,41,0,0,1,160.6,49.9Zm-17,16.6c-6.3,4.2-13.8,6-20.1,10.1l1.6-2.5a10.2,10.2,0,0,1,1.8-2.3l2.2-1,2-1.1c3.3-1.7,6.7-3.4,9.9-5.3,6.7-3.9,12.6-9,19.4-12.6-2.7,2.7-5,5.7-7.9,8.1l-4.3,3.5Zm-5.8,8.7c-2.8,2.2-6,3.8-9,5.7a48.4,48.4,0,0,0-4.4,3c-1.4,1.1-2.8,2.4-4.1,3.6s-5.2,5.1-7.8,7.6-2.6,2.4-4,3.6-2.4,1.9-3.8,1.8c5-3.7,8.9-8.9,12.4-14l2.6-3.9a6.2,6.2,0,0,1,1.1-1.7,5.7,5.7,0,0,1,1.8-1.2,57.7,57.7,0,0,1,7.6-4.4H130l8.5-4c2.8-1.4,5.1-3.1,7.7-4.7A35.7,35.7,0,0,1,137.8,75.2Zm5.6-1.1Zm54.4-37.3c-6.6,3-12.2,7.6-17.9,11.9l-7.5,5.5c-2.6,1.9-4.9,4.1-7.4,6.2a88.7,88.7,0,0,0-6.9,6.8c-2.3,2.4-4.8,4.4-7.1,6.7-4.5,4.5-9,9.2-13.2,14-1.9,2.4-3.9,4.7-6,7a19.9,19.9,0,0,1-3.3,3.2,5.9,5.9,0,0,1-2.7,1.4,76.9,76.9,0,0,0,10.4-11.6,119.5,119.5,0,0,1,10.3-12.1c1.7-1.7,3.4-3.5,5.2-5a59.3,59.3,0,0,0,5.3-4.7c2.8-2.8,5.7-5.5,8.6-8.2l4.8-4.6a59.8,59.8,0,0,1,4.9-3.9A90.7,90.7,0,0,1,197.8,36.8Zm15.7-1.3c-3.5,0-7,1.5-10.1,2.8a81.7,81.7,0,0,0-9.3,4.8,165.2,165.2,0,0,0-17.9,12.1h.1c-3.9,2.8-7.7,5.9-11.4,9a72.5,72.5,0,0,0-9.1,8.4c-2.9,3.2-5.9,6.3-8.9,9.5a125.1,125.1,0,0,0-8.4,9.4,48.3,48.3,0,0,1-4.1,4.9,17.5,17.5,0,0,1-2.4,2.3,1.3,1.3,0,0,1-.9.5h-1.3a17.1,17.1,0,0,0,3.8-3.8c1.3-1.4,2.5-2.8,3.7-4.3,4.5-5.3,9.4-10.5,14.4-15.4,2.5-2.5,5.2-4.7,7.6-7.3s4.9-5,7.6-7.3h0c2.7-2.2,5.2-4.5,8-6.6l8.1-5.9c2.7-2.1,5.5-4.2,8.3-6.1a61.7,61.7,0,0,1,8.7-4.8,9.5,9.5,0,0,1,2.1-.9,32.8,32.8,0,0,1,6.1-1.8,6.5,6.5,0,0,1,2.8-.2,3.5,3.5,0,0,1,1.4.3Zm6.1,3a50.5,50.5,0,0,0-6.8.8,56,56,0,0,0-7,2,31.3,31.3,0,0,0-6,2.4l-5.4,3.7c-3.8,2.4-7.3,5.3-10.9,8s-7,5.9-10.4,8.9l-8,7.7h0l-.2.2h0c-4.9,4.9-9.6,10-14.3,15.1a85,85,0,0,1-7.3,7.4l-4,2.8a15.5,15.5,0,0,1-2.2,1.2,6.1,6.1,0,0,1-2.3.3c2.9-2.8,5-6.2,7.6-9.2s5.3-5.8,8-8.6c4.7-4.9,9.1-10.1,14.3-14.5s11.2-9.2,17.1-13.3a150.7,150.7,0,0,1,17.4-11.1,53.4,53.4,0,0,1,9.2-4,16.4,16.4,0,0,1,4.9-1,26.1,26.1,0,0,1,4.8.2Zm4.1,3.8a48.5,48.5,0,0,0-5.5.9l-5.6,1.1c-3.8.9-7.4,1.6-11,3.3a75.6,75.6,0,0,0-8.9,4.7,63.2,63.2,0,0,0-8.1,6.6c-4.8,4.4-9.8,8.5-14.3,13.3s-9.1,10.4-13.8,15.4a100.5,100.5,0,0,1-7.3,7.3A41.3,41.3,0,0,1,145,98a6,6,0,0,1-2.5,1H140a40.1,40.1,0,0,0,6.9-5.4c2.3-2.2,4.3-4.6,6.4-6.9,4.2-4.5,8.4-9.1,12.8-13.5h0l.6-.5c0-.1.3-.3.3-.4l1.4-1.3,2.6-2.6,5.6-5.1c3.4-2.9,6.8-5.8,10.4-8.6l5.2-4c1.8-1.3,3.7-2.4,5.6-3.7a26.8,26.8,0,0,1,5.7-3.2l6.2-2a43.3,43.3,0,0,1,11.9-1.7Zm4.9,5.4a21,21,0,0,0-5.6-.8,37.9,37.9,0,0,0-5.8.5,50.3,50.3,0,0,0-10.8,2.7,57.1,57.1,0,0,0-8.5,4.4l-8.4,5.6c-2.9,1.8-5.4,4.1-8.1,6.1L174.1,72c-5.1,4.4-8.6,10-12.7,15.2a70.3,70.3,0,0,1-6.6,7.7,15.7,15.7,0,0,1-3.8,3,7.6,7.6,0,0,1-2.2,1.1h-2.4a46.6,46.6,0,0,0,8.3-7.1c2.7-2.7,5.2-5.5,7.7-8.4a164.4,164.4,0,0,1,13.3-14.4c2.1-2,4.4-3.8,6.5-5.8s4.8-4.5,7.4-6.6a44.7,44.7,0,0,1,8.2-5.4,52.1,52.1,0,0,1,8.7-3.8,43.1,43.1,0,0,1,4.9-1.1l4.6-1.1c3-.5,6.1-1.1,9.1-1.4C226.3,45.2,227.5,46.4,228.6,47.7ZM171.1,79.9a18.3,18.3,0,0,1-1.4,2.8h0a8.6,8.6,0,0,1-.7,1c.1,0,.1-.1.1-.2a69.7,69.7,0,0,1-7.5,9.5,30.8,30.8,0,0,1-4.3,3.8,18.2,18.2,0,0,1-2.3,1.5,4.1,4.1,0,0,1-1.1.7h-1.4a28.5,28.5,0,0,0,6.5-6c2-2.5,4-4.9,5.9-7.5s3.7-5.1,5.7-7.6a46.8,46.8,0,0,1,5.6-5.3c2.3-2,4.7-3.7,7.1-5.6s4.6-3.8,7.2-5.5,5.1-3.4,7.7-5.1a68.9,68.9,0,0,1,8-4.3,43.9,43.9,0,0,1,9.4-2.7,34.5,34.5,0,0,1,9.6-.6,12.8,12.8,0,0,1,4.7,1.4c-2.6.8-5.3,1.6-8,2.2s-5.2,1-7.8,1.5a20.1,20.1,0,0,0-3.5,1l-2.9.7c-2.2.8-4.5,1.6-6.7,2.6l-6.4,3c-2,1.1-3.9,2.2-6,3.2-4,1.9-7.7,5-11.1,7.8A23.2,23.2,0,0,0,173,77,18.1,18.1,0,0,0,171.1,79.9Zm33.4-17.2a65.3,65.3,0,0,0-5.6,3.5l-4.7,4.1c-5.8,5.4-11.5,10.9-17.4,16.2-2.9,2.6-5.7,5.1-8.8,7.4a47.6,47.6,0,0,1-4.7,3.1l-2.6,1.4a4.9,4.9,0,0,1-2.4.4c1.8-1.3,3.4-2.9,5-4.3l5.2-4.1c3.4-2.6,6.8-5.1,10.1-7.8l.9-.8a.1.1,0,0,0-.1.1c2-1.7,3.8-3.4,5.8-5l6.1-5.2A59.3,59.3,0,0,1,204.5,62.7Zm17.7-4c-5.1,1.3-9.6,3.6-14.2,6a77.5,77.5,0,0,0-11.5,8.2c-3.7,3-7.2,6.3-10.7,9.5S179,89,175.5,92.1a45.4,45.4,0,0,1-5.6,4.2l-3.2,1.6a6.7,6.7,0,0,1-2.8.6,56.2,56.2,0,0,0,9.7-7.1c5.5-4.7,10.7-9.7,16-14.6l8.1-7.6a62.7,62.7,0,0,1,8.7-5.8A33,33,0,0,1,222.2,58.7Zm8.8,1.9a29.2,29.2,0,0,0-7.7,1.1,39.8,39.8,0,0,0-7.3,2.6c-8.9,3.9-16.4,10.5-23.9,16.5-3.7,3-7.4,6.2-10.9,9.4L175.6,95a24.3,24.3,0,0,1-2.5,2l-1.3.9a6.2,6.2,0,0,1-1.9.2c4.6-2.4,8.3-6.3,12.1-9.8,6.9-6.4,13.6-13.1,21.2-18.7A84.9,84.9,0,0,1,215,63c3.9-1.8,8.6-3.5,13-3.1A9.4,9.4,0,0,1,231,60.6Zm4.8,3a23.6,23.6,0,0,0-7.9,1.5,63.4,63.4,0,0,0-7.3,2.6,68.6,68.6,0,0,0-12,6.3,46.5,46.5,0,0,0-5.7,4.2l-5.7,4.2a104.8,104.8,0,0,0-10.7,9.3,56.7,56.7,0,0,1-5,4.8l-1.2.9c-.4.2-.2.2-.6.2h-4.6c3.9-3.2,7.6-6.7,11.4-10s7.4-6.1,11.1-9a130.4,130.4,0,0,1,11.1-8.5c7.1-4.7,16-8.9,24.8-7.8A5.4,5.4,0,0,1,235.8,63.6Zm4,4.3a26.8,26.8,0,0,0-14.3,1.8,93.8,93.8,0,0,0-11.3,6,92.5,92.5,0,0,0-10.8,6.7,112.1,112.1,0,0,0-10.2,8,63.3,63.3,0,0,0-4.4,4.6,9.1,9.1,0,0,1-2.4,2.4c-.7.4-2.2.1-3.1.1,3.6-3,6.6-6.6,10.1-9.8s6.8-5.3,10.2-7.9a72.8,72.8,0,0,1,10.4-7,77.5,77.5,0,0,1,11.8-5.3q3.1-1.1,6.3-1.8a13.5,13.5,0,0,1,2.9-.5,15.6,15.6,0,0,0,3,.2Zm2.2,3.8a30.3,30.3,0,0,0-13.4.7,42.8,42.8,0,0,0-10.9,4.9l-10.5,6.5a65.6,65.6,0,0,0-9.2,7.3,43.7,43.7,0,0,0-4.2,4.4c-.6.6-1.1,1.7-1.9,1.8a12.2,12.2,0,0,1-2.7.1c1.4-1.5,2.6-3.2,4.1-4.6s3.3-3,5-4.4,5.9-4.6,9-6.7,6.6-3.8,9.9-5.8a58.4,58.4,0,0,1,9.6-5,25.1,25.1,0,0,1,10.5-1.6l3,.4a1.4,1.4,0,0,1,1,.8Zm2,3.5a49.2,49.2,0,0,0-12.1,1.1l-5,1.6a32,32,0,0,0-4.8,2.6c-3.1,1.8-6.3,3.6-9.3,5.6s-6.3,4.1-9.4,6.2l-4.2,3.1a16.6,16.6,0,0,1-2.1,1.6,4.5,4.5,0,0,1-2.3.3,60.5,60.5,0,0,1,8-8,92.3,92.3,0,0,1,8.2-5.7l8.5-5.4c5.4-3.3,12.2-5.9,18.7-5.3l3.5.4a3.1,3.1,0,0,1,1.6.6A5.4,5.4,0,0,1,244,75.2Zm1.6,3.7c-3.4-1.1-7.8-.1-11.1.7a32,32,0,0,0-9.4,3.8c-3,1.7-5.8,3.9-8.6,5.8s-5.5,3.9-8.4,5.5a38.6,38.6,0,0,1-4.1,2,7.3,7.3,0,0,1-2,.5h-2c3.5-2.7,7.1-5.2,10.8-7.7s7.9-5,11.9-7.4h-.2l.4-.2h-.1a34.6,34.6,0,0,1,5-2.7,33.5,33.5,0,0,1,5.4-1.6l5.7-.6a28.2,28.2,0,0,1,5.8-.2Zm1,2.2a20.9,20.9,0,0,0-9.9,1c-2.9,1-5.9,2-8.7,3.1a27.8,27.8,0,0,0-7.6,5l-7.2,6.2h.2l-.9.7h-4.8a70.9,70.9,0,0,0,8.7-5.5l8.6-6a32,32,0,0,1,9-4.1,27.8,27.8,0,0,1,10.3-1.2A7.8,7.8,0,0,1,246.6,81.1Zm2.4,3.8c-3.2-.7-6.6,0-9.8.6a44.5,44.5,0,0,0-8.8,2.6c-2.9,1.2-5.1,3.2-7.4,5.4l-1.4,1.4c-.5.5-1.1,1.5-1.7,1.8a3.2,3.2,0,0,1-1.7.2h-2.6l6.5-5.6a24.2,24.2,0,0,1,6.7-4.6q4-1.6,8.4-3a18.6,18.6,0,0,1,8.1-1.2,9.3,9.3,0,0,1,2.4.4A6.4,6.4,0,0,1,249,84.9Zm2.3,3.1A22.8,22.8,0,0,0,236,91.2c-2.1,1.5-4.1,3.2-6.3,4.6a3.9,3.9,0,0,1-1.1.6,13.6,13.6,0,0,1-2,.2l-4,.2c1.6-1.6,3.1-3.2,4.8-4.7a17.4,17.4,0,0,1,6-3.2,53.8,53.8,0,0,1,6.9-1.8,26,26,0,0,1,7.3-.8,8.6,8.6,0,0,1,2.3.6C250.6,87.1,250.8,87.4,251.3,88Zm5.1,4.4a61.3,61.3,0,0,1-12.7,2.8c3.2-2.2,6.5-4.5,10.5-4.1C254.9,91.2,255.7,92,256.4,92.4Zm1.3,1.2a6.8,6.8,0,0,0-.2,1.4,26.8,26.8,0,0,0-2.7.7,15.9,15.9,0,0,1-3,.6,40.3,40.3,0,0,1-6,.4A63.2,63.2,0,0,0,257.7,93.6Z" style="fill:#c5a45a"/><path d="M166.7,72.7Z" style="fill:#c5a45a"/><path d="M157.3,174.8Z" style="fill:#c5a45a"/><polygon points="50.5 132.5 50.5 132.5 50.5 132.5 50.5 132.5" style="fill:#c5a45a"/><path d="M222.9,82Z" style="fill:#c5a45a"/><path d="M226.1,141.8h0Z" style="fill:#c5a45a"/><path d="M60.7,105.7h0Z" style="fill:#c5a45a"/><polygon points="157.4 174.9 157.4 174.9 157.4 174.9 157.4 174.9" style="fill:#c5a45a"/><path d="M168,167.3Z" style="fill:#c5a45a"/><path d="M197.7,132.6h0Z" style="fill:#c5a45a"/><polygon points="213.3 57.9 213.3 57.9 213.2 57.9 213.3 57.9" style="fill:#c5a45a"/><polygon points="85 164.6 85 164.6 85 164.6 85 164.6" style="fill:#c5a45a"/><path d="M80.8,176Z" style="fill:#c5a45a"/><path d="M191.2,170.1Z" style="fill:#c5a45a"/><path d="M89.6,69.5c0-.1.1-.1.1-.2h0C89.7,69.4,89.6,69.4,89.6,69.5Z" style="fill:#c5a45a"/><path d="M176.2,55.1h0Z" style="fill:#c5a45a"/><path d="M176.3,55.1h0a.1.1,0,0,1,.1-.1A.1.1,0,0,0,176.3,55.1Z" style="fill:#c5a45a"/><path d="M118.5,152.6Z" style="fill:#c5a45a"/><path d="M42,108.4h0Z" style="fill:#c5a45a"/></svg>
