<svg xmlns="http://www.w3.org/2000/svg" width="336" height="109" viewBox="0 0 336 109"><title>list4z-small</title><path d="M332.3,23.4l-2,4.2a79.7,79.7,0,0,0-4,9c-1,3.1-2.2,6.2-3.3,9.3a60.2,60.2,0,0,1-4.2,8.9,49.1,49.1,0,0,1-12.1,14.7,23.8,23.8,0,0,1-8,4.7c-3,.9-6.3.1-9.2-1.1a38.1,38.1,0,0,1-8-4.9,76.7,76.7,0,0,1-7.5-6.4l-3.3-3.4a62.2,62.2,0,0,0,11.1,11.8c2.1,1.6,4.2,3.3,6.3,4.8a36.2,36.2,0,0,0,3.2,2.2c.8.6,2.2,1.3,2.6,2.3s-.5,1.6-1.2,2.1l-4,2.1a48.9,48.9,0,0,1-7.5,3c-4.9,1.7-9.9,3.4-14.9,4.9s-12.1,3.5-18.1,5a92.8,92.8,0,0,1-13.7,2.9,25.8,25.8,0,0,1-6.8.1,15.9,15.9,0,0,1-6-2.9,142.6,142.6,0,0,1-20.5-18.3c-3.6-3.8-6.9-7.8-10.3-11.8,2.6,4.7,5.1,9.3,8,13.7s5.8,8.7,8.9,12.9l2.2,2.9c.5.8,1.4,1.8,1.3,2.8s-1.4,1.4-2.3,1.6l-4,1c-5.2,1.3-10.4,2.6-15.7,3.6a138.1,138.1,0,0,1-15.7,2.3,142,142,0,0,1-16,.3c-5.4-.2-10.8,0-16.2-.2a24.8,24.8,0,0,1-3.8-.2,4.6,4.6,0,0,1-2.8-1.7,63.5,63.5,0,0,1-4.7-6.5,90.4,90.4,0,0,1-7.9-15.5,138.8,138.8,0,0,1-5.8-16.8A96.6,96.6,0,0,0,118.1,81a105.1,105.1,0,0,0,3.7,13.3c.7,2.3,1.6,4.4,2.4,6.7s2.7,4.5.1,5.1-4.4.1-6.5-.1-4.6-.8-6.9-1.2A126.1,126.1,0,0,1,97.3,102a85,85,0,0,1-12.8-4.6,56.9,56.9,0,0,1-11.1-6.8,94.5,94.5,0,0,1-9.8-9.2,53.8,53.8,0,0,1-4.8-5.9,41.7,41.7,0,0,1-3.5-6.6,55.3,55.3,0,0,1-2.4-7.2,20.5,20.5,0,0,1-.7-7.4c-7.3,0-14.7-.1-22,.3S15.3,55.7,7.8,56c-1.4,0-3.5.7-4.8-.1a7.4,7.4,0,0,1-1.3-1.2A14.2,14.2,0,0,1,.4,53.5c-2.3-2.8,5.3-3.1,6.6-3.3a200.2,200.2,0,0,1,21.9-2l11.9.2,12.1.5a30.6,30.6,0,0,1,1.2-15,29.9,29.9,0,0,1,8.3-12.2,39.3,39.3,0,0,1,12.8-7.5,99.2,99.2,0,0,1,14-3.6c4.7-1,9.5-2.3,14.3-3.3S114,5,119.4,4s10.3-1.8,15.5-2.3c1.4-.1,5.1-.5,4,2s-1,1.8-1.4,2.8-.9,2.5-1.4,3.7c-2,5.5-2.6,11.4-3.6,17.1s-1.8,11.9-2.4,17.8a128.5,128.5,0,0,1,4.1-14.7c1.7-4.7,3.7-9.2,5.9-13.8s4.3-8.8,7.7-12.4a17.9,17.9,0,0,1,2.5-2.3c1-.7,1.8-.6,3-.7h7.8c10.3.1,20.6.9,30.9,1.2,2.4.1,4.8.2,7.3.1s5-.3,7.6-.3c1,0,1.7.6,1.4,1.6a18,18,0,0,1-1.7,3.4l-3.3,6a74.3,74.3,0,0,0-6.1,15.2,58.3,58.3,0,0,0-2.6,16.1c2.1-4.1,4.1-8.1,6.6-12s5.2-8,8.1-11.9a86.5,86.5,0,0,1,9.1-10.1l5.2-4.7c1.6-1.3,3.2-2.8,5.3-3.1a153.4,153.4,0,0,1,28.7-1.4,128.2,128.2,0,0,1,13.9,1.3l3.3.5c.8.1,2.3.1,2.5,1.1s-.9,1.6-1.4,2.2a32.8,32.8,0,0,0-2,3.1A118.4,118.4,0,0,0,267,23.4c-.9,2.4-1.8,4.9-2.5,7.3s-1,4.9-1.5,7.3q3.6-8.8,7.5-17.4a32.7,32.7,0,0,1,4.6-7.9c1.9-2.3,3.5-4.9,5.6-6.9s2.8-1,4.3-.8a24.1,24.1,0,0,1,4.8,1.2,57.2,57.2,0,0,1,8.9,3.6,86,86,0,0,1,8.4,4.7,43.1,43.1,0,0,0,8.3,4.2,31.9,31.9,0,0,0,9.7,1.7,17.7,17.7,0,0,0,4.6-.7,16,16,0,0,1,2.1-.5,1.1,1.1,0,0,1,.8.3l.6.5C334.3,20.9,332.8,22.6,332.3,23.4Z" style="fill:#fff; fill-opacity:0"/><path d="M281.3,43.9h0Z" style="fill:#c5a45a"/><path d="M260,52.8Z" style="fill:#c5a45a"/><path d="M260,52.8Z" style="fill:#c5a45a"/><path d="M333.2,20l-.6-.5a1.1,1.1,0,0,0-.8-.3,16,16,0,0,0-2.1.5,17.7,17.7,0,0,1-4.6.7,31.9,31.9,0,0,1-9.7-1.7,43.1,43.1,0,0,1-8.3-4.2,86,86,0,0,0-8.4-4.7,57.2,57.2,0,0,0-8.9-3.6A24.1,24.1,0,0,0,285,5c-1.5-.2-3.1-.3-4.3.8s-3.7,4.6-5.6,6.9a32.7,32.7,0,0,0-4.6,7.9Q266.6,29.2,263,38c.5-2.4.9-4.9,1.5-7.3s1.6-4.9,2.5-7.3a118.4,118.4,0,0,1,6.9-13.8,32.8,32.8,0,0,1,2-3.1c.5-.6,1.6-1.3,1.4-2.2s-1.7-1-2.5-1.1l-3.3-.5a128.2,128.2,0,0,0-13.9-1.3,153.4,153.4,0,0,0-28.7,1.4c-2.1.3-3.7,1.8-5.3,3.1l-5.2,4.7a86.5,86.5,0,0,0-9.1,10.1c-2.9,3.9-5.4,7.9-8.1,11.9s-4.5,7.9-6.6,12a58.3,58.3,0,0,1,2.6-16.1,74.3,74.3,0,0,1,6.1-15.2l3.3-6a18,18,0,0,0,1.7-3.4c.3-1-.4-1.6-1.4-1.6-2.6,0-5.1.3-7.6.3s-4.9,0-7.3-.1c-10.3-.3-20.6-1.1-30.9-1.2h-7.8c-1.2.1-2,0-3,.7a17.9,17.9,0,0,0-2.5,2.3c-3.4,3.6-5.5,8-7.7,12.4s-4.2,9.1-5.9,13.8a128.5,128.5,0,0,0-4.1,14.7c.6-5.9,1.4-11.9,2.4-17.8s1.6-11.6,3.6-17.1c.5-1.2.9-2.5,1.4-3.7s1-1.8,1.4-2.8c1.1-2.5-2.6-2.1-4-2-5.2.5-10.4,1.3-15.5,2.3s-10.6,2.1-15.9,3.3-9.6,2.3-14.3,3.3a99.2,99.2,0,0,0-14,3.6,39.3,39.3,0,0,0-12.8,7.5,29.9,29.9,0,0,0-8.3,12.2,30.6,30.6,0,0,0-1.2,15l-12.1-.5-11.9-.2A200.2,200.2,0,0,0,7,50.2c-1.3.2-8.9.5-6.6,3.3a14.2,14.2,0,0,0,1.3,1.2A7.4,7.4,0,0,0,3,55.9c1.3.8,3.4.1,4.8.1,7.5-.3,14.9-1,22.4-1.4s14.7-.3,22-.3a20.5,20.5,0,0,0,.7,7.4,55.3,55.3,0,0,0,2.4,7.2,41.7,41.7,0,0,0,3.5,6.6,53.8,53.8,0,0,0,4.8,5.9,94.5,94.5,0,0,0,9.8,9.2,56.9,56.9,0,0,0,11.1,6.8A85,85,0,0,0,97.3,102a126.1,126.1,0,0,0,13.6,2.8c2.3.4,4.6.9,6.9,1.2s4.4.6,6.5.1.4-3.7-.1-5.1-1.7-4.4-2.4-6.7A105.1,105.1,0,0,1,118.1,81a96.6,96.6,0,0,1-1.7-14.2,138.8,138.8,0,0,0,5.8,16.8,90.4,90.4,0,0,0,7.9,15.5,63.5,63.5,0,0,0,4.7,6.5,4.6,4.6,0,0,0,2.8,1.7,24.8,24.8,0,0,0,3.8.2c5.4.2,10.8,0,16.2.2a142,142,0,0,0,16-.3,138.1,138.1,0,0,0,15.7-2.3c5.3-1,10.5-2.3,15.7-3.6l4-1c.9-.2,2.1-.5,2.3-1.6s-.8-2-1.3-2.8l-2.2-2.9c-3.1-4.2-6-8.6-8.9-12.9s-5.4-9-8-13.7c3.4,4,6.7,8,10.3,11.8a142.6,142.6,0,0,0,20.5,18.3,15.9,15.9,0,0,0,6,2.9,25.8,25.8,0,0,0,6.8-.1,92.8,92.8,0,0,0,13.7-2.9c6-1.5,12.1-3.2,18.1-5s10-3.2,14.9-4.9a48.9,48.9,0,0,0,7.5-3l4-2.1c.7-.5,1.5-1.1,1.2-2.1s-1.8-1.7-2.6-2.3a36.2,36.2,0,0,1-3.2-2.2c-2.1-1.5-4.2-3.2-6.3-4.8a62.2,62.2,0,0,1-11.1-11.8l3.3,3.4a76.7,76.7,0,0,0,7.5,6.4,38.1,38.1,0,0,0,8,4.9c2.9,1.2,6.2,2,9.2,1.1a23.8,23.8,0,0,0,8-4.7,49.1,49.1,0,0,0,12.1-14.7,60.2,60.2,0,0,0,4.2-8.9c1.1-3.1,2.3-6.2,3.3-9.3a79.7,79.7,0,0,1,4-9l2-4.2C332.8,22.6,334.3,20.9,333.2,20Zm-5.5,7.9c-.2.3-1.1.3-1.4.3a13.5,13.5,0,0,1-2.9.4,45.6,45.6,0,0,0,5.9-3.8,12.4,12.4,0,0,1-1,2C328.2,27.1,328,27.8,327.7,27.9Zm-1.6,3.8c-.3.3-.8.2-1.2.3a26.2,26.2,0,0,1-2.8,0,52.3,52.3,0,0,1-5.7-.6l2.7-.9a19.2,19.2,0,0,1,2.4,0,31.7,31.7,0,0,0,5.3-.5l-.2.3A5.8,5.8,0,0,1,326.1,31.7Zm-2,4.9a34,34,0,0,1-4.5.3,37,37,0,0,1-4.7-.2,51.4,51.4,0,0,1-9.5-1.8l2.5-.9a12.9,12.9,0,0,1,2.6-.8,17,17,0,0,1,2.2.4l2.2.3a57.9,57.9,0,0,0,10.2.2A18.6,18.6,0,0,0,324.1,36.6Zm-1.9,5.3a84.7,84.7,0,0,1-13.3-.7c-2.1-.3-4.2-.6-6.3-1.1a30.4,30.4,0,0,1-6-2.1l4.8-1.7a5,5,0,0,0,2.1.9l2.7.7a40.9,40.9,0,0,0,6,.7,42,42,0,0,0,11.2.1Zm-1.8,4.9a70.4,70.4,0,0,1-15.8-1.4,53.7,53.7,0,0,1-14.9-5.1l2.1-.8a1.7,1.7,0,0,1,1.7.1l3.3,1.3a44.7,44.7,0,0,0,8.1,1.6,132.6,132.6,0,0,0,16.7,1.1C321.2,44.7,320.9,45.7,320.4,46.8Zm-2.3,4.8a81.8,81.8,0,0,1-17.7-2.9,93,93,0,0,1-8.9-3l-4-1.7-2.1-1c-.4-.2-1.2-.4-1.5-.8l1.4-.4c.3-.1.8-.4,1-.3s1.1.6,1.5.8l3.8,1.7a49.6,49.6,0,0,0,9.3,2.7,75,75,0,0,0,9.5,1.4,57.9,57.9,0,0,0,9.3.4A30.1,30.1,0,0,1,318.1,51.6Zm-2.8,4.9a99.7,99.7,0,0,1-19.5-4.2,48.8,48.8,0,0,1-9.2-3.6,46.1,46.1,0,0,1-8.2-5,10.5,10.5,0,0,1,1.7-.4,3.1,3.1,0,0,1,1.4.7,83.9,83.9,0,0,0,17.6,6.3,122.2,122.2,0,0,0,18.1,3.1C316.6,54.4,316,55.5,315.3,56.5ZM312,61.1c-1.8-.3-3.8-.3-5.7-.5l-5.3-1a55.1,55.1,0,0,1-10.7-3.2C283.7,53.7,277,50.2,272,45l2.8-.5a7.2,7.2,0,0,0,2,1.4l2.1,1.5,4.3,2.4a30.6,30.6,0,0,0,9.6,3.8l10.4,2.5a66.7,66.7,0,0,0,11,2L312.1,61ZM304.4,67a23.2,23.2,0,0,1-5.2-.7,44.7,44.7,0,0,1-17.8-7.9,72.3,72.3,0,0,1-13.8-12.7l1.2-.2a14.6,14.6,0,0,0,1.6,1.9l2.1,1.9a23.7,23.7,0,0,0,4.6,3.2,57.1,57.1,0,0,0,10.3,4.9,84.1,84.1,0,0,0,23.2,5.3l-1.8,1.9a18.9,18.9,0,0,1-2,2A3.8,3.8,0,0,1,304.4,67ZM283.2,82.4l-1.3-.6a46.7,46.7,0,0,1-4.9-2.7l-4.3-2.9c-1.4-1-2.5-2.3-3.8-3.4a72.9,72.9,0,0,1-8.2-7.5,73.9,73.9,0,0,1-6.2-8.5,43.5,43.5,0,0,0-6.3-8.5l3.1-.3c.6-.1.8-.2,1.3.2l.9.8a38.1,38.1,0,0,1,3.7,4.3,77,77,0,0,0,6.2,9.1c2.3,2.6,4.4,5.3,6.9,7.7a97.3,97.3,0,0,0,7.9,6.5,52.4,52.4,0,0,0,9.2,5.3l-1.5.7a5,5,0,0,1-1.3.5A9.1,9.1,0,0,1,283.2,82.4Zm-6.8,1.7-5.7-3a49,49,0,0,1-16.1-14.6c-2.3-3.1-4.4-6.1-6.5-9.3s-3.9-6.1-6.6-8.3l3.3-.3c.2.4.7.7,1,1l1.2,1.2-.2-.3a25.9,25.9,0,0,1,3.2,4.2c1.2,1.5,2.1,3.1,3.1,4.6a52.5,52.5,0,0,0,13.1,14.3l3.9,3.1a31.9,31.9,0,0,0,3.8,2.6,63,63,0,0,0,8.5,4.6l-.6.2-1.7.6-1.4.5A5.4,5.4,0,0,1,276.4,84.1Zm-6.1,2.8a44.5,44.5,0,0,1-5.5-3.3,65.7,65.7,0,0,1-9.3-7.4c-1.5-1.3-3-2.5-4.4-3.9l-3.9-4.5-3.6-4.7a56.3,56.3,0,0,1-3.6-4.6,41.8,41.8,0,0,0-7.3-8.9l2.8-.2c.4,0,2.1-.4,2.3-.1a39.8,39.8,0,0,1,4.3,3.9,52,52,0,0,1,3.5,4.4,159.8,159.8,0,0,0,13,16.5,56.5,56.5,0,0,0,8.6,6.9c2.9,2,6.1,3.3,9.2,5l-3.3,1.1a3.5,3.5,0,0,1-1.3.5A5.1,5.1,0,0,1,270.3,86.9ZM240.7,51.6h0ZM262.3,89l-5.5-4a97.8,97.8,0,0,1-9.5-7.5,72.4,72.4,0,0,1-7.6-9c-2.3-3-4.8-5.9-7-9s-2.4-3.3-3.7-4.9a51.9,51.9,0,0,0-3.7-4.5h2a2.9,2.9,0,0,1,1.6,0,8.2,8.2,0,0,1,2,1.7,33.4,33.4,0,0,1,4.4,4.8c1.3,1.6,2.2,3.3,3.4,4.9l3.7,4.4a94.8,94.8,0,0,0,7.9,8.9l4.5,3.6a42.5,42.5,0,0,0,4.7,3.7,69.9,69.9,0,0,0,10,6.3l-.5.2-3.6,1.1c-.3.1-1.1.5-1.5.4S262.7,89.2,262.3,89Zm-6.1,1.7-2.8-1.9-5.2-3.7a76.7,76.7,0,0,1-8.6-7.6,61,61,0,0,1-7.2-8.9,93.6,93.6,0,0,0-7.2-9.4c-2.4-2.9-4.7-5.9-7.4-8.6l3.9-.2c.5.7,1.5,1.4,2.1,2.1a22,22,0,0,1,2,2.3c1.4,1.6,2.8,3.2,4.1,4.9s4.5,5.8,7,8.6,4.8,6,7.5,8.8a71.6,71.6,0,0,0,8.4,7.1l4.6,3.2,4.4,3.2-3,.9c-.6.2-.7.3-1.3,0A5.7,5.7,0,0,0,256.2,90.7Zm-3.6,2.5c-6.8-4.2-13.5-8.6-19.4-14.1l.2.2L233,79h.1a43,43,0,0,1-6-6.8c-1.6-2.4-3.2-4.9-4.7-7.4A63.9,63.9,0,0,0,212,50.9h1.8c.5.1.6.3,1,.6a30.7,30.7,0,0,1,2.5,2.6c1.6,1.5,3,3.2,4.4,4.8,2.6,3.3,5.5,6.3,8,9.6a95.3,95.3,0,0,0,7.5,9.3,97.4,97.4,0,0,0,18.6,14.6ZM247,94l-3-1.4a63.1,63.1,0,0,1-6.3-3.4A46.1,46.1,0,0,1,228,82a44.7,44.7,0,0,1-4.3-4.4c-1.3-1.5-2.4-3.3-3.6-5l-3.6-5.3c-1.1-1.7-2-3.4-3.1-5.1a54.3,54.3,0,0,0-7.7-9.5L204,51.2h3.5a1.7,1.7,0,0,1,1,.1c.3.1.7.7,1,1a58.9,58.9,0,0,1,4.2,4.5,100.4,100.4,0,0,1,7.1,10,68.5,68.5,0,0,0,5.8,8.3,52.9,52.9,0,0,0,7.1,7.1,178.2,178.2,0,0,0,16.7,11.7l-1.7.5C247.9,94.5,247.7,94.3,247,94Zm-5.2,2.1c-1.1.1-2.4-.7-3.3-1.2a66.8,66.8,0,0,1-6.7-4.1c-7.3-4.6-13.6-11-18.9-17.8-2.9-3.6-5.9-7-8.6-10.8s-5.4-7.3-8.3-10.8h2a7.4,7.4,0,0,1,2.1,0,2.7,2.7,0,0,1,1.2.9l2.5,2.2a39.6,39.6,0,0,1,4.8,5.3c2.6,3.5,4.8,7.2,7.4,10.7l4,5.1a37.4,37.4,0,0,0,4.1,5,66.6,66.6,0,0,0,9.9,8.4,85,85,0,0,0,11.5,6.2A17,17,0,0,1,241.8,96.1ZM189.6,62,186,57c-1.1-1.5-1.8-3.6-2.8-5.4h2.1c.4.7.9,1.4,1.4,2.1h0a91.2,91.2,0,0,0,7.4,10.2c1.3,1.7,2.8,3.2,4.1,4.8s2.7,3.2,4.1,4.8,2.8,3.1,4.3,4.6,2.9,3.1,4.4,4.5c6.1,5.6,12.1,11.6,19.6,15.1a8.1,8.1,0,0,1-2.2-.1,16.5,16.5,0,0,1-6.2-3.1c-1.9-1.3-3.7-2.8-5.5-4.3A146.2,146.2,0,0,1,198,72C195.1,68.7,192.2,65.4,189.6,62Zm16.6,35.5c-.7-.8-1.5-1.5-2.3-2.3s-2.9-3.3-4.3-4.9a93.7,93.7,0,0,1-6.5-8.7c-2.1-3.1-3.8-6.5-5.8-9.8-3.8-6.5-6.5-13.8-11.1-19.9l4.1-.2c.9,1.5,1.8,3,2.8,4.5a40.2,40.2,0,0,1,2.4,4.6c1.7,3.3,3.6,6.6,5.4,9.9a156,156,0,0,0,8.6,14.1l4.8,7a74.2,74.2,0,0,1,4.6,6.4,4.7,4.7,0,0,1-1.6.4C207,98.5,206.5,97.8,206.2,97.5Zm-6.7,0-4.9-4.6a93.1,93.1,0,0,1-14.8-19.4l-5.9-10.9c-2-3.4-3.7-7-6.2-10.2h3c.8-.1,1.9-.4,2.5.2A53.2,53.2,0,0,1,179.5,63c1.8,3.4,3.5,6.8,5.4,10.1s3.7,6.6,5.7,9.8c4,6.2,9.3,11.2,14.6,16.1-.7.2-2.5,1-3.2.7A10.1,10.1,0,0,1,199.5,97.5Zm-3.4,3.9c-.9,0-2.1-1.4-2.8-2l-5.2-4.9c-12.3-12-17.6-29-28.9-41.7l3.9-.2c.6,0,1-.1,1.4.2a13.4,13.4,0,0,1,1.1,1.4,33,33,0,0,1,3.8,5.9l6.2,11.4a81.2,81.2,0,0,0,6.9,10.7,131.6,131.6,0,0,0,17.7,18.1l-.5.2A15.8,15.8,0,0,1,196.1,101.4Zm-9-2.3L182,94.4a63.6,63.6,0,0,1-8.3-9.6c-2.4-3.5-4.6-7.2-6.8-10.9s-4.6-7.1-6.9-10.6a93.1,93.1,0,0,0-7.6-10.2h1.9a3.4,3.4,0,0,1,1,0c.5,0,.2-.1.6.2a19.4,19.4,0,0,1,2.3,2.7,58.4,58.4,0,0,1,4.2,5.6c4.9,7.1,8.9,14.8,13.9,21.9a101.6,101.6,0,0,0,17.4,18.5h-.8a5.3,5.3,0,0,1-1.8.4c-.5,0-.5,0-.9-.4l-.5-.5Zm-2.7,4.5c-1.6-1.4-3.3-2.5-4.8-4l-4.8-5a81.8,81.8,0,0,1-7.2-9.5l-5.9-10.3-5.6-10.2a64.6,64.6,0,0,0-7-9.5c-.5-.6-1-1.3-1.6-1.9h1.1c.4.1.2,0,.6.3l.9,1.1,2.4,2.8,4.2,5.9c4.8,7.1,9.4,14.5,14.5,21.5s11.3,12.5,17.5,18.1Zm-8.8-.9-2.6-2.4-5.1-5a80,80,0,0,1-14.5-20.6L151,69.4c-.9-1.9-1.9-3.7-2.9-5.4-2.1-3.7-4.1-7.3-6.5-10.7h1.7c.8,0,.8.2,1.3.8l2.5,2.7c1.6,1.9,3.2,3.8,4.6,5.8,2.4,3.6,4.6,7.4,6.7,11.2s4.5,7.4,6.8,11a101.5,101.5,0,0,0,8,10.6,91.4,91.4,0,0,0,9,8.6l-3.9.6C177.4,103.9,176.4,103.4,175.6,102.7Zm-5.9,2.6a8.6,8.6,0,0,1-2.6-2.1c-1.8-1.6-3.6-3.3-5.3-5.1a120.3,120.3,0,0,1-8.6-10.3,92.8,92.8,0,0,1-7-11.3c-2.2-4-4.4-8.1-6.5-12.2s-3.7-7.5-5.8-11.1h3.8c.7,0,.9.5,1.4,1.1l1,1.6a72.3,72.3,0,0,1,4,6.6l3.5,6,2.9,5.5a97.8,97.8,0,0,0,7,11.7,115.3,115.3,0,0,0,8.4,10.1c3.1,3,6,6.6,9.6,9l-2,.2C172.4,105.2,170.7,105.6,169.7,105.3ZM153.8,103l-2.5-2.6c-1.5-1.7-2.9-3.4-4.2-5.2a155.4,155.4,0,0,1-13.8-20.4c-1.9-3.6-4.1-6.9-5.9-10.5s-3.4-7.4-4.9-11.1h2c.8,0,.7,0,1.1.6l1.9,3.2,3.2,6.1c2,3.8,3.8,7.7,6,11.4s4.6,7.6,7.1,11.3a193.4,193.4,0,0,0,16.5,19.7l-4-.2h-.4C155.6,104.5,154.4,103.6,153.8,103Zm-7.9,1.2c-1.8-1.8-3.6-3.6-5.3-5.5A59,59,0,0,1,133.4,88c-2.1-3.9-4.1-7.7-5.9-11.6s-3.6-7.8-5.1-11.7c-.8-2.1-1.4-4.1-2.2-6.1l-.9-2.7c-.2-.6-.3-1.1-.5-1.6a4.9,4.9,0,0,1-.4-1.1h1.3c.2,1,.7,2,1,3s.8,1.9,1.3,2.9,1.9,4.2,2.9,6.2c1.8,3.7,4,7.1,6,10.5a91.7,91.7,0,0,0,6.8,10.3c5.1,6.6,10.2,13.3,16,19.2h-6.4c-.4-.1-.5-.2-.9-.6ZM115.8,53.4a108.5,108.5,0,0,0,3.9,11.8c1.3,3.6,3,7.2,4.6,10.7A111.3,111.3,0,0,0,130,86.7a112.6,112.6,0,0,0,6.5,9.9,80.7,80.7,0,0,0,7.8,8.7h-2.6l-3.5-.2c-1.1-.1-1.6-.9-2.2-1.7a42,42,0,0,1-3.6-5,84.3,84.3,0,0,1-5.9-10.6c-1.7-3.6-3.1-7.5-4.6-11.3a93.2,93.2,0,0,1-3.6-11.7C117.3,61,115.8,57.3,115.8,53.4Zm5.7,49.4-1.7-2.4a49.7,49.7,0,0,1-2.7-5.1c-3.2-6.5-4.6-13.5-5.6-20.6s-1.2-14.5-3.4-21.4h5.2c.1,1.5.4,2.9.6,4.3s.1,3,.2,4.5c.2,3.1.5,6.3.7,9.5a80.2,80.2,0,0,0,3.1,16.8c1.6,5.3,3.3,10.6,5.3,15.8C122.3,104.2,122,103.5,121.5,102.8Zm-4,.1-1.8-2.5a72.5,72.5,0,0,1-5.7-9.7,40,40,0,0,1-2.8-9.1c-.7-3.1-1.4-6.3-1.9-9.4-1-6.3-1.4-13-4.2-18.8h4.1c1.7,4.5,2.3,9.6,2.7,14.3h0c.3,3.2.9,6.5,1.5,9.7a66.4,66.4,0,0,0,2.3,9.8,74.6,74.6,0,0,0,3.7,8.8c.8,1.4,1.4,2.8,2.1,4.2s1.8,2.7,2.7,4h-1.5A3.1,3.1,0,0,1,117.5,102.9Zm-7-2.6a55.4,55.4,0,0,1-3.3-5.1A51.5,51.5,0,0,1,102.8,85c-1.3-3.6-2.3-7.4-3.3-11.1-2-7.1-3.4-14.2-7.5-20.5h6a35.9,35.9,0,0,1,3.5,11.1c1.2,7.1,2.3,14.2,4.5,21.1s5.8,12.7,9.9,18h-1l-1.5-.3c-.6-.1-.8-.4-1.2-.8Zm-4.4-.2-1.8-2.4c-1.1-1.7-2.1-3.4-3.1-5.1a53.6,53.6,0,0,1-4.5-9.7c-1.2-3.3-2.1-6.7-3-10.2s-2-6.8-3.3-10.2a48.8,48.8,0,0,0-5.1-9.2,16,16,0,0,1,3.1,0c.4.1.4.1.6.5l.3.4.9,1.4A27.3,27.3,0,0,1,92.9,61a83.4,83.4,0,0,1,3.2,10.8c1,3.6,2.1,7.3,3.3,10.8a76.7,76.7,0,0,0,4.5,10.6,50.4,50.4,0,0,0,3.1,4.9,46,46,0,0,0,3.2,4.5l-2.4-.4C107.6,101.4,106.6,100.7,106.1,100.1Zm-4.5.8A55,55,0,0,1,91.1,83.6c0,.1,0,.2.1.2-1.1-2.8-2.1-5.7-3-8.6s-1.7-5.4-2.6-8.1c-1.7-4.7-3.5-9.5-6.2-13.7h1.8c.6,0,.7,0,1.1.5A19.5,19.5,0,0,1,84,56.2a38.1,38.1,0,0,1,2.9,5.2c3.5,6.9,5,14.7,7.8,21.8A80.9,80.9,0,0,0,99.5,93a52.2,52.2,0,0,0,5.7,8.7Zm-8.2-3.6a56,56,0,0,1-3.6-4.9,91.5,91.5,0,0,1-10.2-19c-2.6-6.7-4.3-13.6-7.5-19.9a15.1,15.1,0,0,1,3.7-.1c.3,0,.3-.1.5.1a3.5,3.5,0,0,1,.5.8l.9,1.4a53.1,53.1,0,0,1,3,6.4c1.9,4.5,3.4,9.2,4.9,13.9a86.7,86.7,0,0,0,5.6,12.9,63.9,63.9,0,0,0,7.4,11.2l-2.9-.9a5.2,5.2,0,0,1-1.3-.6A6.4,6.4,0,0,1,93.4,97.3Zm-12-7.9a75.5,75.5,0,0,1-9.3-17.5l-3.5-9.3c-1.1-3-2-6-3.3-8.9H69a59.1,59.1,0,0,1,4.3,10,102.6,102.6,0,0,0,7.6,17.7A121.1,121.1,0,0,0,91.7,97.9L89.2,97a12.8,12.8,0,0,1-2.7-1.1,6.7,6.7,0,0,1-1.7-2Zm-8.8-4.1a77.7,77.7,0,0,1-5.8-9.7c-1.7-3.5-3.2-7-4.6-10.7s-2-7.3-3.5-10.8l3.6-.3c1.8,3.4,2.8,7.1,4.2,10.7a110.3,110.3,0,0,0,4.3,10.8A107.6,107.6,0,0,0,82.7,94l-2-1.1a22.6,22.6,0,0,1-4.9-3.1,13.1,13.1,0,0,1-1.7-2.4ZM54.8,54.2h.9a45.9,45.9,0,0,1,2.9,8.1,53.4,53.4,0,0,0,2.8,7.6c2,5.2,5.3,9.7,8.2,14.3l-2.5-2.4c-1.8-1.8-3.4-3.8-5-5.7a31.1,31.1,0,0,1-4-6.8C55.9,64.8,54,59.4,54.8,54.2ZM68.5,19.7a55.5,55.5,0,0,0-7.3,14.1,70,70,0,0,0-2.1,7.5,52.9,52.9,0,0,0-1.3,7.8H55.1c0-.2-.1-.5-.1-.7-.8-5.5-.3-11.7,2.3-16.6A30.1,30.1,0,0,1,68.5,19.7Zm6.9-3.2A66.1,66.1,0,0,0,71,24.2a80.8,80.8,0,0,0-3.5,8A63.4,63.4,0,0,0,64,49.4H60a52.9,52.9,0,0,1,1.3-7.8,44.2,44.2,0,0,1,2.2-7.9h0c.1-.4.4-.9.5-1.4l1.2-2.8a50.4,50.4,0,0,1,2.6-5.2,35.2,35.2,0,0,1,3-4.5,18,18,0,0,1,1.9-2A12.8,12.8,0,0,1,75.4,16.5ZM82,14.4a60.6,60.6,0,0,0-4.5,7.8c-1.3,2.9-2.4,5.9-3.4,8.8a75.4,75.4,0,0,0-2.2,9.4,68.6,68.6,0,0,0-1.2,9.1H66.2a76.9,76.9,0,0,1,3.5-17.8,64.8,64.8,0,0,1,3.8-8.5,31.5,31.5,0,0,1,4.8-7.6ZM88.6,13l-.6.9a65.5,65.5,0,0,0-7.3,17.2,115.9,115.9,0,0,0-3.4,18.5H73.2A111.6,111.6,0,0,1,77.5,29a62.5,62.5,0,0,1,3.9-9.8A39.1,39.1,0,0,1,84,14.8a2.8,2.8,0,0,1,.6-.9c.3-.3,1.1-.3,1.4-.3Zm7.5-1.6a60.3,60.3,0,0,0-3.8,9.1c-1.1,3.1-2.3,6.2-3.2,9.4a78.5,78.5,0,0,0-3,19.8H79.8a150.1,150.1,0,0,1,3.8-19.1c1-3.3,2.2-6.5,3.4-9.7a44.4,44.4,0,0,1,4.3-8.4ZM102,9.9l-4.2,9.6a70.6,70.6,0,0,0-3.3,9.8A54.2,54.2,0,0,0,92.4,39a62.2,62.2,0,0,0-.6,10.6H88.7c.2-3.4.1-6.9.6-10.2a82.6,82.6,0,0,1,2-9.9c.9-3.2,2-6.4,3.1-9.6a60.3,60.3,0,0,1,3.8-9.1Zm7.1-1.6c-.2.5-.5.9-.7,1.4a91,91,0,0,0-5.3,11.4,100.9,100.9,0,0,0-4.3,14.2,36.7,36.7,0,0,0-1.1,7.4c-.1,2.2-.4,4.6-.4,6.8H94.5A89.8,89.8,0,0,1,95.2,38a92.2,92.2,0,0,1,2.5-11.6,84,84,0,0,1,3.8-11c.7-1.8,1.5-3.5,2.2-5.2s.3-.7,1-.9l1.4-.3ZM115.5,7l-1.1,1.9c-.8,1.6-1.9,3.1-2.7,4.7a46.9,46.9,0,0,0-2.1,4.6,63.6,63.6,0,0,0-3.5,10.1A75.1,75.1,0,0,0,104,38.8c-.4,3.6-.6,7.1-.7,10.7H99.7c.1-1.5.3-3,.4-4.6.4-3.4.8-6.8,1.4-10.2a96.8,96.8,0,0,1,2.7-10.6,64.1,64.1,0,0,1,3.9-10.3l2.4-4.6a4.1,4.1,0,0,1,.8-1.3c.2-.2.9-.2,1.1-.3Zm6.6-1.2-1.2,1.6c-4.2,6.2-6.9,13.1-9,20.4-.5,1.6-.7,3.4-1.1,5.1s-.8,3.7-1.1,5.5a71.7,71.7,0,0,0-.9,11.3H106c.2-3.8.3-7.5.8-11.2a66.5,66.5,0,0,1,1.9-9.7,71.5,71.5,0,0,1,2.7-9,66,66,0,0,1,3.8-8.6,34.2,34.2,0,0,1,2.3-4.2c.3-.4.6-.4,1.1-.5l1.3-.2Zm5.3-.8c-1.5,3.5-3.4,6.9-4.9,10.5a96.9,96.9,0,0,0-3.8,10.7c-2.3,7.7-4.9,15.7-5.3,23.8h-1.9v-.6a84.7,84.7,0,0,1,1-11.2A123.6,123.6,0,0,1,117,19.2a41.6,41.6,0,0,1,3.8-8.3c.8-1.4,1.7-2.7,2.6-4l.7-1.1c.3-.4.4-.4.9-.5Zm5.5-.8a61.2,61.2,0,0,0-5.2,10.6c-.6,1.8-1.5,3.6-2.1,5.4s-.9,4-1.3,6a102.4,102.4,0,0,0-2.7,24.1H116a84.1,84.1,0,0,1,1.7-11.2c.7-3.3,1.4-6.6,2.3-9.9s1.8-6.2,2.9-9.4a76.7,76.7,0,0,1,3.8-8.9c.8-1.6,1.5-3.2,2.2-4.8a4.3,4.3,0,0,1,.5-1.2,3,3,0,0,1,1.3-.2Zm-3.4,27.7-1.2,9.5a33.1,33.1,0,0,0-.4,8.9h-3.7c.3-3.6.4-7.3.7-10.9s.8-6.1,1.3-9.2,1.1-6.3,1.9-9.4c.4-1.5,1-2.9,1.4-4.4s.9-3,1.5-4.4l2.1-4.3c.6-1.3,1.6-2.5,2.1-3.8h1.2a34.3,34.3,0,0,0-1.9,4.4,43.4,43.4,0,0,0-1.6,4.7,77.8,77.8,0,0,0-1.8,9.4C130.5,25.5,129.9,28.7,129.5,31.9Zm1.2,21.3c1,2,2.2,3.9,3.2,5.9S136,63,137,65c4,7.5,7.7,15.3,12.7,22.2a95,95,0,0,0,8.4,9.5,94.5,94.5,0,0,0,9.1,8.8h-.6a11.5,11.5,0,0,1-3.7.1c-.9-.3-1.8-1.8-2.5-2.4s-3.5-3.7-5.1-5.6a117.1,117.1,0,0,1-14.9-21.4c-2.1-3.9-4.2-7.9-6.1-11.9a106.7,106.7,0,0,0-5.9-11.1Zm23.7-50c-2.6,3.6-5.2,7.2-7.6,11l-.3.5.2-.3a117.3,117.3,0,0,0-8.5,17.9c-1.1,3-2.1,5.9-3,9s-.9,3.2-1.3,4.8a28.8,28.8,0,0,0-1.1,4.2H131a30.1,30.1,0,0,1,1.1-4.3c.3-1.6.7-3.1,1.1-4.7a104.1,104.1,0,0,1,7.3-20.7v.2a86.8,86.8,0,0,1,5.5-11,30.9,30.9,0,0,1,3.6-4.5,12.9,12.9,0,0,1,2.1-1.9A6.1,6.1,0,0,1,154.4,3.2Zm4.7.1a57.8,57.8,0,0,0-5.7,9.6,154.9,154.9,0,0,0-8.3,18.6c-1.2,3.2-2.3,6.4-3.3,9.7L140.3,46c-.4,1.2-1.2,2.9-1.1,4.2h-3.7c2-7.1,4.1-14.1,6.8-21a107.1,107.1,0,0,1,9.5-19.2c1-1.6,2-3.1,3.1-4.6l.8-1.1a5,5,0,0,1,.8-1.2,4.8,4.8,0,0,1,1.2,0Zm5.8.1c-2.1,3.2-3.9,6.5-5.7,9.9a166.3,166.3,0,0,0-8.3,18.2c-1.2,3.2-2.2,6.5-3.3,9.7-.5,1.6-1,3.2-1.4,4.8a19.6,19.6,0,0,0-.9,4.2h-3.5c1.2-3.9,2.4-7.8,3.7-11.8a185.1,185.1,0,0,1,7.4-20c1.4-3.3,3.1-6.5,4.8-9.7.9-1.4,1.7-2.9,2.8-4.3a3.1,3.1,0,0,1,.7-.9,1.3,1.3,0,0,1,.9-.2h2.8Zm5.4.3c-1.9,3.2-3.4,6.6-5.2,9.9-3.1,5.9-5.7,12-8.2,18.1-1.3,3.2-2.6,6.4-3.6,9.7-.6,1.6-1,3.1-1.5,4.7s-1.1,2.8-1.1,4.2h-2.9c.5-1.9,1-3.8,1.6-5.6a.4.4,0,0,0-.1.3c1-3.7,2.3-7.4,3.5-11s2.5-7.3,3.9-10.8,3-7.2,4.8-10.6l2.6-4.8c.8-1.5,1.8-2.9,2.7-4.3Zm4.8.2c-.4.8-.9,1.5-1.3,2.2a125.7,125.7,0,0,0-10.1,21.7l-3.6,11.3c-.6,1.9-1.2,3.9-1.9,5.9s-1.2,3.3-1.7,5l-3,.2c1-3.4,1.9-6.9,3.1-10.3,2.2-6.3,4.6-12.5,7.1-18.6,1.3-3.1,2.8-6.1,4.1-9.2a65.9,65.9,0,0,1,4.4-8.3Zm5.5.3a56.1,56.1,0,0,0-4.9,8.6A149.6,149.6,0,0,0,168.5,31c-1,3.1-1.9,6.4-3,9.5L164,45l-.9,2.4a4.9,4.9,0,0,0-.5,2l-3.3.3a90.7,90.7,0,0,0,3.5-10.4c2-6.4,4-12.7,6.3-19,1.2-3.1,2.5-6.1,4-9.1.7-1.4,1.4-2.9,2.2-4.3a23.9,23.9,0,0,1,1.3-2.1c.3-.5.3-.7.8-.8h3.2Zm5.8.3c-2,2.7-3.3,6.1-4.6,9.1s-2.2,5.9-3.3,8.9-2.3,5.9-3.4,8.8c-2.3,6.1-4.8,12-7.5,17.8l-2.4.2c1.4-3.3,2.5-6.7,3.6-10.1s1.8-6.1,2.7-9.2,2.1-6.3,3.1-9.5a91.1,91.1,0,0,1,3.5-8.6,30.5,30.5,0,0,1,2.1-4c.7-1.3,1.7-2.4,2.4-3.6l2.4.2Zm7.2.2a25.6,25.6,0,0,0-5.3,8.8c-2.4,5.9-4.8,11.7-7.4,17.6L177,40.3c-1.1,3-2.6,5.7-3.9,8.6h-2.5a106.2,106.2,0,0,0,4.6-10.4c2.4-6.3,4.5-12.7,6.5-19.1a78.3,78.3,0,0,1,3.4-9.2c.7-1.4,1.4-2.9,2.2-4.2a10.5,10.5,0,0,1,.8-1.1c.3-.4.4-.4.9-.4h4.6Zm6.9.2a41.3,41.3,0,0,0-5.8,8.9,179,179,0,0,0-8,17.2,185.2,185.2,0,0,1-7.4,17.8h-3.2a75.2,75.2,0,0,0,4.8-10.9c1.4-3.3,2.7-6.7,4-10s2.3-6.6,3.6-9.8a54.8,54.8,0,0,1,4.1-9.3c.8-1.2,1.7-3,3.1-3.8a4.4,4.4,0,0,1,2.3-.1Zm-7.9,43.5c-3.4.3-6.8.4-10.2.4a99.1,99.1,0,0,0,4.5-10.6c2.4-6.5,5.1-12.8,7.6-19.2a59.6,59.6,0,0,1,4.3-8.8,33.9,33.9,0,0,1,2.7-3.9c.4-.5.9-1.3,1.4-1.5a17.9,17.9,0,0,1,2.3-.2,147.5,147.5,0,0,0-7.8,16.6C194.1,29.9,192,39.1,192.6,48.4Zm2.3,5.6,4.4,6c2.7,3.7,5.6,7.2,8.5,10.8l4.3,5.1a54.4,54.4,0,0,0,4.8,4.8,85.3,85.3,0,0,0,21.7,16l-3.2.6a5.8,5.8,0,0,1-2.9-.6c-4-1.6-7.5-4.3-10.8-6.9s-5.8-5.3-8.7-7.9a49.3,49.3,0,0,1-3.9-4c-1.2-1.4-2.5-2.6-3.7-4l-3.7-4.4-3.5-4.3a84.7,84.7,0,0,1-6.9-8.9c0,.1.1.1.1.2s-.1-.1-.1-.2h0c-.3-.5-.7-1-1-1.6l.2.3c-.8-1.2-1.6-2.3-2.3-3.5,1.4,0,2.9-.2,4.3-.1s.7.5,1.1,1A18.3,18.3,0,0,0,194.9,54ZM229.4,4.6c-2.5,2.6-4.9,5.4-7.2,8.1-8,9.6-15.7,19.4-21.4,30.5l.2-.2-1.4,2.5a.1.1,0,0,0,.1-.1h0c-.1.1-.1.2-.2.2h.1l-.4.6h0a13,13,0,0,0-.8,1.7l-3.5.2c1.7-3.4,3.2-6.9,5.1-10.2s4.3-6.6,6.5-9.8a87.7,87.7,0,0,1,6.7-9.3,79.8,79.8,0,0,1,7.6-7.8l4-3.6C226.1,6.4,227.6,4.9,229.4,4.6Zm5.1-.6a58.4,58.4,0,0,0-8,8.5c-4.3,5.5-8.1,11.4-11.8,17.2-2,3.1-3.9,6.2-5.7,9.4a68.4,68.4,0,0,0-4.6,8.9h-3.8c.1-.1.1-.2.2-.2l2.1-4.1h-.1c1.8-3.5,3.8-6.8,5.9-10.2a127.7,127.7,0,0,1,11.5-16.1L227,9.6c1.1-1.3,2.1-2.5,3.3-3.7l1-1.1a1.3,1.3,0,0,1,.9-.5A16,16,0,0,1,234.5,4Zm6.2-.6c-.1.2-.3.3-.4.4-3,2.9-5.6,6-8.3,9.1a82.3,82.3,0,0,0-6.5,9c-2,3.1-4,6.2-5.8,9.4s-3.9,6.4-5.7,9.6c-.9,1.6-1.7,3.2-2.7,4.8s-.9,1.9-1.5,2.2a27.1,27.1,0,0,1-2.9.1c2-3.8,3.9-7.7,6.1-11.4,3.8-6.5,7.8-12.9,12-19.1a82.3,82.3,0,0,1,6.9-8.7A35,35,0,0,1,235.8,5,6.3,6.3,0,0,1,237,3.9a3.5,3.5,0,0,1,1.1-.3Zm6-.2c-3.5,2.4-6.3,5.9-9,9.1-4.8,5.7-8.5,12.2-12.5,18.4-2.1,3.1-4,6.3-5.9,9.6l-2.7,4.5c-.5.8-1,1.7-1.6,2.5s-.4.4-.9.4h-1.4c2.1-3.5,3.9-7.1,6-10.5,3.6-6.2,7-12.6,11-18.5a78.2,78.2,0,0,1,6.7-8.5l3.6-4c.7-.7,1.4-1.3,2-2a8.7,8.7,0,0,1,1-.8,2,2,0,0,1,1.1-.2Zm5.3,0a36.8,36.8,0,0,0-5.4,5c-2.4,2.8-4.6,5.5-6.7,8.5-3.8,5.5-6.6,11.4-9.9,17.1-1.7,3-3.3,6-5.2,8.9s-1.9,2.8-2.8,4.2-.5.5-1,.5h-3.5c2.2-3.5,4.2-7.1,6.3-10.7s3.8-6.5,5.8-9.6,3.8-6.5,5.9-9.4a96.2,96.2,0,0,1,6.9-8.6c1.2-1.2,2.4-2.4,3.7-3.5s2.7-2.5,4.3-2.5Zm4.1.1c-3.3,2.1-5.9,5.4-8.4,8.4a58.7,58.7,0,0,0-5.5,8.5c-1.8,3.4-3.7,6.7-5.5,10.2s-3.2,6.6-5,9.8c-.9,1.7-1.9,3.3-2.9,4.9s-.9,1.9-1.5,2.1a10.4,10.4,0,0,1-2.5,0,89.3,89.3,0,0,0,6.1-9.8c3.5-6.1,6.1-12.7,9.9-18.7a75.9,75.9,0,0,1,6.3-8.6,45.9,45.9,0,0,1,3.7-3.9l1.9-1.6c.4-.3,1.5-.8,1.7-1.3Zm5.2.2-.7.5a38.7,38.7,0,0,0-6.8,7.2,92.3,92.3,0,0,0-5.4,8.4c-3.6,6-7,12.3-10.2,18.6l.2-.3-3.1,5.8a8.5,8.5,0,0,1-1.6,2.8c-.5.5-2.1.3-2.9.4a72.3,72.3,0,0,0,5.9-10.5c3.2-6.7,6.5-13.5,10.1-20A49.8,49.8,0,0,1,253,8.1a25,25,0,0,1,3.9-3.4,9.1,9.1,0,0,1,2.2-1.1A5.4,5.4,0,0,1,261.3,3.5Zm4.9.4c-5,3.7-8.1,9.8-11.1,15s-6.4,11.3-9.3,17.1h0l-3.5,6.7a13.3,13.3,0,0,1-1.8,3c-.2.4-.2.3-.6.5h-1.2l-1.9.2c2-3.6,3.8-7.2,5.6-10.8l4.8-9.8a97.5,97.5,0,0,1,4.9-9,51.9,51.9,0,0,1,6.3-8.5,24.9,24.9,0,0,1,3.8-3.4,6.2,6.2,0,0,1,1.7-1.1A6,6,0,0,1,266.2,3.9Zm4.3.6a33,33,0,0,0-6.9,8.5c-1.6,2.8-3.5,5.4-5,8.2a94.4,94.4,0,0,0-4.5,9c-1.4,3-2.9,5.9-4.4,8.9s-1.6,3.1-2.5,4.6-.8,1.5-1.3,1.7a18.1,18.1,0,0,1-2.3.3c1.9-3.2,3.4-6.5,5.1-9.7,3-6,5.7-12,8.8-17.9a78,78,0,0,1,5.1-8.1,24.3,24.3,0,0,1,3-3.4,8.4,8.4,0,0,1,1.8-1.5c.3-.2.6-.6,1-.7h.7Zm-3,8.4a75.7,75.7,0,0,0-8.9,16.3c-1.3,3.1-2.7,6-4,9l-2,4.2a8.6,8.6,0,0,1-1.1,1.9.7.7,0,0,1-.8.4l-1.1.2c2-3.3,3.6-6.9,5.4-10.4s3.1-6.9,4.7-10.3,3.6-7,5.5-10.4a28.5,28.5,0,0,1,7.6-9l1.6.3A39.4,39.4,0,0,0,267.5,12.9ZM261.3,36a47.2,47.2,0,0,0-1.1,7.4l-5.9.8c2.8-5.4,4.6-11.3,7.1-16.8a93,93,0,0,1,4.1-8.4c1.5-2.5,3.2-4.9,4.9-7.3l-1.6,3a78.7,78.7,0,0,0-5.7,13.8A68,68,0,0,0,261.3,36Zm3.5,18a77.7,77.7,0,0,0,5.4,7.4,60.3,60.3,0,0,0,10,10.2l5.6,4.3,5.4,3.9-1.1.7c-.5.2-.7.4-1.2.3a16.3,16.3,0,0,1-2.3-1.1A42.5,42.5,0,0,1,282,77a44.7,44.7,0,0,1-4.1-3.2c-1.4-1.2-2.8-2.2-4.1-3.4l-4-4.3c-1.2-1.4-2.2-2.9-3.4-4.3a79.4,79.4,0,0,1-6.3-8.9h0c0-.1,0-.1-.1-.2a.1.1,0,0,0,.1.1H260a25.8,25.8,0,0,0-4.5-5.4l5.1-.7c.7,1.2,1.2,2.4,1.9,3.5S264,52.8,264.8,54Zm-1.6-7.6,2.1-.3a5.5,5.5,0,0,0,1.4,2.1l1.6,1.9a39.5,39.5,0,0,0,3.3,3.7c8.6,8.4,19.9,15.4,32.3,15.2l-1,.7h0a12.9,12.9,0,0,1-3.2,1.9,15.2,15.2,0,0,1-2.8.9,8,8,0,0,1-3.1-.4,16.2,16.2,0,0,1-5.3-2,67.2,67.2,0,0,1-10.1-7.4h0a79.4,79.4,0,0,1-8.1-8.3L266.6,50C265.5,48.7,264,47.8,263.2,46.4ZM285.9,7.5c-6,3.9-8.4,11-11.6,17.1-1.7,3.3-3.1,6.7-4.8,10a46.7,46.7,0,0,1-2.7,4.9,15.9,15.9,0,0,1-1.3,2.2c-.2.3-.4.9-.7,1a8,8,0,0,1-1.5.3c1.3-3.8,3-7.5,4.4-11.2.8-2,1.7-4.1,2.6-6-.1,0-.1.1-.1.2,1.9-4.1,3.5-8.4,6.4-12l1.9-2.4L280.7,9c.6-.7,1.3-1.7,2.2-1.9A10.3,10.3,0,0,1,285.9,7.5Zm4.6,1.2h0a.1.1,0,0,1-.1.1L290,9h.2c-6.2,3.4-8.2,10.5-11.3,16.3-1.5,3-3.2,6-4.7,9a47.6,47.6,0,0,1-2.8,4.9c-.5.7-1,1.4-1.4,2.1l-.6.8-1.4.2.6-1h0c.5-1,1.1-1.9,1.6-2.8,3.4-5.6,5.6-11.9,8.3-17.9a40.7,40.7,0,0,1,4.5-8.2,19.9,19.9,0,0,1,3.3-3.2c.5-.3,1.3-1.1,1.9-1.1s1.7.5,2.3.6Zm4.6,1.8a15.9,15.9,0,0,0-6.7,6.4,75.8,75.8,0,0,0-4.5,8.4c-.7,1.5-1.6,2.9-2.3,4.3a36.2,36.2,0,0,1-2.4,4.3l-2.7,4.5-1.5,2c-.3.4-.3.5-.7.7l-1.5.2a68,68,0,0,0,5.1-9.1,91.2,91.2,0,0,0,4.5-9.5c1.1-3.1,2.5-6.5,4.7-9a15.7,15.7,0,0,1,3.3-3,5.4,5.4,0,0,1,2-1C293.2,9.4,294.3,10.2,295.1,10.5Zm4.5,2.2c-2.7,1-4.5,3.5-5.9,5.8s-2.6,5.5-4.2,8.1-3.5,5.3-5.3,7.9l-2.7,3.2c-1,1-1.9,2.4-3.4,2.7a62.7,62.7,0,0,0,5.1-8.6c.6-1.3,1.2-2.6,1.9-3.9s1.1-2.7,1.7-4a80.9,80.9,0,0,1,4.2-7.6,15.7,15.7,0,0,1,3.1-3.2A7.2,7.2,0,0,1,296,12a2.1,2.1,0,0,1,1.9-.1Zm4.9,2.7c-5,1.7-7.3,7-9.9,11.2,0,.1,0,.2-.1.2h0a59.2,59.2,0,0,1-4.9,7.4,23.5,23.5,0,0,1-3,3.3,5.5,5.5,0,0,1-1.4,1.2,5.3,5.3,0,0,1-1.8.4,62.1,62.1,0,0,0,5.1-7.2,75.9,75.9,0,0,0,4.4-7.9c1.3-2.7,2.4-5.3,4.3-7.5a6.7,6.7,0,0,1,3.5-2.3,2.1,2.1,0,0,1,1.9.1Zm4.7,2.8c-2.2.7-3.9,2.5-5.4,4.1a47,47,0,0,0-4.5,5.5c-1.4,2-2.8,4.1-4.4,6a18.8,18.8,0,0,1-2.4,2.5,4.3,4.3,0,0,1-1,.9,4.8,4.8,0,0,1-1.7.5c3.3-3.6,5.4-7.9,7.7-12.2a32.1,32.1,0,0,1,3.6-5.9,9.1,9.1,0,0,1,2.4-2c.8-.5,2.1-.6,2.8-1.1l.5.3Zm4.5,2.1c-3.7,1.6-5.9,5-8.2,8.1s-2.4,3.2-3.7,4.7a4.7,4.7,0,0,0-1,1,2.3,2.3,0,0,1-1.3.7l-2.7,1a62.2,62.2,0,0,0,3.5-5.4c1-1.7,2.2-3.3,3.2-4.9a20,20,0,0,1,3.9-4.3,7.9,7.9,0,0,1,2.5-1.5,4.1,4.1,0,0,1,1.6-.3c.4,0,.9.4,1.3.5Zm5.4,1.5c-2.7,1.5-4.7,3.7-6.8,6s-2.1,2-3.1,3.1-2.8,1.4-4.1,1.9c1.9-2.2,3.1-4.8,4.9-7.1a13.8,13.8,0,0,1,3-2.9,6.9,6.9,0,0,1,1.9-1c.4-.2,1.2-.2,1.5-.6Zm5.2.5-5.2,4.8a19.5,19.5,0,0,1-2.3,1.7,35.7,35.7,0,0,1-3.5,1c1.6-1.7,2.9-3.7,4.6-5.2a13.3,13.3,0,0,1,3-1.8l1.6-.6A11.5,11.5,0,0,1,324.3,22.3Zm5.9-.7a33.9,33.9,0,0,1-8,5.1c1.1-1.1,2.2-2.2,3.4-3.2a18.3,18.3,0,0,1,1.6-1.3,10.1,10.1,0,0,1,1.7-.3Z" style="fill:#c5a45a"/><path d="M290.4,8.8h0Z" style="fill:#c5a45a"/><path d="M246.6,8.1h-.1Z" style="fill:#c5a45a"/><polygon points="260 52.8 260 52.8 260 52.8 260 52.8" style="fill:#c5a45a"/><path d="M149.3,55.2h-.2c0-.1,0-.1-.1-.1Z" style="fill:#c5a45a"/><path d="M85.6,67.3v-.2h-.1A.4.4,0,0,1,85.6,67.3Z" style="fill:#c5a45a"/><path d="M146.9,14.1h0Z" style="fill:#c5a45a"/><path d="M103.2,20.9c0,.1-.1.1-.1.2h0C103.1,21.1,103.2,21,103.2,20.9Z" style="fill:#c5a45a"/><path d="M85.5,67Z" style="fill:#c5a45a"/><path d="M250.8,36.8h.1l-.2.3C250.7,36.9,250.8,36.9,250.8,36.8Z" style="fill:#c5a45a"/></svg>
