<svg xmlns="http://www.w3.org/2000/svg" width="248" height="79" viewBox="0 0 248 79"><title>list1-small</title><path d="M245.2,39.9c-.2-.6-1.4-.8-2-.9l-3-1.1a41,41,0,0,1-9.9-5.3A121.5,121.5,0,0,0,220,25.2c-3.6-2.3-7.4-4.3-11.1-6.3A190.5,190.5,0,0,0,185.8,8.7a150.6,150.6,0,0,0-24.9-6,107.4,107.4,0,0,0-12.6-1.2c-4.3-.2-8.6-.1-12.9-.2s-8.1.2-12.2.4l-12.7.5c-8.2.4-16.6.4-24.7,2.6A79.4,79.4,0,0,0,74.4,9.3c-3.8,1.7-7.6,3.5-11.3,5.5-1.8.9-3.4,2-5.2,3s-3.6,2-5.3,3.2a80.3,80.3,0,0,0-9.4,8.1L41.1,31l-1.1.9c-.4.2-.9.8-1.3.9a4.4,4.4,0,0,1-1.5-.3l-1.5-.4-3.1-.8c-4-1.2-8.1-2.2-12.1-3.3a52.7,52.7,0,0,1-6-2c-2.7-1-5.4-2.1-8.1-3S.6,21.1,0,23.9s3.8,3.8,5.6,4.4S11.2,30.2,14,31c5.8,1.8,11.7,3.3,17.6,4.7l4.1,1a3.5,3.5,0,0,1,1.8.6A14.5,14.5,0,0,1,39.3,39c2.1,2.1,4.1,4.3,6.1,6.6,3.9,4.3,7.6,8.5,12.3,11.8a80.6,80.6,0,0,0,15,8.1,118.1,118.1,0,0,0,17.2,6.3,118.2,118.2,0,0,0,16.5,3.5,189.4,189.4,0,0,0,19.9,2.3h9.1l4.8-.2h2.5c.5,0,1.3.2,1.7-.1a187.4,187.4,0,0,0,21.2-1.7,121.1,121.1,0,0,0,18.8-5,90.8,90.8,0,0,0,9.8-3.9c3.1-1.3,6.4-2.5,9.5-3.9,6.1-2.8,12.1-5.9,18-9.2,3.4-1.9,6.8-3.9,10-6l5-3.2c1.7-.9,3.6-1.5,5.4-2.3h-.2C242.6,41.8,245.8,41.1,245.2,39.9Z" style="fill:#fff; fill-opacity:0"/><path d="M245.2,39.9c-.2-.6-1.4-.8-2-.9l-3-1.1a41,41,0,0,1-9.9-5.3A121.5,121.5,0,0,0,220,25.2c-3.6-2.3-7.4-4.3-11.1-6.3A190.5,190.5,0,0,0,185.8,8.7a150.6,150.6,0,0,0-24.9-6,107.4,107.4,0,0,0-12.6-1.2c-4.3-.2-8.6-.1-12.9-.2s-8.1.2-12.2.4l-12.7.5c-8.2.4-16.6.4-24.7,2.6A79.4,79.4,0,0,0,74.4,9.3c-3.8,1.7-7.6,3.5-11.3,5.5-1.8.9-3.4,2-5.2,3s-3.6,2-5.3,3.2a80.3,80.3,0,0,0-9.4,8.1L41.1,31l-1.1.9c-.4.2-.9.8-1.3.9a4.4,4.4,0,0,1-1.5-.3l-1.5-.4-3.1-.8c-4-1.2-8.1-2.2-12.1-3.3a52.7,52.7,0,0,1-6-2c-2.7-1-5.4-2.1-8.1-3S.6,21.1,0,23.9s3.8,3.8,5.6,4.4S11.2,30.2,14,31c5.8,1.8,11.7,3.3,17.6,4.7l4.1,1a3.5,3.5,0,0,1,1.8.6A14.5,14.5,0,0,1,39.3,39c2.1,2.1,4.1,4.3,6.1,6.6,3.9,4.3,7.6,8.5,12.3,11.8a80.6,80.6,0,0,0,15,8.1,118.1,118.1,0,0,0,17.2,6.3,118.2,118.2,0,0,0,16.5,3.5,189.4,189.4,0,0,0,19.9,2.3h9.1l4.8-.2h2.5c.5,0,1.3.2,1.7-.1a187.4,187.4,0,0,0,21.2-1.7,121.1,121.1,0,0,0,18.8-5,90.8,90.8,0,0,0,9.8-3.9c3.1-1.3,6.4-2.5,9.5-3.9,6.1-2.8,12.1-5.9,18-9.2,3.4-1.9,6.8-3.9,10-6l5-3.2c1.7-.9,3.6-1.5,5.4-2.3h-.2C242.6,41.8,245.8,41.1,245.2,39.9ZM217,41.3c2.8-1.3,5.6-2.8,8.7-3.3a25.7,25.7,0,0,1,12.9,1.2c-3.6.1-7.1.8-10.7,1.1Zm14.9-5.5a23.2,23.2,0,0,0-8.7.8c-3.9,1.2-7.4,3.3-11.2,4.7a8.6,8.6,0,0,1-2.8.3l-3,.2-5.9.3,7.1-4.1a37.8,37.8,0,0,1,7.9-3C220.9,33.5,226.5,33.4,231.9,35.8Zm-23.4-.3a56.3,56.3,0,0,0-7.3,3.9l-3.5,2a9.5,9.5,0,0,1-1.7,1,12.1,12.1,0,0,1-1.9.1c3.9-2.5,7.5-5.5,11.5-7.8a29.2,29.2,0,0,1,13.2-3.8,15.1,15.1,0,0,1,6.3,1.2C219.4,31.5,213.6,33.3,208.5,35.5Zm12.8-6.3a29.6,29.6,0,0,0-18.5,5c-2.8,1.7-5.4,3.7-8.1,5.5a33.4,33.4,0,0,1-4,2.5,4.3,4.3,0,0,1-2.3.5l-2.5.2c3.8-2.5,6.9-5.8,10.5-8.4a37.1,37.1,0,0,1,11.8-6.2C212.4,27.1,217.5,26.7,221.3,29.2ZM204,27.6c-5,2-9.4,5.6-13.5,9.1a47.1,47.1,0,0,1-6.1,4.7,14.1,14.1,0,0,1-3.4,1.9,29.7,29.7,0,0,1-4.2.3c3-2.1,5.8-4.2,8.6-6.6a90.9,90.9,0,0,1,9.1-7.3c6-4.2,13.7-7.1,20.9-4.3A27.6,27.6,0,0,0,204,27.6Zm7-5.2a23.2,23.2,0,0,0-8.7,1.2c-6.5,2.1-11.8,6.5-16.9,10.8a74.6,74.6,0,0,1-7.8,6.1,36.2,36.2,0,0,1-4.1,2.7l-1.1.5h-3.7a51.3,51.3,0,0,0,7.4-5.6l7.2-6.7c4.9-4.2,10.2-7.8,16.5-9.5A18.6,18.6,0,0,1,211,22.4Zm-5.1-2.9h-1.8c-7.1.5-13.7,3.9-19.2,8.1s-10.1,9.3-15.8,13.1a42.9,42.9,0,0,1-5.5,3.1c-1.7.8-3.7.6-5.6.6a47.4,47.4,0,0,0,5.4-3.1h0a7.1,7.1,0,0,0,1.4-1,122.2,122.2,0,0,0,15-11.6c4.6-4.1,9.9-8,15.9-9.6A16.9,16.9,0,0,1,205.9,19.5Zm-6.1-2.8a29.7,29.7,0,0,0-4.3.7c-7.1,1.7-13,6.3-18.5,10.9-2.8,2.4-5.6,4.7-8.6,6.8a77,77,0,0,1-8.9,6,38.2,38.2,0,0,1-5.5,2.4,12.1,12.1,0,0,1-2.5.8h-3.4c6.8-3.4,13.2-8.1,19.1-12.8,3.2-2.5,6.3-5.3,9.4-7.8a37.6,37.6,0,0,1,10.1-6.2C190.9,15.9,195.5,15.2,199.8,16.7Zm-5.5-2.5a25,25,0,0,0-6.1.9c-7.7,2-14.1,7.6-20.1,12.5a135.5,135.5,0,0,1-20,13.6,39.4,39.4,0,0,1-5.5,2.6c-2.1.8-4.5.4-6.7.3a117.8,117.8,0,0,0,23.5-12.5c7.1-5,13.3-11.6,21.1-15.6C184.8,13.8,189.6,12.5,194.3,14.2Zm-6.7-2.5-3.4.7c-3.9,1-7.6,3.4-10.9,5.7s-6.7,5.2-10.1,7.8A114.7,114.7,0,0,1,141.8,39c-2.1,1-4.3,1.9-6.4,2.7l-3.2,1.2a8.5,8.5,0,0,1-3.5.8c8-4.1,15.1-9.7,22.1-15.2,3.5-2.8,7-5.6,10.7-8.1a57.7,57.7,0,0,1,11.8-6.2C177.8,12.5,182.7,11.1,187.6,11.7Zm-5-1.7a25.7,25.7,0,0,0-4,.6,57,57,0,0,0-12.1,4.6,92.2,92.2,0,0,0-11.2,7.1C148,27.5,141.4,33.4,133.8,38a62.9,62.9,0,0,1-6.7,3.7l-3,1.4a4.7,4.7,0,0,1-1.6.4h-1.9a69.5,69.5,0,0,0,12.3-7.9c3.7-3,7.2-6.4,10.8-9.7,6.9-6.1,14.5-12.1,23.4-15A28.2,28.2,0,0,1,182.6,10Zm-8.5-2.3a31.4,31.4,0,0,0-8,1.5c-13.5,4.3-23.2,15.3-33.9,24.1a68.4,68.4,0,0,1-9.7,6.5A88.4,88.4,0,0,0,132,31c2.9-3.1,5.4-6.6,8.4-9.6a63.5,63.5,0,0,1,9-8.2,35.2,35.2,0,0,1,11.2-5.4A28,28,0,0,1,174.1,7.7ZM163.5,5.3a23.6,23.6,0,0,0-4.6,1,38,38,0,0,0-12.7,6.8,82.7,82.7,0,0,0-10.3,10.2c-3.7,4.2-7.2,8.5-11.5,12.2-2.1,1.8-4.3,3.6-6.6,5.3a25.6,25.6,0,0,1-3.5,2.2c-1.1.5-2.8.1-4.1,0,7.7-4.5,14.2-10.9,20.3-17.4,3-3.3,6-6.6,8.9-10s5.9-6.7,9.9-8.8S158.8,3.7,163.5,5.3ZM150.9,4.2c-7.7,2.9-12.6,10-18,15.7s-11.5,12.3-18.2,17.4c-1.9,1.4-3.9,2.7-5.9,3.9a12,12,0,0,1-3,1.5h-3.4a100,100,0,0,0,19.7-15.1c2.9-2.8,5.9-5.5,8.5-8.5s5-6.3,8-8.9A24,24,0,0,1,150.9,4.2Zm-15.8,6.6c-2.8,3-5.4,6.3-8.4,9.3a156.5,156.5,0,0,1-19.1,16.3c-1.9,1.3-3.9,2.6-5.9,3.7l-2.9,1.6a2.2,2.2,0,0,1-1.6.3l-1.9-.2a101.8,101.8,0,0,0,19.8-15.5l8.8-8.9c3-3,5.8-6.2,9.2-8.7s7.8-4.8,12.3-4.8A28.8,28.8,0,0,0,135.1,10.8Zm2.5-6.9a34.2,34.2,0,0,0-4.2,2.3,58.6,58.6,0,0,0-8.9,7.6l-8.2,8.1c-5.5,5.4-11.1,10.7-17.7,15l-5.5,3.2c-.9.5-1.8,1.3-2.8,1.2L87,40.9a121.1,121.1,0,0,0,19.8-15.2c3.1-3,6.1-6,9.1-9.1s5.5-5.9,8.9-8.1A34.5,34.5,0,0,1,137.6,3.9ZM123.7,7.2c-5.9,3.9-10.5,9.5-15.6,14.2A162.2,162.2,0,0,1,91,35.3l-5.1,3.2-2.7,1.4a2.5,2.5,0,0,1-1.4.4L80,40.1a76.1,76.1,0,0,0,10.2-6.4c3.4-2.5,6.5-5.4,9.7-8.2s5.9-5.8,8.8-8.8A46.9,46.9,0,0,1,118,8.8a37.7,37.7,0,0,1,12.8-4.9A28.5,28.5,0,0,0,123.7,7.2Zm-.1-3.3h.5a39.8,39.8,0,0,0-10.9,5.9c-3.4,2.7-6.4,5.8-9.5,8.8-6.4,6.1-12.9,12.3-20.5,16.9-2.2,1.2-4.4,2.4-6.6,3.4l-1.5.7a4.7,4.7,0,0,1-1.7.2l-3.5-.4A120.8,120.8,0,0,0,91.4,24.6c3.2-2.8,6.1-5.9,9.2-8.8a49.7,49.7,0,0,1,9.6-7.5A40.6,40.6,0,0,1,123.6,3.9Zm-9.3.6h0c-8,3-14.2,8.7-20.3,14.5A117,117,0,0,1,73.3,34.6c-2,1.2-4,2.3-6.1,3.3l-1.6.8a5.5,5.5,0,0,1-1.8-.1L60,37.9A77.9,77.9,0,0,0,81.7,25c6.3-5.4,12-11.7,19.4-15.7A47.5,47.5,0,0,1,114.3,4.5ZM95.5,10.6C92,13.1,88.7,16,85.4,18.8,79,24.3,72.4,29.4,64.7,33l-6.4,2.6-3.1,1c-1,.3-2.2-.3-3.3-.6a109.9,109.9,0,0,0,20-10.7c6.2-4.4,11.6-9.9,18-14.1a41.9,41.9,0,0,1,17-6.4A45.4,45.4,0,0,0,95.5,10.6ZM76.9,18.3a110.7,110.7,0,0,1-9.8,7.1,111.3,111.3,0,0,1-10.8,5.7c-2,1-4.1,1.8-6.1,2.7a10.8,10.8,0,0,1-3,1.1,21.4,21.4,0,0,1-3.4-.9,102.2,102.2,0,0,0,15.6-7.6c4.8-2.9,9.2-6.2,13.8-9.3C80.5,12,88,7.2,96.9,5.5,89.4,8.4,83.1,13.4,76.9,18.3ZM50.7,24.8a63.4,63.4,0,0,1,8.1-5.4c2.9-1.6,5.7-3.3,8.7-4.7l9.2-4.4A76.5,76.5,0,0,1,87.1,6.4L89,5.9C83.5,8,78.4,11.3,73.5,14.5h-.2L63.1,21.3c0-.1,0-.1.1-.1A107.2,107.2,0,0,1,43.3,31.5C45.8,29.3,48.1,26.9,50.7,24.8Zm7.4,30.5c-4.7-3.4-8.3-8-12.2-12.3l-2.7-2.8c5,3.9,10,7.8,14.8,12,2.2,2.1,4.3,4.2,6.7,6.1A58.6,58.6,0,0,0,73,63.6,83.4,83.4,0,0,1,58.1,55.3ZM79.3,65c-6.5-3.5-13-7-18-12.6S51.1,43.1,45.7,38.7a11.7,11.7,0,0,1,2,.5l2,1.1,3.6,2.3a84.5,84.5,0,0,1,7.5,5.9C65.6,52.7,70,57.3,75,61.2a69.5,69.5,0,0,0,9.1,6.2Zm12.9,4.4a53.2,53.2,0,0,1-9.9-5.5c-6.4-4.4-11.8-10.2-17.5-15.5a70.2,70.2,0,0,0-10-8h-.1l2.8.5a8.8,8.8,0,0,1,2.7,1A37.2,37.2,0,0,1,65,44.5a69.5,69.5,0,0,1,9.1,7.1c5.6,5.3,11.1,10.9,17.5,15.1A60.3,60.3,0,0,0,103,72.9,50.5,50.5,0,0,1,92.2,69.4Zm9.2,1A57,57,0,0,1,92.5,65a69.6,69.6,0,0,1-8.6-7.7L76,49.6a86.2,86.2,0,0,0-9.5-7.4l2.1.3a12.3,12.3,0,0,1,2.6,1.2,23.5,23.5,0,0,1,4.6,2.6,54.9,54.9,0,0,1,8.1,7.1c5.2,5.4,10.1,11,16.6,14.9a66,66,0,0,0,10.9,5.6l.6.2A66.6,66.6,0,0,1,101.4,70.4Zm9.9,1.6a55.9,55.9,0,0,1-9.6-5.3c-6.1-3.9-10.8-9.7-15.6-15a50.2,50.2,0,0,0-9.6-8.2,10.1,10.1,0,0,1,2.5.4L81.4,45a26.3,26.3,0,0,1,4.4,3A97.8,97.8,0,0,1,93,55.2c2.5,2.6,4.9,5.1,7.5,7.5a48.5,48.5,0,0,0,8.2,6.1,52.9,52.9,0,0,0,10.6,5.4l2.8.8A57.7,57.7,0,0,1,111.3,72Zm10.1.9a44.5,44.5,0,0,1-9.8-4.8h-.1a53,53,0,0,1-6.7-5c-2.3-2-4.4-4.1-6.5-6.3-4.2-4.3-8.2-9.2-13.2-12.6l2.6.2a7.9,7.9,0,0,1,2.6.8A39.5,39.5,0,0,1,95.2,48a52.9,52.9,0,0,1,7.9,7.8c2.5,2.9,5,5.7,7.7,8.4a48.3,48.3,0,0,0,9,6.3,58.9,58.9,0,0,0,11.5,5l.9.2A85.8,85.8,0,0,1,121.4,72.9ZM132.7,74a42.7,42.7,0,0,1-9.1-3.8c-6-3.1-10.9-7.7-15.5-12.7S100.6,48.3,95.6,45h2.5a7,7,0,0,1,2.4.9,23.6,23.6,0,0,1,4.2,2.8c2.9,2.5,5.4,5.4,8,8.1a72.2,72.2,0,0,0,17.8,14.3,37.8,37.8,0,0,0,12,4.4A64.6,64.6,0,0,1,132.7,74Zm3.7-2.1a43.2,43.2,0,0,1-9-4.8c-5.5-3.7-10-8.9-14.4-13.8a54.3,54.3,0,0,0-8.1-7.8h2.9a9.7,9.7,0,0,1,2.3,1.1,44.7,44.7,0,0,1,4,3.4c3,2.7,5.9,5.4,8.7,8.3a63.8,63.8,0,0,0,18.7,13.9,48.9,48.9,0,0,0,4.8,2A42.1,42.1,0,0,1,136.4,71.9Zm9.8.5a49.6,49.6,0,0,1-8.8-4.7c-5.9-4-10.7-9.1-15.6-14.1l-4.2-4.1-2.1-1.8c-.6-.5-1.1-1.4-1.8-1.7a8.9,8.9,0,0,1,2.8.3,37,37,0,0,1,7.8,5.3c2.4,2.1,4.5,4.5,6.8,6.7a70.5,70.5,0,0,0,15.8,11.9,47.8,47.8,0,0,0,9.6,4.1A36.1,36.1,0,0,1,146.2,72.4ZM162,73.5a22.6,22.6,0,0,1-5.1-.8,42.5,42.5,0,0,1-9.7-4.4c-6.2-3.6-11.5-8.7-16.4-13.9a57.2,57.2,0,0,0-9-8h2.5a3.2,3.2,0,0,1,2.2.8c1.3.8,2.6,1.9,3.9,2.9s5.1,4.5,7.6,6.7a69.5,69.5,0,0,0,8.1,6.2q4.2,3,8.7,5.7A34.5,34.5,0,0,0,165,73.3l1.6.4A36.2,36.2,0,0,1,162,73.5Zm3.6-1.8a33.1,33.1,0,0,1-9.1-4.3,125.9,125.9,0,0,1-17.7-13,96,96,0,0,0-9-7.9c1.5,0,2.8.9,4.1,1.6a33,33,0,0,1,3.9,2.6q4,2.8,7.8,6c2.6,2,5.3,3.8,8,5.7a93.5,93.5,0,0,0,8.6,5.2A34.2,34.2,0,0,0,173,71.1c1,.2,2.1.2,3.1.3A23.3,23.3,0,0,1,165.6,71.7Zm17.9-2.6a22.9,22.9,0,0,1-10.1.4,29.9,29.9,0,0,1-9.8-3.3,103.4,103.4,0,0,1-8.9-5.7c-2.9-2-5.7-4.1-8.5-6.3s-5.8-4.5-8.8-6.5l-1.6-1c1.8.1,3.7-.1,5.4.5a22.6,22.6,0,0,1,4.3,2.4q4.2,3,8.1,6.3A85.8,85.8,0,0,0,162,62a51.9,51.9,0,0,0,9.9,4.5A31.5,31.5,0,0,0,184,68.9Zm1.3-1.9a22.7,22.7,0,0,1-9.3-1.4A55.2,55.2,0,0,1,158.9,57c-2.6-2.2-5.2-4.4-7.9-6.5a51.4,51.4,0,0,0-5.4-3.7h2.7a22.6,22.6,0,0,1,2.6-.1,7.5,7.5,0,0,1,2,1l2.2,1.3c2.8,2.1,5.3,4.5,8.1,6.5,5.6,4.2,11.7,7.7,18.6,9.2,3.8.9,7.8.5,11.7.2C190.6,65.9,187.9,67,184.8,67.2Zm4.7-3.8a29.2,29.2,0,0,1-9.3-1c-6.1-1.9-11.5-5.3-16.6-9.3-2.7-2.1-5.2-4.7-8.2-6.6h3.1c.4,0,.4.1.8.3s2.7.8,4,1.4a57.3,57.3,0,0,1,8.2,4.9c2.8,1.7,5.5,3.4,8.4,4.8a60.3,60.3,0,0,0,8.9,3.4,25.1,25.1,0,0,0,9.8,1.1C195.7,63.2,192.6,63.2,189.5,63.4Zm6-2.7c-3.6-.1-7.3-1.5-10.6-2.8a56.1,56.1,0,0,1-10.3-5.4,76.1,76.1,0,0,0-10.1-6.2,21.8,21.8,0,0,1,5.1,0,14.9,14.9,0,0,1,4.5,1.9c2.9,1.5,5.7,3.3,8.5,4.9a46.9,46.9,0,0,0,8.7,4.3,45.3,45.3,0,0,0,9.6,1.9,27.2,27.2,0,0,0,6.4-.3A33.8,33.8,0,0,1,195.5,60.7Zm-5.2-5.6a52.1,52.1,0,0,1-8-4.4c-2.6-1.5-5.1-3.1-7.8-4.5h2.3a17.7,17.7,0,0,1,2.3-.1l1.8.6a6.4,6.4,0,0,1,1.8.6,75.2,75.2,0,0,1,7.9,4.3,32.8,32.8,0,0,0,8.3,3.8,35.1,35.1,0,0,0,9,1.8h.4A31.8,31.8,0,0,1,190.3,55.1Zm21.3-.1a14.2,14.2,0,0,1-6.8-.1,32.5,32.5,0,0,1-7.4-2c-4.8-1.8-8.8-5-13.4-7.2l4-.2a5,5,0,0,1,2.1-.1,8.7,8.7,0,0,1,1.7.7c2.3,1.2,4.4,2.6,6.6,4a29.6,29.6,0,0,0,14.7,4.6Zm6.1-2.4a20.9,20.9,0,0,1-3.6.4,21.3,21.3,0,0,1-7.1-.9,33.6,33.6,0,0,1-7-3c-2.2-1.3-4.3-2.9-6.6-4.1l7.1-.7a5.5,5.5,0,0,1,3,.9l3,1.9a27.6,27.6,0,0,0,12.8,4.4H221Zm4.4-1.2h0Zm-6.2-2.2a30.3,30.3,0,0,1-5.8-1.9,59.5,59.5,0,0,1-5.3-3.4h2.7a5.9,5.9,0,0,1,2.2.5l5.2,2.1a24,24,0,0,0,10.9,1.9l1.8-.2A15.9,15.9,0,0,1,215.9,49.2Zm11.9-2.8a20.7,20.7,0,0,1-5,.2,36.3,36.3,0,0,1-10.2-3,43.6,43.6,0,0,0,5.1-.3h2.4a3.7,3.7,0,0,1,2.3.3h.1a22.4,22.4,0,0,0,7.2,1.8,11.5,11.5,0,0,0,2.6-.1A16.6,16.6,0,0,1,227.8,46.4Zm9.8-4.4a16.4,16.4,0,0,1-12.5.7c4.7-.4,9.4-1.3,14.1-1.5Z" style="fill:#c5a45a"/><path d="M165,40.2h-.2Z" style="fill:#c5a45a"/><path d="M137.3,47.6h.2Z" style="fill:#c5a45a"/><path d="M222.6,43.6h0Z" style="fill:#c5a45a"/><path d="M73.5,14.5Z" style="fill:#c5a45a"/><path d="M135.8,23.4h0Z" style="fill:#c5a45a"/><path d="M123.6,7.2h.1C123.7,7.2,123.7,7.2,123.6,7.2Z" style="fill:#c5a45a"/></svg>
