<svg xmlns="http://www.w3.org/2000/svg" width="248" height="79" viewBox="0 0 248 79"><title>list1z-small</title><path d="M245.2,39.1c-.2.6-1.4.8-2,.9l-3,1.1a41,41,0,0,0-9.9,5.3A121.5,121.5,0,0,1,220,53.8c-3.6,2.3-7.4,4.3-11.1,6.3a190.5,190.5,0,0,1-23.1,10.2,150.6,150.6,0,0,1-24.9,6,107.4,107.4,0,0,1-12.6,1.2c-4.3.2-8.6.1-12.9.2s-8.1-.2-12.2-.4l-12.7-.5c-8.2-.4-16.6-.4-24.7-2.6a79.4,79.4,0,0,1-11.4-4.5c-3.8-1.7-7.6-3.5-11.3-5.5-1.8-.9-3.4-2-5.2-3s-3.6-2-5.3-3.2a80.3,80.3,0,0,1-9.4-8.1L41.1,48,40,47.1c-.4-.2-.9-.8-1.3-.9a4.4,4.4,0,0,0-1.5.3l-1.5.4-3.1.8c-4,1.2-8.1,2.2-12.1,3.3a52.7,52.7,0,0,0-6,2c-2.7,1-5.4,2.1-8.1,3S.6,57.9,0,55.1s3.8-3.8,5.6-4.4S11.2,48.8,14,48c5.8-1.8,11.7-3.3,17.6-4.7l4.1-1a3.5,3.5,0,0,0,1.8-.6A14.5,14.5,0,0,0,39.3,40c2.1-2.1,4.1-4.3,6.1-6.6,3.9-4.3,7.6-8.5,12.3-11.8a80.6,80.6,0,0,1,15-8.1,123.9,123.9,0,0,1,33.7-9.8,189.4,189.4,0,0,1,19.9-2.3h9.1l4.8.2h2.5c.5,0,1.3-.2,1.7.1a187.4,187.4,0,0,1,21.2,1.7,121.1,121.1,0,0,1,18.8,5,90.8,90.8,0,0,1,9.8,3.9c3.1,1.3,6.4,2.5,9.5,3.9,6.1,2.8,12.1,5.9,18,9.2,3.4,1.9,6.8,3.9,10,6l5,3.2c1.7.9,3.6,1.5,5.4,2.3h-.2C242.6,37.2,245.8,37.9,245.2,39.1Z" style="fill:#fff; fill-opacity:0"/><path d="M241.9,36.9h.2c-1.8-.8-3.7-1.4-5.4-2.3l-5-3.2c-3.2-2.1-6.6-4.1-10-6-5.9-3.3-11.9-6.4-18-9.2-3.1-1.4-6.4-2.6-9.5-3.9a90.8,90.8,0,0,0-9.8-3.9,121.1,121.1,0,0,0-18.8-5,187.4,187.4,0,0,0-21.2-1.7c-.4-.3-1.2-.1-1.7-.1h-2.5l-4.8-.2h-9.1a189.4,189.4,0,0,0-19.9,2.3,123.9,123.9,0,0,0-33.7,9.8,80.6,80.6,0,0,0-15,8.1c-4.7,3.3-8.4,7.5-12.3,11.8-2,2.3-4,4.5-6.1,6.6a14.5,14.5,0,0,1-1.8,1.7,3.5,3.5,0,0,1-1.8.6l-4.1,1C25.7,44.7,19.8,46.2,14,48q-4.2,1.2-8.4,2.7c-1.8.6-6.1,1.7-5.6,4.4s4.7,1.4,6.4.9,5.4-2,8.1-3a52.7,52.7,0,0,1,6-2c4-1.1,8.1-2.1,12.1-3.3l3.1-.8,1.5-.4a4.4,4.4,0,0,1,1.5-.3c.4.1.9.7,1.3.9l1.1.9,2.1,1.9A80.3,80.3,0,0,0,52.6,58c1.7,1.2,3.6,2.1,5.3,3.2s3.4,2.1,5.2,3c3.7,2,7.5,3.8,11.3,5.5a79.4,79.4,0,0,0,11.4,4.5c8.1,2.2,16.5,2.2,24.7,2.6l12.7.5c4.1.2,8.2.5,12.2.4s8.6,0,12.9-.2a107.4,107.4,0,0,0,12.6-1.2,150.6,150.6,0,0,0,24.9-6,190.5,190.5,0,0,0,23.1-10.2c3.7-2,7.5-4,11.1-6.3a121.5,121.5,0,0,0,10.3-7.4,41,41,0,0,1,9.9-5.3l3-1.1c.6-.1,1.8-.3,2-.9S242.6,37.2,241.9,36.9Zm-14,1.8c3.6.3,7.1,1,10.7,1.1A25.7,25.7,0,0,1,225.7,41c-3.1-.5-5.9-2-8.7-3.3ZM215.3,44a37.8,37.8,0,0,1-7.9-3l-7.1-4.1,5.9.3,3,.2a8.6,8.6,0,0,1,2.8.3c3.8,1.4,7.3,3.5,11.2,4.7a23.2,23.2,0,0,0,8.7.8C226.5,45.6,220.9,45.5,215.3,44Zm9.8,2.9a15.1,15.1,0,0,1-6.3,1.2,29.2,29.2,0,0,1-13.2-3.8c-4-2.3-7.6-5.3-11.5-7.8a12.1,12.1,0,0,1,1.9.1,9.5,9.5,0,0,1,1.7,1l3.5,2a56.3,56.3,0,0,0,7.3,3.9C213.6,45.7,219.4,47.5,225.1,46.9Zm-16.9,3.8a37.1,37.1,0,0,1-11.8-6.2c-3.6-2.6-6.7-5.9-10.5-8.4l2.5.2a4.3,4.3,0,0,1,2.3.5,33.4,33.4,0,0,1,4,2.5c2.7,1.8,5.3,3.8,8.1,5.5a29.6,29.6,0,0,0,18.5,5C217.5,52.3,212.4,51.9,208.2,50.7Zm7.2,2.9c-7.2,2.8-14.9-.1-20.9-4.3a90.9,90.9,0,0,1-9.1-7.3c-2.8-2.4-5.6-4.5-8.6-6.6a29.7,29.7,0,0,1,4.2.3,14.1,14.1,0,0,1,3.4,1.9,47.1,47.1,0,0,1,6.1,4.7c4.1,3.5,8.5,7.1,13.5,9.1A27.6,27.6,0,0,0,215.4,53.6ZM199.8,57c-6.3-1.7-11.6-5.3-16.5-9.5l-7.2-6.7a51.3,51.3,0,0,0-7.4-5.6h3.7l1.1.5a36.2,36.2,0,0,1,4.1,2.7,74.6,74.6,0,0,1,7.8,6.1c5.1,4.3,10.4,8.7,16.9,10.8a23.2,23.2,0,0,0,8.7,1.2A18.6,18.6,0,0,1,199.8,57Zm-4.1,2.9c-6-1.6-11.3-5.5-15.9-9.6a122.2,122.2,0,0,0-15-11.6,7.1,7.1,0,0,0-1.4-1h0a47.4,47.4,0,0,0-5.4-3.1c1.9,0,3.9-.2,5.6.6a42.9,42.9,0,0,1,5.5,3.1c5.7,3.8,10.3,8.9,15.8,13.1S197,59,204.1,59.5h1.8A16.9,16.9,0,0,1,195.7,59.9Zm-9,1.7a37.6,37.6,0,0,1-10.1-6.2c-3.1-2.5-6.2-5.3-9.4-7.8-5.9-4.7-12.3-9.4-19.1-12.8h3.4a12.1,12.1,0,0,1,2.5.8,38.2,38.2,0,0,1,5.5,2.4,77,77,0,0,1,8.9,6c3,2.1,5.8,4.4,8.6,6.8,5.5,4.6,11.4,9.2,18.5,10.9a29.7,29.7,0,0,0,4.3.7C195.5,63.8,190.9,63.1,186.7,61.6ZM180.5,63c-7.8-4-14-10.6-21.1-15.6a117.8,117.8,0,0,0-23.5-12.5c2.2-.1,4.6-.5,6.7.3a39.4,39.4,0,0,1,5.5,2.6,135.5,135.5,0,0,1,20,13.6c6,4.9,12.4,10.5,20.1,12.5a25,25,0,0,0,6.1.9C189.6,66.5,184.8,65.2,180.5,63Zm-7.2,1.8a57.7,57.7,0,0,1-11.8-6.2c-3.7-2.5-7.2-5.3-10.7-8.1-7-5.5-14.1-11.1-22.1-15.2a8.5,8.5,0,0,1,3.5.8l3.2,1.2c2.1.8,4.3,1.7,6.4,2.7a114.7,114.7,0,0,1,21.4,13.1c3.4,2.6,6.6,5.4,10.1,7.8s7,4.7,10.9,5.7l3.4.7C182.7,67.9,177.8,66.5,173.3,64.8Zm-6.2,3.4c-8.9-2.9-16.5-8.9-23.4-15-3.6-3.3-7.1-6.7-10.8-9.7a69.5,69.5,0,0,0-12.3-7.9h1.9a4.7,4.7,0,0,1,1.6.4l3,1.4a62.9,62.9,0,0,1,6.7,3.7c7.6,4.6,14.2,10.5,21.5,15.7a92.2,92.2,0,0,0,11.2,7.1,57,57,0,0,0,12.1,4.6,25.7,25.7,0,0,0,4,.6A28.2,28.2,0,0,1,167.1,68.2Zm-6.5,3a35.2,35.2,0,0,1-11.2-5.4,63.5,63.5,0,0,1-9-8.2c-3-3-5.5-6.5-8.4-9.6a88.4,88.4,0,0,0-9.5-8.8,68.4,68.4,0,0,1,9.7,6.5c10.7,8.8,20.4,19.8,33.9,24.1a31.4,31.4,0,0,0,8,1.5A28,28,0,0,1,160.6,71.2Zm-11.3,1c-4-2.1-7.1-5.5-9.9-8.8s-5.9-6.7-8.9-10c-6.1-6.5-12.6-12.9-20.3-17.4,1.3-.1,3-.5,4.1,0a25.6,25.6,0,0,1,3.5,2.2c2.3,1.7,4.5,3.5,6.6,5.3,4.3,3.7,7.8,8,11.5,12.2a82.7,82.7,0,0,0,10.3,10.2,38,38,0,0,0,12.7,6.8,23.6,23.6,0,0,0,4.6,1C158.8,75.3,153.7,74.4,149.3,72.2Zm-10.7-3.3c-3-2.6-5.4-5.9-8-8.9s-5.6-5.7-8.5-8.5a100,100,0,0,0-19.7-15.1h3.4a12,12,0,0,1,3,1.5c2,1.2,4,2.5,5.9,3.9,6.7,5.1,12.4,11.3,18.2,17.4s10.3,12.8,18,15.7A24,24,0,0,1,138.6,68.9Zm6.8,6.2c-4.5,0-8.8-2.2-12.3-4.8s-6.2-5.7-9.2-8.7l-8.8-8.9A101.8,101.8,0,0,0,95.3,37.2l1.9-.2a2.2,2.2,0,0,1,1.6.3l2.9,1.6c2,1.1,4,2.4,5.9,3.7a156.5,156.5,0,0,1,19.1,16.3c3,3,5.6,6.3,8.4,9.3A28.8,28.8,0,0,0,145.4,75.1Zm-20.6-4.6c-3.4-2.2-6.1-5.2-8.9-8.1s-6-6.1-9.1-9.1A121.1,121.1,0,0,0,87,38.1l3.3-.4c1-.1,1.9.7,2.8,1.2l5.5,3.2c6.6,4.3,12.2,9.6,17.7,15l8.2,8.1a58.6,58.6,0,0,0,8.9,7.6,34.2,34.2,0,0,0,4.2,2.3A34.5,34.5,0,0,1,124.8,70.5Zm6,4.6A37.7,37.7,0,0,1,118,70.2a46.9,46.9,0,0,1-9.3-7.9c-2.9-3-5.8-6-8.8-8.8s-6.3-5.7-9.7-8.2A76.1,76.1,0,0,0,80,38.9l1.8-.2a2.5,2.5,0,0,1,1.4.4l2.7,1.4L91,43.7a162.2,162.2,0,0,1,17.1,13.9c5.1,4.7,9.7,10.3,15.6,14.2A28.5,28.5,0,0,0,130.8,75.1Zm-20.6-4.4a49.7,49.7,0,0,1-9.6-7.5c-3.1-2.9-6-6-9.2-8.8A120.8,120.8,0,0,0,69.9,39.6l3.5-.4a4.7,4.7,0,0,1,1.7.2l1.5.7c2.2,1,4.4,2.2,6.6,3.4,7.6,4.6,14.1,10.8,20.5,16.9,3.1,3,6.1,6.1,9.5,8.8a39.8,39.8,0,0,0,10.9,5.9h-.5A40.6,40.6,0,0,1,110.2,70.7Zm-9.1-1C93.7,65.7,88,59.4,81.7,54A77.9,77.9,0,0,0,60,41.1l3.8-.7a5.5,5.5,0,0,1,1.8-.1l1.6.8c2.1,1,4.1,2.1,6.1,3.3A117,117,0,0,1,94,60c6.1,5.8,12.3,11.5,20.3,14.5h0A47.5,47.5,0,0,1,101.1,69.7Zm5.8,4.5a41.9,41.9,0,0,1-17-6.4c-6.4-4.2-11.8-9.7-18-14.1A109.9,109.9,0,0,0,51.9,43c1.1-.3,2.3-.9,3.3-.6l3.1,1L64.7,46c7.7,3.6,14.3,8.7,20.7,14.2,3.3,2.8,6.6,5.7,10.1,8.2A45.4,45.4,0,0,0,106.9,74.2Zm-10-.7C88,71.8,80.5,67,73.2,61.9c-4.6-3.1-9-6.4-13.8-9.3A102.2,102.2,0,0,0,43.8,45a21.4,21.4,0,0,1,3.4-.9,10.8,10.8,0,0,1,3,1.1c2,.9,4.1,1.7,6.1,2.7a111.3,111.3,0,0,1,10.8,5.7,110.7,110.7,0,0,1,9.8,7.1C83.1,65.6,89.4,70.6,96.9,73.5Zm-53.6-26A107.2,107.2,0,0,1,63.2,57.8h-.1l10.2,6.7h.2c4.9,3.2,10,6.5,15.5,8.6l-1.9-.5a76.5,76.5,0,0,1-10.4-3.9l-9.2-4.4c-3-1.4-5.8-3.1-8.7-4.7a63.4,63.4,0,0,1-8.1-5.4C48.1,52.1,45.8,49.7,43.3,47.5ZM73,15.4a58.6,58.6,0,0,0-8.3,5.3c-2.4,1.9-4.5,4-6.7,6.1-4.8,4.2-9.8,8.1-14.8,12L45.9,36c3.9-4.3,7.5-8.9,12.2-12.3A83.4,83.4,0,0,1,73,15.4Zm11.1-3.8A69.5,69.5,0,0,0,75,17.8c-5,3.9-9.4,8.5-14.2,12.7a84.5,84.5,0,0,1-7.5,5.9l-3.6,2.3-2,1.1a11.7,11.7,0,0,1-2,.5c5.4-4.4,11-8.6,15.6-13.7s11.5-9.1,18-12.6ZM103,6.1a60.3,60.3,0,0,0-11.4,6.2c-6.4,4.2-11.9,9.8-17.5,15.1A69.5,69.5,0,0,1,65,34.5a37.2,37.2,0,0,1-4.8,2.7,8.8,8.8,0,0,1-2.7,1l-2.8.5h.1a70.2,70.2,0,0,0,10-8c5.7-5.3,11.1-11.1,17.5-15.5a53.2,53.2,0,0,1,9.9-5.5A50.5,50.5,0,0,1,103,6.1Zm9-1.2-.6.2a66,66,0,0,0-10.9,5.6C94,14.6,89.1,20.2,83.9,25.6a54.9,54.9,0,0,1-8.1,7.1,23.5,23.5,0,0,1-4.6,2.6,12.3,12.3,0,0,1-2.6,1.2l-2.1.3A86.2,86.2,0,0,0,76,29.4l7.9-7.7A69.6,69.6,0,0,1,92.5,14a57,57,0,0,1,8.9-5.4A66.6,66.6,0,0,1,112,4.9ZM122.1,4l-2.8.8a52.9,52.9,0,0,0-10.6,5.4,48.5,48.5,0,0,0-8.2,6.1c-2.6,2.4-5,4.9-7.5,7.5A97.8,97.8,0,0,1,85.8,31a26.3,26.3,0,0,1-4.4,3L79,35.1a10.1,10.1,0,0,1-2.5.4,50.2,50.2,0,0,0,9.6-8.2c4.8-5.3,9.5-11.1,15.6-15A55.9,55.9,0,0,1,111.3,7,57.7,57.7,0,0,1,122.1,4Zm10.1-.7-.9.2a58.9,58.9,0,0,0-11.5,5,48.3,48.3,0,0,0-9,6.3c-2.7,2.7-5.2,5.5-7.7,8.4A52.9,52.9,0,0,1,95.2,31a39.5,39.5,0,0,1-4.9,2.9,7.9,7.9,0,0,1-2.6.8l-2.6.2c5-3.4,9-8.3,13.2-12.6,2.1-2.2,4.2-4.3,6.5-6.3a53,53,0,0,1,6.7-5h.1a44.5,44.5,0,0,1,9.8-4.8A85.8,85.8,0,0,1,132.2,3.3Zm10.3.1a37.8,37.8,0,0,0-12,4.4,72.2,72.2,0,0,0-17.8,14.3c-2.6,2.7-5.1,5.6-8,8.1a23.6,23.6,0,0,1-4.2,2.8,7,7,0,0,1-2.4.9H95.6c5-3.3,8.7-8,12.5-12.5s9.5-9.6,15.5-12.7A42.7,42.7,0,0,1,132.7,5,64.6,64.6,0,0,1,142.5,3.4Zm3.8,1.3a48.9,48.9,0,0,0-4.8,2,63.8,63.8,0,0,0-18.7,13.9c-2.8,2.9-5.7,5.6-8.7,8.3a44.7,44.7,0,0,1-4,3.4,9.7,9.7,0,0,1-2.3,1.1h-2.9a54.3,54.3,0,0,0,8.1-7.8c4.4-4.9,8.9-10.1,14.4-13.8a43.2,43.2,0,0,1,9-4.8A42.1,42.1,0,0,1,146.3,4.7Zm10.2,0a47.8,47.8,0,0,0-9.6,4.1,70.5,70.5,0,0,0-15.8,11.9c-2.3,2.2-4.4,4.6-6.8,6.7a37,37,0,0,1-7.8,5.3,8.9,8.9,0,0,1-2.8.3c.7-.3,1.2-1.2,1.8-1.7l2.1-1.8,4.2-4.1c4.9-5,9.7-10.1,15.6-14.1a49.6,49.6,0,0,1,8.8-4.7A36.1,36.1,0,0,1,156.5,4.7Zm10.1.6-1.6.4a34.5,34.5,0,0,0-10.2,4.5q-4.5,2.7-8.7,5.7a69.5,69.5,0,0,0-8.1,6.2c-2.5,2.2-4.9,4.6-7.6,6.7s-2.6,2.1-3.9,2.9a3.2,3.2,0,0,1-2.2.8h-2.5a57.2,57.2,0,0,0,9-8c4.9-5.2,10.2-10.3,16.4-13.9a42.5,42.5,0,0,1,9.7-4.4,22.6,22.6,0,0,1,5.1-.8A36.2,36.2,0,0,1,166.6,5.3Zm9.5,2.3c-1,.1-2.1.1-3.1.3a34.2,34.2,0,0,0-10.8,3.5,93.5,93.5,0,0,0-8.6,5.2c-2.7,1.9-5.4,3.7-8,5.7s-5.1,4.1-7.8,6a33,33,0,0,1-3.9,2.6c-1.3.7-2.6,1.6-4.1,1.6a96,96,0,0,0,9-7.9,125.9,125.9,0,0,1,17.7-13,33.1,33.1,0,0,1,9.1-4.3A23.3,23.3,0,0,1,176.1,7.6Zm7.9,2.5a31.5,31.5,0,0,0-12.1,2.4A51.9,51.9,0,0,0,162,17a85.8,85.8,0,0,0-8.4,6.1q-3.9,3.3-8.1,6.3a22.6,22.6,0,0,1-4.3,2.4c-1.7.6-3.6.4-5.4.5l1.6-1c3-2,6-4.2,8.8-6.5s5.6-4.3,8.5-6.3a103.4,103.4,0,0,1,8.9-5.7,29.9,29.9,0,0,1,9.8-3.3,22.9,22.9,0,0,1,10.1.4Zm9.5,4.1c-3.9-.3-7.9-.7-11.7.2-6.9,1.5-13,5-18.6,9.2-2.8,2-5.3,4.4-8.1,6.5l-2.2,1.3a7.5,7.5,0,0,1-2,1,22.6,22.6,0,0,1-2.6-.1h-2.7a51.4,51.4,0,0,0,5.4-3.7c2.7-2.1,5.3-4.3,7.9-6.5a55.2,55.2,0,0,1,16.6-8.8,22.7,22.7,0,0,1,9.3-1.4C187.9,12,190.6,13.1,193.5,14.2Zm5.1,2.5a25.1,25.1,0,0,0-9.8,1.1,60.3,60.3,0,0,0-8.9,3.4c-2.9,1.4-5.6,3.1-8.4,4.8a57.3,57.3,0,0,1-8.2,4.9c-1.3.6-2.7.9-4,1.4s-.4.3-.8.3h-3.1c3-1.9,5.5-4.5,8.2-6.6,5.1-4,10.5-7.4,16.6-9.3a29.2,29.2,0,0,1,9.3-1C192.6,15.8,195.7,15.8,198.6,16.7Zm8.7,3.3a27.2,27.2,0,0,0-6.4-.3,45.3,45.3,0,0,0-9.6,1.9,46.9,46.9,0,0,0-8.7,4.3c-2.8,1.6-5.6,3.4-8.5,4.9a14.9,14.9,0,0,1-4.5,1.9,21.7,21.7,0,0,1-5.1,0,76.1,76.1,0,0,0,10.1-6.2,56.1,56.1,0,0,1,10.3-5.4c3.3-1.3,7-2.7,10.6-2.8A33.8,33.8,0,0,1,207.3,20Zm1,1.9h-.4a35.1,35.1,0,0,0-9,1.8,32.8,32.8,0,0,0-8.3,3.8,75.2,75.2,0,0,1-7.9,4.3,6.4,6.4,0,0,1-1.8.6l-1.8.6a17.7,17.7,0,0,1-2.3-.1h-2.3c2.7-1.4,5.2-3,7.8-4.5a52.1,52.1,0,0,1,8-4.4A31.8,31.8,0,0,1,208.3,21.9Zm4.8,2.4a29.6,29.6,0,0,0-14.7,4.6c-2.2,1.4-4.3,2.8-6.6,4a8.7,8.7,0,0,1-1.7.7,5,5,0,0,1-2.1-.1l-4-.2c4.6-2.2,8.6-5.4,13.4-7.2a32.5,32.5,0,0,1,7.4-2,14.2,14.2,0,0,1,6.8-.1Zm7.9,3.2h-1.7a27.6,27.6,0,0,0-12.8,4.4l-3,1.9a5.5,5.5,0,0,1-3,.9l-7.1-.7c2.3-1.2,4.4-2.8,6.6-4.1a33.6,33.6,0,0,1,7-3,21.3,21.3,0,0,1,7.1-.9,20.9,20.9,0,0,1,3.6.4Zm1.2.1h0Zm5.4,3.3-1.8-.2a24,24,0,0,0-10.9,1.9l-5.2,2.1a5.9,5.9,0,0,1-2.2.5h-2.7a59.5,59.5,0,0,1,5.3-3.4,30.3,30.3,0,0,1,5.8-1.9A15.9,15.9,0,0,1,227.6,30.9Zm4.7,2.9a11.5,11.5,0,0,0-2.6-.1,22.4,22.4,0,0,0-7.2,1.8h-.1a3.7,3.7,0,0,1-2.3.3h-2.4a43.6,43.6,0,0,0-5.1-.3,36.3,36.3,0,0,1,10.2-3,20.7,20.7,0,0,1,5,.2A16.6,16.6,0,0,1,232.3,33.8Zm6.9,4c-4.7-.2-9.4-1.1-14.1-1.5a16.4,16.4,0,0,1,12.5.7Z" style="fill:#c5a45a"/><path d="M165,38.8h-.2Z" style="fill:#c5a45a"/><path d="M137.3,31.4h.2Z" style="fill:#c5a45a"/><path d="M222.6,35.4h0Z" style="fill:#c5a45a"/><path d="M73.5,64.5Z" style="fill:#c5a45a"/><path d="M135.8,55.6c0,.1,0,.1.1.1h-.1Z" style="fill:#c5a45a"/><path d="M123.6,71.8h.1C123.7,71.8,123.7,71.8,123.6,71.8Z" style="fill:#c5a45a"/></svg>
